<svg xmlns="http://www.w3.org/2000/svg" xmlns:xlink="http://www.w3.org/1999/xlink" viewBox="0 0 524 416" xmlns:v="https://vecta.io/nano"><style><![CDATA[.AU{opacity:.32}.AV{fill:#d78846}.AW{fill:#f8c58a}.AX{opacity:.55}.AY{fill:#885736}.AZ{fill:#eaeced}.Aa{fill:#515151}.Ab{fill:#34283b}.Ac{fill:#ffb87f}.Ad{fill:#8d4f22}.Ae{fill:#eeb87a}.Af{fill:#f39f6d}.Ag{fill:#a66d40}.Ah{fill:#cde136}.Ai{opacity:.75}.Aj{fill:#605c5b}.Ak{fill:#cac7cc}.Al{fill:#7e7783}.Am{fill:#9fe9e1}.An{fill:#355577}.Ao{fill:#60c3de}.Ap{fill:#ffcea7}]]></style><path d="M343.1 100.6s82.1-10.9 134.8.9c0 0-81.9 9.6-134.8-.9z" fill="#aba5a6"/><radialGradient id="A" cx="410.502" cy="107.335" r="47.819" gradientTransform="matrix(1 0 0 0.8465 0 9.8951)" gradientUnits="userSpaceOnUse"><stop offset="0" stop-color="#ffc9bd"/><stop offset=".154" stop-color="#e6b2ad"/><stop offset=".553" stop-color="#a87b87"/><stop offset=".847" stop-color="#82596f"/><stop offset="1" stop-color="#734c66"/></radialGradient><path d="M343.1 100.6s82.1-10.9 134.8.9c0 0-81.9 9.6-134.8-.9z" fill="url(#A)" class="AU"/><path d="M335.3 196.2c-3.2-.2-6.9 2-10.6 4.3C313 207.9 304 224.1 289 224c-6.8-.1-17.8-4.8-28.9-9l-1.2 11.7c5.4 1.3 10.8 2.8 16.1 4.7 9.2 3.3 18.5 5.8 27.9 7.7 7.5-4.7 18.3-14.9 35.2-33.6 2.6-2.7 1-9-2.8-9.3z" fill="#c3724a"/><path d="M285.7 227.7c9.2 3.3 18.5 5.8 27.9 7.7 7.5-4.7 18.3-14.9 35.2-33.6 2.5-2.8.9-9.1-2.8-9.3-3.2-.2-6.9 2-10.6 4.3-11.7 7.4-20.7 23.6-35.7 23.5s-49.9-23-63.3-12.1c0 0 0-.1-.1-.2l-1 9.6c17.2 1.9 34.2 4.3 50.4 10.1z" fill="#d5834a"/><path d="M298.7 225c9.2 3.3 18.5 5.8 27.9 7.7 7.5-4.7 18.9-14.1 35.8-32.9 2.5-2.8.7-7.3-3-7.5-3.2-.2-7 .2-11.1 1.8-10.3 4.2-20.7 23.6-35.7 23.5s-49.9-23-63.3-12.1c0 0 0-.1-.1-.2l-1 9.6c17.3 1.8 34.3 4.2 50.5 10.1z" fill="#eb9b6d"/><path d="M236.1 133l2.9 75.4 52.2 14.6 51.2-20 3.8-71.7-101.5-1.7z" class="AV"/><path d="M253.8,179.6c-4.8,1.5-10,2.4-15.8,2.5l1,26.3l14.8,4.1V179.6z" class="AX Ag"/><path d="M351 202.6l3.8-71.3-110.1-1.7 2.8 78.8 52.2 14.5 48.6-18.9c.9-.4 1.7-1 2.7-1.4z" class="AW"/><path d="M286.4 130.3v26.4h27.8v-26zm0 61.2v25.2h27.8v-24.8z" class="AY"/><g class="Ad"><path d="M347.8 204.3l-103.1-74.7v2.8l100.1 73.9c.9-.7 1.9-1.4 3-2z"/><path d="M354.7 131.3l-.2 3.8-107.1 77.5v-4.2z"/></g><path d="M250.9 167.7h29.6v13.7h-29.6z" class="AZ"/><g class="Aa"><path d="M252.5 169.7h1.5v10.1h-1.5z"/><use xlink:href="#J"/><use xlink:href="#J" x="1.2"/><use xlink:href="#J" x="2.5"/><path d="M257.4 169.7h.8v10.1h-.8z"/><use xlink:href="#J" x="4.9"/><use xlink:href="#J" x="6.2"/><path d="M260.9 169.7h1v10.1h-1z"/><use xlink:href="#J" x="8.6"/><use xlink:href="#J" x="9.8"/><use xlink:href="#J" x="11.1"/><path d="M265.8 169.7h1v10.1h-1z"/><use xlink:href="#J" x="13.5"/><use xlink:href="#J" x="14.7"/><use xlink:href="#J" x="16"/><path d="M270.2 169.7h1.2v10.1h-1.2z"/><use xlink:href="#J" x="18.4"/><use xlink:href="#J" x="19.7"/><use xlink:href="#J" x="20.9"/><use xlink:href="#J" x="22.1"/><path d="M276.1 169.7h1.5v10.1h-1.5z"/><use xlink:href="#J" x="24.6"/></g><path d="M349.2 203.6l1-21.9c-19.2 9.9-36.9 16-59.8 12.2-13.8-2.3-28.4-7.3-42-12.5l.7 30 .2-.1 42 11.7 3.6-1.4 5 1.4 44.3-17.2.7.5c1-.7 2-1.3 3-1.9l-.1-.1.6-.2c.2-.2.5-.4.8-.5z" class="AX Ag"/><path d="M168.9 237c4.9 12.9 17.2 23.2 29.6 28.6l.2.1s24.3-26.2 29.8-28.4c14.8-6.1 38.2 1.7 44.5 2.2 10.3.8 33.5 1.3 45.4 3.3 1.5.3 3-.1 4.1-1 3.8-3 13-10.1 21.8-15.4 6.2-3.7 11.5-11.7 19.2-20.2 2.5-2.8.7-7.3-3-7.5-3.2-.2-7 .2-11.1 1.8-10.3 4.2-20.7 23.6-35.7 23.5s-49.9-23-63.3-12.1c0 0-16-19.9-30-11.5-17.9 11-32.9 26.2-51.5 36.6z" class="Ac"/><path d="M330.6 229.8c-9.3 5.2-19.2 8-29.9 6.7-11.4-1.3-22.1-5.7-33.6-6.7-12-1-22.7-5.3-34.3-.4-10.2 4.3-19.9 12.9-30.7 15.4-10.4 2.4-19.1-1.2-26.1-9.1-.6-.6-1.1-1.3-1.7-1.9-1.7 1.1-3.5 2.2-5.3 3.2 4.9 12.9 17.2 23.2 29.6 28.6l.2.1s24.3-26.2 29.8-28.4c14.8-6.1 38.2 1.7 44.5 2.2 10.3.8 33.5 1.3 45.4 3.3 1.5.3 3-.1 4.1-1 3.8-3 13-10.1 21.8-15.4 3.4-2.1 6.6-5.4 10-9.4-7.7 4.7-16.1 8.4-23.8 12.8z" fill="#d5af7f" class="AX"/><path d="M273.2 211.1l-18.7-11.3c-33.5-11.6-30.5 3.1-35.3 6.1l22.6 12.8s16.7-7.5 59.7 2.5c-.1 0-27.1-10-28.3-10.1z" opacity=".65" fill="#c5a084"/><path d="M361.7 201.9c-3.4-.5-9.3 1.7-9.1 9.8 0 1.9 2.7 2.7 4.6 1.2 1.6-1.3 3.8-3.7 6.1-6 1.1-1.2 1.9-4.5-1.6-5z" fill="#f9e6e0"/><path d="M315.1 207.7c.3-1.2-.2-2.4-1.4-2.5-9.3-.8-44.2-4.4-64.8-11.5-33.5-11.6-31.1 8.8-35.8 11.8l28.7 13.1s4.5-14 52.3-.2c-.1.1 17.9 1.6 21-10.7z" class="Ac"/><path d="M301.3 204.5s-5.7 2.5-2.7 5.9c1.6 1.8 4.3 2.9 9.3 1.9 3.8-.8 5.7-3.3 6-5 .1-.8-.4-1.5-1.2-1.6l-11.4-1.2z" fill="#f9e6e0"/><radialGradient id="B" cx="266.829" cy="197.68" r="84.315" gradientUnits="userSpaceOnUse"><stop offset="0" stop-color="#ffc9bd"/><stop offset=".154" stop-color="#e6b2ad"/><stop offset=".553" stop-color="#a87b87"/><stop offset=".847" stop-color="#82596f"/><stop offset="1" stop-color="#734c66"/></radialGradient><path d="M352.3 219.5c2.7-3 5.5-6.5 8.7-10.2.7-.8 1.5-1.6 2.3-2.4.3-.3.5-.7.7-1.2 1.4-2.1.7-4.9-1.3-6.2 2.1-2.8.4-7-3.2-7.2-2.3-.1-5.1 0-8 .8l3.3-61.8-62.2-.9-47.9-.8-8.5 3.4 1.9 49.1.3 8.8c-20.8-3.8-21.2 9.9-24.5 13.9-15.2 10.4-28.7 23.1-44.9 32.2 4.9 12.9 17.2 23.2 29.6 28.6l.2.1s24.3-26.2 29.8-28.4c14.8-6.1 38.2 1.7 44.5 2.2 10.3.8 33.5 1.3 45.4 3.3 1.5.3 3-.1 4.1-1 2.9-2.3 8.8-6.8 15.2-11.2a120.92 120.92 0 0 1 6.6-4.2c.8-.5 1.6-1.1 2.4-1.7l.6-.6c.6-.5 1.2-1 1.8-1.6l.6-.6c.6-.6 1.2-1.2 1.8-1.9.3-.1.5-.3.7-.5z" fill="url(#B)" class="AU"/><path d="M186.9 137.8s-48.5-7.5-82.9-8.3c-34.3-.8-79.1 8.8-79.1 8.8s38.7 11.6 84.1 11.6c51.7 0 77.9-12.1 77.9-12.1z" fill="#aba5a6"/><path d="M127.4 47.6L114 42.1l-37.2-.8 1.1 42.1 35 .8 13.7-6.3z" class="AW"/><path d="M77.9 82.2l-.1-2.1 17.5-18.4-18.5-19.2v-1.2h.9l18.6 19.4L114 42.1v2L97.2 61.6l18.7 18.1v2.2L96.2 62.5z" class="Ad"/><path d="M127.4 47.6L114 42.1l-1.1 42.1 13.7-6.3z" class="AV"/><path d="M90.9 41.6V50l-6.7-.5-.1-8.1 6.8.2zm-4.2 31.6l8.4.8-.1 9.8-8.4-.2.1-10.4z" class="AY"/><path d="M101 80.2l9.7-.3.1-5.9-9.7.3z" class="AZ"/><g class="Aa"><path d="M109.7 79.3h.5l.1-4.4h-.5z"/><path d="M109.6 79.3h.2l.1-4.4h-.2zm-.4 0h.2l.1-4.4h-.2zm-.4 0h.2l.1-4.4h-.2zm-.5 0h.3l.1-4.3h-.3zm-.3 0h.2l.1-4.3h-.2zm-.4.1h.2l.1-4.4h-.2zm-.5 0h.4V75h-.3zm-.3 0h.2l.1-4.4h-.2zm-.4 0h.2l.1-4.4h-.2zm-.4 0h.2l.1-4.4h-.2zm-.5 0h.4V75h-.3zm-.3 0h.2V75h-.1zm-.4 0h.2V75h-.2zm-.4.1h.2v-4.4h-.2z"/><path d="M104 79.5h.4l.1-4.4h-.5zm-.4 0h.1l.1-4.4h-.2zm-.5 0h.2l.1-4.4h-.2zm-.4 0h.2l.1-4.4h-.2zm-.4 0h.2l.1-4.4h-.2z"/><path d="M101.9 79.5h.5l.1-4.4h-.5zm-.4 0h.2l.1-4.4h-.2z"/></g><path d="M101.2 65.8c4.7-2.7 8.3-6.6 10.9-10.5l-.5 27H79l-.1-11.7c7.5.9 16-1.1 22.3-4.8z" class="AU Ae"/><path d="M104.5 77l-13.4-5.6-37.2-.7 1.1 42.1 35 .8 13.6-6.3z" class="AW"/><path d="M55 111.6l-.1-2.1 17.5-18.4-18.5-19.2v-1.2h.9l18.6 19.4 17.7-18.7-.1 2.1-16.7 17.4L93 109.1v2.1L73.3 91.9z" class="Ad"/><path d="M104.5 77l-13.4-5.6-1.1 42.2 13.6-6.3z" class="AV"/><path d="M66.3 71v9.4l-6.7-.5-.1-9.1 6.8.2zm-2.5 31.6l8.4.8-.1 9.8-8.4-.2.1-10.4z" class="AY"/><path d="M78.1 109.6l9.7-.3.1-5.9-9.7.2z" class="AZ"/><g class="Aa"><path d="M86.8 108.7h.5l.1-4.4h-.5z"/><path d="M86.7 108.7h.2l.1-4.4h-.2zm-.4 0h.2l.1-4.4h-.2zm-.4 0h.2l.1-4.4H86zm-.5 0h.3l.1-4.4h-.3zm-.3 0h.2l.1-4.4-.2.1zm-.4 0h.2l.1-4.3h-.2zm-.5.1l.4-.1v-4.3h-.3zm-.3 0h.2l.1-4.4H84zm-.4 0h.2v-4.4h-.1zm-.4 0h.2v-4.4h-.1zm-.5 0h.3l.1-4.4h-.3zm-.3 0h.2v-4.4h-.2zm-.4 0h.2v-4.4h-.2zm-.4 0h.2v-4.4h-.2z"/><path d="M81.1 108.9l.4-.1v-4.4h-.4zm-.5 0h.2l.1-4.4h-.2zm-.4 0h.2l.1-4.4h-.2zm-.4 0h.2l.1-4.4h-.2zm-.4 0h.2l.1-4.4h-.2z"/><path d="M79 108.9h.5l.1-4.4h-.5zm-.4 0h.2l.1-4.4h-.2z"/></g><path d="M78.3 95.2c4.7-2.7 8.3-6.6 10.9-10.5l-.5 27H56.1l-.2-11.7c7.6.9 16.1-1.2 22.4-4.8z" class="AU Ae"/><path d="M164 70.5L147.5 65l-45.7-.8 1.3 42.1 43 .8 16.9-6.3z" class="AW"/><path d="M103.1 105.1l-.1-2.1 21.5-18.4-22.7-19.2v-1.2h1l22.9 19.4L147.5 65v2l-20.7 17.4 23.1 18.2v2.2l-24.3-19.4z" class="Ad"/><path d="M164 70.5L147.5 65l-1.4 42.1 16.9-6.3z" class="AV"/><path d="M141.5 64.9v8l-8.3-.5-.1-7.7 8.4.2zm-27.6 31.2l10.3.8-.2 9.8-10.3-.2.2-10.4z" class="AY"/><path d="M131.8 88.7c5.8-2.7 10.2-6.6 13.4-10.5l-.6 27h-40.1l-.2-11.7c9.3.9 19.7-1.1 27.5-4.8z" class="AU Ae"/><path d="M84.2 108.7l-11.1-5-29.9-1.6.9 36.1 29 1.9 11.3-5.1z" class="AW"/><path d="M84.2 108.7l-11.1-5v36.4l11.3-5.1z" class="AV"/><path d="M64.7 109.2l-7.6-.6-.1-5.7 7.6.4.1 5.9zm-13.4 20.3l6.9.9v8.6l-6.9-.5v-9z" class="AY"/><path d="M63.1 136.1l8.1.1V131l-8.1-.1z" class="AZ"/><g class="Aa"><path d="M70.3 135.6h.4v-3.8h-.4z"/><path d="M70.2 135.6h.2v-3.8h-.2zm-.3 0h.2v-3.8h-.2zm-.3 0h.1v-3.8h-.1zm-.4 0h.2v-3.8l-.2-.1zm-.3 0h.2v-3.9h-.2zm-.3 0h.1v-3.9h-.1zm-.4 0h.3l-.1-3.9h-.2zm-.3 0h.2v-3.9h-.2zm-.3 0h.1v-3.9h-.1zm-.4 0h.2v-3.9h-.2zm-.4 0h.3v-3.9h-.3zm-.2 0h.1v-3.9h-.2zm-.4 0h.2v-3.9h-.2zm-.3 0h.1v-3.9h-.1z"/><path d="M65.6 135.6h.3v-3.9h-.3zm-.4 0h.2v-3.9h-.2zm-.3 0h.1v-3.9h-.1zm-.4 0h.2v-3.9h-.2zm-.3 0h.2l-.1-3.9h-.1z"/><path d="M63.9 135.6h.4v-3.9h-.4zm-.4-.1h.2v-3.8h-.2z"/></g><path d="M63.1 123.6c3.8-2.2 6.7-5.5 8.7-8.7l.1 23.5-27-1.1-.1-10.3c6.2 1 13.1-.5 18.3-3.4z" class="AU Ae"/><path d="M139.1 93.8L120 86.6H71l1.4 54.4 47.2 2.6 19.5-8.1z" class="AW"/><path d="M139.1 93.8L120 86.6l-.4 57 19.5-8.1z" class="AV"/><path d="M81 98.8V86.6h12.3v12.6c-4.2 0-8.3-.1-12.3-.4zm19.8 32.1l-.1 11.6-11.2-.6.1-11.8 11.2.8z" class="AY"/><path d="M103.1 132.3h13.5v8.1h-13.5z" class="AZ"/><g class="Aa"><path d="M115.1 133.5h.7v6h-.7z"/><path d="M115 133.5h.3v6h-.3zm-.5 0h.3v6h-.3zm-.6 0h.3v6h-.3zm-.7 0h.4v6h-.4zm-.4 0h.3v6h-.3zm-.6 0h.3v6h-.3zm-.7 0h.5v6h-.5zm-.4 0h.3v6h-.3zm-.6 0h.3v6h-.3zm-.5 0h.3v6h-.3zm-.7 0h.5v6h-.5zm-.5 0h.3v6h-.3zm-.5 0h.3v6h-.3zm-.6 0h.3v6h-.3z"/><path d="M107.2 133.5h.6v6h-.6zm-.6 0h.3v6h-.3zm-.6 0h.3v6h-.3zm-.5 0h.3v6h-.3zm-.6 0h.3v6h-.3z"/><path d="M104.4 133.5h.7v6h-.7zm-.6 0h.3v6h-.3z"/></g><path d="M103.1 118.3c6.4-3.6 11.2-8.8 14.7-14v36.6l-44-1.4-.2-15.3c9.8 1.3 21-1.2 29.5-5.9z" class="AU Ae"/><path d="M174.5 105.8l-12.4-6.3-34.9-1.9.9 42.3 31.4 2.2 12.8-5.6z" class="AW"/><path d="M174.5 105.8l-12.4-6.3-2.6 42.6 12.8-5.6z" class="AV"/><path d="M158.2 108.2l-8.7-.7.1-8.7 8.8.5-.2 8.9zm-22.1 22.1l7.6 1.1-.3 9.6-7.5-.5.2-10.2z" class="AY"/><path d="M148.9 137.7l8.8.1.3-5.7-8.9-.2z" class="AZ"/><g class="Aa"><path d="M156.8 137.2h.4l.2-4.3h-.4z"/><path d="M156.7 137.2h.2l.2-4.3h-.2zm-.4 0h.2l.2-4.3h-.1zm-.3 0h.2l.2-4.3h-.2zm-.5 0h.3l.2-4.3h-.3zm-.2 0h.1l.2-4.3h-.1zm-.4 0h.2l.2-4.3h-.2zm-.4 0h.3l.2-4.3h-.4zm-.3 0h.1l.2-4.3h-.2zm-.4 0h.2l.2-4.3h-.2zm-.4-.1h.2l.2-4.2-.2-.1zm-.4 0h.3l.2-4.3h-.3zm-.3 0h.2l.1-4.3h-.1zm-.4 0h.2l.2-4.3h-.2zm-.4 0h.2l.2-4.3h-.2z"/><path d="M151.6 137.1h.4l.1-4.3h-.3zm-.4 0h.2l.2-4.3h-.2zm-.4 0h.2l.2-4.3h-.2zm-.3 0h.1l.2-4.3h-.2zm-.4 0h.2l.1-4.3h-.1z"/><path d="M149.7 137.1h.5l.2-4.3h-.5zm-.3 0h.1l.2-4.3h-.2z"/></g><path d="M149.4 123.6c4.4-2.5 7.9-6.4 10.4-10.3l-1.4 26.9-29.3-1.3-.1-11.4c6.8 1.1 14.6-.6 20.4-3.9z" class="AU Ae"/><radialGradient id="C" cx="153.894" cy="91.633" r="68.915" gradientTransform="matrix(-1 0 0 1 247.1482 0)" gradientUnits="userSpaceOnUse"><stop offset="0" stop-color="#ffc9bd"/><stop offset=".154" stop-color="#e6b2ad"/><stop offset=".553" stop-color="#a87b87"/><stop offset=".847" stop-color="#82596f"/><stop offset="1" stop-color="#734c66"/></radialGradient><path d="M44 134.8l-.8-32.7 11.6.6-.8-30.8v-1.1h.9l4.8.1h.9l17.1.3-.7-28.7v-1.1h.9l13.3.2 23.1.5 13.4 5.6-.5 17 6.2.1 8.3.1 6.1.1 16.5 5.6-1 29.5 11.5 5.8-2.2 29.9 14.6 2.1s-26.2 12-77.8 12c-45.4 0-84.1-11.6-84.1-11.6s7.3-1.6 18.7-3.5z" fill="url(#C)" class="AU"/><g class="Ab"><path d="M350.2 78.8v12.1h119.7V79.6z"/><path d="M421.5 62h15v20.2h-19.6zM374 98c-2.4 4.9-7.5 7.3-11.4 5.4-3.8-1.9-5-7.4-2.6-12.3s7.5-7.3 11.4-5.4 5 7.4 2.6 12.3z"/></g><use xlink:href="#K" class="Ak"/><use xlink:href="#L" class="Al"/><ellipse transform="matrix(.4459 -.8951 .8951 .4459 141.1713 417.0562)" cx="407.4" cy="94.5" rx="9.9" ry="7.8" class="Ab"/><use xlink:href="#K" x="40.4" class="Ak"/><use xlink:href="#L" x="40.4" class="Al"/><ellipse transform="matrix(.4459 -.8951 .8951 .4459 163.1542 452.5669)" cx="447.1" cy="94.5" rx="9.9" ry="7.8" class="Ab"/><path d="M450.5 96.2c-1.2 2.4-3.7 3.6-5.6 2.6-1.9-.9-2.4-3.6-1.2-6s3.7-3.6 5.6-2.6c1.8.9 2.4 3.6 1.2 6z" class="Ak"/><use xlink:href="#L" x="80.1" class="Al"/><path d="M435.3 40.8l-3.8 40.4h40.2l1.6-18.7-14.6-21.7z" fill="#ffd11a"/><path d="M433.2 63.1l-1.7 18.1h40.2l1.6-18.1z" fill="#eeaf1a" class="AX"/><path d="M353.4 28.3l-9 52.9H425l7.3-52.9z" class="Ah"/><path d="M472.1 76.1h-4.3l-.2 2.7h4.3z" fill="#ff8b1a"/><path d="M472.6 71.1h-1.1c-1.5 0-2.7.8-2.9 1.8h0c-.2 1.2 1.2 2.2 2.9 2.2h.7l.4-4z" fill="#e5e5e8"/><path d="M437.1 81.2h1.1l2.5-14.5h23.6l-2 14.5h1.1l2.2-15.6h-25.9zm9.1-12.1c0 .4-1.1.8-2.5.8s-2.5-.3-2.5-.8 1.1-.8 2.5-.8 2.5.4 2.5.8z" fill="#e08e00"/><path d="M438.9 61.4l1.8-14.1H457l10.5 14.1z" class="Ab"/><path d="M375.5 45h-6l-1.1 6.5h-2.6l2.7-15.5h9.6l-.4 2.2h-6.9l-.8 4.6h6.1l-.6 2.2zm9 2.9h-5.8l-1.9 3.6H374l8.4-15.5h2.4l3 15.5h-2.6l-.7-3.6zm-4.7-2.1h4.3l-1.1-6.4-3.2 6.4zm18.3 1.7c.2-1-.4-1.8-1.7-2.3l-.9-.3c-1.6-.6-2.7-1.2-3.4-2s-1-1.7-.9-2.7c.1-.9.4-1.7.9-2.3.5-.7 1.3-1.2 2.1-1.5.9-.4 1.8-.5 2.8-.5s1.8.2 2.6.6 1.3 1 1.7 1.7.6 1.5.6 2.4h-2.6c.1-.8-.1-1.4-.5-1.9-.4-.4-1-.7-1.8-.7s-1.5.2-2.1.6a2.14 2.14 0 0 0-1 1.6c-.1.9.5 1.6 1.8 2.1l.8.3c1.6.6 2.8 1.3 3.4 2 .6.8.9 1.7.9 2.8-.1.9-.4 1.6-.9 2.3-.5.6-1.2 1.1-2.1 1.5s-1.9.5-2.9.5a6.71 6.71 0 0 1-2.8-.6c-.8-.4-1.5-1-1.9-1.7s-.6-1.6-.6-2.5h2.6c-.1.9.2 1.6.6 2 .5.5 1.2.7 2.1.7.8 0 1.6-.2 2.1-.5a2.01 2.01 0 0 0 1.1-1.6zm17.5-9.3h-4.7l-2.3 13.3H406l2.3-13.3h-4.6l.4-2.2H416l-.4 2.2zm-63.2 30.9l2-11.6h3.1c1 0 1.8.2 2.5.7s1.2 1.1 1.5 2c.3.8.4 1.8.3 2.8l-.1.6c-.2 1.1-.5 2-1.1 2.8-.5.8-1.2 1.5-2.1 1.9-.9.5-1.8.7-2.8.7h-3.3zm3.7-9.9l-1.4 8.3h1.2c1.1 0 1.9-.3 2.6-1s1.1-1.6 1.3-2.8l.2-2.1c0-.8-.3-1.4-.7-1.8s-1-.7-1.7-.7l-1.5.1zm14.2 4.8h-4.6l-.6 3.5h5.4l-.3 1.6h-7.4l2-11.6h7.3l-.3 1.6h-5.3l-.6 3.2h4.6l-.2 1.7zm3.7 3.5h5.1l-.3 1.6h-7.1l2-11.6h2l-1.7 10zm8.5 1.6h-2l2-11.6h2l-2 11.6zm6.9-2.5l4.3-9h2.2L390 69.1h-1.9l-2.2-11.6h2.1l1.4 9.1zm13.3-2.6h-4.6l-.6 3.5h5.4l-.3 1.6h-7.4l2-11.6h7.3l-.3 1.6H399l-.6 3.2h4.6l-.3 1.7zm6.5.7H407l-.8 4.5h-2l2-11.6h3.7c1.3 0 2.2.3 2.9.9s1 1.4.9 2.5c-.1.7-.3 1.4-.7 1.9s-1.1 1-1.9 1.3l1.7 4.8v.1h-2.1l-1.5-4.4zm-1.9-1.7h1.9c.7 0 1.3-.2 1.7-.5.5-.4.7-.8.8-1.5.1-.6 0-1.1-.3-1.4s-.7-.5-1.3-.5H408l-.7 3.9zm11.2 0l3.5-5.5h2.3l-5.1 7.4-.7 4.2h-2l.8-4.4-2.5-7.2h2.1l1.6 5.5z" fill="#fff"/><path d="M349.6 63.4l-3.1 15.9H423l2.5-15.9z" fill="#a6cb93" class="Ai"/><radialGradient id="D" cx="404.777" cy="51.677" r="52.874" gradientUnits="userSpaceOnUse"><stop offset="0" stop-color="#ffc9bd"/><stop offset=".154" stop-color="#e6b2ad"/><stop offset=".553" stop-color="#a87b87"/><stop offset=".847" stop-color="#82596f"/><stop offset="1" stop-color="#734c66"/></radialGradient><path d="M473.3 63.1v-.6l-14.6-21.7h-23.4l-2 21.2h-5.7l4.7-33.7h-78.9l-9 52.9h5.8v9.7h10c0 .1-.1.1-.1.2-2.4 4.9-1.3 10.4 2.6 12.3 3.8 1.9 8.9-.5 11.4-5.4 1.2-2.4 1.5-4.9 1.1-7.1h25.5c0 .1-.1.1-.1.2-2.4 4.9-1.3 10.4 2.6 12.3 3.8 1.9 8.9-.5 11.4-5.4 1.2-2.4 1.5-4.9 1.1-7.1h24.7c0 .1-.1.1-.1.2-2.4 4.9-1.3 10.4 2.6 12.3 3.8 1.9 8.9-.5 11.4-5.4 1.2-2.4 1.5-4.9 1.1-7.1h14.8v-9.7h1.7l.2-2.4.1-1.1.2-2.5.3-3.1.6-9z" fill="url(#D)" class="AU"/><path d="M420.8 261.1H487l-4 77.6h-58.8z" fill="#735252"/><path d="M420.8 261.1l3.4 77.6H483l4-77.6h-66.2zm60.8 75.7h-55.9l-3.2-73.8h63l-3.9 73.8z" fill="#b17a7a"/><path d="M430.1 267h47.6l-1.6 63.1h-44.8z" fill="#f4e9e7"/><path d="M430.1 267h47.6l-1.6 63.1h-44.8z" fill="#f9f9f4"/><path d="M468.5 267h-30.2c.5 1.2.9 2.4 1.3 3.7h27.9c.2-1.2.5-2.5 1-3.7z" fill="#978168" class="AU"/><path d="M459 257s6.2-11-5.7-11c-10.5 0-5.1 10.8-5.1 10.8s-5.7-1-8.9 1.9c-3.1 2.9 1.7 10.6 1.7 10.6h26.4c7.3-14.7-8.4-12.3-8.4-12.3zm-5.2-3.4c-1.2 0-2.2-.9-2.2-2.1 0-1.1 1-2.1 2.2-2.1s2.2.9 2.2 2.1-1 2.1-2.2 2.1z" fill="#2e3c48"/><path d="M458.6 263.1c-6.4 0-10.5-1.9-13.9-5.2-1.3 0-3.1.4-4.1 1.3-2.9 2.5 1.5 9.2 1.5 9.2h24.2c1.8-3.3 2.1-5.6 1.6-7.2-2.6 1.2-5.7 1.9-9.3 1.9z" fill="#162533"/><path d="M449 283a7.92 7.92 0 0 1-7.9 7.9 7.92 7.92 0 0 1-7.9-7.9c0-4.3 3.6-7.9 7.9-7.9a7.85 7.85 0 0 1 7.9 7.9z" class="Am"/><path d="M441.1 291c1.9 0 3.6-.7 5-1.8l-.2-2.3c-.2-.8-.8-1-2-1.1-.3 0-.5-.1-.6-.1h0l-.8-.5c-.1-.3-.1-.6-.1-.9.5-.5.9-1.1 1-1.5.7-.2.9-.9.8-1.3-.1-.2-.2-.1-.3-.1.1-.2.1-.3.1-.5.4-1.6 0-2.4-1-3.1-1.2-.8-2.5-.1-2.8 0-.4.1-1-.3-1.7.9-.4.7-.2 1.8 0 2.7-.1-.1-.3-.1-.4.1-.1.4.1 1.1.8 1.3.1.4.5 1 1 1.5 0 .3 0 .6-.1.9h0l-.8.5c-.2 0-.4.1-.6.1-1.2.1-1.8.3-2 1.1-.1.3-.1 1.3-.2 2.3 1.3 1.1 3 1.8 4.9 1.8z" class="An"/><circle cx="440.8" cy="318.8" r="7.9" class="Am"/><path d="M440.8 326.7a7.62 7.62 0 0 0 4.7-1.6l-.3-2.6c-.1-.7-.7-1-1.9-1.1-.2 0-.4-.1-.6-.1h0l-.8-.4c-.1-.3-.1-.6-.1-.9.5-.5.9-1 .9-1.4.7-.2.9-.9.7-1.3-.1-.2-.2-.1-.3-.1 0-.1.1-.3.1-.5.3-1.5 0-2.3-.9-2.9-1.2-.8-2.3-.1-2.7 0-.3.1-.9-.2-1.6.8-.4.7-.2 1.7 0 2.6-.1-.1-.3-.1-.3.1-.1.4.1 1.1.7 1.3.1.4.5.9.9 1.4 0 .3 0 .6-.1.9h0l-.8.5c-.2 0-.3.1-.6.1-1.2.1-1.7.3-1.9 1.1-.1.4-.2 1.5-.3 2.6 1.8.9 3.4 1.5 5.2 1.5z" class="An"/><path d="M449,300.8c0,4.4-3.6,7.9-7.9,7.9s-7.9-3.6-7.9-7.9c0-4.4,3.6-7.9,7.9-7.9S449,296.4,449,300.8z" class="Am"/><path d="M444.7 302s.1.5-.4.5c-.6-.1-.5-1.1-.1-2.1s.9-2.3-.3-3.5c-.8-.8-1.4-.8-1.6-.6-.4-.3-1.6-.9-3-.3-1.9.8-1.9 2.2-1.5 3.7s1 2.5.2 2.8c-.5.2-.5-.5-.4-.6 0 0-1 .1-.6 1.4.2.4.6.7 1 .7-.3.1-.7.1-.8.1-.2 0-.4 1.8-.5 3.3 1.3.8 2.8 1.3 4.4 1.3s3.1-.5 4.4-1.3l-.5-3.3c-.1 0-.3-.1-.6-.1.9-.1 1.2-1.7.3-2z" class="An"/><g class="Aj"><path d="M458.9 277.9h-8.4v2.7h8.1zm-8.4 11.2h8.1l.3-2.7h-8.4z"/><path d="M450.5 282v2.7h11.8l.4-2.7zm8.4 13.2h-8.4v2.7h8.1zm-8.4 11.2h8.1l.3-2.7h-8.4zm0-7.1v2.7h11.8l.4-2.7zm8 13.2h-8.4v2.7h8.1zm-8.4 11.2h8.1l.3-2.7h-8.4z"/><path d="M450.1 316.6v2.7h11.8l.4-2.7z"/></g><path d="M465.4 279.2v9.2l8.9-.2.4-9z" fill="#fff"/><path d="M464.5 289.3v-11h11l-.4 10.7-10.6.3zm1.8-9.2v7.4l7.1-.2.3-7.2h-7.4z" class="Aj"/><path d="M465.2 323.1l8.5.2.4-9.1-8.9-.4z" fill="#fff"/><path d="M474.5 324.3l-10.2-.3v-11l10.8.4-.6 10.9zm-8.4-2.1l6.7.2.4-7.4-7.1-.3v7.5z" class="Aj"/><path d="M465 296.4l-.2 9.2 8.6.2.3-9.4z" fill="#fff"/><path d="M474.2 306.7l-10.3-.2.2-11h10.4l-.3 11.2zm-8.4-1.9l6.7.1.3-7.6H466l-.2 7.5z" class="Aj"/><path d="M467.9 274.8l2.2 11.1h1.1l12.8-12.2-5.8-.6-5.6 6.2-1.7-5.1z" class="Ah"/><path d="M423.6 286.2l2.2 51h55.5l1.6-31.3c-21 9.7-43-2.2-59.3-19.7z" fill="#a3a2a8" class="AX"/><radialGradient id="E" cx="452.746" cy="297.831" r="37.834" gradientUnits="userSpaceOnUse"><stop offset="0" stop-color="#fdd39f"/><stop offset=".277" stop-color="#e1af8a"/><stop offset=".775" stop-color="#a8675f"/></radialGradient><path d="M469.1 261.1c-1.3-5.5-10.2-4.2-10.2-4.2s6.2-11-5.7-11c-10.5 0-5.1 10.8-5.1 10.8s-5.7-1-8.9 1.9c-.7.6-1 1.5-1 2.5h-17.4l3.4 77.6H483l4-77.6h-17.9zm-15.3-11.6c1.2 0 2.2.9 2.2 2.1 0 1.1-1 2.1-2.2 2.1s-2.2-.9-2.2-2.1c-.1-1.2.9-2.1 2.2-2.1z" fill="url(#E)" class="AX"/><path d="M401.9 307.6s18.1-25.4 21.7-23.1 4.7 10.5-18.6 34.6c0 .1-4-8.7-3.1-11.5z" class="Ac"/><path d="M401.9 307.6s18.1-25.4 21.7-23.1 4.7 10.5-18.6 34.6c0 .1-4-8.7-3.1-11.5z" class="Af"/><path d="M355.6 378.8s3.3-16.7 1-22.7-4.8-19.1-3.6-24.4c1.3-5.2 4.9-21.7 3.2-30.8s2.5-7.7 6.3-3.4 6.4 11.2 4.2 21.6c-2.9 13.4 3.7 15.3 5.3 17.7 1.7 2.4 10.2 14.4 3.6 23.6s-5.7 22.1-5.7 22.1-4.2-.4-14.3-3.7z" class="Ac"/><path d="M363.3 298.4c.3 5 .8 11.2-.4 16.3-1.5 6.4-4.5 11.7-2.4 18.1 1.3 4.1 4 8 4.6 12.4.6 4 .3 8.6 1.8 12.3 1.9 4.8 6.1 3.4 9.8 1.3 4.6-8.9-3-19.7-4.6-22-1.7-2.4-8.3-4.2-5.3-17.7 2.1-9.7-.1-16.4-3.5-20.7z" class="Af"/><path d="M381.8 384.6s-12.3-1.7-26.1-5.9c0 0 20.3-65.6 25.3-75.4s28.1-2.1 30.3 4.9c2.3 7-1.4 37.1-6.3 43.2-4.8 6.1-13 15.7-16 17.3-3.1 1.7-7.2 15.9-7.2 15.9z" class="Ac"/><path d="M374.5 334.4c-1.8 2.5-9.5-.3-10.1 2.6-1.1 5.8-4.7 20.3 8.6 27.3 6.3 3.3 13.9 1.8 21.1-.4 3.5-3.7 7.8-8.9 10.8-12.6 4.8-6.1 8.5-36.2 6.3-43.2-2.3-7-25.3-14.7-30.3-4.9-1.7 3.4-5.3 13.4-9.2 25.1 2.7.7 4.8 3.4 2.8 6.1zm9 43.4c-5.8.8-14.6 2.4-18.8-1.7-4.9-4.8-.7-8.4-2.7-14.2-.9-2.7-3.8-6.7-4.7-9.5-1.6-5-4-14.5-4.5-16 .2 6.2 2.2 15.1 3.9 19.7 2.3 6.8-1 22.7-1 22.7 13.8 4.2 26.1 5.9 26.1 5.9s1-3.3 2.3-6.9h-.6z" class="Af"/><path d="M363.1 282.9l3 72c.1 1.8 1.5 3.3 3.3 3.4 7.2.5 25.5 1.4 40.9.1 1.8-.1 3.1-1.6 3.2-3.4l2.7-72.1c.1-2-1.5-3.7-3.5-3.7h-46.2c-1.9 0-3.5 1.7-3.4 3.7z" class="Ab"/><path d="M415.3 307.4l.9-24.5c.1-2-1.5-3.7-3.5-3.7h-28.5c6.4 6.3 27.3 24.9 31.1 28.2zm-51.7-14.3c3.4 3.1 49.6 43.1 50.5 43.7l.4-9.6-.2-.2c-7.6-5.7-47.8-43.6-50.5-46.4-.5.6-.8 1.4-.7 2.3l.4 10.1.1.1zm.8 22.2l.3 7 45.5 36.1c1.6-.1 2.9-1.3 3.1-2.9-.3-.3-42.8-34.5-48.9-40.2z" class="Ai" fill="#8a8c8e"/><path d="M367.6 283.6l2.8 65.6s22.2 1.8 38.9 0l2.5-65.6h-44.2z" fill="#0b0b0b"/><path d="M368.6 285.1l2.6 62.5s21.2 1.7 37 0l2.4-62.5h-42z" class="Ao"/><path d="M373.6 302.2l-4.4 3 1.7 38.8 33.6-18c-.8-5.6-30.9-23.8-30.9-23.8z" fill="#60b7c2" class="Ai"/><path d="M392 354.3c0 1.1-.9 1.9-2.1 1.9s-2.1-.9-2.1-1.9c0-1.1.9-1.9 2.1-1.9 1.1 0 2.1.8 2.1 1.9z" fill="#b9b1bb"/><path d="M390.8 354.8c-.9 0-1.6-.7-1.6-1.5 0-.1 0-.2.1-.4-.6.2-1 .7-1 1.3 0 .8.7 1.5 1.6 1.5.7 0 1.4-.5 1.5-1.1-.2.1-.4.2-.6.2z" fill="#8d7f90"/><g fill="#b9b1bb"><path d="M383.6 281v1.7h9.6v-1.4z"/><ellipse cx="395.7" cy="281.9" rx="1" ry=".9"/></g><path d="M399.3 295.2l11.1 9.8.8-20.6h-24.3c4.1 3.4 8.2 7 12.4 10.8z" class="AX Ao"/><path d="M356.8 308.2c.1.1.2.2.5.2.4 0 1.1 0 1.4-.5.9-1.3 1-3 1.1-4.6.1-1.1.3-2.4-.1-3.5-.5-1.6-2.7-3.2-3.7-3.9-.2 1.1-.2 2.7.2 5 .3 1.4.4 2.9.4 4.3v2.5c.1.3.2.4.2.5z" fill="#ffd3b0"/><path d="M415.3 307.7c-2.5 2.7-6.1 6.6-8.1 10.5-2.8 5.4.4 9.2 4.5 6.3 2.6-1.8 4.2-3.3 6.1-5.8.5-.6 1.4-3.7.9-6.2-.7-3.4-2.9-5.4-3.4-4.8z" class="Ac"/><path d="M412.8 310.5c-2.3 2.7-4.5 5.6-5.6 7.7-2.8 5.4.4 9.2 4.5 6.3l3.6-2.9c-1.8-3.4-2.6-7.4-2.5-11.1z" class="Af"/><path d="M410.9 317.5c-.7-.3-1.5-.1-1.9.5-.9 1.1-2.2 3.3-1.1 4.9 1.6 2.4 3.8-.1 4.6-1.2.3-.4.4-.8.3-1.2-.1-.9-.5-2.4-1.9-3z" class="Ap"/><path d="M416.4 320.4c-2 1.8-6.2 5.8-8.3 9.8-2.5 4.9.8 8.7 4.5 6 2.1-1.6 4.5-3.6 6.3-5.6.6-.7 1.4-2.9.8-5.9-.5-3-2.9-4.7-3.3-4.3z" class="Ac"/><path d="M414.9 328.9c-.6-2.1-1.3-3.8-1.2-5.9-2.3 2.5-4.5 5.2-5.6 7.2-2.5 4.9.8 8.7 4.5 6l4-3.3c-.8-1.2-1.3-2.6-1.7-4z" class="Af"/><path d="M411.5 330.2c-.6-.3-1.4-.1-1.8.4-.8.9-2 2.9-1 4.2 1.5 1.9 3-.2 3.8-1.2.2-.3.5-1 .4-1.4 0-.6-.1-1.5-1.4-2z" class="Ap"/><path d="M417.5 331.5c-1.7 1.6-4 3.8-5.3 5.9-2.5 3.9-.7 7.5 2.7 5.5 1.8-1.1 3.7-2.1 5-3.4.5-.4 1.3-3.2.1-5.9-.7-1.4-1.9-2.7-2.5-2.1z" class="Ac"/><path d="M416.6 332.9c-.1-.1-.1-.2-.2-.3-1.5 1.4-3.1 3.2-4.2 4.9-2.5 3.9-.7 7.5 2.7 5.5l3.4-2.2c-1.5-2.2-1.9-5.2-1.7-7.9z" class="Af"/><path d="M414.3 338c-.5-.2-1.1-.1-1.5.3-.7.8-1.6 2.4-.8 3.5 1.2 1.6 2.5-.2 3.2-1 .2-.2.4-.8.3-1.1-.1-.5-.1-1.3-1.2-1.7z" class="Ap"/><path d="M373.6 302h32z" fill="#f0aa44"/><path d="M373.6 302h32z" fill="#f8d9ac"/><path d="M404.5 326h-29.7l-1.2-24h32z" class="AW"/><path d="M389.7 302h-16.1l1.2 24h14.9z" class="AV"/><path d="M379.4 320.4h-4.9l-.3-6h5.1z" class="AY"/><path d="M401.7 323.4H393v-4h8.9z" class="AZ"/><path d="M389.9 326h-.5v-24h.5z" fill="#c47940"/><path d="M391.4 310.5h-3.6c-.7 0-1.3-.6-1.3-1.3v-.6c0-.7.6-1.3 1.3-1.3h3.6c.7 0 1.3.6 1.3 1.3v.6c0 .7-.6 1.3-1.3 1.3z" fill="#84543b"/><g class="Aa"><path d="M393.9 322.9h-.4V320h.5z"/><use xlink:href="#M"/><path d="M394.4 322.9h-.2V320h.2zm.3 0h-.1V320h.2zm.5 0h-.3l.1-2.9h.2zm.3 0h-.2V320h.2zm.3 0h-.1V320h.2zm.5 0h-.3V320h.3zm.3 0h-.2V320h.2z"/><use xlink:href="#M" x="2.9"/><use xlink:href="#M" x="3.3"/><path d="M397.7 322.9h-.3l.1-2.9h.3z"/><use xlink:href="#M" x="4"/><use xlink:href="#M" x="4.4"/><path d="M398.7 322.9h-.1V320h.2z"/><path d="M399.1 322.9h-.4l.1-2.9h.4z"/><use xlink:href="#M" x="5.5"/><use xlink:href="#M" x="5.8"/><use xlink:href="#M" x="6.2"/><path d="M400.5 322.9h-.1l.1-2.9h.1z"/><path d="M400.9 322.9h-.4l.1-2.9h.4z"/><use xlink:href="#M" x="7.3"/></g><path d="M373.6 302l15.6-4.3.2.7-13.7 3.6z" fill="#f0aa44"/><path d="M373.6 302l15.6-4.3.2.7-13.7 3.6z" class="AV"/><path d="M405.6 302l-15.5-4.3-.3.7 13.7 3.6z" class="AW"/><path d="M418.6 236.9c-13.6 0-24.6 9.5-24.6 21.2 0 7.5 4.5 14 11.3 17.8L399 286l16.1-7c1.2.1 2.3.2 3.5.2 13.6 0 24.6-9.5 24.6-21.2s-11-21.1-24.6-21.1z" class="Ah"/><path d="M410.2 252.5s1.3 17.6 1.6 17.9 22.1-17.8 21.7-18.8c-.5-1-5.4-3.4-6.1-2.6s-11.1 10.6-11.1 10.6 0-8.1-.4-8.6c-.5-.4-5.7 1.5-5.7 1.5z" fill="#eaeaea"/><path d="M409.6 265.9c-5-3.1-9.8-7.8-12.8-13.3-.7 1.9-1.2 3.9-1.2 6 0 6.7 5.1 13 11.2 16.4l-5.7 9 13.7-6.2c1 .1 2.1.2 3.2.2 9.7 0 18.6-5.4 21.6-12.9-9.3 4.6-20.5 6.6-30 .8z" opacity=".5" fill="#8baa56"/><radialGradient id="F" cx="392.572" cy="317.042" r="68.054" gradientUnits="userSpaceOnUse"><stop offset="0" stop-color="#ffc9bd"/><stop offset=".154" stop-color="#e6b2ad"/><stop offset=".553" stop-color="#a87b87"/><stop offset=".847" stop-color="#82596f"/><stop offset="1" stop-color="#734c66"/></radialGradient><path d="M418.6 279.2c13.6 0 24.6-9.5 24.6-21.2s-11-21.2-24.6-21.2S394 246.3 394 258c0 7.5 4.5 14 11.3 17.8l-2.1 3.4h-36.7c-1.1 0-2.1.6-2.8 1.4l-.1.1c-.1.1-.1.2-.2.2-.1.1-.1.2-.2.3 0 .1-.1.2-.1.3s-.1.3-.1.4 0 .1-.1.2c0 .2-.1.5 0 .7l.4 10.1.3 6c-.1-.2-.3-.4-.5-.6h0c-.2-.3-.5-.6-.7-.8-2.8-3.2-5.8-4.7-6.5-1.6h0c-.1.5-.2 1.2-.1 2v.1c0 .4.1.8.1 1.2v.2c.1.5.1 1 .2 1.6l.3 2v.6c0 .6.1 1.1.1 1.7v2.5c-.2 8.9-2.6 19.9-3.6 24-1.3 5.2 1.3 18.4 3.6 24.4.4 1.3.7 2.8.8 4.5v.9c.1 7.3-1.8 17.2-1.8 17.2 10 3.3 14.4 3.8 14.4 3.8v-.1c6.9 1.5 11.7 2.1 11.7 2.1s1-3.3 2.3-6.9h0c1.4-3.9 3.3-8.1 4.9-9 1.9-1.1 5.9-5.3 9.8-9.8a210.35 210.35 0 0 0 11.5-.6c.2 0 .4-.1.6-.1.1 0 .1-.1.2-.1s.2-.1.3-.1.2-.1.3-.1.2-.1.2-.1c.1-.1.2-.1.3-.2.1 0 .1-.1.2-.1l.4-.4c.1-.1.2-.2.2-.4 0 0 0-.1.1-.1.1-.1.1-.3.2-.5v-.1c.1-.3.2-.7.2-1l.4-11.7c.1 0 .2-.1.3-.1l.6-.3c1.8-1.1 3.7-2.1 5-3.4.5-.4 1.3-3.2.1-5.9-.5-1.1-1.3-2.1-1.9-2.3l.8-.8c.6-.7 1.4-2.9.8-5.9s-2.9-4.6-3.3-4.2c-.2.1-.4.3-.5.5.7-.7 1.3-1.4 2-2.3.5-.6 1.4-3.7.9-6.2-.7-3.3-2.9-5.3-3.5-4.7h0c12.5-15.4 11.3-21.2 8.3-23.1-1.3-.8-4.2 1.7-7.6 5.4l.1-3.2.1-3.8c0-1-.3-1.9-1-2.6-.4-.4-.8-.7-1.3-.8l1.1-.5c1.6 0 2.7.1 3.9.1z" fill="url(#F)" class="AU"/><linearGradient id="G" gradientUnits="userSpaceOnUse" x1="135.425" y1="349.465" x2="135.425" y2="370.221"><stop offset=".225" stop-color="#5e5e5e"/><stop offset="1" stop-color="#a4a4a4"/></linearGradient><path d="M146.7 371.4h-22.5l2.2-23.8h18.1z" fill="url(#G)"/><path d="M145.7 360.8l-1.2-13.2h-18.1l-1.7 18.6c0 0 20.9-5.4 21-5.4z" fill="#444" class="Ai"/><path d="M155.8 373.5H115c-.5 0-.8-.4-.8-.8v-2.6c0-.5.4-.8.8-.8h40.8c.5 0 .8.4.8.8v2.6c.1.4-.3.8-.8.8z" class="Ab"/><path d="M138.5 371l-2.5 2.5h5.5l4.2-4.3h-4.9l-2.3 1.8zm-19.7 0l-2.5 2.5h5.5l4.2-4.3h-5l-2.2 1.8z" opacity=".65" fill="#c2c2c2"/><path d="M190.9 355.5H80.1c-1.5 0-2.8-1.2-2.9-2.7l-2.8-64.1c-.1-1.6 1.2-2.9 2.8-2.9l116.7 1.5c1.5 0 2.7 1.3 2.7 2.9l-2.9 62.6c-.1 1.5-1.3 2.7-2.8 2.7z" class="Ab"/><path d="M195.4 303.2c-4.1 2.9-8.3 5.5-12.4 8.4-6.3 4.4-12 9.6-17.7 14.6 1.9 2.3 4 4.5 5.9 6.8 5.5-4.2 11.3-8.3 16.4-13 2.8-2.5 5.3-5.3 7.9-8l.4-9.3c-.1.2-.3.3-.5.5zm-24.1 35.6l-4.3-5c-6.8 5.4-13.8 10.4-20.1 16.2-2 1.8-3.9 3.6-5.8 5.4h12.3l19.2-15.2c-.5-.4-1-1-1.3-1.4zm-90.9-10.4c4.3-2.4 9.3-4.5 13-7.8s7.5-6.6 11.5-9.5c8.2-6 16.8-11.2 24.2-18.3 2.1-2 4.1-4 6.2-6.1l-8-.1c-11.8 8.7-24 17-36 25-5.1 3.4-10.3 6.8-15.6 10l.4 9.4c1.5-1 2.9-1.8 4.3-2.6zm3.1-26.8l22.4-15.3-28.8-.4c-1.6 0-2.9 1.3-2.8 2.9l.8 18.3 8.4-5.5z" opacity=".65" fill="#c2c2c2"/><path d="M190.8 351.9l-110.6-.1-2.5-61.9 115.8 1.5z" fill="#1f1f1f"/><path d="M189.9 351l-108.7-.1-2.4-60 113.6 1.4z" class="Ao"/><path d="M112.1 293.7l-30.3-.4.9 23.3c.5-.3 20.2-15.4 29.4-22.9zm22.1.4c-10.9 8.5-48.7 47.4-50.5 48.8l.2 5.8h10l52-54.7-11.7.1zm43.7-.1c-7.1 6-47.6 48.5-54.4 54.7h16.8c3.4-3.5 43.9-47.8 50.9-54.7h-13.3z" fill="#858585" class="AX"/><g fill="#f3f7f8"><path d="M121.1 333.7h-.4s-.1 0-.1-.1c-.1-.1-.5-.5-.7-.5h-.5s-.1-.1-.2-.1h-.1c-.1 0-.1-.1-.2-.1h-.1l-.1.1v-.4l-.1.1s0 .1-.1.1v-.1s-.5-.3-.6-.3h-.2c-.1 0-.1.1-.1.2 0 0 0 .1-.1.1l-.2.2v-.2s.1 0 .1-.1v-.3h-.3s0-.1-.1-.1h-.1v-.3l-.1-.1s-.1-.1-.1-.2v-.4s0-.1-.1-.1c0-.1-.2-.3-.3-.3h-.2l-.1-.1h-.9v-.1h-.1s0-.1-.1-.1h0s0 .1-.1.1v-.2c0-.1-.1-.2-.1-.2l-.1-.1h-.1v-.1s0-.1-.1-.1h-.2v-.2l-.1.1h-.6s-.1 0-.1.1h0-.9v-.1s-.1 0 0 .1v.1h-.2v.1-.1h.1v-.2l-.1-.1h-.1l-.1.1h-.1s-.1 0-.1.1l-.1.1h-.2v.1s-.1 0-.1.1c0 0-.1 0-.1.1v.4l-.1.1h-.2v.2s0-.1-.1-.1c0 0 0-.1-.1-.1l-.2-.2h-.3l-.1.1h-.3l-.1.1h-.2v-1.3s.1 0 0-.1v-.3h-.1s0-.1-.1-.1h-.4s-.1 0-.1.1h-.6l.2-.2v-.1c0-.1 0-.1.1-.1h0v-.8l.1-.1v-.2h-.7c-.1 0-.2 0-.2.1l-.2.2v.3s-.1 0-.1.1l-.1.1v.2h-.1s0-.1-.1-.1h-.1c-.1 0-.1 0-.1.1h-.6v-.1h-.2v-.3s0-.1-.1-.1v-.2c0-.1.1-.1 0-.1v-.4c0-.1 0-.1.1-.2v-.4c0-.1.1-.1.1-.1l.1-.1c0-.1.1-.4 0-.5v-.3h.1c.1 0 .1-.1.1-.1h0v-.1h.2s.1 0 .1-.1h.1v-.2s0 .1.1.1h.1v-.1h.3v.1h.3s.1 0 .1-.1v-.1h-.1.2v-.1.1h.4c.1 0 .1.1.1 0v.1c0 .1 0 .1.1.1h.2l.1-.1h.1c.1 0 .1 0 .1.1h0v.2s0 .1.1.1h0v.1s0 .1-.1.1c0 .1-.1.1-.1.1h.1v.2s0 .2.1.2v.3h.1v.2s0 .1.1.1h.2v-.2s.1-.2.1-.3-.1-.5-.1-.6v-.1c0-.1-.1-.2-.1-.4s0-.4.2-.6.4-.4.6-.4c.1 0 .1-.1.1-.1l.1-.1h.2l.1-.1c0-.1.1-.1.2-.2h.2c.1 0 0 0 0-.1h.1c.1 0 .1-.1.1-.1v-.1h.1v-.1h-.1v-.2s0-.1.1-.1h.1l-.2.2v.4l.3-.3v-.4l.3-.3v-.1s0-.1.1-.1v-.1h.6v-.1c.1 0 .1 0 .1-.1h0v-.1h-.1v-.2l.2-.2h.3s.1 0 .1-.1v-.1.2s.1 0 .1-.1h.5v-.1h.6c-.1 0-.1 0-.1.1h0-.1v.2h.3l.2-.2h.5c.1 0 .1 0 .1-.1.1 0 .1-.1.1-.1h.5v-.1h-.1v-.1l-.1.1v.1l-.1.1h-.1v.2h-.4v-.1l-.1-.1v-.1l.1-.1h-.1.3v-.2h-.3c-.6.1-.8.2-.9.3-.2.2-.4.3-.5.3 0 0-.1 0-.1.1h-.1.1l.1-.1.2-.1s0-.1.1-.1h0s.1-.1.2-.1l.1-.1h.4v-.1c.1 0 .1-.1.2-.1h2.3l.1-.1v-.4h-.7s.1 0 .1-.1h.2v-.1.1h-.1s0-.1-.1-.1v.1-.2h-.1l.1-.1c0-.1.1-.1.1-.1h0v-.4l-.1-.1v-.2h-.1s0 .1-.1.1h-.1l-.1.1s-.1 0-.1.1c0 0 0 .1-.1.1l-.2.2s-.1 0-.1.1h-.1s-.1 0-.1.1h-.2v-.1l.1-.1v-.2h.1v-.1h-1.1l-.1.1v.2c-.1 0-.1 0-.1.1l-.1.1v.3l-.2.1h-.1c-.1 0-.1.1-.1.1s0 .1.1.1l.1.1v.2s-.1.1-.1.2-.1.1-.1.1-.3.2-.4.2c0 0-.1 0-.1.1-.1 0-.1.1-.2.1h-.2s-.1 0-.1.1v.6c-.1 0-.1.1-.1.1h0v.1-.1l-.1.1h-.1v-.1l-.1-.1h-.1v-.4h.1l.1-.1v-.1h-.7v-.1h-.2c-.1 0-.1 0-.1-.1h-.1v-.1l-.1-.1s-.1 0-.1-.1h-.5v-.5h-.3v-.1l.2-.2h.2l.1-.1h.5v-.1h.4v-.1c0-.1-.1-.1-.1-.1h0l.1-.1v-.1h.4s.1 0 .1-.1l.1-.1h.1s.1 0 .1-.1h.2l-.1.1v.1l-.1.1h-.3v.1h.3v.1s-.1.1 0 .1h.4s.1 0 .1-.1h0c.1 0 .1 0 .1-.1h0l.1.1h.4v-.2h.2v.1h.2v-.1h.1v-.1h.5s.1 0 0-.1l-.1-.1h.3v-.2h-.1.1l.1.1h.5v-.1.1h.2v.3h.5v.1h-.1c-.1 0-.1.1-.1.1s0 .1.1.1h.2v.1h-.2v.1h-.2l-.3.1v.2h-.9c-.1 0-.1.1-.1.1s0 .1.1.1h.2c.1 0 .1 0 .1-.1v-.1.3l.1.1h.8v-.1l-.1-.1c-.1-.1-.1-.1-.2-.1l-.1-.1h.4s.1 0 .1-.1h0v-.2c0-.1 0-.1-.1-.1h.1v-.1c0-.1 0-.1-.1-.1h-.1l-.1-.1v-.1s0-.1-.1-.1h.1v-.1h.2v.1s0 .1.1.1h.2l.1-.1v-.1h.1v-.1h.1s0-.1-.1-.1h-.2l-.1-.1h-.1s0-.1-.1-.1h0-.2v-.1h-.1l.1-.1h-.4s0-.1-.1-.1h-.3v-.4h-.2v-.1s0-.1-.1-.1h-.5s-.1 0-.1.1c0 0 0 .1.1.1v.1h.2l-.1.1h-.3s-.1 0-.1.1h-.1.1l.1-.1v-.2h-1.4l.1.1-.1-.1h.1v-.1h.1c.1 0 .1 0 .1-.1h.1-.4c-.1 0-.2.1-.3.1s-.1.1-.1.1h-.1l-.3.3h.1s-.1 0 0 .1l.1.1c.1 0 .1 0 .1.1h0-.1s-.1 0 0 .1c0 .1.1.1.1.1h0-.2l-.2.2h-.1l.1-.1h-.2s-.1 0 0 .1h0v-.2h.1v-.1l-.2.2v-.3h-.2l.1-.1v-.1c.1 0 .2 0 .2-.1h.7s.1 0 .1-.1h0c.1 0 .1 0 .1-.1h.2-.7v.1h-.2c0 .1 0 .1-.1.1v.2s-.1.1-.2.1h-.1s-.1 0-.1.1h0-.2c0 .1.1.1.1.1h0-.5v.1h-.2l.2-.2h-.4v.1h-1v-.1h-.8c-.1 0-.1 0-.1.1 0 0 0 .1.1.1h0-.1v.1h-.1.1c-.1 0-.4.1-.4.1-.1 0-.3.1-.4 0h-.3v-.1l-.1-.1h-.9s-.2-.1-.3-.1h-.2c-.1 0-.1.1-.2 0h0l.1-.1h-.3s-.2.2-.3.2h-.1v-.3h-2.4v-.1h-.4c-.1 0-.1 0-.2-.1 0 0-.2-.1-.3-.1h-2c-.1 0-.2.1-.3.1h-1.1c-.1 0-.1 0-.2.1-.1 0-.1 0-.1.1-.1 0-.1.1-.2.1h0s-.1 0-.1.1h-.8v.1h.2v.1h-.6s.1 0 .1-.1c0 0 .1 0 .1-.1h-.9c-.1 0-.1.1-.2.1h-.1.9s0-.1.1-.1h0s-.1 0-.1.1h-.2v.2h-.3l-.1.1h-.3c-.1 0-.1.1-.2.1h-.1c-.1 0-.1 0-.1.1h-.1l-.1.1s-.2.1-.3.1l-.2.2v.2h-.2v.2h.6l.1-.1c-.1 0-.1.1-.2.1v.3h-.1l.1-.1c.1-.1.1-.1.2-.1v.3c.1 0 .2-.1.2-.1h.1l-.1.1h.2c-.1 0-.2.1-.2.1s-.1.1-.3.2h-.2c-.1 0-.1 0-.2.1h-.1s-.1 0-.1.1h0-.1c-.1 0-.4.1-.5.2h-.1c-.1 0-.1 0-.2.1h-.1c-.1 0-.1 0-.2.1-.1 0-.2.1-.2.1h-.3s-.1 0-.1.1h-.1l-.1.1h.6v-.1h.1l.1-.1h.4l.1-.1v-.1h.1s.1 0 .1-.1h.5s.1 0 0-.1h.1v-.1h.2l.1-.1c0-.1.1-.1.1-.1h.2s.1 0 .1-.1l.1-.1h.2v.1h-.1l-.1.1v.1h.6v-.2h-.1s-.1 0-.1.1h-.1l.1-.1h.1s.1 0 .1-.1h.1l-.1-.1h.5c.1 0 .1 0 .1-.1h.1v-.1s.1 0 .1-.1h.2l-.1.1s-.1 0-.1.1h-.2l-.1.1H96h.6c.1 0 .2 0 .2-.1h.2s.1 0 .1-.1v.1h.1s.1 0 .1-.1l.1-.1s.1 0 0-.1h.2c-.1 0-.1 0-.1.1h0c.1 0 .1-.1.2-.1v.2h.6s.1 0 .1.1h.2l.1.1h.1v.1c0 .1 0 .1.1.1h.1v.7h.1v.3l.1-.1v-.1h.1s.1 0 .1-.1v-.1.4s-.1 0-.1.1h0v.8s0 .1.1 0h.1v.1h-.2c-.1 0-.1 0-.1.1v.1h.1v.1h.1v.8c0 .1-.5.7-.6.8 0 0-.3.2-.3.3h0v.1s-.1 0-.1.1 0 .2-.1.3l-.3.3v.3s-.1.1 0 .1v.2s0 .1.1.1v.4h.1l-.1.1s-.1.1 0 .1v.2l.1.1v.2h.1l.1.1v.8s.1 0 .1.1h0l.1.1v.2s0 .1-.1.1h-.2v-.1l-.1.1v.1s.1 0 .1.1v.1h.3v.1s0 .1-.1.2-.1.1-.1.2v.1l.2.2h.2v.2h.1v-.2l-.1-.2v-.6s0-.1-.1-.1v-.1c0-.1-.1-.1-.1-.2v-.2c0-.1 0-.1-.1-.1h0v-.1c-.1-.1-.2-.2-.1-.2v-.5h.2v.6s-.1 0-.1.1v.2h.1v.1c.1.1.1.2.2.2h.1v.2h.1v.2h.1s0 .1-.1.1c0 .1-.1.1 0 .2h.1l.1.1v.2c0 .1.2.2.2.3h0s0 .1.1.1v.1l.2.2v.3s0 .1.1.1c0 0 0 .1-.1.1v.1s-.1 0-.1.1c0 0 0 .2.1.3v.1h.1c.1 0 .2.1.2.1v.1h.4v.1s0 .1.1.1c0 0 .1.1.2.1.1.1.2.1.2.1h.5v.1h.3c.1 0 .3 0 .3-.1h.6l.3.3c0 .1.1.1.1.2 0 0 0 .1.1.1h.9v.2c.1 0 .1.1.1.1v.1c0 .1.1.1.1.1h.1v.4h.2v-.1c.1.1.1.1.2.1l.1.1v.2l.1.1h.1v-.1h.3v.1l.1.1h.2v-.1s0-.1-.1-.1h.2v-.1h.2v.5h.1l.1.1v.9h.2v.1l-.2.2h-.2v.3s0 .1.1.1h-.2s-.1 0-.1.1h0v.5s-.1 0-.1.1v.3l-.1.1h.1v-.1.1s0 .1-.1.1h0s0 .1-.1.1l-.1.1v.4h.1v.3c.2.1.3.1.3.2l.1.1s0 .1.1.1v.1l.1.1c.1.1.1.2.2.3h0v.1c0 .1 0 .1.1.2v.1s0 .1.1.1c0 0 0 .1.1.1v.2h.1v.1s0 .1.1.1c0 .1.1.1.1.2 0 0 0 .1.1.1 0 0 0 .1.1.1v.2c0 .1.1.1.1.2l.1.1c0 .1.1.1.1.1h0l.2.2c.1 0 .1 0 .1.1h0l.1.1h.2c.1 0 .1 0 .2.1.1 0 .1 0 .1.1h.1c.1 0 .1.1.1.1v.1h.3l.1.1v2.2l.1.1v1.1c0 .1.1.1.1.1v2.4s0 .1.1.1c0 .1 0 .1.1.1v.1l.1.1v.8l.2.2v.5l.1.1h.1v-.2l-.1-.1v-.1.7l-.1-.1v.7h.1v.2h-.1v.1l-.1.1c0 .1-.1.1-.1.1v.1c0 .1 0 .1.1.1h.1v.4c.1 0 .1.1.1.1v.1-.1.1-.1.1h-.1v.1h.1l.1.1h.1v.4s0 .1.1.1c.1.1.1.1.2.1h0v.1h.4v-.1h.1s-.1 0-.1-.1c0 0 .1 0 .1-.1h.2v-.1c-.2 0-.5-.1-.8-.4l-.1-.2-.1-.1c-.1-.1-.4-.3-.4-.5 0-.1.1-.1.2-.2 0-.1 0-.2-.1-.3 0-.1.1-.1.2-.2s.2-.1.2-.2 0-.2-.1-.3c-.1 0-.5-.1-.5-.2v-.2l.1-.1h.1c.1 0 .1 0 .1-.1.1-.1 0-.4-.1-.4 0-.1.1-.1.2-.1l-.1-.1s-.1 0-.1-.1h.1l.1.1v.1h.1v-.1c0-.1 0-.1-.1-.1s-.1 0-.1.1v-.3c0-.1-.1-.1-.1-.1s.1 0 .2.1c.1 0 .1.1.1.1h.3c.1 0 .2-.1.2-.2s0-.1-.1-.1v-.3l-.1-.1h.1s.1.1.2.1h.1c.2 0 .6-.1.8-.3h0v-.2c0-.1.1-.1.1-.2v-.1c0-.1 0-.1-.1-.1s-.2-.1-.2-.1v-.2s-.1 0-.1-.1c-.1-.1-.3-.2-.3-.2h.3l.1.1s.1.1.2.1h.3c.1 0 .3-.1.3-.2v-.2c.1 0 .1-.1.1-.2h0v-.3c.1-.1.1-.1.1-.2v-.1s0-.1.1-.1l.1-.1v-.2h.1v.1s0 .1-.1.1v.1l.1-.1s0-.1.1-.1v-.2s0-.1.1-.1c0-.1 0-.1.1-.1l.1-.1s.1-.1.1-.2v-.2l-.1-.2v-.4h.1v-.1s0-.1.1-.1l.2-.2h.3v-.1s0-.1.1-.1h.1v-.1h.4v-.1s.1 0 .1-.1c.1 0 .1-.1.2-.1v-.4c.1 0 .1-.1.1-.1v-.2s.1 0 .1-.1v-.3c0-.1.1-.2.1-.3.1 0 0-.1 0-.2v-.1c0-.1 0-.2.1-.3h0v-.9h.1c.1 0 .1-.1.1-.1.1-.1.1-.2.2-.4 0-.1.1-.2.1-.2s.4-.4.4-.5c.1-.1.2-.4.1-.6 5.5-5 5.4-5.3 5.3-5.4zm-3.9-18.6h0zm-1-3h0c-.1.1-.1.1 0 0-.1 0-.1 0 0 0-.1 0-.1 0 0 0-.1 0-.1 0 0 0-.1 0-.1 0 0 0zm.2-1.4h0zm-1.2-.9h0zm-2.6.9c0-.1 0-.1 0 0 0-.1 0-.1 0 0h0zm-.1.8h.1l-.1-.1h-.1c.2.1.1.1.1.1zm-1-.6h.1c0 .1 0 .1-.1 0 .1.1.1.1 0 0 .1.1.1.1 0 0 .1.1.1.1 0 0 0 .1 0 .1 0 0 0 .1 0 .1 0 0h0c0 .1 0 .1 0 0 0 .1 0 .1 0 0zm-1.4-.1h0zm-3.3 11.7c0-.1 0-.1 0 0 0-.1 0-.1 0 0 0-.1 0-.1 0 0 .1-.1.1-.1 0 0h0zm-9-11.2h0c.1 0 .1 0 .1-.1 0 .1 0 .1-.1.1zm.4 1.6s-.1 0 0 0H98c.1-.1.1-.1.2 0-.1-.1-.1-.1 0 0 0-.1 0-.1 0 0 0-.1 0-.1 0 0 .1-.1.1-.1 0 0 .1-.1 0 0 0 0zm2.1 1.4c0-.1.1-.1 0 0 0-.1.1-.1.1-.1l-.1.1zm.4.3c0 .1 0 .1 0 0l-.1.1c0 .1 0 0 .1-.1 0 .1 0 .1 0 0 0 .1 0 0 0 0zm6.6 13.9h-.3v-.2h.2c.1.1.1.1.1.2 0-.1 0 0 0 0zm3.9.6c-.1 0-.1.1 0 0l-.1.1v-.2l.1-.1v.2zm1.6 17.3h0v.1c.1 0 .1 0 0-.1 0 .1 0 0 0 0zm.1.3c-.1-.1-.1-.2-.1-.2.1.1.1.1.1.2zm0 .1h0zm-.7-30.9h0z"/><path d="M113.5 348.5h0zm.5-19.8h0c0-.1 0-.1 0 0 0-.1 0-.1 0 0-.1-.1-.1-.1-.1 0v.2h-.1.2l.1-.1c-.1 0-.1 0-.1-.1zm-.8-.2h-.2v.1c.2 0 .2 0 .2-.1.1.1.1 0 0 0zm2.6-11.1h0c.1-.1.1-.1 0 0h0l.1-.1h-.5s-.1 0-.1.1h.2c.2.1.2.1.3 0zm.4-.9h0c.1-.1.1-.1 0-.2-.1 0-.1-.1-.1-.1h-.2v.1h.2c0 .2 0 .2.1.2h0zm.2-3.5c-.1.1-.1.1-.2.1h.2c.1 0 .1 0 0-.1h0zm-1.4-.8h.1c0-.1 0-.1-.1 0 .1-.1 0-.1 0 0v-.1c-.1 0-.1 0 0 .1-.1-.1-.1 0 0 0-.1 0-.1 0 0 0zm-.2 0c0-.1 0-.1 0 0 0-.1 0-.1 0 0-.1-.1-.1-.1 0 0h-.2v.1c.2 0 .2 0 .2-.1h0z"/><path d="M114.9 312.1h.1c0-.1 0-.1-.1 0 .1-.1.1-.1 0 0 0-.1 0-.1 0 0 0-.1 0-.1 0 0-.1-.1-.1-.1 0 0h0c-.1-.1-.1-.1 0 0-.1-.1 0 0 0 0zm.5.2c0 .1 0 .1 0 0h-.1c0 .1 0 .1.1 0-.1.1-.1.1 0 .1v-.1c0 .1 0 .1 0 0 .1.1.1.1 0 0 .1.1.1.1 0 0 .1.1.1.1 0 0 .1.1.1 0 0 0zm-1.2.2c0-.1 0-.1 0 0h-.2l-.1.1s-.1.1 0 .1c0 0 0 .1.1.1 0 0 .1 0 .1-.1.2-.1.2-.2.1-.2h0zm-.5-.2h-.3v.1h.3c.1 0 .1 0 0-.1h0zm-1.5 3c0-.1 0-.1 0 0l-.1-.1h-.1s-.1 0-.1.1h.2c.1.1.1 0 .1 0zm3.7-4.5c0 .1 0 .1 0 0 0 .1-.1.1 0 0-.1.1-.1.1-.2.1s-.1.1 0 .2h.3c.1 0 .2-.1.2-.1l.1-.1s.1-.1 0-.1h-.4zm-.4 0h0c0 .1 0 .1 0 0 0 .1 0 .1 0 0 0 .1 0 .1 0 0 0 .1 0 .1 0 0 0 .1.1.1 0 0h.1c0-.1 0-.1-.1 0z"/><path d="M116 310.4s-.1 0 0 0c-.1 0-.1 0-.1.1h-.3v.1h.2s.1 0 .1-.1l.1-.1c0 .1 0 .1 0 0 0 .1 0 0 0 0zm.2.1h-.1.1c-.1.1-.1.1 0 0 0 .1 0 .1 0 0zm-21.6 1.9c.1 0 .2 0 .2-.1h.1v-.1h-.3v.2c0-.1 0-.1 0 0 0-.1 0-.1 0 0 0-.1 0-.1 0 0 0-.1 0-.1 0 0zm-.5.8c0 .1 0 .1 0 0h.2s.1 0 .1-.1h-.2c-.2 0-.2.1-.1.1-.1 0-.1 0 0 0zm1.8 1c-.1 0-.1 0 0 0h-.1c-.1 0-.1 0-.1.1h.1c-.1-.1 0-.1.1-.1-.1 0-.1 0 0 0zm4 .8s0 .1 0 0v.4s0 .1.1.1v-.3l.1-.1h.1s.1 0 .1-.1v-.1h-.3l-.1.1zm17.7 33.4s-.1 0 0 0c-.1 0-.1 0 0 0-.1 0-.1 0 0 0l-.1-.1h-.1v.1-.1h-.3v.3h.2v-.1.2s.1 0 .2-.1h0s0-.1.1-.2c0 .1 0 .1 0 0 0 .1 0 .1 0 0zm-7.5-22.7h.4s-.1 0-.1-.1c0 0-.1 0-.1-.1h-.1l.1-.1h-.2l-.1-.1s-.1 0-.1-.1l-.1-.1s-.1-.1-.2-.1h0-.2l-.1-.1h-.8s-.2.1-.3.1-.1.1-.1.1v.1h-.1.2s.1 0 .1-.1h.1s.1 0 .1-.1h1l.1.1v.1c0 .1.1.1.1.1h.2v.1h-.2c-.1 0-.1.1-.1.1h.2c0 .2.1.2.3.2-.1 0-.1 0 0 0z"/><path d="M108.3 325.1h0c-.1 0-.1 0 0 0-.1.1-.1.1-.1.2h.1c0-.1.1-.1 0-.2zm1.5-.8v-.2s-.1-.1-.1 0v.2h.1c-.1 0 0 0 0 0h0l-.1.1v.1c.2-.1.2-.1.1-.2h0zm1 1.1h.1c0-.1-.1-.1-.1 0h0zm-.9.8c-.1 0-.1 0 0 0-.1 0-.1-.1-.1-.1h-.3v.1h.4c.1.2.1.1 0 0z"/><path d="M111.4 326.3h.5v-.2c0-.1 0-.1-.1-.1h-.2v-.2h-.8c-.1 0-.1.1-.1.1h0l.1.1v.1s0 .1-.1.1h-.1v.1c.1 0 .1 0 .1-.1h-.1.2v.1-.1c.6.2.6.2.6.1zm1.1.1h.5l.1-.1h-.5c-.1-.1-.1 0-.1.1-.1-.1-.1 0 0 0zm1.1-.1s-.1 0 0 0c-.1.1-.1.1 0 .1h0s.1 0 0-.1h0zm.3.3s0-.1 0 0h0c-.1 0 0 0 0 0zm.2.2h-.1v.1h.1v-.1zm-.2.5h0c.1 0 .1 0 .1-.1v-.1c0 .1 0 .1-.1.2.1-.1 0 0 0 0zm.2.2c.1 0 .1-.1 0 0 0-.1 0-.2-.1-.2h0c0 .1 0 .1.1.2h0zm0 .2s0-.1 0 0l.1-.1c-.2 0-.2.1-.1.1h0c-.1 0-.1 0 0 0h0l-.1.1v.1s0-.1.1-.2h0c-.1.1-.1.1 0 0h0z"/><path d="M113.9 328.3s0-.1 0 0c0-.1 0-.1 0 0 .1-.1 0-.1 0-.1h0c-.1 0-.1 0 0 .1h0zm-.1-6.4l.1-.1v-.1c-.1 0-.2.1-.2.1l-.1.1c0 .1-.1.1-.1.1v.1h.1l.2-.2zm2.4-5c-.1 0-.1 0 0 0-.1 0-.1 0 0 0-.1 0-.1 0 0 0-.1 0-.1 0-.1.1h0v.1h.1c-.1-.1 0-.1 0-.2zm2.1.2c0-.1 0-.1 0 0l.2-.2v-.1h-.1v.1h.1l.2-.2v.1h-.1v-.1h-.2v-.1h-.3s.1 0 .1-.1h0l.1-.1s.1 0 .1-.1l.1-.1h-.1s-.1.1-.2.1l-.1.1h-.1l-.1.1v.2s-.1 0-.1.1h.1l-.1.1h-.1v.2h.8v.1h.2s0-.1.1-.1h.2v-.1.1h.1v.2s.1 0 .1-.1h0c-1 0-1 0-.9-.1-.1.1-.1.1 0 0-.1 0-.1 0 0 0zm-.9 0h0c-.1 0-.1 0 0 0l-.1.1c.1 0 .1 0 .1-.1 0 .1 0 0 0 0h0zm-.2-4.4h0c-.1.1-.1.1 0 .1v-.1c.1-.1.1-.1 0 0 .1-.1.1-.1 0 0 .1-.1.1-.1 0 0 .1-.1.1 0 0 0h0zm-3-4h0l.2.2h.3v.1l-.2.2s-.1 0 0 .1c0 0 0 .1.1.1h.1l.1-.1.1.1h.2s.1 0 .2-.1h0v.1h-.3 1l.1-.1s0 .1.1.1h.4s.1 0 .2-.1l.2-.1-.1-.1s-.1 0-.1-.1h-1.5v-.1l.1-.1h.3s.1 0 .2-.1h0l.1.1h.1l.2-.1h.5v.1h.7s.1 0 .2-.2h0-.2s.2 0 .3-.1c.1 0 .1-.1.1-.1h.4l.1-.1.2-.1v-.1h.1l.1-.1h.2s.1 0 .2-.1h.2l.2-.1h.2l.8-.2.3-.1h.5l.3-.1-.1-.1h-.2s0-.1-.1 0h-3.2l-.1.1-.1-.1h-1.6l.2.1v.1l.2.1h.3l-.1.1h-.1v-.1h-.2l-.1-.1h-.1v-.1l-.1-.1h-1l-.1.1v.1l.1.1h.1l-.1.1.2.1h1v.1h-.1s-.1-.1-.2-.1-.1 0-.1.1l-.2.2h-.6l-.1-.1h-.3l-.1-.1h-.4l-.2.8zm3.5-.9h0l.1.2-.2-.2h-.1.2z"/><path d="M115.5 308.6s.1 0 .2-.1h0-.2v.1c-.1-.1-.1-.1-.1 0h0c-.1 0-.1 0 .1 0-.1 0-.1 0 0 0zm-.9-.1h.3l.1-.1h-.2c.1 0 .1-.1.1-.1h0l-.1-.1c-.1 0-.2-.1-.2-.1h0-.2c0 .1 0 .2-.1.2h0l.3.2z"/><path d="M114.7 308h.1v-.1c-.1-.1-.2-.1-.2-.1h0l-.1.1.2.1zm-1.3.2h0c.1.1.1.1 0 0 .1.1.1.1 0 0 .1.1.1.1.2.1h.4l.1-.1v-.2h-.3c-.1-.1-.2-.1-.2-.1h-.2l-.1.1v.1l.1.1z"/><path d="M112.9 308.6h0c.1-.1.1-.1 0 0 .1-.1.1-.1 0 0v-.2s-.1 0-.1.1v.1h.1zm-.3.3h0l.1.1h.3v.1h.4c.1 0 .1-.1.1-.1h.1l.1-.1c.1 0 .1-.1.1-.1h0v-.1h-.2c0-.1-.1-.1-.1 0h-.2v.1l-.1-.1h-.2l-.1.1-.2-.2c-.1 0-.2.1-.2.1h-.1l.2.2z"/><path d="M113.7 309h0c-.1.1-.1.1 0 0 0 .1 0 .1 0 0 0 .1 0 .1.1.1h.2l.1-.1h-.4c.1-.1 0-.1 0 0h0zm-1.3.4h0c-.1 0-.1 0 0 0-.1.1-.1.1 0 0-.1.1 0 .1 0 .1h0-.2v.2h.4v-.1h.4v-.1h-.1v-.1h.2v-.2h-.4c-.1 0-.1.1-.2.1 0 .1 0 .1-.1.1h0zm-.2.6h0zm-5.2-.1h.2v.2c.1 0 .1 0 .2-.1.1 0 .1-.1.1 0h.2s.1 0 .2-.1.2-.1.2-.1h.4c-.1 0-.1.1-.1.1h-.1v.1h-.1v.1c0 .1.2.1.2.1h0-.5v.1s.1 0 .1.1h.4s-.1 0-.1.1v.1s0 .1.1 0h1.5c.1 0 .1 0 .1.1h.7v-.1h-.1l.1-.1s.1 0 .2-.1c0 0 0-.1.1-.1 0 0-.1 0-.1-.1 0 0 0-.1-.1-.1h-.1.1v-.1l.1-.1v-.1h.1-.3s-.1 0-.1.1c0 0-.1 0-.1.1l-.1.1h-.1v-.1l.1-.1v-.2h-.2v.1h-.1.1c0-.1-.1-.1-.1-.1h-.4v-.2s-.1 0-.1-.1h-1.4l-.1.1h-.3c-.1 0-.2 0-.2.1h-.1s-.1 0-.1.1v.1h-.2c-.1 0-.1 0-.2.1.1-.1.1-.1 0 0zm1.5.1h0zm2.4.5c-.1 0-.1 0 0 0zm-2.1-.8h0c-.1 0-.1 0 0 0-.1 0-.1 0 0 0zm2.2 1h0c-.1 0-.1 0 0 0-.1 0-.1 0 0 0h0c-.1 0-.2.1-.2.1h0c.1 0 .1 0 .2-.1-.1.1 0 .1 0 0 0 .1 0 .1 0 0 0 .1 0 .1 0 0h0z"/><path d="M111.3 310.6c-.1 0-.2.1-.2.1h0v.1c.2-.1.2-.1.2-.2 0 .1 0 .1 0 0 .1.1.1 0 0 0h0zm.4-.4h0c-.1 0-.1 0 0 0-.1 0-.1 0 0 0l-.1.1c.1 0 .1 0 .1-.1 0 .1 0 .1 0 0h0zm.5-1.1h.1l.1-.1h-.1c-.1 0-.1 0-.1.1h0c0-.1 0 0 0 0zm-3.1-.2h.1v.1h.1l.1-.1h.1c-.1 0-.2.1-.2.1h.7v.1h-.1c0 .1-.1.1-.1.1h-.1.2c.1 0 .1-.1.1-.1v.2h-.1 1.2s0 .1.1.1h.4s-.1 0-.1-.1h.1c.1 0 .1-.1.1-.1h0-1v-.1h-.1l.1-.1h-1l-.1.1h-.5c.1-.3 0-.3 0-.2 0-.1 0-.1 0 0-.1-.1-.1-.1 0 0-.1-.1-.1-.1 0 0-.1-.1 0 0 0 0zm1.5-.2h0c-.1 0-.1 0 0 0zm-.2 0h0s0 .1 0 0h0c0 .1 0 .1 0 0 0 .1 0 .1 0 0h0c-.1 0-.1 0-.1.1 0 0 0-.1.1-.1zm.5-.1h0c0 .1 0 .1 0 0h0c0 .1 0 .1 0 0 .1.1.1.1.2 0h0-.2zm.6-.1h.5c.1 0 .1-.1.1-.1h0-.7l.1.1c-.1 0 0 0 0 0zm14.9 2.2h0c.1 0 .1 0 .1-.1h.5c.1 0 .2-.1.3-.1h0-.5v-.1h.1s0 .1.1.1h.2s.1 0 .1-.1h.2v-.2l-.1-.1-.3-.1c-.1 0-.1-.1-.1-.1v-.1h-.1.2s-.1 0-.1.1v.1h.3c.1 0 .1-.1.1-.2h-.1.3v-.1h-.1.4c.1 0 .1 0 .2-.1h-.3c.1 0 .1 0 .1-.1v-.1s0-.1-.1-.1h-.1.4v.2s.1 0 .1-.1v-.1h.2v-.2h-.1.2s-.1 0-.1-.1h0l.1-.1h.1v-.1h-.1l-.1-.1v.1h-.4v-.1h-1.6s.1 0 .1-.1h-1v.1h-.9s0 .1.1.1h.4v.1H124s0 .1.1.1h0-.2s-.1 0-.1.1h.1s0-.1-.1-.1h-1.7v.1h-.1c-.1 0-.3 0-.4.1h-.2l-.3.1h.3l-.1.1h-1.6s-.1 0-.1.1h-.1s0 .1.1 0h.6v-.1h1c-.1 0-.1 0-.1.1h.1c-.1 0-.1 0-.1.1v.1h.2l-.1.1h.1l.1-.1v.1h-.3v.1s.1 0 .1-.1h0l-.1.1v.1h.3v.1h.1v.1h-.2s-.1 0-.1.1h0v.2l.1.1s.1 0 .1.1h.6v.2s0 .1-.1.1v.2h-.2l-.1.1c0 .1 0 .1-.1.1h-.1v.2h.1v.7s0 .1.1.1h0v.3h.2l.1.1v.2h.1l.1-.1v-.1l.2-.2v-.4l.1-.1h.2s.1-.1.2-.1c0 0 .1 0 .1-.1 0 0 .1 0 .1-.1l.1-.1s.1 0 .1-.1v-.1h.2s0-.1.1-.1v-.1h.3v.1h.6c.1 0 .1 0 .1-.1h0l.1-.1h.1l.1-.1c.1-.1.1-.1.2-.1h.1v-.1l-.1-.1s.1 0 .1.1h.3c.1 0 .2-.1.3-.1h.3c.4 0 .4 0 .4-.1zm-7-2.2h0z"/><path d="M128.5 309.1h0-.1c.1-.1.1-.1.1 0-.1 0-.1 0 0 0-.1 0-.1 0 0 0h0zm.1-.9h.1c0-.1 0-.1-.1 0 .1-.1.1-.1 0 0 .1-.1.1-.1 0 0 0-.1 0-.1 0 0h0z"/><path d="M128.6 308.4h0c0-.1 0-.1 0 0 0-.1 0-.1 0 0 0-.1 0-.1 0 0 0-.1 0-.1 0 0zm.2 0s0 .1 0 0c0 .1 0 .1 0 0 0 .1 0 .1 0 0 0 .1.1 0 0 0h.1c0-.1-.1 0-.1 0h0zm0-.2h0zm.1 0z"/><path d="M129 308.1h-.1.1zm-.5 3.8h.2v-.1h.1l.1-.1v-.1s0-.1-.1-.1h.1-.2v-.1h-.2v.1h-.5v.1h-.1s0-.1-.1-.1h0-.3l-.1.1h-.1v.1h.2v.1h.2v.1h-.1v.1h.2v.1h.9c-.3-.1-.3-.1-.2-.2-.1 0-.1 0 0 0zm1.8.6s-.1 0 0 0h-.1v.1s0 .1.1.1h0v-.2c0 .1.1 0 0 0h0zm3.8-4.5c0 .1 0 .1 0 0h0l.1.1h-.1v-.1.1c0 .1 0 .1.1.1h.3v.1s0 .1.1.1h.3s0 .1.1.1h.1v-.3h.1v-.1h.2s.1 0 .1.1h-.1v.1-.1h-.1.2s-.1 0-.1.1h-.7v.1h-.5c0-.5-.1-.5-.1-.4v-.1c-.1 0-.1 0 0 .1zm1.5.1h0c.1 0 .1-.1.1-.1 0 .1 0 .1-.1.1h0zm1.3 0h0c0 .1 0 .1 0 0 0 .1 0 .1 0 0 0 .1.1.1 0 0h0c.1.1.1.1 0 0 .1.1.1.1 0 0zm.2.1h.2s.1 0 .1-.1h0-.1c-.1 0-.2 0-.2.1h0zm.7-.3h0c.1-.1.1-.1 0 0 0-.1 0-.1 0 0 0-.1 0-.1 0 0-.1-.1-.1-.1 0 0h-.1v.1l.1-.1c-.1 0-.1 0 0 0zm-.8 0h0c.1 0 .1-.1 0 0h0z"/><path d="M135.7 309.1c0 .1-.1.1 0 0h0c-.1 0-.1.1-.1.1h.1v-.1c0 .1 0 .1 0 0 0 .1 0 .1 0 0zm1.1-.5c-.1 0-.1.1 0 0h0l-.1.1s.1 0 .1-.1c0 .1 0 0 0 0zm-6.7 1.5h0c0 .1.1.1 0 0h.2v.1c-.1-.1-.1-.1-.2-.1zm1.2 3h0c.1.1 0 .1 0 0 0 .1 0 .1 0 0h0c0 .1 0 .1 0 0h0c.1.1.1.1 0 0 .1.1.1.1 0 0 .1.1.1.1 0 0 .1.1.1 0 .1 0h0v-.1c-.1 0-.1 0-.1.1h0zm-1.4 1c-.1 0-.1 0 0 0 0 0 0-.1 0 0 .1 0 .1 0 .1-.1h0l.1-.1v-.2h-.1v.1h-.1v.3c0-.1 0-.1 0 0 0-.1 0 0 0 0z"/><path d="M130.4 313.8c-.1 0-.1 0 0 0-.1 0-.1 0 0 0l-.1.1h-.1v.2l.1-.1s0 .1-.1.1v.1h.1v.3h.2v.1h.1v.1h-.4v.2h.2c0 .1 0 .1.1.1h.1l-.1.1h-.2v-.1s.1 0 .1-.1h.6l.1-.1h.1v-.2h-.3v-.1s0-.1-.1-.1h0l-.1-.1h-.1v-.4s-.1 0-.1-.1h-.1l.2-.2v-.1h-.4v-.1h-.2s-.1 0-.1.1c.5.2.5.2.5.3 0-.1 0-.1 0 0 0-.1 0 0 0 0z"/><path d="M130 315.4h0v-.3h.1v-.2h-.1v-.1h-.2l-.1.1v.1h-.2v.3l.1.1h.5s.1 0 .1-.1h.2c-.4.2-.4.2-.4.1 0 .1 0 .1 0 0zm-.7-.2h0z"/><path d="M130.4 315h.2v-.1c-.1-.1-.1 0-.2.1 0-.1 0-.1 0 0 0-.1 0-.1 0 0zm-2.1-1.1h0c.1-.1.1-.1 0 0 .1-.1 0-.1 0 0zm5.4 5s-.1 0 0 0c-.1.1-.1.1 0 0l-.1.1v.7s0 .1.1.1h.2v-.5s0-.1-.1-.1c0-.2 0-.3-.1-.3h0c.1 0 .1 0 .1-.1v-.5c-.1 0-.1.1-.1.1h0v.2c-.1.2-.1.2 0 .3-.1-.1-.1 0 0 0zm-1.7.6c0 .1 0 .1 0 0 .1.1.1.1 0 0l.1.1v-.1h-.1c-.1-.1-.1 0 0 0-.1 0-.1 0 0 0zm.4-.1h0v-.1c-.1.1-.1.1 0 .1zm-.8.3h0c.1 0 .1-.1.1-.1h-.1v.1zm5.1.1h0c-.1 0-.1 0 0 0-.1.1-.1.1 0 0v.1c.1 0 .1 0 0-.1zm.6.3h.1s0-.1-.1-.1h0-.4l-.1.1h-.1v.1-.1.1-.2c.6.2.6.2.6.1h0zm-9.8 2.8c.1 0 .1-.1 0 0 .1-.1.1-.1 0 0l.1-.1c-.1 0-.1 0-.1.1h-.1l-.1.1v.1c.1 0 .1-.1.2-.2h0zm-.5.2c-.1 0-.1.1 0 0l-.1.1h.1v-.1zm-.3 0h0l.1-.1c-.1 0-.1 0-.1.1 0-.1 0-.1 0 0l-.1-.1v.1h.1c0 .1 0 0 0 0zm-.4-.3c0 .1 0 .1 0 0l-.1.1v.2l.1-.3c.1.1.1.1 0 0 .1.1.1 0 0 0z"/><path d="M126.5 323.2s.1-.1 0 0c.1-.1.1-.1 0 0l.1-.1c-.1 0-.1 0-.1.1h0zm-.1.1c0-.1 0-.1 0 0 0-.1 0-.1 0 0 0-.1 0-.1 0 0 0-.1-.1-.1 0 0-.1-.1-.1 0-.1 0h.1zm.3-1.6s.1-.1 0 0c.1-.1 0-.1 0 0 .1-.1 0-.1 0-.1-.1 0-.1 0 0 .1h0c-.1-.1-.1-.1 0 0-.1 0-.1 0 0 0zm-.2-.2c.1 0 0-.1 0-.1v-.1.2c-.1 0-.1 0 0 0-.1 0 0 0 0 0zm-1.8-1.4c0-.1 0-.1 0 0 0-.1 0-.1 0 0-.1-.1-.1-.1 0 0-.1-.1-.1-.1 0 0-.1-.1-.1-.1 0 0-.1-.1-.1-.1 0 0l-.1-.1v.1h.1c-.1 0-.1 0 0 0-.1 0-.1 0 0 0h0zm-.5-.4h0c-.1-.1-.1 0-.1 0h.1c0 .1 0 .1 0 0 0 .1 0 .1 0 0 0 .1 0 .1 0 0h0c0 .1 0 .1 0 0z"/><path d="M124.1 319.8c-.1 0-.1 0 0 0-.1 0-.1 0 0 0l-.1-.1h-.1v.1c0 .1 0 .1.2 0-.1.1-.1.1 0 0h0c-.1 0 0 0 0 0zm.1 6.8s-.1 0 0 0c-.1 0-.1 0 0 0-.1 0-.1 0 0 0-.1 0-.1 0 0 0h-.1v.1h.1v-.1zm.2.1h-.1c0 .1 0 .1.1 0-.1.1-.1.1 0 0 0 .1 0 .1 0 0 0 .1 0 .1 0 0 0 .1 0 .1 0 0h0c0 .1 0 .1 0 0h0c.1.1 0 0 0 0zm.4.2c-.1 0-.1 0 0 0h0c-.1 0-.1.1-.1.1h0c.1 0 .1-.1.1-.1z"/><path d="M124.7 326.8h0v-.1.1zm-.1.5s0-.1 0 0l-.1-.1v.1l.1.1v-.1c0 .1 0 0 0 0zm.1-.3h0c-.1.1-.1.1 0 0-.1.1-.1.1 0 0l-.1.1v.1c.1-.1.1-.1.1-.2 0 .1 0 .1 0 0 0 .1 0 .1 0 0 0 .1 0 .1 0 0 0 .1 0 .1 0 0z"/><path d="M124.4 327.3s-.1 0 0 0c-.1 0-.1-.1 0 0h0c-.1-.1-.1-.1 0 0h-.1s0 .1.1.1c-.1 0-.1 0 0-.1-.1.1 0 .1 0 0h0zm22 .8h-.2v.1h.1c0-.1.1-.1.1-.1zm11.6-1.3c.1-.1.1-.1.1-.2v-.1c0 .1.1.1.1.2 0 0 0 .1.1.1v.2c0 .1 0 .1.1.1v.7c0 .1.1.1.1.2v1.5c0 .1.1.1.1.1v.2s0 .1.1.1v.6s0 .1.1.1v.3s0 .1.1.1v.1c0 .1 0 .1.1.2 0 0 .1.1.2.1h.2l.1.1h.1s.1 0 .1.1v.1h.2v-.1c-.1-.1-.1-.2-.1-.2l-.2-.2v-.8c0-.1 0-.1-.1-.2l-.1-.1s0-.1-.1-.1v-.2h-.1l-.1-.1v-.2h-.1l-.1-.1v-.3l-.1-.1h-.2v-1.2h.1l.1.1v.1h.4v.1h.1l.1.1v.2s0 .1.1.1v-.1.1l.1.1v.3s.1 0 .1-.1v-.3h.1c.1 0 .1 0 .1-.1v-.1h.1l.2-.2s.1-.1 0-.1v-.4s-.1-.1-.1-.2v-.5l-.2-.2c-.1-.1-.1-.2-.2-.2s-.3-.2-.3-.2v-.1c0-.1-.1-.1-.1-.2v-.2c-.2-.1-.3-.2-.3-.2v-.3h.1l.1-.1s0-.1.1-.2c0 0 .1 0 .1-.1v-.1h.4s.1 0 .1-.1h0v.4h.1c.1 0 .1-.1.1-.1v-.2h.4s0-.1.1-.1v-.1.1-.1l.1-.1h.5l.1-.1h.1s.1 0 .1-.1c0 0 .1 0 .1-.1v-.1c.1 0 .1-.1.1-.1v-.1h.2v-.1h-.1v-.5c.1 0 .1 0 .1-.1v-.6h-.1s-.1 0-.1-.1h-.1l.1-.1v-.1h.2v-.1s.1 0 0-.1c0-.1 0-.1-.1-.1h-.1l-.1-.1h-.2v-.1s0-.1-.1-.1l-.2-.2c0-.1 0-.1-.1-.2h-.4v-.1c0-.1.1-.1.1-.2l.1-.1v-.1s.1 0 .1-.1h.1s.1 0 .1-.1v-.1h-.3c-.1 0-.1 0-.1-.1h0l-.1-.1s-.1 0-.1.1v.1h-.1s-.1 0-.1-.1v-.2h-.4v-.1h.3v-.2h.1v-.2h.2l.1.1c0 .1 0 .1-.1.2h0v.3c.1 0 .1 0 .1-.1h0l.1-.1h.7v.5h.4v.3h.1v.1s0 .1.1.1v.3s0 .1.1.1v.1l.1-.1h.1v-.1s0 .1.1.1v-.1h.1s.1 0 .1-.1v-.5l-.1-.2s-.1-.1-.1-.2l-.3-.3s-.1 0-.1-.1l-.2-.1s-.1-.1 0-.1h.2l.1-.1v-.2c0-.1-.1-.1-.1-.1v-.1c0-.1 0-.1.1-.1 0 0 .1 0 .1-.1v-.1s.1 0 .1.1l.1.1h.3l.2-.2c0-.1.1-.1.1-.1v-.1c0-.1 0-.2.1-.2v-.1c0-.1.1-.2.1-.2V317l-.1-.1v-.1l-.1-.1v-.2h.2v.2s.1 0 .1.1v.1l.1.2.1.1v.1h.1s.1 0 .1.1v.3l.1.1v-.1h.1s0 .1.1.1h0v-.2l-.1-.1v-.6h-.3l-.1-.1c-.1-.1-.2-.1-.2-.2s-.1-.1-.1-.1h0s-.1 0-.1-.1-.1-.1-.1-.1h0l-.3-.3c0-.1-.1-.2-.1-.2l-.4-.4s-.1-.1-.2-.1h0s0 .1.1.1c0 0 .1 0 .1.1v.1l.1.1s0 .1.1.1v.1-.3s-.1 0-.1-.1h-.3c-.1 0-.1-.1-.1-.1h-.5v.1h-.1v-.1h-.1v-.2s-.1-.1-.2-.1h-.1l.1.1s0-.1-.1-.1h0v-.1.1h-.4l.2-.2h.1s.1 0 .1-.1v-.3l.1-.1c0-.1.1-.1 0-.1h0v-.3s.1-.1.2-.1h.7v-.1h.2s.1 0 .1-.1v-.1h.5c-.1 0-.1 0-.1.1l.1.1h.6l-.1-.1h-.2c-.1 0-.1 0-.1-.1v-.1l.1-.1s.1 0 0-.1v-.3l.1-.1h.3v.1s0 .1.1.1h.2v.1h.1v-.2h.2s0-.1-.1-.1h-.1l-.1-.1h.1s0 .1.1.1h0s0 .1.1.1v.1h-.1s-.1 0-.1.1c0 0-.1 0 0 .1v.7h-.1v.1h-.2l.1.1s.1 0 .1.1v.2a1.44 1.44 0 0 0 .2.3l1 1c.1 0 .1.1.2.1 0 0 .1.2.2.2h.2v.3l.1.1v-.5c0-.1 0-.1-.1-.1l-.2-.2h.2l-.2-.2.1-.1h.2v-.1s-.1 0-.1-.1h-.1l-.2-.2c.1 0 .1.1.1.1v-.1l-.1-.1s-.1 0-.1-.1c0 0-.1-.1-.2-.1v-.1s0-.1-.1-.1h-.2s-.1 0-.1-.1c0 0-.1 0-.1-.1v-.2s0-.1-.1-.1h.3v-.1l.2.2h.1v-.1s.1 0 .1-.1h.2l.2.2v-.2c0-.1 0-.1.1-.1h.2c.1 0 .1-.1.1-.1h.5v-.1h-.3l-.1-.1h-.1s-.1 0-.1-.1h-.2l.1-.1c0-.1-.1-.1-.1-.1h-.1s.1 0 .1.1h.7s0 .1.1.1h.9v.1s.1 0 .1-.1l-.1-.1h-.1s0-.1-.1-.1h-.1.2v-.2l-.1-.1h-.5l-.1-.1h-.8l.1.1c.1 0 .1.1.1.1h-.1s-.1 0-.1-.1h-.1l-.1-.1h-.2l-.8-.2s-.1 0-.2-.1h-1c-.3 0-.6-.1-.6-.1h-1.3l.1.1s0-.1-.1-.1h-.2v-.1h-.3v.1h-1.5s0-.1-.1-.1-.5-.2-.5-.2h-1.2s0-.1-.1-.1h-.7c-.1 0-.5-.1-.6-.1h-1.4v.1h-.3c-.1 0-.1-.1-.1-.1h0-.7l-.2-.1h-.1c-.1 0-.2-.1-.2-.1v.1h.1v.1h-.2s-.3-.1-.4-.1h-.2s0-.1-.1-.1v-.1h-.1s-.1-.1-.2-.1h-3.2v-.1h-.5c-.1 0-.1 0-.1-.1h.2v-.1h-.2v.1h-.5v.1-.1h.1s.1 0 .1-.1h.1s.1 0 .1-.1h.3l.1-.1h-.1v-.1h-.1l-.1-.1h-1.4l-.1-.1h-.1c.1 0 .1 0 .1-.1h-.8v.2h-.7v-.1h-1c-.1 0-.1 0-.1.1h-.4s-.1 0-.1.1h0-.7s-.1 0-.1.1h.2s0 .1.1.1h.3l-.1-.1h-.6s-.1 0-.1.1v.1c-.1 0-.1 0-.1.1h0-.2v-.1s0-.1-.1-.1h-.1v.1h.5v.4h.5v.2l.1.1h.1v.3h-.1s-.1 0-.1.1h-.2v-.1l.2-.2v-.2s.1 0 .1-.1h-.1c-.1 0-.2-.1-.2-.1v-.3h-.1v-.1l-.1-.1h-.2v-.1c0-.1-.1-.1-.1-.2h-.5v.3h-.1s-.1 0-.1.1h.1v.1h.1v.1c0 .1 0 .1.1.1h.1v.1h.2s0 .1.1.1h.2v.2l-.2-.1s0-.1-.1-.1h0-1.7s-.1 0-.1.1h0s.1 0 .1.1h.2s.1 0 .1.1h.1v.2s0-.1-.1-.1h0s0 .1.1.1h-.2v.1h-.5v-.1h-.3l-.1.1h-.2s-.1 0-.1.1h-.1v.1h-.2v.2h-.5s.1 0 .1-.1h.2s-.1 0-.1-.1h0s-.1 0-.1-.1l-.1-.1h-.4v.1h.2v.2l.1.1.2.1v.1h-.1c0-.1-.1-.1-.1-.1h-.3l-.1.1h-.2l-.1.1c.1 0 .1.1.1.1h-.6s0-.1-.1-.1h0s0 .1.1.1c0 0 .1 0 .1.1h0s-.1 0-.1-.1h-.3v-.1l.1-.1v-.1h-.2l-.1-.1h.9c.1 0 .2 0 .3.1h.3s.1 0 .1-.1c0 0 .1 0 .1-.1v-.1s0-.1-.1-.1h-.7l-.1-.1s-.3-.1-.4-.1h-.4l-.1.1v-.1h-.3s-.1 0-.1.1h-.4c.1 0 .1 0 .1-.1h0-.4l-.1.1v-.1h-.2v.1h-.1v-.1h-.1l-.1.1s.1 0 .1-.1v-.1h-.1v.2h-.4s0 .1-.1.1h0v-.2h-.2v.1s-.1 0-.1.1v.1-.1h-.2v.1-.1h-.2v.2s-.1 0-.3.1h0v.1s.1 0 .2-.1h.3v.2s0 .1-.1.1h-.2l-.2.2v.1h-.1s-.1 0-.1.1c0 0 0 .1-.1.1h0-.1v.3h-.3v.9l.1.1h.4l.2-.2v-.1.4s0 .1.1.1l.1.1h-.1v.1h-.1v.2c-.1 0-.1 0-.1.1h.2s.1 0 .1-.1l.1-.1h.2v-.1h.2l.1-.1v-.2l-.1.1v-.4h.1s.1 0 .1-.1h.1v-.2s0-.1-.1-.1h-.3v-.3h.2v-.1h.5s.1 0 .1-.1v-.2l.2-.1h.5l.1.1h-.1l-.2.1-.1.1c-.1 0-.1.1-.1.1l-.1.1s-.1 0-.1.1h-.1v.2l.1.1v.3h1.8l.1.1h-.1s-.1 0-.1.1h-.9v.1h-.1l-.1.1c-.1 0-.1.1-.1.1h-.1v.2h.2v-.2h.1s.1 0 .1.1l.1.1v.4h-.2l-.1-.1h-.1s-.1.1-.2.1h0v.8l-.1.1h-.1v.2h-.1v-.1h-.1s-.1 0-.2.1h-.2c-.1 0-.2.1-.2.1h0-.4v-.1s0-.1-.1-.1l-.1.1h-.2l-.1.1h-.2l.1-.1v-.1h-.2v-.2s0-.1.1-.1l.1-.1v-.6s-.1 0-.1.1v.1l-.1.1h-.2s-.1 0-.1.1v.7l-.1.1h-.7s-.1 0-.1.1v.4h-.5v.2l-.2.2s-.1 0-.2.1v.1h-.3v.1c0 .1 0 .1.1.1v.2h-.8s0 .1.1.1v.2h.4v.1h.1v.1h.1c.1 0 .1.1.1.1v.5s0 .1-.1.1h0s0 .1-.1.1h-1.5c-.1 0-.1.1-.1.1h-.1s-.1 0-.1.1v.1l.1.1v1.3l.1.1v.4h.4c.1 0 .1 0 .1.1v.1s0 .1.1.1c0 0 .1 0 .1.1h1.1s.1 0 .1-.1c0 0 0-.1.1-.1h.2v-.2s.1 0 .1-.1h-.1v-.2l.3-.3v-.1h.1c.1 0 .1 0 .2-.1h0c.1 0 .1 0 .1-.1h.1s.1 0 .1-.1v-.3l.1-.1h.7s.1 0 .1-.1h.2v-.2h.5v.2h.1v-.1.1h.4v.1h.2v.1h.2v.2h-.8v.2h.3s0 .1.1.1h.2v-.7h-.1v-.1h.1l.1.1v-.1c0-.1 0-.1-.1-.1l-.1-.1h-.2c-.1 0-.1 0-.2-.1v-.1h.1s0-.1-.1-.1h-.2l-.1-.1s-.1 0-.1-.1l-.1-.1v-.2l-.1-.1s-.1 0-.1-.1h-.1v-.2s.1 0 .1-.1c0 0 0 .1.1.1v.2h.1s0 .1.1.1h.1s.1 0 .1.1v.1l.1.1h.4c.1 0 .1.1.1.1s.1 0 .1.1c0 0 0 .1.1.1v.3l.1.1h.1c0 .1 0 .1.1.1h.2s.1 0 .1.1v.1s0 .1.1.1h.4v.1s0 .1.1.1h.1v-.2h.2v-.1h-.1s0-.1-.1-.1v-.1l-.2-.2v-.2h.2s.1 0 .1-.1l.1-.1h.2c0 .1 0 .1.1.1v.1h-.1v.2h-.1.2v-.1h.1v.2h-.1v.1h.1v.1h-.1v.2h.1v.2s.1 0 .1-.1v-.1c-.1 0-.1.1-.1.1h.1l-.1.1v.1s.1 0 .1-.1v-.3s0 .1.1.1h.1v.2h.1l.1-.1v-.2h.2s.1 0 .1.1h.2v-.2h.2s.1 0 .1-.1h.1s-.1 0-.1.1h0v.4s-.1 0-.1.1v1l-.1.1h-.2l-.1-.1h-.4l-.1.1h-1.2s0-.1-.1-.1h-.4v-.1h-.6s-.1 0-.1.1v.3s-.1.1-.1.2l-.1.1h-.2l-.1-.1s-.4-.2-.5-.2h-.1c-.1 0-.1 0-.1-.1v-.1c0-.1 0-.1-.1-.1l-.1-.1h-.2s-.1-.1-.2-.1h-.5c-.1 0-.1 0-.1-.1h-.1c-.1 0-.1 0-.1-.1h-.3s-.1 0-.1-.1v-.2l.1-.1v-.2c0-.1 0-.1-.1-.1v-.1s0-.1.1-.1v-.2h-.2v-.1h-.2s-.1 0-.1.1h-1.8c-.1 0-.1.1-.2.1v.1h-1.2l-.1-.1h-.2v.1s0 .1-.1.1c0 0 0 .1-.1.1v.1l-.2.2h-.2c-.1 0-.1.1-.2.1s-.1.1-.2.1l-.1.1s0 .1-.1.2c0 0-.1 0-.1.1v.4s0 .1-.1.1l-.1.1v.2l-.1.1c-.1 0-.1.1-.1.1l-.1.1s-.1 0-.1.1h-.3s0 .1-.1.1c0 0-.1 0-.1.1v.3h-.1c-.1 0-.1 0-.1.1v.6l-.1.1h-.2v.4l-.1.1v.8l.1.1v.9c0 .1-.1.1-.1.2l-.1.1v.1l.1.1v.6s0 .1.1.1v.1h.2v.2l.1.1h.1v.2h.2v.2l.1.1v.5h.2s0 .1.1.1c0 0 0 .1.1.1 0 0 0 .1.1.1h.1s.1 0 .1.1c0 0 .1.1.2.1l.1.1c.1.1.1.2.2.2h.1c.1 0 .2-.1.3-.1 0 0 .1 0 .1-.1.1 0 .1 0 .1-.1h.7c.1 0 .1.1.1.1s.1 0 .1-.1l.1-.1h.2l.2-.2h.3c.1 0 .2-.1.3-.1h.6c.1 0 .1.1.1.1v.1c0 .1.1.1.1.1s0 .2.1.2c0 0 0 .1.1 0h.1s0-.1.1-.1h.5v.2h.1v.7h.1v.1l-.1.1v.2c0 .1 0 .1-.1.1h-.1c0 .1 0 .1.1.2v.1c0 .1 0 .1.1.2l.2.2s0 .1.1.1l.4.4c0 .1.1.1.1.1l.1.1s0 .1.1.1v.1s0 .1.1.1l.1.1v.1s0 .1.1.1v.1c0 .1.1.1.1.2 0 0 0 .1.1.1h0v.1h-.1v1.3l-.1.1c-.1 0-.1 0-.1.1v1.6s.1.1.1.2v.5s0 .1.1.2v.1s0 .1.1.1c0 0 0 .1.1.1 0 .1.1.1.1.2v1.6l.1.1c0 .1.1.1.1.1v.1l.2.3v.1s0 .1.1.1c0 .1.1.1.1.2l.2.2v.3h.1v.3h.2c.1 0 .2-.1.2-.1h.4s0-.1.1-.1h.8v-.2h.1s.2-.1.3-.1.2-.1.2-.2c0 0 .1-.1.2-.1l.2-.2h.1l.1-.1s0-.1.1-.1l.7-.7v-.1s0-.1.1-.2v-.1c0-.1.1-.2 0-.2 0-.1 0-.1.1-.1 0 0 .1-.1.2-.1h.3s.1 0 .1-.1.1-.1.1-.1 0-.1-.1-.1l.1-.1v-.7c0-.1 0-.1-.1-.1 0 0-.1 0-.1-.1v-.1h.1l.1-.1s0-.1.1-.1h.2l.2-.2c0-.1.1-.1.1-.1l.1-.1s0-.1.1-.1h.1s.1 0 .1-.1h.1s.1 0 .1-.1l.3-.3v-1.4s.1-.1 0-.2c0 0-.1 0-.1-.1h0c-.1 0-.1-.1-.1-.2v-.2s0-.1-.1-.1v-.6l-.2-.2h-.1v-.3c0-.1 0-.1.1-.1 0 0 0-.1.1-.1v-.5s0-.1.1-.1v-.1l.1-.1v-.1l.1-.1h.1l.1-.1v-.1s0-.1.1-.1c0 0 0-.1.1-.1l.3-.3c0-.1.1-.1.1-.1l.1-.1c0-.1.1-.1.1-.1h0s.2-.1.3-.2.2-.1.2-.2l.5-.5c0-.1.1-.1.1-.1s0-.1.1-.1l.1-.1c.1-.1.1-.2.1-.2v-.2s0-.1.1-.1c0-.1.1-.1.1-.1v-.1l.1-.1c0-.1.1-.2.1-.3l.1-.1v-.3h.1s0-.1-.1-.1v-.5h-1l-.1.1h-.2l-.1.1h-.2c-.1 0-.1 0-.1-.1l-.1-.1s0-.1-.1-.1h0-.2c0-.1 0-.1.1-.1h.2s.1-.1 0-.1v-.2s0-.1-.1-.1h-.1l-.1-.1v-.1s0-.1-.1-.1l-.1-.1v-.1s0-.1-.1-.1-.1 0-.1-.1c-.1 0-.1-.1-.1-.1s-.1 0-.1-.1 0-.1-.1-.2v-.3s0-.1-.1-.1c0-.1 0-.1-.1-.1-.1-.1-.1-.1-.2-.1h-.1l-.1-.1c-.1 0-.1-.1-.1-.1v-.8c0-.1 0-.1-.1-.1h-.1s-.1 0-.1-.1l-.2-.2v-.1l-.1-.1s0-.1-.1-.1v-.1c0-.1-.1-.2-.1-.2v-.8c0-.1-.1-.1-.1-.2l-.1-.1s0-.1-.1-.1l-.1-.1v-.2l.1.1v.2l.3.3h.1v-.1h.2v.1l.2.2a1.44 1.44 0 0 1 .2.3s.1.1.1.2v.1l.1.1v.2c0 .1.1.1.1.1.1 0 .1.1.1.1 0 .1.1.2.1.2.1.1.1.2.1.2v.5l.3.3h.1s.1 0 .1.1l.1.1v.4c0 .1.1.1.1.2 0 0 .1 0 .1.1v.3s.1.1.1.2v.6s.1.1 0 .1v.4h.4s.1 0 .1-.1h.5l.1-.1h.1c.1 0 .2-.1.2-.2 0 0 0-.1.1-.1h.3c.1 0 .2 0 .2-.1l.1-.1v-.2l.1-.1s0-.1.1-.1.1 0 .2-.1h.4c.1 0 .1-.1.1-.1v-.1h.2v-.1c0-.1 0-.1.1-.1h.1c.1 0 .2 0 .2-.1v-.2c0-.1 0-.2.1-.2v.1-.1c0-.1.1-.1.1-.2l.1-.1c0-.1.1-.1.1-.2v-.1s.1 0 0-.1h-.2c0-.1-.1-.1-.1-.1v-.2c0-.1 0-.1-.1-.1h-.3c-.1-.1-.2-.1-.2-.1v-.1s0-.1-.1-.1v-.4l-.4.4v.1l-.2.2c-.1 0-.1.1-.1.1h-.5v-.3l-.1-.1v.3l-.1-.1s-.1 0 0-.1v-.2l-.2-.2s0-.1-.1-.1l-.1-.1c0-.1-.1-.2-.1-.3v-.1h.1v-.1h.2c.1 0 .1 0 .1-.1 0 .1.1.1.1.1v.1s0 .1.1.1v.2s0 .1.1.1c0 0 .1 0 .1.1v.1c0 .1 0 .1.1.1h.2c.1 0 .1.1.2.1h.3v.1h.3l.1-.1v.2l.1-.1v-.1s.1 0 .1.1v.1c0 .1 0 .1.1.2v.1s0 .1.1.1h2.6v.1h.2v.3l.1.1s.1 0 .1.1h0v.1c0 .1.2.2.2.2h.2c.1 0 .1-.1.1-.1h0v.1s-.1 0-.1.1h-.2v.1h.2l.4.4s0 .1.1.1h.2s.1 0 .1-.1h0c.1-.1.1-.1.1-.2v-.1.2c.1 0 .1.1.1.2v.7c0 .1 0 .2.1.2v.3c0 .1.1.1.1.1l.1.1c0 .1 0 .2.1.2.1.1.1.2.1.3v.2c0 .1 0 .1.1.2l.2.2s0 .1.1.2v.1c0 .1 0 .1.1.2v.4c0 .1.1.1.1.2l.1.1s.1 0 .2-.1v-.1l.1-.1h.2s0-.1-.1-.1v-.2h.1s.1 0 0-.1v-.3s0-.1.1-.1c0-.1.1-.1.1-.2v-.9l.1-.1c.1 0 .1 0 .1-.1v-.1h.2l.3-.3s0-.1.1-.1c0 0 .1 0 .1-.1v-.1s0-.1.1-.1c0 0 0-.1.1-.1 0 0 0-.1.1-.1l.1-.1h.2s.1 0 .1-.1c0 0 .1-.1 0-.1v-.3h.1l.1-.1v.1h.1v-.1s0 .1.1.1h.2v-.1s0-.1.1-.1h0v.2l.1.1v.1l.1.1v.1s0 .1.1.1h.1s0 .1.1.1h.1s-.1 0 0 .1v.2h.1s0 .1.1.1l.1.1v.7h.3v-.1l4.3-.3c-.1 0 0 0 0 0zm6.2-4h0zm-3.6-13h.2v.1l-.2-.1c.1.1.1.1 0 0 .1.1 0 .1 0 0zM148 311c-.1 0-.1 0 0 0h0c-.1 0-.1 0 0 0-.1 0-.1 0-.1-.1s0-.1-.1-.2h-.1.2l.1.1v.1c-.1 0-.1 0 0 .1-.1-.1-.1-.1 0 0-.1 0 0 0 0 0zm20.2 1.9h0z"/><path d="M161.8 325.9h0c.1 0 .1-.1.1-.1s0-.1-.1-.1h-.4v.1l-.1.1v.3h.2s.1 0 .2-.1v-.1l.1-.1c0 .1 0 .1 0 0zm7.2-12.5h-.1v.1c0 .1.1.1.1.1h.1c0-.1 0-.1-.1-.2.1.1.1.1 0 0 .1.1.1.1 0 0h0zm-23.8 23.5v-.5s0-.1-.1-.1v-.2h-.1v.4c0-.1-.1-.1-.1-.1v.2h-.1v.1s-.1 0-.1.1v.2s-.1 0-.1.1h-.2v-.1h-.1v.2c0 .1 0 .1-.1.1v.8l-.1.1v.1l-.1.1h-.1v1h.2l.1.1h.2s0-.1.1-.1h.2s.1 0 .1-.1v-.3l.1-.1v-.4a.76.76 0 0 1 .2-.4v-.2c0-.1.1-.3.1-.3s0-.1.1-.2v-.1s0-.1.1-.1c0 0 0-.1.1-.1v-.6l.1-.1v-.1c-.3.6-.4.6-.4.6zm8.8-7.4v-.2c0-.1-.1-.1-.1-.2l-.1-.1c0-.1-.1-.1-.1-.1v1.5s0 .1.1.1c0 0 .1 0 .2-.1 0 0 .1 0 .1-.1.1-.1.1-.1.1-.2v-.3c-.1-.2-.2-.3-.2-.3zm3-1.2c-.1.1 0 .1 0 .1h0v-.2c.1 0 .1 0 0 .1 0-.1 0-.1 0 0zm.1.4c0-.1 0-.1 0 0h0c0-.1-.1-.1 0 0l-.1-.1v.1s0 .1.1 0c-.1.1 0 .1 0 0zm0 .4h0c0 .1 0 .1 0 0v.1c.1 0 .1 0 0-.1.1.1.1 0 0 0h0zm.3.4c0-.1 0-.1 0 0h0c-.1-.1-.1-.1 0 0-.1 0-.1 0 0 0-.1 0-.1 0 0 0-.1 0-.1.1-.1.1.1 0 .1-.1.1-.1zm.1.3h0c0-.1 0-.1 0 0-.1-.1-.1-.1 0 0-.1-.1-.1-.1 0 0h0c-.1 0-.1.1 0 .1h.1l-.1-.1zm.7 1.4c-.1-.1-.1-.1 0 0h0c-.1-.1-.1 0-.1 0h.1c-.1.1-.1.1 0 0v.1c.1 0 0-.1 0-.1z"/><path d="M158.6 331.7s0-.1 0 0c0-.1 0-.1 0 0l-.1-.1c0 .1 0 .1.1.1l-.1.1.1.1s0 .1.1.1c0-.1 0-.2-.1-.3h0zm-.1-.2h0v-.1.1zm.4.7v-.1.1c-.1-.1-.1-.1 0 0-.1-.1-.1 0 0 0l-.1.1c.1 0 .1 0 .1-.1z"/><path d="M158.9 332.1h.1c0-.1 0-.1-.1 0 0-.1 0-.1 0 0h0zm.1.3l-.1-.1v.2l.1.1.1-.1-.1-.1zm.3.5s0-.1 0 0h0l-.1-.2v.1l.1.1h-.1v.2c.2-.1.2-.2.1-.2z"/><path d="M160.7 333.9h.1s.1 0 .1-.1v-.8h.2v-.1h-.2v-.3s-.1 0-.1-.1h0-.1s0 .1-.1.1v.1h.1l.1.1h-.1v-.1h-.1v-.2l-.1-.1h-.2v-.1s0-.1-.1-.1h0v-.3h-.3v-.1l-.1-.1h-.1v-.1h-.2l-.1-.1v.1-.1h-.1v-.2l-.1-.1h-.3c0-.1-.1-.1-.1-.1h0v-.2l-.1-.1h-.4s0 .1.1.1v.1s0 .1.1.1l.1.2.1.1s0 .1.1.1c0 0 .1 0 .1.1l.1.1v.1s0 .1.1.1c0 .1.1.1.1.1h0v.6h.2l.1.1v.4h.1v.1l.1.1c.1 0 .1.1.1.1v.1l.1.1h.2l.1.1h.1s0 .1.1.1l.1.1c.1.1.1.1.2 0z"/><path d="M160.5 332.2c-.1 0-.1.1 0 0v.1c.1 0 .1 0 0-.1h.2v-.1c-.2 0-.2 0-.2.1 0-.1 0-.1 0 0h0zm.9.9s0 .1 0 0c.1.1.1.1 0 0 .1.1.1.1 0 0h.2v-.1l-.1-.1h-.3l.2.2zm.6 1.5h0c.1 0 .1.1.1.1l.1.1h.5s0 .1.1.1h.2s0 .1.1 0v-.1s.1 0 .1.1v.2l.1-.1h.1v-.1h-.2s0-.1-.1-.1h-.7s-.1 0-.1.1h-.5v-.1c0-.1-.1-.1-.1-.1h-.2s-.1 0-.1-.1h-.2v.3h-.1v.1h.3v.1h.1v.2l.1.1h.4c-.1-.8-.1-.8 0-.8zm2.2.4h.1v-.1h-.1s-.1 0-.1-.1h0-.2v-.1h-.1v.1s-.1 0-.1.1v.1h.1v-.1.2h.2c.1-.1.1-.1.2-.1-.1 0-.1 0 0 0-.1 0-.1 0 0 0z"/><path d="M164.4 334.9h.1v-.1h-.3v.1h.1c0-.1 0-.1.1 0-.1-.1-.1-.1 0 0 0-.1 0 0 0 0zm1 0h.1s0-.1-.1-.1h-.5s-.1 0-.1.1h0v.1h.3c.2-.1.2-.1.3-.1-.1 0 0 0 0 0zm-.9.3h.1l.1.1v-.2h-.2v.1c0-.1 0-.1 0 0zm1.2.2h.2l.1-.1v-.1h.2c.1 0 .1 0 .2-.1h.1l.1-.1s0-.1-.1-.1h-.5l-.2.2h-.1s-.1 0-.1.1v.1c.2 0 .2 0 .1.1 0-.1 0-.1 0 0 0-.1 0-.1 0 0 0-.1 0-.1 0 0 0-.1 0-.1 0 0 0-.1 0-.1 0 0zm.4-3.4c.1 0 .1 0 .1-.1v-.5h-.1l-.3.3h-.8c-.1 0-.1 0-.1.1h0l-.1.1s0-.1-.1-.1v.6l-.1.1v.6h.1v.6h.2v-.7h.1s.1 0 .1-.1v.2h.1v.3h.4l.1-.1v-.4s0-.1-.1-.1l-.1-.2h.3v-.3h-.5v.1l-.1.1h-.1v-.3h.8c.1-.2.1-.2.2-.2z"/><path d="M165.8 332.6h.2c-.3-.1-.3-.1-.2 0h0c-.1 0-.1 0 0 0zm.5.1h0l.1-.1h-.3v.1s0 .1.1.1l.1-.1zm-.7 1.1s0 .1 0 0c0 .1 0 .1 0 0 0 .1 0 .1 0 0 0 .1 0 .1 0 0l.1.1.1-.1v-.1c-.1 0-.1 0-.1.1v.1c-.2-.2-.2-.1-.1-.1h0c-.1 0-.1 0 0 0h0c-.1 0-.1 0 0 0zm-.1-.1h0s-.1 0 0 0c-.1 0-.1 0 0 0h0l-.1.1c.1 0 .1 0 .1-.1 0 .1 0 0 0 0h0zm1.5-1.1h.1v-.1h-.2c.1 0 .1.1.1.1h0zm0-.3h.2v-.1l.1.1s.1 0 .1-.1v-.3h.1s0-.1-.1-.1h.1v-.2h-.1l-.1.1v-.4s-.1.1 0 .1v.4h-.2c-.2.5-.2.5-.1.5h0z"/><path d="M167.4 331.3c0-.1-.1-.1 0 0-.1-.1-.1-.1 0 0h0-.2v.1h.1l.1-.1zm-.4 1.9c-.1 0-.1 0 0 0-.1 0-.1-.1 0 0 0-.1 0-.1-.1-.1h-.3v.2h.2l.2-.1c-.1.1 0 .1 0 0zm.3-.1c0 .1 0 .1 0 0 0 .1 0 .1 0 0l.1.1h.3v-.2l-.1-.1h-.5l.2.2c-.1 0 0 0 0 0zm.6-.5h-.1c.1.1.1.1.1 0z"/><path d="M167.9 332.3c0-.1.1-.1 0 0 .1-.1.1-.1 0 0h.2v-.1h-.3v.1c0-.1 0-.1.1 0-.1-.1 0-.1 0 0 0-.1 0 0 0 0h0zm4.7 1.7c-.1 0-.1-.1-.1-.1h0l-.1-.1h-.2v-.1s0-.1-.1-.1l-.1-.1h-.1l-.1-.1h-.1c-.1-.1-.2-.1-.3-.1 0 0-.1 0-.1-.1-.1 0-.1-.1-.2-.1 0 0-.1 0-.1-.1-.1 0-.1-.1-.2-.1h-.4s-.3-.2-.4-.2h0-.2l-.1.1v.1h-.2v.2h-.2v-.1l-.1-.1v-.6h-.1l-.1-.1h-.2l-.1.1h-.1v.1s-.1 0 0 .1h0s0 .1.1.1h.1v.2h.2l-.1.1h-.1.1v.3h.1c.1 0 .1-.1.1-.1v-.1s0 .1.1.1h.1v.1h.3s0 .1.1.1h.3l.1.1v.6c-.1 0-.1.1-.1.1l-.1.1v.2h.7v.1s0 .1.1.1l.1.1v.1s0 .1.1.1h.5c.1 0 .1-.1.1-.1s.1 0 .1-.1v-.2h-.1.2v-.1h.1c0 .1.1.1.1.1h.2l.1.1v.1l.1.1v.2s0 .1.1.1v.2h.1v.1h.1s.1-.1.1 0h.2v.1l.1-.1h-.3s-.1 0-.1-.1v-.1l-.1-.1v-.1h-.2v-.4c-.1 0-.1-.1-.1-.1s-.1 0-.1-.1v-.2s.1.1.1 0h.1s0-.1-.1-.1c.5 0 .4 0 .4-.1z"/><path d="M169.2 332.6h0c.1.1.2.1.2.1h.3l-.1-.1h-.4zm-.4 1.4v.1-.5h-.1c.1.3.1.3.1.4h0zm-.6.4c0-.1 0-.1 0 0-.1-.1-.1 0-.1 0l-.1.1v.5l.1-.1v-.2c0-.1.1-.1.1-.1v-.2s-.1 0 0 0zm-.7.3h0c.1 0 .1-.1 0 0 .1-.1.1-.1 0 0 .1-.1 0-.1 0-.1h0-.1l.1.1c0-.1 0 0 0 0zm-1.4.1h0c0-.1-.1-.1 0 0-.1 0 0 0 0 0zm-.5 0h.2v-.1h-.1c-.1 0-.2.1-.1.1h0zm7.3-.8h0c.1.1.2.1.2.1h.4l.1-.1h.1v-.4l-.1-.1h-.1v.3h-.1v.1h-.1v-.1l-.1.1h-.3c0-.1-.1 0 0 .1 0-.1 0-.1 0 0zm-.2 0s.1-.1 0 0c.1-.1.1-.1 0 0l.1-.1c-.1-.1-.1 0-.1.1h0c0-.1 0-.1 0 0 0-.1 0-.1 0 0zm-.3-1.3c0 .1 0 .1 0 0v.1-.1c0 .1.1.1 0 0 .1.1.1.1 0 0 .1.1.1.1 0 0 .1.1.2.1.2.1h-.1l-.1-.1zm1 .3h0c.1-.1.1-.1 0 0l.1-.1s0-.1 0 0h0c-.1 0-.1 0-.1.1zm.3 0s0 .1 0 0h0c.1.1.1.1.2.1h.2v.1-.1l-.2-.2-.2.1c-.1 0-.1 0 0 0zm.9.9v.1h.1v.2h.1v-.2l-.1-.1v-.2c-.1.1-.1.2-.1.2zm.6.4c0 .1 0 .1 0 0l.1.1v-.2h-.1v.1c-.1 0-.1 0 0 0zm-.1.3h0c.1 0 .1-.1.1-.1h0-.1v.1c0-.1 0 0 0 0z"/><path d="M175.4 334.6h0-.2v.3h.1v-.1h-.1c.2-.1.2-.1.2-.2z"/><path d="M175.7 334.6h0l.1.1h.1v-.2h-.2v.1-.1.1c-.1-.1 0-.1 0 0zm.3.4h0v.2h.3v-.1h-.1s0-.1-.1-.1h-.1z"/><path d="M176.2 334.9v.1l.1.1v.1l-.1-.1v-.2l.1-.1h-.1v.1zm.2.4h0c-.1 0-.1.1 0 .1v.1s0 .1.1.1h.1l.1.1-.1-.2s0-.1-.1-.1l-.1-.1c.1.1 0 0 0 0zm1.4 2.1v-.4h.2v.1c-.3.2-.2.3-.2.3h0zm-2-2.5s0 .1 0 0c-.1.1 0 .1 0 .1.1.1.1 0 0-.1.1.1.1 0 0 0zm-2.5-.1c-.1.1 0 .1 0 .1.1 0 .1-.1 0-.1h0zm.9.2c0-.1-.2-.1-.2 0 0 0 0 .1.2 0-.1.1 0 0 0 0zm-.7.3h.1s0-.1-.1 0c0-.1 0-.1 0 0 0-.1 0-.1 0 0-.1-.1-.1-.1 0 0-.1 0-.1 0 0 0zm-.1-.1c.1 0 .1-.1 0 0 .1-.1.1-.1 0 0v-.1h-.2s.1 0 .2.1c-.1-.1-.1-.1 0 0-.1-.1-.1-.1 0 0-.1-.1 0 0 0 0z"/><path d="M173.3 334.9c0 .1.1.1 0 0h0zm.3-.1c-.1-.1-.1 0-.1 0s0 .1.1 0c0 .1 0 .1 0 0zm3.1 3.6h0c0-.1 0-.1-.1-.1v-.4h-.1v.7l.3.3c.1 0 .1 0 .1.1v.2s0 .1.1.1v.1-.1c.1 0 .1-.1.1-.1s0-.1-.1-.1v-.1s0-.1-.1-.1h-.2v-.1l-.2-.2c.2-.1.2-.1.2-.2zm4.1-.7s0-.1 0 0c0-.1 0-.1 0 0 0-.1 0-.1-.1-.1h-.2v.1h-.1v.2h.1l.1-.1.2-.1z"/><path d="M181.3 337.2h0s-.1 0 0 0h-.3v.1s0 .1.1.1h.1s.1 0 .1-.1v-.1c0 .1 0 .1 0 0zm-18-3.9h0v.1s.1-.1.2-.1h.2v.1-1l.1-.1v-.3h.1l-.2-.2h-.2s.1 0 0-.1v-.1l-.1-.1h-.1s0-.1-.1-.1h.2v-.2h.4v-.1s0-.1-.1-.1h0-.1c-.1 0-.1-.1-.1-.1h0v-.1l-.1-.1v-.1.7l-.1.1v.1h-.2s0 .1-.1.1c0 0-.1 0-.1.1v.3s-.1 0-.2.1h-.3v.3s0 .1-.1.1l-.1-.1h-.1v-.1l-.1.1v.9s.1 0 .1-.1v.1h.2v.2h.1c.9-.3.9-.3.9-.2 0-.1 0-.1 0 0zm.9-3.5h0c0 .1 0 .1 0 0 0 .1 0 .1 0 0 0 .1 0 .1 0 0 .1.1.1.1.1 0 0 .1 0 0-.1 0h0zm.2 0h0v.1c.1 0 .1 0 0-.1h0zm-.3-.6l-.1.1v-.1c.1 0 .1 0 .1-.1v-.1l-.2.2c.3-.1.3-.1.2 0 .1-.1.1-.1 0 0 .1-.1.1-.1 0 0zm.6-.7h0s0-.1 0 0c0-.1 0-.1 0 0v-.1h.1v-.1h-.1v.2c0-.1 0-.1 0 0 0-.1 0-.1 0 0 0-.1-.1 0 0 0zm.4-.6c0-.1 0-.1 0 0l-.1-.1h-.2v.4h.1l.1-.1c.1-.1.1-.2.1-.2zm.3.4c-.1 0-.1-.1 0 0h0c-.1 0-.1 0 0 0-.1 0-.1 0 0 0l-.1.1v.4h.1v.1-.1.4h.1s0 .1.1.1h.1v-.7s-.1 0-.1.1v.1h-.1v-.2h-.1c.1-.3 0-.3 0-.3zm.6.5h0c-.1 0-.2.1-.2.1h0v.1h.2s.1-.1 0-.2h0zm.6 1.3c0-.1 0-.1 0 0 .1-.1 0-.2.1-.2h0v-.7h-.2v-.1.4h-.1v.3h-.1l-.1.1v.1h-.1l-.1.1v.1-.1.1-.2l.1.1v.3h.1v.1h.1v.1-.1c.2-.3.2-.3.3-.4-.1 0-.1 0 0 0l-.1-.1v-.1.1l.1.1c-.1 0 0 0 0 0z"/><path d="M166.2 328.9c0-.1 0-.1 0 0 0-.1 0-.1 0 0l.1-.1c0-.1 0-.1-.1-.1h0v-.1h-.1v.2h.1v.2c-.1-.2-.1-.2 0-.1-.1-.1-.1 0 0 0zm-.3-.7h0c.1.1.2.1.2.1v.1l.1.1h.2s0-.1-.1-.1v-.2h-.2c-.2-.1-.2-.1-.2 0zm-.9-2c-.1 0-.1.1-.1.1h0-.3v.7s-.1 0-.1.1v.1l.1.1v.2s.1 0 .1.1v.1l.1-.1v.2h.2v-.1h.2l.1.1v-.1l-.1-.1s.1 0 .1.1v.1h.1v.1h-.2v.2l.1-.1h.1v-.3h-.2c0-.1-.1-.1-.1-.1h-.3v-.3h.1s.1 0 .1-.1v-.2s.1-.1 0-.2h0-.1v-.3c.2-.2.2-.3.1-.3h0z"/><path d="M165.3 327.7s-.1 0 0 0h0-.1v.1c.1 0 .1 0 .1-.1 0 .1 0 .1 0 0zm.6 0v-.1h-.1v.2l.1-.1c-.1.1-.1.1 0 0 0 .1 0 .1 0 0zm-.5.5h0c.1-.1.1-.1 0 0 0-.1 0-.1 0 0zm-.1-.2v.1-.1zm-1.4 1.6h0c.1-.1.1-.1 0 0 .1-.1 0-.1 0 0zm1.5.5c.1 0 .1-.1 0 0 .1-.1 0-.1 0-.1 0-.1 0 0 0 .1 0-.1 0 0 0 0zm-.3.1h0zm.2 0h0zm-.2.1c0 .1 0 .1 0 0 0 .1 0 .1 0 0zm-.2.1s-.1 0 0 0c-.1.1 0 .1 0 .1s.1 0 0-.1h0zm-.2.2s0 .1 0 0c0 .1 0 0 0 0s0-.1 0 0c0-.1 0 0 0 0zm.3-.5c0-.1 0-.1 0 0 0-.1-.1-.1 0 0-.1 0 0 0 0 0zm1.8.5s-.1.1 0 0v.2-.2c0 .1 0 0 0 0z"/><use xlink:href="#N"/><path d="M166.4 330.5c-.1 0-.1 0 0 0-.1 0-.1.1 0 0 0 .1 0 0 0 0zm0 .2c.1-.1 0-.1 0-.1-.1 0-.1 0 0 .1-.1 0-.1 0 0 0zm.1.3s0-.1 0 0c-.1-.1-.1 0-.1 0s0 .1.1 0c0 .1 0 0 0 0zm1.8-10h0zm-1.8 1.4c.1-.1 0-.1 0-.1-.1 0-.1 0 0 .1-.1 0-.1 0 0 0zm-3 3.1s0-.1 0 0c0-.1-.1 0 0 0-.1 0 0 0 0 0zm.7-.9s0 .1 0 0v.3s.1 0 .1-.1v-.1l.1-.1v-.7h-.1l-.1.1v.6zm1.5-3c-.1.1 0 .1 0 .1s.1 0 0-.1h0zm.3-.3s-.1 0 0 0h-.1.1c-.1 0 0 0 0 0zm.1.7h0c.1 0 0-.1 0 0 0-.1 0 0 0 0zm.4-1.5c-.1-.1-.1 0-.1 0s0 .1.1 0c0 .1 0 .1 0 0zm2.2-2.4v.1-.1zm.7-1.2h0zm0-.1h0c.1-.1 0-.1 0 0 0-.1 0-.1 0 0zm-.1-.9s0 .1 0 0c0 .1 0 0 0 0zm-2.3 1.7s-.1 0 0 0c-.1 0-.1 0 0 0-.1 0-.1 0 0 0-.1 0 0 0 0 0zm0 .1s0 .1 0 0c.1.1.1 0 0 0h0zm.6 2.3c0-.1 0-.1 0 0-.1-.1-.1-.1-.1 0h.1z"/><path d="M168.2 321.1s0-.1 0 0c.1-.1.1-.1 0 0l.1-.1v.3h.1v-1.1l-.2-.2s0-.1-.1-.1h-.1v-.2s0-.1-.1-.1h-.1v.7s-.1 0-.1.1h0v.1h-.1v-.1h-.1v.2l-.1.1v.2h-.6s0 .1-.1.1h0l-.1.1v.1s-.1 0-.1.1h-.1.1l.1.1v-.1.3h.1v.1-.7h-.1.4v.1-.1.1s0 .1.1.1h.1v-.1h-.1.3v.1c.7-.2.7-.2.8-.1-.1-.1-.1-.1 0 0-.1-.1-.1-.1 0 0-.1-.1-.1 0 0 0-.1 0-.1 0 0 0-.1 0 0 0 0 0zm.1-1.3c0 .1 0 .1 0 0h0c0 .1 0 .1 0 0 0 .1 0 .1 0 0 0 .1 0 .1 0 0h0c0 .1 0 .1 0 0 0 .1 0 .1 0 0z"/><path d="M167.2 321.3v-.1h-.2v.2h.2v-.3c-.1.4 0 .4 0 .2-.1.1-.1.1 0 0 0 .1 0 .1 0 0zm1.2-3.2s-.1 0 0 0c-.1 0-.1 0 0 0-.1 0-.1-.1-.1-.1v-.1l-.1.1h-.7v.1l.1.1v.2h-.1v.4s.1 0 .1-.1h0-.1.1l.1.1h.4v-.2h.1v-.1h-.1c.4-.3.4-.3.3-.4 0 .1 0 .1 0 0 0 .1 0 .1 0 0 0 .1 0 .1 0 0z"/><path d="M168.6 317.8s0 .1 0 0c0 .1 0 .1 0 0 0 .1-.1.1 0 0l-.1.1v.1l.1-.1v-.1c0 .1 0 .1 0 0v.1c.1 0 .1 0 0-.1h.1v-.1h-.1v-.1.2z"/><path d="M169 317.4s0 .1 0 0h0c0 .1 0 .1 0 0v.1c.1.1.1 0 0-.1h0c.1.1.1.1 0 0 .1.1.1 0 .1 0h0-.1zm.3-.3h0s0 .1 0 0c0 .1-.1.1 0 .1h0c.1 0 .1 0 0-.1h0z"/><path d="M169.4 316.4h0c.1.1.1.1 0 0v.1-.1c.1.1.1.1 0 0 .1.1.1 0 0 0h0c.1-.1.1-.1 0 0h0v-.1.1c0-.1 0 0 0 0zm3.9 23.6s-.1 0 0 0c-.1 0-.1 0 0 0l-.1.1-.1-.1v-.4c-.1 0-.1-.1-.1-.1h0v-.1s0-.1-.1-.1v-.6c0-.1-.1-.1-.1-.2h0-.3s-.1 0-.2-.1l-.1-.1h-.2s.1 0 .1-.1v-.9h.1l-.1-.1c-.1-.1-.2-.1-.2-.2h-.1v-1.4l-.1.1c-.1.1-.1.2-.1.3v.1l-.1.1c-.1 0-.1.1-.1.2l-.1.1v.3c0 .1-.1.1 0 .1h.1c-.1.1-.1.1 0 .2v.1l-.1.1v.1s0 .1-.1.2c0 .1-.1.1-.1.1l-.1.1v.1l-.1.1h-.2l-.1-.1h-.1c0-.1 0-.2-.1-.2h-.2l-.1-.1s0-.1-.1-.1h-.2v-.1s0-.1-.1-.1c0 0 0-.1-.1-.1s-.1 0-.1-.1l.2-.2v-.2s0-.1.1-.1h.1v-.3h-.4v-.1.1h-.4v.4h-.1c0 .1 0 .1-.1.1v.1h.1l-.1.1h-.4v.1-.1h-.1l-.1-.1v.7h-.2v.1-.1.2l-.2.2c-.1 0-.1.1-.1.1v.2l-.2.2s-.1 0-.1.1-.2.2-.2.2-.1.1-.2.1h-.3l-.1.1h-.2l-.1.1h-.2c-.1 0-.3.1-.3.2s-.1.1-.1.1h-.2v.2l-.1.1v-.2l-.1.1s-.1.1 0 .1v.2l-.1.1s-.1 0-.1.1v.5s.1 0 .1.1v.2h-.1v-.2h-.1v.2h-.1v-.1c0-.1 0-.1-.1-.1v.9s0 .1.1.1v1.5l-.2.2h.1s0 .1.1.1h0l.3.1h.3c.1 0 .1-.1.1-.1h.1l.1-.1h.9c.1 0 .1 0 .1-.1v-.1s0-.1.1-.1h.2c.1-.1.2-.1.3-.1h.5c.1 0 .2-.1.3-.1s.1-.1.2-.1h.9v.1l.1.1h.2v.2l.1.1-.1.1v.1s.1 0 .1.1v.1h-.1v.1c0 .1.1.2.1.2v-.1l.1-.1c.1 0 .1-.1.2-.1 0 0 .1 0 .1-.1l.1-.1c.1-.1.1-.2.2-.2h0v.3h-.1s-.1 0-.1.1v.1c0 .1-.1.2-.1.2h-.3c-.1 0-.1.1-.1.1h.2l.1-.1c0-.1.1-.2.1-.2v.2c0 .1-.1.1-.1.2h-.2v-.1h.1v.2s0 .1-.1.1v.3h.1v-.1.1l.1.1h.7v.1-.1h.3l.1-.1h.6l.2-.2c0-.1.1-.1.1-.1l.1-.1s0-.1.1-.1v-.1l.1-.1c.1 0 .1-.1.1-.1h.1l.7-.7h.1c.1 0 .1-.1.2-.1v-.1s0-.1.1-.1l.1-.1c.1 0 .1-.1.1-.1v-.1c0-.1 0-.1.1-.1v-.1s0-.1.1-.1c0 0 0-.1.1-.1 0 0 .1 0 .1-.1 0 0 .1 0 .1-.1v-.5c.1-.1.1-.2.1-.3h0v-.1l.1-.1-1.3-1z"/><path d="M169.4 336.5c0-.1 0-.1-.1-.1h0v.2h.2c-.1.1-.1.1-.1-.1 0 .1 0 .1 0 0 0 .1 0 .1 0 0-.1.1-.1.1 0 0-.1.1 0 .1 0 0 0 .1 0 .1 0 0zm-1.8-.6h.2l.1-.1-.1-.1h-.2s0 .1-.1.1c.1 0 0 .1.1.1-.1 0-.1 0 0 0zm-4.5 2.8c-.1 0-.1 0 0 0v.1-.1zm.9-.4h0c.1 0 .1-.1 0 0 .1-.1 0 0 0 0zm1.7-2.8s0-.1 0 0h-.1.1zm-.4-.1c0 .1 0 .1 0 0 0 .1.1.1 0 0h0zm3.4 9.5h0c.1 0 .1-.1.1-.1v-.1s-.1 0-.1.1h0v.1zm.9.2c-.1 0-.1 0 0 0h-.6s-.1 0-.1.1v.7h.2v-.2l.1-.1v-.1h.1v.1-.2l.2-.2c.2 0 .2-.1.1-.1h0zm.2-.3c0-.1 0-.1 0 0 0-.1 0-.1 0 0-.1 0-.1 0-.1.1v.3h.1v-.4zm3.6 2.2s-.1.1 0 0h-.1c0 .1 0 .1.1 0-.1.1 0 .1 0 0 0 .1 0 .1 0 0 0 .1 0 .1 0 0 0 .1 0 0 0 0z"/><path d="M173.4 347h0zm-.3-.2c0 .1 0 .1 0 0 .1.1.1.1 0 0h0z"/><path d="M178.2 344.1c-.1 0-.1 0 0 0-.1 0-.1 0 0 0h-.5v-.2l-.1.1h-.1c.1 0 .1-.1.1-.1v-.4h-.1v-.1h-.1v1.2s0 .1-.1.2h-.1l-.1.1c0 .1-.1.1-.1.1h-.3l-.1.1v.2h.1v.1h-.1s-.1 0-.1.1h-.2s-.1 0-.1.1h0-.1v-.1l.1-.1-.2.2s-.1 0-.1.1l-.1.1h-.1l-.1.1c-.1.1-.1.1-.2.1h-.1s-.1.1-.2.1h-.1c-.1 0-.1 0-.2.1-.1 0-.1.1-.2.1h-.5l-.1.1h-.1l-.1.1h-.1l-.2.2s-.1 0-.1.1c-.1 0-.1 0-.1.1l-.1.1h.2s0-.1.1-.1c0 0 .1 0 .1-.1h.3l.1-.1h.2c.1 0 .1-.1.1-.1v-.1s.1 0 .1-.1h.3l.1-.1h.1c.1 0 .1-.1.1-.1h.1s.1 0 .1-.1h.1s.1 0 .1-.1l.1-.1v-.1l.1-.1h.5s.1 0 .1-.1l.1-.1s.1 0 .1-.1c.1 0 .1-.1.2-.1l.1-.1s.1 0 .1-.1h0v-.2h.2l.1-.1v-.2l.1-.1c1-.3 1-.4 1-.4zm-10.6-34h0l.1.1h.4v-.1h-.4l-.1.1v-.1c0-.1 0-.1 0 0 0-.1 0-.1 0 0zm-8-1.2h0c0 .1 0 .1 0 0 0 .1 0 .1 0 0l.1.1h.3c-.3-.1-.3-.1-.4-.1h0zm-.3.4h-.2v.1h.3c0-.1 0-.1-.1-.1h0z"/><path d="M159.1 309.3v-.1.1s0 .1.1.1c-.2-.1-.2-.1-.1-.1-.1 0-.1 0 0 0-.1.1-.1.1 0 0 0 .1 0 .1 0 0zm-.9 0c-.1 0-.1 0 0 0-.1 0-.1 0 0 0-.1 0-.1 0 0 0-.1 0-.1 0 0 0h-.2v.1c.1-.1.1 0 .2-.1-.1.1-.1.1 0 0-.1 0 0 0 0 0 0 .1 0 .1 0 0v.1-.1z"/><path d="M157.5 308.9c0 .1 0 .1 0 0 0 .1 0 .1 0 0 .1.1.1.1 0 0 .1.1.2.1.2.1h0v-.1h-.2zm.3 0s.1.1 0 0l.1.1h.2l.1.1h.2v.1h-.2v.1h-.5l.1-.4c0-.1 0-.1 0 0h0zm1.7-.2h.1c0-.1-.1-.1-.1 0h0zm1 .1h0v-.1.1zm-12.4-.9c0 .1.1.1 0 0l.2.1h1.4v-.1c0-.1-.1-.1-.1-.1s0-.1-.1 0h-.2s-.1 0-.1.1h0-1.1c0-.1 0-.1 0 0zm2 .4c0 .1 0 .1 0 0 0 .1 0 .1 0 0l.1.1h.6l-.1-.1h-.6l-.1.1v.1l.1-.2zm-.5.4h0c.1-.1.1-.1 0 0 .1-.1 0-.1 0 0zm.3-.1h-.1.1zm-.1.1c0-.1 0-.1 0 0 0-.1 0-.1 0 0z"/><path d="M149.8 308.7h.1c.1-.1 0-.1-.1 0 .1-.1 0-.1 0 0zm.3 0h0c.1-.1.1-.1 0 0 0-.1-.1-.1 0 0-.1 0 0 0 0 0zm1.2-.4h0c.1-.1.1-.1 0 0 0-.1 0-.1 0 0zm.1 0h0zm.4.2h0zm-3.4.1h.1c0-.1 0-.1-.1 0 0-.1 0-.1 0 0zm.2-.1h-.1.1zm.4-.2h0zm-1.2-.6h.2c0-.1-.2-.1-.2 0 0-.1-.2-.1-.2 0h.2z"/><use xlink:href="#N" x="-19.3" y="-21.4"/><path d="M147.5 308.9h0c.1-.1.1-.1 0 0 0-.1-.1-.1 0 0-.1 0 0 0 0 0zm0 .2c.1 0 .1-.1 0 0 .1-.2-.1-.2 0 0-.1-.1 0 0 0 0zm-.4.1h0z"/><use xlink:href="#N" x="-20" y="-20.8"/><path d="M146.8 309.5h.1c0-.1 0-.1-.1 0 0-.1-.1-.1-.1 0h.1zm-.3.1h0c-.1 0-.1 0 0 0-.1 0-.1 0 0 0zm1.3-.3h0zm.1 0h0z"/><use xlink:href="#N" x="-18.2" y="-21"/><path d="M147.1 308.5h0c.1-.1 0-.1 0-.1v.1zm-1.1-.7c.1 0 .1 0 .1-.1l-.1-.1c-.1 0-.1 0-.1.1-.1 0 0 .1.1.1zm-.3.3h.1s-.1-.1-.1 0c0-.1-.1-.1-.1 0s.1 0 .1 0zm-2.2.6s-.1 0 0 0c-.1 0-.1 0 0 0-.1 0-.1 0 0 0-.1.1-.1.1 0 0l-.1.1h-.1l-.2.2h-.2v.1s-.1 0-.1.1h0-.1l-.1.1h-.1v.2h.4v.1h.3v-.1h-.3l-.1-.1v-.1h.1v-.1h.5c.2-.5.2-.5.1-.5h0zm-1.8 2h0l.1.1h.1v-.1h-.2v.1-.1c0-.1 0-.1 0 0 0-.1 0-.1 0 0 0-.1 0-.1 0 0zm-.4-2.8h.3l.1-.1h.5v.1-.1h-.3l-.1.1h-.1c-.3-.1-.3-.1-.4 0 .1-.1.1-.1 0 0 0-.1 0-.1 0 0 0-.1 0-.1 0 0 0-.1 0-.1 0 0 0-.1 0-.1 0 0 0-.1 0-.1 0 0-.1-.1-.1-.1 0 0-.1 0 0 0 0 0zm1.5-.3h0c-.1-.1 0-.1 0 0h0zm-2.9.2h.3s-.1 0-.1.1h.3c.1 0 .1.1.1.1h.2s0-.1-.1-.1h-.2l-.5-.1c.1-.1.1-.1 0 0zm1.6-.1s.1-.1 0 0c.1-.1 0-.1 0 0 0-.1 0-.1 0 0 0-.1 0 0 0 0zm-5.5 6.2h0c0-.1.1-.1 0 0 .1-.1.1-.1 0 0 .1-.1.1-.1 0 0l.1-.1c-.1-.1-.1 0-.1.1-.1-.1-.1-.1 0 0-.1-.1-.1-.1 0 0-.1-.1-.1-.1 0 0l-.1-.1c.1.2.1.2.1.1zm-1 .8h.1c0-.1 0-.1-.1 0 .1-.1.1-.1 0 0 .1-.1.1-.1 0 0 .1-.1.1-.1 0 0 .1-.1.1-.1 0-.1h0v.1c0-.1 0-.1 0 0 0-.1 0-.1 0 0 0-.1 0-.1 0 0 0-.1 0 0 0 0z"/></g><path d="M173.6 317.3c-.1 0-.3-.1-.3-.2 0-.2.1-.3.2-.4l7.6-1.8c.2 0 .3.1.4.2 0 .2-.1.3-.2.4l-7.7 1.8c0-.1 0 0 0 0zm-23.9 18.4c-.2 0-.3-.2-.3-.4l1.1-4.4c0-.2.2-.3.4-.2.2 0 .3.2.2.4l-1.1 4.4c0 .1-.1.2-.3.2zm3.8 9.1c-.1 0-.2-.1-.3-.2-.1-.2 0-.3.2-.4l5.3-2.4c.2-.1.3 0 .4.2s0 .3-.2.4l-5.3 2.4c0-.1 0 0-.1 0zm27.2-13.9l-6.7-.6c-.2 0-.3-.2-.3-.3 0-.2.2-.3.3-.3l6.7.6c.2 0 .3.2.3.3 0 .2-.1.3-.3.3zm-83.3 10.2c-.1 0-.3-.1-.3-.2 0-.2.1-.3.2-.4l6.8-1.9c.2 0 .3.1.4.2 0 .2-.1.3-.2.4l-6.9 1.9zm-1.2-7c-.1 0-.1 0-.2-.1s-.2-.3 0-.4l4.2-5.1c.1-.1.3-.2.4 0 .1.1.2.3 0 .4l-4.2 5.1c0 .1-.1.1-.2.1zm22.3-6.6c-.1 0-.1 0-.2-.1l-3.9-3.2c-.1-.1-.2-.3 0-.4.1-.1.3-.2.4 0l3.9 3.2c.1.1.2.3 0 .4 0 .1-.1.1-.2.1zm7.7 13.2c-.1 0-.1 0-.2-.1s-.1-.3 0-.4l4.3-5c.1-.1.3-.1.4 0s.1.3 0 .4l-4.3 5c-.1 0-.1.1-.2.1zm-34.4-26.9c-.1 0-.1 0 0 0l-5.1-.8c-.2 0-.3-.2-.3-.4s.2-.3.4-.3l5 .8c.2 0 .3.2.3.4-.1.2-.2.3-.3.3z" fill="#fceee3"/><g class="Ah"><use xlink:href="#O"/><use xlink:href="#O" x="-0.4" y="16.8"/><use xlink:href="#O" x="-37.7" y="31.9"/><path d="M95.5 342c0 1.1-.9 2-2 2s-2-.9-2-2 .9-2 2-2c1.1-.1 2 .9 2 2zm30.2-11.3c0 1.1-.9 2-2 2s-2-.9-2-2 .9-2 2-2c1.1-.1 2 .9 2 2z"/><use xlink:href="#O" x="-62.5" y="29.8"/><use xlink:href="#O" x="-37.1" y="25.6"/><use xlink:href="#O" x="-92.2" y="21.5"/><use xlink:href="#O" x="-101.3" y="-1.5"/></g><path d="M98.1 325.1h-2.8l-.4-1.2H92l-.4 1.2h-2.8l3.1-8.4H95l3.1 8.4zm-4.7-6l-.9 3h1.8l-.9-3z" fill="#e0454a"/><path d="M178.9 335.1c1.3 0 2.3.9 2.3 2.1s-.6 1.7-1.4 1.9h0c.9.2 1.6.8 1.6 2.1s-1.1 2.2-2.4 2.2h-5.7V335h5.6zM176 337v1.4h1.9c.4 0 .6-.3.6-.7v-.1c0-.4-.3-.6-.6-.6H176zm0 3.1v1.4h2c.4 0 .6-.3.6-.7v-.1c0-.4-.3-.7-.6-.7h-2z" class="Ab"/><path d="M102.5 297.2c-3.6 0-6.5 3-6.6 6.8 0 3.1 4.3 9.1 5.8 11.2a.65.65 0 0 0 1.1 0c1.6-2 6.1-7.9 6.1-11 0-3.8-2.8-6.9-6.4-7zm-.1 9.6c-1.8 0-3.2-1.5-3.1-3.4 0-1.8 1.5-3.3 3.2-3.3 1.8 0 3.2 1.5 3.1 3.4 0 1.9-1.4 3.4-3.2 3.3zm2.7 12.4a2.7 2.7 0 1 1-5.4 0 2.7 2.7 0 1 1 5.4 0z" fill="#e0454a"/><path d="M167.4 317.4c-3.6 0-6.5 3-6.6 6.8 0 3.1 4.3 9.1 5.8 11.2a.65.65 0 0 0 1.1 0c1.6-2 6.1-7.9 6.1-11 .1-3.8-2.8-6.9-6.4-7zm0 9.7c-1.8 0-3.2-1.5-3.1-3.4 0-1.8 1.5-3.3 3.2-3.3 1.8 0 3.2 1.5 3.1 3.4 0 1.9-1.5 3.3-3.2 3.3zm2.6 12.4a2.7 2.7 0 1 1-5.4 0 2.7 2.7 0 1 1 5.4 0z" class="Ab"/><path d="M105.6 316c-.2 0-.3-.1-.4-.2-.2-.2-.2-.6 0-.9l1.4-1.3c.3-.2.6-.2.9.1.2.3.2.6-.1.9-.9.7-1.3 1.2-1.3 1.2-.2.1-.3.2-.5.2zm54.8 17.8c-.2 0-.4-.1-.5-.2-.7-.9-1.4-1.9-2-2.9-.2-.3-.1-.7.2-.8.3-.2.7-.1.8.2.6 1 1.3 1.9 2 2.8.2.3.2.6-.1.9-.1-.1-.2 0-.4 0zm-3.8-5.8a.55.55 0 0 1-.5-.3l-1.5-2.9-.1-.3c-.1-.3 0-.7.3-.8s.7 0 .8.3l.1.3 1.4 2.8c.2.3.1.7-.2.8-.1.1-.2.1-.3.1zm-3-6.2a.55.55 0 0 1-.5-.3l-1.6-3c-.2-.3-.1-.7.2-.8.3-.2.7-.1.8.2l1.7 3.1c.2.3 0 .7-.3.8-.2-.1-.2 0-.3 0zm-3.5-6.1a.55.55 0 0 1-.5-.3c-.7-1-1.4-1.9-2.1-2.7-.2-.3-.2-.6.1-.9.3-.2.6-.2.9.1.7.8 1.4 1.8 2.1 2.8.2.3.1.7-.2.8-.1.2-.2.2-.3.2zm-40.4-3a.55.55 0 0 1-.5-.3c-.2-.3-.1-.7.2-.8l3-1.8c.3-.2.7-.1.8.2.2.3.1.7-.2.8-1 .5-2 1.1-2.9 1.8-.1.1-.2.1-.4.1zm35.8-2.2c-.1 0-.3 0-.4-.1-.9-.8-1.8-1.4-2.7-2-.3-.2-.4-.5-.2-.8s.5-.4.8-.2c1 .6 2 1.3 2.9 2.1.3.2.3.6.1.9-.1.1-.3.1-.5.1zm-29.7-1.1c-.2 0-.5-.1-.6-.4s0-.7.3-.8c1.1-.5 2.2-.9 3.3-1.3.3-.1.7.1.8.4s-.1.7-.4.8l-3.2 1.2c0 .1-.1.1-.2.1zm6.6-2.2c-.3 0-.5-.2-.6-.5s.1-.7.4-.7c1.1-.3 2.3-.5 3.5-.7.3 0 .6.2.7.5s-.2.6-.5.7l-3.4.7h-.1zm17.2-.1h-.2c-1-.4-2.1-.6-3.3-.8-.3 0-.6-.3-.5-.7 0-.3.4-.6.7-.5 1.2.2 2.4.4 3.5.8.3.1.5.5.4.8-.1.2-.4.4-.6.4zm-10.3-1c-.3 0-.6-.2-.6-.6 0-.3.2-.6.6-.6.9-.1 1.8-.1 2.8-.1h.8a.65.65 0 0 1 .6.6.65.65 0 0 1-.6.6h-.7c-1.1.1-2 .1-2.9.1zm34.8 31.6c-.1 0-.3 0-.4-.1 0 0-.6-.4-1.4-1.3-.2-.2-.2-.6 0-.9.2-.2.6-.2.9 0l1.3 1.2c.3.2.3.6.1.9-.2.1-.3.2-.5.2z"/><path d="M144 298.1l-8-.3-4.9-2.6c-.8-.5-3.2-.4-2.6.3.4.5 1.4 1.3 2.4 2.1l-3.5-.1-2.8-2.3h-2.7l3.6 6.2h22.6c-.5-1.6-2.1-2.7-4.1-3.3z" fill="#f3f7f8"/><radialGradient id="H" cx="137.36" cy="324.742" r="60.233" gradientUnits="userSpaceOnUse"><stop offset="0" stop-color="#ffc9bd"/><stop offset=".154" stop-color="#e6b2ad"/><stop offset=".553" stop-color="#a87b87"/><stop offset=".847" stop-color="#82596f"/><stop offset="1" stop-color="#734c66"/></radialGradient><path d="M193.9 287.4l-116.8-1.6c-1.6 0-2.9 1.3-2.8 2.9l2.9 64.1c.1 1.5 1.4 2.7 2.9 2.7h45.6l-1 10.7-.3 3H115c-.5 0-.8.4-.8.8v2.6c0 .5.4.8.8.8h40.9c.5 0 .8-.4.8-.8V370c0-.5-.4-.8-.8-.8h-9.4l-1.3-13.7h45.7c1.5 0 2.7-1.2 2.8-2.6l2.9-62.6c.1-1.6-1.1-2.9-2.7-2.9z" fill="url(#H)" class="AU"/><path d="M116.2 373.5l1.1-24.3-31.3-.5-2.6 1.1.8 23.7z" class="AV"/><path d="M88.8 373.5v-9.4c-1.5.5-3.1.7-4.9.8l.2 8.6h4.7z" class="AX Ag"/><path d="M118.8 373.5l1.2-24.3-34-.5.8 24.8z" class="AW"/><path d="M98.9 348.9v8.2h8.6v-8zm8.6 24.6v-5.6l-8.6-.1v5.7z" class="AY"/><g class="Ad"><path d="M118.8 373.5L86 348.7v.9l31.1 23.9z"/><path d="M88.4 373.5l31.5-23.1.1-1.2-33.2 24.3z"/></g><path d="M87.9 360.5H97v4.2h-9.1z" class="AZ"/><g class="Aa"><path d="M88.4 361.1h.5v3.1h-.5z"/><use xlink:href="#P"/><use xlink:href="#P" x="0.4"/><use xlink:href="#P" x="0.8"/><path d="M89.9 361.1h.3v3.1h-.3z"/><use xlink:href="#P" x="1.5"/><use xlink:href="#P" x="1.9"/><path d="M91 361.1h.3v3.1H91z"/><use xlink:href="#P" x="2.7"/><use xlink:href="#P" x="3"/><use xlink:href="#P" x="3.4"/><path d="M92.5 361.1h.3v3.1h-.3zm.5 0h.2v3.1H93z"/><use xlink:href="#P" x="4.5"/><use xlink:href="#P" x="4.9"/><path d="M93.9 361.1h.4v3.1h-.4z"/><use xlink:href="#P" x="5.7"/><use xlink:href="#P" x="6.1"/><use xlink:href="#P" x="6.4"/><use xlink:href="#P" x="6.8"/><path d="M95.7 361.1h.5v3.1h-.5z"/><use xlink:href="#P" x="7.6"/></g><path d="M196.2 373.5l1.3-33.1-35.6-.8-3 1.5.9 32.4z" class="AV"/><path d="M165.1 373.5v-12.8c-1.7.6-3.5 1-5.6 1l.3 11.7h5.3z" class="AX Ag"/><path d="M199.2 373.5l1.3-33.1-38.6-.8.9 33.9z" class="AW"/><path d="M176.5 339.9V351h9.8v-10.9zm9.8 33.6v-7.6l-9.8-.2v7.8z" class="AY"/><g class="Ad"><path d="M199.2 373.5l-37.3-33.9v1.2l35.4 32.7z"/><path d="M164.6 373.5l35.8-31.6.1-1.5-37.7 33.1z"/></g><path d="M164 355.7h10.4v5.8H164z" class="AZ"/><g class="Aa"><path d="M164.6 356.5h.5v4.3h-.5z"/><use xlink:href="#Q"/><use xlink:href="#Q" x="0.4"/><use xlink:href="#Q" x="0.8"/><path d="M166.4 356.5h.3v4.3h-.3z"/><use xlink:href="#Q" x="1.7"/><use xlink:href="#Q" x="2.1"/><path d="M167.6 356.5h.4v4.3h-.4z"/><use xlink:href="#Q" x="3"/><use xlink:href="#Q" x="3.4"/><use xlink:href="#Q" x="3.8"/><path d="M169.3 356.5h.4v4.3h-.4z"/><use xlink:href="#Q" x="4.7"/><use xlink:href="#Q" x="5.1"/><use xlink:href="#Q" x="5.6"/><path d="M170.8 356.5h.4v4.3h-.4z"/><use xlink:href="#Q" x="6.4"/><use xlink:href="#Q" x="6.8"/><use xlink:href="#Q" x="7.3"/><use xlink:href="#Q" x="7.7"/><path d="M172.9 356.5h.5v4.3h-.5z"/><use xlink:href="#Q" x="8.6"/></g><g fill="#0a3351"><path d="M282.5 119v-17.9h-93.6v2.5H280V119z"/><path d="M276.1 118.8c0 2.9 2.3 5.2 5.2 5.2s5.2-2.3 5.2-5.2-2.3-5.2-5.2-5.2-5.2 2.3-5.2 5.2zm-87-11.3c-2.9 0-5.2-2.3-5.2-5.2s2.3-5.2 5.2-5.2 5.2 2.3 5.2 5.2-2.3 5.2-5.2 5.2zM384.7 178h-22.3v-2.5h19.8v-63.1h2.5z"/><path d="M378.3 112.6c0-2.9 2.3-5.2 5.2-5.2s5.2 2.3 5.2 5.2-2.3 5.2-5.2 5.2-5.2-2.3-5.2-5.2zm-15.6 58.9c-2.9 0-5.2 2.3-5.2 5.2s2.3 5.2 5.2 5.2 5.2-2.3 5.2-5.2c0-2.8-2.4-5.2-5.2-5.2zM238.2 340.1H224v-2.5h11.7v-79h2.5z"/><path d="M231.8 258.9c0-2.9 2.3-5.2 5.2-5.2s5.2 2.3 5.2 5.2-2.3 5.2-5.2 5.2-5.2-2.3-5.2-5.2zm-7.6 74.8c-2.9 0-5.2 2.3-5.2 5.2s2.3 5.2 5.2 5.2 5.2-2.3 5.2-5.2-2.3-5.2-5.2-5.2zM431 227.6h-2.5v-23.8h-54.3v-2.5H431z"/><path d="M374.5 207.7c-2.9 0-5.2-2.3-5.2-5.2s2.3-5.2 5.2-5.2 5.2 2.3 5.2 5.2-2.3 5.2-5.2 5.2zm50 19.6c0 2.9 2.3 5.2 5.2 5.2s5.2-2.3 5.2-5.2-2.3-5.2-5.2-5.2-5.2 2.4-5.2 5.2z"/></g><defs ><path id="J" d="M253.7 169.7h.6v10.1h-.6z"/><path id="K" d="M370.4 96.2c-1.2 2.4-3.7 3.6-5.6 2.6-1.9-.9-2.4-3.6-1.2-6s3.7-3.6 5.6-2.6c1.9.9 2.4 3.6 1.2 6z"/><path id="L" d="M367.2 95.4c-1.3-.7-1.8-2.4-1.3-4.1-.6.4-1.2 1-1.6 1.8-1 1.9-.5 4.1 1 4.9s3.6-.2 4.5-2.1l.3-.8c-.9.6-2 .8-2.9.3z"/><path id="M" d="M394 322.9h-.2l.1-2.9h.2z"/><path id="N" d="M166.7 330.3c0-.1 0-.1 0 0-.1-.1-.1-.1 0 0-.1 0-.1 0 0 0z"/><path id="O" d="M187 314.2c0 1.1-.9 2-2 2s-2-.9-2-2 .9-2 2-2 2 .9 2 2z"/><path id="P" d="M88.8 361.1h.2v3.1h-.2z"/><path id="Q" d="M165.1 356.5h.2v4.3h-.2z"/></defs></svg>