<svg width="2560" height="740" viewBox="0 0 2560 740" xmlns="http://www.w3.org/2000/svg">
    <path opacity=".65" fill="#e1f0fb" d="M2560 0H0v644.9c351 37.6 346.2 88.3 543.8 88.3 135.6 0 271.7-58.1 465.5-97.1 132.6 45.5 246.6 112.6 378.4 99.1 96.9-9.9 200.1-33.6 298.6-58.6 62.4 18 122.1 35.3 179.1 46.8 183.7 36.9 326.6-26.8 421.4-57.8 29.8-9.7 62.3-17 94.6-22.2 64.2 15.6 124.9 32.1 178.6 44.5V0z"/>
    <path fill="#e1f0fb" d="M411.8 654.4c180.9 0 252.2-57.7 385.1-57.7 78.1 0 147.5 17.1 212.4 39.4 65.5-13.2 137.6-24.2 218.4-30 168-12.1 320.2 30.7 458.6 70.5 151.2-38.4 291.2-79.9 379.7-79.9 104.8 0 214.4 22.2 315.4 46.7 72.7-11.7 144-12.7 178.5-6.5V0H0v629.8c146-42.9 263 24.6 411.8 24.6z"/>
</svg>
