<svg id="Layer_1" data-name="Layer 1" xmlns="http://www.w3.org/2000/svg" xmlns:xlink="http://www.w3.org/1999/xlink" viewBox="0 0 524 416"><defs><style>.cls-1,.cls-32,.cls-34{fill:none;}.cls-12,.cls-2{fill:#fcb716;}.cls-13,.cls-18,.cls-19,.cls-2,.cls-20,.cls-5,.cls-6{fill-rule:evenodd;}.cls-3{fill:#e0454a;}.cls-4{fill:#134e7a;}.cls-5{fill:#e2e2e2;}.cls-6{fill:#21285f;opacity:0.11;}.cls-7{fill:#fcf7ed;}.cls-21,.cls-8{fill:#f1f3ff;}.cls-9{fill:#78a9ce;}.cls-10{clip-path:url(#clip-path);}.cls-11{fill:#e2e8f7;}.cls-13,.cls-22,.cls-23,.cls-24,.cls-27{fill:#1766a9;}.cls-14{opacity:0.42;}.cls-15{fill:#606060;}.cls-16{fill:#8b98fd;}.cls-17{clip-path:url(#clip-path-2);}.cls-18{fill:#7482fd;}.cls-19{fill:#4e5cca;}.cls-20{fill:#ec5e56;}.cls-21{font-size:12.66px;font-family:Montserrat-SemiBold, Montserrat;}.cls-21,.cls-22,.cls-23{font-weight:700;}.cls-22{font-size:18.63px;}.cls-22,.cls-23{font-family:Poppins-SemiBold, Poppins;}.cls-23,.cls-24,.cls-28{font-size:12px;}.cls-24,.cls-26,.cls-27,.cls-28,.cls-29,.cls-30,.cls-33{font-family:Poppins-Regular, Poppins;}.cls-25{font-family:Poppins-Medium, Poppins;}.cls-27{font-size:8.89px;}.cls-28,.cls-29,.cls-30,.cls-31,.cls-33{fill:#fff;}.cls-29{font-size:8.63px;}.cls-30{font-size:12.18px;}.cls-32{stroke:#1766a9;}.cls-32,.cls-34{stroke-miterlimit:10;}.cls-33{font-size:7.38px;}.cls-34{stroke:#fcb716;}</style><clipPath id="clip-path"><rect class="cls-1" x="194.16" y="281.73" width="148.34" height="39.39"/></clipPath><clipPath id="clip-path-2"><rect class="cls-1" x="312.24" y="106.94" width="67.61" height="43.72"/></clipPath></defs><title>Customized options</title><path class="cls-2" d="M488,244.17v16.6a10,10,0,0,1-10,10H388.5a10,10,0,0,1-10-10v-16.6Z"/><path class="cls-3" d="M390.92,223a6.19,6.19,0,0,0-6.1,6.26c0,2.89,3.95,8.46,5.37,10.35a.63.63,0,0,0,1,0c1.47-1.84,5.61-7.3,5.65-10.19A6.19,6.19,0,0,0,390.92,223Zm-.05,8.92a3.06,3.06,0,1,1,3-3A3,3,0,0,1,390.87,231.92Z"/><path class="cls-3" d="M393.32,243.36a2.49,2.49,0,1,1-2.49-2.48A2.48,2.48,0,0,1,393.32,243.36Z"/><path class="cls-3" d="M473.25,228.8a4,4,0,0,0-4,4.07c0,1.87,2.56,5.5,3.48,6.72a.41.41,0,0,0,.65,0c1-1.2,3.65-4.75,3.68-6.62A4,4,0,0,0,473.25,228.8Zm0,5.79a2,2,0,1,1,1.94-2A1.95,1.95,0,0,1,473.22,234.59Z"/><path class="cls-3" d="M474.81,242a1.62,1.62,0,1,1-3.23,0,1.62,1.62,0,0,1,3.23,0Z"/><rect class="cls-4" x="151.49" y="370.62" width="234.47" height="5.36"/><rect class="cls-4" x="174.86" y="217.75" width="187.72" height="117.63"/><polygon class="cls-5" points="385.95 370.63 151.49 370.63 174.94 335.38 362.5 335.38 385.95 370.63"/><path class="cls-6" d="M353.63,341.79h4.66L361.1,346h-7.47ZM308.26,346h43.07v-4.25H308.26Zm-11.87,0H306v-4.25h-9.56Zm-11.86,0h9.56v-4.25h-9.56Zm-11.87,0h9.56v-4.25h-9.56Zm-11.87,0h9.56v-4.25h-9.56Zm-12.52,0h10.21v-4.25H248.27Zm-11.87,0H246v-4.25H236.4Zm-11.86,0h9.56v-4.25h-9.56Zm-11.87,0h9.56v-4.25h-9.56Zm-2.31-4.25V346H178l2.81-4.25Zm143.27,6.31h8.84l3.34,5.06H353.63Zm-45.37,5.06h43.07V348.1H308.26Zm-11.87,0H306V348.1h-9.56Zm-11.86,0h9.56V348.1h-9.56Zm-11.87,0h9.56V348.1h-9.56Zm-11.87,0h9.56V348.1h-9.56Zm-12.52,0h10.21V348.1H248.27Zm-11.87,0H246V348.1H236.4Zm-11.86,0h9.56V348.1h-9.56Zm-11.87,0h9.56V348.1h-9.56Zm-2.31-5.06v5.06H173.29l3.34-5.06Zm97.9,8.11h59.56l4.92,7.45H308.26Zm-11.87,7.45H306v-7.45h-9.56Zm-11.86,0h9.56v-7.45h-9.56Zm-11.87,0h9.56v-7.45h-9.56Zm-11.87,0h9.56v-7.45h-9.56Zm-2.31-7.45v7.45H166.36l4.92-7.45Z"/><rect class="cls-7" x="182.27" y="226.2" width="172.89" height="101.24"/><rect class="cls-8" x="194.16" y="281.73" width="148.34" height="39.39"/><rect class="cls-9" x="194.16" y="281.73" width="148.34" height="4.39"/><g class="cls-10"><rect class="cls-11" x="201.15" y="292.22" width="38.99" height="32.59"/><rect class="cls-11" x="244.92" y="292.22" width="50.71" height="13.4"/><rect class="cls-11" x="244.92" y="309.32" width="50.71" height="18.12"/><rect class="cls-11" x="300.13" y="292.22" width="34.51" height="34.51"/></g><path class="cls-12" d="M169.1,84.26H39.53a9.15,9.15,0,0,0-9.15,9.15V249.64a9.15,9.15,0,0,0,9.15,9.15H150.25v-1H39.53a8.15,8.15,0,0,1-8.15-8.15V93.41a8.15,8.15,0,0,1,8.15-8.15H169.1a8.16,8.16,0,0,1,8.15,8.15V201.25h1V93.41A9.16,9.16,0,0,0,169.1,84.26Z"/><rect class="cls-8" x="36.56" y="91.14" width="135.43" height="161.29" rx="5.01" ry="5.01"/><path class="cls-13" d="M103.69,101.72a17.1,17.1,0,1,1-17.09,17.1A17.11,17.11,0,0,1,103.69,101.72Z"/><path class="cls-13" d="M67.77,171.57a36.05,36.05,0,0,1,71.84,0,161.75,161.75,0,0,1-35.92,3.88A161.75,161.75,0,0,1,67.77,171.57Z"/><g class="cls-14"><rect class="cls-15" x="61.18" y="184.31" width="85.03" height="1.82"/><rect class="cls-15" x="61.18" y="193.7" width="85.03" height="1.82"/></g><path class="cls-2" d="M131.55,278.43l9.06-3.05A35.7,35.7,0,0,0,138,263.82L128.48,265c-.22-.41-.44-.82-.68-1.21s-.41-.67-.63-1H82.45c-.22.33-.43.66-.63,1s-.46.8-.68,1.21l-9.49-1.18A35.7,35.7,0,0,0,69,275.38l9.06,3.05a26.74,26.74,0,0,0,2.24,9.77l-6.85,6.69a35.83,35.83,0,0,0,7.39,9.27l8-5.19a26.74,26.74,0,0,0,9,4.35l.95,9.52a35.77,35.77,0,0,0,11.86,0l1-9.52a26.78,26.78,0,0,0,9-4.35l8,5.19a35.83,35.83,0,0,0,7.39-9.27l-6.84-6.69A26.73,26.73,0,0,0,131.55,278.43Zm-26.74,12.94a13.9,13.9,0,0,1-2.45-27.58,13.14,13.14,0,0,1,2.45-.22,13.32,13.32,0,0,1,2.46.22,13.9,13.9,0,0,1-2.46,27.58Z"/><path class="cls-2" d="M399.94,124.77c0-27.6-23.42-50-52.27-50s-52.27,22.41-52.27,50a49.2,49.2,0,0,0,18.93,38.53l-1.28,21.81,18.55-12.74a54.57,54.57,0,0,0,16.07,2.42C376.52,174.79,399.94,152.38,399.94,124.77Z"/><rect class="cls-16" x="312.24" y="106.94" width="67.61" height="43.72"/><g class="cls-17"><polygon class="cls-18" points="346.07 130.61 310.5 152.03 381.64 152.03 346.07 130.61"/><polygon class="cls-19" points="346.07 133.89 381.64 105.67 310.5 105.67 346.07 133.89"/></g><path class="cls-20" d="M366.93,94.38a9.73,9.73,0,1,1-9.72,9.73A9.73,9.73,0,0,1,366.93,94.38Z"/><text class="cls-21" transform="translate(364.55 108.4)">1</text><path class="cls-13" d="M212.65,94.13a7.42,7.42,0,0,1,7.42-7.41h48.58a7.41,7.41,0,0,1,7.41,7.41v21.65a7.42,7.42,0,0,1-7.41,7.42l5.17,7.64L257,123.2H220.07a7.42,7.42,0,0,1-7.42-7.42Z"/><path class="cls-2" d="M232.68,109.67a2.87,2.87,0,1,1-2.86,2.87A2.87,2.87,0,0,1,232.68,109.67Z"/><path class="cls-2" d="M243.66,109.67a2.87,2.87,0,1,1-2.87,2.87A2.87,2.87,0,0,1,243.66,109.67Z"/><path class="cls-2" d="M254.63,109.67a2.87,2.87,0,1,1-2.86,2.87A2.87,2.87,0,0,1,254.63,109.67Z"/><path class="cls-2" d="M210.35,67a2.87,2.87,0,1,1-2.87,2.87A2.88,2.88,0,0,1,210.35,67Z"/><path class="cls-2" d="M221.33,67a2.87,2.87,0,1,1-2.87,2.87A2.87,2.87,0,0,1,221.33,67Z"/><path class="cls-2" d="M232.3,67a2.87,2.87,0,1,1-2.87,2.87A2.88,2.88,0,0,1,232.3,67Z"/><path class="cls-13" d="M200.65,149.52a9.81,9.81,0,0,1,9.81-9.8H274.7a9.8,9.8,0,0,1,9.8,9.8v28.63a9.8,9.8,0,0,1-9.8,9.8l6.83,10.11L259.32,188H210.46a9.81,9.81,0,0,1-9.81-9.8Z"/><path class="cls-2" d="M223.68,168.24a5,5,0,1,1-5,5A5,5,0,0,1,223.68,168.24Z"/><path class="cls-2" d="M243,168.24a5,5,0,1,1-5,5A5,5,0,0,1,243,168.24Z"/><path class="cls-2" d="M262.26,168.24a5,5,0,1,1-5,5A5,5,0,0,1,262.26,168.24Z"/><path class="cls-13" d="M276.22,49.47v23a7.87,7.87,0,0,1-7.87,7.87H190.73l-.09,0h-9.76l0,0h-5.5a7.87,7.87,0,0,1-7.87-7.87v-23a7.87,7.87,0,0,1,7.87-7.87h92.94A7.87,7.87,0,0,1,276.22,49.47Z"/><text class="cls-22" transform="translate(214.58 252.64)">Customized<tspan x="18.46" y="17">Options</tspan></text><text class="cls-23" transform="translate(55.74 218)">Customize your <tspan x="26.3" y="14.4">options</tspan></text><text class="cls-24" transform="translate(288.58 49.5)">Customize <tspan class="cls-25" x="66.67" y="0">Multi</tspan><tspan class="cls-25"><tspan x="11.41" y="14.4">SMS</tspan><tspan class="cls-26" x="36.49" y="14.4" xml:space="preserve"> options</tspan></tspan></text><text class="cls-24" transform="translate(383.8 189.17)">Cost Accordiing<tspan class="cls-25"><tspan x="21.16" y="14.4">Distance</tspan></tspan></text><text class="cls-27" transform="translate(394.15 293.24)">Estimated Cost : ?</text><text class="cls-28" transform="translate(183.66 58)">Organization</text><text class="cls-29" transform="translate(223.25 102.53)">Merchant</text><text class="cls-30" transform="translate(215.95 157.36)">Receiver</text><circle class="cls-31" cx="201.75" cy="70.25" r="2.5"/><circle class="cls-31" cx="215.38" cy="70.25" r="2.5"/><circle class="cls-31" cx="229" cy="70.25" r="2.5"/><circle class="cls-31" cx="242.63" cy="70.25" r="2.5"/><rect class="cls-32" x="375" y="216" width="116.5" height="57.5" rx="10" ry="10"/><polyline class="cls-32" points="389.67 247.95 414.17 247.95 425.79 255.36 452.4 255.36 443.85 250.18 483.17 250.18 472.8 244.64"/><path class="cls-13" d="M503.36,213.82c.79-7.72-5.12-14.66-13.2-15.49s-15.26,4.78-16.05,12.5a13.83,13.83,0,0,0,4.19,11.32l-1,6.07,5.55-3a15.38,15.38,0,0,0,4.43,1.14C495.37,227.15,502.57,221.55,503.36,213.82Z"/><text class="cls-33" transform="translate(479.81 210.47)">4 km<tspan x="-1.08" y="7.02">away</tspan></text><rect class="cls-34" x="380.5" y="279.75" width="104.25" height="21" rx="5.25" ry="5.25"/></svg>