<svg width="524" height="416" viewBox="0 0 524 416" fill="none" xmlns="http://www.w3.org/2000/svg">
<path fill-rule="evenodd" clip-rule="evenodd" d="M488 244.17V260.77C488 263.422 486.946 265.966 485.071 267.841C483.196 269.716 480.652 270.77 478 270.77H388.5C385.848 270.77 383.304 269.716 381.429 267.841C379.554 265.966 378.5 263.422 378.5 260.77V244.17H488Z" fill="#FCB716"/>
<path d="M390.92 223C389.282 223.024 387.72 223.696 386.576 224.869C385.433 226.043 384.801 227.622 384.82 229.26C384.82 232.15 388.77 237.72 390.19 239.61C390.249 239.687 390.325 239.749 390.411 239.792C390.498 239.834 390.593 239.857 390.69 239.857C390.787 239.857 390.882 239.834 390.969 239.792C391.055 239.749 391.131 239.687 391.19 239.61C392.66 237.77 396.8 232.31 396.84 229.42C396.902 227.785 396.315 226.191 395.205 224.988C394.096 223.785 392.555 223.07 390.92 223ZM390.87 231.92C390.26 231.932 389.66 231.761 389.148 231.429C388.635 231.098 388.234 230.621 387.995 230.059C387.756 229.497 387.69 228.877 387.807 228.278C387.923 227.679 388.215 227.128 388.647 226.697C389.078 226.265 389.629 225.973 390.228 225.857C390.827 225.74 391.447 225.806 392.009 226.045C392.571 226.284 393.048 226.685 393.379 227.198C393.711 227.71 393.882 228.31 393.87 228.92C393.87 229.716 393.554 230.479 392.991 231.041C392.429 231.604 391.666 231.92 390.87 231.92V231.92Z" fill="#E0454A"/>
<path d="M393.32 243.36C393.322 243.853 393.178 244.335 392.905 244.746C392.633 245.157 392.245 245.478 391.79 245.668C391.335 245.858 390.834 245.908 390.35 245.813C389.867 245.718 389.422 245.482 389.073 245.134C388.724 244.786 388.486 244.343 388.389 243.859C388.292 243.376 388.34 242.875 388.529 242.419C388.717 241.964 389.036 241.574 389.446 241.3C389.855 241.026 390.337 240.88 390.83 240.88C391.157 240.879 391.48 240.942 391.782 241.066C392.084 241.19 392.359 241.372 392.59 241.603C392.821 241.833 393.005 242.107 393.13 242.409C393.256 242.71 393.32 243.033 393.32 243.36Z" fill="#E0454A"/>
<path d="M473.25 228.8C472.719 228.8 472.193 228.906 471.703 229.111C471.213 229.316 470.769 229.617 470.397 229.996C470.024 230.375 469.731 230.824 469.534 231.318C469.337 231.811 469.241 232.339 469.25 232.87C469.25 234.74 471.81 238.37 472.73 239.59C472.768 239.64 472.818 239.68 472.874 239.708C472.93 239.736 472.992 239.75 473.055 239.75C473.118 239.75 473.18 239.736 473.236 239.708C473.292 239.68 473.342 239.64 473.38 239.59C474.38 238.39 477.03 234.84 477.06 232.97C477.106 231.912 476.731 230.879 476.017 230.098C475.303 229.316 474.308 228.849 473.25 228.8ZM473.25 234.59C472.852 234.602 472.46 234.495 472.123 234.283C471.786 234.07 471.521 233.762 471.36 233.398C471.199 233.034 471.151 232.63 471.221 232.238C471.292 231.846 471.477 231.484 471.754 231.198C472.032 230.913 472.388 230.716 472.777 230.634C473.167 230.552 473.572 230.588 473.941 230.737C474.31 230.887 474.626 231.143 474.848 231.473C475.071 231.803 475.19 232.192 475.19 232.59C475.197 232.852 475.151 233.113 475.054 233.356C474.958 233.6 474.814 233.822 474.63 234.009C474.446 234.195 474.226 234.343 473.984 234.443C473.742 234.543 473.482 234.593 473.22 234.59H473.25Z" fill="#E0454A"/>
<path d="M474.81 242C474.828 242.223 474.799 242.447 474.726 242.658C474.652 242.869 474.536 243.063 474.385 243.227C474.233 243.391 474.049 243.522 473.844 243.611C473.64 243.701 473.418 243.747 473.195 243.747C472.972 243.747 472.75 243.701 472.546 243.611C472.341 243.522 472.157 243.391 472.005 243.227C471.854 243.063 471.738 242.869 471.664 242.658C471.591 242.447 471.562 242.223 471.58 242C471.612 241.594 471.796 241.214 472.095 240.938C472.395 240.661 472.787 240.507 473.195 240.507C473.603 240.507 473.995 240.661 474.295 240.938C474.594 241.214 474.778 241.594 474.81 242V242Z" fill="#E0454A"/>
<path d="M385.96 370.62H151.49V375.98H385.96V370.62Z" fill="#134E7A"/>
<path d="M362.58 217.75H174.86V335.38H362.58V217.75Z" fill="#134E7A"/>
<path fill-rule="evenodd" clip-rule="evenodd" d="M385.95 370.63H151.49L174.94 335.38H362.5L385.95 370.63Z" fill="#E2E2E2"/>
<path opacity="0.11" fill-rule="evenodd" clip-rule="evenodd" d="M353.63 341.79H358.29L361.1 346H353.63V341.79ZM308.26 346H351.33V341.75H308.26V346ZM296.39 346H306V341.75H296.44L296.39 346ZM284.53 346H294.09V341.75H284.53V346ZM272.66 346H282.22V341.75H272.66V346ZM260.79 346H270.35V341.75H260.79V346ZM248.27 346H258.48V341.75H248.27V346ZM236.4 346H246V341.75H236.4V346ZM224.54 346H234.1V341.75H224.54V346ZM212.67 346H222.23V341.75H212.67V346ZM210.36 341.75V346H178L180.81 341.75H210.36ZM353.63 348.06H362.47L365.81 353.12H353.63V348.06ZM308.26 353.12H351.33V348.1H308.26V353.12ZM296.39 353.12H306V348.1H296.44L296.39 353.12ZM284.53 353.12H294.09V348.1H284.53V353.12ZM272.66 353.12H282.22V348.1H272.66V353.12ZM260.79 353.12H270.35V348.1H260.79V353.12ZM248.27 353.12H258.48V348.1H248.27V353.12ZM236.4 353.12H246V348.1H236.4V353.12ZM224.54 353.12H234.1V348.1H224.54V353.12ZM212.67 353.12H222.23V348.1H212.67V353.12ZM210.36 348.06V353.12H173.29L176.63 348.06H210.36ZM308.26 356.17H367.82L372.74 363.62H308.26V356.17ZM296.39 363.62H306V356.17H296.44L296.39 363.62ZM284.53 363.62H294.09V356.17H284.53V363.62ZM272.66 363.62H282.22V356.17H272.66V363.62ZM260.79 363.62H270.35V356.17H260.79V363.62ZM258.48 356.17V363.62H166.36L171.28 356.17H258.48Z" fill="#21285F"/>
<path d="M355.16 226.2H182.27V327.44H355.16V226.2Z" fill="#FCF7ED"/>
<path d="M342.5 281.73H194.16V321.12H342.5V281.73Z" fill="#F1F3FF"/>
<path d="M342.5 281.73H194.16V286.12H342.5V281.73Z" fill="#78A9CE"/>
<path d="M240.14 292.22H201.15V324.81H240.14V292.22Z" fill="#E2E8F7"/>
<path d="M295.63 292.22H244.92V305.62H295.63V292.22Z" fill="#E2E8F7"/>
<path d="M295.63 309.32H244.92V327.44H295.63V309.32Z" fill="#E2E8F7"/>
<path d="M334.64 292.22H300.13V326.73H334.64V292.22Z" fill="#E2E8F7"/>
<path d="M169.1 84.26H39.53C37.1033 84.26 34.7759 85.224 33.06 86.94C31.344 88.6559 30.38 90.9833 30.38 93.41V249.64C30.38 252.067 31.344 254.394 33.06 256.11C34.7759 257.826 37.1033 258.79 39.53 258.79H150.25V257.79H39.53C37.3685 257.79 35.2955 256.931 33.7671 255.403C32.2387 253.875 31.38 251.802 31.38 249.64V93.41C31.38 91.2485 32.2387 89.1755 33.7671 87.6471C35.2955 86.1187 37.3685 85.26 39.53 85.26H169.1C171.261 85.2627 173.332 86.1222 174.86 87.65C176.388 89.1779 177.247 91.2493 177.25 93.41V201.25H178.25V93.41C178.247 90.9841 177.282 88.6583 175.567 86.9429C173.852 85.2275 171.526 84.2627 169.1 84.26Z" fill="#FCB716"/>
<path d="M166.98 91.14H41.57C38.8031 91.14 36.56 93.3831 36.56 96.15V247.42C36.56 250.187 38.8031 252.43 41.57 252.43H166.98C169.747 252.43 171.99 250.187 171.99 247.42V96.15C171.99 93.3831 169.747 91.14 166.98 91.14Z" fill="#F1F3FF"/>
<path fill-rule="evenodd" clip-rule="evenodd" d="M103.69 101.72C107.072 101.718 110.38 102.719 113.193 104.597C116.006 106.475 118.2 109.145 119.495 112.269C120.791 115.394 121.131 118.832 120.473 122.15C119.814 125.468 118.186 128.516 115.795 130.908C113.404 133.3 110.357 134.93 107.04 135.591C103.722 136.251 100.284 135.913 97.1584 134.619C94.0332 133.325 91.362 131.134 89.4826 128.321C87.6032 125.509 86.6 122.202 86.6 118.82C86.6026 114.287 88.4037 109.941 91.6079 106.735C94.812 103.529 99.1573 101.725 103.69 101.72V101.72Z" fill="#1766A9"/>
<path fill-rule="evenodd" clip-rule="evenodd" d="M67.77 171.57C68.5363 162.571 72.6525 154.187 79.3042 148.078C85.9559 141.969 94.6585 138.579 103.69 138.579C112.722 138.579 121.424 141.969 128.076 148.078C134.727 154.187 138.844 162.571 139.61 171.57C127.819 174.201 115.771 175.502 103.69 175.45C91.6093 175.502 79.5609 174.201 67.77 171.57V171.57Z" fill="#1766A9"/>
<g opacity="0.42">
<path opacity="0.42" d="M146.21 184.31H61.18V186.13H146.21V184.31Z" fill="#606060"/>
<path opacity="0.42" d="M146.21 193.7H61.18V195.52H146.21V193.7Z" fill="#606060"/>
</g>
<path fill-rule="evenodd" clip-rule="evenodd" d="M131.55 278.43L140.61 275.38C140.39 271.408 139.508 267.501 138 263.82L128.48 265C128.26 264.59 128.04 264.18 127.8 263.79C127.56 263.4 127.39 263.12 127.17 262.79H82.45C82.23 263.12 82.02 263.45 81.82 263.79C81.62 264.13 81.36 264.59 81.14 265L71.65 263.82C70.1283 267.499 69.2326 271.406 69 275.38L78.06 278.43C78.1842 281.799 78.9442 285.114 80.3 288.2L73.45 294.89C75.3815 298.369 77.879 301.502 80.84 304.16L88.84 298.97C91.5399 300.973 94.5932 302.449 97.84 303.32L98.79 312.84C102.716 313.5 106.724 313.5 110.65 312.84L111.65 303.32C114.896 302.448 117.95 300.972 120.65 298.97L128.65 304.16C131.611 301.502 134.108 298.369 136.04 294.89L129.2 288.2C130.594 285.121 131.391 281.806 131.55 278.43ZM104.81 291.37C101.339 291.367 97.9942 290.065 95.4345 287.72C92.8747 285.375 91.2849 282.158 90.9777 278.7C90.6706 275.242 91.6683 271.795 93.7747 269.036C95.8811 266.276 98.9436 264.405 102.36 263.79C103.168 263.64 103.988 263.567 104.81 263.57C105.635 263.567 106.459 263.641 107.27 263.79C110.687 264.405 113.75 266.277 115.857 269.038C117.963 271.798 118.96 275.246 118.652 278.705C118.343 282.163 116.752 285.381 114.19 287.725C111.628 290.069 108.282 291.369 104.81 291.37V291.37Z" fill="#FCB716"/>
<path fill-rule="evenodd" clip-rule="evenodd" d="M399.94 124.77C399.94 97.17 376.52 74.77 347.67 74.77C318.82 74.77 295.4 97.18 295.4 124.77C295.439 132.205 297.162 139.535 300.441 146.209C303.72 152.882 308.468 158.726 314.33 163.3L313.05 185.11L331.6 172.37C336.806 173.974 342.223 174.79 347.67 174.79C376.52 174.79 399.94 152.38 399.94 124.77Z" fill="#FCB716"/>
<path d="M379.85 106.94H312.24V150.66H379.85V106.94Z" fill="#8B98FD"/>
<path fill-rule="evenodd" clip-rule="evenodd" d="M346.07 130.61L310.5 152.03H381.64L346.07 130.61Z" fill="#7482FD"/>
<path fill-rule="evenodd" clip-rule="evenodd" d="M346.07 133.89L381.64 105.67H310.5L346.07 133.89Z" fill="#4E5CCA"/>
<path fill-rule="evenodd" clip-rule="evenodd" d="M366.93 94.38C368.855 94.378 370.737 94.947 372.338 96.015C373.94 97.0829 375.189 98.6018 375.926 100.38C376.664 102.157 376.859 104.114 376.484 106.002C376.11 107.89 375.184 109.625 373.824 110.987C372.463 112.348 370.73 113.276 368.842 113.652C366.954 114.029 364.997 113.836 363.219 113.1C361.44 112.364 359.92 111.117 358.85 109.517C357.781 107.916 357.21 106.035 357.21 104.11C357.21 101.531 358.234 99.0578 360.056 97.2334C361.879 95.409 364.351 94.3827 366.93 94.38V94.38Z" fill="#EC5E56"/>
<path d="M368.171 98.878V107.74H366.525V100.258H364.651V98.878H368.171Z" fill="#F1F3FF"/>
<path fill-rule="evenodd" clip-rule="evenodd" d="M212.65 94.13C212.653 92.1638 213.436 90.2791 214.827 88.8897C216.218 87.5004 218.104 86.72 220.07 86.72H268.65C270.615 86.72 272.5 87.5007 273.89 88.8903C275.279 90.28 276.06 92.1647 276.06 94.13V115.78C276.06 117.746 275.28 119.632 273.89 121.023C272.501 122.414 270.616 123.197 268.65 123.2L273.82 130.84L257 123.2H220.07C218.102 123.2 216.215 122.418 214.823 121.027C213.432 119.635 212.65 117.748 212.65 115.78V94.13Z" fill="#1766A9"/>
<path fill-rule="evenodd" clip-rule="evenodd" d="M232.68 109.67C233.248 109.668 233.804 109.835 234.277 110.149C234.75 110.463 235.12 110.911 235.339 111.435C235.557 111.959 235.616 112.536 235.506 113.094C235.396 113.651 235.124 114.163 234.723 114.566C234.322 114.968 233.811 115.243 233.254 115.354C232.697 115.466 232.119 115.409 231.594 115.192C231.069 114.976 230.62 114.608 230.304 114.136C229.989 113.663 229.82 113.108 229.82 112.54C229.82 111.781 230.121 111.052 230.657 110.514C231.193 109.976 231.921 109.673 232.68 109.67V109.67Z" fill="#FCB716"/>
<path fill-rule="evenodd" clip-rule="evenodd" d="M243.66 109.67C244.228 109.67 244.783 109.838 245.254 110.154C245.726 110.469 246.094 110.917 246.312 111.442C246.529 111.966 246.586 112.543 246.475 113.1C246.364 113.657 246.091 114.168 245.689 114.569C245.288 114.971 244.777 115.244 244.22 115.355C243.663 115.466 243.086 115.409 242.562 115.192C242.037 114.974 241.589 114.606 241.274 114.134C240.958 113.663 240.79 113.108 240.79 112.54C240.79 111.779 241.092 111.049 241.631 110.511C242.169 109.972 242.899 109.67 243.66 109.67V109.67Z" fill="#FCB716"/>
<path fill-rule="evenodd" clip-rule="evenodd" d="M254.63 109.67C255.198 109.668 255.754 109.835 256.227 110.149C256.7 110.463 257.07 110.911 257.289 111.435C257.507 111.959 257.566 112.536 257.456 113.094C257.346 113.651 257.074 114.163 256.673 114.566C256.272 114.968 255.761 115.243 255.204 115.354C254.647 115.466 254.069 115.409 253.544 115.192C253.019 114.976 252.57 114.608 252.254 114.136C251.939 113.663 251.77 113.108 251.77 112.54C251.77 111.781 252.071 111.052 252.607 110.514C253.143 109.976 253.871 109.673 254.63 109.67V109.67Z" fill="#FCB716"/>
<path fill-rule="evenodd" clip-rule="evenodd" d="M210.35 67C210.918 67 211.473 67.1683 211.944 67.4837C212.416 67.799 212.784 68.2473 213.002 68.7717C213.219 69.2961 213.276 69.8732 213.165 70.4299C213.054 70.9866 212.781 71.498 212.379 71.8994C211.978 72.3008 211.467 72.5741 210.91 72.6849C210.353 72.7956 209.776 72.7388 209.252 72.5215C208.727 72.3043 208.279 71.9365 207.964 71.4645C207.648 70.9925 207.48 70.4376 207.48 69.87C207.483 69.1096 207.786 68.3812 208.324 67.8435C208.861 67.3059 209.59 67.0026 210.35 67V67Z" fill="#FCB716"/>
<path fill-rule="evenodd" clip-rule="evenodd" d="M221.33 67C221.898 67 222.453 67.1683 222.924 67.4837C223.396 67.799 223.764 68.2473 223.982 68.7717C224.199 69.2961 224.256 69.8732 224.145 70.4299C224.034 70.9866 223.761 71.498 223.359 71.8994C222.958 72.3008 222.447 72.5741 221.89 72.6849C221.333 72.7956 220.756 72.7388 220.232 72.5215C219.707 72.3043 219.259 71.9365 218.944 71.4645C218.628 70.9925 218.46 70.4376 218.46 69.87C218.46 69.4931 218.534 69.1199 218.678 68.7717C218.823 68.4235 219.034 68.1071 219.301 67.8406C219.567 67.5741 219.884 67.3627 220.232 67.2185C220.58 67.0742 220.953 67 221.33 67V67Z" fill="#FCB716"/>
<path fill-rule="evenodd" clip-rule="evenodd" d="M232.3 67C232.868 67 233.423 67.1683 233.894 67.4837C234.366 67.799 234.734 68.2473 234.952 68.7717C235.169 69.2961 235.226 69.8732 235.115 70.4299C235.004 70.9866 234.731 71.498 234.329 71.8994C233.928 72.3008 233.417 72.5741 232.86 72.6849C232.303 72.7956 231.726 72.7388 231.202 72.5215C230.677 72.3043 230.229 71.9365 229.914 71.4645C229.598 70.9925 229.43 70.4376 229.43 69.87C229.433 69.1096 229.736 68.3812 230.274 67.8435C230.811 67.3059 231.54 67.0026 232.3 67Z" fill="#FCB716"/>
<path fill-rule="evenodd" clip-rule="evenodd" d="M200.65 149.52C200.653 146.92 201.687 144.427 203.527 142.59C205.366 140.752 207.86 139.72 210.46 139.72H274.7C277.299 139.72 279.792 140.752 281.63 142.59C283.467 144.428 284.5 146.921 284.5 149.52V178.15C284.5 180.749 283.467 183.242 281.63 185.08C279.792 186.918 277.299 187.95 274.7 187.95L281.53 198.06L259.32 188H210.46C207.86 188 205.366 186.968 203.527 185.13C201.687 183.293 200.653 180.8 200.65 178.2V149.52Z" fill="#1766A9"/>
<path fill-rule="evenodd" clip-rule="evenodd" d="M223.68 168.24C224.669 168.24 225.636 168.533 226.458 169.083C227.28 169.632 227.921 170.413 228.299 171.327C228.678 172.24 228.777 173.246 228.584 174.215C228.391 175.185 227.915 176.076 227.216 176.776C226.516 177.475 225.625 177.951 224.655 178.144C223.686 178.337 222.68 178.238 221.767 177.859C220.853 177.481 220.072 176.84 219.523 176.018C218.973 175.196 218.68 174.229 218.68 173.24C218.68 171.914 219.207 170.642 220.144 169.704C221.082 168.767 222.354 168.24 223.68 168.24V168.24Z" fill="#FCB716"/>
<path fill-rule="evenodd" clip-rule="evenodd" d="M243 168.24C243.989 168.24 244.956 168.533 245.778 169.083C246.6 169.632 247.241 170.413 247.619 171.327C247.998 172.24 248.097 173.246 247.904 174.215C247.711 175.185 247.235 176.076 246.536 176.776C245.836 177.475 244.945 177.951 243.975 178.144C243.006 178.337 242 178.238 241.087 177.859C240.173 177.481 239.392 176.84 238.843 176.018C238.293 175.196 238 174.229 238 173.24C238 171.914 238.527 170.642 239.464 169.704C240.402 168.767 241.674 168.24 243 168.24V168.24Z" fill="#FCB716"/>
<path fill-rule="evenodd" clip-rule="evenodd" d="M262.26 168.24C263.249 168.24 264.216 168.533 265.038 169.083C265.86 169.632 266.501 170.413 266.879 171.327C267.258 172.24 267.357 173.246 267.164 174.215C266.971 175.185 266.495 176.076 265.796 176.776C265.096 177.475 264.205 177.951 263.235 178.144C262.266 178.337 261.26 178.238 260.347 177.859C259.433 177.481 258.652 176.84 258.103 176.018C257.553 175.196 257.26 174.229 257.26 173.24C257.26 171.914 257.787 170.642 258.724 169.704C259.662 168.767 260.934 168.24 262.26 168.24Z" fill="#FCB716"/>
<path fill-rule="evenodd" clip-rule="evenodd" d="M276.22 49.47V72.47C276.22 74.5573 275.391 76.559 273.915 78.0349C272.439 79.5108 270.437 80.34 268.35 80.34H190.73H190.64H180.88H175.38C173.293 80.34 171.291 79.5108 169.815 78.0349C168.339 76.559 167.51 74.5573 167.51 72.47V49.47C167.51 47.3828 168.339 45.381 169.815 43.9051C171.291 42.4292 173.293 41.6 175.38 41.6H268.32C269.356 41.5961 270.383 41.7967 271.341 42.1904C272.299 42.5842 273.17 43.1632 273.904 43.8944C274.638 44.6256 275.221 45.4945 275.618 46.4513C276.015 47.4081 276.22 48.434 276.22 49.47Z" fill="#1766A9"/>
<path d="M240.362 272.14C239.144 272.14 238.027 271.855 237.008 271.283C235.99 270.712 235.182 269.923 234.586 268.917C233.99 267.899 233.692 266.75 233.692 265.471C233.692 264.204 233.99 263.068 234.586 262.062C235.182 261.043 235.99 260.248 237.008 259.677C238.027 259.106 239.144 258.82 240.362 258.82C241.591 258.82 242.709 259.106 243.715 259.677C244.733 260.248 245.535 261.043 246.118 262.062C246.714 263.068 247.012 264.204 247.012 265.471C247.012 266.75 246.714 267.899 246.118 268.917C245.535 269.923 244.733 270.712 243.715 271.283C242.697 271.855 241.579 272.14 240.362 272.14ZM240.362 269.812C241.144 269.812 241.833 269.638 242.43 269.29C243.026 268.93 243.491 268.421 243.827 267.762C244.162 267.104 244.33 266.34 244.33 265.471C244.33 264.601 244.162 263.844 243.827 263.198C243.491 262.54 243.026 262.037 242.43 261.689C241.833 261.341 241.144 261.167 240.362 261.167C239.579 261.167 238.884 261.341 238.275 261.689C237.679 262.037 237.213 262.54 236.878 263.198C236.542 263.844 236.375 264.601 236.375 265.471C236.375 266.34 236.542 267.104 236.878 267.762C237.213 268.421 237.679 268.93 238.275 269.29C238.884 269.638 239.579 269.812 240.362 269.812ZM251.561 263.179C251.896 262.707 252.356 262.316 252.94 262.006C253.536 261.683 254.213 261.521 254.97 261.521C255.852 261.521 256.647 261.739 257.355 262.173C258.075 262.608 258.641 263.229 259.05 264.036C259.473 264.831 259.684 265.757 259.684 266.812C259.684 267.868 259.473 268.806 259.05 269.625C258.641 270.433 258.075 271.06 257.355 271.507C256.647 271.954 255.852 272.178 254.97 272.178C254.213 272.178 253.542 272.022 252.958 271.712C252.387 271.401 251.921 271.01 251.561 270.538V276.928H248.953V261.689H251.561V263.179ZM257.02 266.812C257.02 266.191 256.889 265.657 256.628 265.21C256.38 264.751 256.045 264.403 255.622 264.167C255.213 263.931 254.765 263.813 254.281 263.813C253.809 263.813 253.362 263.937 252.94 264.185C252.53 264.421 252.195 264.769 251.934 265.229C251.685 265.688 251.561 266.228 251.561 266.849C251.561 267.47 251.685 268.011 251.934 268.47C252.195 268.93 252.53 269.284 252.94 269.532C253.362 269.768 253.809 269.886 254.281 269.886C254.765 269.886 255.213 269.762 255.622 269.514C256.045 269.265 256.38 268.911 256.628 268.452C256.889 267.992 257.02 267.446 257.02 266.812ZM264.616 263.831V268.824C264.616 269.172 264.697 269.427 264.858 269.588C265.032 269.737 265.318 269.812 265.715 269.812H266.926V272.01H265.286C263.088 272.01 261.989 270.942 261.989 268.806V263.831H260.759V261.689H261.989V259.137H264.616V261.689H266.926V263.831H264.616ZM270.125 260.459C269.665 260.459 269.28 260.317 268.97 260.031C268.671 259.733 268.522 259.366 268.522 258.932C268.522 258.497 268.671 258.137 268.97 257.851C269.28 257.553 269.665 257.404 270.125 257.404C270.584 257.404 270.963 257.553 271.261 257.851C271.572 258.137 271.727 258.497 271.727 258.932C271.727 259.366 271.572 259.733 271.261 260.031C270.963 260.317 270.584 260.459 270.125 260.459ZM271.41 261.689V272.01H268.802V261.689H271.41ZM278.57 272.178C277.576 272.178 276.682 271.96 275.887 271.526C275.092 271.078 274.465 270.451 274.006 269.644C273.558 268.837 273.335 267.905 273.335 266.849C273.335 265.794 273.565 264.862 274.024 264.055C274.496 263.248 275.136 262.627 275.943 262.192C276.75 261.745 277.651 261.521 278.644 261.521C279.638 261.521 280.539 261.745 281.346 262.192C282.153 262.627 282.787 263.248 283.246 264.055C283.718 264.862 283.954 265.794 283.954 266.849C283.954 267.905 283.712 268.837 283.227 269.644C282.756 270.451 282.11 271.078 281.29 271.526C280.483 271.96 279.576 272.178 278.57 272.178ZM278.57 269.905C279.042 269.905 279.483 269.793 279.893 269.569C280.315 269.333 280.65 268.986 280.899 268.526C281.147 268.067 281.271 267.508 281.271 266.849C281.271 265.868 281.01 265.117 280.489 264.595C279.98 264.061 279.352 263.794 278.607 263.794C277.862 263.794 277.235 264.061 276.726 264.595C276.229 265.117 275.98 265.868 275.98 266.849C275.98 267.831 276.223 268.588 276.707 269.122C277.204 269.644 277.825 269.905 278.57 269.905ZM291.587 261.54C292.816 261.54 293.81 261.931 294.567 262.714C295.325 263.484 295.704 264.564 295.704 265.955V272.01H293.096V266.309C293.096 265.489 292.891 264.862 292.481 264.428C292.071 263.98 291.512 263.757 290.804 263.757C290.084 263.757 289.513 263.98 289.09 264.428C288.68 264.862 288.475 265.489 288.475 266.309V272.01H285.867V261.689H288.475V262.974C288.823 262.527 289.264 262.18 289.798 261.931C290.345 261.67 290.941 261.54 291.587 261.54ZM302.134 272.178C301.289 272.178 300.532 272.029 299.861 271.731C299.19 271.42 298.656 271.004 298.259 270.482C297.874 269.961 297.663 269.383 297.625 268.75H300.252C300.302 269.147 300.494 269.476 300.83 269.737C301.177 269.998 301.606 270.128 302.115 270.128C302.612 270.128 302.997 270.029 303.27 269.83C303.556 269.632 303.699 269.377 303.699 269.066C303.699 268.731 303.525 268.483 303.177 268.321C302.842 268.147 302.301 267.961 301.556 267.762C300.786 267.576 300.153 267.384 299.656 267.185C299.172 266.986 298.749 266.682 298.389 266.272C298.041 265.862 297.867 265.309 297.867 264.614C297.867 264.043 298.029 263.521 298.352 263.049C298.687 262.577 299.159 262.204 299.768 261.931C300.389 261.658 301.115 261.521 301.947 261.521C303.177 261.521 304.158 261.832 304.891 262.453C305.624 263.061 306.027 263.887 306.102 264.931H303.605C303.568 264.521 303.394 264.198 303.084 263.962C302.786 263.713 302.382 263.589 301.873 263.589C301.401 263.589 301.035 263.676 300.774 263.85C300.525 264.024 300.401 264.266 300.401 264.577C300.401 264.924 300.575 265.191 300.923 265.378C301.271 265.552 301.811 265.732 302.544 265.918C303.289 266.104 303.904 266.297 304.388 266.496C304.872 266.694 305.288 267.005 305.636 267.427C305.996 267.837 306.183 268.383 306.195 269.066C306.195 269.663 306.027 270.197 305.692 270.669C305.369 271.141 304.897 271.513 304.276 271.786C303.668 272.047 302.953 272.178 302.134 272.178Z" fill="#1766A9"/>
<path d="M85.82 233.508C85.18 233.508 84.604 233.368 84.092 233.088C83.58 232.8 83.176 232.396 82.88 231.876C82.592 231.356 82.448 230.756 82.448 230.076C82.448 229.396 82.596 228.796 82.892 228.276C83.196 227.756 83.608 227.356 84.128 227.076C84.648 226.788 85.228 226.644 85.868 226.644C86.508 226.644 87.088 226.788 87.608 227.076C88.128 227.356 88.536 227.756 88.832 228.276C89.136 228.796 89.288 229.396 89.288 230.076C89.288 230.756 89.132 231.356 88.82 231.876C88.516 232.396 88.1 232.8 87.572 233.088C87.052 233.368 86.468 233.508 85.82 233.508ZM85.82 232.044C86.124 232.044 86.408 231.972 86.672 231.828C86.944 231.676 87.16 231.452 87.32 231.156C87.48 230.86 87.56 230.5 87.56 230.076C87.56 229.444 87.392 228.96 87.056 228.624C86.728 228.28 86.324 228.108 85.844 228.108C85.364 228.108 84.96 228.28 84.632 228.624C84.312 228.96 84.152 229.444 84.152 230.076C84.152 230.708 84.308 231.196 84.62 231.54C84.94 231.876 85.34 232.044 85.82 232.044ZM92.2003 227.712C92.4163 227.408 92.7123 227.156 93.0883 226.956C93.4723 226.748 93.9083 226.644 94.3963 226.644C94.9643 226.644 95.4763 226.784 95.9323 227.064C96.3963 227.344 96.7603 227.744 97.0243 228.264C97.2963 228.776 97.4323 229.372 97.4323 230.052C97.4323 230.732 97.2963 231.336 97.0243 231.864C96.7603 232.384 96.3963 232.788 95.9323 233.076C95.4763 233.364 94.9643 233.508 94.3963 233.508C93.9083 233.508 93.4763 233.408 93.1003 233.208C92.7323 233.008 92.4323 232.756 92.2003 232.452V236.568H90.5203V226.752H92.2003V227.712ZM95.7163 230.052C95.7163 229.652 95.6323 229.308 95.4643 229.02C95.3043 228.724 95.0883 228.5 94.8163 228.348C94.5523 228.196 94.2643 228.12 93.9523 228.12C93.6483 228.12 93.3603 228.2 93.0883 228.36C92.8243 228.512 92.6083 228.736 92.4403 229.032C92.2803 229.328 92.2003 229.676 92.2003 230.076C92.2003 230.476 92.2803 230.824 92.4403 231.12C92.6083 231.416 92.8243 231.644 93.0883 231.804C93.3603 231.956 93.6483 232.032 93.9523 232.032C94.2643 232.032 94.5523 231.952 94.8163 231.792C95.0883 231.632 95.3043 231.404 95.4643 231.108C95.6323 230.812 95.7163 230.46 95.7163 230.052ZM100.609 228.132V231.348C100.609 231.572 100.661 231.736 100.765 231.84C100.877 231.936 101.061 231.984 101.317 231.984H102.097V233.4H101.041C99.6252 233.4 98.9172 232.712 98.9172 231.336V228.132H98.1252V226.752H98.9172V225.108H100.609V226.752H102.097V228.132H100.609ZM104.158 225.96C103.862 225.96 103.614 225.868 103.414 225.684C103.222 225.492 103.126 225.256 103.126 224.976C103.126 224.696 103.222 224.464 103.414 224.28C103.614 224.088 103.862 223.992 104.158 223.992C104.454 223.992 104.698 224.088 104.89 224.28C105.09 224.464 105.19 224.696 105.19 224.976C105.19 225.256 105.09 225.492 104.89 225.684C104.698 225.868 104.454 225.96 104.158 225.96ZM104.986 226.752V233.4H103.306V226.752H104.986ZM109.597 233.508C108.957 233.508 108.381 233.368 107.869 233.088C107.357 232.8 106.953 232.396 106.657 231.876C106.369 231.356 106.225 230.756 106.225 230.076C106.225 229.396 106.373 228.796 106.669 228.276C106.973 227.756 107.385 227.356 107.905 227.076C108.425 226.788 109.005 226.644 109.645 226.644C110.285 226.644 110.865 226.788 111.385 227.076C111.905 227.356 112.313 227.756 112.609 228.276C112.913 228.796 113.065 229.396 113.065 230.076C113.065 230.756 112.909 231.356 112.597 231.876C112.293 232.396 111.877 232.8 111.349 233.088C110.829 233.368 110.245 233.508 109.597 233.508ZM109.597 232.044C109.901 232.044 110.185 231.972 110.449 231.828C110.721 231.676 110.937 231.452 111.097 231.156C111.257 230.86 111.337 230.5 111.337 230.076C111.337 229.444 111.169 228.96 110.833 228.624C110.505 228.28 110.101 228.108 109.621 228.108C109.141 228.108 108.737 228.28 108.409 228.624C108.089 228.96 107.929 229.444 107.929 230.076C107.929 230.708 108.085 231.196 108.397 231.54C108.717 231.876 109.117 232.044 109.597 232.044ZM117.982 226.656C118.774 226.656 119.414 226.908 119.902 227.412C120.39 227.908 120.634 228.604 120.634 229.5V233.4H118.954V229.728C118.954 229.2 118.822 228.796 118.558 228.516C118.294 228.228 117.934 228.084 117.478 228.084C117.014 228.084 116.646 228.228 116.374 228.516C116.11 228.796 115.978 229.2 115.978 229.728V233.4H114.298V226.752H115.978V227.58C116.202 227.292 116.486 227.068 116.83 226.908C117.182 226.74 117.566 226.656 117.982 226.656ZM124.775 233.508C124.231 233.508 123.743 233.412 123.311 233.22C122.879 233.02 122.535 232.752 122.279 232.416C122.031 232.08 121.895 231.708 121.871 231.3H123.563C123.595 231.556 123.719 231.768 123.935 231.936C124.159 232.104 124.435 232.188 124.763 232.188C125.083 232.188 125.331 232.124 125.507 231.996C125.691 231.868 125.783 231.704 125.783 231.504C125.783 231.288 125.671 231.128 125.447 231.024C125.231 230.912 124.883 230.792 124.403 230.664C123.907 230.544 123.499 230.42 123.179 230.292C122.867 230.164 122.595 229.968 122.363 229.704C122.139 229.44 122.027 229.084 122.027 228.636C122.027 228.268 122.131 227.932 122.339 227.628C122.555 227.324 122.859 227.084 123.251 226.908C123.651 226.732 124.119 226.644 124.655 226.644C125.447 226.644 126.079 226.844 126.551 227.244C127.023 227.636 127.283 228.168 127.331 228.84H125.723C125.699 228.576 125.587 228.368 125.387 228.216C125.195 228.056 124.935 227.976 124.607 227.976C124.303 227.976 124.067 228.032 123.899 228.144C123.739 228.256 123.659 228.412 123.659 228.612C123.659 228.836 123.771 229.008 123.995 229.128C124.219 229.24 124.567 229.356 125.039 229.476C125.519 229.596 125.915 229.72 126.227 229.848C126.539 229.976 126.807 230.176 127.031 230.448C127.263 230.712 127.383 231.064 127.391 231.504C127.391 231.888 127.283 232.232 127.067 232.536C126.859 232.84 126.555 233.08 126.155 233.256C125.763 233.424 125.303 233.508 124.775 233.508Z" fill="#1766A9"/>
<path d="M364.658 42.196V50.5H363.566V44.308L360.806 50.5H360.038L357.266 44.296V50.5H356.174V42.196H357.35L360.422 49.06L363.494 42.196H364.658ZM372.342 43.924V50.5H371.25V49.528C371.042 49.864 370.75 50.128 370.374 50.32C370.006 50.504 369.598 50.596 369.15 50.596C368.638 50.596 368.178 50.492 367.77 50.284C367.362 50.068 367.038 49.748 366.798 49.324C366.566 48.9 366.45 48.384 366.45 47.776V43.924H367.53V47.632C367.53 48.28 367.694 48.78 368.022 49.132C368.35 49.476 368.798 49.648 369.366 49.648C369.95 49.648 370.41 49.468 370.746 49.108C371.082 48.748 371.25 48.224 371.25 47.536V43.924H372.342ZM375.278 41.62V50.5H374.186V41.62H375.278ZM378.471 44.824V48.7C378.471 49.02 378.539 49.248 378.675 49.384C378.811 49.512 379.047 49.576 379.383 49.576H380.187V50.5H379.203C378.595 50.5 378.139 50.36 377.835 50.08C377.531 49.8 377.379 49.34 377.379 48.7V44.824H376.527V43.924H377.379V42.268H378.471V43.924H380.187V44.824H378.471ZM382.074 42.856C381.866 42.856 381.69 42.784 381.546 42.64C381.402 42.496 381.33 42.32 381.33 42.112C381.33 41.904 381.402 41.728 381.546 41.584C381.69 41.44 381.866 41.368 382.074 41.368C382.274 41.368 382.442 41.44 382.578 41.584C382.722 41.728 382.794 41.904 382.794 42.112C382.794 42.32 382.722 42.496 382.578 42.64C382.442 42.784 382.274 42.856 382.074 42.856ZM382.602 43.924V50.5H381.51V43.924H382.602ZM387.115 50.584C386.563 50.584 386.067 50.488 385.627 50.296C385.195 50.096 384.855 49.824 384.607 49.48C384.359 49.128 384.231 48.724 384.223 48.268H385.387C385.427 48.66 385.587 48.992 385.867 49.264C386.155 49.528 386.571 49.66 387.115 49.66C387.635 49.66 388.043 49.532 388.339 49.276C388.643 49.012 388.795 48.676 388.795 48.268C388.795 47.948 388.707 47.688 388.531 47.488C388.355 47.288 388.135 47.136 387.871 47.032C387.607 46.928 387.251 46.816 386.803 46.696C386.251 46.552 385.807 46.408 385.471 46.264C385.143 46.12 384.859 45.896 384.619 45.592C384.387 45.28 384.271 44.864 384.271 44.344C384.271 43.888 384.387 43.484 384.619 43.132C384.851 42.78 385.175 42.508 385.591 42.316C386.015 42.124 386.499 42.028 387.043 42.028C387.827 42.028 388.467 42.224 388.963 42.616C389.467 43.008 389.751 43.528 389.815 44.176H388.615C388.575 43.856 388.407 43.576 388.111 43.336C387.815 43.088 387.423 42.964 386.935 42.964C386.479 42.964 386.107 43.084 385.819 43.324C385.531 43.556 385.387 43.884 385.387 44.308C385.387 44.612 385.471 44.86 385.639 45.052C385.815 45.244 386.027 45.392 386.275 45.496C386.531 45.592 386.887 45.704 387.343 45.832C387.895 45.984 388.339 46.136 388.675 46.288C389.011 46.432 389.299 46.66 389.539 46.972C389.779 47.276 389.899 47.692 389.899 48.22C389.899 48.628 389.791 49.012 389.575 49.372C389.359 49.732 389.039 50.024 388.615 50.248C388.191 50.472 387.691 50.584 387.115 50.584ZM399.99 42.196V50.5H398.898V44.308L396.138 50.5H395.37L392.598 44.296V50.5H391.506V42.196H392.682L395.754 49.06L398.826 42.196H399.99ZM404.494 50.584C403.942 50.584 403.446 50.488 403.006 50.296C402.574 50.096 402.234 49.824 401.986 49.48C401.738 49.128 401.61 48.724 401.602 48.268H402.766C402.806 48.66 402.966 48.992 403.246 49.264C403.534 49.528 403.95 49.66 404.494 49.66C405.014 49.66 405.422 49.532 405.718 49.276C406.022 49.012 406.174 48.676 406.174 48.268C406.174 47.948 406.086 47.688 405.91 47.488C405.734 47.288 405.514 47.136 405.25 47.032C404.986 46.928 404.63 46.816 404.182 46.696C403.63 46.552 403.186 46.408 402.85 46.264C402.522 46.12 402.238 45.896 401.998 45.592C401.766 45.28 401.65 44.864 401.65 44.344C401.65 43.888 401.766 43.484 401.998 43.132C402.23 42.78 402.554 42.508 402.97 42.316C403.394 42.124 403.878 42.028 404.422 42.028C405.206 42.028 405.846 42.224 406.342 42.616C406.846 43.008 407.13 43.528 407.194 44.176H405.994C405.954 43.856 405.786 43.576 405.49 43.336C405.194 43.088 404.802 42.964 404.314 42.964C403.858 42.964 403.486 43.084 403.198 43.324C402.91 43.556 402.766 43.884 402.766 44.308C402.766 44.612 402.85 44.86 403.018 45.052C403.194 45.244 403.406 45.392 403.654 45.496C403.91 45.592 404.266 45.704 404.722 45.832C405.274 45.984 405.718 46.136 406.054 46.288C406.39 46.432 406.678 46.66 406.918 46.972C407.158 47.276 407.278 47.692 407.278 48.22C407.278 48.628 407.17 49.012 406.954 49.372C406.738 49.732 406.418 50.024 405.994 50.248C405.57 50.472 405.07 50.584 404.494 50.584Z" fill="#1766A9"/>
<path d="M387.328 181.806C388.24 181.806 389.028 181.978 389.692 182.322C390.364 182.658 390.876 183.142 391.228 183.774C391.588 184.406 391.768 185.15 391.768 186.006C391.768 186.862 391.588 187.606 391.228 188.238C390.876 188.862 390.364 189.342 389.692 189.678C389.028 190.006 388.24 190.17 387.328 190.17H384.724V181.806H387.328ZM387.328 189.27C388.408 189.27 389.232 188.986 389.8 188.418C390.368 187.842 390.652 187.038 390.652 186.006C390.652 184.966 390.364 184.154 389.788 183.57C389.22 182.986 388.4 182.694 387.328 182.694H385.816V189.27H387.328ZM393.772 182.526C393.564 182.526 393.388 182.454 393.244 182.31C393.1 182.166 393.028 181.99 393.028 181.782C393.028 181.574 393.1 181.398 393.244 181.254C393.388 181.11 393.564 181.038 393.772 181.038C393.972 181.038 394.14 181.11 394.276 181.254C394.42 181.398 394.492 181.574 394.492 181.782C394.492 181.99 394.42 182.166 394.276 182.31C394.14 182.454 393.972 182.526 393.772 182.526ZM394.3 183.594V190.17H393.208V183.594H394.3ZM398.489 190.278C397.985 190.278 397.533 190.194 397.133 190.026C396.733 189.85 396.417 189.61 396.185 189.306C395.953 188.994 395.825 188.638 395.801 188.238H396.929C396.961 188.566 397.113 188.834 397.385 189.042C397.665 189.25 398.029 189.354 398.477 189.354C398.893 189.354 399.221 189.262 399.461 189.078C399.701 188.894 399.821 188.662 399.821 188.382C399.821 188.094 399.693 187.882 399.437 187.746C399.181 187.602 398.785 187.462 398.249 187.326C397.761 187.198 397.361 187.07 397.049 186.942C396.745 186.806 396.481 186.61 396.257 186.354C396.041 186.09 395.933 185.746 395.933 185.322C395.933 184.986 396.033 184.678 396.233 184.398C396.433 184.118 396.717 183.898 397.085 183.738C397.453 183.57 397.873 183.486 398.345 183.486C399.073 183.486 399.661 183.67 400.109 184.038C400.557 184.406 400.797 184.91 400.829 185.55H399.737C399.713 185.206 399.573 184.93 399.317 184.722C399.069 184.514 398.733 184.41 398.309 184.41C397.917 184.41 397.605 184.494 397.373 184.662C397.141 184.83 397.025 185.05 397.025 185.322C397.025 185.538 397.093 185.718 397.229 185.862C397.373 185.998 397.549 186.11 397.757 186.198C397.973 186.278 398.269 186.37 398.645 186.474C399.117 186.602 399.501 186.73 399.797 186.858C400.093 186.978 400.345 187.162 400.553 187.41C400.769 187.658 400.881 187.982 400.889 188.382C400.889 188.742 400.789 189.066 400.589 189.354C400.389 189.642 400.105 189.87 399.737 190.038C399.377 190.198 398.961 190.278 398.489 190.278ZM403.763 184.494V188.37C403.763 188.69 403.831 188.918 403.967 189.054C404.103 189.182 404.339 189.246 404.675 189.246H405.479V190.17H404.495C403.887 190.17 403.431 190.03 403.127 189.75C402.823 189.47 402.671 189.01 402.671 188.37V184.494H401.819V183.594H402.671V181.938H403.763V183.594H405.479V184.494H403.763ZM406.394 186.858C406.394 186.186 406.53 185.598 406.802 185.094C407.074 184.582 407.446 184.186 407.918 183.906C408.398 183.626 408.93 183.486 409.514 183.486C410.09 183.486 410.59 183.61 411.014 183.858C411.438 184.106 411.754 184.418 411.962 184.794V183.594H413.066V190.17H411.962V188.946C411.746 189.33 411.422 189.65 410.99 189.906C410.566 190.154 410.07 190.278 409.502 190.278C408.918 190.278 408.39 190.134 407.918 189.846C407.446 189.558 407.074 189.154 406.802 188.634C406.53 188.114 406.394 187.522 406.394 186.858ZM411.962 186.87C411.962 186.374 411.862 185.942 411.662 185.574C411.462 185.206 411.19 184.926 410.846 184.734C410.51 184.534 410.138 184.434 409.73 184.434C409.322 184.434 408.95 184.53 408.614 184.722C408.278 184.914 408.01 185.194 407.81 185.562C407.61 185.93 407.51 186.362 407.51 186.858C407.51 187.362 407.61 187.802 407.81 188.178C408.01 188.546 408.278 188.83 408.614 189.03C408.95 189.222 409.322 189.318 409.73 189.318C410.138 189.318 410.51 189.222 410.846 189.03C411.19 188.83 411.462 188.546 411.662 188.178C411.862 187.802 411.962 187.366 411.962 186.87ZM418.115 183.474C418.915 183.474 419.563 183.718 420.059 184.206C420.555 184.686 420.803 185.382 420.803 186.294V190.17H419.723V186.45C419.723 185.794 419.559 185.294 419.231 184.95C418.903 184.598 418.455 184.422 417.887 184.422C417.311 184.422 416.851 184.602 416.507 184.962C416.171 185.322 416.003 185.846 416.003 186.534V190.17H414.911V183.594H416.003V184.53C416.219 184.194 416.511 183.934 416.879 183.75C417.255 183.566 417.667 183.474 418.115 183.474ZM422.179 186.87C422.179 186.19 422.315 185.598 422.587 185.094C422.859 184.582 423.235 184.186 423.715 183.906C424.203 183.626 424.759 183.486 425.383 183.486C426.191 183.486 426.855 183.682 427.375 184.074C427.903 184.466 428.251 185.01 428.419 185.706H427.243C427.131 185.306 426.911 184.99 426.583 184.758C426.263 184.526 425.863 184.41 425.383 184.41C424.759 184.41 424.255 184.626 423.871 185.058C423.487 185.482 423.295 186.086 423.295 186.87C423.295 187.662 423.487 188.274 423.871 188.706C424.255 189.138 424.759 189.354 425.383 189.354C425.863 189.354 426.263 189.242 426.583 189.018C426.903 188.794 427.123 188.474 427.243 188.058H428.419C428.243 188.73 427.891 189.27 427.363 189.678C426.835 190.078 426.175 190.278 425.383 190.278C424.759 190.278 424.203 190.138 423.715 189.858C423.235 189.578 422.859 189.182 422.587 188.67C422.315 188.158 422.179 187.558 422.179 186.87ZM435.876 186.63C435.876 186.838 435.864 187.058 435.84 187.29H430.584C430.624 187.938 430.844 188.446 431.244 188.814C431.652 189.174 432.144 189.354 432.72 189.354C433.192 189.354 433.584 189.246 433.896 189.03C434.216 188.806 434.44 188.51 434.568 188.142H435.744C435.568 188.774 435.216 189.29 434.688 189.69C434.16 190.082 433.504 190.278 432.72 190.278C432.096 190.278 431.536 190.138 431.04 189.858C430.552 189.578 430.168 189.182 429.888 188.67C429.608 188.15 429.468 187.55 429.468 186.87C429.468 186.19 429.604 185.594 429.876 185.082C430.148 184.57 430.528 184.178 431.016 183.906C431.512 183.626 432.08 183.486 432.72 183.486C433.344 183.486 433.896 183.622 434.376 183.894C434.856 184.166 435.224 184.542 435.48 185.022C435.744 185.494 435.876 186.03 435.876 186.63ZM434.748 186.402C434.748 185.986 434.656 185.63 434.472 185.334C434.288 185.03 434.036 184.802 433.716 184.65C433.404 184.49 433.056 184.41 432.672 184.41C432.12 184.41 431.648 184.586 431.256 184.938C430.872 185.29 430.652 185.778 430.596 186.402H434.748Z" fill="#1766A9"/>
<path d="M395.644 288.812V290.883H397.902V291.55H395.644V293.683H398.168V294.35H394.835V288.145H398.168V288.812H395.644ZM401.117 294.43C400.744 294.43 400.409 294.368 400.112 294.243C399.816 294.113 399.582 293.935 399.41 293.71C399.238 293.479 399.143 293.215 399.126 292.919H399.961C399.985 293.162 400.098 293.36 400.299 293.514C400.507 293.668 400.776 293.745 401.108 293.745C401.416 293.745 401.659 293.677 401.837 293.541C402.015 293.405 402.104 293.233 402.104 293.025C402.104 292.812 402.009 292.655 401.819 292.554C401.63 292.448 401.336 292.344 400.939 292.243C400.578 292.148 400.281 292.053 400.05 291.959C399.825 291.858 399.629 291.713 399.464 291.523C399.303 291.327 399.223 291.073 399.223 290.758C399.223 290.51 399.298 290.281 399.446 290.074C399.594 289.866 399.804 289.703 400.077 289.585C400.35 289.461 400.661 289.398 401.01 289.398C401.55 289.398 401.985 289.535 402.317 289.807C402.649 290.08 402.827 290.453 402.851 290.927H402.042C402.024 290.673 401.92 290.468 401.73 290.314C401.547 290.16 401.298 290.083 400.984 290.083C400.693 290.083 400.462 290.145 400.29 290.269C400.118 290.394 400.032 290.557 400.032 290.758C400.032 290.918 400.083 291.052 400.184 291.158C400.29 291.259 400.421 291.342 400.575 291.407C400.735 291.467 400.954 291.535 401.233 291.612C401.582 291.707 401.867 291.802 402.086 291.896C402.305 291.985 402.492 292.122 402.646 292.305C402.806 292.489 402.889 292.729 402.895 293.025C402.895 293.292 402.821 293.532 402.673 293.745C402.525 293.959 402.314 294.128 402.042 294.252C401.775 294.371 401.467 294.43 401.117 294.43ZM405.024 290.145V293.017C405.024 293.254 405.074 293.422 405.175 293.523C405.276 293.618 405.451 293.665 405.699 293.665H406.295V294.35H405.566C405.116 294.35 404.778 294.246 404.553 294.039C404.327 293.831 404.215 293.491 404.215 293.017V290.145H403.584V289.478H404.215V288.251H405.024V289.478H406.295V290.145H405.024ZM407.693 288.687C407.539 288.687 407.409 288.634 407.302 288.527C407.195 288.42 407.142 288.29 407.142 288.136C407.142 287.982 407.195 287.851 407.302 287.745C407.409 287.638 407.539 287.585 407.693 287.585C407.841 287.585 407.966 287.638 408.067 287.745C408.173 287.851 408.227 287.982 408.227 288.136C408.227 288.29 408.173 288.42 408.067 288.527C407.966 288.634 407.841 288.687 407.693 288.687ZM408.084 289.478V294.35H407.275V289.478H408.084ZM415.322 289.389C415.701 289.389 416.039 289.469 416.335 289.629C416.631 289.784 416.865 290.018 417.037 290.332C417.209 290.646 417.295 291.028 417.295 291.479V294.35H416.495V291.594C416.495 291.108 416.374 290.738 416.131 290.483C415.894 290.222 415.571 290.092 415.162 290.092C414.741 290.092 414.406 290.228 414.157 290.501C413.908 290.767 413.784 291.156 413.784 291.665V294.35H412.984V291.594C412.984 291.108 412.862 290.738 412.619 290.483C412.382 290.222 412.059 290.092 411.65 290.092C411.229 290.092 410.894 290.228 410.645 290.501C410.397 290.767 410.272 291.156 410.272 291.665V294.35H409.463V289.478H410.272V290.181C410.432 289.926 410.645 289.73 410.912 289.594C411.185 289.458 411.484 289.389 411.81 289.389C412.219 289.389 412.581 289.481 412.895 289.665C413.209 289.849 413.443 290.118 413.597 290.474C413.733 290.13 413.958 289.864 414.273 289.674C414.587 289.484 414.936 289.389 415.322 289.389ZM418.32 291.896C418.32 291.399 418.421 290.963 418.622 290.59C418.824 290.21 419.099 289.917 419.449 289.709C419.805 289.502 420.199 289.398 420.631 289.398C421.058 289.398 421.428 289.49 421.743 289.674C422.057 289.858 422.291 290.089 422.445 290.367V289.478H423.263V294.35H422.445V293.443C422.285 293.728 422.045 293.965 421.725 294.154C421.411 294.338 421.043 294.43 420.622 294.43C420.19 294.43 419.799 294.323 419.449 294.11C419.099 293.897 418.824 293.597 418.622 293.212C418.421 292.827 418.32 292.388 418.32 291.896ZM422.445 291.905C422.445 291.538 422.371 291.218 422.223 290.945C422.075 290.673 421.873 290.465 421.618 290.323C421.369 290.175 421.094 290.101 420.791 290.101C420.489 290.101 420.214 290.172 419.965 290.314C419.716 290.456 419.517 290.664 419.369 290.936C419.221 291.209 419.147 291.529 419.147 291.896C419.147 292.27 419.221 292.596 419.369 292.874C419.517 293.147 419.716 293.357 419.965 293.505C420.214 293.648 420.489 293.719 420.791 293.719C421.094 293.719 421.369 293.648 421.618 293.505C421.873 293.357 422.075 293.147 422.223 292.874C422.371 292.596 422.445 292.273 422.445 291.905ZM425.617 290.145V293.017C425.617 293.254 425.667 293.422 425.768 293.523C425.869 293.618 426.043 293.665 426.292 293.665H426.888V294.35H426.159C425.709 294.35 425.371 294.246 425.146 294.039C424.92 293.831 424.808 293.491 424.808 293.017V290.145H424.177V289.478H424.808V288.251H425.617V289.478H426.888V290.145H425.617ZM432.313 291.727C432.313 291.882 432.304 292.045 432.286 292.216H428.393C428.422 292.696 428.585 293.073 428.882 293.345C429.184 293.612 429.548 293.745 429.975 293.745C430.325 293.745 430.615 293.665 430.846 293.505C431.083 293.34 431.249 293.12 431.344 292.848H432.215C432.085 293.316 431.824 293.698 431.433 293.994C431.042 294.285 430.556 294.43 429.975 294.43C429.513 294.43 429.098 294.326 428.73 294.119C428.369 293.911 428.084 293.618 427.877 293.239C427.67 292.854 427.566 292.409 427.566 291.905C427.566 291.401 427.667 290.96 427.868 290.581C428.07 290.201 428.351 289.911 428.713 289.709C429.08 289.502 429.501 289.398 429.975 289.398C430.437 289.398 430.846 289.499 431.202 289.701C431.558 289.902 431.83 290.181 432.02 290.536C432.215 290.886 432.313 291.283 432.313 291.727ZM431.478 291.559C431.478 291.25 431.409 290.987 431.273 290.767C431.137 290.542 430.95 290.373 430.713 290.261C430.482 290.142 430.224 290.083 429.94 290.083C429.531 290.083 429.181 290.213 428.891 290.474C428.606 290.735 428.443 291.096 428.402 291.559H431.478ZM433.079 291.896C433.079 291.399 433.18 290.963 433.381 290.59C433.583 290.21 433.858 289.917 434.208 289.709C434.563 289.502 434.96 289.398 435.399 289.398C435.778 289.398 436.131 289.487 436.457 289.665C436.783 289.837 437.032 290.065 437.204 290.35V287.771H438.022V294.35H437.204V293.434C437.044 293.725 436.807 293.965 436.493 294.154C436.178 294.338 435.811 294.43 435.39 294.43C434.958 294.43 434.563 294.323 434.208 294.11C433.858 293.897 433.583 293.597 433.381 293.212C433.18 292.827 433.079 292.388 433.079 291.896ZM437.204 291.905C437.204 291.538 437.13 291.218 436.981 290.945C436.833 290.673 436.632 290.465 436.377 290.323C436.128 290.175 435.852 290.101 435.55 290.101C435.248 290.101 434.972 290.172 434.723 290.314C434.474 290.456 434.276 290.664 434.128 290.936C433.98 291.209 433.906 291.529 433.906 291.896C433.906 292.27 433.98 292.596 434.128 292.874C434.276 293.147 434.474 293.357 434.723 293.505C434.972 293.648 435.248 293.719 435.55 293.719C435.852 293.719 436.128 293.648 436.377 293.505C436.632 293.357 436.833 293.147 436.981 292.874C437.13 292.596 437.204 292.273 437.204 291.905ZM441.457 291.247C441.457 290.643 441.593 290.101 441.865 289.621C442.138 289.135 442.509 288.755 442.977 288.483C443.451 288.21 443.975 288.074 444.55 288.074C445.226 288.074 445.816 288.237 446.319 288.563C446.823 288.889 447.191 289.351 447.422 289.949H446.453C446.281 289.576 446.032 289.289 445.706 289.087C445.386 288.886 445.001 288.785 444.55 288.785C444.118 288.785 443.729 288.886 443.386 289.087C443.042 289.289 442.772 289.576 442.577 289.949C442.381 290.317 442.283 290.75 442.283 291.247C442.283 291.739 442.381 292.172 442.577 292.545C442.772 292.913 443.042 293.197 443.386 293.399C443.729 293.6 444.118 293.701 444.55 293.701C445.001 293.701 445.386 293.603 445.706 293.408C446.032 293.206 446.281 292.919 446.453 292.545H447.422C447.191 293.138 446.823 293.597 446.319 293.923C445.816 294.243 445.226 294.403 444.55 294.403C443.975 294.403 443.451 294.27 442.977 294.003C442.509 293.731 442.138 293.354 441.865 292.874C441.593 292.394 441.457 291.852 441.457 291.247ZM450.751 294.43C450.294 294.43 449.879 294.326 449.506 294.119C449.139 293.911 448.848 293.618 448.635 293.239C448.427 292.854 448.324 292.409 448.324 291.905C448.324 291.407 448.43 290.969 448.644 290.59C448.863 290.204 449.159 289.911 449.533 289.709C449.906 289.502 450.324 289.398 450.786 289.398C451.249 289.398 451.666 289.502 452.04 289.709C452.413 289.911 452.706 290.201 452.92 290.581C453.139 290.96 453.249 291.401 453.249 291.905C453.249 292.409 453.136 292.854 452.911 293.239C452.692 293.618 452.392 293.911 452.013 294.119C451.634 294.326 451.213 294.43 450.751 294.43ZM450.751 293.719C451.041 293.719 451.314 293.651 451.569 293.514C451.823 293.378 452.028 293.174 452.182 292.901C452.342 292.628 452.422 292.296 452.422 291.905C452.422 291.514 452.345 291.182 452.191 290.91C452.037 290.637 451.835 290.435 451.586 290.305C451.337 290.169 451.068 290.101 450.777 290.101C450.481 290.101 450.208 290.169 449.959 290.305C449.716 290.435 449.521 290.637 449.373 290.91C449.225 291.182 449.15 291.514 449.15 291.905C449.15 292.302 449.222 292.637 449.364 292.91C449.512 293.182 449.708 293.387 449.951 293.523C450.194 293.654 450.46 293.719 450.751 293.719ZM456.037 294.43C455.664 294.43 455.329 294.368 455.033 294.243C454.736 294.113 454.502 293.935 454.33 293.71C454.158 293.479 454.064 293.215 454.046 292.919H454.881C454.905 293.162 455.018 293.36 455.219 293.514C455.427 293.668 455.696 293.745 456.028 293.745C456.336 293.745 456.579 293.677 456.757 293.541C456.935 293.405 457.024 293.233 457.024 293.025C457.024 292.812 456.929 292.655 456.739 292.554C456.55 292.448 456.256 292.344 455.859 292.243C455.498 292.148 455.201 292.053 454.97 291.959C454.745 291.858 454.55 291.713 454.384 291.523C454.224 291.327 454.144 291.073 454.144 290.758C454.144 290.51 454.218 290.281 454.366 290.074C454.514 289.866 454.724 289.703 454.997 289.585C455.27 289.461 455.581 289.398 455.93 289.398C456.47 289.398 456.905 289.535 457.237 289.807C457.569 290.08 457.747 290.453 457.771 290.927H456.962C456.944 290.673 456.84 290.468 456.651 290.314C456.467 290.16 456.218 290.083 455.904 290.083C455.613 290.083 455.382 290.145 455.21 290.269C455.038 290.394 454.953 290.557 454.953 290.758C454.953 290.918 455.003 291.052 455.104 291.158C455.21 291.259 455.341 291.342 455.495 291.407C455.655 291.467 455.874 291.535 456.153 291.612C456.502 291.707 456.787 291.802 457.006 291.896C457.225 291.985 457.412 292.122 457.566 292.305C457.726 292.489 457.809 292.729 457.815 293.025C457.815 293.292 457.741 293.532 457.593 293.745C457.445 293.959 457.234 294.128 456.962 294.252C456.695 294.371 456.387 294.43 456.037 294.43ZM459.944 290.145V293.017C459.944 293.254 459.994 293.422 460.095 293.523C460.196 293.618 460.371 293.665 460.62 293.665H461.215V294.35H460.486C460.036 294.35 459.698 294.246 459.473 294.039C459.248 293.831 459.135 293.491 459.135 293.017V290.145H458.504V289.478H459.135V288.251H459.944V289.478H461.215V290.145H459.944ZM464.823 294.403C464.669 294.403 464.539 294.35 464.432 294.243C464.325 294.137 464.272 294.006 464.272 293.852C464.272 293.698 464.325 293.568 464.432 293.461C464.539 293.354 464.669 293.301 464.823 293.301C464.971 293.301 465.096 293.354 465.197 293.461C465.303 293.568 465.357 293.698 465.357 293.852C465.357 294.006 465.303 294.137 465.197 294.243C465.096 294.35 464.971 294.403 464.823 294.403ZM464.823 290.598C464.669 290.598 464.539 290.545 464.432 290.438C464.325 290.332 464.272 290.201 464.272 290.047C464.272 289.893 464.325 289.763 464.432 289.656C464.539 289.549 464.669 289.496 464.823 289.496C464.971 289.496 465.096 289.549 465.197 289.656C465.303 289.763 465.357 289.893 465.357 290.047C465.357 290.201 465.303 290.332 465.197 290.438C465.096 290.545 464.971 290.598 464.823 290.598ZM470.411 288.074C470.997 288.074 471.471 288.24 471.833 288.572C472.195 288.903 472.375 289.348 472.375 289.905C472.375 290.527 472.183 290.99 471.797 291.292C471.412 291.588 470.891 291.736 470.233 291.736L470.206 292.581H469.504L469.468 291.176H469.726C470.313 291.176 470.772 291.087 471.104 290.91C471.436 290.732 471.602 290.397 471.602 289.905C471.602 289.549 471.495 289.268 471.282 289.06C471.068 288.853 470.781 288.749 470.419 288.749C470.052 288.749 469.762 288.85 469.548 289.052C469.341 289.247 469.237 289.517 469.237 289.861H468.473C468.473 289.505 468.553 289.194 468.713 288.927C468.873 288.654 469.098 288.444 469.388 288.296C469.685 288.148 470.025 288.074 470.411 288.074ZM469.851 294.403C469.696 294.403 469.566 294.35 469.459 294.243C469.353 294.137 469.299 294.006 469.299 293.852C469.299 293.698 469.353 293.568 469.459 293.461C469.566 293.354 469.696 293.301 469.851 293.301C469.999 293.301 470.123 293.354 470.224 293.461C470.331 293.568 470.384 293.698 470.384 293.852C470.384 294.006 470.331 294.137 470.224 294.243C470.123 294.35 469.999 294.403 469.851 294.403Z" fill="#1766A9"/>
<path d="M188.376 59.084C187.6 59.084 186.892 58.904 186.252 58.544C185.612 58.176 185.104 57.668 184.728 57.02C184.36 56.364 184.176 55.628 184.176 54.812C184.176 53.996 184.36 53.264 184.728 52.616C185.104 51.96 185.612 51.452 186.252 51.092C186.892 50.724 187.6 50.54 188.376 50.54C189.16 50.54 189.872 50.724 190.512 51.092C191.152 51.452 191.656 51.956 192.024 52.604C192.392 53.252 192.576 53.988 192.576 54.812C192.576 55.636 192.392 56.372 192.024 57.02C191.656 57.668 191.152 58.176 190.512 58.544C189.872 58.904 189.16 59.084 188.376 59.084ZM188.376 58.136C188.96 58.136 189.484 58 189.948 57.728C190.42 57.456 190.788 57.068 191.052 56.564C191.324 56.06 191.46 55.476 191.46 54.812C191.46 54.14 191.324 53.556 191.052 53.06C190.788 52.556 190.424 52.168 189.96 51.896C189.496 51.624 188.968 51.488 188.376 51.488C187.784 51.488 187.256 51.624 186.792 51.896C186.328 52.168 185.96 52.556 185.688 53.06C185.424 53.556 185.292 54.14 185.292 54.812C185.292 55.476 185.424 56.06 185.688 56.564C185.96 57.068 186.328 57.456 186.792 57.728C187.264 58 187.792 58.136 188.376 58.136ZM195.11 53.492C195.302 53.116 195.574 52.824 195.926 52.616C196.286 52.408 196.722 52.304 197.234 52.304V53.432H196.946C195.722 53.432 195.11 54.096 195.11 55.424V59H194.018V52.424H195.11V53.492ZM201.206 52.316C201.774 52.316 202.27 52.44 202.694 52.688C203.126 52.936 203.446 53.248 203.654 53.624V52.424H204.758V59.144C204.758 59.744 204.63 60.276 204.374 60.74C204.118 61.212 203.75 61.58 203.27 61.844C202.798 62.108 202.246 62.24 201.614 62.24C200.75 62.24 200.03 62.036 199.454 61.628C198.878 61.22 198.538 60.664 198.434 59.96H199.514C199.634 60.36 199.882 60.68 200.258 60.92C200.634 61.168 201.086 61.292 201.614 61.292C202.214 61.292 202.702 61.104 203.078 60.728C203.462 60.352 203.654 59.824 203.654 59.144V57.764C203.438 58.148 203.118 58.468 202.694 58.724C202.27 58.98 201.774 59.108 201.206 59.108C200.622 59.108 200.09 58.964 199.61 58.676C199.138 58.388 198.766 57.984 198.494 57.464C198.222 56.944 198.086 56.352 198.086 55.688C198.086 55.016 198.222 54.428 198.494 53.924C198.766 53.412 199.138 53.016 199.61 52.736C200.09 52.456 200.622 52.316 201.206 52.316ZM203.654 55.7C203.654 55.204 203.554 54.772 203.354 54.404C203.154 54.036 202.882 53.756 202.538 53.564C202.202 53.364 201.83 53.264 201.422 53.264C201.014 53.264 200.642 53.36 200.306 53.552C199.97 53.744 199.702 54.024 199.502 54.392C199.302 54.76 199.202 55.192 199.202 55.688C199.202 56.192 199.302 56.632 199.502 57.008C199.702 57.376 199.97 57.66 200.306 57.86C200.642 58.052 201.014 58.148 201.422 58.148C201.83 58.148 202.202 58.052 202.538 57.86C202.882 57.66 203.154 57.376 203.354 57.008C203.554 56.632 203.654 56.196 203.654 55.7ZM206.196 55.688C206.196 55.016 206.332 54.428 206.604 53.924C206.876 53.412 207.248 53.016 207.72 52.736C208.2 52.456 208.732 52.316 209.316 52.316C209.892 52.316 210.392 52.44 210.816 52.688C211.24 52.936 211.556 53.248 211.764 53.624V52.424H212.868V59H211.764V57.776C211.548 58.16 211.224 58.48 210.792 58.736C210.368 58.984 209.872 59.108 209.304 59.108C208.72 59.108 208.192 58.964 207.72 58.676C207.248 58.388 206.876 57.984 206.604 57.464C206.332 56.944 206.196 56.352 206.196 55.688ZM211.764 55.7C211.764 55.204 211.664 54.772 211.464 54.404C211.264 54.036 210.992 53.756 210.648 53.564C210.312 53.364 209.94 53.264 209.532 53.264C209.124 53.264 208.752 53.36 208.416 53.552C208.08 53.744 207.812 54.024 207.612 54.392C207.412 54.76 207.312 55.192 207.312 55.688C207.312 56.192 207.412 56.632 207.612 57.008C207.812 57.376 208.08 57.66 208.416 57.86C208.752 58.052 209.124 58.148 209.532 58.148C209.94 58.148 210.312 58.052 210.648 57.86C210.992 57.66 211.264 57.376 211.464 57.008C211.664 56.632 211.764 56.196 211.764 55.7ZM217.917 52.304C218.717 52.304 219.365 52.548 219.861 53.036C220.357 53.516 220.605 54.212 220.605 55.124V59H219.525V55.28C219.525 54.624 219.361 54.124 219.033 53.78C218.705 53.428 218.257 53.252 217.689 53.252C217.113 53.252 216.653 53.432 216.309 53.792C215.973 54.152 215.805 54.676 215.805 55.364V59H214.713V52.424H215.805V53.36C216.021 53.024 216.313 52.764 216.681 52.58C217.057 52.396 217.469 52.304 217.917 52.304ZM222.953 51.356C222.745 51.356 222.569 51.284 222.425 51.14C222.281 50.996 222.209 50.82 222.209 50.612C222.209 50.404 222.281 50.228 222.425 50.084C222.569 49.94 222.745 49.868 222.953 49.868C223.153 49.868 223.321 49.94 223.457 50.084C223.601 50.228 223.673 50.404 223.673 50.612C223.673 50.82 223.601 50.996 223.457 51.14C223.321 51.284 223.153 51.356 222.953 51.356ZM223.481 52.424V59H222.389V52.424H223.481ZM226.158 58.1H229.386V59H224.91V58.1L228.102 53.312H224.934V52.424H229.362V53.312L226.158 58.1ZM230.395 55.688C230.395 55.016 230.531 54.428 230.803 53.924C231.075 53.412 231.447 53.016 231.919 52.736C232.399 52.456 232.931 52.316 233.515 52.316C234.091 52.316 234.591 52.44 235.015 52.688C235.439 52.936 235.755 53.248 235.963 53.624V52.424H237.067V59H235.963V57.776C235.747 58.16 235.423 58.48 234.991 58.736C234.567 58.984 234.071 59.108 233.503 59.108C232.919 59.108 232.391 58.964 231.919 58.676C231.447 58.388 231.075 57.984 230.803 57.464C230.531 56.944 230.395 56.352 230.395 55.688ZM235.963 55.7C235.963 55.204 235.863 54.772 235.663 54.404C235.463 54.036 235.191 53.756 234.847 53.564C234.511 53.364 234.139 53.264 233.731 53.264C233.323 53.264 232.951 53.36 232.615 53.552C232.279 53.744 232.011 54.024 231.811 54.392C231.611 54.76 231.511 55.192 231.511 55.688C231.511 56.192 231.611 56.632 231.811 57.008C232.011 57.376 232.279 57.66 232.615 57.86C232.951 58.052 233.323 58.148 233.731 58.148C234.139 58.148 234.511 58.052 234.847 57.86C235.191 57.66 235.463 57.376 235.663 57.008C235.863 56.632 235.963 56.196 235.963 55.7ZM240.244 53.324V57.2C240.244 57.52 240.312 57.748 240.448 57.884C240.584 58.012 240.82 58.076 241.156 58.076H241.96V59H240.976C240.368 59 239.912 58.86 239.608 58.58C239.304 58.3 239.152 57.84 239.152 57.2V53.324H238.3V52.424H239.152V50.768H240.244V52.424H241.96V53.324H240.244ZM243.847 51.356C243.639 51.356 243.463 51.284 243.319 51.14C243.175 50.996 243.103 50.82 243.103 50.612C243.103 50.404 243.175 50.228 243.319 50.084C243.463 49.94 243.639 49.868 243.847 49.868C244.047 49.868 244.215 49.94 244.351 50.084C244.495 50.228 244.567 50.404 244.567 50.612C244.567 50.82 244.495 50.996 244.351 51.14C244.215 51.284 244.047 51.356 243.847 51.356ZM244.375 52.424V59H243.283V52.424H244.375ZM249.104 59.108C248.488 59.108 247.928 58.968 247.424 58.688C246.928 58.408 246.536 58.012 246.248 57.5C245.968 56.98 245.828 56.38 245.828 55.7C245.828 55.028 245.972 54.436 246.26 53.924C246.556 53.404 246.956 53.008 247.46 52.736C247.964 52.456 248.528 52.316 249.152 52.316C249.776 52.316 250.34 52.456 250.844 52.736C251.348 53.008 251.744 53.4 252.032 53.912C252.328 54.424 252.476 55.02 252.476 55.7C252.476 56.38 252.324 56.98 252.02 57.5C251.724 58.012 251.32 58.408 250.808 58.688C250.296 58.968 249.728 59.108 249.104 59.108ZM249.104 58.148C249.496 58.148 249.864 58.056 250.208 57.872C250.552 57.688 250.828 57.412 251.036 57.044C251.252 56.676 251.36 56.228 251.36 55.7C251.36 55.172 251.256 54.724 251.048 54.356C250.84 53.988 250.568 53.716 250.232 53.54C249.896 53.356 249.532 53.264 249.14 53.264C248.74 53.264 248.372 53.356 248.036 53.54C247.708 53.716 247.444 53.988 247.244 54.356C247.044 54.724 246.944 55.172 246.944 55.7C246.944 56.236 247.04 56.688 247.232 57.056C247.432 57.424 247.696 57.7 248.024 57.884C248.352 58.06 248.712 58.148 249.104 58.148ZM257.116 52.304C257.916 52.304 258.564 52.548 259.06 53.036C259.556 53.516 259.804 54.212 259.804 55.124V59H258.724V55.28C258.724 54.624 258.56 54.124 258.232 53.78C257.904 53.428 257.456 53.252 256.888 53.252C256.312 53.252 255.852 53.432 255.508 53.792C255.172 54.152 255.004 54.676 255.004 55.364V59H253.912V52.424H255.004V53.36C255.22 53.024 255.512 52.764 255.88 52.58C256.256 52.396 256.668 52.304 257.116 52.304Z" fill="white"/>
<path d="M230.016 97.928V103.9H229.231V99.4469L227.246 103.9H226.693L224.7 99.4383V103.9H223.915V97.928H224.76L226.97 102.864L229.179 97.928H230.016ZM235.663 101.354C235.663 101.504 235.654 101.662 235.637 101.829H231.857C231.886 102.295 232.044 102.66 232.332 102.925C232.625 103.184 232.979 103.313 233.393 103.313C233.733 103.313 234.014 103.235 234.239 103.08C234.469 102.919 234.63 102.706 234.722 102.442H235.568C235.441 102.896 235.188 103.267 234.808 103.555C234.429 103.837 233.957 103.978 233.393 103.978C232.944 103.978 232.542 103.877 232.185 103.676C231.834 103.474 231.558 103.189 231.356 102.821C231.155 102.447 231.054 102.016 231.054 101.527C231.054 101.038 231.152 100.609 231.348 100.241C231.543 99.8727 231.817 99.5907 232.168 99.3951C232.524 99.1938 232.933 99.0931 233.393 99.0931C233.842 99.0931 234.239 99.1909 234.584 99.3865C234.929 99.5821 235.194 99.8525 235.378 100.198C235.568 100.537 235.663 100.923 235.663 101.354ZM234.852 101.19C234.852 100.891 234.785 100.635 234.653 100.422C234.521 100.203 234.34 100.04 234.109 99.9302C233.885 99.8151 233.635 99.7576 233.359 99.7576C232.962 99.7576 232.622 99.8842 232.34 100.137C232.064 100.39 231.906 100.741 231.866 101.19H234.852ZM237.485 99.9388C237.623 99.6684 237.818 99.4584 238.072 99.3088C238.33 99.1592 238.644 99.0845 239.012 99.0845V99.8957H238.805C237.925 99.8957 237.485 100.373 237.485 101.328V103.9H236.699V99.1708H237.485V99.9388ZM239.625 101.527C239.625 101.038 239.723 100.612 239.919 100.25C240.114 99.8813 240.385 99.5965 240.73 99.3951C241.081 99.1938 241.481 99.0931 241.93 99.0931C242.511 99.0931 242.988 99.234 243.362 99.516C243.742 99.7979 243.992 100.189 244.113 100.69H243.267C243.187 100.402 243.028 100.175 242.793 100.008C242.562 99.841 242.275 99.7576 241.93 99.7576C241.481 99.7576 241.118 99.9129 240.842 100.224C240.566 100.529 240.428 100.963 240.428 101.527C240.428 102.096 240.566 102.536 240.842 102.847C241.118 103.158 241.481 103.313 241.93 103.313C242.275 103.313 242.562 103.233 242.793 103.072C243.023 102.91 243.181 102.68 243.267 102.381H244.113C243.986 102.864 243.733 103.253 243.354 103.546C242.974 103.834 242.499 103.978 241.93 103.978C241.481 103.978 241.081 103.877 240.73 103.676C240.385 103.474 240.114 103.189 239.919 102.821C239.723 102.453 239.625 102.022 239.625 101.527ZM247.508 99.0845C247.865 99.0845 248.187 99.1621 248.475 99.3175C248.762 99.4671 248.987 99.6943 249.148 99.9992C249.315 100.304 249.398 100.675 249.398 101.113V103.9H248.621V101.225C248.621 100.753 248.504 100.393 248.268 100.146C248.032 99.8928 247.71 99.7662 247.301 99.7662C246.887 99.7662 246.556 99.8957 246.309 100.155C246.067 100.413 245.946 100.79 245.946 101.285V103.9H245.161V97.5138H245.946V99.8439C246.101 99.6023 246.314 99.4153 246.585 99.2829C246.861 99.1506 247.169 99.0845 247.508 99.0845ZM250.388 101.518C250.388 101.035 250.485 100.612 250.681 100.25C250.877 99.8813 251.144 99.5965 251.484 99.3951C251.829 99.1938 252.211 99.0931 252.631 99.0931C253.046 99.0931 253.405 99.1823 253.71 99.3606C254.015 99.539 254.242 99.7633 254.392 100.034V99.1708H255.186V103.9H254.392V103.02C254.237 103.296 254.004 103.526 253.693 103.71C253.388 103.888 253.031 103.978 252.623 103.978C252.203 103.978 251.823 103.874 251.484 103.667C251.144 103.46 250.877 103.169 250.681 102.795C250.485 102.421 250.388 101.996 250.388 101.518ZM254.392 101.527C254.392 101.17 254.32 100.859 254.176 100.595C254.032 100.33 253.837 100.129 253.589 99.9906C253.348 99.8468 253.08 99.7749 252.787 99.7749C252.493 99.7749 252.226 99.8439 251.984 99.982C251.742 100.12 251.55 100.321 251.406 100.586C251.262 100.851 251.19 101.161 251.19 101.518C251.19 101.881 251.262 102.197 251.406 102.467C251.55 102.732 251.742 102.936 251.984 103.08C252.226 103.218 252.493 103.287 252.787 103.287C253.08 103.287 253.348 103.218 253.589 103.08C253.837 102.936 254.032 102.732 254.176 102.467C254.32 102.197 254.392 101.883 254.392 101.527ZM258.817 99.0845C259.393 99.0845 259.859 99.2599 260.215 99.6109C260.572 99.9561 260.75 100.457 260.75 101.113V103.9H259.974V101.225C259.974 100.753 259.856 100.393 259.62 100.146C259.384 99.8928 259.062 99.7662 258.653 99.7662C258.239 99.7662 257.908 99.8957 257.661 100.155C257.419 100.413 257.298 100.79 257.298 101.285V103.9H256.513V99.1708H257.298V99.8439C257.454 99.6023 257.664 99.4153 257.928 99.2829C258.199 99.1506 258.495 99.0845 258.817 99.0845ZM262.991 99.818V102.605C262.991 102.836 263.04 103 263.138 103.097C263.236 103.189 263.405 103.235 263.647 103.235H264.225V103.9H263.518C263.08 103.9 262.752 103.799 262.534 103.598C262.315 103.397 262.206 103.066 262.206 102.605V99.818H261.593V99.1708H262.206V97.9798H262.991V99.1708H264.225V99.818H262.991Z" fill="white"/>
<path d="M221.358 158.18L219.336 154.709H217.996V158.18H216.888V149.691H219.628C220.27 149.691 220.81 149.8 221.248 150.019C221.695 150.239 222.028 150.535 222.247 150.909C222.466 151.282 222.576 151.708 222.576 152.187C222.576 152.772 222.405 153.288 222.064 153.734C221.731 154.181 221.228 154.477 220.554 154.623L222.686 158.18H221.358ZM217.996 153.82H219.628C220.229 153.82 220.68 153.673 220.98 153.381C221.281 153.081 221.431 152.683 221.431 152.187C221.431 151.684 221.281 151.294 220.98 151.018C220.688 150.742 220.237 150.604 219.628 150.604H217.996V153.82ZM230.388 154.587C230.388 154.798 230.376 155.021 230.352 155.257H225.017C225.057 155.915 225.281 156.43 225.687 156.804C226.101 157.169 226.6 157.352 227.185 157.352C227.664 157.352 228.062 157.242 228.378 157.023C228.703 156.796 228.931 156.495 229.061 156.122H230.254C230.076 156.763 229.718 157.287 229.182 157.693C228.646 158.091 227.981 158.29 227.185 158.29C226.551 158.29 225.983 158.148 225.48 157.863C224.984 157.579 224.595 157.177 224.31 156.657C224.026 156.13 223.884 155.521 223.884 154.83C223.884 154.14 224.022 153.535 224.298 153.016C224.574 152.496 224.96 152.098 225.455 151.822C225.959 151.538 226.535 151.396 227.185 151.396C227.818 151.396 228.378 151.534 228.866 151.81C229.353 152.086 229.726 152.468 229.986 152.955C230.254 153.434 230.388 153.978 230.388 154.587ZM229.243 154.355C229.243 153.933 229.15 153.572 228.963 153.271C228.776 152.963 228.521 152.731 228.196 152.577C227.879 152.415 227.526 152.334 227.136 152.334C226.576 152.334 226.097 152.512 225.699 152.87C225.309 153.227 225.086 153.722 225.029 154.355H229.243ZM231.437 154.83C231.437 154.14 231.575 153.539 231.851 153.028C232.127 152.508 232.509 152.106 232.996 151.822C233.491 151.538 234.056 151.396 234.689 151.396C235.509 151.396 236.183 151.595 236.711 151.993C237.247 152.39 237.6 152.943 237.771 153.649H236.577C236.463 153.243 236.24 152.922 235.907 152.687C235.582 152.451 235.176 152.334 234.689 152.334C234.056 152.334 233.544 152.553 233.154 152.991C232.765 153.422 232.57 154.035 232.57 154.83C232.57 155.634 232.765 156.256 233.154 156.694C233.544 157.133 234.056 157.352 234.689 157.352C235.176 157.352 235.582 157.238 235.907 157.011C236.232 156.783 236.455 156.459 236.577 156.036H237.771C237.592 156.718 237.235 157.266 236.699 157.681C236.163 158.087 235.493 158.29 234.689 158.29C234.056 158.29 233.491 158.148 232.996 157.863C232.509 157.579 232.127 157.177 231.851 156.657C231.575 156.138 231.437 155.529 231.437 154.83ZM245.34 154.587C245.34 154.798 245.327 155.021 245.303 155.257H239.968C240.009 155.915 240.232 156.43 240.638 156.804C241.052 157.169 241.552 157.352 242.136 157.352C242.615 157.352 243.013 157.242 243.33 157.023C243.655 156.796 243.882 156.495 244.012 156.122H245.206C245.027 156.763 244.67 157.287 244.134 157.693C243.598 158.091 242.932 158.29 242.136 158.29C241.503 158.29 240.934 158.148 240.431 157.863C239.936 157.579 239.546 157.177 239.262 156.657C238.978 156.13 238.835 155.521 238.835 154.83C238.835 154.14 238.973 153.535 239.25 153.016C239.526 152.496 239.911 152.098 240.407 151.822C240.91 151.538 241.487 151.396 242.136 151.396C242.77 151.396 243.33 151.534 243.817 151.81C244.304 152.086 244.678 152.468 244.938 152.955C245.206 153.434 245.34 153.978 245.34 154.587ZM244.195 154.355C244.195 153.933 244.101 153.572 243.915 153.271C243.728 152.963 243.472 152.731 243.147 152.577C242.83 152.415 242.477 152.334 242.088 152.334C241.527 152.334 241.048 152.512 240.65 152.87C240.261 153.227 240.037 153.722 239.98 154.355H244.195ZM247.375 150.421C247.164 150.421 246.985 150.348 246.839 150.202C246.693 150.056 246.62 149.877 246.62 149.666C246.62 149.455 246.693 149.276 246.839 149.13C246.985 148.984 247.164 148.911 247.375 148.911C247.578 148.911 247.749 148.984 247.887 149.13C248.033 149.276 248.106 149.455 248.106 149.666C248.106 149.877 248.033 150.056 247.887 150.202C247.749 150.348 247.578 150.421 247.375 150.421ZM247.911 151.505V158.18H246.803V151.505H247.911ZM252.285 157.157L254.355 151.505H255.537L252.918 158.18H251.627L249.008 151.505H250.202L252.285 157.157ZM262.717 154.587C262.717 154.798 262.705 155.021 262.681 155.257H257.346C257.387 155.915 257.61 156.43 258.016 156.804C258.43 157.169 258.93 157.352 259.514 157.352C259.993 157.352 260.391 157.242 260.708 157.023C261.033 156.796 261.26 156.495 261.39 156.122H262.584C262.405 156.763 262.048 157.287 261.512 157.693C260.976 158.091 260.31 158.29 259.514 158.29C258.881 158.29 258.312 158.148 257.809 157.863C257.314 157.579 256.924 157.177 256.64 156.657C256.355 156.13 256.213 155.521 256.213 154.83C256.213 154.14 256.351 153.535 256.627 153.016C256.904 152.496 257.289 152.098 257.785 151.822C258.288 151.538 258.865 151.396 259.514 151.396C260.148 151.396 260.708 151.534 261.195 151.81C261.682 152.086 262.056 152.468 262.316 152.955C262.584 153.434 262.717 153.978 262.717 154.587ZM261.573 154.355C261.573 153.933 261.479 153.572 261.292 153.271C261.106 152.963 260.85 152.731 260.525 152.577C260.208 152.415 259.855 152.334 259.465 152.334C258.905 152.334 258.426 152.512 258.028 152.87C257.638 153.227 257.415 153.722 257.358 154.355H261.573ZM265.289 152.589C265.484 152.208 265.76 151.911 266.117 151.7C266.483 151.489 266.925 151.384 267.445 151.384V152.528H267.152C265.91 152.528 265.289 153.202 265.289 154.55V158.18H264.181V151.505H265.289V152.589Z" fill="white"/>
<path d="M201.75 72.75C203.131 72.75 204.25 71.6307 204.25 70.25C204.25 68.8693 203.131 67.75 201.75 67.75C200.369 67.75 199.25 68.8693 199.25 70.25C199.25 71.6307 200.369 72.75 201.75 72.75Z" fill="white"/>
<path d="M215.38 72.75C216.761 72.75 217.88 71.6307 217.88 70.25C217.88 68.8693 216.761 67.75 215.38 67.75C213.999 67.75 212.88 68.8693 212.88 70.25C212.88 71.6307 213.999 72.75 215.38 72.75Z" fill="white"/>
<path d="M229 72.75C230.381 72.75 231.5 71.6307 231.5 70.25C231.5 68.8693 230.381 67.75 229 67.75C227.619 67.75 226.5 68.8693 226.5 70.25C226.5 71.6307 227.619 72.75 229 72.75Z" fill="white"/>
<path d="M242.63 72.75C244.011 72.75 245.13 71.6307 245.13 70.25C245.13 68.8693 244.011 67.75 242.63 67.75C241.249 67.75 240.13 68.8693 240.13 70.25C240.13 71.6307 241.249 72.75 242.63 72.75Z" fill="white"/>
<path d="M481.5 216H385C379.477 216 375 220.477 375 226V263.5C375 269.023 379.477 273.5 385 273.5H481.5C487.023 273.5 491.5 269.023 491.5 263.5V226C491.5 220.477 487.023 216 481.5 216Z" stroke="#1766A9" stroke-miterlimit="10"/>
<path d="M389.67 247.95H414.17L425.79 255.36H452.4L443.85 250.18H483.17L472.8 244.64" stroke="#1766A9" stroke-miterlimit="10"/>
<path fill-rule="evenodd" clip-rule="evenodd" d="M503.36 213.82C504.15 206.1 498.24 199.16 490.16 198.33C482.08 197.5 474.9 203.11 474.11 210.83C473.907 212.911 474.179 215.011 474.905 216.971C475.631 218.932 476.791 220.703 478.3 222.15L477.3 228.22L482.85 225.22C484.262 225.819 485.755 226.203 487.28 226.36C495.37 227.15 502.57 221.55 503.36 213.82Z" fill="#1766A9"/>
<path d="M479.047 216.073C479.047 215.66 479.131 215.298 479.298 214.988C479.466 214.673 479.694 214.43 479.985 214.258C480.28 214.085 480.607 213.999 480.966 213.999C481.32 213.999 481.628 214.076 481.889 214.228C482.149 214.381 482.344 214.573 482.472 214.804V214.066H483.151V218.11H482.472V217.357C482.339 217.593 482.14 217.79 481.874 217.948C481.613 218.1 481.308 218.176 480.959 218.176C480.6 218.176 480.275 218.088 479.985 217.911C479.694 217.734 479.466 217.485 479.298 217.165C479.131 216.846 479.047 216.481 479.047 216.073ZM482.472 216.081C482.472 215.775 482.41 215.51 482.287 215.283C482.164 215.057 481.997 214.885 481.785 214.767C481.579 214.644 481.35 214.582 481.099 214.582C480.848 214.582 480.619 214.641 480.413 214.759C480.206 214.878 480.041 215.05 479.918 215.276C479.795 215.502 479.734 215.768 479.734 216.073C479.734 216.383 479.795 216.654 479.918 216.885C480.041 217.111 480.206 217.286 480.413 217.409C480.619 217.527 480.848 217.586 481.099 217.586C481.35 217.586 481.579 217.527 481.785 217.409C481.997 217.286 482.164 217.111 482.287 216.885C482.41 216.654 482.472 216.386 482.472 216.081ZM489.673 214.066L488.411 218.11H487.717L486.743 214.9L485.769 218.11H485.075L483.806 214.066H484.492L485.422 217.461L486.426 214.066H487.112L488.094 217.468L489.009 214.066H489.673ZM490.089 216.073C490.089 215.66 490.172 215.298 490.339 214.988C490.507 214.673 490.736 214.43 491.026 214.258C491.321 214.085 491.648 213.999 492.007 213.999C492.362 213.999 492.669 214.076 492.93 214.228C493.191 214.381 493.385 214.573 493.513 214.804V214.066H494.192V218.11H493.513V217.357C493.38 217.593 493.181 217.79 492.915 217.948C492.654 218.1 492.349 218.176 492 218.176C491.641 218.176 491.316 218.088 491.026 217.911C490.736 217.734 490.507 217.485 490.339 217.165C490.172 216.846 490.089 216.481 490.089 216.073ZM493.513 216.081C493.513 215.775 493.451 215.51 493.328 215.283C493.205 215.057 493.038 214.885 492.827 214.767C492.62 214.644 492.391 214.582 492.14 214.582C491.889 214.582 491.66 214.641 491.454 214.759C491.247 214.878 491.082 215.05 490.959 215.276C490.836 215.502 490.775 215.768 490.775 216.073C490.775 216.383 490.836 216.654 490.959 216.885C491.082 217.111 491.247 217.286 491.454 217.409C491.66 217.527 491.889 217.586 492.14 217.586C492.391 217.586 492.62 217.527 492.827 217.409C493.038 217.286 493.205 217.111 493.328 216.885C493.451 216.654 493.513 216.386 493.513 216.081ZM498.81 214.066L496.375 220.014H495.681L496.478 218.066L494.847 214.066H495.592L496.862 217.342L498.116 214.066H498.81Z" fill="white"/>
<path d="M479.5 279.75H385.75C382.851 279.75 380.5 282.101 380.5 285V295.5C380.5 298.399 382.851 300.75 385.75 300.75H479.5C482.399 300.75 484.75 298.399 484.75 295.5V285C484.75 282.101 482.399 279.75 479.5 279.75Z" stroke="#FCB716" stroke-miterlimit="10"/>
</svg>
