<svg xmlns="http://www.w3.org/2000/svg" xmlns:xlink="http://www.w3.org/1999/xlink" viewBox="0 0 524 416" xmlns:v="https://vecta.io/nano"><style><![CDATA[.a{fill:#fff}.b{fill:#54961e}.c{font-family:MyriadPro-Regular}.d{opacity:.38}.e{font-size:5.145px}.f{font-size:10.75px}.g{fill:#acbfbf}]]></style><path d="M512.8 184.2s-5.4-5-15.1 8.4c-9.7 13.3-13.8 21.2-13.8 21.2s-2.4 2.7-4.2.4-3.7-8.4-7.4-7.9c-3.8.5-5.7 4.4-6 10.5s-1.3 19.6-1.4 20.8-1 2.8-2.5 1.4-9.2-13.4-14.7-9.3c-5.5 4-3.4 21.3-3.2 23.1.2 1.9-.3 2.6-1.2 2.9s-3.2-4-5.5-7.3-5.7-6.8-8.6-4.2c-3 2.6-5.7 14.8 2.9 36.8l4.6 9.9 10.9 1.1c23.6 1 34.2-5.6 35.7-9.3 1.5-3.6-2.8-5.6-6.7-6.8-3.9-1.1-8.7-1.8-8.7-2.8s.5-1.7 2.4-2.1c1.8-.4 18.8-4.1 20.8-10.5 2-6.5-11.8-9.9-13.6-10.8s-.6-2.4.5-2.8c1.1-.5 13.5-5.9 19.2-8.1s8.8-5.3 8-9.1c-.8-3.7-7.2-3.5-9.9-4.4-2.8-.9-1-4.1-1-4.1s6.1-6.5 15.6-20c9.4-13.5 2.8-17.1 2.8-17.1" fill="#ececec"/><g fill="#e1e1e1"><path d="M437.6 288.8l27.5-38.4 27.6-38.4 8.3-11.7 2.3-3.2c.3-.3.5-.6.6-.8s.2-.3.2-.3-.1.1-.2.3-.3.5-.6.8l-2.2 3.2c-1.9 2.8-4.7 6.8-8.2 11.7l-27.5 38.4-27.6 38.4"/><path d="M474.7 214.9s.1.3.2.8.2 1.2.3 2.1l.7 7.1.5 7.1.2 2.1v.8s-.1-.3-.2-.8-.2-1.2-.3-2.1l-1.2-14.2-.2-2.1v-.8zm2.8 20.3c0-.1 5.1-.8 11.5-1.6 6.3-.8 11.5-1.3 11.5-1.2s-5.1.8-11.5 1.6-11.5 1.3-11.5 1.2zm-17.7 22.2a4.53 4.53 0 0 0 .8.1l2.2.3 7.2 1 7.2.7 2.2.2c.5 0 .8.1.8.1h-.8c-.5 0-1.3 0-2.2-.1l-7.2-.6-7.2-1.1-2.2-.5c-.5 0-.8 0-.8-.1zm-6.5-17.8a10.59 10.59 0 0 0 .3.7c.2.4.5 1.1.8 1.9l2.4 6.2 2.3 6.3.7 1.9c.2.5.2.7.2.7s-.1-.2-.3-.7c-.2-.4-.5-1.1-.8-1.9l-2.4-6.2-2.3-6.3-.7-1.9c-.2-.5-.3-.7-.2-.7zm-18.1 17.6s.2.3.4.9c.3.6.6 1.4 1 2.4l3.2 8 3.1 8 .9 2.4.3.9s-.2-.3-.4-.9c-.3-.6-.6-1.4-1-2.4l-3.2-8-3.1-8-.9-2.4c-.2-.5-.3-.9-.3-.9zm8.8 22s.4 0 1 .1l2.8.3 9.1 1 9.2.7 2.8.2c.7 0 1 .1 1 .1h-1c-.7 0-1.6 0-2.8-.1l-9.2-.6-9.1-1.1-2.8-.5c-.6 0-1-.1-1-.1z"/></g><path d="M423.6 295.1H156.2c-14.3 0-26-11.6-26-26V126.4c0-14.3 11.6-26 26-26h267.4c14.3 0 26 11.6 26 26v142.7c-.1 14.4-11.7 26-26 26z" fill="#153f9c"/><path d="M417.2 275.4H162.6c-12.9 0-23.4-10.5-23.4-23.4V131.8c0-12.9 10.5-23.4 23.4-23.4h254.6c12.9 0 23.4 10.5 23.4 23.4V252a23.37 23.37 0 0 1-23.4 23.4z" fill="#9dd2f2"/><defs><path id="A" d="M417.2 275.4H162.6c-12.9 0-23.4-10.5-23.4-23.4V131.8c0-12.9 10.5-23.4 23.4-23.4h254.6c12.9 0 23.4 10.5 23.4 23.4V252a23.37 23.37 0 0 1-23.4 23.4z"/><path id="B" d="M416.6 275.5H162c-12.9 0-23.4-10.5-23.4-23.4V131.8c0-12.9 10.5-23.4 23.4-23.4h254.6c12.9 0 23.4 10.5 23.4 23.4v120.3c0 12.9-10.5 23.4-23.4 23.4z"/><path id="C" d="M143.4 137.4h4.7v4.7h-4.7z"/><path id="D" d="M151.4 137.4h27.7v4.7h-27.7z"/><path id="E" d="M193.9 137.4h33.2v4.7h-33.2z"/><path id="F" d="M285.2 137.4h39.9v4.7h-39.9z"/><path id="G" d="M383.9 137.4h41.2v4.7h-41.2z"/><path id="H" d="M89.2 128.5H99v9.8h-9.8z"/><path id="I" d="M105.9 128.5h57.9v9.8h-57.9z"/><path id="J" d="M194.7 128.5h69.4v9.8h-69.4z"/><path id="K" d="M385.6 128.5h83.3v9.8h-83.3z"/></defs><clipPath id="L"><use xlink:href="#A"/></clipPath><g clip-path="url(#L)"><g fill="#f5f5f5"><path d="M125 201.8l-12.6-.5v22.6l13.9-2.8-1.3-19.3zm-5.8-91.6l-6.8.2v88.7l12.5.5-5.7-89.4zm7.1 112.1l-13.9 2.8v41.5l16.7-.5zm194.6-18.2l45.6 7.9 1.5-20.6h-47.1zm-176.4-95.8L135.8 86l-15.9-.1 1.5 23.1zm3.6-.1l42.4-1.2h15l-2.2-20.7-63.9-.3 8.7 22.2zm90.8-1.2l2.7-20.6-34.9-.1 2.2 20.7zm-34 153.2l-12.2-.8-2.6-24.3-9.6 1.9 2 27.5 13.8-.4 9.2 2.2zm-26-43.7l1.5 19.3 21.6-4.2-1.7-16.9zm-2.2.1l-18 1.5-24.8 2.7-5.4 1 2.8 44.3 49-1.5zm85-76.1l-2.9 1.7-19.9-34.1h-47.2l2.5 36 7 69.4 30.9-2.5 8.7-66.3 3.3.4-8.6 65.6 52.4-4.3-6.2-64.9 2.2-.2 6.2 64.9 27.3-2.2v-62.4l-10-54.8-62.4-.3-2.7 20.8 19.4 33.2zm-65.5-28.9h40.4l14.8 27.8-53.2 3.6-2-31.4zm8.4 146.4l-2.5-25.3-9.8 1.9 2.4 22.6zm-71.3-55.8l-6.1-.2 1.2 18.8 4.8-1 .1-17.6zm187.6-40.5l15 3.3v25.2h32.2l5.9-78.7h-30.3l-5.5-24.7-27.2-.1 9.9 54.5zm89.6 52.6l2.8-.7 11.9 30.1 39.3-19.6c-.1-.4-.1-.7-.1-1.1l.2-33.2-55 .9.9 23.6zm21.1 45.6h53.6l.1-21.9c0-4.1-3.4-7.4-7.7-7.4h-5.5c-2.6 0-5-1.3-6.3-3.2L426.5 247l5.1 12.9zm-2.3-113.1l56.5-2.5v-6.1l.1-23.8-50.5-10.1-6.1 42.5zm50.8-5.4l-46 .8 4.6-31.6 41.4 6.9v23.9zm-51 6.6h-.5l-20.8.2 1.7 41.4 55-.9.1-25.1c0-4.1 3.5-7.4 7.8-7.4h5.5c4.3 0 7.8-3.3 7.8-7.4v-3.5l-56.6 2.7zm6.8-47.1l50 10c-.2-13-10.8-23.5-23.9-23.6l-24.9-.1.7.1-1.9 13.6zm-61.7 7.2l1.6-21.1-34.2-.1 4.8 21.2zm60.6-7.4l1.9-13.4-55.3-.3-.2 2.9zm-286.1 42.5l44.4.4-2.5-35.5-43.5 1.3zm10.3 6.6L134.9 200l31.4 1.1.1 1.1 1.1.5c-.4.7-.4.7-11.1.3l-21.9-.8v17.4l24.1-2.6 41.6-3.4-6.6-65.6-34.6 1.8zm73.6 123l5.9-.5-6.3-60.2-30.8 2.5 5.2 52zm100-82.6v-22.4l-11.7-2.6v25zm-4 73.3l3.9-56.3-13.3-2.3-28.9 2.4 5.7 59.4 32.6-3.2zm-9.3-54.2l8.4 3-3.1 48.9-24 2.8-6.3-53.1 25-1.6zm-51 60.1l25.5-2.5-5.7-59.4-27.2 2.2zM119.1 109.1L117.7 86l1.5-.1h-6.8v23.4zm325.2 182.8l-.9.3 17.7.1c13.3.1 24-10.6 24.1-23.9v-7.5H432l12.3 31zm-310.6-92l24.6-51.3 35.2-1.8-.2-2.1-45.6-.4-1.7-34.9h-1l-23.5.7 5.7 89.5 6.5.3zm9.4-88.3l3.4 48.9-14.8 31.8-4.4-80.7h15.8zm242.1 165.8l12.4 2.1c6.6-18.4 25.7-19.7 31.5-19.6l-4.7-12-36.3 18.1-2.9 11.4zm-149.6-65.6l2.6 25 22.1-4.9-2.7-21.9zm130.5 51.8l.1-46.6.2-3.9-30.5-5.3-3.9 55.4 13.3-1.3 19.7 5.5zm5.7-1.1l14.6.6 36.8-18.3-11.3-28.4-40.2 9.8v36.3zm46.9-18.9l-32 16.8-10-2.4 1.1-28.8L408 222l10.7 21.6zm-222.9 26.2l-28.7.8 1.1 20.2-1.1.1-1.1-20.3-34.3 1.1 1.2 19.1-2.3.1-1.2-19.2-17 .6v18.6l95.6.4-1.9-19.1zm232.4-123l6.1-42.8L381 93.3l-4 53.7c8.2.2 33.4.1 51.2-.2zm-56.4 70.5v6.5l37.6-9.2-1-23.8-34.7.5zM85 85.8h-8.6H85zm291.9 62.3l-3.1 42.1 34.6-.6-1.7-41.4c-11.7.1-24.2.1-29.8-.1zm-112 121.6l-4.5-36.7-22.1 4.9 3.6 34zm133.9 10l14 2.4-.8 10.1 30.1.1-12.5-31.3c-21.1-.6-28.6 12.7-30.8 18.7zm-54-12.1l-13.1 1.3-1.6 22.9 27.1.1 6.1-19.1zm-112.6 10.9l-25-6 1.9 18.8 26.2.1 3.3-13.5-6.4.6zm139.1-12.6l-8.2 26 14.8.1 6.7-25.6zm-129.2 11.7c-.3 2.1-1.2 6.1-3.2 13.8l57.3.2-1.8-19.1-52.3 5.1zm54.5-5.3l1.9 19.4 28.2.1 1.5-22.6zm101.5 9.5c-1.1 3.7-2 7.1-2.6 10.3l14.2.1.6-8.2-12.2-2.2zm-13.5-2.2l-3.2 12.5 12.9.1c.6-3.2 1.5-6.7 2.7-10.4l-12.4-2.2z"/></g><path d="M119.1 109.1l-6.8.2v1.1l6.8-.2 5.7 89.4-12.5-.5v2.3l12.6.5 1.2 19.3-13.9 2.8v1.1l13.9-2.8 2.8 43.8-16.7.5v5.6l17.1-.5 1.2 19.2 2.2-.1-1.2-19.1 34.3-1 1.1 20.3 1.1-.1-1.1-20.2 28.7-.9 10.3 2.5 1.9 19.1h1.1l-1.9-18.8 25 6 6.4-.6c-.5 2.7-1.8 7.7-3.3 13.5h3.5c2-7.8 2.9-11.7 3.2-13.8l52.3-5.1 1.8 19.1h2.3l-1.9-19.4 31.6-3.1-1.6 22.6h3.4l1.6-22.9 13.2-1.3 18.4 5.1-6.1 19.2h5.9l8.2-26.1 13.2.5-6.6 25.6h3.5l3.2-12.5 12.3 2.1c-1.1 3.7-2 7.2-2.7 10.4h1.2c.6-3.2 1.5-6.6 2.6-10.3l12.3 2.1-.6 8.2h2.3l.8-10.1-14-2.4c2.3-6 9.7-19.3 30.9-18.6l12.4 31.3h1.4l.9-.3-11.9-30.8h53.2v-1.1h-53.6l-5.2-13 39.3-19.6c-.7-.9-1.1-2-1.3-3.1l-39.3 19.6-11.9-30.1-2.8.7-1-23.6 55-.9v-1.1l-55 .9-1.7-41.4 20.8-.2h.5l56.6-2.5v-1.1l-56.5 2.5 6.1-42.6 50.5 10.1v-3.4l-50-10 1.9-13.5-.7-.1h-.4l-1.9 13.4-53.6-10.8.2-2.9h-5.6l-1.6 21.1h-27.8l-4.8-21.2H338l5.6 24.6H374l-5.8 78.8H336V165l-15-3.3v-20.5l-10-54.5h-3.4l10 54.8V204l-27.3 2.2-6.2-64.9-2.2.2 6.2 64.9-52.4 4.3 8.6-65.6-3.3-.4-8.7 66.3-30.9 2.5-7-69.4-2.5-36h47.2l19.9 34.1 2.9-1.7-19.4-33.3 2.7-20.8h-3.4l-2.7 20.6h-30l-2.2-20.7h-3.4l2.2 20.7h-15l-42.5 1.2-8.8-22.2h-3.6l8.8 22.3-23.1.7-1.5-23.1h-.7l-1.5.1 1.3 23.1zm8.2 92.8c2 .1 4 .2 6.1.2v17.6l-4.8 1-1.3-18.8zm1.2 19.9l5.4-1.1 24.7-2.6 18-1.5 3.6 47.9-49 1.5-2.7-44.2zm73.6 10.9l2.5 25.2-9.9-.7-2.4-22.6 9.8-1.9zm-.1-1.1l-21.6 4.2-1.5-19.4 21.4-1.8 1.7 17zm-19.5 32.9l-2.1-27.6 9.6-1.9 2.6 24.3 12.2.9.6 6.1-9.1-2.2-13.8.4zm77.8-32.6l-22.1 4.9-2.6-25 22-1.8 2.7 21.9zm-22 6l22.1-4.9 4.5 36.7-23.1 2.2-3.5-34zm93.7 25.3l3.8-55.4 30.6 5.3-.3 3.9v46.7l-1.2 3.7-19.6-5.5-13.3 1.3zm97.2-3.3c-5.8-.1-25 1.2-31.5 19.6l-12.4-2.1 3-11.4 36.3-18.1 4.6 12zm-6-15.2L386.4 263l-14.6-.6V226l40.2-9.8 11.2 28.5zm-13.8-30.1l-37.7 9.2v-6.5l1.9-25.9 34.8-.6 1 23.8zm-1-25l-34.6.6 3.1-42.1c5.6.2 18.1.1 29.8.1l1.7 41.4zm25.9-85.6l-6.1 42.8-51.2.2 4-53.7 53.3 10.7zm-67.8 108l-45.6-7.9v-12.7H368l-1.5 20.6zm-33.9-44.2v22.5H321v-25l11.6 2.5zm-13.4 37.1l13.3 2.3-3.9 56.3-32.6 3.2-5.7-59.4 28.9-2.4zm-25.4 62l-25.5 2.5-7.4-59.7 27.2-2.2 5.7 59.4zm-61.6-54.8l6.3 60.2-5.9.6-26-6.3-5.2-52 30.8-2.5zm-73.7 4.9l-24.1 2.6v-17.4l21.9.8c10.7.4 10.7.4 11.1-.3l-1.1-.5-.1-1.1c-.9.1-15.6-.5-31.4-1.1l24.1-50.2 34.6-1.8 6.6 65.6-41.6 3.4zm34.6-73.4l-44.4-.4-1.6-33.8 43.5-1.3 2.5 35.5zM145 109.5h1l1.7 34.9 45.6.4.2 2.1-35.2 1.8-24.6 51.3-6.6-.3-5.7-89.5 23.6-.7z" class="a"/><g fill="#ececec"><path d="M146.5 160.5l-3.4-48.9h-15.7l4.4 80.7zm178.1 100.7l3.1-48.9-8.4-3-25.1 1.7 6.3 53.1zm109.5-119l46-.8v-23.9l-41.4-6.9zM376.8 258l9.9 2.4 32-16.8-10.6-21.5-30.3 7.1zM236.6 111.6c-1.5.3-40.4 0-40.4 0l2 31.4 53.2-3.6-14.8-27.8z"/></g></g><path d="M300.8 288.8H279c-1.4 0-2.5-1.1-2.5-2.5v-.2c0-1.4 1.1-2.5 2.5-2.5h21.8c1.4 0 2.5 1.1 2.5 2.5v.2c0 1.4-1.1 2.5-2.5 2.5z" fill="#2a66c6"/><path d="M475.9 348v6.7a5.59 5.59 0 0 1-5.6 5.6H109.2a5.59 5.59 0 0 1-5.6-5.6v-6.3c.3 3.5 3.2 6.5 7.1 6.5h358.1c4 0 7-3.3 7.1-6.9z" fill="#afc7d3"/><path d="M468.8 354.9H110.7c-5.3 0-8.7-5.6-6.3-10.3l23.7-45.8c1.2-2.4 3.6-3.8 6.3-3.8h310.2c2.6 0 5 1.5 6.3 3.8l24.2 45.8c2.4 4.6-1 10.3-6.3 10.3z" fill="#969696"/><path d="M460.7 349.9H118.1c-5.1 0-7.1-4-4.8-8.1l21.4-40.8c1.2-2 3.5-3.3 6-3.3h296.8c2.5 0 4.8 1.3 6 3.3l21.6 40.2c2.4 4 .7 8.7-4.4 8.7z" fill="#2e3192"/><path d="M103.7 347.2v1.2c-.1-.4-.1-.8 0-1.2z" fill="#1f57b5"/><path d="M442.7 305.9H137.8l1.2-2.2h302.5zm3.3 6.3H134.5l1.2-2.2h309.1zm3.4 6.3H131.2l1.2-2.2h315.8zm3.3 6.3H127.8l1.2-2.2h322.5zm3.3 6.3H124.5l1.2-2.3h329.1zm3.4 6.3H121.2l1.2-2.3h335.8zm3.3 6.3H117.8l1.2-2.3h342.5z" opacity=".21" fill="#9dd2f2"/><use xlink:href="#B" fill="#ec008c"/><use xlink:href="#B" class="a"/><path d="M148.4 122.6h281v10h-281z" class="b"/><text transform="translate(152.587 128.866)" class="a c e">PICKUP TIME</text><text transform="translate(195.295 128.866)" class="a c e">DELIVERY TYPE</text><text transform="translate(240.376 128.866)" class="a c e">SENDER NAME</text><text transform="translate(282.195 128.866)" class="a c e">SENDER MOBILE NO.</text><text transform="translate(337.36 128.866)" class="a c e">SENDER ADDRESS</text><text transform="translate(383.924 128.866)" class="a c e">SENDER LATTITUDE</text><g class="g"><use xlink:href="#C"/><use xlink:href="#C" y="12"/><use xlink:href="#C" y="24"/><use xlink:href="#C" y="36"/><use xlink:href="#C" y="48"/><use xlink:href="#C" y="60"/><use xlink:href="#C" y="72"/><use xlink:href="#C" y="84"/><use xlink:href="#C" y="96"/><use xlink:href="#C" y="108"/><use xlink:href="#C" y="120"/></g><g class="b d"><use xlink:href="#D"/><use xlink:href="#D" y="12"/><use xlink:href="#D" y="24"/><use xlink:href="#D" y="36"/><use xlink:href="#D" y="48"/><use xlink:href="#D" y="60"/><use xlink:href="#D" y="72"/><use xlink:href="#D" y="84"/><use xlink:href="#D" y="96"/><use xlink:href="#D" y="108"/><use xlink:href="#D" y="120"/></g><g class="b d"><use xlink:href="#E"/><use xlink:href="#E" y="12"/><use xlink:href="#E" y="24"/><use xlink:href="#E" y="36"/><use xlink:href="#E" y="48"/><use xlink:href="#E" y="60"/><use xlink:href="#E" y="72"/><use xlink:href="#E" y="84"/><use xlink:href="#E" y="96"/><use xlink:href="#E" y="108"/><use xlink:href="#E" y="120"/></g><g class="b d"><use xlink:href="#E" x="45.7"/><use xlink:href="#E" x="45.7" y="12"/><use xlink:href="#E" x="45.7" y="24"/><use xlink:href="#E" x="45.7" y="36"/><use xlink:href="#E" x="45.7" y="48"/><use xlink:href="#E" x="45.7" y="60"/><use xlink:href="#E" x="45.7" y="72"/><use xlink:href="#E" x="45.7" y="84"/><use xlink:href="#E" x="45.7" y="96"/><use xlink:href="#E" x="45.7" y="108"/><use xlink:href="#E" x="45.7" y="120"/></g><g class="b d"><use xlink:href="#F"/><use xlink:href="#F" y="12"/><use xlink:href="#F" y="24"/><use xlink:href="#F" y="36"/><use xlink:href="#F" y="48"/><use xlink:href="#F" y="60"/><use xlink:href="#F" y="72"/><use xlink:href="#F" y="84"/><use xlink:href="#F" y="96"/><use xlink:href="#F" y="108"/><use xlink:href="#F" y="120"/></g><g class="b d"><use xlink:href="#F" x="51.4"/><use xlink:href="#F" x="51.4" y="12"/><use xlink:href="#F" x="51.4" y="24"/><use xlink:href="#F" x="51.4" y="36"/><use xlink:href="#F" x="51.4" y="48"/><use xlink:href="#F" x="51.4" y="60"/><use xlink:href="#F" x="51.4" y="72"/><use xlink:href="#F" x="51.4" y="84"/><use xlink:href="#F" x="51.4" y="96"/><use xlink:href="#F" x="51.4" y="108"/><use xlink:href="#F" x="51.4" y="120"/></g><g class="b d"><use xlink:href="#G"/><use xlink:href="#G" y="12"/><use xlink:href="#G" y="24"/><use xlink:href="#G" y="36"/><use xlink:href="#G" y="48"/><use xlink:href="#G" y="60"/><use xlink:href="#G" y="72"/><use xlink:href="#G" y="84"/><use xlink:href="#G" y="96"/><use xlink:href="#G" y="108"/><use xlink:href="#G" y="120"/></g><path d="M151.9 115.1h25.5v3.3h-25.5zm30.5 0h25.5v3.3h-25.5zm30.5 0h59.3v3.3h-59.3zm61.8 0H334v3.3h-59.3zm63.6 0h18.5v3.3h-18.5zm22.8 0h10v3.3h-10zm13.5 0h37v3.3h-37z" fill="#b7e291"/><circle cx="185.3" cy="127.9" r="90.3" fill="#153f9c"/><linearGradient id="M" gradientUnits="userSpaceOnUse" x1="81.837" y1="127.935" x2="290.546" y2="127.935"><stop offset="0" stop-color="#acbfbf"/><stop offset="1"/></linearGradient><circle cx="186.2" cy="127.9" r="104.4" fill="url(#M)"/><defs><circle id="N" cx="186.7" cy="126.7" r="90.3"/></defs><clipPath id="O"><use xlink:href="#N"/></clipPath><g clip-path="url(#O)"><g class="a"><path d="M18-15.2h332.1V231H18z"/><path d="M685.6 417.1h-583c-12.9 0-23.4-10.5-23.4-23.4V91.4c0-12.9 10.5-23.4 23.4-23.4h583c12.9 0 23.4 10.5 23.4 23.4v302.3c-.1 12.9-10.5 23.4-23.4 23.4z"/></g><path d="M99.7 97.5h587.2v20.9H99.7z" class="b"/><text transform="translate(108.383 110.662)" class="a c f">PICKUP TIME</text><text transform="translate(197.628 110.662)" class="a c f">DELIVERY TYPE</text><text transform="translate(291.833 110.662)" class="a c f">SENDER NAME</text><text transform="translate(379.218 110.662)" class="a c f">SENDER MOBILE NO.</text><text transform="translate(494.494 110.662)" class="a c f">SENDER ADDRESS</text><g class="g"><use xlink:href="#H"/><path d="M89.2 153.6H99v9.8h-9.8zm0 25.1H99v9.8h-9.8zm0 25.1H99v9.8h-9.8zm0 25H99v9.8h-9.8zm0 25.1H99v9.8h-9.8zm0 25.1H99v9.8h-9.8zm0 25.1H99v9.8h-9.8zm0 25.1H99v9.8h-9.8zm0 25H99v9.8h-9.8zm0 25.1H99v9.8h-9.8z"/></g><g class="b d"><use xlink:href="#I"/><path d="M105.9 153.6h57.9v9.8h-57.9zm0 25.1h57.9v9.8h-57.9zm0 25.1h57.9v9.8h-57.9zm0 25h57.9v9.8h-57.9zm0 25.1h57.9v9.8h-57.9zm0 25.1h57.9v9.8h-57.9zm0 25.1h57.9v9.8h-57.9zm0 25.1h57.9v9.8h-57.9zm0 25h57.9v9.8h-57.9zm0 25.1h57.9v9.8h-57.9z"/></g><g class="b d"><use xlink:href="#J"/><path d="M194.7 153.6h69.4v9.8h-69.4zm0 25.1h69.4v9.8h-69.4zm0 25.1h69.4v9.8h-69.4zm0 25h69.4v9.8h-69.4zm0 25.1h69.4v9.8h-69.4zm0 25.1h69.4v9.8h-69.4zm0 25.1h69.4v9.8h-69.4zm0 25.1h69.4v9.8h-69.4zm0 25h69.4v9.8h-69.4zm0 25.1h69.4v9.8h-69.4z"/></g><g class="b d"><path d="M290.1 128.5h69.4v9.8h-69.4zm0 25.1h69.4v9.8h-69.4zm0 25.1h69.4v9.8h-69.4zm0 25.1h69.4v9.8h-69.4zm0 25h69.4v9.8h-69.4zm0 25.1h69.4v9.8h-69.4zm0 25.1h69.4v9.8h-69.4zm0 25.1h69.4v9.8h-69.4zm0 25.1h69.4v9.8h-69.4zm0 25h69.4v9.8h-69.4zm0 25.1h69.4v9.8h-69.4z"/></g><g class="b d"><use xlink:href="#K"/><path d="M385.6 153.6h83.3v9.8h-83.3zm0 25.1h83.3v9.8h-83.3zm0 25.1h83.3v9.8h-83.3zm0 25h83.3v9.8h-83.3zm0 25.1h83.3v9.8h-83.3zm0 25.1h83.3v9.8h-83.3zm0 25.1h83.3v9.8h-83.3zm0 25.1h83.3v9.8h-83.3zm0 25h83.3v9.8h-83.3zm0 25.1h83.3v9.8h-83.3z"/></g><g class="b d"><path d="M492.8 128.5h83.3v9.8h-83.3zm0 25.1h83.3v9.8h-83.3zm0 25.1h83.3v9.8h-83.3zm0 25.1h83.3v9.8h-83.3zm0 25h83.3v9.8h-83.3zm0 25.1h83.3v9.8h-83.3zm0 25.1h83.3v9.8h-83.3zm0 25.1h83.3v9.8h-83.3zm0 25.1h83.3v9.8h-83.3zm0 25h83.3v9.8h-83.3zm0 25.1h83.3v9.8h-83.3z"/></g><g fill="#b7e291"><path d="M107 81.9h53.3v6.8H107zm63.7 0H224v6.8h-53.3zm63.8 0h123.8v6.8H234.5zm129 0h123.8v6.8H363.5zm133 0h38.7v6.8h-38.7z"/></g></g><linearGradient id="P" gradientUnits="userSpaceOnUse" x1="15.726" y1="68.967" x2="41.726" y2="68.967" gradientTransform="matrix(0.6364 0.7713 -0.4662 0.3847 72.4556 178.7863)"><stop offset="0" stop-color="#1b75bc"/><stop offset="1" stop-color="#acbfbf"/></linearGradient><path d="M17.8 272.8L6.4 258.9c-1.4-1.7-1.2-4.2.5-5.6l86.8-71.6c1.7-1.4 4.2-1.2 5.6.5l11.5 13.9c1.4 1.7 1.2 4.2-.5 5.6l-86.8 71.6c-1.7 1.4-4.3 1.1-5.7-.5z" fill="url(#P)"/><path d="M17.8 272.8l-5.1-6.2 92.9-76.7 5.1 6.2c1.4 1.7 1.2 4.2-.5 5.6l-86.8 71.6c-1.6 1.4-4.2 1.1-5.6-.5z" opacity=".24" class="g"/><circle cx="186.2" cy="127.1" r="91.3" fill="none" stroke="#a97c50"/></svg>