<svg xmlns="http://www.w3.org/2000/svg" xmlns:xlink="http://www.w3.org/1999/xlink" viewBox="0 0 804 418"><defs><style>.cls-1{isolation:isolate;}.cls-19,.cls-2,.cls-22{fill:#fff;}.cls-3{fill:url(#linear-gradient);}.cls-4{fill:#fcb616;}.cls-5{fill:#1368b1;}.cls-6{fill:url(#linear-gradient-2);}.cls-7{fill:url(#linear-gradient-3);}.cls-8{fill:url(#linear-gradient-4);}.cls-19,.cls-21,.cls-9{mix-blend-mode:soft-light;}.cls-10{fill:url(#linear-gradient-5);}.cls-11{fill:url(#linear-gradient-6);}.cls-12{fill:url(#linear-gradient-7);}.cls-13{fill:url(#linear-gradient-8);}.cls-14{fill:url(#linear-gradient-9);}.cls-15{fill:#999;}.cls-15,.cls-16,.cls-17,.cls-19,.cls-20{stroke:#fff;stroke-miterlimit:10;}.cls-15,.cls-16,.cls-17,.cls-20{stroke-width:0.5px;}.cls-16{fill:url(#linear-gradient-10);}.cls-17{fill:url(#linear-gradient-11);}.cls-18{fill:url(#linear-gradient-12);}.cls-19{stroke-width:0.75px;}.cls-19,.cls-21{opacity:0.5;}.cls-20{fill:url(#linear-gradient-13);}.cls-22{font-size:27px;font-family:Roboto-Medium, Roboto;}</style><linearGradient id="linear-gradient" x1="460.2" y1="176.12" x2="745" y2="176.12" gradientUnits="userSpaceOnUse"><stop offset="0" stop-color="#00adee"/><stop offset="1" stop-color="#1368b1"/></linearGradient><linearGradient id="linear-gradient-2" x1="5208.66" y1="176.35" x2="5178.25" y2="179.66" gradientTransform="matrix(-1, 0, 0, 1, 5825.92, 0)" gradientUnits="userSpaceOnUse"><stop offset="0" stop-color="#444b8c"/><stop offset="1" stop-color="#26264f"/></linearGradient><linearGradient id="linear-gradient-3" x1="5235.45" y1="99.7" x2="5160.26" y2="355.67" xlink:href="#linear-gradient-2"/><linearGradient id="linear-gradient-4" x1="5207.27" y1="93.39" x2="5118.9" y2="332.72" gradientTransform="matrix(-1, 0, 0, 1, 5825.92, 0)" gradientUnits="userSpaceOnUse"><stop offset="0" stop-color="#ffc444"/><stop offset="1" stop-color="#f36f56"/></linearGradient><linearGradient id="linear-gradient-5" x1="5223.02" y1="99.23" x2="5170.22" y2="231.75" gradientTransform="matrix(-1, 0, 0, 1, 5825.92, 0)" gradientUnits="userSpaceOnUse"><stop offset="0" stop-color="#311944"/><stop offset="1" stop-color="#6b3976"/></linearGradient><linearGradient id="linear-gradient-6" x1="5241.59" y1="100.36" x2="5188.79" y2="232.88" xlink:href="#linear-gradient-5"/><linearGradient id="linear-gradient-7" x1="5270.35" y1="118.08" x2="5217.55" y2="250.61" xlink:href="#linear-gradient-5"/><linearGradient id="linear-gradient-8" x1="5231.17" y1="102.47" x2="5178.37" y2="234.99" xlink:href="#linear-gradient-5"/><linearGradient id="linear-gradient-9" x1="5269.14" y1="117.6" x2="5216.34" y2="250.12" xlink:href="#linear-gradient-5"/><linearGradient id="linear-gradient-10" x1="5242.51" y1="99.76" x2="5189.71" y2="232.28" gradientTransform="matrix(-1, 0, 0, 1, 5825.92, 0)" gradientUnits="userSpaceOnUse"><stop offset="0" stop-color="#ff9085"/><stop offset="1" stop-color="#fb6fbb"/></linearGradient><linearGradient id="linear-gradient-11" x1="553.97" y1="227.13" x2="642.13" y2="227.13" xlink:href="#linear-gradient"/><linearGradient id="linear-gradient-12" x1="5166.78" y1="313.06" x2="5191.62" y2="215.74" gradientTransform="matrix(-1, 0, 0, 1, 5825.92, 0)" gradientUnits="userSpaceOnUse"><stop offset="0" stop-color="#f36f56"/><stop offset="1" stop-color="#ffc444"/></linearGradient><linearGradient id="linear-gradient-13" x1="5208.35" y1="323.68" x2="5233.19" y2="226.36" xlink:href="#linear-gradient-12"/></defs><title>Feature icons and des</title><g class="cls-1"><g id="Layer_1" data-name="Layer 1"><circle class="cls-2" cx="615.36" cy="176.02" r="139.45" transform="translate(55.77 486.68) rotate(-45)"/><rect class="cls-2" x="167.67" y="90.74" width="359.15" height="81.73" rx="29.28" ry="29.28"/><path class="cls-3" d="M737.42,244.08A139.46,139.46,0,1,1,615.68,36.58c1.44,0,2.86,0,4.28.06-4.89-6.71-8.93-12-11.91-15.91C525.85,24.72,460.2,92.85,460.2,176c0,85.74,69.75,155.49,155.48,155.49A155.46,155.46,0,0,0,745,262.26Q741.27,253,737.42,244.08Z"/><circle class="cls-4" cx="614.34" cy="177.48" r="117.41"/><path class="cls-4" d="M586.33,246.24c-12.14,6.47-20.44,16.43-26.09,28.79-.62,1.38-1.16,2.79-1.75,4.18,0,.08-.17.1-.49.28a106.47,106.47,0,0,1-22.56-16.16c-19.62-18.14-32.06-40.39-36.23-66.73-5.52-34.84,2.71-66.41,25.2-93.8a113.15,113.15,0,0,1,66.26-40,116.54,116.54,0,0,1,124.75,55.69c.46.78.79,1.63,1.17,2.45l-1.2.15c-12.88,1.32-22.55,9.52-25.12,21.3s2.7,23.19,13.9,29.84c.42.25.82.55,1.31.89L701,181.9a101.75,101.75,0,0,0,11-5.2,9.17,9.17,0,0,1,3.65-1.27c5.18-.1,10.36,0,15.54.06,1.18,51-31.66,89.81-60.79,103.84C665,265.39,656.43,254,643.16,246.6l-3-1.66c1.23-1.56,2.77-3,3.62-4.72a2.79,2.79,0,0,1,3-1.77c5.06,0,10.12.13,15.17-.09,8.19-.35,15.26-7.83,15.31-15.94,0-3.74,0-7.48.16-11.22.09-2.79.32-5.58.49-8.37,6.68-1.28,12.42-7.38,13.92-14.78a19,19,0,0,0-8.3-19.42l-2.18-1.83q0-21.68,0-43.37c.6-1.06,1.14-2.16,1.81-3.17a22.46,22.46,0,0,0,2-2.62A6.77,6.77,0,0,0,673,111.75c-1.81,3.51-.43,7.18,3.53,9.33,0,1.12.1,2.24.11,3.35q.06,20.31.11,40.6l-3.15,0C660.73,130.63,623,114.33,589.28,129c-16.21,7-27.4,19.23-33.61,35.87l-.62.69.05-.07-2.92.09-.13-43.93a11.06,11.06,0,0,1,.9-.79c3.83-2.83,4.7-7.37,2-10.5a7,7,0,0,0-10-.21c-3.08,3.19-2.57,7.32,1.2,10.51a7.35,7.35,0,0,1,1.27,2.17q0,22,.07,44l-2.09,1.84a17.2,17.2,0,0,0-2.47,1.71c-5.5,5.35-7.42,11.83-5.43,19.21,1.93,7.17,6.77,11.61,13.91,13.57l.21,19.28c0,7.87,6.87,15.48,14.69,15.86,5.94.29,11.91.06,17.64.06.85,1.47,1.42,2.66,2.18,3.71a37,37,0,0,0,2.58,2.89Z"/><path class="cls-4" d="M555.67,164.86l-.62.69Z"/><path class="cls-4" d="M662.69,179l-.48-1.83Z"/><path class="cls-4" d="M566.49,178.4l-.36,1.25Z"/><path class="cls-4" d="M663.2,182.22c-.09-.44-.18-.88-.28-1.32Z"/><path class="cls-4" d="M565.91,181.5c-.09.46-.19.91-.28,1.37C565.72,182.41,565.82,182,565.91,181.5Z"/><path class="cls-5" d="M198.09,115.42h7.8q5.18,0,5.18,5.49v9.5q0,5.44-5.13,5.44h-3.57v11.6h-4.28ZM202.37,132h2.72c1.13,0,1.7-.62,1.7-1.87v-8.92a1.68,1.68,0,0,0-1.92-1.88h-2.5Z"/><path class="cls-5" d="M214.46,147.45v-32h10.61v3.88h-6.33V129h5.62v3.88h-5.62v10.66h6.33v3.88Z"/><path class="cls-5" d="M228.15,115.42h8.39q4.91,0,4.9,5.49v7.89c0,2.8-.84,4.57-2.54,5.31l3,13.34h-4.06L235,134.51h-2.59v12.94h-4.28Zm4.28,15.44h2.81c1.28,0,1.92-.78,1.92-2.32v-6.92c0-1.54-.64-2.32-1.92-2.32h-2.81Z"/><path class="cls-5" d="M253.22,124v-2.81a1.68,1.68,0,0,0-1.88-1.92h-.67c-1.21,0-1.82.64-1.82,1.92v5.31a1.55,1.55,0,0,0,.35,1.2,9.62,9.62,0,0,0,1.16.81l4.06,2.18a21.86,21.86,0,0,1,1.9,1.18,3.17,3.17,0,0,1,.87,1,5.82,5.82,0,0,1,.31,2.3v6.82q0,5.4-5.18,5.4h-2.63q-5.13,0-5.13-5.89V140h4.29v1.74a1.67,1.67,0,0,0,1.91,1.88h.76c1.13,0,1.7-.63,1.7-1.88v-5.44a1.56,1.56,0,0,0-.36-1.2,8.09,8.09,0,0,0-1.16-.8L247.64,132a13,13,0,0,1-1.94-1.2,2.79,2.79,0,0,1-.87-1.27,6.35,6.35,0,0,1-.27-2v-6.56q0-5.49,5.13-5.49h2.68q5.13,0,5.13,5.49V124Z"/><path class="cls-5" d="M266,147.45c-3.45,0-5.18-1.82-5.18-5.44v-21.1q0-5.49,5.13-5.49h4.11c3.41,0,5.13,1.83,5.13,5.49V142c0,3.62-1.73,5.44-5.18,5.44Zm1-3.88h2.19c1.13,0,1.69-.63,1.69-1.88V121.18A1.68,1.68,0,0,0,269,119.3h-2a1.66,1.66,0,0,0-1.87,1.88v20.51A1.67,1.67,0,0,0,267,143.57Z"/><path class="cls-5" d="M287.87,130.9V115.42h4.28v32h-4.28v-6.38l-4.59-14.59v21H279v-32h4.28Z"/><path class="cls-5" d="M300.23,147.45h-4.29V120.91q0-5.49,5.13-5.49h3.21q5.13,0,5.13,5.49v26.54h-4.28V135.72h-4.9Zm4.9-15.61V121.18a1.66,1.66,0,0,0-1.87-1.88H302.1a1.66,1.66,0,0,0-1.87,1.88v10.66Z"/><path class="cls-5" d="M323.37,147.45H313.2v-32h4.29v28.15h5.88Z"/><path class="cls-5" d="M325.83,147.45v-32h4.28v32Z"/><path class="cls-5" d="M337.51,143.57h7.23v3.88H332.87l-.31-1.52,6.73-26.58h-6v-3.93H343l.89,1.83Z"/><path class="cls-5" d="M347.19,147.45v-32H357.8v3.88h-6.33V129h5.62v3.88h-5.62v10.66h6.33v3.88Z"/><path class="cls-5" d="M360.88,147.45v-32h7.45q6,0,6,6.16v21.23q0,4.63-5.13,4.64Zm4.28-3.88h3.22c1.13,0,1.69-.48,1.69-1.43V121.62c0-1.54-.64-2.32-1.92-2.32h-3Z"/><path class="cls-5" d="M389.34,147.45h-4.28V120.91c0-3.66,1.7-5.49,5.13-5.49h3.21c3.41,0,5.13,1.83,5.13,5.49v26.54h-4.29V135.72h-4.9Zm4.9-15.61V121.18a1.66,1.66,0,0,0-1.87-1.88h-1.16a1.66,1.66,0,0,0-1.87,1.88v10.66Z"/><path class="cls-5" d="M402.32,115.42h7.8q5.17,0,5.18,5.49v9.5c0,3.63-1.72,5.44-5.13,5.44H406.6v11.6h-4.28ZM406.6,132h2.72c1.13,0,1.69-.62,1.69-1.87v-8.92a1.68,1.68,0,0,0-1.91-1.88h-2.5Z"/><path class="cls-5" d="M418.68,115.42h7.81q5.17,0,5.17,5.49v9.5q0,5.44-5.13,5.44H423v11.6h-4.29ZM423,132h2.72c1.13,0,1.69-.62,1.69-1.87v-8.92a1.68,1.68,0,0,0-1.92-1.88H423Z"/><path class="cls-6" d="M581,99.73l-18.53,154a4.05,4.05,0,0,0,3.54,4.6l77.16,8.47c4.73.29,7.32-2.12,7.61-4.58L670.19,98.5c.29-2.44-2-4.65-6.78-4.65l-77.86,1.64A4.91,4.91,0,0,0,581,99.73Z"/><path class="cls-7" d="M577.48,99.47,558.86,254.22a4.07,4.07,0,0,0,3.55,4.62l80,8a4.67,4.67,0,0,0,5.1-4L667.06,98.22A3.88,3.88,0,0,0,663,93.84L582.1,95.2A4.94,4.94,0,0,0,577.48,99.47Z"/><path class="cls-2" d="M579,108,561.74,251.49a3.8,3.8,0,0,0,3.32,4.31l75.24,7.31a4.37,4.37,0,0,0,4.74-3.76l18.07-152a3.64,3.64,0,0,0-3.79-4.11l-76,.81A4.58,4.58,0,0,0,579,108Z"/><path class="cls-8" d="M619.34,99.36a1.27,1.27,0,0,0,1.32,1.47,1.77,1.77,0,0,0,1.69-1.51A1.28,1.28,0,0,0,621,97.85,1.76,1.76,0,0,0,619.34,99.36Z"/><g class="cls-9"><path class="cls-2" d="M592,204.32c15.4-28.48,38.41-37,45.33-66.35,3.75-15.86,1.2-31-3.1-43.65L663,93.84a3.88,3.88,0,0,1,4.08,4.38L647.5,262.77a4.67,4.67,0,0,1-5.1,4l-62.88-6.26C579.06,235,585.14,217,592,204.32Z"/></g><path class="cls-10" d="M575.27,109.91l74.89,1a4.2,4.2,0,0,1,4.18,4.83l-1.48,12.43a5.38,5.38,0,0,1-5.32,4.67l-74.8-1.68a4,4,0,0,1-3.88-4.69l1.42-12A5.16,5.16,0,0,1,575.27,109.91Z"/><path class="cls-11" d="M565.49,132.55l74.79,1.85a4.26,4.26,0,0,1,4.18,4.88L643,151.71a5.3,5.3,0,0,1-5.32,4.61L563,153.77a4.09,4.09,0,0,1-3.88-4.75l1.43-12A5.08,5.08,0,0,1,565.49,132.55Z"/><path class="cls-12" d="M564.33,201.63l74.52,4a4.42,4.42,0,0,1,4.17,5l-4.62,38.72a5,5,0,0,1-5.29,4.42l-74.34-5.6a4.29,4.29,0,0,1-3.85-4.93L559.37,206A4.89,4.89,0,0,1,564.33,201.63Z"/><path class="cls-13" d="M639.55,199.84l-30.4-1.57a4.29,4.29,0,0,1-4-4.92L608,169.17a5.15,5.15,0,0,1,5.16-4.52l30.45,1.12a4.31,4.31,0,0,1,4.17,4.94l-2.93,24.61A5.17,5.17,0,0,1,639.55,199.84Z"/><path class="cls-14" d="M568.93,163l29.27,1.08a4.2,4.2,0,0,1,4,4.84l-2.88,24.12a5,5,0,0,1-5.1,4.44L565,196a4.17,4.17,0,0,1-3.86-4.83L564,167.46A5,5,0,0,1,568.93,163Z"/><path class="cls-15" d="M574.35,109.3l74.89,1a4.22,4.22,0,0,1,4.19,4.84l-1.49,12.43a5.36,5.36,0,0,1-5.31,4.66l-74.81-1.67a4,4,0,0,1-3.88-4.7l1.43-12A5.15,5.15,0,0,1,574.35,109.3Z"/><path class="cls-16" d="M564.58,132l74.78,1.84a4.27,4.27,0,0,1,4.18,4.89l-1.48,12.43a5.28,5.28,0,0,1-5.31,4.61l-74.7-2.55a4.08,4.08,0,0,1-3.87-4.75l1.42-12A5.08,5.08,0,0,1,564.58,132Z"/><path class="cls-17" d="M563.41,201l74.53,4a4.42,4.42,0,0,1,4.16,5l-4.62,38.72a5,5,0,0,1-5.28,4.42l-74.34-5.6A4.29,4.29,0,0,1,554,242.7l4.44-37.31A4.9,4.9,0,0,1,563.41,201Z"/><path class="cls-18" d="M638.63,199.24l-30.39-1.57a4.3,4.3,0,0,1-4-4.93l2.88-24.17a5.14,5.14,0,0,1,5.16-4.52l30.44,1.11a4.34,4.34,0,0,1,4.18,5l-2.94,24.6A5.18,5.18,0,0,1,638.63,199.24Z"/><path class="cls-19" d="M638.63,199.24l-30.39-1.57a4.3,4.3,0,0,1-4-4.93l2.88-24.17a5.14,5.14,0,0,1,5.16-4.52l30.44,1.11a4.34,4.34,0,0,1,4.18,5l-2.94,24.6A5.18,5.18,0,0,1,638.63,199.24Z"/><path class="cls-20" d="M568,162.42l29.26,1.08a4.19,4.19,0,0,1,4,4.84l-2.87,24.12a5,5,0,0,1-5.11,4.44l-29.21-1.51a4.17,4.17,0,0,1-3.87-4.82l2.83-23.71A5,5,0,0,1,568,162.42Z"/><g class="cls-21"><path class="cls-2" d="M639.36,133.79a4.27,4.27,0,0,1,4.18,4.89l-1.48,12.43a5.28,5.28,0,0,1-5.31,4.61l-52.5-1.79c5.65-7.83,13-13.89,17.47-21.07Z"/></g><g class="cls-21"><path class="cls-2" d="M594.81,202.73l43.13,2.33a4.42,4.42,0,0,1,4.16,5l-4.62,38.72a5,5,0,0,1-5.28,4.42l-33.43-2.52a55.77,55.77,0,0,0,4.09-20C603,218.76,599,210.41,594.81,202.73Z"/></g><g class="cls-21"><path class="cls-2" d="M586.64,172.42a37.55,37.55,0,0,1,2.72-9.22l7.92.3a4.19,4.19,0,0,1,4,4.84l-2.87,24.12a5,5,0,0,1-5.11,4.44l-1.67-.09C587.9,189.63,585.06,182.36,586.64,172.42Z"/></g><g class="cls-21"><path class="cls-2" d="M615.63,118.59a28.09,28.09,0,0,0-2.19-8.79l35.8.46a4.22,4.22,0,0,1,4.19,4.84l-1.49,12.43a5.36,5.36,0,0,1-5.31,4.66L613,131.44A23.47,23.47,0,0,0,615.63,118.59Z"/></g><text class="cls-22" transform="translate(49.2 233.96)">Quixx offers a personalized app<tspan x="0" y="32.4">for any delivery service provider</tspan><tspan x="0" y="64.8">company. The app will be based</tspan><tspan x="0" y="97.2">on a specifc company’s name and</tspan><tspan x="0" y="129.6">facilities.</tspan></text></g></g></svg>