<svg id="Layer_1" data-name="Layer 1" xmlns="http://www.w3.org/2000/svg" xmlns:xlink="http://www.w3.org/1999/xlink" viewBox="0 0 804 418"><defs><style>.cls-1,.cls-9{fill:#fff;}.cls-2{fill:url(#linear-gradient);}.cls-3{fill:#fcb616;}.cls-4{fill:#1368b1;}.cls-5{fill:#1369b2;}.cls-6{fill:url(#linear-gradient-2);}.cls-7{fill:url(#linear-gradient-3);}.cls-8{fill:#04a0e3;}.cls-9{font-size:27px;font-family:Roboto-Medium, Roboto;}</style><linearGradient id="linear-gradient" x1="476.44" y1="202.99" x2="761.24" y2="202.99" gradientUnits="userSpaceOnUse"><stop offset="0" stop-color="#00adee"/><stop offset="1" stop-color="#1368b1"/></linearGradient><linearGradient id="linear-gradient-2" x1="631.06" y1="113.8" x2="579.01" y2="228.65" gradientUnits="userSpaceOnUse"><stop offset="0" stop-color="#faebd7"/><stop offset="1" stop-color="#e8d0ba"/></linearGradient><linearGradient id="linear-gradient-3" x1="585.73" y1="164.11" x2="633.98" y2="164.11" xlink:href="#linear-gradient"/></defs><title>Feature icons and des</title><circle class="cls-1" cx="631.6" cy="202.89" r="139.45" transform="translate(41.53 506.03) rotate(-45)"/><rect class="cls-1" x="135.44" y="117.61" width="407.62" height="81.73" rx="29.28" ry="29.28"/><path class="cls-2" d="M753.67,271A139.46,139.46,0,1,1,631.92,63.45c1.44,0,2.86,0,4.29.06-4.89-6.71-8.94-12-11.92-15.91-82.2,4-147.85,72.12-147.85,155.29,0,85.74,69.75,155.49,155.48,155.49a155.46,155.46,0,0,0,129.32-69.25Q757.51,279.91,753.67,271Z"/><circle class="cls-3" cx="630.58" cy="204.35" r="117.41"/><path class="cls-3" d="M602.57,273.11c-12.14,6.47-20.44,16.43-26.09,28.79-.62,1.38-1.16,2.79-1.75,4.18,0,.07-.16.1-.49.28a106.47,106.47,0,0,1-22.56-16.16c-19.62-18.14-32.06-40.39-36.23-66.73-5.52-34.84,2.71-66.41,25.2-93.8a113.15,113.15,0,0,1,66.26-40,116.54,116.54,0,0,1,124.75,55.69c.46.78.79,1.63,1.18,2.45l-1.21.15c-12.88,1.32-22.55,9.52-25.12,21.3s2.7,23.19,13.9,29.84c.42.25.82.55,1.31.89l-4.48,8.75a100.85,100.85,0,0,0,11-5.2,9.16,9.16,0,0,1,3.66-1.27c5.17-.1,10.35,0,15.53.06,1.18,51-31.66,89.81-60.79,103.84-5.4-13.94-13.92-25.32-27.19-32.73l-3-1.66c1.24-1.56,2.77-3,3.62-4.72a2.79,2.79,0,0,1,3-1.77c5.06,0,10.12.13,15.18-.09,8.19-.35,15.25-7.83,15.3-15.94,0-3.74,0-7.48.16-11.22.09-2.79.32-5.58.49-8.37,6.68-1.28,12.42-7.38,13.92-14.78a19,19,0,0,0-8.3-19.42l-2.17-1.83q0-21.67,0-43.37c.59-1.06,1.13-2.16,1.81-3.17a22.36,22.36,0,0,0,2-2.62,6.77,6.77,0,0,0-12.18-5.89c-1.81,3.51-.42,7.18,3.53,9.33,0,1.12.11,2.24.11,3.35q.06,20.3.11,40.6l-3.15,0C677,157.5,639.22,141.2,605.52,155.86c-16.21,7-27.4,19.23-33.61,35.87l-.62.69.05-.07-2.92.09-.13-43.93a11.06,11.06,0,0,1,.9-.79c3.83-2.83,4.7-7.37,2-10.5a7,7,0,0,0-10-.21c-3.08,3.19-2.57,7.32,1.21,10.51a7.63,7.63,0,0,1,1.26,2.16q0,22,.07,44l-2.09,1.84a17.2,17.2,0,0,0-2.47,1.71c-5.49,5.35-7.42,11.83-5.43,19.21,1.93,7.17,6.77,11.61,13.91,13.57l.21,19.28c0,7.87,6.88,15.48,14.69,15.86,5.94.29,11.91.06,17.64.06a42.6,42.6,0,0,0,2.19,3.71,36.86,36.86,0,0,0,2.57,2.89Z"/><path class="cls-3" d="M571.91,191.73l-.62.69Z"/><path class="cls-3" d="M678.93,205.91l-.48-1.83Z"/><path class="cls-3" d="M582.73,205.27l-.36,1.25Z"/><path class="cls-3" d="M679.44,209.09l-.27-1.32Z"/><path class="cls-3" d="M582.15,208.37c-.09.46-.19.91-.28,1.37C582,209.28,582.06,208.83,582.15,208.37Z"/><path class="cls-4" d="M168.16,141.08h9.08q5.32,0,5.32,5.94v8.55q0,4.55-2.76,5.75L183,175.77h-4.4l-3-14h-2.8v14h-4.64Zm4.64,16.72h3c1.39,0,2.08-.84,2.08-2.51V147.8c0-1.68-.69-2.52-2.08-2.52h-3Z"/><path class="cls-4" d="M186.42,175.77V141.08h11.5v4.2h-6.86v10.54h6.09V160h-6.09v11.55h6.86v4.2Z"/><path class="cls-4" d="M216.28,141.08l-5.6,34.69h-5.51l-5.61-34.69h4.59l3.77,26.48,3.77-26.48Z"/><path class="cls-4" d="M218.46,175.77V141.08H230v4.2h-6.86v10.54h6.09V160h-6.09v11.55H230v4.2Z"/><path class="cls-4" d="M242.9,157.85V141.08h4.64v34.69H242.9v-6.91l-5-15.8v22.71h-4.64V141.08h4.64Z"/><path class="cls-4" d="M267,141.08V169.2q0,6.57-5.6,6.57h-3.91q-5.56,0-5.56-6.62V141.08h4.64V169.3c0,1.51.67,2.27,2,2.27h1.88c1.26,0,1.89-.76,1.89-2.27V141.08Z"/><path class="cls-4" d="M271.31,175.77V141.08h11.5v4.2H276v10.54H282V160H276v11.55h6.86v4.2Z"/><path class="cls-4" d="M293.87,141.08h8.46q5.6,0,5.6,5.94v10.29q0,5.9-5.55,5.9h-3.87v12.56h-4.64ZM298.51,159h2.95c1.22,0,1.83-.68,1.83-2v-9.67a1.81,1.81,0,0,0-2.07-2h-2.71Z"/><path class="cls-4" d="M311.6,141.08h9.09q5.31,0,5.31,5.94v8.55q0,4.55-2.75,5.75l3.23,14.45h-4.39l-3-14h-2.8v14H311.6Zm4.64,16.72h3.05c1.38,0,2.07-.84,2.07-2.51V147.8q0-2.52-2.07-2.52h-3.05Z"/><path class="cls-4" d="M329.87,175.77V141.08h11.5v4.2H334.5v10.54h6.09V160H334.5v11.55h6.87v4.2Z"/><path class="cls-4" d="M344.7,175.77V141.08h8.07q6.53,0,6.52,6.67v23q0,5-5.56,5Zm4.64-4.2h3.48c1.22,0,1.83-.52,1.83-1.55V147.8c0-1.68-.69-2.52-2.08-2.52h-3.23Z"/><path class="cls-4" d="M363.4,175.77V141.08H368v34.69Z"/><path class="cls-4" d="M386.25,167.65v2.23q0,5.9-5.56,5.89h-3q-5.56,0-5.56-5.89V147q0-5.89,5.56-5.9h3q5.56,0,5.56,5.9v3.91h-4.64v-3.58a1.82,1.82,0,0,0-2.08-2h-.91c-1.23,0-1.84.68-1.84,2v22.23c0,1.35.61,2,1.84,2h1.15c1.23,0,1.84-.68,1.84-2v-1.89Z"/><path class="cls-4" d="M397.26,145.28v30.49h-4.63V145.28h-4.45v-4.2h13.53v4.2Z"/><path class="cls-4" d="M404.37,175.77V141.08H409v34.69Z"/><path class="cls-4" d="M418.71,175.77q-5.59,0-5.6-5.89V147q0-5.94,5.56-5.94h4.44q5.56,0,5.56,5.94v22.86q0,5.9-5.61,5.89Zm1.12-4.2h2.36c1.23,0,1.84-.68,1.84-2V147.31a1.82,1.82,0,0,0-2.08-2h-2.17a1.79,1.79,0,0,0-2,2v22.23A1.82,1.82,0,0,0,419.83,171.57Z"/><path class="cls-4" d="M442.39,157.85V141.08H447v34.69h-4.64v-6.91l-5-15.8v22.71h-4.64V141.08h4.64Z"/><path class="cls-5" d="M693.08,145l-1-5a1.37,1.37,0,0,0-.66-.94h0l-2.6-1.59,0,0-.13-.07h0l-.08,0-.08,0h0a1.13,1.13,0,0,0-.18,0H688a1,1,0,0,0-.3,0l-1.21.29c-.27-.55-.57-1.09-.89-1.61l2.22-2.05a1.5,1.5,0,0,0,.13-2.11l-3.36-3.71a1.54,1.54,0,0,0-.32-.25h0l-2.6-1.58,0,0-.13-.06h0l-.07,0-.09,0h0l-.18,0h-.22l-.2,0h0a1.39,1.39,0,0,0-.19.06h0l0,0-.06,0-.07,0-.06,0h0l-.15.1h0l-.12.1-2.11,2-.86-.53.92-2.76a1.43,1.43,0,0,0-.61-1.7h0l-2.6-1.58,0,0-.11,0h0l-.12,0,0,0-4.81-1.41a1.38,1.38,0,0,0-.45,0l-.23,0-.07,0-.14,0h0l-.19.08h0l-.14.09,0,0h0l-.15.13h0l0,0a.3.3,0,0,0-.08.08l0,0-.05.07,0,.07,0,0-.06.11,0,.06,0,.1-.93,2.79c-.58-.06-1.17-.1-1.77-.11l-.24-1.19a1.36,1.36,0,0,0-.65-.93h0l-2.6-1.59,0,0a.34.34,0,0,0-.12-.06h0a.19.19,0,0,0-.08,0l-.07,0h0l-.18,0h-.22a1.57,1.57,0,0,0-.3,0l-4.93,1.23-.13,0h0l-.21.1h0l-.16.1h0l0,0a.41.41,0,0,0-.1.09l0,0a0,0,0,0,0,0,0,.43.43,0,0,0-.09.1l0,0h0a1.3,1.3,0,0,0-.1.15,0,0,0,0,0,0,0v0c0,.07-.07.14-.1.2h0a1.21,1.21,0,0,0-.05.18v0a1.62,1.62,0,0,0,0,.19h0V123a.64.64,0,0,0,0,.2L655,126l-.85.4-.13.06c-.27.13-.53.27-.79.41L653,127l-.19.1-.42.25-.27.16-.06,0,0,0a1.52,1.52,0,0,0-.32-.26h0l-2.6-1.58,0,0-.13-.06h0l-.07,0-.09,0h0a.51.51,0,0,0-.17,0h-.22l-.2,0h0l-.18,0h0l0,0-.06,0-.06,0-.06,0h0l-.14.09h0l-.12.1-3.73,3.52,0,0,0,0-.09.09v0l0,0-.08.13s0,0,0,0h0a1.14,1.14,0,0,0-.1.19v0a.58.58,0,0,0-.06.17h0a.57.57,0,0,0,0,.18.11.11,0,0,0,0,0c0,.05,0,.1,0,.15v0a1.1,1.1,0,0,0,0,.18v0a.57.57,0,0,0,0,.14v.05l.06.16,0,0a.54.54,0,0,0,.07.13l0,.05a.76.76,0,0,0,.11.14l1.88,2.1-.54.74-.12.17-.5.76,0,.08-.28.45-.14.25c0,.07-.09.14-.13.22-.15.26-.3.53-.44.8l-2.7-.81a1.17,1.17,0,0,0-.45-.06.78.78,0,0,0-.22,0h-.07l-.13,0h0l-.18.08h0l-.17.11h0l-.14.12h0l0,0-.07.08,0,0-.05.07,0,.06s0,0,0,.05l-.06.11,0,.06,0,.1-1.58,4.85a1.42,1.42,0,0,0,.59,1.67l2.6,1.59-.05,0a1.49,1.49,0,0,0,.36.17h0c0,.41-.09.82-.11,1.24,0,.67,0,1.35,0,2l-2.81.68-.14,0a1,1,0,0,0-.21.1h0l-.15.1h0l0,0-.1.09h0l0,0-.09.1,0,0h0l-.1.15h0v0l-.1.2h0l-.06.17v0a1.13,1.13,0,0,0,0,.18h0a1.15,1.15,0,0,0,0,.19.06.06,0,0,0,0,0,.68.68,0,0,0,0,.2l1,4.9a1.4,1.4,0,0,0,.64.93l2.6,1.58h0a1.42,1.42,0,0,0,.79.21l.28,0,1.13-.27c.27.53.55,1,.86,1.54l-2.18,2,0,0,0,0-.08.09,0,0,0,0-.09.13a0,0,0,0,0,0,0h0a.66.66,0,0,0-.09.19s0,0,0,0v0l-.06.17h0l0,.18V163a.76.76,0,0,0,0,.15v0a1,1,0,0,0,0,.17.09.09,0,0,1,0,0l0,.14v0a1.11,1.11,0,0,0,.07.16v0c0,.05,0,.09.07.14l0,0a.81.81,0,0,0,.12.14l3.27,3.68a1.26,1.26,0,0,0,.31.26l2.6,1.59,0,0a1.42,1.42,0,0,0,1.74-.17l2.11-1.94.77.47-.93,2.82a1.47,1.47,0,0,0,.17,1.28,1.37,1.37,0,0,0,.43.4l2.6,1.59-.05,0a1.22,1.22,0,0,0,.36.18l4.73,1.48a1.29,1.29,0,0,0,.48.06,1.49,1.49,0,0,0,1.35-1l1-2.88c.55.07,1.11.12,1.68.14l.26,1.35a1.47,1.47,0,0,0,.65.94l2.59,1.57a1.37,1.37,0,0,0,.8.21l.28,0,4.94-1.14a1.51,1.51,0,0,0,1.15-1.77l-.59-3a23.51,23.51,0,0,0,2.84-1.42l.15.16a1.26,1.26,0,0,0,.31.26l2.6,1.59,0,0a1.44,1.44,0,0,0,.83.22,1.51,1.51,0,0,0,1-.39l3.83-3.49a1.5,1.5,0,0,0,.14-2.1l-2-2.21a25.43,25.43,0,0,0,2.25-3.44l2.86.87a1.59,1.59,0,0,0,.48.07,1.57,1.57,0,0,0,1.4-1.06l1.65-4.92a1.43,1.43,0,0,0-.62-1.71h0L689.27,151l0,0-.1-.05h0l-.13,0h0l-.14,0a22.8,22.8,0,0,0,.17-3.31l2.94-.71A1.55,1.55,0,0,0,693.08,145Zm-15.94-21.59h0ZM643.9,164.15v0h0v0h0Zm.1-.21a0,0,0,0,0,0,0h0A0,0,0,0,1,644,163.94Zm27.24-42h0l-.06,0Zm-13.79,1.42h0s0,0,0,0Zm-6.06,3.71h0Zm-.17,0h0Zm26.84,19.83c0,.17,0,.34,0,.51s0,.11,0,.17c0,.22,0,.44,0,.66a.5.5,0,0,1,0,.12l-.06.54a1.38,1.38,0,0,0,0,.2c0,.17-.06.34-.1.51a.78.78,0,0,0,0,.14l-.15.64s0,.1,0,.15-.09.33-.14.49l-.06.19c-.05.18-.11.35-.17.52l0,.11c-.08.2-.15.4-.24.6s-.06.14-.09.22-.11.27-.17.4l-.12.24c-.06.13-.12.26-.19.38l-.12.24-.21.38-.12.21c-.11.18-.22.36-.34.54a.43.43,0,0,1,0,.07c-.11.16-.21.32-.32.47l-.11.16-.32.43-.08.09c-.13.17-.27.33-.4.49l-.1.12-.38.41-.07.08c-.15.16-.3.31-.46.46l-.11.1-.4.37-.09.08-.49.41-.12.1-.42.31-.14.1c-.17.13-.35.25-.54.37l-.1.07-.46.28-.17.1-.4.22-.24.13-.43.21-.2.09-.65.28-.07,0-.59.22-.5.16-.25.08-.77.2a15.2,15.2,0,0,1-2.81.39h-1.44l-.41,0-.19,0-.54-.07h-.06l-.58-.1-.18,0-.41-.09-.2,0-.39-.11-.18-.05c-.16,0-.32-.09-.48-.15l-.08,0-.56-.2-.15-.06-.4-.16-.18-.09-.17-.08a14.14,14.14,0,0,1-5.23-8.49A15.54,15.54,0,0,1,663,134.35a15.19,15.19,0,0,1,3-.42,14.13,14.13,0,0,1,6.6,1.33,14.08,14.08,0,0,1,5.23,8.49c.05.23.08.45.12.68,0,.07,0,.13,0,.2s.05.34.07.51a1.1,1.1,0,0,0,0,.18c0,.23,0,.45,0,.67a.28.28,0,0,0,0,.09c0,.2,0,.39,0,.59Zm5.65-19.22h0Zm8,24.82,0,0a.05.05,0,0,0,0,0Z"/><path class="cls-1" d="M693.08,145a1.55,1.55,0,0,1-1.17,1.79l-2.94.71a23.13,23.13,0,0,1-.27,4.08l2.84.85a1.43,1.43,0,0,1,.92,1.85l-1.65,4.92a1.57,1.57,0,0,1-1.4,1.06,1.59,1.59,0,0,1-.48-.07l-2.86-.87a25.43,25.43,0,0,1-2.25,3.44l2,2.21a1.5,1.5,0,0,1-.14,2.1l-3.83,3.49a1.51,1.51,0,0,1-1,.39,1.44,1.44,0,0,1-1.12-.46l-2-2.21a24.09,24.09,0,0,1-3.6,1.88l.59,3a1.52,1.52,0,0,1-1.15,1.77L668.68,176l-.28,0a1.41,1.41,0,0,1-1.44-1.14l-.58-2.94-.36,0a21.51,21.51,0,0,1-3.6-.15l-1,2.88a1.48,1.48,0,0,1-1.35,1,1.32,1.32,0,0,1-.48-.06l-4.73-1.48a1.43,1.43,0,0,1-.91-1.83l1-2.86a22.17,22.17,0,0,1-3.29-2.11l-2.21,2a1.52,1.52,0,0,1-.93.39,1.4,1.4,0,0,1-1.09-.46l-3.28-3.68a1.5,1.5,0,0,1,.13-2.07l2.18-2a22.35,22.35,0,0,1-1.76-3.53l-2.83.68-.28,0a1.39,1.39,0,0,1-1.41-1.13l-1-4.9a1.52,1.52,0,0,1,1.12-1.76l2.81-.68a23.46,23.46,0,0,1,.23-4l-2.7-.82a1.42,1.42,0,0,1-.9-1.82l1.58-4.85a1.52,1.52,0,0,1,1.36-1.05,1.4,1.4,0,0,1,.45.06l2.7.81a24.74,24.74,0,0,1,2.2-3.47L646.17,133a1.49,1.49,0,0,1,.13-2.08l3.73-3.52a1.48,1.48,0,0,1,1-.41,1.39,1.39,0,0,1,1.07.45l1.87,2.08a24.66,24.66,0,0,1,3.61-2l-.56-2.81a1.55,1.55,0,0,1,1.14-1.79l4.93-1.24a1,1,0,0,1,.3,0,1.37,1.37,0,0,1,1.41,1.12l.56,2.82.76,0a21.17,21.17,0,0,1,3.29.11l.93-2.8a1.54,1.54,0,0,1,1.4-1.07,1.38,1.38,0,0,1,.45.05l4.81,1.42a1.41,1.41,0,0,1,.92,1.83L677,128a21.22,21.22,0,0,1,3.39,2.13l2.2-2.05a1.53,1.53,0,0,1,1-.41,1.39,1.39,0,0,1,1.1.45l3.37,3.71a1.51,1.51,0,0,1-.14,2.11L685.64,136a22,22,0,0,1,1.78,3.61l2.92-.71a1.54,1.54,0,0,1,.3,0,1.4,1.4,0,0,1,1.45,1.14Zm-24.34,18.34a15.53,15.53,0,0,0,11.63-18,14.07,14.07,0,0,0-14.43-11.41,15.19,15.19,0,0,0-3,.42,15.54,15.54,0,0,0-11.48,17.93,14.08,14.08,0,0,0,14.43,11.41,15.4,15.4,0,0,0,2.81-.38Z"/><path class="cls-6" d="M661.38,167.36c0,26.75-22.44,47.79-51.13,47-29.85-.85-55-24.88-55-53.64s25.11-49.63,55-46.73C638.94,116.74,661.38,140.6,661.38,167.36Z"/><path class="cls-1" d="M657.52,167.11c0,24.73-20.78,44.13-47.27,43.3-27.48-.86-50.52-23-50.52-49.44s23-45.69,50.52-43.1C636.74,120.37,657.52,142.38,657.52,167.11Z"/><path class="cls-7" d="M610,126.29h0a2.77,2.77,0,0,1,2.55,2.64v4.55a78.13,78.13,0,0,1,8.47,1.37q3.12.69,6.21,1.63a2.66,2.66,0,0,1,1.94,2.73l-.6,5.71a2.3,2.3,0,0,1-3.28,1.78,37.19,37.19,0,0,0-4.16-1.45,40.82,40.82,0,0,0-7.86-1.37l-.72,0v13c7.35,1.92,12.75,4.5,16.24,7.74A15.78,15.78,0,0,1,634,176.69a15.42,15.42,0,0,1-5.76,12.56c-3.86,3.18-9.27,5-16.28,5.35v5a2.37,2.37,0,0,1-2.55,2.32h0a2.61,2.61,0,0,1-2.57-2.52v-5l-1.13,0a79.65,79.65,0,0,1-9.43-.94,64.94,64.94,0,0,1-6.52-1.4,2.62,2.62,0,0,1-2-2.7l.7-7.34a2.51,2.51,0,0,1,3.48-1.92,53.19,53.19,0,0,0,14.9,3.18l0-14.5c-7-1.63-12.34-4-15.81-7.23a16,16,0,0,1-5.24-12.31q0-7.75,5.68-11.95c3.76-2.79,9.11-4.17,16-4.17v-4.65A2.25,2.25,0,0,1,610,126.29Zm-2.56,17.4a9,9,0,0,0-5.1,1.68,4.75,4.75,0,0,0-1.83,3.91,5.09,5.09,0,0,0,1.69,3.89,12.36,12.36,0,0,0,5.24,2.49ZM611.94,170v13.3a8.23,8.23,0,0,0,5.46-1.58,5.5,5.5,0,0,0,1.9-4.48,5.92,5.92,0,0,0-1.76-4.38A13.26,13.26,0,0,0,611.94,170Z"/><path class="cls-1" d="M715.92,203.75l-11.58.45a1.77,1.77,0,0,0,.14,3.53l6.88-.27-47.29,47.21-32-27.1a1.7,1.7,0,0,0-2.33.12l-56.92,59.12-1.65-1.43c-.2,1.31-.41,2.62-.7,3.91l1.33,1.16a1.71,1.71,0,0,0,2.35-.11L631.1,231.2l32,27.08a1.67,1.67,0,0,0,2.27-.09l49-49,.28,7.33a1.77,1.77,0,0,0,3.53-.13l-.43-10.9A1.84,1.84,0,0,0,715.92,203.75Z"/><circle class="cls-1" cx="572.94" cy="288.17" r="6.58" transform="translate(-55.73 414.93) rotate(-38.1)"/><circle class="cls-1" cx="631.39" cy="230.3" r="6.58" transform="translate(192.11 738.94) rotate(-69.22)"/><circle class="cls-1" cx="664.43" cy="254.7" r="6.58"/><path class="cls-1" d="M601.07,237.85a20.19,20.19,0,1,0,20.15,20.31A20.18,20.18,0,0,0,601.07,237.85Z"/><path class="cls-8" d="M601.06,241.92a16.12,16.12,0,1,0,16.09,16.21A16.12,16.12,0,0,0,601.06,241.92Z"/><path class="cls-1" d="M596.66,249.55c-.94-1.82-.9-2.07,1.06-2.54a10.73,10.73,0,0,1,3.69-.31,4.41,4.41,0,0,1,3.67,6.42,10.18,10.18,0,0,1-1.51,2.43c-1.47,1.79-2.87,3.58-2.45,6-.17.12-.22.19-.28.2-2.21.25-2.62-.08-2.1-2.25a14.5,14.5,0,0,1,1.7-3.64c.54-1,1.33-1.77,1.85-2.73a2.94,2.94,0,0,0-.13-3.34,3,3,0,0,0-3.11-.94A21.25,21.25,0,0,0,596.66,249.55Z"/><path class="cls-1" d="M599.84,264.23a1.81,1.81,0,0,1,1.85,1.89,1.83,1.83,0,1,1-3.66.06A1.85,1.85,0,0,1,599.84,264.23Z"/><text class="cls-9" transform="translate(32.95 265.89)">As an AI-based software, Quixx<tspan x="0" y="32.4">will predict sales and revenue by</tspan><tspan x="0" y="64.8">thoroughly analyzing the company’s</tspan><tspan x="0" y="97.2">performance.</tspan></text></svg>