<svg width="665" height="421" viewBox="0 0 665 421" fill="none" xmlns="http://www.w3.org/2000/svg">
<path d="M594.79 418.36C573.2 408.53 564.28 384.53 560.91 362.1C560.35 358.35 559.22 354.51 560.39 350.91C561.56 347.31 565.27 344.33 568.89 345.28C571.89 346.07 573.69 349.06 575.73 351.43C578.451 354.595 582.011 356.928 586 358.16C588.6 358.95 591.67 359.16 593.77 357.44C596.65 355.07 596.21 350.57 595.5 346.87C594.166 339.983 592.85 333.093 591.55 326.2C590.84 322.51 590.13 318.73 590.63 315C591.13 311.27 593.08 307.54 596.42 305.91C599.76 304.28 604.48 305.5 605.9 308.98C606.336 310.486 606.67 312.019 606.9 313.57C607.29 315.09 608.32 316.66 609.9 316.81C611.48 316.96 612.74 315.65 613.65 314.36C616.78 309.92 618.48 304.63 620.02 299.36C621.56 294.09 623.02 288.79 625.71 284.08C628.4 279.37 632.63 275.24 637.87 273.96C643.11 272.68 649.37 274.91 651.67 279.87C653.97 284.83 651.91 290.69 649.38 295.53C645.621 302.7 640.849 309.291 635.21 315.1C634.21 316.15 633.09 317.28 632.9 318.73C632.55 321.35 635.34 323.36 637.9 323.73C640.83 324.13 643.77 323.3 646.72 323.1C649.67 322.9 653.03 323.6 654.62 326.1C656.84 329.6 654.41 334.1 651.77 337.32C646.502 343.692 640.172 349.105 633.06 353.32C630.53 354.82 627.82 356.23 625.98 358.55C624.14 360.87 623.43 364.44 625.24 366.8C627.05 369.16 630.6 369.37 633.36 368.31C636.12 367.25 638.36 365.24 640.91 363.71C645.64 360.85 652.27 359.98 656.34 363.78C659.02 366.27 659.95 370.26 659.5 373.91C658.89 377.532 657.557 380.995 655.58 384.09C649.2 395.16 640.18 404.79 629.14 411.09C618.1 417.39 607.37 420.49 594.85 418.37" fill="#C0F071"/>
<path d="M597.96 403.32C599.421 390.491 601.614 377.757 604.53 365.18C605.283 361.846 606.027 358.543 606.76 355.27C607.51 352.02 608.24 348.8 609.15 345.69C610.914 339.724 613.011 333.861 615.43 328.13C617.69 322.64 620.04 317.51 622.27 312.74C624.5 307.97 626.69 303.55 628.84 299.62C632.196 293.391 636.041 287.439 640.34 281.82C641.86 279.82 643.09 278.33 643.93 277.32L644.93 276.18C645.037 276.048 645.154 275.924 645.28 275.81C645.197 275.959 645.1 276.099 644.99 276.23L644.07 277.41C643.26 278.41 642.07 279.98 640.58 281.98C636.367 287.649 632.583 293.626 629.26 299.86C627.14 303.79 625 308.21 622.78 312.99C620.56 317.77 618.25 322.9 616 328.38C613.62 334.098 611.547 339.94 609.79 345.88C608.89 348.98 608.17 352.17 607.43 355.43C606.69 358.69 605.95 361.99 605.2 365.34C602.284 377.889 600.078 390.592 598.59 403.39" fill="#E0E0E0"/>
<path d="M609.34 345.63C609.077 345.148 608.859 344.643 608.69 344.12C608.31 343.12 607.8 341.68 607.2 339.89C605.99 336.3 604.5 331.29 602.87 325.76C601.24 320.23 599.69 315.24 598.43 311.68C597.81 309.9 597.29 308.46 596.92 307.48C596.69 306.979 596.522 306.452 596.42 305.91C596.718 306.371 596.969 306.86 597.17 307.37C597.62 308.37 598.17 309.75 598.89 311.51C600.27 315.04 601.89 320.02 603.54 325.56L607.67 339.74C608.17 341.44 608.6 342.88 608.95 344.03C609.14 344.547 609.27 345.084 609.34 345.63V345.63Z" fill="#E0E0E0"/>
<path d="M655.279 327.94C654.682 328.192 654.063 328.386 653.429 328.52C652.229 328.85 650.489 329.33 648.359 329.98C644.089 331.26 638.249 333.23 631.899 335.68C625.549 338.13 619.899 340.62 615.899 342.53C613.899 343.47 612.259 344.28 611.139 344.83C610.571 345.15 609.976 345.418 609.359 345.63C609.877 345.245 610.429 344.911 611.009 344.63C612.099 344 613.679 343.13 615.679 342.13C619.679 340.13 625.309 337.54 631.679 335.07C637.104 332.946 642.635 331.104 648.249 329.55C650.409 328.95 652.169 328.55 653.399 328.29C654.014 328.116 654.643 327.999 655.279 327.94V327.94Z" fill="#E0E0E0"/>
<path d="M598.39 402.33C598.39 402.33 598.22 402.17 597.95 401.81L596.82 400.24C595.82 398.87 594.48 396.86 592.82 394.34C589.52 389.34 585.18 382.23 580.49 374.34C575.8 366.45 571.49 359.34 568.33 354.25C566.77 351.78 565.49 349.74 564.53 348.25L563.53 346.61C563.397 346.425 563.289 346.223 563.21 346.01C563.378 346.161 563.523 346.336 563.64 346.53C563.95 346.95 564.32 347.47 564.77 348.1C565.77 349.47 567.11 351.48 568.77 354C572.08 359 576.42 366.11 581.11 374C585.8 381.89 590.11 389 593.26 394.1C594.83 396.57 596.11 398.6 597.06 400.1L598.06 401.74C598.196 401.921 598.307 402.119 598.39 402.33V402.33Z" fill="#E0E0E0"/>
<path d="M657.85 370.27C657.674 370.418 657.479 370.542 657.27 370.64L655.55 371.64L649.18 375.09C643.81 378 636.43 382.09 628.29 386.65C620.15 391.21 612.72 395.24 607.29 398.04C604.58 399.44 602.36 400.55 600.82 401.29L599.04 402.13C598.63 402.31 598.41 402.4 598.4 402.37C598.577 402.221 598.772 402.097 598.98 402L600.7 401L607.06 397.56C612.44 394.65 619.82 390.56 627.96 385.99C636.1 381.42 643.53 377.41 648.96 374.61C651.67 373.2 653.88 372.09 655.43 371.36L657.21 370.52C657.411 370.406 657.626 370.322 657.85 370.27V370.27Z" fill="#E0E0E0"/>
<path d="M3.27979 420.19C146.54 383.8 414.28 262.66 521.9 90.05L474.53 74.53L603.16 0.23999L615.46 125.71L565.34 110.93C565.34 110.93 387.34 374.13 132.93 420L3.27979 420.19Z" fill="#71A4F0"/>
<g opacity="0.8">
<path d="M3.33984 420C146.558 383.606 414.219 262.451 521.807 89.8207L474.451 74.2988L603.043 0L615.34 125.485L565.235 110.703C565.235 110.703 387.287 373.935 132.952 419.81L3.33984 420Z" fill="#FF9F46"/>
</g>
<path d="M294.32 344.8H255.26V420.01H294.32V344.8Z" fill="#7392E1"/>
<path opacity="0.5" d="M294.32 344.8H255.26V420.01H294.32V344.8Z" fill="black"/>
<path d="M272.86 344.8H238.63V420.01H272.86V344.8Z" fill="#7392E1"/>
<path d="M294.27 401.84C294.36 401.94 289.68 406.14 283.82 411.21C277.96 416.28 273.13 420.3 273.04 420.21C272.95 420.12 277.63 415.91 283.49 410.84C289.35 405.77 294.18 401.73 294.27 401.84Z" fill="#7392E1"/>
<path d="M294.09 383.51C294.18 383.61 289.5 387.81 283.64 392.87C277.78 397.93 272.95 401.97 272.86 401.87C272.77 401.77 277.45 397.57 283.31 392.5C289.17 387.43 294 383.4 294.09 383.51Z" fill="#7392E1"/>
<path d="M293.91 365.17C294 365.28 289.33 369.47 283.46 374.54C277.59 379.61 272.78 383.64 272.68 383.54C272.58 383.44 277.27 379.24 283.13 374.17C288.99 369.1 293.82 365.07 293.91 365.17Z" fill="#7392E1"/>
<path d="M294.34 346.22C294.43 346.33 289.75 350.53 283.87 355.61C277.99 360.69 273.16 364.73 273.07 364.61C272.98 364.49 277.67 360.3 283.54 355.22C289.41 350.14 294.22 346.11 294.34 346.22Z" fill="#7392E1"/>
<path d="M364.12 295.89H325.06V420.01H364.12V295.89Z" fill="#7392E1"/>
<path opacity="0.5" d="M364.12 295.89H325.06V420.01H364.12V295.89Z" fill="black"/>
<path d="M341.93 295.89H308.44V420.01H341.93V295.89Z" fill="#7392E1"/>
<path d="M364.03 401.84C364.12 401.94 359.44 406.14 353.58 411.21C347.72 416.28 342.89 420.3 342.8 420.21C342.71 420.12 347.39 415.91 353.25 410.84C359.11 405.77 363.94 401.73 364.03 401.84Z" fill="#7392E1"/>
<path d="M363.85 383.51C363.95 383.61 359.27 387.81 353.41 392.87C347.55 397.93 342.72 401.97 342.63 401.87C342.54 401.77 347.21 397.57 353.07 392.5C358.93 387.43 363.76 383.4 363.85 383.51Z" fill="#7392E1"/>
<path d="M363.68 365.17C363.77 365.28 359.09 369.47 353.23 374.54C347.37 379.61 342.54 383.64 342.45 383.54C342.36 383.44 347.03 379.24 352.9 374.17C358.77 369.1 363.59 365.07 363.68 365.17Z" fill="#7392E1"/>
<path d="M364.08 346.22C364.17 346.33 359.48 350.53 353.61 355.61C347.74 360.69 342.89 364.73 342.8 364.61C342.71 364.49 347.4 360.3 353.27 355.22C359.14 350.14 363.98 346.11 364.08 346.22Z" fill="#7392E1"/>
<path d="M364.08 324.23C364.17 324.33 359.48 328.54 353.61 333.62C347.74 338.7 342.89 342.74 342.8 342.62C342.71 342.5 347.4 338.31 353.27 333.23C359.14 328.15 363.98 324.12 364.08 324.23Z" fill="#7392E1"/>
<path d="M361.59 304.39C361.68 304.49 357.59 308.22 352.36 312.7C347.13 317.18 342.89 320.7 342.8 320.64C342.71 320.58 346.8 316.81 352.03 312.32C357.26 307.83 361.5 304.28 361.59 304.39Z" fill="#7392E1"/>
<path d="M442.98 251.18H403.92V420.01H442.98V251.18Z" fill="#7392E1"/>
<path opacity="0.5" d="M442.98 251.18H403.92V420.01H442.98V251.18Z" fill="black"/>
<path d="M420.78 251.18H387.29V420.01H420.78V251.18Z" fill="#7392E1"/>
<path d="M442.88 401.84C442.98 401.94 438.3 406.14 432.43 411.21C426.56 416.28 421.75 420.3 421.65 420.21C421.55 420.12 426.24 415.91 432.1 410.84C437.96 405.77 442.79 401.73 442.88 401.84Z" fill="#7392E1"/>
<path d="M442.71 383.51C442.8 383.61 438.12 387.81 432.26 392.87C426.4 397.93 421.57 401.97 421.48 401.87C421.39 401.77 426.06 397.57 431.93 392.5C437.8 387.43 442.61 383.4 442.71 383.51Z" fill="#7392E1"/>
<path d="M442.53 365.17C442.62 365.28 437.94 369.47 432.08 374.54C426.22 379.61 421.39 383.64 421.3 383.54C421.21 383.44 425.89 379.24 431.75 374.17C437.61 369.1 442.44 365.07 442.53 365.17Z" fill="#7392E1"/>
<path d="M442.93 346.22C443.02 346.33 438.33 350.53 432.46 355.61C426.59 360.69 421.75 364.73 421.65 364.61C421.55 364.49 426.25 360.3 432.13 355.22C438.01 350.14 442.84 346.11 442.93 346.22Z" fill="#7392E1"/>
<path d="M442.93 324.23C443.02 324.33 438.33 328.54 432.46 333.62C426.59 338.7 421.75 342.74 421.65 342.62C421.55 342.5 426.25 338.31 432.13 333.23C438.01 328.15 442.84 324.12 442.93 324.23Z" fill="#7392E1"/>
<path d="M442.93 304.23C443.02 304.34 438.33 308.54 432.46 313.63C426.59 318.72 421.75 322.74 421.65 322.63C421.55 322.52 426.25 318.32 432.13 313.23C438.01 308.14 442.84 304.13 442.93 304.23Z" fill="#7392E1"/>
<path d="M442.93 284.24C443.02 284.35 438.33 288.55 432.46 293.63C426.59 298.71 421.75 302.75 421.65 302.63C421.55 302.51 426.25 298.32 432.13 293.24C438.01 288.16 442.84 284.13 442.93 284.24Z" fill="#7392E1"/>
<path d="M442.93 264.25C443.02 264.35 438.33 268.56 432.46 273.64C426.59 278.72 421.75 282.76 421.65 282.64C421.55 282.52 426.25 278.33 432.13 273.25C438.01 268.17 442.84 264.14 442.93 264.25Z" fill="#7392E1"/>
<path d="M434.92 251.18C430.72 255.257 426.289 259.09 421.65 262.66C423.692 260.561 425.852 258.582 428.12 256.73C430.276 254.749 432.547 252.896 434.92 251.18V251.18Z" fill="#7392E1"/>
<path d="M521.83 195.03H482.77V420.01H521.83V195.03Z" fill="#7392E1"/>
<path opacity="0.5" d="M521.83 195.03H482.77V420.01H521.83V195.03Z" fill="black"/>
<path d="M499.63 195.03H466.14V420.01H499.63V195.03Z" fill="#7392E1"/>
<path d="M521.74 401.84C521.83 401.94 517.15 406.14 511.29 411.21C505.43 416.28 500.6 420.3 500.51 420.21C500.42 420.12 505.09 415.91 510.96 410.84C516.83 405.77 521.64 401.73 521.74 401.84Z" fill="#7392E1"/>
<path d="M521.56 383.51C521.65 383.61 516.97 387.81 511.11 392.87C505.25 397.93 500.42 401.97 500.33 401.87C500.24 401.77 504.91 397.57 510.78 392.5C516.65 387.43 521.47 383.4 521.56 383.51Z" fill="#7392E1"/>
<path d="M521.34 365.17C521.43 365.28 516.75 369.47 510.89 374.54C505.03 379.61 500.2 383.64 500.11 383.54C500.02 383.44 504.7 379.24 510.56 374.17C516.42 369.1 521.34 365.07 521.34 365.17Z" fill="#7392E1"/>
<path d="M521.78 346.22C521.87 346.33 517.18 350.53 511.31 355.61C505.44 360.69 500.6 364.73 500.51 364.61C500.42 364.49 505.1 360.3 510.98 355.22C516.86 350.14 521.69 346.11 521.78 346.22Z" fill="#7392E1"/>
<path d="M521.78 324.23C521.87 324.33 517.18 328.54 511.31 333.62C505.44 338.7 500.6 342.74 500.51 342.62C500.42 342.5 505.1 338.31 510.98 333.23C516.86 328.15 521.69 324.12 521.78 324.23Z" fill="#7392E1"/>
<path d="M521.17 302.51C521.26 302.61 516.71 306.76 511 311.76C505.29 316.76 500.6 320.76 500.51 320.64C500.42 320.52 504.96 316.39 510.67 311.38C516.38 306.37 521.08 302.4 521.17 302.51Z" fill="#7392E1"/>
<path d="M521.17 280.51C521.26 280.62 516.71 284.76 511 289.77C505.29 294.78 500.6 298.77 500.51 298.64C500.42 298.51 504.96 294.39 510.67 289.39C516.38 284.39 521.08 280.41 521.17 280.51Z" fill="#7392E1"/>
<path d="M521.17 258.52C521.26 258.62 516.71 262.76 511 267.77C505.29 272.78 500.6 276.77 500.51 276.65C500.42 276.53 504.96 272.4 510.67 267.39C516.38 262.38 521.08 258.41 521.17 258.52Z" fill="#7392E1"/>
<path d="M521.17 236.52C521.26 236.63 516.71 240.77 511 245.77C505.29 250.77 500.6 254.77 500.51 254.65C500.42 254.53 504.96 250.4 510.67 245.39C516.38 240.38 521.08 236.42 521.17 236.52Z" fill="#7392E1"/>
<path d="M521.17 214.52C521.26 214.63 516.71 218.77 511 223.78C505.29 228.79 500.6 232.78 500.51 232.65C500.42 232.52 504.96 228.41 510.67 223.4C516.38 218.39 521.08 214.42 521.17 214.52Z" fill="#7392E1"/>
<path d="M518.49 195.21C518.58 195.31 514.63 198.86 509.66 203.12C504.69 207.38 500.6 210.76 500.51 210.66C500.42 210.56 504.34 207 509.34 202.74C514.34 198.48 518.4 195.1 518.49 195.21Z" fill="#7392E1"/>
<path d="M600.68 154.66H561.62V420.01H600.68V154.66Z" fill="#7392E1"/>
<path opacity="0.5" d="M600.68 154.66H561.62V420.01H600.68V154.66Z" fill="black"/>
<path d="M578.48 154.66H544.99V420.01H578.48V154.66Z" fill="#7392E1"/>
<path d="M600.59 401.84C600.68 401.94 596 406.14 590.14 411.21C584.28 416.28 579.45 420.3 579.36 420.21C579.27 420.12 583.94 415.91 589.81 410.84C595.68 405.77 600.5 401.73 600.59 401.84Z" fill="#7392E1"/>
<path d="M600.41 383.51C600.5 383.61 595.82 387.81 589.96 392.87C584.1 397.93 579.27 401.97 579.18 401.87C579.09 401.77 583.77 397.57 589.63 392.5C595.49 387.43 600.34 383.4 600.41 383.51Z" fill="#7392E1"/>
<path d="M600.23 365.17C600.32 365.28 595.64 369.47 589.78 374.54C583.92 379.61 579.09 383.64 579 383.54C578.91 383.44 583.59 379.24 589.45 374.17C595.31 369.1 600.14 365.07 600.23 365.17Z" fill="#7392E1"/>
<path d="M600.63 346.22C600.72 346.33 596.03 350.53 590.16 355.61C584.29 360.69 579.45 364.73 579.36 364.61C579.27 364.49 583.95 360.3 589.83 355.22C595.71 350.14 600.54 346.11 600.63 346.22Z" fill="#7392E1"/>
<path d="M600.63 324.23C600.72 324.33 596.03 328.54 590.16 333.62C584.29 338.7 579.45 342.74 579.36 342.62C579.27 342.5 583.95 338.31 589.83 333.23C595.71 328.15 600.54 324.12 600.63 324.23Z" fill="#7392E1"/>
<path d="M600.17 302.36C600.26 302.47 595.68 306.64 589.93 311.69C584.18 316.74 579.45 320.74 579.36 320.64C579.27 320.54 583.85 316.36 589.6 311.31C595.35 306.26 600.07 302.26 600.17 302.36Z" fill="#7392E1"/>
<path d="M600.17 280C600.26 280.1 595.68 284.28 589.93 289.32C584.18 294.36 579.45 298.38 579.36 298.27C579.27 298.16 583.85 293.99 589.6 288.94C595.35 283.89 600.07 279.86 600.17 280Z" fill="#7392E1"/>
<path d="M600.17 257.57C600.26 257.68 595.68 261.85 589.93 266.9C584.18 271.95 579.45 275.95 579.36 275.9C579.27 275.85 583.85 271.62 589.6 266.57C595.35 261.52 600.07 257.47 600.17 257.57Z" fill="#7392E1"/>
<path d="M600.17 235.18C600.26 235.28 595.68 239.46 589.93 244.51C584.18 249.56 579.45 253.56 579.36 253.45C579.27 253.34 583.85 249.17 589.6 244.13C595.35 239.09 600.07 235.07 600.17 235.18Z" fill="#7392E1"/>
<path d="M600.17 212.78C600.26 212.89 595.68 217.07 589.93 222.11C584.18 227.15 579.45 231.17 579.36 231.06C579.27 230.95 583.85 226.78 589.6 221.73C595.35 216.68 600.07 212.68 600.17 212.78Z" fill="#7392E1"/>
<path d="M600.17 190.39C600.26 190.5 595.68 194.67 589.93 199.72C584.18 204.77 579.45 208.77 579.36 208.67C579.27 208.57 583.85 204.39 589.6 199.34C595.35 194.29 600.07 190.29 600.17 190.39Z" fill="#7392E1"/>
<path d="M600.17 168C600.26 168.1 595.68 172.28 589.93 177.32C584.18 182.36 579.45 186.38 579.36 186.32C579.27 186.26 583.85 182.04 589.6 176.99C595.35 171.94 600.07 167.89 600.17 168Z" fill="#7392E1"/>
<path d="M590.48 155.29C588.791 156.916 586.987 158.416 585.08 159.78C583.273 161.28 581.361 162.65 579.36 163.88C581.052 162.251 582.86 160.747 584.77 159.38C586.574 157.883 588.483 156.517 590.48 155.29V155.29Z" fill="#7392E1"/>
<path d="M224.51 384.55H185.45V420.01H224.51V384.55Z" fill="#7392E1"/>
<path opacity="0.5" d="M224.51 384.55H185.45V420.01H224.51V384.55Z" fill="black"/>
<path d="M203.27 384.55H168.82V420.01H203.27V384.55Z" fill="#7392E1"/>
<path d="M224.51 401.65C224.6 401.76 219.92 405.95 214.06 411.02C208.2 416.09 203.37 420.12 203.28 420.02C203.19 419.92 207.86 415.72 213.73 410.65C219.6 405.58 224.41 401.55 224.51 401.65Z" fill="#7392E1"/>
<path d="M224.51 384.77C224.6 384.88 219.92 389.08 214.06 394.14C208.2 399.2 203.37 403.24 203.28 403.14C203.19 403.04 207.86 398.84 213.73 393.77C219.6 388.7 224.41 384.67 224.51 384.77Z" fill="#7392E1"/>
<path d="M154.7 402.02H115.64V420.01H154.7V402.02Z" fill="#7392E1"/>
<path opacity="0.5" d="M154.7 402.02H115.64V420.01H154.7V402.02Z" fill="black"/>
<path d="M133.2 402.02H99.02V420.01H133.2V402.02Z" fill="#7392E1"/>
<path d="M154.42 402.28C154.51 402.39 149.77 406.44 143.84 411.34C137.91 416.24 133.02 420.12 132.93 420.01C132.84 419.9 137.58 415.85 143.52 410.95C149.46 406.05 154.34 402.17 154.42 402.28Z" fill="#7392E1"/>
<path d="M664.68 420.19C664.68 420.33 515.88 420.45 332.36 420.45C148.84 420.45 0 420.33 0 420.19C0 420.05 148.77 419.94 332.36 419.94C515.95 419.94 664.68 420.06 664.68 420.19Z" fill="#263238"/>
<path d="M42.03 359.1C43.5362 359.5 44.9464 360.2 46.1765 361.157C47.4066 362.114 48.4315 363.309 49.19 364.67C50.6896 367.407 51.5414 370.452 51.68 373.57C52.13 379.57 49.91 386.12 47.2 391.49C41.45 388.11 38.89 380.79 37.82 377C36.14 371 36.73 359.16 42.03 359.1" fill="#C0F071"/>
<path d="M54.7799 400.09C54.1244 398.476 53.9077 396.718 54.1519 394.993C54.396 393.268 55.0922 391.639 56.1699 390.27C57.2772 388.917 58.6438 387.799 60.1893 386.981C61.7349 386.164 63.4282 385.664 65.1699 385.51C65.9565 385.35 66.7686 385.364 67.5493 385.55C68.3301 385.737 69.0606 386.092 69.6899 386.59C70.1953 387.15 70.5417 387.834 70.6929 388.573C70.8442 389.311 70.7948 390.077 70.5499 390.79C70.0436 392.209 69.1707 393.468 68.0199 394.44C64.2399 397.94 59.9499 400.63 54.8299 400.09" fill="#C0F071"/>
<path d="M51.8398 419.29C51.8063 418.877 51.8063 418.463 51.8398 418.05C51.8398 417.17 51.8398 416.05 51.8398 414.68C51.7072 410.945 52.18 407.214 53.2398 403.63C54.3711 400.032 56.4424 396.8 59.2398 394.27C60.0906 393.522 61.0272 392.878 62.0298 392.35C62.3026 392.205 62.583 392.075 62.8698 391.96C63.0598 391.88 63.1698 391.84 63.1698 391.86C61.8065 392.607 60.5232 393.492 59.3398 394.5C56.665 397.05 54.6799 400.236 53.5698 403.76C52.5348 407.306 52.0293 410.986 52.0698 414.68C52.0698 416.1 51.9898 417.26 51.9498 418.05C51.95 418.466 51.9132 418.881 51.8398 419.29V419.29Z" fill="#263238"/>
<path d="M42.34 368.17C42.4113 368.334 42.465 368.505 42.5 368.68C42.59 369.07 42.72 369.56 42.87 370.18C43.19 371.48 43.63 373.37 44.15 375.71C45.15 380.38 46.54 386.86 47.86 394.05C49.18 401.24 50.24 407.77 50.93 412.51C51.28 414.88 51.55 416.8 51.71 418.13C51.79 418.75 51.85 419.26 51.9 419.66C51.9133 419.837 51.9133 420.014 51.9 420.19C51.8389 420.022 51.7986 419.848 51.78 419.67C51.71 419.28 51.62 418.77 51.52 418.15C51.29 416.78 50.98 414.88 50.6 412.56C49.83 407.83 48.73 401.31 47.4 394.12C46.07 386.93 44.78 380.46 43.82 375.77C43.34 373.46 42.96 371.58 42.68 370.22C42.56 369.59 42.46 369.09 42.38 368.7C42.3447 368.526 42.3312 368.348 42.34 368.17V368.17Z" fill="#263238"/>
<path d="M46.8999 405.28C45.6298 401.833 43.5554 398.74 40.8491 396.256C38.1428 393.772 34.8827 391.97 31.3399 391C29.5399 390.52 27.3399 390.41 26.1599 391.9C24.9799 393.39 25.7599 395.53 26.7399 397.12C28.8634 400.39 31.9071 402.958 35.4875 404.501C39.068 406.044 43.0249 406.492 46.8599 405.79" fill="#C0F071"/>
<path d="M33.2199 396.41C33.6047 396.457 33.9835 396.544 34.3499 396.67C34.7942 396.777 35.2317 396.911 35.6599 397.07C36.1499 397.27 36.7399 397.44 37.3399 397.73C38.0256 398.024 38.6934 398.358 39.3399 398.73C40.0717 399.116 40.7826 399.54 41.4699 400C43.0541 401.112 44.5097 402.397 45.8099 403.83C47.0831 405.285 48.1838 406.882 49.0899 408.59C49.4677 409.34 49.8016 410.111 50.0899 410.9C50.3665 411.579 50.6036 412.274 50.7999 412.98C50.9661 413.563 51.1029 414.154 51.2099 414.75C51.3161 415.194 51.3896 415.645 51.4299 416.1C51.494 416.483 51.5242 416.872 51.5199 417.26C51.4199 417.26 51.2799 415.61 50.5199 413.07C50.3079 412.391 50.0609 411.724 49.7799 411.07C49.4663 410.302 49.1125 409.551 48.7199 408.82C47.813 407.151 46.723 405.588 45.4699 404.16C44.1956 402.749 42.7742 401.479 41.2299 400.37C40.558 399.877 39.8604 399.419 39.1399 399C38.4699 398.59 37.8099 398.29 37.2199 398C34.8099 396.89 33.1899 396.5 33.2199 396.41Z" fill="#263238"/>
</svg>
