<svg id="Layer_1" data-name="Layer 1" xmlns="http://www.w3.org/2000/svg" xmlns:xlink="http://www.w3.org/1999/xlink" viewBox="0 0 802.46 419.98"><defs><style>.cls-1{fill:#fff;}.cls-2{fill:url(#linear-gradient);}.cls-3{fill:#fcb616;}.cls-4{fill:#1368b1;}.cls-5{fill:#1369b2;}.cls-6{fill:url(#linear-gradient-2);}.cls-7{fill:url(#linear-gradient-3);}.cls-8{fill:#04a0e3;}</style><linearGradient id="linear-gradient" x1="466.25" y1="194.66" x2="751.05" y2="194.66" gradientUnits="userSpaceOnUse"><stop offset="0" stop-color="#00adee"/><stop offset="1" stop-color="#1368b1"/></linearGradient><linearGradient id="linear-gradient-2" x1="620.88" y1="105.47" x2="568.82" y2="220.32" gradientUnits="userSpaceOnUse"><stop offset="0" stop-color="#faebd7"/><stop offset="1" stop-color="#e8d0ba"/></linearGradient><linearGradient id="linear-gradient-3" x1="575.54" y1="155.78" x2="623.79" y2="155.78" xlink:href="#linear-gradient"/></defs><title>Items web</title><circle class="cls-1" cx="621.41" cy="194.56" r="139.45" transform="translate(44.43 496.39) rotate(-45)"/><rect class="cls-1" x="125.25" y="109.28" width="407.62" height="81.73" rx="29.28" ry="29.28"/><path class="cls-2" d="M743.48,262.63A139.46,139.46,0,1,1,621.74,55.12c1.43,0,2.86,0,4.28.07-4.89-6.72-8.93-12.06-11.91-15.92-82.21,4-147.86,72.12-147.86,155.3,0,85.73,69.75,155.48,155.49,155.48A155.42,155.42,0,0,0,751.05,280.8Q747.33,271.59,743.48,262.63Z"/><circle class="cls-3" cx="620.39" cy="196.02" r="117.41"/><path class="cls-3" d="M592.38,264.78c-12.14,6.47-20.44,16.44-26.08,28.8-.63,1.37-1.17,2.79-1.76,4.18,0,.07-.16.09-.49.27a106.12,106.12,0,0,1-22.56-16.16c-19.62-18.13-32.06-40.38-36.23-66.73-5.52-34.84,2.71-66.41,25.21-93.8a113.14,113.14,0,0,1,66.25-40,116.58,116.58,0,0,1,124.76,55.69c.45.78.78,1.64,1.17,2.45l-1.21.15c-12.88,1.33-22.54,9.52-25.12,21.3s2.71,23.19,13.91,29.84c.42.25.81.55,1.31.89-1.54,3-3,5.87-4.49,8.75a102.74,102.74,0,0,0,11-5.19,9.13,9.13,0,0,1,3.66-1.28c5.17-.1,10.36,0,15.54.06,1.18,51-31.67,89.81-60.8,103.84-5.4-13.94-13.91-25.32-27.18-32.73l-3.06-1.66c1.24-1.56,2.77-3,3.62-4.72a2.78,2.78,0,0,1,3-1.76c5.06,0,10.13.12,15.18-.09,8.19-.36,15.25-7.84,15.31-16,0-3.74,0-7.48.16-11.22.08-2.79.31-5.58.48-8.37,6.68-1.28,12.43-7.38,13.92-14.78a19,19,0,0,0-8.3-19.42l-2.17-1.82q0-21.69.05-43.38c.6-1.06,1.14-2.16,1.81-3.17a22.27,22.27,0,0,0,2-2.61,6.77,6.77,0,0,0-12.18-5.9c-1.81,3.52-.42,7.18,3.54,9.34,0,1.11.1,2.23.1,3.35q.06,20.29.11,40.59l-3.15,0c-12.91-34.44-50.66-50.74-84.36-36.08-16.21,7.06-27.4,19.23-33.61,35.87l-.62.69,0-.07-2.92.09-.13-43.93c.3-.26.58-.56.9-.79,3.83-2.83,4.7-7.37,2-10.49a7,7,0,0,0-10-.22c-3.08,3.2-2.57,7.32,1.21,10.51a7.68,7.68,0,0,1,1.26,2.17q0,22,.07,44c-.69.62-1.39,1.23-2.09,1.84A18,18,0,0,0,549,188.9c-5.49,5.35-7.41,11.83-5.43,19.21,1.94,7.17,6.77,11.61,13.91,13.57q.11,9.65.22,19.28c0,7.87,6.87,15.49,14.68,15.87,5.94.29,11.91.05,17.64.05a42.6,42.6,0,0,0,2.19,3.71,35.06,35.06,0,0,0,2.58,2.89Z"/><path class="cls-3" d="M561.72,183.4l-.62.69Z"/><path class="cls-3" d="M668.75,197.58l-.49-1.83Z"/><path class="cls-3" d="M572.54,196.94l-.36,1.26Z"/><path class="cls-3" d="M669.25,200.76l-.27-1.32Z"/><path class="cls-3" d="M572,200c-.1.46-.19.91-.29,1.37C571.78,201,571.87,200.5,572,200Z"/><path class="cls-4" d="M158,132.75h9.09q5.31,0,5.31,5.95v8.55c0,3-.92,4.94-2.75,5.75l3.23,14.44h-4.39l-3.05-14h-2.8v14H158Zm4.64,16.72h3c1.39,0,2.08-.84,2.08-2.51v-7.49c0-1.68-.69-2.51-2.08-2.51h-3Z"/><path class="cls-4" d="M176.23,167.44V132.75h11.5V137h-6.86v10.53H187v4.2h-6.09v11.55h6.86v4.2Z"/><path class="cls-4" d="M206.09,132.75l-5.6,34.69H195l-5.6-34.69H194l3.76,26.48,3.77-26.48Z"/><path class="cls-4" d="M208.27,167.44V132.75h11.5V137h-6.86v10.53H219v4.2h-6.08v11.55h6.86v4.2Z"/><path class="cls-4" d="M232.71,149.52V132.75h4.64v34.69h-4.64v-6.91l-5-15.79v22.7H223.1V132.75h4.64Z"/><path class="cls-4" d="M256.77,132.75v28.12q0,6.57-5.6,6.57h-3.91q-5.56,0-5.56-6.62V132.75h4.64V161c0,1.51.68,2.27,2,2.27h1.88c1.26,0,1.89-.76,1.89-2.27V132.75Z"/><path class="cls-4" d="M261.12,167.44V132.75h11.5V137h-6.86v10.53h6.09v4.2h-6.09v11.55h6.86v4.2Z"/><path class="cls-4" d="M283.68,132.75h8.46c3.74,0,5.6,2,5.6,5.95V149q0,5.89-5.55,5.89h-3.87v12.56h-4.64Zm4.64,17.93h2.95c1.22,0,1.84-.68,1.84-2V139a1.82,1.82,0,0,0-2.08-2h-2.71Z"/><path class="cls-4" d="M301.42,132.75h9.08q5.31,0,5.31,5.95v8.55c0,3-.91,4.94-2.75,5.75l3.24,14.44h-4.4l-3-14h-2.81v14h-4.63Zm4.63,16.72h3.05c1.38,0,2.08-.84,2.08-2.51v-7.49c0-1.68-.7-2.51-2.08-2.51h-3.05Z"/><path class="cls-4" d="M319.68,167.44V132.75h11.5V137h-6.86v10.53h6.08v4.2h-6.08v11.55h6.86v4.2Z"/><path class="cls-4" d="M334.51,167.44V132.75h8.07q6.53,0,6.52,6.67v23q0,5-5.55,5Zm4.64-4.2h3.48c1.22,0,1.83-.51,1.83-1.55V139.47c0-1.68-.69-2.51-2.07-2.51h-3.24Z"/><path class="cls-4" d="M353.21,167.44V132.75h4.64v34.69Z"/><path class="cls-4" d="M376.06,159.33v2.22q0,5.89-5.56,5.89h-3q-5.56,0-5.56-5.89v-22.9q0-5.9,5.56-5.9h3q5.56,0,5.56,5.9v3.91h-4.64V139a1.81,1.81,0,0,0-2.07-2h-.92c-1.23,0-1.84.67-1.84,2v22.22c0,1.35.61,2,1.84,2h1.16c1.22,0,1.83-.68,1.83-2v-1.88Z"/><path class="cls-4" d="M387.08,137v30.48h-4.64V137H378v-4.21h13.53V137Z"/><path class="cls-4" d="M394.18,167.44V132.75h4.64v34.69Z"/><path class="cls-4" d="M408.53,167.44q-5.61,0-5.61-5.89V138.7q0-6,5.56-5.95h4.44q5.56,0,5.56,5.95v22.85q0,5.89-5.6,5.89Zm1.11-4.2H412c1.22,0,1.83-.68,1.83-2V139a1.81,1.81,0,0,0-2.08-2h-2.17a1.79,1.79,0,0,0-2,2v22.22A1.82,1.82,0,0,0,409.64,163.24Z"/><path class="cls-4" d="M432.2,149.52V132.75h4.64v34.69H432.2v-6.91l-5-15.79v22.7h-4.63V132.75h4.63Z"/><path class="cls-5" d="M682.89,136.64l-1-5a1.37,1.37,0,0,0-.67-.94h0l-2.6-1.58,0,0-.13-.07h0l-.08,0-.08,0h0l-.18,0h-.23a1.54,1.54,0,0,0-.3,0l-1.2.29c-.28-.55-.58-1.09-.9-1.61l2.22-2a1.5,1.5,0,0,0,.14-2.11l-3.37-3.7a1.14,1.14,0,0,0-.32-.26h0l-2.59-1.58,0,0-.13-.07h0l-.07,0-.09,0h0a.86.86,0,0,0-.17,0h-.23l-.2,0h0l-.19,0h0l0,0-.06,0-.06,0-.06,0h0l0,0-.14.09h0l-.12.09-2.1,2-.86-.52.91-2.76a1.42,1.42,0,0,0-.61-1.71l0,0-2.59-1.59,0,0-.11-.06h0l-.11,0h-.06l-4.8-1.42a1.44,1.44,0,0,0-.46,0l-.22,0-.08,0-.13,0h0l-.18.09h0l-.14.09,0,0h0l-.15.13a0,0,0,0,1,0,0l0,0-.08.08s0,0,0,0l0,.07-.05.07a.08.08,0,0,1,0,0,.54.54,0,0,0,0,.11.43.43,0,0,0,0,.07l0,.09-.92,2.8c-.59-.07-1.18-.1-1.78-.12l-.24-1.19a1.36,1.36,0,0,0-.65-.93h0l-2.6-1.58,0,0-.13-.06h0l-.08,0-.07,0h0l-.17,0h-.23a1,1,0,0,0-.3,0l-4.93,1.24-.13,0h0a1.45,1.45,0,0,0-.22.09h0a.91.91,0,0,0-.16.11h0l0,0-.11.09,0,0,0,0-.09.1,0,0h0l-.1.15s0,0,0,0v0a1.24,1.24,0,0,0-.1.2h0a1.27,1.27,0,0,0-.06.18v0a.68.68,0,0,0,0,.19h0v.24a1.25,1.25,0,0,0,0,.19l.56,2.82-.86.4-.13.06c-.27.13-.53.27-.79.41l-.15.08-.19.11-.42.24-.26.16-.07,0,0,0a1.59,1.59,0,0,0-.32-.26h0l-2.6-1.58,0,0-.13-.06h0l-.07,0-.08,0h0l-.17,0h-.22l-.19,0h0l-.18,0h0l0,0-.06,0-.06,0,0,0h0l-.14.09s0,0,0,0h0l-.11.1-3.74,3.52,0,0,0,0-.08.09,0,0,0,0a.83.83,0,0,0-.08.12l0,0h0a1.74,1.74,0,0,0-.1.19v0l-.06.17h0l0,.18a.06.06,0,0,0,0,0v.19a1,1,0,0,0,0,.17v.05l0,.14v0l.06.17,0,0s.05.09.07.14l0,0a.76.76,0,0,0,.11.14l1.88,2.1c-.18.24-.36.49-.53.74l-.13.18-.5.75a.41.41,0,0,1-.05.09l-.28.45-.14.24a2.53,2.53,0,0,1-.13.22l-.44.8-2.69-.81a1.46,1.46,0,0,0-.46-.06.83.83,0,0,0-.22,0l-.07,0-.13,0h0l-.18.09h0l-.18.11h0a.81.81,0,0,0-.14.12h0l0,.05-.07.08,0,0a.43.43,0,0,1,0,.07l0,.07,0,0,0,.11s0,0,0,.06l0,.1L627,133.72a1.45,1.45,0,0,0,.59,1.68l2.6,1.58,0,0a1.49,1.49,0,0,0,.36.17h0c-.05.41-.08.83-.11,1.24,0,.68,0,1.35,0,2l-2.81.68-.14.05a.78.78,0,0,0-.21.09h0a.56.56,0,0,0-.15.1h0l0,0-.1.09,0,0v0a.47.47,0,0,0-.1.1v0h0a.71.71,0,0,0-.1.14s0,0,0,0v0a1.74,1.74,0,0,0-.1.19h0l-.06.17v.05l0,.19h0a.61.61,0,0,0,0,.19v0a1.23,1.23,0,0,0,0,.19l1,4.9a1.4,1.4,0,0,0,.64.93l2.59,1.58h0a1.41,1.41,0,0,0,.78.21,1.35,1.35,0,0,0,.28,0l1.13-.27c.27.53.55,1,.86,1.54l-2.18,2,0,0,0,0-.08.09,0,0s0,0,0,0l-.08.13,0,0h0a.82.82,0,0,0-.09.19s0,0,0,0v0a1.54,1.54,0,0,0-.05.17h0l0,.17v0a.76.76,0,0,0,0,.15v0a1.1,1.1,0,0,0,0,.18v0l0,.14v0a1.22,1.22,0,0,0,.07.17v0l.08.14,0,0,.12.15,3.27,3.68a1.53,1.53,0,0,0,.31.26l2.6,1.58,0,0a1.4,1.4,0,0,0,.81.22,1.46,1.46,0,0,0,.94-.39l2.1-1.94.77.47-.92,2.82a1.47,1.47,0,0,0,.16,1.28,1.53,1.53,0,0,0,.43.41l2.6,1.58,0,0a1.49,1.49,0,0,0,.36.17l4.73,1.48a1.32,1.32,0,0,0,.48.06,1.48,1.48,0,0,0,1.35-1l1-2.88c.55.07,1.11.12,1.68.14l.27,1.35a1.4,1.4,0,0,0,.65.94l2.58,1.57a1.39,1.39,0,0,0,.81.22l.27,0,4.94-1.14a1.51,1.51,0,0,0,1.15-1.76l-.58-3a24.13,24.13,0,0,0,2.83-1.42l.15.17a1.53,1.53,0,0,0,.31.26l2.6,1.58,0,0a1.45,1.45,0,0,0,.83.23,1.57,1.57,0,0,0,1-.4l3.83-3.49a1.48,1.48,0,0,0,.14-2.09l-2-2.21a25.11,25.11,0,0,0,2.25-3.44l2.86.87a1.32,1.32,0,0,0,.48.06,1.54,1.54,0,0,0,1.4-1.06l1.65-4.91a1.43,1.43,0,0,0-.62-1.72h0l-2.6-1.58-.05,0-.1-.05h0l-.13-.05,0,0-.13,0a24.3,24.3,0,0,0,.16-3.31l2.94-.7A1.56,1.56,0,0,0,682.89,136.64ZM667,115.05h0Zm-33.25,40.77a0,0,0,0,0,0,0h0v0h0Zm.1-.21v0h0Zm27.25-42h0l-.06,0ZM647.27,115h0l0,0Zm-6.07,3.71h0Zm-.17,0h0Zm26.84,19.83c0,.17,0,.34,0,.51a.91.91,0,0,1,0,.17c0,.22,0,.44-.05.66,0,0,0,.09,0,.13s0,.35-.07.53l0,.2c0,.17-.06.34-.1.51s0,.1,0,.15l-.15.63c0,.05,0,.1,0,.15s-.09.33-.14.5a1.8,1.8,0,0,1-.05.19c-.06.17-.11.34-.18.51l0,.11c-.07.2-.15.4-.23.6l-.09.22-.18.41-.12.23c-.06.13-.12.26-.19.39a1.71,1.71,0,0,1-.12.23l-.21.38-.12.21-.33.55a.18.18,0,0,0,0,.07l-.32.47-.11.15-.32.43-.08.1c-.13.16-.26.33-.4.49l-.1.11c-.12.14-.25.28-.38.41l-.07.08-.45.46-.11.1-.41.38-.09.07c-.16.15-.32.28-.49.42l-.12.09-.42.32-.13.09-.54.37-.11.07-.46.28-.17.1-.4.22-.23.13-.44.21-.2.1-.65.28-.07,0-.59.22-.5.16-.25.08-.77.21a15.17,15.17,0,0,1-2.81.38h-.8l-.42,0h-.21l-.42,0-.19,0-.54-.06h0l-.59-.1-.17,0-.41-.09-.2,0-.39-.1-.19-.06-.47-.14-.09,0-.56-.21-.15-.06-.4-.16-.18-.09-.17-.07a14.17,14.17,0,0,1-5.23-8.49A15.55,15.55,0,0,1,652.79,126a15.3,15.3,0,0,1,3-.42,14.26,14.26,0,0,1,6.6,1.33,14.09,14.09,0,0,1,5.23,8.5c0,.22.08.45.12.67l0,.2.06.51a1.23,1.23,0,0,0,0,.19c0,.22,0,.45,0,.67a.22.22,0,0,1,0,.08c0,.2,0,.4,0,.59Zm5.66-19.21h0Zm8,24.81,0,0,0,0Z"/><path class="cls-1" d="M682.89,136.64a1.56,1.56,0,0,1-1.17,1.8l-2.94.7a23.06,23.06,0,0,1-.27,4.08l2.84.86a1.43,1.43,0,0,1,.92,1.85l-1.65,4.91a1.54,1.54,0,0,1-1.4,1.06,1.32,1.32,0,0,1-.48-.06l-2.86-.87a25.11,25.11,0,0,1-2.25,3.44l2,2.21a1.49,1.49,0,0,1-.14,2.09l-3.83,3.49a1.57,1.57,0,0,1-1,.4,1.45,1.45,0,0,1-1.11-.47l-2-2.21A24,24,0,0,1,664,161.8l.58,3a1.51,1.51,0,0,1-1.15,1.76l-4.94,1.14-.27,0a1.42,1.42,0,0,1-1.45-1.14l-.58-2.95-.36,0a21.51,21.51,0,0,1-3.6-.15l-1,2.88a1.51,1.51,0,0,1-1.36,1,1.32,1.32,0,0,1-.48-.06l-4.73-1.48a1.43,1.43,0,0,1-.91-1.83l1-2.86a21.39,21.39,0,0,1-3.29-2.11l-2.2,2a1.46,1.46,0,0,1-.94.39,1.38,1.38,0,0,1-1.09-.46L634,157.34a1.49,1.49,0,0,1,.13-2.06l2.18-2a21.58,21.58,0,0,1-1.75-3.54l-2.84.68a1.37,1.37,0,0,1-1.68-1.08l-1-4.9a1.51,1.51,0,0,1,1.12-1.76l2.81-.68a23.64,23.64,0,0,1,.23-4l-2.7-.82a1.42,1.42,0,0,1-.9-1.82l1.58-4.84a1.53,1.53,0,0,1,1.36-1.06,1.74,1.74,0,0,1,.45.06l2.7.82a25.18,25.18,0,0,1,2.2-3.48L636,124.71a1.5,1.5,0,0,1,.13-2.08l3.73-3.52a1.56,1.56,0,0,1,1-.41,1.39,1.39,0,0,1,1.07.45l1.88,2.09a23.7,23.7,0,0,1,3.6-2l-.56-2.81a1.57,1.57,0,0,1,1.14-1.79l4.93-1.24a1.54,1.54,0,0,1,.3,0,1.37,1.37,0,0,1,1.41,1.12l.57,2.82.76,0a22.34,22.34,0,0,1,3.28.11l.93-2.8a1.55,1.55,0,0,1,1.4-1.07,1.24,1.24,0,0,1,.46.06l4.8,1.41a1.42,1.42,0,0,1,.92,1.84l-.93,2.82a22.35,22.35,0,0,1,3.38,2.13l2.2-2a1.57,1.57,0,0,1,1-.42,1.43,1.43,0,0,1,1.1.46l3.37,3.7a1.5,1.5,0,0,1-.14,2.11l-2.22,2a22.47,22.47,0,0,1,1.79,3.61l2.91-.71.3,0a1.41,1.41,0,0,1,1.45,1.14ZM658.55,155a15.53,15.53,0,0,0,11.63-18,14.07,14.07,0,0,0-14.43-11.41,14.59,14.59,0,0,0-3,.43A15.53,15.53,0,0,0,641.31,144a14.07,14.07,0,0,0,14.43,11.4,14.37,14.37,0,0,0,2.81-.38Z"/><path class="cls-6" d="M651.2,159c0,26.75-22.45,47.79-51.14,47-29.85-.85-55-24.88-55-53.64s25.11-49.63,55-46.73C628.75,108.41,651.2,132.28,651.2,159Z"/><path class="cls-1" d="M647.33,158.79c0,24.73-20.78,44.12-47.27,43.29-27.48-.86-50.52-23-50.52-49.44s23-45.69,50.52-43.09C626.55,112.05,647.33,134.06,647.33,158.79Z"/><path class="cls-7" d="M599.79,118h0a2.78,2.78,0,0,1,2.55,2.64v4.56a78.09,78.09,0,0,1,8.47,1.36q3.12.69,6.21,1.63a2.69,2.69,0,0,1,2,2.74l-.6,5.71a2.31,2.31,0,0,1-3.28,1.77,38,38,0,0,0-4.17-1.44,40.06,40.06,0,0,0-7.86-1.37l-.72-.06v13c7.36,1.92,12.76,4.5,16.24,7.74a15.78,15.78,0,0,1,5.21,12.08A15.42,15.42,0,0,1,618,180.93c-3.86,3.17-9.27,4.95-16.27,5.34v5a2.39,2.39,0,0,1-2.56,2.33h0a2.6,2.6,0,0,1-2.56-2.52v-5l-1.14,0a79.65,79.65,0,0,1-9.43-.94,62.83,62.83,0,0,1-6.52-1.4,2.62,2.62,0,0,1-2-2.7l.71-7.34a2.5,2.5,0,0,1,3.48-1.92,52.59,52.59,0,0,0,5.73,1.76,53.53,53.53,0,0,0,9.16,1.42l.05-14.5c-7.06-1.63-12.35-4-15.82-7.23a16,16,0,0,1-5.24-12.31q0-7.74,5.68-12t16-4.17v-4.65A2.25,2.25,0,0,1,599.79,118Zm-2.56,17.41a9,9,0,0,0-5.1,1.67A4.75,4.75,0,0,0,590.3,141a5.08,5.08,0,0,0,1.7,3.89,12.26,12.26,0,0,0,5.23,2.49Zm4.53,26.26v13.3a8.25,8.25,0,0,0,5.46-1.58,5.51,5.51,0,0,0,1.89-4.48,5.87,5.87,0,0,0-1.76-4.37A13.28,13.28,0,0,0,601.76,161.63Z"/><path class="cls-1" d="M705.73,195.42l-11.58.45a1.77,1.77,0,0,0,.14,3.53l6.88-.27-47.29,47.21-32-27.1a1.7,1.7,0,0,0-2.33.12l-56.92,59.13L561,277.05c-.21,1.31-.41,2.62-.71,3.91l1.33,1.16A1.71,1.71,0,0,0,564,282l56.94-59.14,32,27.07a1.66,1.66,0,0,0,2.27-.09l49-49,.28,7.33a1.77,1.77,0,0,0,3.53-.14l-.43-10.9A1.85,1.85,0,0,0,705.73,195.42Z"/><circle class="cls-1" cx="562.75" cy="279.84" r="6.58" transform="translate(-52.77 406.87) rotate(-38.1)"/><circle class="cls-1" cx="621.2" cy="221.97" r="6.58" transform="translate(193.32 724.04) rotate(-69.22)"/><circle class="cls-1" cx="654.24" cy="246.37" r="6.58"/><path class="cls-1" d="M590.88,229.52A20.19,20.19,0,1,0,611,249.83,20.18,20.18,0,0,0,590.88,229.52Z"/><path class="cls-8" d="M590.87,233.59A16.12,16.12,0,1,0,607,249.81,16.1,16.1,0,0,0,590.87,233.59Z"/><path class="cls-1" d="M586.47,241.22c-.94-1.82-.9-2.06,1.06-2.54a10.52,10.52,0,0,1,3.7-.3,4.41,4.41,0,0,1,3.66,6.41,10.15,10.15,0,0,1-1.5,2.43c-1.48,1.79-2.87,3.58-2.46,6-.17.12-.22.2-.28.2-2.21.25-2.62-.08-2.1-2.25a14.86,14.86,0,0,1,1.7-3.64c.54-1,1.34-1.77,1.85-2.73a2.94,2.94,0,0,0-.12-3.34,3,3,0,0,0-3.12-.94A23.6,23.6,0,0,0,586.47,241.22Z"/><path class="cls-1" d="M589.65,255.91a1.81,1.81,0,0,1,1.85,1.89,1.78,1.78,0,0,1-1.8,1.92,1.8,1.8,0,0,1-1.86-1.87A1.85,1.85,0,0,1,589.65,255.91Z"/><path class="cls-1" d="M63.83,262.56l-1.89-5.16H54.3l-1.7,5.16h-2l6.54-18.42H59l6.72,18.42Zm-8.91-6.83h6.4L58,246.79Z"/><path class="cls-1" d="M69,262.21A5.22,5.22,0,0,1,66.85,260l1.65-.81c.67,1.43,2,2.14,3.92,2.14a4.74,4.74,0,0,0,2.32-.52,1.7,1.7,0,0,0,.92-1.59,1.9,1.9,0,0,0-.75-1.65,5.44,5.44,0,0,0-2.6-.7,6.66,6.66,0,0,1-3.72-1.16,3.14,3.14,0,0,1-1.12-2.51,3.26,3.26,0,0,1,1.27-2.73,5.61,5.61,0,0,1,3.49-1q3.75,0,5.1,3l-1.65.81a3.2,3.2,0,0,0-1.33-1.59,4.47,4.47,0,0,0-2.26-.52,3.81,3.81,0,0,0-2.15.52,1.75,1.75,0,0,0,.06,2.9,5.88,5.88,0,0,0,2.74.72,6.55,6.55,0,0,1,3.58,1.17A3.1,3.1,0,0,1,77.49,259a3.36,3.36,0,0,1-.73,2.18,4.38,4.38,0,0,1-1.94,1.36,7.25,7.25,0,0,1-2.62.46A6.49,6.49,0,0,1,69,262.21Z"/><path class="cls-1" d="M98,249.92v12.64H96.2V260.7a5.51,5.51,0,0,1-1.92,1.68,5.09,5.09,0,0,1-2.48.61,6.18,6.18,0,0,1-3.24-.86,6.06,6.06,0,0,1-2.24-2.41,8,8,0,0,1,0-7,6,6,0,0,1,2.21-2.39,6.14,6.14,0,0,1,3.23-.86,5.25,5.25,0,0,1,2.52.61,5.35,5.35,0,0,1,1.93,1.71v-1.89Zm-4,10.75a4.29,4.29,0,0,0,1.58-1.81,6.31,6.31,0,0,0,0-5.24,4.29,4.29,0,0,0-1.58-1.81,4.18,4.18,0,0,0-2.3-.65,4.08,4.08,0,0,0-2.27.65,4.38,4.38,0,0,0-1.57,1.8,5.74,5.74,0,0,0-.56,2.6,5.93,5.93,0,0,0,.56,2.65,4.41,4.41,0,0,0,1.57,1.81,4.08,4.08,0,0,0,2.27.65A4.18,4.18,0,0,0,94.05,260.67Z"/><path class="cls-1" d="M109.9,250a4.3,4.3,0,0,1,1.79,1.59,4.61,4.61,0,0,1,.66,2.49v8.45h-1.84v-7.64c0-2.5-1.12-3.76-3.35-3.76a3.33,3.33,0,0,0-2.91,1.38,6.29,6.29,0,0,0-1,3.7v6.32h-1.84V249.92h1.84V252a4.8,4.8,0,0,1,1.71-1.88,4.58,4.58,0,0,1,2.47-.66A5.52,5.52,0,0,1,109.9,250Z"/><path class="cls-1" d="M133.84,262.56,132,257.4h-7.64l-1.7,5.16h-2l6.54-18.42H129l6.72,18.42Zm-8.91-6.83h6.4l-3.3-8.94Z"/><path class="cls-1" d="M137.54,262.56v-1.78h1.78V245.93h-1.78v-1.79h5.59v1.79h-1.79v14.85h1.79v1.78Z"/><path class="cls-1" d="M146.15,256.67v-1.51h6.13v1.51Z"/><path class="cls-1" d="M165,250.35a6.07,6.07,0,0,1,2.21,2.39,8,8,0,0,1,0,7,6.06,6.06,0,0,1-2.24,2.41,6.23,6.23,0,0,1-3.24.86,5.16,5.16,0,0,1-2.49-.61,5.7,5.7,0,0,1-1.92-1.68v1.86h-1.83V243h1.83v8.85a5.46,5.46,0,0,1,1.94-1.71,5.22,5.22,0,0,1,2.52-.61A6.14,6.14,0,0,1,165,250.35Zm-1,10.32a4.39,4.39,0,0,0,1.56-1.81,5.93,5.93,0,0,0,.57-2.65,5.75,5.75,0,0,0-.57-2.6,4.36,4.36,0,0,0-1.56-1.8,4.1,4.1,0,0,0-2.27-.65,4.23,4.23,0,0,0-2.31.65,4.43,4.43,0,0,0-1.58,1.81,6.31,6.31,0,0,0,0,5.24,4.43,4.43,0,0,0,1.58,1.81,4.23,4.23,0,0,0,2.31.65A4.1,4.1,0,0,0,164.08,260.67Z"/><path class="cls-1" d="M182.38,249.92v12.64h-1.83V260.7a5.51,5.51,0,0,1-1.92,1.68,5.12,5.12,0,0,1-2.48.61,6.18,6.18,0,0,1-3.24-.86,6,6,0,0,1-2.24-2.41,8,8,0,0,1,0-7,6,6,0,0,1,2.22-2.39,6.11,6.11,0,0,1,3.22-.86,5.29,5.29,0,0,1,2.53.61,5.43,5.43,0,0,1,1.93,1.71v-1.89Zm-4,10.75a4.36,4.36,0,0,0,1.58-1.81,6.31,6.31,0,0,0,0-5.24,4.36,4.36,0,0,0-1.58-1.81,4.19,4.19,0,0,0-2.31-.65,4.12,4.12,0,0,0-2.27.65,4.43,4.43,0,0,0-1.56,1.8,5.75,5.75,0,0,0-.57,2.6,5.93,5.93,0,0,0,.57,2.65,4.46,4.46,0,0,0,1.56,1.81,4.12,4.12,0,0,0,2.27.65A4.19,4.19,0,0,0,178.4,260.67Z"/><path class="cls-1" d="M187,262.21a5.22,5.22,0,0,1-2.12-2.22l1.65-.81c.67,1.43,2,2.14,3.92,2.14a4.74,4.74,0,0,0,2.32-.52,1.7,1.7,0,0,0,.92-1.59,1.9,1.9,0,0,0-.75-1.65,5.44,5.44,0,0,0-2.6-.7,6.59,6.59,0,0,1-3.71-1.16,3.11,3.11,0,0,1-1.12-2.51,3.25,3.25,0,0,1,1.26-2.73,5.61,5.61,0,0,1,3.49-1q3.75,0,5.1,3l-1.65.81a3.2,3.2,0,0,0-1.33-1.59,4.47,4.47,0,0,0-2.26-.52,3.75,3.75,0,0,0-2.14.52,1.66,1.66,0,0,0-.75,1.46,1.69,1.69,0,0,0,.8,1.44,5.88,5.88,0,0,0,2.74.72,6.55,6.55,0,0,1,3.58,1.17,3.1,3.1,0,0,1,1.17,2.52,3.36,3.36,0,0,1-.73,2.18,4.38,4.38,0,0,1-1.94,1.36,7.25,7.25,0,0,1-2.62.46A6.52,6.52,0,0,1,187,262.21Z"/><path class="cls-1" d="M206.84,250.33a6,6,0,0,1,2.17,2.28,6.68,6.68,0,0,1,.78,3.23,7.59,7.59,0,0,1,0,.78H199.37a5.44,5.44,0,0,0,1.27,3.32,3.89,3.89,0,0,0,3.15,1.38,5.43,5.43,0,0,0,2.69-.61A4.8,4.8,0,0,0,208.2,259l1.45,1a6.21,6.21,0,0,1-2.35,2.2,7.09,7.09,0,0,1-3.45.8,6.23,6.23,0,0,1-3.27-.86,6.06,6.06,0,0,1-2.24-2.41,7.32,7.32,0,0,1-.81-3.48,7.44,7.44,0,0,1,.8-3.48,6,6,0,0,1,2.21-2.41,6.14,6.14,0,0,1,3.23-.86A5.76,5.76,0,0,1,206.84,250.33Zm1.11,4.78a4.81,4.81,0,0,0-1.32-3,4,4,0,0,0-2.86-1,3.94,3.94,0,0,0-2.88,1.12,5.14,5.14,0,0,0-1.42,2.83Z"/><path class="cls-1" d="M224.23,243v19.6H222.4V260.7a5.6,5.6,0,0,1-1.92,1.68A5.12,5.12,0,0,1,218,263a6.18,6.18,0,0,1-3.24-.86,6,6,0,0,1-2.25-2.41,8,8,0,0,1,0-7,6,6,0,0,1,2.22-2.39,6.11,6.11,0,0,1,3.22-.86,5.29,5.29,0,0,1,2.53.61,5.52,5.52,0,0,1,1.93,1.71V243Zm-4,17.71a4.36,4.36,0,0,0,1.58-1.81,6.31,6.31,0,0,0,0-5.24,4.36,4.36,0,0,0-1.58-1.81,4.19,4.19,0,0,0-2.31-.65,4.12,4.12,0,0,0-2.27.65,4.43,4.43,0,0,0-1.56,1.8,5.75,5.75,0,0,0-.57,2.6,5.93,5.93,0,0,0,.57,2.65,4.46,4.46,0,0,0,1.56,1.81,4.12,4.12,0,0,0,2.27.65A4.19,4.19,0,0,0,220.25,260.67Z"/><path class="cls-1" d="M234.88,262.21a5.22,5.22,0,0,1-2.12-2.22l1.65-.81c.67,1.43,2,2.14,3.92,2.14a4.74,4.74,0,0,0,2.32-.52,1.7,1.7,0,0,0,.92-1.59,1.9,1.9,0,0,0-.75-1.65,5.44,5.44,0,0,0-2.6-.7,6.59,6.59,0,0,1-3.71-1.16,3.11,3.11,0,0,1-1.12-2.51,3.25,3.25,0,0,1,1.26-2.73,5.61,5.61,0,0,1,3.49-1q3.75,0,5.1,3l-1.65.81a3.2,3.2,0,0,0-1.33-1.59,4.47,4.47,0,0,0-2.26-.52,3.75,3.75,0,0,0-2.14.52,1.66,1.66,0,0,0-.75,1.46,1.69,1.69,0,0,0,.8,1.44,5.88,5.88,0,0,0,2.74.72,6.52,6.52,0,0,1,3.58,1.17A3.1,3.1,0,0,1,243.4,259a3.36,3.36,0,0,1-.73,2.18,4.38,4.38,0,0,1-1.94,1.36,7.25,7.25,0,0,1-2.62.46A6.52,6.52,0,0,1,234.88,262.21Z"/><path class="cls-1" d="M248.45,262.13a6,6,0,0,1-2.24-2.42,7.95,7.95,0,0,1,0-7,6.07,6.07,0,0,1,2.21-2.39,6.14,6.14,0,0,1,3.23-.86,6.23,6.23,0,0,1,3.24.86,6.06,6.06,0,0,1,2.24,2.41,7.32,7.32,0,0,1,.81,3.48,7.44,7.44,0,0,1-.8,3.48,6,6,0,0,1-2.21,2.41,6.14,6.14,0,0,1-3.23.86A6.23,6.23,0,0,1,248.45,262.13Zm5.5-1.46a4.43,4.43,0,0,0,1.58-1.81,6.41,6.41,0,0,0,0-5.24,4.43,4.43,0,0,0-1.58-1.81,4.23,4.23,0,0,0-2.31-.65,4.08,4.08,0,0,0-2.27.65,4.38,4.38,0,0,0-1.57,1.8,5.88,5.88,0,0,0-.56,2.6,6.07,6.07,0,0,0,.56,2.65,4.41,4.41,0,0,0,1.57,1.81,4.08,4.08,0,0,0,2.27.65A4.23,4.23,0,0,0,254,260.67Z"/><path class="cls-1" d="M263.64,244.82a2.32,2.32,0,0,0-.61,1.67v3.43H266v1.68H263v11H261.2v-11h-1.63v-1.68h1.63v-3.43a3.84,3.84,0,0,1,4-4H266v1.67h-.76A2,2,0,0,0,263.64,244.82Z"/><path class="cls-1" d="M268.62,262.56v-11h-2.16v-1.68h2.16v-4.18h1.84v4.18h2.91v1.68h-2.91v11Z"/><path class="cls-1" d="M290.76,249.92h1.75l-4.1,12.64h-1.92l-3.07-9.69-3.33,9.69h-1.83l-4.16-12.64H276L279.28,260l3.3-10.05h1.78l3.19,10Z"/><path class="cls-1" d="M306,249.92v12.64h-1.84V260.7a5.51,5.51,0,0,1-1.92,1.68,5.09,5.09,0,0,1-2.48.61,6.18,6.18,0,0,1-3.24-.86,6.06,6.06,0,0,1-2.24-2.41,8,8,0,0,1,0-7,6.07,6.07,0,0,1,2.21-2.39,6.14,6.14,0,0,1,3.23-.86,5.25,5.25,0,0,1,2.52.61,5.35,5.35,0,0,1,1.93,1.71v-1.89Zm-4,10.75a4.34,4.34,0,0,0,1.57-1.81,6.31,6.31,0,0,0,0-5.24,4.34,4.34,0,0,0-1.57-1.81,4.23,4.23,0,0,0-2.31-.65,4.08,4.08,0,0,0-2.27.65,4.38,4.38,0,0,0-1.57,1.8,5.74,5.74,0,0,0-.56,2.6,5.93,5.93,0,0,0,.56,2.65,4.41,4.41,0,0,0,1.57,1.81,4.08,4.08,0,0,0,2.27.65A4.23,4.23,0,0,0,302,260.67Z"/><path class="cls-1" d="M316.84,249.68v1.67a2.85,2.85,0,0,0-1.24-.27,3.88,3.88,0,0,0-2.16.65,4.6,4.6,0,0,0-1.61,1.88,6.53,6.53,0,0,0-.6,2.9v6.05h-1.84V249.92h1.84v2.54a6,6,0,0,1,1.84-2.19,4.33,4.33,0,0,1,2.53-.78A3.92,3.92,0,0,1,316.84,249.68Z"/><path class="cls-1" d="M326.8,250.33a5.92,5.92,0,0,1,2.16,2.28,6.58,6.58,0,0,1,.79,3.23,7.59,7.59,0,0,1,0,.78H319.33a5.49,5.49,0,0,0,1.26,3.32,3.92,3.92,0,0,0,3.16,1.38,5.43,5.43,0,0,0,2.69-.61,4.7,4.7,0,0,0,1.71-1.69l1.46,1a6.21,6.21,0,0,1-2.35,2.2,7.09,7.09,0,0,1-3.45.8,6.23,6.23,0,0,1-3.27-.86,6.06,6.06,0,0,1-2.24-2.41,7.32,7.32,0,0,1-.81-3.48,7.44,7.44,0,0,1,.8-3.48,5.92,5.92,0,0,1,2.21-2.41,6.14,6.14,0,0,1,3.23-.86A5.76,5.76,0,0,1,326.8,250.33Zm1.11,4.78a4.81,4.81,0,0,0-1.32-3,4,4,0,0,0-2.86-1,3.94,3.94,0,0,0-2.88,1.12,5.14,5.14,0,0,0-1.42,2.83Z"/><path class="cls-1" d="M332,265.47a3.07,3.07,0,0,0,1.51-2.7,1.57,1.57,0,0,1-1.09-.41,1.4,1.4,0,0,1-.44-1.07,1.42,1.42,0,0,1,.4-1.07,1.45,1.45,0,0,1,1.05-.39,1.42,1.42,0,0,1,1.11.5,1.84,1.84,0,0,1,.43,1.26,4.83,4.83,0,0,1-.75,2.55,5.08,5.08,0,0,1-1.95,1.85Z"/><path class="cls-1" d="M358.93,257.44a9.17,9.17,0,0,1-1.83,3.17l1.59,1.57-1.19,1.16-1.64-1.65a7.41,7.41,0,0,1-8.28.07,8.26,8.26,0,0,1-2.81-3.41,12.76,12.76,0,0,1,0-10,8.2,8.2,0,0,1,2.81-3.43,7.42,7.42,0,0,1,8.18,0,8.2,8.2,0,0,1,2.81,3.43,12.88,12.88,0,0,1,.36,9Zm-4.51,2.88-2.26-2.27,1.18-1.19,2.35,2.32a7.56,7.56,0,0,0,1.35-2.55,10.3,10.3,0,0,0,.49-3.25,10.13,10.13,0,0,0-.76-4,6.63,6.63,0,0,0-2.09-2.78,5.07,5.07,0,0,0-6,0,6.63,6.63,0,0,0-2.09,2.78,11,11,0,0,0,0,8,6.47,6.47,0,0,0,2.09,2.75,4.92,4.92,0,0,0,3,1A5,5,0,0,0,354.42,260.32Z"/><path class="cls-1" d="M373.16,249.92v12.64h-1.83v-2.11a4.9,4.9,0,0,1-1.72,1.88,4.58,4.58,0,0,1-2.47.66,5.52,5.52,0,0,1-2.44-.54,4.21,4.21,0,0,1-1.78-1.59,4.5,4.5,0,0,1-.67-2.49v-8.45h1.84v7.64q0,3.76,3.35,3.76a3.32,3.32,0,0,0,2.91-1.38,6.29,6.29,0,0,0,1-3.7v-6.32Z"/><path class="cls-1" d="M377.44,247A1.44,1.44,0,0,1,377,246a1.37,1.37,0,0,1,.42-1,1.49,1.49,0,0,1,2.07,0,1.45,1.45,0,0,1,0,2.06,1.44,1.44,0,0,1-2.07,0Zm.12,15.53V249.92h1.84v12.64Z"/><path class="cls-1" d="M393.71,262.56H391.6l-3.29-5.27-3.3,5.27H383l4.05-6.48-3.8-6.16h2.07l3.06,5,3.21-5h2l-4,6.13Z"/><path class="cls-1" d="M406.18,262.56h-2.1l-3.3-5.27-3.29,5.27h-2.05l4.05-6.48-3.81-6.16h2.08l3.05,5,3.21-5h2l-4,6.13Z"/><path class="cls-1" d="M67.34,282.32h1.75L65,295H63.07L60,285.27,56.67,295H54.84l-4.16-12.64h1.94l3.24,10.05,3.3-10.05h1.78l3.19,10Z"/><path class="cls-1" d="M72.24,279.43a1.42,1.42,0,0,1-.42-1.05,1.37,1.37,0,0,1,.42-1,1.4,1.4,0,0,1,1-.42,1.43,1.43,0,0,1,1,.42,1.47,1.47,0,0,1-1,2.5A1.38,1.38,0,0,1,72.24,279.43ZM72.36,295V282.32H74.2V295Z"/><path class="cls-1" d="M78.73,295v-19.6h1.84V295Z"/><path class="cls-1" d="M84.21,295v-19.6h1.84V295Z"/><path class="cls-1" d="M105.08,282.75a6,6,0,0,1,2.24,2.41,7.92,7.92,0,0,1,0,7,6,6,0,0,1-2.22,2.39,6.11,6.11,0,0,1-3.22.86,5.29,5.29,0,0,1-2.53-.61,5.52,5.52,0,0,1-1.93-1.71v7.29H95.61v-18h1.83v1.87a5.63,5.63,0,0,1,1.92-1.69,5.12,5.12,0,0,1,2.48-.61A6.18,6.18,0,0,1,105.08,282.75Zm-.91,10.32a4.43,4.43,0,0,0,1.56-1.8,5.75,5.75,0,0,0,.57-2.6,6,6,0,0,0-.57-2.65,4.46,4.46,0,0,0-1.56-1.81,4.12,4.12,0,0,0-2.27-.65,4.19,4.19,0,0,0-2.31.65A4.36,4.36,0,0,0,98,286a6.31,6.31,0,0,0,0,5.24,4.36,4.36,0,0,0,1.58,1.81,4.19,4.19,0,0,0,2.31.65A4.12,4.12,0,0,0,104.17,293.07Z"/><path class="cls-1" d="M118.18,282.08v1.67a2.85,2.85,0,0,0-1.24-.27,3.88,3.88,0,0,0-2.16.65,4.53,4.53,0,0,0-1.61,1.88,6.39,6.39,0,0,0-.61,2.9v6h-1.83V282.32h1.83v2.54a6,6,0,0,1,1.85-2.19,4.33,4.33,0,0,1,2.53-.78A4,4,0,0,1,118.18,282.08Z"/><path class="cls-1" d="M128.14,282.73A5.92,5.92,0,0,1,130.3,285a6.68,6.68,0,0,1,.78,3.23c0,.34,0,.6,0,.78h-10.4a5.5,5.5,0,0,0,1.27,3.32,3.92,3.92,0,0,0,3.16,1.38,5.43,5.43,0,0,0,2.69-.61,4.7,4.7,0,0,0,1.71-1.69l1.46,1a6.28,6.28,0,0,1-2.35,2.2,7.1,7.1,0,0,1-3.46.8,6.22,6.22,0,0,1-3.26-.86,6,6,0,0,1-2.24-2.41,7.32,7.32,0,0,1-.81-3.48,7.43,7.43,0,0,1,.79-3.48,6,6,0,0,1,2.22-2.41,6.11,6.11,0,0,1,3.22-.86A5.79,5.79,0,0,1,128.14,282.73Zm1.11,4.78a4.81,4.81,0,0,0-1.32-3,4,4,0,0,0-2.87-1,3.86,3.86,0,0,0-2.87,1.13,5.07,5.07,0,0,0-1.42,2.82Z"/><path class="cls-1" d="M145.53,275.36V295h-1.84V293.1a5.57,5.57,0,0,1-1.91,1.68,5.16,5.16,0,0,1-2.49.61,6.23,6.23,0,0,1-3.24-.86,6.06,6.06,0,0,1-2.24-2.41,8,8,0,0,1,0-7,6.07,6.07,0,0,1,2.21-2.39,6.14,6.14,0,0,1,3.23-.86,5.22,5.22,0,0,1,2.52.61,5.45,5.45,0,0,1,1.93,1.71v-8.85Zm-4,17.71a4.43,4.43,0,0,0,1.58-1.81,6.41,6.41,0,0,0,0-5.24,4.43,4.43,0,0,0-1.58-1.81,4.23,4.23,0,0,0-2.31-.65,4.1,4.1,0,0,0-2.27.65,4.38,4.38,0,0,0-1.57,1.8,5.88,5.88,0,0,0-.56,2.6,6.07,6.07,0,0,0,.56,2.65,4.41,4.41,0,0,0,1.57,1.81,4.1,4.1,0,0,0,2.27.65A4.23,4.23,0,0,0,141.55,293.07Z"/><path class="cls-1" d="M149.81,279.43a1.42,1.42,0,0,1-.42-1.05,1.37,1.37,0,0,1,.42-1,1.47,1.47,0,0,1,2.06,0,1.46,1.46,0,1,1-2.06,2.06Zm.12,15.53V282.32h1.84V295Z"/><path class="cls-1" d="M158.38,294.53a6.06,6.06,0,0,1-2.24-2.41,7.32,7.32,0,0,1-.81-3.48,7.44,7.44,0,0,1,.8-3.48,6,6,0,0,1,2.22-2.41,6.23,6.23,0,0,1,3.24-.86,5.28,5.28,0,0,1,2.69.66,7.2,7.2,0,0,1,2.09,1.88L165,285.48a4,4,0,0,0-3.43-1.92,4.18,4.18,0,0,0-2.28.65,4.43,4.43,0,0,0-1.58,1.81,6.41,6.41,0,0,0,0,5.24,4.43,4.43,0,0,0,1.58,1.81,4.18,4.18,0,0,0,2.28.65,4.5,4.5,0,0,0,2.14-.45,4.85,4.85,0,0,0,1.51-1.31l1.43,1a6.57,6.57,0,0,1-2.2,1.77,6.16,6.16,0,0,1-2.82.66A6.23,6.23,0,0,1,158.38,294.53Z"/><path class="cls-1" d="M169.72,295V284h-2.16v-1.68h2.16v-4.18h1.84v4.18h2.91V284h-2.91v11Z"/><path class="cls-1" d="M183.72,294.61a5.17,5.17,0,0,1-2.12-2.22l1.65-.81c.66,1.43,2,2.14,3.91,2.14a4.61,4.61,0,0,0,2.32-.52,1.68,1.68,0,0,0,.92-1.59,1.92,1.92,0,0,0-.74-1.65,5.49,5.49,0,0,0-2.61-.7,6.65,6.65,0,0,1-3.71-1.16,3.11,3.11,0,0,1-1.12-2.51,3.24,3.24,0,0,1,1.27-2.73,5.6,5.6,0,0,1,3.48-1c2.5,0,4.21,1,5.11,3l-1.65.81a3.22,3.22,0,0,0-1.34-1.59,4.41,4.41,0,0,0-2.25-.52,3.79,3.79,0,0,0-2.15.52,1.75,1.75,0,0,0,.06,2.9,5.88,5.88,0,0,0,2.74.72,6.48,6.48,0,0,1,3.57,1.17,3.08,3.08,0,0,1,1.18,2.52,3.34,3.34,0,0,1-.73,2.18,4.44,4.44,0,0,1-1.94,1.36,7.29,7.29,0,0,1-2.62.46A6.49,6.49,0,0,1,183.72,294.61Z"/><path class="cls-1" d="M206.76,282.32V295h-1.83V293.1a5.51,5.51,0,0,1-1.92,1.68,5.09,5.09,0,0,1-2.48.61,6.18,6.18,0,0,1-3.24-.86,6,6,0,0,1-2.24-2.41,8,8,0,0,1,0-7,6,6,0,0,1,2.22-2.39,6.11,6.11,0,0,1,3.22-.86,5.29,5.29,0,0,1,2.53.61,5.53,5.53,0,0,1,1.93,1.71v-1.89Zm-4,10.75a4.36,4.36,0,0,0,1.58-1.81,6.31,6.31,0,0,0,0-5.24,4.36,4.36,0,0,0-1.58-1.81,4.19,4.19,0,0,0-2.31-.65,4.07,4.07,0,0,0-2.26.65,4.38,4.38,0,0,0-1.57,1.8,5.75,5.75,0,0,0-.57,2.6,5.93,5.93,0,0,0,.57,2.65,4.41,4.41,0,0,0,1.57,1.81,4.07,4.07,0,0,0,2.26.65A4.19,4.19,0,0,0,202.78,293.07Z"/><path class="cls-1" d="M210.3,295v-19.6h1.84V295Z"/><path class="cls-1" d="M224.18,282.73a5.92,5.92,0,0,1,2.16,2.28,6.68,6.68,0,0,1,.78,3.23,7.59,7.59,0,0,1,0,.78H216.7a5.44,5.44,0,0,0,1.27,3.32,3.9,3.9,0,0,0,3.16,1.38,5.39,5.39,0,0,0,2.68-.61,4.72,4.72,0,0,0,1.72-1.69l1.46,1a6.36,6.36,0,0,1-2.35,2.2,7.13,7.13,0,0,1-3.46.8,6.28,6.28,0,0,1-3.27-.86,6.06,6.06,0,0,1-2.24-2.41,7.32,7.32,0,0,1-.81-3.48,7.44,7.44,0,0,1,.8-3.48,6,6,0,0,1,2.21-2.41,6.14,6.14,0,0,1,3.23-.86A5.82,5.82,0,0,1,224.18,282.73Zm1.1,4.78a4.81,4.81,0,0,0-1.32-3,4,4,0,0,0-2.86-1,3.9,3.9,0,0,0-2.88,1.13,5.13,5.13,0,0,0-1.41,2.82Z"/><path class="cls-1" d="M231.05,294.61a5.17,5.17,0,0,1-2.12-2.22l1.65-.81c.66,1.43,2,2.14,3.91,2.14a4.61,4.61,0,0,0,2.32-.52,1.68,1.68,0,0,0,.92-1.59A1.92,1.92,0,0,0,237,290a5.49,5.49,0,0,0-2.61-.7,6.65,6.65,0,0,1-3.71-1.16,3.11,3.11,0,0,1-1.12-2.51,3.24,3.24,0,0,1,1.27-2.73,5.6,5.6,0,0,1,3.48-1c2.5,0,4.21,1,5.11,3l-1.65.81a3.22,3.22,0,0,0-1.34-1.59,4.41,4.41,0,0,0-2.25-.52,3.79,3.79,0,0,0-2.15.52,1.75,1.75,0,0,0,.06,2.9,5.88,5.88,0,0,0,2.74.72,6.48,6.48,0,0,1,3.57,1.17,3.08,3.08,0,0,1,1.18,2.52,3.39,3.39,0,0,1-.73,2.18,4.47,4.47,0,0,1-2,1.36,7.24,7.24,0,0,1-2.61.46A6.49,6.49,0,0,1,231.05,294.61Z"/><path class="cls-1" d="M260.11,282.32V295h-1.83V293.1a5.51,5.51,0,0,1-1.92,1.68,5.09,5.09,0,0,1-2.48.61,6.18,6.18,0,0,1-3.24-.86,6,6,0,0,1-2.24-2.41,8,8,0,0,1,0-7,6,6,0,0,1,2.22-2.39,6.11,6.11,0,0,1,3.22-.86,5.29,5.29,0,0,1,2.53.61,5.53,5.53,0,0,1,1.93,1.71v-1.89Zm-4,10.75a4.36,4.36,0,0,0,1.58-1.81,6.31,6.31,0,0,0,0-5.24,4.36,4.36,0,0,0-1.58-1.81,4.19,4.19,0,0,0-2.31-.65,4.07,4.07,0,0,0-2.26.65A4.38,4.38,0,0,0,250,286a5.75,5.75,0,0,0-.57,2.6,5.93,5.93,0,0,0,.57,2.65,4.41,4.41,0,0,0,1.57,1.81,4.07,4.07,0,0,0,2.26.65A4.19,4.19,0,0,0,256.13,293.07Z"/><path class="cls-1" d="M272,282.43a4.21,4.21,0,0,1,1.78,1.59,4.61,4.61,0,0,1,.66,2.49V295h-1.83v-7.64c0-2.5-1.12-3.76-3.35-3.76a3.34,3.34,0,0,0-2.92,1.38,6.36,6.36,0,0,0-1,3.7V295h-1.83V282.32h1.83v2.11a4.83,4.83,0,0,1,1.72-1.88,4.58,4.58,0,0,1,2.47-.66A5.55,5.55,0,0,1,272,282.43Z"/><path class="cls-1" d="M289.76,275.36V295h-1.84V293.1a5.57,5.57,0,0,1-1.91,1.68,5.16,5.16,0,0,1-2.49.61,6.23,6.23,0,0,1-3.24-.86,6.06,6.06,0,0,1-2.24-2.41,8,8,0,0,1,0-7,6.07,6.07,0,0,1,2.21-2.39,6.14,6.14,0,0,1,3.23-.86,5.22,5.22,0,0,1,2.52.61,5.45,5.45,0,0,1,1.93,1.71v-8.85Zm-4,17.71a4.43,4.43,0,0,0,1.58-1.81,6.41,6.41,0,0,0,0-5.24,4.43,4.43,0,0,0-1.58-1.81,4.23,4.23,0,0,0-2.31-.65,4.1,4.1,0,0,0-2.27.65,4.38,4.38,0,0,0-1.57,1.8,5.88,5.88,0,0,0-.56,2.6,6.07,6.07,0,0,0,.56,2.65,4.41,4.41,0,0,0,1.57,1.81,4.1,4.1,0,0,0,2.27.65A4.23,4.23,0,0,0,285.78,293.07Z"/><path class="cls-1" d="M306.63,282.08v1.67a2.82,2.82,0,0,0-1.24-.27,3.93,3.93,0,0,0-2.16.65,4.58,4.58,0,0,0-1.6,1.88,6.39,6.39,0,0,0-.61,2.9v6h-1.84V282.32H301v2.54a5.9,5.9,0,0,1,1.85-2.19,4.3,4.3,0,0,1,2.52-.78A3.92,3.92,0,0,1,306.63,282.08Z"/><path class="cls-1" d="M316.6,282.73a5.92,5.92,0,0,1,2.16,2.28,6.68,6.68,0,0,1,.78,3.23,7.59,7.59,0,0,1,0,.78H309.12a5.44,5.44,0,0,0,1.27,3.32,3.9,3.9,0,0,0,3.16,1.38,5.39,5.39,0,0,0,2.68-.61,4.72,4.72,0,0,0,1.72-1.69l1.46,1a6.36,6.36,0,0,1-2.35,2.2,7.16,7.16,0,0,1-3.46.8,6.28,6.28,0,0,1-3.27-.86,6.06,6.06,0,0,1-2.24-2.41,7.32,7.32,0,0,1-.81-3.48,7.44,7.44,0,0,1,.8-3.48,6,6,0,0,1,2.21-2.41,6.14,6.14,0,0,1,3.23-.86A5.82,5.82,0,0,1,316.6,282.73Zm1.1,4.78a4.81,4.81,0,0,0-1.32-3,4,4,0,0,0-2.86-1,3.9,3.9,0,0,0-2.88,1.13,5.06,5.06,0,0,0-1.41,2.82Z"/><path class="cls-1" d="M329.88,282.32h1.86L327.15,295h-2l-4.56-12.64h1.91L326.21,293Z"/><path class="cls-1" d="M342,282.73a6,6,0,0,1,2.16,2.28,6.68,6.68,0,0,1,.78,3.23,7.59,7.59,0,0,1,0,.78H334.5a5.44,5.44,0,0,0,1.27,3.32,3.9,3.9,0,0,0,3.16,1.38,5.39,5.39,0,0,0,2.68-.61,4.72,4.72,0,0,0,1.72-1.69l1.46,1a6.36,6.36,0,0,1-2.35,2.2,7.16,7.16,0,0,1-3.46.8,6.28,6.28,0,0,1-3.27-.86,6.06,6.06,0,0,1-2.24-2.41,7.32,7.32,0,0,1-.81-3.48,7.44,7.44,0,0,1,.8-3.48,6,6,0,0,1,2.21-2.41,6.14,6.14,0,0,1,3.23-.86A5.82,5.82,0,0,1,342,282.73Zm1.1,4.78a4.81,4.81,0,0,0-1.32-3,4,4,0,0,0-2.86-1,3.9,3.9,0,0,0-2.88,1.13,5.06,5.06,0,0,0-1.41,2.82Z"/><path class="cls-1" d="M356.08,282.43a4.24,4.24,0,0,1,1.79,1.59,4.61,4.61,0,0,1,.66,2.49V295h-1.84v-7.64c0-2.5-1.11-3.76-3.35-3.76a3.33,3.33,0,0,0-2.91,1.38,6.29,6.29,0,0,0-1,3.7V295h-1.84V282.32h1.84v2.11a4.8,4.8,0,0,1,1.71-1.88,4.58,4.58,0,0,1,2.47-.66A5.52,5.52,0,0,1,356.08,282.43Z"/><path class="cls-1" d="M373.22,282.32V295h-1.84v-2.11a4.8,4.8,0,0,1-1.71,1.88,4.64,4.64,0,0,1-2.48.66,5.55,5.55,0,0,1-2.44-.54,4.21,4.21,0,0,1-1.78-1.59,4.58,4.58,0,0,1-.66-2.49v-8.45h1.83V290q0,3.77,3.35,3.76a3.34,3.34,0,0,0,2.92-1.38,6.29,6.29,0,0,0,1-3.7v-6.32Z"/><path class="cls-1" d="M385.15,282.73a5.92,5.92,0,0,1,2.16,2.28,6.68,6.68,0,0,1,.78,3.23c0,.34,0,.6,0,.78h-10.4a5.5,5.5,0,0,0,1.27,3.32,3.91,3.91,0,0,0,3.16,1.38,5.46,5.46,0,0,0,2.69-.61,4.7,4.7,0,0,0,1.71-1.69l1.46,1a6.36,6.36,0,0,1-2.35,2.2,7.13,7.13,0,0,1-3.46.8,6.22,6.22,0,0,1-3.26-.86,6,6,0,0,1-2.25-2.41,7.32,7.32,0,0,1-.81-3.48,7.44,7.44,0,0,1,.8-3.48,6,6,0,0,1,2.22-2.41,6.11,6.11,0,0,1,3.22-.86A5.79,5.79,0,0,1,385.15,282.73Zm1.11,4.78a4.76,4.76,0,0,0-1.33-3,4,4,0,0,0-2.86-1,3.86,3.86,0,0,0-2.87,1.13,5.07,5.07,0,0,0-1.42,2.82Z"/><path class="cls-1" d="M406.36,282.75a6.07,6.07,0,0,1,2.21,2.39,8,8,0,0,1,0,7,6.06,6.06,0,0,1-2.24,2.41,6.23,6.23,0,0,1-3.24.86,5.16,5.16,0,0,1-2.49-.61,5.57,5.57,0,0,1-1.91-1.68V295h-1.84v-19.6h1.84v8.85a5.45,5.45,0,0,1,1.93-1.71,5.22,5.22,0,0,1,2.52-.61A6.14,6.14,0,0,1,406.36,282.75Zm-1,10.32a4.49,4.49,0,0,0,1.57-1.81,6.07,6.07,0,0,0,.56-2.65A5.88,5.88,0,0,0,407,286a4.46,4.46,0,0,0-1.57-1.8,4.1,4.1,0,0,0-2.27-.65,4.23,4.23,0,0,0-2.31.65,4.43,4.43,0,0,0-1.58,1.81,6.41,6.41,0,0,0,0,5.24,4.43,4.43,0,0,0,1.58,1.81,4.23,4.23,0,0,0,2.31.65A4.1,4.1,0,0,0,405.4,293.07Z"/><path class="cls-1" d="M420.65,282.32h1.73l-6.83,18h-1.83l2-5.16-5.18-12.88h1.92l4.18,10.48Z"/><path class="cls-1" d="M52.62,327.36v-11H50.46v-1.68h2.16v-4.18h1.84v4.18h2.92v1.68H54.46v11Z"/><path class="cls-1" d="M67.84,314.83a4.21,4.21,0,0,1,1.78,1.59,4.58,4.58,0,0,1,.66,2.49v8.45H68.45v-7.64c0-2.5-1.12-3.76-3.35-3.76a3.34,3.34,0,0,0-2.92,1.38,6.29,6.29,0,0,0-1,3.7v6.32H59.37v-19.6h1.84v9.07A4.8,4.8,0,0,1,62.92,315a4.64,4.64,0,0,1,2.48-.66A5.55,5.55,0,0,1,67.84,314.83Z"/><path class="cls-1" d="M76.06,326.93a6.09,6.09,0,0,1-2.24-2.42A7.46,7.46,0,0,1,73,321a7.31,7.31,0,0,1,.8-3.47A6,6,0,0,1,76,315.15a6.12,6.12,0,0,1,3.23-.86,6.23,6.23,0,0,1,3.24.86,6.06,6.06,0,0,1,2.24,2.41,7.32,7.32,0,0,1,.81,3.48,7.44,7.44,0,0,1-.8,3.48,6,6,0,0,1-2.21,2.41,6.51,6.51,0,0,1-6.47,0Zm5.49-1.46a4.29,4.29,0,0,0,1.58-1.81,6.31,6.31,0,0,0,0-5.24,4.29,4.29,0,0,0-1.58-1.81,4.18,4.18,0,0,0-2.3-.65,4.08,4.08,0,0,0-2.27.65,4.38,4.38,0,0,0-1.57,1.8,5.75,5.75,0,0,0-.57,2.6,5.93,5.93,0,0,0,.57,2.65A4.41,4.41,0,0,0,77,325.47a4.08,4.08,0,0,0,2.27.65A4.18,4.18,0,0,0,81.55,325.47Z"/><path class="cls-1" d="M95.58,314.48v1.67a2.85,2.85,0,0,0-1.24-.27,3.88,3.88,0,0,0-2.16.65,4.6,4.6,0,0,0-1.61,1.88,6.53,6.53,0,0,0-.6,2.9v6.05H88.13V314.72H90v2.54a6,6,0,0,1,1.84-2.19,4.33,4.33,0,0,1,2.53-.78A4,4,0,0,1,95.58,314.48Z"/><path class="cls-1" d="M99.28,326.93A6.09,6.09,0,0,1,97,324.51a7.46,7.46,0,0,1-.81-3.5,7.31,7.31,0,0,1,.8-3.47,6,6,0,0,1,2.21-2.39,6.12,6.12,0,0,1,3.23-.86,6.23,6.23,0,0,1,3.24.86,6.06,6.06,0,0,1,2.24,2.41,7.32,7.32,0,0,1,.81,3.48,7.44,7.44,0,0,1-.8,3.48,6,6,0,0,1-2.21,2.41,6.51,6.51,0,0,1-6.47,0Zm5.49-1.46a4.29,4.29,0,0,0,1.58-1.81,6.31,6.31,0,0,0,0-5.24,4.29,4.29,0,0,0-1.58-1.81,4.18,4.18,0,0,0-2.3-.65,4.08,4.08,0,0,0-2.27.65,4.38,4.38,0,0,0-1.57,1.8,5.75,5.75,0,0,0-.57,2.6,5.93,5.93,0,0,0,.57,2.65,4.41,4.41,0,0,0,1.57,1.81,4.08,4.08,0,0,0,2.27.65A4.18,4.18,0,0,0,104.77,325.47Z"/><path class="cls-1" d="M122.45,314.72v12.64h-1.84v-2.11a4.75,4.75,0,0,1-1.72,1.88,4.58,4.58,0,0,1-2.47.66,5.55,5.55,0,0,1-2.44-.54,4.21,4.21,0,0,1-1.78-1.59,4.61,4.61,0,0,1-.66-2.49v-8.45h1.83v7.64c0,2.5,1.12,3.76,3.35,3.76a3.34,3.34,0,0,0,2.92-1.38,6.29,6.29,0,0,0,1-3.7v-6.32Z"/><path class="cls-1" d="M137.59,314.72v12.15a6.4,6.4,0,0,1-.7,3,5.22,5.22,0,0,1-2,2.09,5.5,5.5,0,0,1-2.89.76h-5.24v-1.68H132a3.42,3.42,0,0,0,2.69-1.18,4.46,4.46,0,0,0,1-3v-1.38a5.53,5.53,0,0,1-1.92,1.69,5.12,5.12,0,0,1-2.48.61,6.18,6.18,0,0,1-3.24-.86,6,6,0,0,1-2.25-2.41,8,8,0,0,1,0-7,6.07,6.07,0,0,1,2.21-2.39,6.14,6.14,0,0,1,3.23-.86,5.29,5.29,0,0,1,2.53.61,5.52,5.52,0,0,1,1.93,1.71v-1.89Zm-4,10.75a4.43,4.43,0,0,0,1.58-1.81,6.31,6.31,0,0,0,0-5.24,4.43,4.43,0,0,0-1.58-1.81,4.21,4.21,0,0,0-2.31-.65,4.1,4.1,0,0,0-2.27.65,4.43,4.43,0,0,0-1.56,1.8,5.75,5.75,0,0,0-.57,2.6,5.93,5.93,0,0,0,.57,2.65,4.46,4.46,0,0,0,1.56,1.81,4.1,4.1,0,0,0,2.27.65A4.21,4.21,0,0,0,133.61,325.47Z"/><path class="cls-1" d="M149.46,314.83a4.27,4.27,0,0,1,1.78,1.59,4.58,4.58,0,0,1,.66,2.49v8.45h-1.83v-7.64c0-2.5-1.12-3.76-3.35-3.76a3.34,3.34,0,0,0-2.92,1.38,6.29,6.29,0,0,0-1,3.7v6.32H141v-19.6h1.84v9.07a4.8,4.8,0,0,1,1.71-1.88,4.63,4.63,0,0,1,2.47-.66A5.57,5.57,0,0,1,149.46,314.83Z"/><path class="cls-1" d="M155.55,327.36v-19.6h1.83v19.6Z"/><path class="cls-1" d="M169.59,314.72h1.72l-6.83,18h-1.83l2-5.16-5.19-12.88h1.92l4.18,10.48Z"/><path class="cls-1" d="M190.78,314.72v12.64h-1.84v-1.87a5.5,5.5,0,0,1-1.91,1.69,5.16,5.16,0,0,1-2.49.61,6.23,6.23,0,0,1-3.24-.86,6.06,6.06,0,0,1-2.24-2.41,8,8,0,0,1,0-7,6.07,6.07,0,0,1,2.21-2.39,6.14,6.14,0,0,1,3.23-.86,5.22,5.22,0,0,1,2.52.61,5.35,5.35,0,0,1,1.93,1.71v-1.89Zm-4,10.75a4.43,4.43,0,0,0,1.58-1.81,6.41,6.41,0,0,0,0-5.24,4.43,4.43,0,0,0-1.58-1.81,4.23,4.23,0,0,0-2.31-.65,4.1,4.1,0,0,0-2.27.65,4.36,4.36,0,0,0-1.56,1.8,5.75,5.75,0,0,0-.57,2.6,5.93,5.93,0,0,0,.57,2.65,4.39,4.39,0,0,0,1.56,1.81,4.1,4.1,0,0,0,2.27.65A4.23,4.23,0,0,0,186.8,325.47Z"/><path class="cls-1" d="M202.65,314.83a4.27,4.27,0,0,1,1.78,1.59,4.58,4.58,0,0,1,.66,2.49v8.45h-1.84v-7.64c0-2.5-1.11-3.76-3.34-3.76a3.34,3.34,0,0,0-2.92,1.38,6.29,6.29,0,0,0-1,3.7v6.32h-1.84V314.72H196v2.11a4.8,4.8,0,0,1,1.71-1.88,4.61,4.61,0,0,1,2.47-.66A5.57,5.57,0,0,1,202.65,314.83Z"/><path class="cls-1" d="M220.43,314.72v12.64h-1.84v-1.87a5.44,5.44,0,0,1-1.92,1.69,5.09,5.09,0,0,1-2.48.61,6.18,6.18,0,0,1-3.24-.86,6,6,0,0,1-2.24-2.41,8,8,0,0,1,0-7,6,6,0,0,1,5.45-3.25,5.27,5.27,0,0,1,2.52.61,5.43,5.43,0,0,1,1.93,1.71v-1.89Zm-4,10.75a4.29,4.29,0,0,0,1.58-1.81,6.31,6.31,0,0,0,0-5.24,4.29,4.29,0,0,0-1.58-1.81,4.18,4.18,0,0,0-2.3-.65,4.08,4.08,0,0,0-2.27.65,4.38,4.38,0,0,0-1.57,1.8,5.75,5.75,0,0,0-.57,2.6,5.93,5.93,0,0,0,.57,2.65,4.41,4.41,0,0,0,1.57,1.81,4.08,4.08,0,0,0,2.27.65A4.18,4.18,0,0,0,216.44,325.47Z"/><path class="cls-1" d="M224,327.36v-19.6h1.84v19.6Z"/><path class="cls-1" d="M238,314.72h1.73l-6.83,18h-1.84l2-5.16-5.18-12.88h1.91L234,325.2Z"/><path class="cls-1" d="M250.07,314.72v1.68l-7.23,9.28h7.23v1.68h-9.34v-1.68L248,316.4h-7.24v-1.68Z"/><path class="cls-1" d="M253.65,311.83a1.44,1.44,0,0,1-.42-1.05,1.37,1.37,0,0,1,.42-1,1.47,1.47,0,0,1,2.06,0,1.46,1.46,0,1,1-2.06,2.06Zm.12,15.53V314.72h1.84v12.64Z"/><path class="cls-1" d="M268.47,314.83a4.21,4.21,0,0,1,1.78,1.59,4.58,4.58,0,0,1,.66,2.49v8.45h-1.83v-7.64c0-2.5-1.12-3.76-3.35-3.76a3.34,3.34,0,0,0-2.92,1.38,6.36,6.36,0,0,0-1,3.7v6.32H260V314.72h1.83v2.11a4.9,4.9,0,0,1,1.72-1.88,4.58,4.58,0,0,1,2.47-.66A5.55,5.55,0,0,1,268.47,314.83Z"/><path class="cls-1" d="M286.25,314.72v12.15a6.4,6.4,0,0,1-.7,3,5.22,5.22,0,0,1-2,2.09,5.5,5.5,0,0,1-2.89.76h-5.24v-1.68h5.24a3.38,3.38,0,0,0,2.68-1.18,4.41,4.41,0,0,0,1-3v-1.38a5.5,5.5,0,0,1-1.91,1.69,5.16,5.16,0,0,1-2.49.61,6.23,6.23,0,0,1-3.24-.86,6.06,6.06,0,0,1-2.24-2.41,8,8,0,0,1,0-7,6.07,6.07,0,0,1,2.21-2.39,6.14,6.14,0,0,1,3.23-.86,5.22,5.22,0,0,1,2.52.61,5.35,5.35,0,0,1,1.93,1.71v-1.89Zm-4,10.75a4.43,4.43,0,0,0,1.58-1.81,6.41,6.41,0,0,0,0-5.24,4.43,4.43,0,0,0-1.58-1.81A4.23,4.23,0,0,0,280,316a4.1,4.1,0,0,0-2.27.65,4.36,4.36,0,0,0-1.56,1.8,5.75,5.75,0,0,0-.57,2.6,5.93,5.93,0,0,0,.57,2.65,4.39,4.39,0,0,0,1.56,1.81,4.1,4.1,0,0,0,2.27.65A4.23,4.23,0,0,0,282.27,325.47Z"/><path class="cls-1" d="M296.35,327.36v-11h-2.16v-1.68h2.16v-4.18h1.83v4.18h2.92v1.68h-2.92v11Z"/><path class="cls-1" d="M311.56,314.83a4.21,4.21,0,0,1,1.78,1.59,4.5,4.5,0,0,1,.67,2.49v8.45h-1.84v-7.64c0-2.5-1.12-3.76-3.35-3.76a3.32,3.32,0,0,0-2.91,1.38,6.29,6.29,0,0,0-1,3.7v6.32H303.1v-19.6h1.83v9.07a4.9,4.9,0,0,1,1.72-1.88,4.58,4.58,0,0,1,2.47-.66A5.52,5.52,0,0,1,311.56,314.83Z"/><path class="cls-1" d="M326.05,315.13a5.92,5.92,0,0,1,2.16,2.28,6.68,6.68,0,0,1,.78,3.23,7.59,7.59,0,0,1,0,.78H318.57a5.44,5.44,0,0,0,1.27,3.32,3.9,3.9,0,0,0,3.16,1.38,5.39,5.39,0,0,0,2.68-.61,4.72,4.72,0,0,0,1.72-1.69l1.46,1a6.36,6.36,0,0,1-2.35,2.2,7.16,7.16,0,0,1-3.46.8,6.28,6.28,0,0,1-3.27-.86,6.06,6.06,0,0,1-2.24-2.41,7.32,7.32,0,0,1-.81-3.48,7.44,7.44,0,0,1,.8-3.48,6,6,0,0,1,2.21-2.41,6.14,6.14,0,0,1,3.23-.86A5.82,5.82,0,0,1,326.05,315.13Zm1.1,4.78a4.81,4.81,0,0,0-1.32-3,4,4,0,0,0-2.86-1,3.94,3.94,0,0,0-2.88,1.12,5.12,5.12,0,0,0-1.41,2.83Z"/><path class="cls-1" d="M339.93,326.93a6,6,0,0,1-2.25-2.41,7.32,7.32,0,0,1-.81-3.48,7.44,7.44,0,0,1,.8-3.48,5.9,5.9,0,0,1,2.23-2.41,6.18,6.18,0,0,1,3.24-.86,5.27,5.27,0,0,1,2.68.66,7.23,7.23,0,0,1,2.1,1.88l-1.35,1.05a4,4,0,0,0-3.43-1.92,4.13,4.13,0,0,0-2.28.65,4.36,4.36,0,0,0-1.58,1.81,6.31,6.31,0,0,0,0,5.24,4.36,4.36,0,0,0,1.58,1.81,4.13,4.13,0,0,0,2.28.65,4.48,4.48,0,0,0,2.13-.45,4.74,4.74,0,0,0,1.51-1.31l1.43,1a6.47,6.47,0,0,1-2.2,1.77,6.16,6.16,0,0,1-2.82.66A6.22,6.22,0,0,1,339.93,326.93Z"/><path class="cls-1" d="M352.86,326.93a6,6,0,0,1-2.24-2.42,8,8,0,0,1,0-7,6,6,0,0,1,2.22-2.39,6.11,6.11,0,0,1,3.22-.86,6.18,6.18,0,0,1,3.24.86,6,6,0,0,1,2.25,2.41,7.32,7.32,0,0,1,.81,3.48,7.44,7.44,0,0,1-.8,3.48,6,6,0,0,1-2.22,2.41,6.11,6.11,0,0,1-3.22.86A6.18,6.18,0,0,1,352.86,326.93Zm5.49-1.46a4.36,4.36,0,0,0,1.58-1.81,6.31,6.31,0,0,0,0-5.24,4.36,4.36,0,0,0-1.58-1.81A4.19,4.19,0,0,0,356,316a4.07,4.07,0,0,0-2.26.65,4.38,4.38,0,0,0-1.57,1.8,5.75,5.75,0,0,0-.57,2.6,5.93,5.93,0,0,0,.57,2.65,4.41,4.41,0,0,0,1.57,1.81,4.07,4.07,0,0,0,2.26.65A4.19,4.19,0,0,0,358.35,325.47Z"/><path class="cls-1" d="M381.29,315.52a4.76,4.76,0,0,1,1.16,3.39v8.45h-1.84v-7.64a4.44,4.44,0,0,0-.75-2.88,2.5,2.5,0,0,0-2-.88,2.7,2.7,0,0,0-2.31,1.15,6,6,0,0,0-1,3.12v7.13h-1.84v-7.64a4.44,4.44,0,0,0-.75-2.88,2.5,2.5,0,0,0-2-.88,2.69,2.69,0,0,0-2.47,1.38,7.17,7.17,0,0,0-.83,3.7v6.32h-1.83V314.72h1.83v2a4.75,4.75,0,0,1,1.58-1.78,4,4,0,0,1,2.2-.62A4.05,4.05,0,0,1,373,315a3.9,3.9,0,0,1,1.43,2.12,5,5,0,0,1,1.62-2.1,4.08,4.08,0,0,1,5.29.47Z"/><path class="cls-1" d="M395.22,315.15a6.06,6.06,0,0,1,2.24,2.41,8,8,0,0,1,0,7,6,6,0,0,1-5.45,3.25,5.27,5.27,0,0,1-2.52-.61,5.35,5.35,0,0,1-1.93-1.71v7.29h-1.84v-18h1.84v1.86a5.51,5.51,0,0,1,1.92-1.68,5.09,5.09,0,0,1,2.48-.61A6.18,6.18,0,0,1,395.22,315.15Zm-.92,10.32a4.38,4.38,0,0,0,1.57-1.8,5.75,5.75,0,0,0,.57-2.6,5.93,5.93,0,0,0-.57-2.65,4.41,4.41,0,0,0-1.57-1.81A4.08,4.08,0,0,0,392,316a4.18,4.18,0,0,0-2.3.65,4.29,4.29,0,0,0-1.58,1.81,6.31,6.31,0,0,0,0,5.24,4.29,4.29,0,0,0,1.58,1.81,4.18,4.18,0,0,0,2.3.65A4.08,4.08,0,0,0,394.3,325.47Z"/><path class="cls-1" d="M412.61,314.72v12.64h-1.84v-1.87a5.5,5.5,0,0,1-1.91,1.69,5.16,5.16,0,0,1-2.49.61,6.23,6.23,0,0,1-3.24-.86,6.06,6.06,0,0,1-2.24-2.41,8,8,0,0,1,0-7,6.07,6.07,0,0,1,2.21-2.39,6.14,6.14,0,0,1,3.23-.86,5.22,5.22,0,0,1,2.52.61,5.35,5.35,0,0,1,1.93,1.71v-1.89Zm-4,10.75a4.43,4.43,0,0,0,1.58-1.81,6.41,6.41,0,0,0,0-5.24,4.43,4.43,0,0,0-1.58-1.81,4.23,4.23,0,0,0-2.31-.65,4.1,4.1,0,0,0-2.27.65,4.38,4.38,0,0,0-1.57,1.8,5.88,5.88,0,0,0-.56,2.6,6.07,6.07,0,0,0,.56,2.65,4.41,4.41,0,0,0,1.57,1.81,4.1,4.1,0,0,0,2.27.65A4.23,4.23,0,0,0,408.63,325.47Z"/><path class="cls-1" d="M424.47,314.83a4.24,4.24,0,0,1,1.79,1.59,4.58,4.58,0,0,1,.66,2.49v8.45h-1.84v-7.64c0-2.5-1.11-3.76-3.35-3.76a3.33,3.33,0,0,0-2.91,1.38,6.29,6.29,0,0,0-1,3.7v6.32H416V314.72h1.84v2.11a4.8,4.8,0,0,1,1.71-1.88,4.58,4.58,0,0,1,2.47-.66A5.52,5.52,0,0,1,424.47,314.83Z"/><path class="cls-1" d="M439.2,314.72h1.73l-6.83,18h-1.84l2-5.16-5.18-12.88H431l4.19,10.48Z"/><path class="cls-1" d="M442,312.05a5.67,5.67,0,0,0,1.43-2.78,1.43,1.43,0,0,1-1-.43,1.46,1.46,0,0,1-.42-1.06,1.42,1.42,0,0,1,.42-1,1.36,1.36,0,0,1,1-.44,1.47,1.47,0,0,1,1.07.41,1.43,1.43,0,0,1,.42,1.08,5.58,5.58,0,0,1-.68,2.67,4.23,4.23,0,0,1-1.75,1.84Z"/><path class="cls-1" d="M448.4,327a5.16,5.16,0,0,1-2.12-2.22l1.64-.81c.67,1.42,2,2.14,3.92,2.14a4.74,4.74,0,0,0,2.32-.52,1.7,1.7,0,0,0,.92-1.59,1.92,1.92,0,0,0-.74-1.65,5.52,5.52,0,0,0-2.61-.7A6.59,6.59,0,0,1,448,320.5,3.11,3.11,0,0,1,446.9,318a3.24,3.24,0,0,1,1.27-2.73,5.56,5.56,0,0,1,3.48-1q3.75,0,5.1,3l-1.64.81a3.27,3.27,0,0,0-1.34-1.59,4.47,4.47,0,0,0-2.26-.52,3.75,3.75,0,0,0-2.14.52,1.66,1.66,0,0,0-.74,1.46,1.68,1.68,0,0,0,.79,1.44,5.92,5.92,0,0,0,2.74.72,6.52,6.52,0,0,1,3.58,1.17,3.1,3.1,0,0,1,1.17,2.52,3.41,3.41,0,0,1-.72,2.18,4.55,4.55,0,0,1-1.95,1.36,7.25,7.25,0,0,1-2.62.46A6.45,6.45,0,0,1,448.4,327Z"/><path class="cls-1" d="M61.45,347.55A6,6,0,0,1,63.69,350a8,8,0,0,1,0,7,6,6,0,0,1-2.22,2.39,6.11,6.11,0,0,1-3.22.86,5.29,5.29,0,0,1-2.53-.61,5.43,5.43,0,0,1-1.93-1.71v7.29H52v-18h1.83V349a5.62,5.62,0,0,1,1.92-1.68,5.12,5.12,0,0,1,2.48-.61A6.18,6.18,0,0,1,61.45,347.55Zm-.91,10.32a4.43,4.43,0,0,0,1.56-1.8,5.75,5.75,0,0,0,.57-2.6,6,6,0,0,0-.57-2.65A4.46,4.46,0,0,0,60.54,349a4.12,4.12,0,0,0-2.27-.65A4.19,4.19,0,0,0,56,349a4.36,4.36,0,0,0-1.58,1.81,6.31,6.31,0,0,0,0,5.24A4.36,4.36,0,0,0,56,357.87a4.19,4.19,0,0,0,2.31.65A4.12,4.12,0,0,0,60.54,357.87Z"/><path class="cls-1" d="M75.63,347.53a5.92,5.92,0,0,1,2.16,2.28,6.68,6.68,0,0,1,.78,3.23,7.59,7.59,0,0,1,0,.78H68.15a5.44,5.44,0,0,0,1.27,3.32,3.9,3.9,0,0,0,3.16,1.38,5.39,5.39,0,0,0,2.68-.61A4.72,4.72,0,0,0,77,356.22l1.46,1a6.36,6.36,0,0,1-2.35,2.2,7.16,7.16,0,0,1-3.46.8,6.28,6.28,0,0,1-3.27-.86,6.06,6.06,0,0,1-2.24-2.41,7.32,7.32,0,0,1-.81-3.48,7.44,7.44,0,0,1,.8-3.48,6,6,0,0,1,2.21-2.41,6.14,6.14,0,0,1,3.23-.86A5.82,5.82,0,0,1,75.63,347.53Zm1.1,4.78a4.81,4.81,0,0,0-1.32-3,4,4,0,0,0-2.86-1,3.94,3.94,0,0,0-2.88,1.12,5.12,5.12,0,0,0-1.41,2.83Z"/><path class="cls-1" d="M88.72,346.88v1.67a2.85,2.85,0,0,0-1.24-.27,3.93,3.93,0,0,0-2.16.65,4.68,4.68,0,0,0-1.61,1.88,6.53,6.53,0,0,0-.6,2.9v6.05H81.27V347.12h1.84v2.54A5.9,5.9,0,0,1,85,347.47a4.3,4.3,0,0,1,2.52-.78A3.92,3.92,0,0,1,88.72,346.88Z"/><path class="cls-1" d="M93.54,342a2.37,2.37,0,0,0-.61,1.67v3.43h2.92v1.68H92.93v11H91.1v-11H89.48v-1.68H91.1v-3.43a3.84,3.84,0,0,1,4-4h.76v1.67h-.76A2,2,0,0,0,93.54,342Z"/><path class="cls-1" d="M100.12,359.33a6,6,0,0,1-2.24-2.42,8,8,0,0,1,0-7,6,6,0,0,1,2.22-2.39,6.11,6.11,0,0,1,3.22-.86,6.18,6.18,0,0,1,3.24.86,6,6,0,0,1,2.24,2.41,7.32,7.32,0,0,1,.81,3.48,7.43,7.43,0,0,1-.79,3.48,6,6,0,0,1-2.22,2.41,6.11,6.11,0,0,1-3.22.86A6.18,6.18,0,0,1,100.12,359.33Zm5.49-1.46a4.36,4.36,0,0,0,1.58-1.81,6.31,6.31,0,0,0,0-5.24,4.36,4.36,0,0,0-1.58-1.81,4.19,4.19,0,0,0-2.31-.65A4.12,4.12,0,0,0,101,349a4.43,4.43,0,0,0-1.56,1.8,5.75,5.75,0,0,0-.57,2.6,5.93,5.93,0,0,0,.57,2.65,4.46,4.46,0,0,0,1.56,1.81,4.12,4.12,0,0,0,2.27.65A4.19,4.19,0,0,0,105.61,357.87Z"/><path class="cls-1" d="M119.64,346.88v1.67a2.88,2.88,0,0,0-1.24-.27,3.88,3.88,0,0,0-2.16.65,4.53,4.53,0,0,0-1.61,1.88,6.39,6.39,0,0,0-.61,2.9v6.05h-1.83V347.12H114v2.54a6,6,0,0,1,1.85-2.19,4.33,4.33,0,0,1,2.53-.78A4,4,0,0,1,119.64,346.88Z"/><path class="cls-1" d="M137.7,347.92a4.76,4.76,0,0,1,1.16,3.39v8.45H137v-7.64a4.43,4.43,0,0,0-.76-2.88,2.5,2.5,0,0,0-2-.88,2.7,2.7,0,0,0-2.31,1.15,6,6,0,0,0-1,3.12v7.13H129.2v-7.64a4.43,4.43,0,0,0-.76-2.88,2.5,2.5,0,0,0-2-.88,2.69,2.69,0,0,0-2.47,1.38,7.17,7.17,0,0,0-.83,3.7v6.32h-1.83V347.12h1.83v2a4.83,4.83,0,0,1,1.58-1.78,4,4,0,0,1,2.2-.62,4.05,4.05,0,0,1,2.41.74,3.9,3.9,0,0,1,1.43,2.12,5,5,0,0,1,1.62-2.1,4.08,4.08,0,0,1,5.29.47Z"/><path class="cls-1" d="M153.87,347.12v12.64H152v-1.87a5.53,5.53,0,0,1-1.92,1.69,5.12,5.12,0,0,1-2.48.61,6.18,6.18,0,0,1-3.24-.86,6,6,0,0,1-2.25-2.41,8,8,0,0,1,0-7,6,6,0,0,1,2.22-2.39,6.11,6.11,0,0,1,3.22-.86,5.29,5.29,0,0,1,2.53.61A5.52,5.52,0,0,1,152,349v-1.89Zm-4,10.75a4.36,4.36,0,0,0,1.58-1.81,6.31,6.31,0,0,0,0-5.24,4.36,4.36,0,0,0-1.58-1.81,4.19,4.19,0,0,0-2.31-.65,4.12,4.12,0,0,0-2.27.65,4.43,4.43,0,0,0-1.56,1.8,5.75,5.75,0,0,0-.57,2.6,5.93,5.93,0,0,0,.57,2.65,4.46,4.46,0,0,0,1.56,1.81,4.12,4.12,0,0,0,2.27.65A4.19,4.19,0,0,0,149.89,357.87Z"/><path class="cls-1" d="M165.74,347.23a4.21,4.21,0,0,1,1.78,1.59,4.58,4.58,0,0,1,.66,2.49v8.45h-1.83v-7.64c0-2.5-1.12-3.76-3.35-3.76a3.34,3.34,0,0,0-2.92,1.38,6.29,6.29,0,0,0-1,3.7v6.32h-1.84V347.12h1.84v2.11a4.8,4.8,0,0,1,1.71-1.88,4.64,4.64,0,0,1,2.48-.66A5.55,5.55,0,0,1,165.74,347.23Z"/><path class="cls-1" d="M174,359.33a6,6,0,0,1-2.24-2.41,7.32,7.32,0,0,1-.81-3.48,7.43,7.43,0,0,1,.79-3.48,6,6,0,0,1,2.23-2.41,6.18,6.18,0,0,1,3.24-.86,5.31,5.31,0,0,1,2.69.66,7.33,7.33,0,0,1,2.09,1.88l-1.35,1a4,4,0,0,0-3.43-1.92,4.13,4.13,0,0,0-2.28.65,4.36,4.36,0,0,0-1.58,1.81,6.31,6.31,0,0,0,0,5.24,4.36,4.36,0,0,0,1.58,1.81,4.13,4.13,0,0,0,2.28.65,4.48,4.48,0,0,0,2.13-.45,4.74,4.74,0,0,0,1.51-1.31l1.44,1a6.67,6.67,0,0,1-2.2,1.77,6.51,6.51,0,0,1-6.09-.2Z"/><path class="cls-1" d="M193.18,347.53a5.92,5.92,0,0,1,2.16,2.28,6.58,6.58,0,0,1,.79,3.23,7.59,7.59,0,0,1,0,.78H185.7a5.57,5.57,0,0,0,1.27,3.32,3.92,3.92,0,0,0,3.16,1.38,5.43,5.43,0,0,0,2.69-.61,4.7,4.7,0,0,0,1.71-1.69l1.46,1a6.28,6.28,0,0,1-2.35,2.2,7.09,7.09,0,0,1-3.45.8,6.23,6.23,0,0,1-3.27-.86,6.06,6.06,0,0,1-2.24-2.41,7.32,7.32,0,0,1-.81-3.48,7.43,7.43,0,0,1,.79-3.48,6,6,0,0,1,2.22-2.41,6.12,6.12,0,0,1,3.23-.86A5.76,5.76,0,0,1,193.18,347.53Zm1.11,4.78a4.81,4.81,0,0,0-1.32-3,4,4,0,0,0-2.86-1,3.94,3.94,0,0,0-2.88,1.12,5.14,5.14,0,0,0-1.42,2.83Z"/><path class="cls-1" d="M198.84,359.54a1.46,1.46,0,0,1-.42-1.05,1.43,1.43,0,0,1,.42-1,1.39,1.39,0,0,1,1-.43,1.47,1.47,0,0,1,1.49,1.49,1.47,1.47,0,0,1-1.49,1.45A1.35,1.35,0,0,1,198.84,359.54Z"/></svg>