<svg xmlns="http://www.w3.org/2000/svg" xmlns:xlink="http://www.w3.org/1999/xlink" viewBox="0 0 802.46 419.98"><defs><style>.cls-1{isolation:isolate;}.cls-2{fill:#fff;}.cls-3{fill:url(#linear-gradient);}.cls-4{fill:#fcb616;}.cls-5{fill:#1368b1;}.cls-6{fill:url(#linear-gradient-2);}.cls-7{fill:url(#linear-gradient-3);}.cls-8{fill:url(#linear-gradient-4);}.cls-19,.cls-21,.cls-9{mix-blend-mode:soft-light;}.cls-10{fill:url(#linear-gradient-5);}.cls-11{fill:url(#linear-gradient-6);}.cls-12{fill:url(#linear-gradient-7);}.cls-13{fill:url(#linear-gradient-8);}.cls-14{fill:url(#linear-gradient-9);}.cls-15{fill:#999;}.cls-15,.cls-16,.cls-17,.cls-19,.cls-20{stroke:#fff;stroke-miterlimit:10;}.cls-15,.cls-16,.cls-17,.cls-20{stroke-width:0.5px;}.cls-16{fill:url(#linear-gradient-10);}.cls-17{fill:url(#linear-gradient-11);}.cls-18{fill:url(#linear-gradient-12);}.cls-19,.cls-20{fill:#cfcfcf;}.cls-19{stroke-width:0.75px;}.cls-19,.cls-21{opacity:0.5;}</style><linearGradient id="linear-gradient" x1="466.25" y1="185.8" x2="751.05" y2="185.8" gradientUnits="userSpaceOnUse"><stop offset="0" stop-color="#00adee"/><stop offset="1" stop-color="#1368b1"/></linearGradient><linearGradient id="linear-gradient-2" x1="9170.81" y1="186.03" x2="9140.4" y2="189.35" gradientTransform="matrix(-1, 0, 0, 1, 9794.13, 0)" gradientUnits="userSpaceOnUse"><stop offset="0" stop-color="#444b8c"/><stop offset="1" stop-color="#26264f"/></linearGradient><linearGradient id="linear-gradient-3" x1="9197.6" y1="109.38" x2="9122.41" y2="365.36" xlink:href="#linear-gradient-2"/><linearGradient id="linear-gradient-4" x1="9169.42" y1="103.08" x2="9081.06" y2="342.41" gradientTransform="matrix(-1, 0, 0, 1, 9794.13, 0)" gradientUnits="userSpaceOnUse"><stop offset="0" stop-color="#ffc444"/><stop offset="1" stop-color="#f36f56"/></linearGradient><linearGradient id="linear-gradient-5" x1="9185.17" y1="108.91" x2="9132.37" y2="241.43" gradientTransform="matrix(-1, 0, 0, 1, 9794.13, 0)" gradientUnits="userSpaceOnUse"><stop offset="0" stop-color="#311944"/><stop offset="1" stop-color="#6b3976"/></linearGradient><linearGradient id="linear-gradient-6" x1="9203.74" y1="110.05" x2="9150.94" y2="242.57" xlink:href="#linear-gradient-5"/><linearGradient id="linear-gradient-7" x1="9232.5" y1="127.77" x2="9179.7" y2="260.29" xlink:href="#linear-gradient-5"/><linearGradient id="linear-gradient-8" x1="9193.32" y1="112.16" x2="9140.52" y2="244.68" xlink:href="#linear-gradient-5"/><linearGradient id="linear-gradient-9" x1="9231.29" y1="127.29" x2="9178.49" y2="259.81" xlink:href="#linear-gradient-5"/><linearGradient id="linear-gradient-10" x1="9204.66" y1="109.44" x2="9151.86" y2="241.96" gradientTransform="matrix(-1, 0, 0, 1, 9794.13, 0)" gradientUnits="userSpaceOnUse"><stop offset="0" stop-color="#ff9085"/><stop offset="1" stop-color="#fb6fbb"/></linearGradient><linearGradient id="linear-gradient-11" x1="560.03" y1="236.81" x2="648.19" y2="236.81" xlink:href="#linear-gradient"/><linearGradient id="linear-gradient-12" x1="9128.93" y1="322.75" x2="9153.78" y2="225.43" gradientTransform="matrix(-1, 0, 0, 1, 9794.13, 0)" gradientUnits="userSpaceOnUse"><stop offset="0" stop-color="#f36f56"/><stop offset="1" stop-color="#ffc444"/></linearGradient></defs><title>Items web</title><g class="cls-1"><g id="Layer_1" data-name="Layer 1"><circle class="cls-2" cx="621.41" cy="185.7" r="139.45" transform="translate(50.7 493.79) rotate(-45)"/><rect class="cls-2" x="173.72" y="100.42" width="359.15" height="81.73" rx="29.28" ry="29.28"/><path class="cls-3" d="M743.48,253.77A139.46,139.46,0,1,1,621.74,46.26c1.43,0,2.86,0,4.28.07-4.89-6.72-8.93-12.06-11.91-15.92-82.21,4-147.86,72.13-147.86,155.3,0,85.73,69.75,155.48,155.49,155.48a155.42,155.42,0,0,0,129.31-69.25Q747.33,262.73,743.48,253.77Z"/><circle class="cls-4" cx="620.39" cy="187.17" r="117.41"/><path class="cls-4" d="M592.38,255.92c-12.14,6.48-20.44,16.44-26.08,28.8-.63,1.37-1.17,2.79-1.76,4.18,0,.07-.16.1-.49.27A105.77,105.77,0,0,1,541.49,273c-19.62-18.13-32.06-40.38-36.23-66.72-5.52-34.85,2.71-66.42,25.21-93.81a113.19,113.19,0,0,1,66.25-40A116.58,116.58,0,0,1,721.48,128.2c.45.78.78,1.64,1.17,2.46l-1.21.15c-12.88,1.32-22.54,9.51-25.12,21.3S699,175.3,710.23,182c.42.25.81.54,1.31.88l-4.49,8.75a100.83,100.83,0,0,0,11-5.19,9,9,0,0,1,3.66-1.27c5.17-.11,10.36,0,15.54,0,1.18,51-31.67,89.81-60.8,103.85-5.4-13.94-13.91-25.33-27.18-32.73l-3.06-1.66c1.24-1.56,2.77-3,3.62-4.73a2.78,2.78,0,0,1,3-1.76c5.06,0,10.13.12,15.18-.09,8.19-.36,15.25-7.83,15.31-16,0-3.74,0-7.48.16-11.21.08-2.8.31-5.59.48-8.38,6.68-1.28,12.43-7.38,13.92-14.78a19,19,0,0,0-8.3-19.42l-2.17-1.82q0-21.69.05-43.38c.6-1.06,1.14-2.16,1.81-3.17a22.27,22.27,0,0,0,2-2.61,6.77,6.77,0,0,0-12.18-5.9c-1.81,3.52-.42,7.19,3.54,9.34,0,1.12.1,2.23.1,3.35q.06,20.3.11,40.59l-3.15,0C666.78,140.31,629,124,595.33,138.67c-16.21,7.06-27.4,19.24-33.61,35.87l-.62.69,0-.07-2.92.1-.13-43.94c.3-.26.58-.55.9-.79,3.83-2.82,4.7-7.37,2-10.49a7,7,0,0,0-10-.22c-3.08,3.2-2.57,7.32,1.21,10.52a7.63,7.63,0,0,1,1.26,2.16q0,22,.07,44l-2.09,1.83A18,18,0,0,0,549,180c-5.49,5.35-7.41,11.83-5.43,19.22,1.94,7.16,6.77,11.61,13.91,13.56q.11,9.65.22,19.28c0,7.87,6.87,15.49,14.68,15.87,5.94.29,11.91.06,17.64.06.85,1.46,1.42,2.65,2.19,3.7a35.06,35.06,0,0,0,2.58,2.89Z"/><path class="cls-4" d="M561.72,174.54l-.62.69Z"/><path class="cls-4" d="M668.75,188.72l-.49-1.82Z"/><path class="cls-4" d="M572.54,188.08l-.36,1.26Z"/><path class="cls-4" d="M669.25,191.9l-.27-1.32Z"/><path class="cls-4" d="M572,191.19c-.1.45-.19.91-.29,1.36C571.78,192.1,571.87,191.64,572,191.19Z"/><path class="cls-5" d="M204.14,125.11H212q5.18,0,5.17,5.48v9.5q0,5.44-5.13,5.45h-3.56v11.59h-4.29Zm4.29,16.55h2.72c1.13,0,1.69-.63,1.69-1.88v-8.92a1.67,1.67,0,0,0-1.92-1.87h-2.49Z"/><path class="cls-5" d="M220.51,157.13v-32h10.62V129h-6.34v9.72h5.62v3.88h-5.62v10.66h6.34v3.88Z"/><path class="cls-5" d="M234.2,125.11h8.39q4.91,0,4.91,5.48v7.9q0,4.19-2.55,5.31l3,13.33h-4.06l-2.81-12.93h-2.58v12.93H234.2Zm4.29,15.43h2.81c1.27,0,1.91-.77,1.91-2.32v-6.91c0-1.55-.64-2.32-1.91-2.32h-2.81Z"/><path class="cls-5" d="M259.27,133.72v-2.81A1.67,1.67,0,0,0,257.4,129h-.67q-1.83,0-1.83,1.92v5.3a1.57,1.57,0,0,0,.36,1.21,8.33,8.33,0,0,0,1.16.8l4.05,2.19a17.35,17.35,0,0,1,1.9,1.18,3,3,0,0,1,.87,1,5.67,5.67,0,0,1,.31,2.3v6.83q0,5.38-5.17,5.39h-2.63q-5.13,0-5.13-5.88v-1.61h4.28v1.74a1.67,1.67,0,0,0,1.92,1.87h.76c1.13,0,1.69-.62,1.69-1.87v-5.44a1.57,1.57,0,0,0-.36-1.21,10.16,10.16,0,0,0-1.16-.8l-4.06-2.27a13.42,13.42,0,0,1-1.94-1.21,2.79,2.79,0,0,1-.87-1.27,6.68,6.68,0,0,1-.26-2v-6.56q0-5.48,5.13-5.48h2.67q5.13,0,5.13,5.48v3.13Z"/><path class="cls-5" d="M272.07,157.13q-5.18,0-5.17-5.44v-21.1q0-5.48,5.13-5.48h4.1q5.13,0,5.13,5.48v21.1q0,5.44-5.18,5.44Zm1-3.88h2.18c1.13,0,1.7-.62,1.7-1.87V130.86a1.67,1.67,0,0,0-1.92-1.87h-2a1.65,1.65,0,0,0-1.87,1.87v20.52A1.67,1.67,0,0,0,273.1,153.25Z"/><path class="cls-5" d="M293.93,140.59V125.11h4.28v32h-4.28v-6.38l-4.6-14.58v21h-4.28v-32h4.28Z"/><path class="cls-5" d="M306.28,157.13H302V130.59q0-5.48,5.13-5.48h3.21q5.13,0,5.13,5.48v26.54h-4.28V145.4h-4.91Zm4.91-15.61V130.86a1.66,1.66,0,0,0-1.88-1.87h-1.16a1.65,1.65,0,0,0-1.87,1.87v10.66Z"/><path class="cls-5" d="M329.43,157.13H319.26v-32h4.28v28.14h5.89Z"/><path class="cls-5" d="M331.88,157.13v-32h4.28v32Z"/><path class="cls-5" d="M343.56,153.25h7.23v3.88H338.93l-.32-1.51L345.35,129h-6v-3.92H349l.89,1.83Z"/><path class="cls-5" d="M353.24,157.13v-32h10.62V129h-6.33v9.72h5.62v3.88h-5.62v10.66h6.33v3.88Z"/><path class="cls-5" d="M366.94,157.13v-32h7.45q6,0,6,6.15v21.23c0,3.1-1.71,4.64-5.13,4.64Zm4.28-3.88h3.21c1.13,0,1.69-.47,1.69-1.43V131.31c0-1.55-.64-2.32-1.91-2.32h-3Z"/><path class="cls-5" d="M395.39,157.13h-4.28V130.59q0-5.48,5.13-5.48h3.21q5.13,0,5.13,5.48v26.54H400.3V145.4h-4.91Zm4.91-15.61V130.86a1.66,1.66,0,0,0-1.88-1.87h-1.16a1.65,1.65,0,0,0-1.87,1.87v10.66Z"/><path class="cls-5" d="M408.37,125.11h7.8q5.18,0,5.18,5.48v9.5q0,5.44-5.13,5.45h-3.57v11.59h-4.28Zm4.28,16.55h2.72c1.13,0,1.7-.63,1.7-1.88v-8.92a1.67,1.67,0,0,0-1.92-1.87h-2.5Z"/><path class="cls-5" d="M424.74,125.11h7.8q5.18,0,5.18,5.48v9.5q0,5.44-5.13,5.45H429v11.59h-4.28ZM429,141.66h2.72c1.13,0,1.7-.63,1.7-1.88v-8.92a1.67,1.67,0,0,0-1.92-1.87H429Z"/><path class="cls-6" d="M587,109.42l-18.53,154A4.06,4.06,0,0,0,572,268l77.16,8.48c4.72.29,7.31-2.13,7.6-4.58l19.45-163.7c.29-2.45-2-4.66-6.77-4.66l-77.87,1.64A4.91,4.91,0,0,0,587,109.42Z"/><path class="cls-7" d="M583.54,109.15,564.91,263.9a4.07,4.07,0,0,0,3.55,4.62l80,8a4.68,4.68,0,0,0,5.1-4l19.56-164.55a3.89,3.89,0,0,0-4.09-4.39l-80.88,1.37A4.92,4.92,0,0,0,583.54,109.15Z"/><path class="cls-2" d="M585.05,117.69,567.79,261.17a3.79,3.79,0,0,0,3.33,4.31l75.23,7.31a4.35,4.35,0,0,0,4.74-3.76l18.07-152a3.62,3.62,0,0,0-3.79-4.11l-76,.81A4.57,4.57,0,0,0,585.05,117.69Z"/><path class="cls-8" d="M625.4,109.05a1.28,1.28,0,0,0,1.32,1.47A1.76,1.76,0,0,0,628.4,109a1.28,1.28,0,0,0-1.32-1.48A1.77,1.77,0,0,0,625.4,109.05Z"/><g class="cls-9"><path class="cls-2" d="M598.06,214c15.4-28.47,38.41-37,45.34-66.34,3.74-15.87,1.19-31-3.11-43.65l28.74-.49a3.89,3.89,0,0,1,4.09,4.39L653.56,272.46a4.68,4.68,0,0,1-5.1,4l-62.88-6.26C585.11,244.71,591.2,226.7,598.06,214Z"/></g><path class="cls-10" d="M581.32,119.59l74.89,1a4.2,4.2,0,0,1,4.18,4.83l-1.48,12.43a5.36,5.36,0,0,1-5.32,4.67l-74.8-1.67a4,4,0,0,1-3.88-4.7l1.43-12A5.15,5.15,0,0,1,581.32,119.59Z"/><path class="cls-11" d="M571.55,142.24l74.78,1.84a4.26,4.26,0,0,1,4.18,4.89L649,161.4a5.29,5.29,0,0,1-5.31,4.61L569,163.46a4.08,4.08,0,0,1-3.87-4.75l1.42-12A5.08,5.08,0,0,1,571.55,142.24Z"/><path class="cls-12" d="M570.38,211.31l74.53,4a4.42,4.42,0,0,1,4.16,5l-4.62,38.72a5,5,0,0,1-5.29,4.41l-74.33-5.59A4.29,4.29,0,0,1,561,253l4.44-37.32A4.91,4.91,0,0,1,570.38,211.31Z"/><path class="cls-13" d="M645.6,209.53,615.21,208a4.3,4.3,0,0,1-4-4.93l2.88-24.18a5.14,5.14,0,0,1,5.15-4.52l30.45,1.12a4.34,4.34,0,0,1,4.18,5L650.9,205A5.18,5.18,0,0,1,645.6,209.53Z"/><path class="cls-14" d="M575,172.71l29.26,1.07a4.21,4.21,0,0,1,4,4.85l-2.87,24.12a5,5,0,0,1-5.11,4.44l-29.21-1.51a4.19,4.19,0,0,1-3.87-4.83l2.83-23.7A5,5,0,0,1,575,172.71Z"/><path class="cls-15" d="M580.4,119l74.89,1a4.21,4.21,0,0,1,4.19,4.83L658,137.21a5.37,5.37,0,0,1-5.32,4.67l-74.81-1.68a4,4,0,0,1-3.88-4.69l1.43-12A5.16,5.16,0,0,1,580.4,119Z"/><path class="cls-16" d="M570.63,141.63l74.79,1.85a4.27,4.27,0,0,1,4.18,4.89l-1.49,12.43a5.3,5.3,0,0,1-5.31,4.61l-74.7-2.56a4.09,4.09,0,0,1-3.87-4.75l1.43-12A5.08,5.08,0,0,1,570.63,141.63Z"/><path class="cls-17" d="M569.47,210.71l74.52,4a4.41,4.41,0,0,1,4.16,5l-4.61,38.72a5,5,0,0,1-5.29,4.42l-74.34-5.6a4.29,4.29,0,0,1-3.85-4.93l4.45-37.31A4.89,4.89,0,0,1,569.47,210.71Z"/><path class="cls-18" d="M644.69,208.92l-30.4-1.56a4.3,4.3,0,0,1-4-4.93l2.88-24.18a5.15,5.15,0,0,1,5.16-4.52l30.45,1.12a4.33,4.33,0,0,1,4.17,4.94L650,204.4A5.17,5.17,0,0,1,644.69,208.92Z"/><path class="cls-19" d="M644.69,208.92l-30.4-1.56a4.3,4.3,0,0,1-4-4.93l2.88-24.18a5.15,5.15,0,0,1,5.16-4.52l30.45,1.12a4.33,4.33,0,0,1,4.17,4.94L650,204.4A5.17,5.17,0,0,1,644.69,208.92Z"/><path class="cls-20" d="M574.07,172.11l29.27,1.07a4.21,4.21,0,0,1,4,4.85l-2.88,24.11a5,5,0,0,1-5.1,4.45l-29.22-1.51a4.17,4.17,0,0,1-3.86-4.83l2.82-23.71A5,5,0,0,1,574.07,172.11Z"/><g class="cls-21"><path class="cls-2" d="M645.42,143.48a4.27,4.27,0,0,1,4.18,4.89l-1.49,12.43a5.3,5.3,0,0,1-5.31,4.61l-52.49-1.8c5.64-7.83,13-13.88,17.46-21.06Z"/></g><g class="cls-21"><path class="cls-2" d="M600.86,212.41,644,214.75a4.41,4.41,0,0,1,4.16,5l-4.61,38.72a5,5,0,0,1-5.29,4.42l-33.43-2.52a55.26,55.26,0,0,0,4.09-20C609.06,228.45,605,220.1,600.86,212.41Z"/></g><g class="cls-21"><path class="cls-2" d="M592.69,182.11a37,37,0,0,1,2.73-9.22l7.92.29a4.21,4.21,0,0,1,4,4.85l-2.88,24.11a5,5,0,0,1-5.1,4.45l-1.68-.09C594,199.32,591.11,192,592.69,182.11Z"/></g><g class="cls-21"><path class="cls-2" d="M621.68,128.27a27.83,27.83,0,0,0-2.19-8.78l35.8.46a4.21,4.21,0,0,1,4.19,4.83L658,137.21a5.37,5.37,0,0,1-5.32,4.67l-33.61-.75A23.61,23.61,0,0,0,621.68,128.27Z"/></g><path class="cls-2" d="M66.91,244.52a9.23,9.23,0,0,1-1.84,3.18l1.59,1.56-1.18,1.16-1.65-1.64a7.46,7.46,0,0,1-8.28.07,8.21,8.21,0,0,1-2.8-3.42,12.64,12.64,0,0,1,0-10,8.18,8.18,0,0,1,2.8-3.43,7.42,7.42,0,0,1,8.18,0,8.12,8.12,0,0,1,2.81,3.43,11.8,11.8,0,0,1,1,5A12.12,12.12,0,0,1,66.91,244.52ZM62.4,247.4l-2.27-2.27,1.19-1.19,2.35,2.33A8.14,8.14,0,0,0,65,243.72a10.66,10.66,0,0,0,.48-3.26,10.29,10.29,0,0,0-.75-4,6.59,6.59,0,0,0-2.09-2.78,5,5,0,0,0-6,0,6.59,6.59,0,0,0-2.09,2.78,10.29,10.29,0,0,0-.75,4,10.17,10.17,0,0,0,.75,4,6.49,6.49,0,0,0,2.09,2.75,4.94,4.94,0,0,0,3,1A5.05,5.05,0,0,0,62.4,247.4Z"/><path class="cls-2" d="M81.14,237v12.63H79.3v-2.1a4.77,4.77,0,0,1-1.71,1.87,4.63,4.63,0,0,1-2.47.66,5.57,5.57,0,0,1-2.45-.54,4.27,4.27,0,0,1-1.78-1.59,4.57,4.57,0,0,1-.66-2.48V237h1.83v7.64q0,3.75,3.35,3.75A3.34,3.34,0,0,0,78.33,247a6.29,6.29,0,0,0,1-3.7V237Z"/><path class="cls-2" d="M85.42,234.12a1.46,1.46,0,0,1-.42-1.06,1.43,1.43,0,0,1,1.46-1.43,1.42,1.42,0,0,1,1,.42,1.46,1.46,0,0,1,0,2.07,1.43,1.43,0,0,1-1,.43A1.39,1.39,0,0,1,85.42,234.12Zm.12,15.52V237h1.83v12.63Z"/><path class="cls-2" d="M101.68,249.64h-2.1l-3.3-5.26L93,249.64h-2l4-6.48L91.18,237h2.08l3,5,3.21-5h2l-4,6.12Z"/><path class="cls-2" d="M114.16,249.64h-2.11l-3.29-5.26-3.3,5.26h-2l4-6.48L103.65,237h2.08l3,5,3.22-5h2l-4,6.12Z"/><path class="cls-2" d="M125,249.21a6,6,0,0,1-2.24-2.42,7.42,7.42,0,0,1-.81-3.49,7.25,7.25,0,0,1,.8-3.47,5.87,5.87,0,0,1,2.21-2.39,6,6,0,0,1,3.23-.87,6.14,6.14,0,0,1,3.24.87,6,6,0,0,1,2.24,2.4,7.38,7.38,0,0,1,.81,3.48,7.51,7.51,0,0,1-.8,3.49,6.28,6.28,0,0,1-8.68,2.4Zm5.49-1.46a4.24,4.24,0,0,0,1.58-1.81,5.83,5.83,0,0,0,.57-2.62,5.89,5.89,0,0,0-.57-2.62,4.27,4.27,0,0,0-1.58-1.8,4.1,4.1,0,0,0-2.3-.65,4,4,0,0,0-2.27.65,4.42,4.42,0,0,0-1.57,1.79,5.79,5.79,0,0,0-.56,2.61,5.89,5.89,0,0,0,.56,2.64,4.35,4.35,0,0,0,1.57,1.81,4.08,4.08,0,0,0,2.27.65A4.18,4.18,0,0,0,130.5,247.75Z"/><path class="cls-2" d="M137.75,238.68h-1.62V237h1.62v-3.43a3.94,3.94,0,0,1,1.12-2.88,3.9,3.9,0,0,1,2.88-1.12h.76v1.67h-.76a2,2,0,0,0-1.55.65,2.33,2.33,0,0,0-.61,1.68V237h5.59v-3.43a3.84,3.84,0,0,1,4-4h.75v1.67h-.75a2.05,2.05,0,0,0-1.56.65,2.37,2.37,0,0,0-.61,1.68V237h2.92v1.67H147v11h-1.83v-11h-5.59v11h-1.84Z"/><path class="cls-2" d="M160.46,237.41a5.92,5.92,0,0,1,2.16,2.28,6.71,6.71,0,0,1,.78,3.23c0,.34,0,.6,0,.78H153a5.48,5.48,0,0,0,1.27,3.32,3.91,3.91,0,0,0,3.16,1.38,5.33,5.33,0,0,0,2.69-.61,4.62,4.62,0,0,0,1.71-1.69l1.46,1a6.44,6.44,0,0,1-2.35,2.2,7.1,7.1,0,0,1-3.46.79,6.13,6.13,0,0,1-3.26-.86,6,6,0,0,1-2.24-2.4,7.39,7.39,0,0,1-.81-3.49,7.49,7.49,0,0,1,.79-3.48,5.86,5.86,0,0,1,2.22-2.4,6,6,0,0,1,3.22-.87A5.79,5.79,0,0,1,160.46,237.41Zm1.11,4.78a4.79,4.79,0,0,0-1.33-3,4,4,0,0,0-2.86-1,3.86,3.86,0,0,0-2.87,1.12,5.14,5.14,0,0,0-1.42,2.82Z"/><path class="cls-2" d="M173.55,236.76v1.68a2.82,2.82,0,0,0-1.24-.27,3.92,3.92,0,0,0-2.16.64,4.65,4.65,0,0,0-1.6,1.88,6.42,6.42,0,0,0-.61,2.9v6H166.1V237h1.84v2.53a6,6,0,0,1,1.85-2.18,4.26,4.26,0,0,1,2.52-.79A4.18,4.18,0,0,1,173.55,236.76Z"/><path class="cls-2" d="M176.48,249.29a5.17,5.17,0,0,1-2.11-2.21l1.64-.81c.67,1.42,2,2.13,3.92,2.13a4.74,4.74,0,0,0,2.32-.51,1.73,1.73,0,0,0,.92-1.6,1.91,1.91,0,0,0-.74-1.64,5.51,5.51,0,0,0-2.61-.71,6.59,6.59,0,0,1-3.71-1.16,3.1,3.1,0,0,1-1.12-2.51,3.2,3.2,0,0,1,1.27-2.72,5.56,5.56,0,0,1,3.48-1q3.75,0,5.1,3l-1.65.81a3.2,3.2,0,0,0-1.33-1.59,4.47,4.47,0,0,0-2.26-.51,3.76,3.76,0,0,0-2.14.51,1.66,1.66,0,0,0-.75,1.46,1.69,1.69,0,0,0,.8,1.44,5.92,5.92,0,0,0,2.74.72,6.52,6.52,0,0,1,3.58,1.17,3.11,3.11,0,0,1,1.17,2.53,3.33,3.33,0,0,1-.73,2.17,4.38,4.38,0,0,1-1.94,1.36,7.25,7.25,0,0,1-2.62.46A6.52,6.52,0,0,1,176.48,249.29Z"/><path class="cls-2" d="M205.55,237v12.63h-1.84v-1.86a5.71,5.71,0,0,1-1.91,1.69,5.26,5.26,0,0,1-2.49.6,6,6,0,0,1-5.48-3.26,7.45,7.45,0,0,1-.81-3.51,7.37,7.37,0,0,1,.8-3.47,5.94,5.94,0,0,1,2.21-2.39,6.06,6.06,0,0,1,3.23-.87,5.33,5.33,0,0,1,2.52.61,5.48,5.48,0,0,1,1.93,1.72V237Zm-4,10.74a4.37,4.37,0,0,0,1.58-1.81,6,6,0,0,0,.56-2.62,6,6,0,0,0-.56-2.62,4.4,4.4,0,0,0-1.58-1.8,4.15,4.15,0,0,0-2.31-.65,4,4,0,0,0-2.27.65,4.42,4.42,0,0,0-1.57,1.79,5.92,5.92,0,0,0-.56,2.61,6,6,0,0,0,.56,2.64,4.35,4.35,0,0,0,1.57,1.81,4.1,4.1,0,0,0,2.27.65A4.23,4.23,0,0,0,201.57,247.75Z"/><path class="cls-2" d="M224.48,237.44a6,6,0,0,1,2.24,2.4,8,8,0,0,1,0,7,5.92,5.92,0,0,1-5.44,3.25,5.33,5.33,0,0,1-2.52-.6,5.48,5.48,0,0,1-1.93-1.72V255H215V237h1.84v1.86a5.71,5.71,0,0,1,1.91-1.69,5.27,5.27,0,0,1,2.49-.61A6.14,6.14,0,0,1,224.48,237.44Zm-.92,10.31a4.4,4.4,0,0,0,1.56-1.79,5.82,5.82,0,0,0,.57-2.61,6,6,0,0,0-.57-2.65,4.36,4.36,0,0,0-1.56-1.8,4,4,0,0,0-2.27-.65,4.15,4.15,0,0,0-2.31.65,4.4,4.4,0,0,0-1.58,1.8,5.89,5.89,0,0,0-.56,2.62,5.83,5.83,0,0,0,.56,2.62,4.37,4.37,0,0,0,1.58,1.81,4.23,4.23,0,0,0,2.31.65A4.1,4.1,0,0,0,223.56,247.75Z"/><path class="cls-2" d="M238.65,237.41a5.92,5.92,0,0,1,2.16,2.28,6.71,6.71,0,0,1,.78,3.23c0,.34,0,.6,0,.78h-10.4a5.48,5.48,0,0,0,1.27,3.32,3.92,3.92,0,0,0,3.16,1.38,5.33,5.33,0,0,0,2.69-.61A4.62,4.62,0,0,0,240,246.1l1.46,1a6.44,6.44,0,0,1-2.35,2.2,7.1,7.1,0,0,1-3.46.79,6.13,6.13,0,0,1-3.26-.86,6,6,0,0,1-2.24-2.4,7.39,7.39,0,0,1-.81-3.49,7.49,7.49,0,0,1,.79-3.48,5.86,5.86,0,0,1,2.22-2.4,6,6,0,0,1,3.22-.87A5.79,5.79,0,0,1,238.65,237.41Zm1.11,4.78a4.79,4.79,0,0,0-1.33-3,4,4,0,0,0-2.86-1,3.86,3.86,0,0,0-2.87,1.12,5.14,5.14,0,0,0-1.42,2.82Z"/><path class="cls-2" d="M251.75,236.76v1.68a2.89,2.89,0,0,0-1.25-.27,3.92,3.92,0,0,0-2.16.64,4.65,4.65,0,0,0-1.6,1.88,6.42,6.42,0,0,0-.61,2.9v6h-1.84V237h1.84v2.53a6,6,0,0,1,1.85-2.18,4.35,4.35,0,0,1,3.77-.6Z"/><path class="cls-2" d="M254.68,249.29a5.22,5.22,0,0,1-2.13-2.21l1.65-.81c.67,1.42,2,2.13,3.92,2.13a4.74,4.74,0,0,0,2.32-.51,1.73,1.73,0,0,0,.92-1.6,1.89,1.89,0,0,0-.75-1.64,5.42,5.42,0,0,0-2.6-.71,6.59,6.59,0,0,1-3.71-1.16,3.1,3.1,0,0,1-1.12-2.51,3.2,3.2,0,0,1,1.27-2.72,5.56,5.56,0,0,1,3.48-1q3.75,0,5.1,3l-1.65.81a3.2,3.2,0,0,0-1.33-1.59,4.47,4.47,0,0,0-2.26-.51,3.76,3.76,0,0,0-2.14.51,1.66,1.66,0,0,0-.75,1.46,1.69,1.69,0,0,0,.8,1.44,5.88,5.88,0,0,0,2.74.72,6.52,6.52,0,0,1,3.58,1.17,3.11,3.11,0,0,1,1.17,2.53,3.33,3.33,0,0,1-.73,2.17,4.38,4.38,0,0,1-1.94,1.36,7.25,7.25,0,0,1-2.62.46A6.45,6.45,0,0,1,254.68,249.29Z"/><path class="cls-2" d="M268.24,249.21a6,6,0,0,1-2.24-2.42,7.92,7.92,0,0,1,0-7,5.94,5.94,0,0,1,2.21-2.39,6.06,6.06,0,0,1,3.23-.87,6.14,6.14,0,0,1,3.24.87,6,6,0,0,1,2.24,2.4,7.38,7.38,0,0,1,.81,3.48,7.51,7.51,0,0,1-.8,3.49,5.91,5.91,0,0,1-5.44,3.26A6.14,6.14,0,0,1,268.24,249.21Zm5.5-1.46a4.37,4.37,0,0,0,1.58-1.81,6,6,0,0,0,.56-2.62,6,6,0,0,0-.56-2.62,4.4,4.4,0,0,0-1.58-1.8,4.15,4.15,0,0,0-2.31-.65,4,4,0,0,0-2.27.65,4.42,4.42,0,0,0-1.57,1.79,5.92,5.92,0,0,0-.56,2.61,6,6,0,0,0,.56,2.64,4.35,4.35,0,0,0,1.57,1.81,4.1,4.1,0,0,0,2.27.65A4.23,4.23,0,0,0,273.74,247.75Z"/><path class="cls-2" d="M288.78,237.11a4.23,4.23,0,0,1,1.78,1.6,4.57,4.57,0,0,1,.66,2.48v8.45h-1.84V242c0-2.5-1.11-3.75-3.35-3.75a3.35,3.35,0,0,0-2.91,1.37,6.31,6.31,0,0,0-1,3.7v6.32h-1.84V237h1.84v2.1a4.87,4.87,0,0,1,1.71-1.88,4.61,4.61,0,0,1,2.47-.66A5.6,5.6,0,0,1,288.78,237.11Z"/><path class="cls-2" d="M306.55,237v12.63h-1.83v-1.86a5.65,5.65,0,0,1-1.92,1.69,5.2,5.2,0,0,1-2.48.6,6,6,0,0,1-5.48-3.26,7.45,7.45,0,0,1-.81-3.51,7.36,7.36,0,0,1,.79-3.47,5.89,5.89,0,0,1,2.22-2.39,6,6,0,0,1,3.22-.87,5.4,5.4,0,0,1,2.53.61,5.56,5.56,0,0,1,1.93,1.72V237Zm-4,10.74a4.3,4.3,0,0,0,1.58-1.81,5.83,5.83,0,0,0,.57-2.62,5.89,5.89,0,0,0-.57-2.62,4.33,4.33,0,0,0-1.58-1.8,4.11,4.11,0,0,0-2.31-.65,4,4,0,0,0-2.26.65,4.42,4.42,0,0,0-1.57,1.79,5.79,5.79,0,0,0-.57,2.61,5.89,5.89,0,0,0,.57,2.64,4.35,4.35,0,0,0,1.57,1.81,4.07,4.07,0,0,0,2.26.65A4.19,4.19,0,0,0,302.57,247.75Z"/><path class="cls-2" d="M310.09,249.64V230h1.84v19.6Z"/><path class="cls-2" d="M316.31,234.12a1.5,1.5,0,0,1-.41-1.06,1.42,1.42,0,0,1,1.45-1.43,1.43,1.43,0,0,1,1,.42,1.46,1.46,0,0,1,0,2.07,1.46,1.46,0,0,1-2.07,0Zm.13,15.52V237h1.83v12.63Z"/><path class="cls-2" d="M331.31,237v1.67L324.08,248h7.23v1.67H322V248l7.24-9.29H322V237Z"/><path class="cls-2" d="M342.54,237.41a5.92,5.92,0,0,1,2.16,2.28,6.6,6.6,0,0,1,.79,3.23,7.59,7.59,0,0,1,0,.78H335.07a5.47,5.47,0,0,0,1.26,3.32,3.92,3.92,0,0,0,3.16,1.38,5.33,5.33,0,0,0,2.69-.61,4.62,4.62,0,0,0,1.71-1.69l1.46,1a6.29,6.29,0,0,1-2.35,2.2,7.09,7.09,0,0,1-3.45.79,6,6,0,0,1-5.51-3.26,7.39,7.39,0,0,1-.81-3.49,7.5,7.5,0,0,1,.8-3.48,5.9,5.9,0,0,1,2.21-2.4,6,6,0,0,1,3.23-.87A5.76,5.76,0,0,1,342.54,237.41Zm1.11,4.78a4.84,4.84,0,0,0-1.32-3,4.05,4.05,0,0,0-2.86-1,3.9,3.9,0,0,0-2.88,1.12,5.14,5.14,0,0,0-1.42,2.82Z"/><path class="cls-2" d="M359.93,230v19.6H358.1v-1.86a5.74,5.74,0,0,1-1.92,1.69,5.25,5.25,0,0,1-2.48.6,6,6,0,0,1-5.49-3.26,7.45,7.45,0,0,1-.81-3.51,7.37,7.37,0,0,1,.8-3.47,5.89,5.89,0,0,1,2.22-2.39,6,6,0,0,1,3.22-.87,5.4,5.4,0,0,1,2.53.61,5.65,5.65,0,0,1,1.93,1.72V230Zm-4,17.71a4.3,4.3,0,0,0,1.58-1.81,5.83,5.83,0,0,0,.57-2.62,5.89,5.89,0,0,0-.57-2.62,4.33,4.33,0,0,0-1.58-1.8,4.13,4.13,0,0,0-2.31-.65,4,4,0,0,0-2.27.65,4.47,4.47,0,0,0-1.56,1.79,5.79,5.79,0,0,0-.57,2.61,5.89,5.89,0,0,0,.57,2.64,4.4,4.4,0,0,0,1.56,1.81,4.12,4.12,0,0,0,2.27.65A4.21,4.21,0,0,0,356,247.75Z"/><path class="cls-2" d="M381.1,237v12.63h-1.84v-1.86a5.71,5.71,0,0,1-1.91,1.69,5.26,5.26,0,0,1-2.49.6,6,6,0,0,1-5.48-3.26,7.45,7.45,0,0,1-.81-3.51,7.37,7.37,0,0,1,.8-3.47,5.94,5.94,0,0,1,2.21-2.39,6.06,6.06,0,0,1,3.23-.87,5.33,5.33,0,0,1,2.52.61,5.48,5.48,0,0,1,1.93,1.72V237Zm-4,10.74a4.37,4.37,0,0,0,1.58-1.81,6,6,0,0,0,.56-2.62,6,6,0,0,0-.56-2.62,4.4,4.4,0,0,0-1.58-1.8,4.15,4.15,0,0,0-2.31-.65,4,4,0,0,0-2.27.65,4.42,4.42,0,0,0-1.57,1.79,5.92,5.92,0,0,0-.56,2.61,6,6,0,0,0,.56,2.64,4.35,4.35,0,0,0,1.57,1.81,4.1,4.1,0,0,0,2.27.65A4.23,4.23,0,0,0,377.12,247.75Z"/><path class="cls-2" d="M394,237.44a6,6,0,0,1,2.24,2.4,8,8,0,0,1,0,7,6,6,0,0,1-2.21,2.39,6.08,6.08,0,0,1-3.23.86,5.33,5.33,0,0,1-2.52-.6,5.59,5.59,0,0,1-1.94-1.72V255h-1.83V237h1.83v1.86a5.84,5.84,0,0,1,1.92-1.69,5.26,5.26,0,0,1,2.48-.61A6.15,6.15,0,0,1,394,237.44Zm-.92,10.31a4.4,4.4,0,0,0,1.56-1.79,5.82,5.82,0,0,0,.57-2.61,6,6,0,0,0-.57-2.65,4.36,4.36,0,0,0-1.56-1.8,4,4,0,0,0-2.27-.65,4.15,4.15,0,0,0-2.31.65,4.4,4.4,0,0,0-1.58,1.8,5.89,5.89,0,0,0-.57,2.62,5.83,5.83,0,0,0,.57,2.62,4.37,4.37,0,0,0,1.58,1.81,4.23,4.23,0,0,0,2.31.65A4.1,4.1,0,0,0,393.09,247.75Z"/><path class="cls-2" d="M409.15,237.44a5.9,5.9,0,0,1,2.24,2.4,8,8,0,0,1,0,7,6,6,0,0,1-2.22,2.39,6,6,0,0,1-3.22.86,5.4,5.4,0,0,1-2.53-.6,5.56,5.56,0,0,1-1.93-1.72V255h-1.83V237h1.83v1.86a5.65,5.65,0,0,1,1.92-1.69,5.2,5.2,0,0,1,2.48-.61A6.09,6.09,0,0,1,409.15,237.44Zm-.92,10.31A4.42,4.42,0,0,0,409.8,246a5.82,5.82,0,0,0,.57-2.61,6,6,0,0,0-.57-2.65,4.38,4.38,0,0,0-1.57-1.8,4,4,0,0,0-2.26-.65,4.11,4.11,0,0,0-2.31.65,4.33,4.33,0,0,0-1.58,1.8,5.89,5.89,0,0,0-.57,2.62,5.83,5.83,0,0,0,.57,2.62,4.3,4.3,0,0,0,1.58,1.81,4.19,4.19,0,0,0,2.31.65A4.07,4.07,0,0,0,408.23,247.75Z"/><path class="cls-2" d="M55.07,264.3a2.33,2.33,0,0,0-.61,1.68v3.43h2.92v1.67H54.46v11H52.62v-11H51v-1.67h1.62V266a3.9,3.9,0,0,1,1.13-2.88A3.86,3.86,0,0,1,56.62,262h.76v1.67h-.76A2,2,0,0,0,55.07,264.3Z"/><path class="cls-2" d="M61.64,281.61a6,6,0,0,1-2.24-2.42,7.92,7.92,0,0,1,0-7,5.94,5.94,0,0,1,2.21-2.39,6.06,6.06,0,0,1,3.23-.87,6.14,6.14,0,0,1,3.24.87,6,6,0,0,1,2.24,2.4,7.38,7.38,0,0,1,.81,3.48,7.51,7.51,0,0,1-.8,3.49,5.91,5.91,0,0,1-5.44,3.26A6.14,6.14,0,0,1,61.64,281.61Zm5.5-1.46a4.37,4.37,0,0,0,1.58-1.81,6,6,0,0,0,.56-2.62,6,6,0,0,0-.56-2.62,4.4,4.4,0,0,0-1.58-1.8,4.15,4.15,0,0,0-2.31-.65,4,4,0,0,0-2.27.65A4.42,4.42,0,0,0,61,273.09a5.92,5.92,0,0,0-.56,2.61,6,6,0,0,0,.56,2.64,4.35,4.35,0,0,0,1.57,1.81,4.1,4.1,0,0,0,2.27.65A4.23,4.23,0,0,0,67.14,280.15Z"/><path class="cls-2" d="M81.16,269.16v1.68a2.82,2.82,0,0,0-1.24-.27,3.92,3.92,0,0,0-2.16.64,4.67,4.67,0,0,0-1.61,1.88,6.56,6.56,0,0,0-.6,2.9V282H73.71V269.41h1.84v2.53a5.86,5.86,0,0,1,1.85-2.18,4.32,4.32,0,0,1,3.76-.6Z"/><path class="cls-2" d="M100.63,269.41V282H98.79v-1.86a5.71,5.71,0,0,1-1.91,1.69,5.26,5.26,0,0,1-2.49.6,6,6,0,0,1-5.48-3.26,7.45,7.45,0,0,1-.81-3.51,7.37,7.37,0,0,1,.8-3.47,5.94,5.94,0,0,1,2.21-2.39,6.06,6.06,0,0,1,3.23-.87,5.33,5.33,0,0,1,2.52.61,5.48,5.48,0,0,1,1.93,1.72v-1.89Zm-4,10.74a4.37,4.37,0,0,0,1.58-1.81,6,6,0,0,0,.56-2.62,6,6,0,0,0-.56-2.62,4.4,4.4,0,0,0-1.58-1.8,4.15,4.15,0,0,0-2.31-.65,4,4,0,0,0-2.27.65,4.42,4.42,0,0,0-1.57,1.79,5.92,5.92,0,0,0-.56,2.61,6,6,0,0,0,.56,2.64,4.35,4.35,0,0,0,1.57,1.81,4.1,4.1,0,0,0,2.27.65A4.23,4.23,0,0,0,96.65,280.15Z"/><path class="cls-2" d="M112.5,269.51a4.23,4.23,0,0,1,1.78,1.6,4.57,4.57,0,0,1,.66,2.48V282H113.1V274.4q0-3.75-3.34-3.75a3.35,3.35,0,0,0-2.92,1.37,6.31,6.31,0,0,0-1,3.7V282H104V269.41h1.84v2.1a4.87,4.87,0,0,1,1.71-1.88,4.61,4.61,0,0,1,2.47-.66A5.6,5.6,0,0,1,112.5,269.51Z"/><path class="cls-2" d="M127.22,269.41H129l-6.83,18h-1.83l2-5.16-5.18-12.87H119l4.18,10.47Z"/><path class="cls-2" d="M148.42,262.44V282h-1.84v-1.86a5.71,5.71,0,0,1-1.91,1.69,5.26,5.26,0,0,1-2.49.6,6,6,0,0,1-5.48-3.26,7.45,7.45,0,0,1-.81-3.51,7.37,7.37,0,0,1,.8-3.47,5.94,5.94,0,0,1,2.21-2.39,6.06,6.06,0,0,1,3.23-.87,5.33,5.33,0,0,1,2.52.61,5.48,5.48,0,0,1,1.93,1.72v-8.86Zm-4,17.71a4.37,4.37,0,0,0,1.58-1.81,6,6,0,0,0,.56-2.62,6,6,0,0,0-.56-2.62,4.4,4.4,0,0,0-1.58-1.8,4.15,4.15,0,0,0-2.31-.65,4,4,0,0,0-2.27.65,4.42,4.42,0,0,0-1.57,1.79,5.92,5.92,0,0,0-.56,2.61,6,6,0,0,0,.56,2.64,4.35,4.35,0,0,0,1.57,1.81,4.1,4.1,0,0,0,2.27.65A4.23,4.23,0,0,0,144.44,280.15Z"/><path class="cls-2" d="M160.35,269.81a5.92,5.92,0,0,1,2.16,2.28,6.71,6.71,0,0,1,.79,3.23,7.59,7.59,0,0,1,0,.78h-10.4a5.48,5.48,0,0,0,1.27,3.32,3.92,3.92,0,0,0,3.16,1.38,5.33,5.33,0,0,0,2.69-.61,4.62,4.62,0,0,0,1.71-1.69l1.46,1a6.36,6.36,0,0,1-2.35,2.2,7.1,7.1,0,0,1-3.46.79,6.13,6.13,0,0,1-3.26-.86,6,6,0,0,1-2.24-2.4,7.39,7.39,0,0,1-.81-3.49,7.49,7.49,0,0,1,.79-3.48,5.86,5.86,0,0,1,2.22-2.4,6,6,0,0,1,3.22-.87A5.79,5.79,0,0,1,160.35,269.81Zm1.11,4.78a4.84,4.84,0,0,0-1.32-3,4.08,4.08,0,0,0-2.87-1,3.87,3.87,0,0,0-2.87,1.12,5.14,5.14,0,0,0-1.42,2.82Z"/><path class="cls-2" d="M166.13,282v-19.6H168V282Z"/><path class="cls-2" d="M172.35,266.52a1.46,1.46,0,0,1-.42-1.06,1.38,1.38,0,0,1,.42-1,1.49,1.49,0,0,1,2.07,0,1.46,1.46,0,0,1,0,2.07,1.46,1.46,0,0,1-2.07,0Zm.12,15.52V269.41h1.84V282Z"/><path class="cls-2" d="M186.89,269.41h1.87L184.17,282h-2l-4.56-12.63h1.91l3.73,10.66Z"/><path class="cls-2" d="M199,269.81a5.92,5.92,0,0,1,2.16,2.28,6.71,6.71,0,0,1,.78,3.23,7.59,7.59,0,0,1,0,.78H191.51a5.42,5.42,0,0,0,1.27,3.32,3.9,3.9,0,0,0,3.16,1.38,5.29,5.29,0,0,0,2.68-.61,4.57,4.57,0,0,0,1.72-1.69l1.46,1a6.44,6.44,0,0,1-2.35,2.2,7.13,7.13,0,0,1-3.46.79,6.19,6.19,0,0,1-3.27-.86,6.1,6.1,0,0,1-2.24-2.4,7.39,7.39,0,0,1-.81-3.49,7.5,7.5,0,0,1,.8-3.48,5.9,5.9,0,0,1,2.21-2.4,6.06,6.06,0,0,1,3.23-.87A5.82,5.82,0,0,1,199,269.81Zm1.1,4.78a4.78,4.78,0,0,0-1.32-3,4,4,0,0,0-2.86-1,3.9,3.9,0,0,0-2.88,1.12,5.19,5.19,0,0,0-1.41,2.82Z"/><path class="cls-2" d="M212.08,269.16v1.68a2.82,2.82,0,0,0-1.24-.27,3.92,3.92,0,0,0-2.16.64,4.67,4.67,0,0,0-1.61,1.88,6.56,6.56,0,0,0-.6,2.9V282h-1.84V269.41h1.84v2.53a5.86,5.86,0,0,1,1.85-2.18,4.32,4.32,0,0,1,3.76-.6Z"/><path class="cls-2" d="M222.48,269.41h1.73l-6.83,18h-1.84l2-5.16-5.19-12.87h1.92l4.19,10.47Z"/><path class="cls-2" d="M233.16,281.69a5.14,5.14,0,0,1-2.12-2.21l1.64-.81c.67,1.42,2,2.13,3.92,2.13a4.74,4.74,0,0,0,2.32-.51,1.73,1.73,0,0,0,.92-1.6,1.91,1.91,0,0,0-.74-1.64,5.51,5.51,0,0,0-2.61-.71,6.59,6.59,0,0,1-3.71-1.16,3.1,3.1,0,0,1-1.12-2.51,3.2,3.2,0,0,1,1.27-2.72,5.56,5.56,0,0,1,3.48-1q3.75,0,5.1,3l-1.64.81a3.27,3.27,0,0,0-1.34-1.59,4.47,4.47,0,0,0-2.26-.51,3.76,3.76,0,0,0-2.14.51,1.66,1.66,0,0,0-.74,1.46,1.68,1.68,0,0,0,.79,1.44,5.92,5.92,0,0,0,2.74.72A6.52,6.52,0,0,1,240.5,276a3.12,3.12,0,0,1,1.18,2.53,3.39,3.39,0,0,1-.73,2.17A4.47,4.47,0,0,1,239,282a7.25,7.25,0,0,1-2.62.46A6.45,6.45,0,0,1,233.16,281.69Z"/><path class="cls-2" d="M253,269.81a6.07,6.07,0,0,1,2.16,2.28,6.71,6.71,0,0,1,.78,3.23,7.59,7.59,0,0,1,0,.78H245.51a5.42,5.42,0,0,0,1.27,3.32,3.9,3.9,0,0,0,3.16,1.38,5.29,5.29,0,0,0,2.68-.61,4.72,4.72,0,0,0,1.72-1.69l1.46,1a6.44,6.44,0,0,1-2.35,2.2,7.16,7.16,0,0,1-3.46.79,6.19,6.19,0,0,1-3.27-.86,6.1,6.1,0,0,1-2.24-2.4,7.39,7.39,0,0,1-.81-3.49,7.5,7.5,0,0,1,.8-3.48,5.9,5.9,0,0,1,2.21-2.4,6.06,6.06,0,0,1,3.23-.87A5.82,5.82,0,0,1,253,269.81Zm1.1,4.78a4.84,4.84,0,0,0-1.32-3,4.05,4.05,0,0,0-2.86-1,3.9,3.9,0,0,0-2.88,1.12,5.13,5.13,0,0,0-1.41,2.82Z"/><path class="cls-2" d="M266.08,269.16v1.68a2.85,2.85,0,0,0-1.24-.27,3.92,3.92,0,0,0-2.16.64,4.67,4.67,0,0,0-1.61,1.88,6.56,6.56,0,0,0-.6,2.9V282h-1.84V269.41h1.84v2.53a5.86,5.86,0,0,1,1.85-2.18,4.32,4.32,0,0,1,3.76-.6Z"/><path class="cls-2" d="M276,269.41h1.87L273.24,282h-2l-4.56-12.63h1.92l3.72,10.66Z"/><path class="cls-2" d="M280.94,266.52a1.5,1.5,0,0,1-.41-1.06A1.42,1.42,0,0,1,282,264a1.43,1.43,0,0,1,1,.42,1.46,1.46,0,0,1,0,2.07,1.46,1.46,0,0,1-2.07,0Zm.13,15.52V269.41h1.83V282Z"/><path class="cls-2" d="M289.52,281.61a6,6,0,0,1-2.24-2.4,7.39,7.39,0,0,1-.81-3.49,7.49,7.49,0,0,1,.79-3.48,5.88,5.88,0,0,1,2.23-2.4,6.09,6.09,0,0,1,3.24-.87,5.31,5.31,0,0,1,2.69.66,7.48,7.48,0,0,1,2.09,1.88l-1.35,1.05a4.13,4.13,0,0,0-5.71-1.26,4.33,4.33,0,0,0-1.58,1.8,5.89,5.89,0,0,0-.57,2.62,5.83,5.83,0,0,0,.57,2.62,4.3,4.3,0,0,0,1.58,1.81,4.13,4.13,0,0,0,2.28.65,4.48,4.48,0,0,0,2.13-.45,4.65,4.65,0,0,0,1.52-1.31l1.43,1a6.67,6.67,0,0,1-2.2,1.77,6.23,6.23,0,0,1-2.83.66A6.13,6.13,0,0,1,289.52,281.61Z"/><path class="cls-2" d="M308.71,269.81a5.92,5.92,0,0,1,2.16,2.28,6.6,6.6,0,0,1,.79,3.23,7.59,7.59,0,0,1,0,.78h-10.4a5.54,5.54,0,0,0,1.27,3.32,3.92,3.92,0,0,0,3.16,1.38,5.33,5.33,0,0,0,2.69-.61,4.62,4.62,0,0,0,1.71-1.69l1.46,1a6.36,6.36,0,0,1-2.35,2.2,7.09,7.09,0,0,1-3.45.79,6,6,0,0,1-5.51-3.26,7.95,7.95,0,0,1,0-7,5.83,5.83,0,0,1,2.21-2.4,6,6,0,0,1,3.23-.87A5.76,5.76,0,0,1,308.71,269.81Zm1.11,4.78a4.84,4.84,0,0,0-1.32-3,4.05,4.05,0,0,0-2.86-1,3.9,3.9,0,0,0-2.88,1.12,5.14,5.14,0,0,0-1.42,2.82Z"/><path class="cls-2" d="M329.88,269.84a5.9,5.9,0,0,1,2.24,2.4,8,8,0,0,1,0,7,6,6,0,0,1-5.44,3.25,5.4,5.4,0,0,1-2.53-.6,5.56,5.56,0,0,1-1.93-1.72v7.29H320.4v-18h1.84v1.86a5.65,5.65,0,0,1,1.92-1.69,5.2,5.2,0,0,1,2.48-.61A6.09,6.09,0,0,1,329.88,269.84ZM329,280.15a4.42,4.42,0,0,0,1.57-1.79,5.82,5.82,0,0,0,.57-2.61,6,6,0,0,0-.57-2.65,4.38,4.38,0,0,0-1.57-1.8,4,4,0,0,0-2.26-.65,4.11,4.11,0,0,0-2.31.65,4.27,4.27,0,0,0-1.58,1.8,5.89,5.89,0,0,0-.57,2.62,5.83,5.83,0,0,0,.57,2.62,4.24,4.24,0,0,0,1.58,1.81,4.19,4.19,0,0,0,2.31.65A4.07,4.07,0,0,0,329,280.15Z"/><path class="cls-2" d="M343,269.16v1.68a2.89,2.89,0,0,0-1.25-.27,3.92,3.92,0,0,0-2.16.64,4.65,4.65,0,0,0-1.6,1.88,6.42,6.42,0,0,0-.61,2.9V282h-1.84V269.41h1.84v2.53a6,6,0,0,1,1.85-2.18,4.35,4.35,0,0,1,3.77-.6Z"/><path class="cls-2" d="M346.68,281.61a6,6,0,0,1-2.25-2.42,7.92,7.92,0,0,1,0-7,5.89,5.89,0,0,1,2.22-2.39,6,6,0,0,1,3.22-.87,6.09,6.09,0,0,1,3.24.87,6,6,0,0,1,2.24,2.4,7.38,7.38,0,0,1,.81,3.48,7.5,7.5,0,0,1-.79,3.49,6.28,6.28,0,0,1-8.68,2.4Zm5.49-1.46a4.37,4.37,0,0,0,1.58-1.81,5.83,5.83,0,0,0,.57-2.62,5.89,5.89,0,0,0-.57-2.62,4.4,4.4,0,0,0-1.58-1.8,4.15,4.15,0,0,0-2.31-.65,4,4,0,0,0-2.27.65,4.47,4.47,0,0,0-1.56,1.79,5.79,5.79,0,0,0-.57,2.61,5.89,5.89,0,0,0,.57,2.64,4.4,4.4,0,0,0,1.56,1.81,4.1,4.1,0,0,0,2.27.65A4.23,4.23,0,0,0,352.17,280.15Z"/><path class="cls-2" d="M366.39,269.41h1.86L363.66,282h-2l-4.56-12.63H359l3.72,10.66Z"/><path class="cls-2" d="M371.37,266.52a1.46,1.46,0,0,1-.42-1.06,1.43,1.43,0,0,1,1.46-1.43,1.42,1.42,0,0,1,1,.42,1.46,1.46,0,0,1,0,2.07,1.43,1.43,0,0,1-1,.43A1.39,1.39,0,0,1,371.37,266.52Zm.12,15.52V269.41h1.83V282Z"/><path class="cls-2" d="M389.47,262.44V282h-1.84v-1.86a5.71,5.71,0,0,1-1.91,1.69,5.26,5.26,0,0,1-2.49.6,6,6,0,0,1-5.48-3.26,7.45,7.45,0,0,1-.81-3.51,7.37,7.37,0,0,1,.8-3.47,5.94,5.94,0,0,1,2.21-2.39,6.06,6.06,0,0,1,3.23-.87,5.33,5.33,0,0,1,2.52.61,5.48,5.48,0,0,1,1.93,1.72v-8.86Zm-4,17.71a4.37,4.37,0,0,0,1.58-1.81,6,6,0,0,0,.56-2.62,6,6,0,0,0-.56-2.62,4.4,4.4,0,0,0-1.58-1.8,4.15,4.15,0,0,0-2.31-.65,4,4,0,0,0-2.27.65,4.42,4.42,0,0,0-1.57,1.79,5.92,5.92,0,0,0-.56,2.61,6,6,0,0,0,.56,2.64,4.35,4.35,0,0,0,1.57,1.81,4.1,4.1,0,0,0,2.27.65A4.23,4.23,0,0,0,385.49,280.15Z"/><path class="cls-2" d="M401.4,269.81a5.92,5.92,0,0,1,2.16,2.28,6.6,6.6,0,0,1,.79,3.23,7.59,7.59,0,0,1,0,.78h-10.4a5.54,5.54,0,0,0,1.27,3.32,3.92,3.92,0,0,0,3.16,1.38,5.33,5.33,0,0,0,2.69-.61,4.62,4.62,0,0,0,1.71-1.69l1.46,1a6.36,6.36,0,0,1-2.35,2.2,7.09,7.09,0,0,1-3.45.79,6.14,6.14,0,0,1-3.27-.86,6,6,0,0,1-2.24-2.4,7.39,7.39,0,0,1-.81-3.49,7.49,7.49,0,0,1,.79-3.48,5.92,5.92,0,0,1,2.22-2.4,6,6,0,0,1,3.22-.87A5.79,5.79,0,0,1,401.4,269.81Zm1.11,4.78a4.84,4.84,0,0,0-1.32-3,4.08,4.08,0,0,0-2.87-1,3.87,3.87,0,0,0-2.87,1.12,5.14,5.14,0,0,0-1.42,2.82Z"/><path class="cls-2" d="M414.5,269.16v1.68a2.85,2.85,0,0,0-1.24-.27,3.87,3.87,0,0,0-2.16.64,4.6,4.6,0,0,0-1.61,1.88,6.42,6.42,0,0,0-.61,2.9V282h-1.83V269.41h1.83v2.53a6,6,0,0,1,1.85-2.18,4.35,4.35,0,0,1,3.77-.6Z"/><path class="cls-2" d="M54.16,314a6.1,6.1,0,0,1-2.24-2.4,7.39,7.39,0,0,1-.81-3.49,7.5,7.5,0,0,1,.8-3.48,5.81,5.81,0,0,1,2.23-2.4,6.09,6.09,0,0,1,3.24-.87,5.27,5.27,0,0,1,2.68.66,7.38,7.38,0,0,1,2.1,1.88l-1.35,1a4,4,0,0,0-3.43-1.91,4.11,4.11,0,0,0-2.29.65,4.31,4.31,0,0,0-1.57,1.8,5.89,5.89,0,0,0-.57,2.62,5.83,5.83,0,0,0,.57,2.62,4.28,4.28,0,0,0,1.57,1.81,4.19,4.19,0,0,0,2.29.65,4.48,4.48,0,0,0,2.13-.45A4.62,4.62,0,0,0,61,311.44l1.43,1a6.47,6.47,0,0,1-2.2,1.77,6.51,6.51,0,0,1-6.09-.2Z"/><path class="cls-2" d="M67.1,314a6,6,0,0,1-2.24-2.42,8,8,0,0,1,0-7,5.89,5.89,0,0,1,2.22-2.39,6,6,0,0,1,3.22-.87,6.09,6.09,0,0,1,3.24.87,5.9,5.9,0,0,1,2.24,2.4,7.38,7.38,0,0,1,.81,3.48,7.5,7.5,0,0,1-.79,3.49,5.94,5.94,0,0,1-5.44,3.26A6.09,6.09,0,0,1,67.1,314Zm5.49-1.46a4.3,4.3,0,0,0,1.58-1.81,5.83,5.83,0,0,0,.57-2.62,5.89,5.89,0,0,0-.57-2.62,4.33,4.33,0,0,0-1.58-1.8,4.11,4.11,0,0,0-2.31-.65,4,4,0,0,0-2.27.65,4.47,4.47,0,0,0-1.56,1.79,5.79,5.79,0,0,0-.57,2.61,5.89,5.89,0,0,0,.57,2.64A4.4,4.4,0,0,0,68,312.55a4.12,4.12,0,0,0,2.27.65A4.19,4.19,0,0,0,72.59,312.55Z"/><path class="cls-2" d="M95.53,302.6A4.76,4.76,0,0,1,96.69,306v8.45H94.85V306.8a4.44,4.44,0,0,0-.75-2.88,2.51,2.51,0,0,0-2-.87,2.69,2.69,0,0,0-2.31,1.14,6,6,0,0,0-1,3.12v7.13H87V306.8a4.44,4.44,0,0,0-.75-2.88,2.51,2.51,0,0,0-2-.87,2.72,2.72,0,0,0-2.48,1.37,7.2,7.2,0,0,0-.82,3.7v6.32H79.17V301.81H81v2A4.7,4.7,0,0,1,82.58,302a4,4,0,0,1,2.2-.62,3.94,3.94,0,0,1,2.4.75,3.81,3.81,0,0,1,1.43,2.12,5.14,5.14,0,0,1,1.62-2.11,4,4,0,0,1,2.38-.76A3.86,3.86,0,0,1,95.53,302.6Z"/><path class="cls-2" d="M109.46,302.24a6,6,0,0,1,2.24,2.4,8,8,0,0,1,0,7,5.92,5.92,0,0,1-5.44,3.25,5.33,5.33,0,0,1-2.52-.6,5.48,5.48,0,0,1-1.93-1.72v7.29H100v-18h1.84v1.86a5.71,5.71,0,0,1,1.91-1.69,5.27,5.27,0,0,1,2.49-.61A6.12,6.12,0,0,1,109.46,302.24Zm-.92,10.31a4.42,4.42,0,0,0,1.57-1.79,6,6,0,0,0,.56-2.61,6.1,6.1,0,0,0-.56-2.65,4.38,4.38,0,0,0-1.57-1.8,4,4,0,0,0-2.27-.65,4.15,4.15,0,0,0-2.31.65,4.31,4.31,0,0,0-1.57,1.8,5.89,5.89,0,0,0-.57,2.62,5.83,5.83,0,0,0,.57,2.62,4.28,4.28,0,0,0,1.57,1.81,4.23,4.23,0,0,0,2.31.65A4.08,4.08,0,0,0,108.54,312.55Z"/><path class="cls-2" d="M126.85,301.81v12.63H125v-1.86a5.65,5.65,0,0,1-1.92,1.69,5.2,5.2,0,0,1-2.48.6,6,6,0,0,1-5.48-3.26,7.45,7.45,0,0,1-.81-3.51,7.36,7.36,0,0,1,.79-3.47,6,6,0,0,1,2.22-2.39,6,6,0,0,1,3.22-.87,5.4,5.4,0,0,1,2.53.61A5.56,5.56,0,0,1,125,303.7v-1.89Zm-4,10.74a4.24,4.24,0,0,0,1.58-1.81,5.83,5.83,0,0,0,.57-2.62,5.89,5.89,0,0,0-.57-2.62,4.27,4.27,0,0,0-1.58-1.8,4.11,4.11,0,0,0-2.31-.65,4,4,0,0,0-2.26.65,4.42,4.42,0,0,0-1.57,1.79,5.79,5.79,0,0,0-.57,2.61,5.89,5.89,0,0,0,.57,2.64,4.35,4.35,0,0,0,1.57,1.81,4.07,4.07,0,0,0,2.26.65A4.19,4.19,0,0,0,122.86,312.55Z"/><path class="cls-2" d="M138.71,301.91a4.17,4.17,0,0,1,1.78,1.6,4.49,4.49,0,0,1,.67,2.48v8.45h-1.84V306.8q0-3.75-3.35-3.75a3.33,3.33,0,0,0-2.91,1.37,6.31,6.31,0,0,0-1,3.7v6.32h-1.83V301.81h1.83v2.1A5,5,0,0,1,133.8,302a4.58,4.58,0,0,1,2.47-.66A5.52,5.52,0,0,1,138.71,301.91Z"/><path class="cls-2" d="M153.44,301.81h1.73l-6.83,18H146.5l2-5.16-5.18-12.87h1.91l4.19,10.47Z"/><path class="cls-2" d="M156.88,314.23a1.46,1.46,0,0,1-.42-1.06,1.4,1.4,0,0,1,.42-1,1.37,1.37,0,0,1,1-.44,1.44,1.44,0,0,1,1,.44,1.47,1.47,0,0,1,0,2.08,1.47,1.47,0,0,1-1,.43A1.4,1.4,0,0,1,156.88,314.23Z"/><path class="cls-2" d="M172.88,314.44V297.7h-5.81V296h13.61v1.67h-5.8v16.74Z"/><path class="cls-2" d="M191.25,301.91a4.26,4.26,0,0,1,1.79,1.6,4.57,4.57,0,0,1,.66,2.48v8.45h-1.84V306.8q0-3.75-3.35-3.75a3.35,3.35,0,0,0-2.91,1.37,6.31,6.31,0,0,0-1,3.7v6.32h-1.84v-19.6h1.84v9.07a4.87,4.87,0,0,1,1.71-1.88,4.58,4.58,0,0,1,2.47-.66A5.52,5.52,0,0,1,191.25,301.91Z"/><path class="cls-2" d="M205.74,302.21a5.92,5.92,0,0,1,2.16,2.28,6.68,6.68,0,0,1,.78,3.23,7.59,7.59,0,0,1,0,.78H198.26a5.48,5.48,0,0,0,1.27,3.32,3.91,3.91,0,0,0,3.16,1.38,5.29,5.29,0,0,0,2.68-.61,4.57,4.57,0,0,0,1.72-1.69l1.46,1a6.44,6.44,0,0,1-2.35,2.2,7.13,7.13,0,0,1-3.46.79,6.19,6.19,0,0,1-3.27-.86,6.1,6.1,0,0,1-2.24-2.4,7.39,7.39,0,0,1-.81-3.49,7.5,7.5,0,0,1,.8-3.48,5.9,5.9,0,0,1,2.21-2.4,6.06,6.06,0,0,1,3.23-.87A5.79,5.79,0,0,1,205.74,302.21Zm1.11,4.78a4.84,4.84,0,0,0-1.33-3,4,4,0,0,0-2.86-1,3.86,3.86,0,0,0-2.87,1.12,5.11,5.11,0,0,0-1.42,2.82Z"/><path class="cls-2" d="M229.15,301.81v12.63h-1.84v-1.86a5.65,5.65,0,0,1-1.92,1.69,5.2,5.2,0,0,1-2.48.6,6,6,0,0,1-5.48-3.26,7.45,7.45,0,0,1-.81-3.51,7.37,7.37,0,0,1,.8-3.47,5.87,5.87,0,0,1,2.21-2.39,6,6,0,0,1,3.23-.87,5.36,5.36,0,0,1,2.52.61,5.48,5.48,0,0,1,1.93,1.72v-1.89Zm-4,10.74a4.24,4.24,0,0,0,1.58-1.81,5.83,5.83,0,0,0,.57-2.62,5.89,5.89,0,0,0-.57-2.62,4.27,4.27,0,0,0-1.58-1.8,4.1,4.1,0,0,0-2.3-.65,4,4,0,0,0-2.27.65,4.42,4.42,0,0,0-1.57,1.79,5.79,5.79,0,0,0-.56,2.61,5.89,5.89,0,0,0,.56,2.64,4.35,4.35,0,0,0,1.57,1.81,4.08,4.08,0,0,0,2.27.65A4.18,4.18,0,0,0,225.16,312.55Z"/><path class="cls-2" d="M242.05,302.24a5.9,5.9,0,0,1,2.24,2.4,8,8,0,0,1,0,7,6,6,0,0,1-2.22,2.39,6,6,0,0,1-3.22.86,5.4,5.4,0,0,1-2.53-.6,5.56,5.56,0,0,1-1.93-1.72v7.29h-1.83v-18h1.83v1.86a5.65,5.65,0,0,1,1.92-1.69,5.23,5.23,0,0,1,2.48-.61A6.09,6.09,0,0,1,242.05,302.24Zm-.91,10.31a4.47,4.47,0,0,0,1.56-1.79,5.82,5.82,0,0,0,.57-2.61,6,6,0,0,0-.57-2.65,4.43,4.43,0,0,0-1.56-1.8,4,4,0,0,0-2.27-.65,4.11,4.11,0,0,0-2.31.65,4.33,4.33,0,0,0-1.58,1.8,5.89,5.89,0,0,0-.57,2.62,5.83,5.83,0,0,0,.57,2.62,4.3,4.3,0,0,0,1.58,1.81,4.19,4.19,0,0,0,2.31.65A4.12,4.12,0,0,0,241.14,312.55Z"/><path class="cls-2" d="M257.2,302.24a6,6,0,0,1,2.24,2.4,8,8,0,0,1,0,7,5.92,5.92,0,0,1-5.44,3.25,5.36,5.36,0,0,1-2.52-.6,5.48,5.48,0,0,1-1.93-1.72v7.29h-1.84v-18h1.84v1.86a5.65,5.65,0,0,1,1.92-1.69,5.2,5.2,0,0,1,2.48-.61A6.09,6.09,0,0,1,257.2,302.24Zm-.92,10.31a4.42,4.42,0,0,0,1.57-1.79,5.82,5.82,0,0,0,.56-2.61,6,6,0,0,0-.56-2.65,4.38,4.38,0,0,0-1.57-1.8,4,4,0,0,0-2.27-.65,4.1,4.1,0,0,0-2.3.65,4.27,4.27,0,0,0-1.58,1.8,5.89,5.89,0,0,0-.57,2.62,5.83,5.83,0,0,0,.57,2.62,4.24,4.24,0,0,0,1.58,1.81,4.18,4.18,0,0,0,2.3.65A4.08,4.08,0,0,0,256.28,312.55Z"/><path class="cls-2" d="M284.25,301.81H286l-4.11,12.63H280l-3.08-9.69-3.32,9.69h-1.84l-4.16-12.63h2l3.24,10,3.29-10h1.78l3.19,10Z"/><path class="cls-2" d="M289.15,298.92a1.46,1.46,0,0,1-.41-1.06,1.37,1.37,0,0,1,.41-1,1.49,1.49,0,0,1,2.07,0,1.46,1.46,0,0,1,0,2.07,1.46,1.46,0,0,1-2.07,0Zm.13,15.52V301.81h1.83v12.63Z"/><path class="cls-2" d="M295.65,314.44v-19.6h1.83v19.6Z"/><path class="cls-2" d="M301.13,314.44v-19.6H303v19.6Z"/><path class="cls-2" d="M322,302.24a5.94,5.94,0,0,1,2.21,2.39,7.37,7.37,0,0,1,.8,3.47,7.45,7.45,0,0,1-.81,3.51,6,6,0,0,1-5.48,3.26,5.26,5.26,0,0,1-2.49-.6,5.71,5.71,0,0,1-1.91-1.69v1.86h-1.84v-19.6h1.84v8.86a5.48,5.48,0,0,1,1.93-1.72,5.33,5.33,0,0,1,2.52-.61A6.06,6.06,0,0,1,322,302.24Zm-1,10.31a4.35,4.35,0,0,0,1.57-1.81,6,6,0,0,0,.56-2.64,5.92,5.92,0,0,0-.56-2.61,4.42,4.42,0,0,0-1.57-1.79,4,4,0,0,0-2.27-.65,4.15,4.15,0,0,0-2.31.65,4.4,4.4,0,0,0-1.58,1.8,6,6,0,0,0-.56,2.62,6,6,0,0,0,.56,2.62,4.37,4.37,0,0,0,1.58,1.81,4.23,4.23,0,0,0,2.31.65A4.1,4.1,0,0,0,321.08,312.55Z"/><path class="cls-2" d="M336.17,302.21a5.92,5.92,0,0,1,2.16,2.28,6.69,6.69,0,0,1,.79,3.23,7.59,7.59,0,0,1,0,.78h-10.4a5.54,5.54,0,0,0,1.27,3.32,3.92,3.92,0,0,0,3.16,1.38,5.33,5.33,0,0,0,2.69-.61,4.62,4.62,0,0,0,1.71-1.69l1.46,1a6.36,6.36,0,0,1-2.35,2.2,7.09,7.09,0,0,1-3.45.79,6.14,6.14,0,0,1-3.27-.86,6,6,0,0,1-2.24-2.4,7.39,7.39,0,0,1-.81-3.49,7.49,7.49,0,0,1,.79-3.48,5.86,5.86,0,0,1,2.22-2.4,6,6,0,0,1,3.22-.87A5.77,5.77,0,0,1,336.17,302.21Zm1.11,4.78a4.84,4.84,0,0,0-1.32-3,4.06,4.06,0,0,0-2.87-1,3.89,3.89,0,0,0-2.87,1.12A5.11,5.11,0,0,0,328.8,307Z"/><path class="cls-2" d="M357.38,302.24a5.87,5.87,0,0,1,2.21,2.39,7.25,7.25,0,0,1,.8,3.47,7.45,7.45,0,0,1-.81,3.51,6,6,0,0,1-5.48,3.26,5.2,5.2,0,0,1-2.48-.6,5.65,5.65,0,0,1-1.92-1.69v1.86h-1.84v-19.6h1.84v8.86a5.48,5.48,0,0,1,1.93-1.72,5.36,5.36,0,0,1,2.52-.61A6,6,0,0,1,357.38,302.24Zm-1,10.31a4.35,4.35,0,0,0,1.57-1.81,5.89,5.89,0,0,0,.56-2.64,5.79,5.79,0,0,0-.56-2.61,4.42,4.42,0,0,0-1.57-1.79,4,4,0,0,0-2.27-.65,4.1,4.1,0,0,0-2.3.65,4.27,4.27,0,0,0-1.58,1.8,5.89,5.89,0,0,0-.57,2.62,5.83,5.83,0,0,0,.57,2.62,4.24,4.24,0,0,0,1.58,1.81,4.18,4.18,0,0,0,2.3.65A4.08,4.08,0,0,0,356.42,312.55Z"/><path class="cls-2" d="M374.73,301.81v12.63h-1.84v-1.86a5.65,5.65,0,0,1-1.92,1.69,5.2,5.2,0,0,1-2.48.6,6,6,0,0,1-5.48-3.26,7.45,7.45,0,0,1-.81-3.51,7.37,7.37,0,0,1,.8-3.47,5.94,5.94,0,0,1,2.21-2.39,6.06,6.06,0,0,1,3.23-.87A5.33,5.33,0,0,1,371,302a5.48,5.48,0,0,1,1.93,1.72v-1.89Zm-4,10.74a4.37,4.37,0,0,0,1.58-1.81,6,6,0,0,0,.56-2.62,6,6,0,0,0-.56-2.62,4.4,4.4,0,0,0-1.58-1.8,4.15,4.15,0,0,0-2.31-.65,4,4,0,0,0-2.27.65,4.42,4.42,0,0,0-1.57,1.79,5.79,5.79,0,0,0-.56,2.61,5.89,5.89,0,0,0,.56,2.64,4.35,4.35,0,0,0,1.57,1.81,4.1,4.1,0,0,0,2.27.65A4.23,4.23,0,0,0,370.75,312.55Z"/><path class="cls-2" d="M379.36,314.09a5.14,5.14,0,0,1-2.12-2.21l1.65-.81c.66,1.42,2,2.13,3.91,2.13a4.72,4.72,0,0,0,2.32-.51,1.73,1.73,0,0,0,.92-1.6,1.91,1.91,0,0,0-.74-1.64,5.51,5.51,0,0,0-2.61-.71,6.65,6.65,0,0,1-3.71-1.16,3.1,3.1,0,0,1-1.12-2.51,3.2,3.2,0,0,1,1.27-2.72,5.58,5.58,0,0,1,3.48-1q3.75,0,5.11,3l-1.65.81a3.22,3.22,0,0,0-1.34-1.59,4.43,4.43,0,0,0-2.25-.51,3.79,3.79,0,0,0-2.15.51,1.76,1.76,0,0,0,.05,2.9,6,6,0,0,0,2.74.72,6.49,6.49,0,0,1,3.58,1.17,3.09,3.09,0,0,1,1.18,2.53,3.39,3.39,0,0,1-.73,2.17,4.47,4.47,0,0,1-1.95,1.36,7.25,7.25,0,0,1-2.62.46A6.48,6.48,0,0,1,379.36,314.09Z"/><path class="cls-2" d="M399.19,302.21a5.92,5.92,0,0,1,2.16,2.28,6.68,6.68,0,0,1,.78,3.23c0,.34,0,.6,0,.78h-10.4a5.48,5.48,0,0,0,1.27,3.32,3.91,3.91,0,0,0,3.16,1.38,5.35,5.35,0,0,0,2.69-.61,4.62,4.62,0,0,0,1.71-1.69l1.46,1a6.44,6.44,0,0,1-2.35,2.2,7.13,7.13,0,0,1-3.46.79,6.13,6.13,0,0,1-3.26-.86,6.05,6.05,0,0,1-2.25-2.4,7.39,7.39,0,0,1-.81-3.49,7.5,7.5,0,0,1,.8-3.48,5.86,5.86,0,0,1,2.22-2.4,6,6,0,0,1,3.22-.87A5.79,5.79,0,0,1,399.19,302.21ZM400.3,307a4.79,4.79,0,0,0-1.33-3,4,4,0,0,0-2.86-1,3.86,3.86,0,0,0-2.87,1.12,5.11,5.11,0,0,0-1.42,2.82Z"/><path class="cls-2" d="M416.58,294.84v19.6h-1.84v-1.86a5.65,5.65,0,0,1-1.92,1.69,5.2,5.2,0,0,1-2.48.6,6,6,0,0,1-5.48-3.26,7.45,7.45,0,0,1-.81-3.51,7.25,7.25,0,0,1,.8-3.47,5.87,5.87,0,0,1,2.21-2.39,6.06,6.06,0,0,1,3.23-.87,5.36,5.36,0,0,1,2.52.61,5.48,5.48,0,0,1,1.93,1.72v-8.86Zm-4,17.71a4.24,4.24,0,0,0,1.58-1.81,5.83,5.83,0,0,0,.57-2.62,5.89,5.89,0,0,0-.57-2.62,4.27,4.27,0,0,0-1.58-1.8,4.1,4.1,0,0,0-2.3-.65,4,4,0,0,0-2.27.65,4.42,4.42,0,0,0-1.57,1.79,5.79,5.79,0,0,0-.56,2.61,5.89,5.89,0,0,0,.56,2.64,4.35,4.35,0,0,0,1.57,1.81,4.08,4.08,0,0,0,2.27.65A4.18,4.18,0,0,0,412.59,312.55Z"/><path class="cls-2" d="M54.22,346.41A6,6,0,0,1,52,344a8,8,0,0,1,0-7,5.89,5.89,0,0,1,2.22-2.39,6,6,0,0,1,3.22-.87,6.09,6.09,0,0,1,3.24.87,6,6,0,0,1,2.25,2.4,8,8,0,0,1,0,7,5.94,5.94,0,0,1-5.44,3.26A6.09,6.09,0,0,1,54.22,346.41ZM59.71,345a4.3,4.3,0,0,0,1.58-1.81,5.83,5.83,0,0,0,.57-2.62,5.89,5.89,0,0,0-.57-2.62,4.33,4.33,0,0,0-1.58-1.8,4.11,4.11,0,0,0-2.31-.65,4,4,0,0,0-2.26.65,4.42,4.42,0,0,0-1.57,1.79A5.79,5.79,0,0,0,53,340.5a5.89,5.89,0,0,0,.57,2.64A4.35,4.35,0,0,0,55.14,345a4.07,4.07,0,0,0,2.26.65A4.19,4.19,0,0,0,59.71,345Z"/><path class="cls-2" d="M74.75,334.31a4.17,4.17,0,0,1,1.78,1.6,4.57,4.57,0,0,1,.66,2.48v8.45H75.36V339.2q0-3.75-3.35-3.75a3.35,3.35,0,0,0-2.92,1.37,6.38,6.38,0,0,0-1,3.7v6.32H66.29V334.21h1.83v2.1a4.9,4.9,0,0,1,1.72-1.88,4.58,4.58,0,0,1,2.47-.66A5.55,5.55,0,0,1,74.75,334.31Z"/><path class="cls-2" d="M98.55,334.21v12.63H96.71V345a5.71,5.71,0,0,1-1.91,1.69,5.26,5.26,0,0,1-2.49.6A6,6,0,0,1,86.83,344,7.45,7.45,0,0,1,86,340.5a7.37,7.37,0,0,1,.8-3.47A5.94,5.94,0,0,1,89,334.64a6.06,6.06,0,0,1,3.23-.87,5.33,5.33,0,0,1,2.52.61,5.48,5.48,0,0,1,1.93,1.72v-1.89Zm-4,10.74a4.37,4.37,0,0,0,1.58-1.81,5.83,5.83,0,0,0,.56-2.62,5.89,5.89,0,0,0-.56-2.62,4.4,4.4,0,0,0-1.58-1.8,4.15,4.15,0,0,0-2.31-.65,4,4,0,0,0-2.27.65,4.4,4.4,0,0,0-1.56,1.79,5.79,5.79,0,0,0-.57,2.61,5.89,5.89,0,0,0,.57,2.64A4.33,4.33,0,0,0,90,345a4.1,4.1,0,0,0,2.27.65A4.23,4.23,0,0,0,94.57,345Z"/><path class="cls-2" d="M109.2,346.49a5.2,5.2,0,0,1-2.12-2.21l1.65-.81c.66,1.42,2,2.13,3.91,2.13a4.78,4.78,0,0,0,2.33-.51,1.72,1.72,0,0,0,.91-1.6,1.88,1.88,0,0,0-.74-1.64,5.42,5.42,0,0,0-2.6-.71,6.66,6.66,0,0,1-3.72-1.16,3.13,3.13,0,0,1-1.12-2.51,3.23,3.23,0,0,1,1.27-2.72,5.61,5.61,0,0,1,3.49-1q3.75,0,5.1,3l-1.65.81a3.22,3.22,0,0,0-1.34-1.59,4.41,4.41,0,0,0-2.25-.51,3.79,3.79,0,0,0-2.15.51,1.75,1.75,0,0,0,.06,2.9,5.88,5.88,0,0,0,2.74.72,6.55,6.55,0,0,1,3.58,1.17,3.11,3.11,0,0,1,1.17,2.53,3.33,3.33,0,0,1-.73,2.17,4.38,4.38,0,0,1-1.94,1.36,7.29,7.29,0,0,1-2.62.46A6.49,6.49,0,0,1,109.2,346.49Z"/><path class="cls-2" d="M130,334.64a6,6,0,0,1,2.24,2.4,8,8,0,0,1,0,7,6,6,0,0,1-2.21,2.39,6.08,6.08,0,0,1-3.23.86,5.4,5.4,0,0,1-2.53-.6,5.65,5.65,0,0,1-1.93-1.72v7.29h-1.83v-18h1.83v1.86a5.74,5.74,0,0,1,1.92-1.69,5.23,5.23,0,0,1,2.48-.61A6.15,6.15,0,0,1,130,334.64ZM129.09,345a4.47,4.47,0,0,0,1.56-1.79,5.82,5.82,0,0,0,.57-2.61,6,6,0,0,0-.57-2.65,4.43,4.43,0,0,0-1.56-1.8,4,4,0,0,0-2.27-.65,4.13,4.13,0,0,0-2.31.65,4.4,4.4,0,0,0-1.58,1.8,5.89,5.89,0,0,0-.57,2.62,5.83,5.83,0,0,0,.57,2.62,4.37,4.37,0,0,0,1.58,1.81,4.21,4.21,0,0,0,2.31.65A4.12,4.12,0,0,0,129.09,345Z"/><path class="cls-2" d="M144.18,334.61a5.92,5.92,0,0,1,2.16,2.28,6.71,6.71,0,0,1,.78,3.23c0,.34,0,.6,0,.78H136.7a5.48,5.48,0,0,0,1.27,3.32,3.91,3.91,0,0,0,3.16,1.38,5.35,5.35,0,0,0,2.69-.61,4.62,4.62,0,0,0,1.71-1.69l1.46,1a6.44,6.44,0,0,1-2.35,2.2,7.13,7.13,0,0,1-3.46.79,6.13,6.13,0,0,1-3.26-.86,6,6,0,0,1-2.24-2.4,7.4,7.4,0,0,1-.82-3.49,7.5,7.5,0,0,1,.8-3.48,5.86,5.86,0,0,1,2.22-2.4,6,6,0,0,1,3.22-.87A5.79,5.79,0,0,1,144.18,334.61Zm1.11,4.78a4.79,4.79,0,0,0-1.33-3,4,4,0,0,0-2.86-1,3.86,3.86,0,0,0-2.87,1.12,5.14,5.14,0,0,0-1.42,2.82Z"/><path class="cls-2" d="M152,346.41a6,6,0,0,1-2.24-2.4,7.39,7.39,0,0,1-.81-3.49,7.49,7.49,0,0,1,.79-3.48,5.81,5.81,0,0,1,2.23-2.4,6.09,6.09,0,0,1,3.24-.87,5.31,5.31,0,0,1,2.69.66,7.48,7.48,0,0,1,2.09,1.88l-1.35,1.05A4.13,4.13,0,0,0,153,336.1a4.33,4.33,0,0,0-1.58,1.8,5.89,5.89,0,0,0-.57,2.62,5.83,5.83,0,0,0,.57,2.62A4.3,4.3,0,0,0,153,345a4.13,4.13,0,0,0,2.28.65,4.48,4.48,0,0,0,2.13-.45,4.62,4.62,0,0,0,1.51-1.31l1.44,1a6.67,6.67,0,0,1-2.2,1.77,6.23,6.23,0,0,1-2.83.66A6.13,6.13,0,0,1,152,346.41Z"/><path class="cls-2" d="M163.58,331.32a1.46,1.46,0,0,1-.42-1.06,1.38,1.38,0,0,1,.42-1,1.47,1.47,0,1,1,0,2.07Zm.12,15.52V334.21h1.84v12.63Z"/><path class="cls-2" d="M170.61,335.88H169v-1.67h1.62v-3.43a3.94,3.94,0,0,1,1.12-2.88,3.9,3.9,0,0,1,2.88-1.12h.75v1.67h-.75a2.07,2.07,0,0,0-1.56.65,2.37,2.37,0,0,0-.6,1.68v3.43h6.75v12.63h-1.84v-11h-4.91v11h-1.84Zm6.63-4.56a1.46,1.46,0,0,1-.42-1.06,1.38,1.38,0,0,1,.42-1,1.47,1.47,0,0,1,2.5,1,1.46,1.46,0,0,1-2.5,1Z"/><path class="cls-2" d="M185.81,346.41a6.1,6.1,0,0,1-2.24-2.4,7.39,7.39,0,0,1-.81-3.49,7.5,7.5,0,0,1,.8-3.48,5.81,5.81,0,0,1,2.23-2.4,6.09,6.09,0,0,1,3.24-.87,5.27,5.27,0,0,1,2.68.66,7.22,7.22,0,0,1,2.09,1.88l-1.34,1.05a4,4,0,0,0-3.43-1.91,4.11,4.11,0,0,0-2.29.65,4.31,4.31,0,0,0-1.57,1.8,5.89,5.89,0,0,0-.57,2.62,5.83,5.83,0,0,0,.57,2.62,4.28,4.28,0,0,0,1.57,1.81,4.19,4.19,0,0,0,2.29.65,4.48,4.48,0,0,0,2.13-.45,4.62,4.62,0,0,0,1.51-1.31l1.43,1a6.57,6.57,0,0,1-2.2,1.77,6.51,6.51,0,0,1-6.09-.2Z"/><path class="cls-2" d="M204.71,346.41a6.1,6.1,0,0,1-2.24-2.4,7.39,7.39,0,0,1-.81-3.49,7.5,7.5,0,0,1,.8-3.48,5.81,5.81,0,0,1,2.23-2.4,6.09,6.09,0,0,1,3.24-.87,5.27,5.27,0,0,1,2.68.66,7.35,7.35,0,0,1,2.09,1.88l-1.35,1.05a4,4,0,0,0-3.42-1.91,4.11,4.11,0,0,0-2.29.65,4.4,4.4,0,0,0-1.58,1.8,6,6,0,0,0-.56,2.62,6,6,0,0,0,.56,2.62,4.37,4.37,0,0,0,1.58,1.81,4.19,4.19,0,0,0,2.29.65,4.48,4.48,0,0,0,2.13-.45,4.62,4.62,0,0,0,1.51-1.31l1.43,1a6.57,6.57,0,0,1-2.2,1.77,6.51,6.51,0,0,1-6.09-.2Z"/><path class="cls-2" d="M217.65,346.41A6,6,0,0,1,215.4,344a7.92,7.92,0,0,1,0-7,5.94,5.94,0,0,1,2.21-2.39,6.45,6.45,0,0,1,6.47,0,6,6,0,0,1,2.24,2.4,7.38,7.38,0,0,1,.81,3.48,7.5,7.5,0,0,1-.79,3.49,6.28,6.28,0,0,1-8.68,2.4Zm5.49-1.46a4.37,4.37,0,0,0,1.58-1.81,5.83,5.83,0,0,0,.57-2.62,5.89,5.89,0,0,0-.57-2.62,4.4,4.4,0,0,0-1.58-1.8,4.11,4.11,0,0,0-2.31-.65,4,4,0,0,0-2.27.65,4.47,4.47,0,0,0-1.56,1.79,5.79,5.79,0,0,0-.57,2.61,5.89,5.89,0,0,0,.57,2.64,4.4,4.4,0,0,0,1.56,1.81,4.1,4.1,0,0,0,2.27.65A4.19,4.19,0,0,0,223.14,345Z"/><path class="cls-2" d="M246.08,335a4.76,4.76,0,0,1,1.16,3.39v8.45H245.4V339.2a4.33,4.33,0,0,0-.76-2.87,2.46,2.46,0,0,0-2-.88,2.64,2.64,0,0,0-2.3,1.15,5.94,5.94,0,0,0-1,3.11v7.13h-1.84V339.2a4.33,4.33,0,0,0-.76-2.87,2.46,2.46,0,0,0-2-.88,2.71,2.71,0,0,0-2.47,1.37,7.2,7.2,0,0,0-.82,3.7v6.32h-1.84V334.21h1.84v2a4.7,4.7,0,0,1,1.58-1.79,4,4,0,0,1,2.2-.62,3.94,3.94,0,0,1,2.4.75,3.81,3.81,0,0,1,1.43,2.12,5.14,5.14,0,0,1,1.62-2.11,4,4,0,0,1,2.38-.76A3.86,3.86,0,0,1,246.08,335Z"/><path class="cls-2" d="M260,334.64a6,6,0,0,1,2.24,2.4,8,8,0,0,1,0,7,5.92,5.92,0,0,1-5.44,3.25,5.33,5.33,0,0,1-2.52-.6,5.48,5.48,0,0,1-1.93-1.72v7.29h-1.84v-18h1.84v1.86a5.71,5.71,0,0,1,1.91-1.69,5.27,5.27,0,0,1,2.49-.61A6.14,6.14,0,0,1,260,334.64ZM259.09,345a4.42,4.42,0,0,0,1.57-1.79,6,6,0,0,0,.56-2.61,6.1,6.1,0,0,0-.56-2.65,4.38,4.38,0,0,0-1.57-1.8,4,4,0,0,0-2.27-.65,4.15,4.15,0,0,0-2.31.65,4.4,4.4,0,0,0-1.58,1.8,6,6,0,0,0-.56,2.62,6,6,0,0,0,.56,2.62,4.37,4.37,0,0,0,1.58,1.81,4.23,4.23,0,0,0,2.31.65A4.1,4.1,0,0,0,259.09,345Z"/><path class="cls-2" d="M277.39,334.21v12.63h-1.83V345a5.65,5.65,0,0,1-1.92,1.69,5.2,5.2,0,0,1-2.48.6,6,6,0,0,1-5.48-3.26,7.45,7.45,0,0,1-.81-3.51,7.36,7.36,0,0,1,.79-3.47,5.89,5.89,0,0,1,2.22-2.39,6,6,0,0,1,3.22-.87,5.4,5.4,0,0,1,2.53.61,5.56,5.56,0,0,1,1.93,1.72v-1.89Zm-4,10.74a4.3,4.3,0,0,0,1.58-1.81,5.83,5.83,0,0,0,.57-2.62,5.89,5.89,0,0,0-.57-2.62,4.33,4.33,0,0,0-1.58-1.8,4.11,4.11,0,0,0-2.31-.65,4,4,0,0,0-2.26.65,4.42,4.42,0,0,0-1.57,1.79,5.79,5.79,0,0,0-.57,2.61,5.89,5.89,0,0,0,.57,2.64,4.35,4.35,0,0,0,1.57,1.81,4.07,4.07,0,0,0,2.26.65A4.19,4.19,0,0,0,273.41,345Z"/><path class="cls-2" d="M289.26,334.31a4.17,4.17,0,0,1,1.78,1.6,4.58,4.58,0,0,1,.67,2.48v8.45h-1.84V339.2q0-3.75-3.35-3.75a3.35,3.35,0,0,0-2.92,1.37,6.38,6.38,0,0,0-1,3.7v6.32H280.8V334.21h1.83v2.1a5,5,0,0,1,1.72-1.88,4.58,4.58,0,0,1,2.47-.66A5.55,5.55,0,0,1,289.26,334.31Z"/><path class="cls-2" d="M304,334.21h1.73l-6.83,18h-1.84l2-5.16-5.19-12.87h1.92L300,344.68Z"/><path class="cls-2" d="M306.8,331.53a5.63,5.63,0,0,0,1.43-2.78,1.37,1.37,0,0,1-1-.43,1.46,1.46,0,0,1-.42-1.05,1.43,1.43,0,0,1,.42-1,1.34,1.34,0,0,1,1-.43,1.48,1.48,0,0,1,1.07.4,1.43,1.43,0,0,1,.42,1.08A5.65,5.65,0,0,1,309,330a4.25,4.25,0,0,1-1.75,1.83Z"/><path class="cls-2" d="M313.18,346.49a5.26,5.26,0,0,1-2.12-2.21l1.65-.81c.67,1.42,2,2.13,3.92,2.13a4.74,4.74,0,0,0,2.32-.51,1.73,1.73,0,0,0,.92-1.6,1.89,1.89,0,0,0-.75-1.64,5.42,5.42,0,0,0-2.6-.71A6.66,6.66,0,0,1,312.8,340a3.13,3.13,0,0,1-1.12-2.51,3.23,3.23,0,0,1,1.27-2.72,5.61,5.61,0,0,1,3.49-1q3.75,0,5.1,3l-1.65.81a3.2,3.2,0,0,0-1.33-1.59,4.47,4.47,0,0,0-2.26-.51,3.82,3.82,0,0,0-2.15.51,1.75,1.75,0,0,0,.06,2.9,5.88,5.88,0,0,0,2.74.72,6.55,6.55,0,0,1,3.58,1.17,3.11,3.11,0,0,1,1.17,2.53,3.33,3.33,0,0,1-.73,2.17,4.38,4.38,0,0,1-1.94,1.36,7.29,7.29,0,0,1-2.62.46A6.49,6.49,0,0,1,313.18,346.49Z"/><path class="cls-2" d="M339,334.31a4.23,4.23,0,0,1,1.78,1.6,4.57,4.57,0,0,1,.66,2.48v8.45h-1.84V339.2q0-3.75-3.34-3.75a3.35,3.35,0,0,0-2.92,1.37,6.31,6.31,0,0,0-1,3.7v6.32H330.5V334.21h1.84v2.1a4.87,4.87,0,0,1,1.71-1.88,4.61,4.61,0,0,1,2.47-.66A5.57,5.57,0,0,1,339,334.31Z"/><path class="cls-2" d="M356.75,334.21v12.63h-1.84V345a5.65,5.65,0,0,1-1.92,1.69,5.2,5.2,0,0,1-2.48.6A6,6,0,0,1,345,344a7.45,7.45,0,0,1-.81-3.51A7.36,7.36,0,0,1,345,337a6,6,0,0,1,2.22-2.39,6,6,0,0,1,3.23-.87,5.39,5.39,0,0,1,2.52.61,5.56,5.56,0,0,1,1.93,1.72v-1.89Zm-4,10.74a4.24,4.24,0,0,0,1.58-1.81,5.83,5.83,0,0,0,.57-2.62,5.89,5.89,0,0,0-.57-2.62,4.27,4.27,0,0,0-1.58-1.8,4.1,4.1,0,0,0-2.3-.65,4,4,0,0,0-2.27.65,4.42,4.42,0,0,0-1.57,1.79,5.79,5.79,0,0,0-.57,2.61,5.89,5.89,0,0,0,.57,2.64,4.35,4.35,0,0,0,1.57,1.81,4.08,4.08,0,0,0,2.27.65A4.18,4.18,0,0,0,352.76,345Z"/><path class="cls-2" d="M376.51,335a4.76,4.76,0,0,1,1.16,3.39v8.45h-1.83V339.2a4.38,4.38,0,0,0-.76-2.87,2.46,2.46,0,0,0-2-.88,2.67,2.67,0,0,0-2.31,1.15,5.94,5.94,0,0,0-1,3.11v7.13H368V339.2a4.38,4.38,0,0,0-.76-2.87,2.46,2.46,0,0,0-2-.88,2.7,2.7,0,0,0-2.47,1.37,7.19,7.19,0,0,0-.83,3.7v6.32h-1.83V334.21H362v2a4.87,4.87,0,0,1,1.58-1.79,4.23,4.23,0,0,1,4.61.13,3.86,3.86,0,0,1,1.43,2.12,5,5,0,0,1,1.62-2.11,3.9,3.9,0,0,1,2.37-.76A3.84,3.84,0,0,1,376.51,335Z"/><path class="cls-2" d="M389.47,334.61a5.92,5.92,0,0,1,2.16,2.28,6.71,6.71,0,0,1,.78,3.23c0,.34,0,.6,0,.78H382a5.48,5.48,0,0,0,1.27,3.32,3.91,3.91,0,0,0,3.16,1.38,5.35,5.35,0,0,0,2.69-.61,4.62,4.62,0,0,0,1.71-1.69l1.46,1a6.44,6.44,0,0,1-2.35,2.2,7.13,7.13,0,0,1-3.46.79,6.13,6.13,0,0,1-3.26-.86A6,6,0,0,1,381,344a7.4,7.4,0,0,1-.82-3.49A7.5,7.5,0,0,1,381,337a5.86,5.86,0,0,1,2.22-2.4,6,6,0,0,1,3.22-.87A5.79,5.79,0,0,1,389.47,334.61Zm1.11,4.78a4.79,4.79,0,0,0-1.33-3,4,4,0,0,0-2.86-1,3.86,3.86,0,0,0-2.87,1.12,5.14,5.14,0,0,0-1.42,2.82Z"/><path class="cls-2" d="M412.88,334.21v12.63H411V345a5.71,5.71,0,0,1-1.91,1.69,5.26,5.26,0,0,1-2.49.6,6,6,0,0,1-5.48-3.26,7.45,7.45,0,0,1-.81-3.51,7.37,7.37,0,0,1,.8-3.47,5.94,5.94,0,0,1,2.21-2.39,6.06,6.06,0,0,1,3.23-.87,5.33,5.33,0,0,1,2.52.61A5.48,5.48,0,0,1,411,336.1v-1.89Zm-4,10.74a4.37,4.37,0,0,0,1.58-1.81,6,6,0,0,0,.56-2.62,6,6,0,0,0-.56-2.62,4.4,4.4,0,0,0-1.58-1.8,4.15,4.15,0,0,0-2.31-.65,4,4,0,0,0-2.27.65,4.42,4.42,0,0,0-1.57,1.79,5.92,5.92,0,0,0-.56,2.61,6,6,0,0,0,.56,2.64,4.35,4.35,0,0,0,1.57,1.81,4.1,4.1,0,0,0,2.27.65A4.23,4.23,0,0,0,408.9,345Z"/><path class="cls-2" d="M424.74,334.31a4.2,4.2,0,0,1,1.79,1.6,4.57,4.57,0,0,1,.66,2.48v8.45h-1.84V339.2c0-2.5-1.11-3.75-3.35-3.75a3.35,3.35,0,0,0-2.91,1.37,6.31,6.31,0,0,0-1,3.7v6.32h-1.84V334.21h1.84v2.1a4.87,4.87,0,0,1,1.71-1.88,4.58,4.58,0,0,1,2.47-.66A5.52,5.52,0,0,1,424.74,334.31Z"/><path class="cls-2" d="M442.52,327.24v19.6h-1.83V345a5.65,5.65,0,0,1-1.92,1.69,5.22,5.22,0,0,1-2.48.6,6,6,0,0,1-5.48-3.26,7.45,7.45,0,0,1-.81-3.51,7.36,7.36,0,0,1,.79-3.47,5.89,5.89,0,0,1,2.22-2.39,6,6,0,0,1,3.22-.87,5.4,5.4,0,0,1,2.53.61,5.56,5.56,0,0,1,1.93,1.72v-8.86Zm-4,17.71a4.3,4.3,0,0,0,1.58-1.81,5.83,5.83,0,0,0,.57-2.62,5.89,5.89,0,0,0-.57-2.62,4.33,4.33,0,0,0-1.58-1.8,4.11,4.11,0,0,0-2.31-.65,4,4,0,0,0-2.26.65,4.42,4.42,0,0,0-1.57,1.79,5.79,5.79,0,0,0-.57,2.61,5.89,5.89,0,0,0,.57,2.64A4.35,4.35,0,0,0,434,345a4.07,4.07,0,0,0,2.26.65A4.19,4.19,0,0,0,438.54,345Z"/><path class="cls-2" d="M55.07,361.5a2.33,2.33,0,0,0-.61,1.68v3.43h2.92v1.67H54.46v11H52.62v-11H51v-1.67h1.62v-3.43a3.9,3.9,0,0,1,1.13-2.88,3.86,3.86,0,0,1,2.87-1.12h.76v1.67h-.76A2,2,0,0,0,55.07,361.5Z"/><path class="cls-2" d="M71.12,366.61v12.63H69.28v-1.86a5.71,5.71,0,0,1-1.91,1.69,5.26,5.26,0,0,1-2.49.6,6,6,0,0,1-5.48-3.26,7.45,7.45,0,0,1-.81-3.51,7.37,7.37,0,0,1,.8-3.47A5.94,5.94,0,0,1,61.6,367a6.06,6.06,0,0,1,3.23-.87,5.33,5.33,0,0,1,2.52.61,5.48,5.48,0,0,1,1.93,1.72v-1.89Zm-4,10.74a4.37,4.37,0,0,0,1.58-1.81,6,6,0,0,0,.56-2.62,6,6,0,0,0-.56-2.62,4.4,4.4,0,0,0-1.58-1.8,4.15,4.15,0,0,0-2.31-.65,4,4,0,0,0-2.27.65A4.42,4.42,0,0,0,61,370.29a5.92,5.92,0,0,0-.56,2.61,6,6,0,0,0,.56,2.64,4.35,4.35,0,0,0,1.57,1.81,4.1,4.1,0,0,0,2.27.65A4.23,4.23,0,0,0,67.14,377.35Z"/><path class="cls-2" d="M76.74,378.81a6.05,6.05,0,0,1-2.25-2.4,7.39,7.39,0,0,1-.81-3.49,7.5,7.5,0,0,1,.8-3.48,5.81,5.81,0,0,1,2.23-2.4,6.09,6.09,0,0,1,3.24-.87,5.34,5.34,0,0,1,2.69.66,7.48,7.48,0,0,1,2.09,1.88l-1.35,1.05a4.13,4.13,0,0,0-5.71-1.26,4.33,4.33,0,0,0-1.58,1.8,5.89,5.89,0,0,0-.57,2.62,5.83,5.83,0,0,0,.57,2.62,4.3,4.3,0,0,0,1.58,1.81A4.13,4.13,0,0,0,80,378a4.48,4.48,0,0,0,2.13-.45,4.62,4.62,0,0,0,1.51-1.31l1.43,1a6.47,6.47,0,0,1-2.2,1.77,6.49,6.49,0,0,1-6.08-.2Z"/><path class="cls-2" d="M88.28,363.72a1.46,1.46,0,0,1-.42-1.06,1.38,1.38,0,0,1,.42-1,1.4,1.4,0,0,1,1-.42,1.42,1.42,0,0,1,1,.42,1.46,1.46,0,0,1,0,2.07,1.43,1.43,0,0,1-1,.43A1.41,1.41,0,0,1,88.28,363.72Zm.12,15.52V366.61h1.83v12.63Z"/><path class="cls-2" d="M94.77,379.24v-19.6h1.84v19.6Z"/><path class="cls-2" d="M101,363.72a1.46,1.46,0,0,1-.41-1.06,1.37,1.37,0,0,1,.41-1,1.49,1.49,0,0,1,2.07,0,1.46,1.46,0,0,1,0,2.07,1.46,1.46,0,0,1-2.07,0Zm.13,15.52V366.61H103v12.63Z"/><path class="cls-2" d="M108,379.24v-11h-2.16v-1.67H108v-4.19h1.83v4.19h2.92v1.67h-2.92v11Z"/><path class="cls-2" d="M115.65,363.72a1.5,1.5,0,0,1-.41-1.06,1.42,1.42,0,0,1,1.45-1.43,1.43,1.43,0,0,1,1,.42,1.46,1.46,0,0,1,0,2.07,1.46,1.46,0,0,1-2.07,0Zm.13,15.52V366.61h1.83v12.63Z"/><path class="cls-2" d="M130.54,367a5.92,5.92,0,0,1,2.16,2.28,6.6,6.6,0,0,1,.79,3.23,7.59,7.59,0,0,1,0,.78H123.07a5.47,5.47,0,0,0,1.26,3.32,3.92,3.92,0,0,0,3.16,1.38,5.33,5.33,0,0,0,2.69-.61,4.62,4.62,0,0,0,1.71-1.69l1.46,1a6.29,6.29,0,0,1-2.35,2.2,7.09,7.09,0,0,1-3.45.79,6,6,0,0,1-5.51-3.26,7.39,7.39,0,0,1-.81-3.49,7.5,7.5,0,0,1,.8-3.48,5.9,5.9,0,0,1,2.21-2.4,6,6,0,0,1,3.23-.87A5.76,5.76,0,0,1,130.54,367Zm1.11,4.78a4.84,4.84,0,0,0-1.32-3,4.05,4.05,0,0,0-2.86-1,3.9,3.9,0,0,0-2.88,1.12,5.14,5.14,0,0,0-1.42,2.82Z"/><path class="cls-2" d="M137.42,378.89a5.14,5.14,0,0,1-2.12-2.21l1.64-.81c.67,1.42,2,2.13,3.92,2.13a4.74,4.74,0,0,0,2.32-.51,1.73,1.73,0,0,0,.92-1.6,1.91,1.91,0,0,0-.74-1.64,5.51,5.51,0,0,0-2.61-.71,6.59,6.59,0,0,1-3.71-1.16,3.1,3.1,0,0,1-1.12-2.51,3.2,3.2,0,0,1,1.27-2.72,5.56,5.56,0,0,1,3.48-1q3.75,0,5.1,3l-1.64.81a3.27,3.27,0,0,0-1.34-1.59,4.47,4.47,0,0,0-2.26-.51,3.76,3.76,0,0,0-2.14.51,1.66,1.66,0,0,0-.74,1.46,1.68,1.68,0,0,0,.79,1.44,5.92,5.92,0,0,0,2.74.72,6.52,6.52,0,0,1,3.58,1.17,3.11,3.11,0,0,1,1.17,2.53,3.38,3.38,0,0,1-.72,2.17,4.47,4.47,0,0,1-2,1.36,7.25,7.25,0,0,1-2.62.46A6.45,6.45,0,0,1,137.42,378.89Z"/><path class="cls-2" d="M148.73,379a1.46,1.46,0,0,1-.42-1.06,1.4,1.4,0,0,1,.42-1,1.35,1.35,0,0,1,1-.44,1.47,1.47,0,0,1,1,2.52,1.45,1.45,0,0,1-1,.43A1.38,1.38,0,0,1,148.73,379Z"/></g></g></svg>