<svg id="Layer_1" data-name="Layer 1" xmlns="http://www.w3.org/2000/svg" xmlns:xlink="http://www.w3.org/1999/xlink" viewBox="0 0 802.46 419.98"><defs><style>.cls-1{fill:#fff;}.cls-2{fill:#1368b1;}.cls-3{fill:url(#linear-gradient);}.cls-4{fill:#fcb616;}.cls-5{fill:#152d4c;}.cls-6{fill:#bc222f;}</style><linearGradient id="linear-gradient" x1="81.36" y1="206.66" x2="366.16" y2="206.66" gradientUnits="userSpaceOnUse"><stop offset="0" stop-color="#1368b1"/><stop offset="1" stop-color="#00adee"/></linearGradient></defs><title>Items web</title><rect class="cls-1" x="287.45" y="121.17" width="359.15" height="81.73" rx="29.28" ry="29.28"/><path class="cls-1" d="M605.74,203.91H328.32a41.88,41.88,0,1,1,0-83.75H605.74a41.88,41.88,0,0,1,0,83.75ZM328.32,122.18a39.86,39.86,0,1,0,0,79.71H605.74a39.86,39.86,0,1,0,0-79.71Z"/><path class="cls-2" d="M403.09,146.16l-5.28,32.71h-5.2l-5.28-32.71h4.32l3.56,25,3.55-25Z"/><path class="cls-2" d="M405.14,178.87V146.16H416v4h-6.47v9.93h5.74v4h-5.74v10.89H416v4Z"/><path class="cls-2" d="M428.87,178.87V164H423.5v14.85h-4.37V146.16h4.37v13.9h5.37v-13.9h4.38v32.71Z"/><path class="cls-2" d="M437.35,178.87V146.16h4.37v32.71Z"/><path class="cls-2" d="M458.9,171.22v2.09q0,5.56-5.24,5.56h-2.83q-5.24,0-5.24-5.56V151.72q0-5.57,5.24-5.56h2.83q5.23,0,5.24,5.56v3.69h-4.38V152a1.71,1.71,0,0,0-2-1.91h-.86c-1.16,0-1.73.63-1.73,1.91v21c0,1.27.57,1.91,1.73,1.91h1.09c1.16,0,1.73-.64,1.73-1.91v-1.78Z"/><path class="cls-2" d="M472.7,178.87H462.31V146.16h4.38v28.75h6Z"/><path class="cls-2" d="M475.21,178.87V146.16h10.84v4h-6.47v9.93h5.74v4h-5.74v10.89h6.47v4Z"/><path class="cls-2" d="M503.45,150.13v28.74h-4.37V150.13h-4.19v-4h12.75v4Z"/><path class="cls-2" d="M510.15,146.16h8.56q5,0,5,5.6v8.07q0,4.28-2.59,5.42l3,13.62H520l-2.87-13.21h-2.64v13.21h-4.37Zm4.37,15.76h2.87c1.31,0,2-.78,2-2.36v-7.07c0-1.57-.65-2.36-2-2.36h-2.87Z"/><path class="cls-2" d="M531.51,178.87h-4.37V151.76q0-5.59,5.24-5.6h3.28q5.24,0,5.24,5.6v27.11h-4.38v-12h-5Zm5-15.94V152a1.68,1.68,0,0,0-1.91-1.91h-1.18a1.69,1.69,0,0,0-1.92,1.91v10.89Z"/><path class="cls-2" d="M557.84,171.22v2.09q0,5.56-5.23,5.56h-2.83q-5.24,0-5.24-5.56V151.72q0-5.57,5.24-5.56h2.83q5.24,0,5.23,5.56v3.69h-4.37V152a1.71,1.71,0,0,0-2-1.91h-.86c-1.16,0-1.74.63-1.74,1.91v21c0,1.27.58,1.91,1.74,1.91h1.09c1.15,0,1.73-.64,1.73-1.91v-1.78Z"/><path class="cls-2" d="M565.63,178.87h-4.37V146.16h4.37Zm10.07,0h-4.37l-5.47-16v-.27l4.56-16.45h4l-4.6,16.27Z"/><path class="cls-2" d="M578.21,178.87V146.16h10.84v4h-6.47v9.93h5.74v4h-5.74v10.89h6.47v4Z"/><path class="cls-2" d="M592.19,146.16h8.57q5,0,5,5.6v8.07q0,4.28-2.6,5.42l3.06,13.62h-4.15l-2.87-13.21h-2.64v13.21h-4.38Zm4.38,15.76h2.87c1.3,0,2-.78,2-2.36v-7.07c0-1.57-.66-2.36-2-2.36h-2.87Z"/><circle class="cls-1" cx="210.68" cy="206.57" r="139.45" transform="translate(-84.36 209.47) rotate(-45)"/><path class="cls-3" d="M81.36,292.8a155.46,155.46,0,0,0,129.31,69.25c85.74,0,155.49-69.75,155.49-155.48,0-83.18-65.65-151.31-147.86-155.3-3,3.86-7,9.2-11.91,15.92,1.42,0,2.85-.07,4.28-.07A139.45,139.45,0,1,1,88.93,274.62Q85.09,283.59,81.36,292.8Z"/><circle class="cls-4" cx="210.68" cy="206.57" r="114.02"/><path class="cls-5" d="M196.22,178.34H168.65a12,12,0,0,0-1.59.08,4.23,4.23,0,0,0-3.5,3.17,4,4,0,0,0,1.78,4.52,6.78,6.78,0,0,0,3.12.79q15.84.06,31.7,0Zm5.5,0,3.94,8.6h11.67l3.94-8.6Zm71.38,48.09c-.05-6.89.68-4.7-3.53-10.28a55.32,55.32,0,0,1-5-7c-3.62-6.83-7-13.79-10.46-20.69a4.29,4.29,0,0,0-4.17-2.59c-2.55,0-5.12,0-7.67,0h-7.61v-2.48c0-3.44-1.63-5.07-5.1-5.07h-2.81l-3.94,8.6h3.29v1.43q0,11.9,0,23.76c0,3.2,1.66,4.88,4.84,4.88q13.74,0,27.48,0a1.64,1.64,0,0,1,1.5.75c1.33,1.76,2.71,3.46,4,5.24a3,3,0,0,1,.58,1.61c0,5.58,0,11.16,0,16.74v1h-6.09c-.09-.21-.17-.37-.23-.54-2.4-6.68-8-10.76-14.76-10.82s-12.39,4-14.82,10.72c-.25.69-.65.69-1.2.69H207.06a16,16,0,0,0-3.64-6.46,15.54,15.54,0,0,0-26.06,5.51c-.26.74-.57,1-1.33,1-2.7,0-5.4,0-8.1,0a4.27,4.27,0,1,0,0,8.54c2.73,0,5.47,0,8.2,0a1.14,1.14,0,0,1,1.3.88,15.53,15.53,0,0,0,29.27,0,1.06,1.06,0,0,1,1.2-.85q9.81,0,19.62,0a1.13,1.13,0,0,1,1.28.89,15.53,15.53,0,0,0,29.23.06,1.19,1.19,0,0,1,1.36-.95c3,0,6,0,8.95,0,3.15,0,4.78-1.63,4.78-4.78C273.12,239.58,273.14,233,273.1,226.43Zm-38.34-18.05V194.51a3.53,3.53,0,0,1,.58-.08c3.8,0,7.6,0,11.39,0a1.36,1.36,0,0,1,1,.48c2.28,4.42,4.49,8.85,6.8,13.45ZM192,253.5a7,7,0,1,1,7-6.92A7,7,0,0,1,192,253.5Zm51.32,0a7,7,0,1,1,7.09-6.86A7,7,0,0,1,243.33,253.5Z"/><path class="cls-5" d="M179.22,193.78H195c2.72,0,4.57,1.73,4.58,4.23s-1.85,4.31-4.61,4.31q-15.81,0-31.62,0A4.27,4.27,0,0,1,162,194a5.52,5.52,0,0,1,1.57-.17Z"/><path class="cls-5" d="M173.1,217.09h-16a4.26,4.26,0,0,1-3.65-6.59,4,4,0,0,1,3.56-2q16.08,0,32.14,0a4.19,4.19,0,0,1,4.22,4.3,4.14,4.14,0,0,1-4.24,4.23C183.81,217.11,178.45,217.09,173.1,217.09Z"/><path class="cls-5" d="M171.84,223.35h8.31c2.75,0,4.69,1.8,4.66,4.3s-2,4.26-4.73,4.26c-5.61,0-11.22,0-16.83,0a4.27,4.27,0,0,1-4.29-3.8,4.21,4.21,0,0,1,2.9-4.54,5.57,5.57,0,0,1,1.68-.21C166.31,223.34,169.08,223.35,171.84,223.35Z"/><path class="cls-6" d="M211.5,133.85a19.35,19.35,0,0,0-17.6,27.4l2.54,5.52,5.28,11.57,3.94,8.6,5.84,12.76,5.83-12.76,3.94-8.6,5.29-11.57,2.54-5.52a19.32,19.32,0,0,0-17.6-27.4Zm-.57,29.77a10.47,10.47,0,1,1,10.48-10.47A10.47,10.47,0,0,1,210.93,163.62Z"/><path class="cls-6" d="M211.5,133.85a19.35,19.35,0,0,0-17.6,27.4l2.54,5.52,5.28,11.57,3.94,8.6,5.84,12.76,5.83-12.76,3.94-8.6,5.29-11.57,2.54-5.52a19.32,19.32,0,0,0-17.6-27.4Zm-.57,29.77a10.47,10.47,0,1,1,10.48-10.47A10.47,10.47,0,0,1,210.93,163.62Z"/><path class="cls-1" d="M403.09,274.56l-1.89-5.16h-7.64l-1.7,5.16h-2l6.53-18.42h1.89L405,274.56Zm-8.91-6.83h6.4l-3.3-8.94Z"/><path class="cls-1" d="M424.77,255v19.6h-1.84v-1.87a5.6,5.6,0,0,1-1.91,1.69,5.16,5.16,0,0,1-2.49.61,6.23,6.23,0,0,1-3.24-.86,6.06,6.06,0,0,1-2.24-2.41,8,8,0,0,1,0-7,6.07,6.07,0,0,1,2.21-2.39,6.14,6.14,0,0,1,3.23-.86,5.22,5.22,0,0,1,2.52.61,5.35,5.35,0,0,1,1.93,1.71V255Zm-4,17.71a4.43,4.43,0,0,0,1.58-1.81,6.41,6.41,0,0,0,0-5.24,4.43,4.43,0,0,0-1.58-1.81,4.23,4.23,0,0,0-2.31-.65,4.08,4.08,0,0,0-2.27.65,4.38,4.38,0,0,0-1.57,1.8,5.88,5.88,0,0,0-.56,2.6,6.1,6.1,0,0,0,.56,2.65,4.41,4.41,0,0,0,1.57,1.81,4.07,4.07,0,0,0,2.27.64A4.23,4.23,0,0,0,420.79,272.67Z"/><path class="cls-1" d="M436.7,262.33a5.78,5.78,0,0,1,2.16,2.28,6.68,6.68,0,0,1,.79,3.22,7.68,7.68,0,0,1,0,.79h-10.4a5.5,5.5,0,0,0,1.27,3.32,3.92,3.92,0,0,0,3.16,1.37,5.44,5.44,0,0,0,2.69-.6,4.7,4.7,0,0,0,1.71-1.69l1.46,1a6.28,6.28,0,0,1-2.35,2.2,7.09,7.09,0,0,1-3.45.8,6.23,6.23,0,0,1-3.27-.86,6,6,0,0,1-2.24-2.41,7.32,7.32,0,0,1-.81-3.48,7.43,7.43,0,0,1,.79-3.48,6,6,0,0,1,2.22-2.41,6.11,6.11,0,0,1,3.22-.86A5.79,5.79,0,0,1,436.7,262.33Zm1.11,4.77a4.81,4.81,0,0,0-1.32-3,4,4,0,0,0-2.87-1,3.91,3.91,0,0,0-2.87,1.12,5.14,5.14,0,0,0-1.42,2.82Z"/><path class="cls-1" d="M450,261.92h1.86l-4.59,12.64h-2l-4.56-12.64h1.92l3.72,10.67Z"/><path class="cls-1" d="M455,259a1.46,1.46,0,0,1-.42-1,1.37,1.37,0,0,1,.42-1,1.4,1.4,0,0,1,1-.42,1.42,1.42,0,0,1,1,.42,1.37,1.37,0,0,1,.43,1,1.47,1.47,0,0,1-1.45,1.45A1.37,1.37,0,0,1,455,259Zm.12,15.53V261.92h1.83v12.64Z"/><path class="cls-1" d="M463.54,274.13a6.06,6.06,0,0,1-2.24-2.41,7.92,7.92,0,0,1,0-7,6,6,0,0,1,2.22-2.41,6.23,6.23,0,0,1,3.24-.86,5.31,5.31,0,0,1,2.69.66,7.33,7.33,0,0,1,2.09,1.88l-1.35,1.05a4,4,0,0,0-3.43-1.92,4.18,4.18,0,0,0-2.28.65,4.43,4.43,0,0,0-1.58,1.81,6.31,6.31,0,0,0,0,5.24,4.43,4.43,0,0,0,1.58,1.81,4.17,4.17,0,0,0,2.28.64,4.5,4.5,0,0,0,2.14-.44,4.85,4.85,0,0,0,1.51-1.31l1.43,1a6.67,6.67,0,0,1-2.2,1.77,6.51,6.51,0,0,1-6.09-.2Z"/><path class="cls-1" d="M482.74,262.33a5.93,5.93,0,0,1,2.16,2.28,6.67,6.67,0,0,1,.78,3.22,7.68,7.68,0,0,1,0,.79H475.26a5.44,5.44,0,0,0,1.27,3.32,3.89,3.89,0,0,0,3.16,1.37,5.4,5.4,0,0,0,2.68-.6,4.8,4.8,0,0,0,1.72-1.69l1.45,1a6.26,6.26,0,0,1-2.34,2.2,7.16,7.16,0,0,1-3.46.8,6.28,6.28,0,0,1-3.27-.86,6.06,6.06,0,0,1-2.24-2.41,7.32,7.32,0,0,1-.81-3.48,7.44,7.44,0,0,1,.8-3.48,6,6,0,0,1,2.21-2.41,6.14,6.14,0,0,1,3.23-.86A5.82,5.82,0,0,1,482.74,262.33Zm1.1,4.77a4.81,4.81,0,0,0-1.32-3,4,4,0,0,0-2.86-1,3.94,3.94,0,0,0-2.88,1.12,5.13,5.13,0,0,0-1.41,2.82Z"/><path class="cls-1" d="M506.14,255v19.6h-1.83v-1.87a5.54,5.54,0,0,1-1.92,1.69,5.09,5.09,0,0,1-2.48.61,6.18,6.18,0,0,1-3.24-.86,6,6,0,0,1-2.24-2.41,8,8,0,0,1,0-7,6,6,0,0,1,2.22-2.39,6.11,6.11,0,0,1,3.22-.86,5.29,5.29,0,0,1,2.53.61,5.43,5.43,0,0,1,1.93,1.71V255Zm-4,17.71a4.36,4.36,0,0,0,1.58-1.81,6.31,6.31,0,0,0,0-5.24,4.36,4.36,0,0,0-1.58-1.81,4.19,4.19,0,0,0-2.31-.65,4.07,4.07,0,0,0-2.26.65,4.38,4.38,0,0,0-1.57,1.8,5.75,5.75,0,0,0-.57,2.6,6,6,0,0,0,.57,2.65,4.41,4.41,0,0,0,1.57,1.81,4.06,4.06,0,0,0,2.26.64A4.18,4.18,0,0,0,502.16,272.67Z"/><path class="cls-1" d="M518.08,262.33a5.78,5.78,0,0,1,2.16,2.28,6.67,6.67,0,0,1,.78,3.22,7.68,7.68,0,0,1,0,.79H510.6a5.44,5.44,0,0,0,1.27,3.32,3.9,3.9,0,0,0,3.16,1.37,5.4,5.4,0,0,0,2.68-.6,4.65,4.65,0,0,0,1.72-1.69l1.46,1a6.36,6.36,0,0,1-2.35,2.2,7.13,7.13,0,0,1-3.46.8,6.28,6.28,0,0,1-3.27-.86,6.06,6.06,0,0,1-2.24-2.41,7.32,7.32,0,0,1-.81-3.48,7.44,7.44,0,0,1,.8-3.48,6,6,0,0,1,2.21-2.41,6.14,6.14,0,0,1,3.23-.86A5.82,5.82,0,0,1,518.08,262.33Zm1.11,4.77a4.81,4.81,0,0,0-1.33-3,4,4,0,0,0-2.86-1,3.94,3.94,0,0,0-2.88,1.12,5.19,5.19,0,0,0-1.41,2.82Z"/><path class="cls-1" d="M531.36,261.92h1.87l-4.59,12.64h-2l-4.56-12.64H524l3.73,10.67Z"/><path class="cls-1" d="M543.46,262.33a5.78,5.78,0,0,1,2.16,2.28,6.67,6.67,0,0,1,.78,3.22,7.68,7.68,0,0,1,0,.79H536a5.44,5.44,0,0,0,1.27,3.32,3.9,3.9,0,0,0,3.16,1.37,5.4,5.4,0,0,0,2.68-.6,4.65,4.65,0,0,0,1.72-1.69l1.46,1a6.36,6.36,0,0,1-2.35,2.2,7.13,7.13,0,0,1-3.46.8,6.28,6.28,0,0,1-3.27-.86,6.06,6.06,0,0,1-2.24-2.41,7.32,7.32,0,0,1-.81-3.48,7.44,7.44,0,0,1,.8-3.48,6,6,0,0,1,2.21-2.41,6.14,6.14,0,0,1,3.23-.86A5.82,5.82,0,0,1,543.46,262.33Zm1.11,4.77a4.81,4.81,0,0,0-1.33-3,4,4,0,0,0-2.86-1,3.94,3.94,0,0,0-2.88,1.12,5.19,5.19,0,0,0-1.41,2.82Z"/><path class="cls-1" d="M549.24,274.56V255h1.83v19.6Z"/><path class="cls-1" d="M556.85,274.13a6.09,6.09,0,0,1-2.24-2.42,7.46,7.46,0,0,1-.81-3.5,7.31,7.31,0,0,1,.8-3.47,6,6,0,0,1,2.21-2.39,6.12,6.12,0,0,1,3.23-.86,6.23,6.23,0,0,1,3.24.86,6.06,6.06,0,0,1,2.24,2.41,7.32,7.32,0,0,1,.81,3.48,7.44,7.44,0,0,1-.8,3.48,6,6,0,0,1-2.21,2.41,6.51,6.51,0,0,1-6.47,0Zm5.49-1.46a4.29,4.29,0,0,0,1.58-1.81,6.31,6.31,0,0,0,0-5.24,4.29,4.29,0,0,0-1.58-1.81,4.18,4.18,0,0,0-2.3-.65,4.08,4.08,0,0,0-2.27.65,4.38,4.38,0,0,0-1.57,1.8,5.74,5.74,0,0,0-.56,2.6,6,6,0,0,0,.56,2.65,4.41,4.41,0,0,0,1.57,1.81,4.07,4.07,0,0,0,2.27.64A4.17,4.17,0,0,0,562.34,272.67Z"/><path class="cls-1" d="M578.42,262.35a6,6,0,0,1,2.24,2.41,8,8,0,0,1,0,7,6,6,0,0,1-2.22,2.39,6.11,6.11,0,0,1-3.22.86,5.29,5.29,0,0,1-2.53-.61,5.43,5.43,0,0,1-1.93-1.71V280H569v-18h1.83v1.86a5.51,5.51,0,0,1,1.92-1.68,5.09,5.09,0,0,1,2.48-.61A6.18,6.18,0,0,1,578.42,262.35Zm-.92,10.32a4.38,4.38,0,0,0,1.57-1.8,5.75,5.75,0,0,0,.57-2.6,5.93,5.93,0,0,0-.57-2.65,4.41,4.41,0,0,0-1.57-1.81,4.07,4.07,0,0,0-2.26-.65,4.19,4.19,0,0,0-2.31.65,4.36,4.36,0,0,0-1.58,1.81,6.31,6.31,0,0,0,0,5.24,4.36,4.36,0,0,0,1.58,1.81,4.18,4.18,0,0,0,2.31.64A4.06,4.06,0,0,0,577.5,272.67Z"/><path class="cls-1" d="M592.6,262.33a5.78,5.78,0,0,1,2.16,2.28,6.67,6.67,0,0,1,.78,3.22,7.68,7.68,0,0,1,0,.79H585.12a5.44,5.44,0,0,0,1.27,3.32,3.89,3.89,0,0,0,3.16,1.37,5.4,5.4,0,0,0,2.68-.6A4.72,4.72,0,0,0,594,271l1.46,1a6.36,6.36,0,0,1-2.35,2.2,7.16,7.16,0,0,1-3.46.8,6.28,6.28,0,0,1-3.27-.86,6.06,6.06,0,0,1-2.24-2.41,7.32,7.32,0,0,1-.81-3.48,7.44,7.44,0,0,1,.8-3.48,6,6,0,0,1,2.21-2.41,6.14,6.14,0,0,1,3.23-.86A5.82,5.82,0,0,1,592.6,262.33Zm1.1,4.77a4.81,4.81,0,0,0-1.32-3,4,4,0,0,0-2.86-1,3.94,3.94,0,0,0-2.88,1.12,5.13,5.13,0,0,0-1.41,2.82Z"/><path class="cls-1" d="M610,255v19.6h-1.84v-1.87a5.54,5.54,0,0,1-1.92,1.69,5.09,5.09,0,0,1-2.48.61,6.18,6.18,0,0,1-3.24-.86,6,6,0,0,1-2.24-2.41,8,8,0,0,1,0-7,6,6,0,0,1,2.22-2.39,6.11,6.11,0,0,1,3.22-.86,5.29,5.29,0,0,1,2.53.61,5.43,5.43,0,0,1,1.93,1.71V255Zm-4,17.71a4.36,4.36,0,0,0,1.58-1.81,6.31,6.31,0,0,0,0-5.24,4.36,4.36,0,0,0-1.58-1.81,4.19,4.19,0,0,0-2.31-.65,4.07,4.07,0,0,0-2.26.65,4.38,4.38,0,0,0-1.57,1.8,5.75,5.75,0,0,0-.57,2.6,6,6,0,0,0,.57,2.65,4.41,4.41,0,0,0,1.57,1.81,4.06,4.06,0,0,0,2.26.64A4.18,4.18,0,0,0,606,272.67Z"/><path class="cls-1" d="M627.94,262.33a5.78,5.78,0,0,1,2.16,2.28,6.67,6.67,0,0,1,.78,3.22c0,.35,0,.61,0,.79h-10.4a5.5,5.5,0,0,0,1.27,3.32,3.9,3.9,0,0,0,3.16,1.37,5.46,5.46,0,0,0,2.69-.6,4.7,4.7,0,0,0,1.71-1.69l1.46,1a6.36,6.36,0,0,1-2.35,2.2,7.13,7.13,0,0,1-3.46.8,6.22,6.22,0,0,1-3.26-.86,6,6,0,0,1-2.24-2.41,7.33,7.33,0,0,1-.82-3.48,7.44,7.44,0,0,1,.8-3.48,6,6,0,0,1,2.22-2.41,6.11,6.11,0,0,1,3.22-.86A5.79,5.79,0,0,1,627.94,262.33Zm1.11,4.77a4.76,4.76,0,0,0-1.33-3,4,4,0,0,0-2.86-1,3.9,3.9,0,0,0-2.87,1.12,5.14,5.14,0,0,0-1.42,2.82Z"/><path class="cls-1" d="M642.68,274.56h-2.1l-3.3-5.27L634,274.56h-2l4-6.48-3.81-6.16h2.08l3,5,3.21-5h2l-4,6.13Z"/><path class="cls-1" d="M646.65,274.13a6.06,6.06,0,0,1-2.24-2.41,7.32,7.32,0,0,1-.81-3.48,7.44,7.44,0,0,1,.8-3.48,6,6,0,0,1,2.22-2.41,6.23,6.23,0,0,1,3.24-.86,5.28,5.28,0,0,1,2.69.66,7.2,7.2,0,0,1,2.09,1.88l-1.35,1.05a4,4,0,0,0-3.43-1.92,4.18,4.18,0,0,0-2.28.65,4.43,4.43,0,0,0-1.58,1.81,6.41,6.41,0,0,0,0,5.24,4.43,4.43,0,0,0,1.58,1.81,4.17,4.17,0,0,0,2.28.64,4.5,4.5,0,0,0,2.14-.44,4.85,4.85,0,0,0,1.51-1.31l1.43,1a6.57,6.57,0,0,1-2.2,1.77,6.16,6.16,0,0,1-2.82.66A6.23,6.23,0,0,1,646.65,274.13Z"/><path class="cls-1" d="M657.45,274.56V255h1.84v19.6Z"/><path class="cls-1" d="M673.89,261.92v12.64h-1.83v-2.11a4.9,4.9,0,0,1-1.72,1.88,4.58,4.58,0,0,1-2.47.66,5.55,5.55,0,0,1-2.44-.54,4.21,4.21,0,0,1-1.78-1.59,4.61,4.61,0,0,1-.66-2.49v-8.45h1.83v7.64q0,3.75,3.35,3.75a3.33,3.33,0,0,0,2.92-1.37,6.36,6.36,0,0,0,1-3.7v-6.32Z"/><path class="cls-1" d="M678.52,274.21A5.28,5.28,0,0,1,676.4,272l1.65-.81c.67,1.42,2,2.13,3.92,2.13a4.74,4.74,0,0,0,2.32-.51,1.7,1.7,0,0,0,.92-1.59,1.9,1.9,0,0,0-.75-1.65,5.44,5.44,0,0,0-2.6-.7,6.59,6.59,0,0,1-3.71-1.16,3.12,3.12,0,0,1-1.13-2.51,3.26,3.26,0,0,1,1.27-2.73,5.61,5.61,0,0,1,3.49-1q3.75,0,5.1,3l-1.65.81a3.2,3.2,0,0,0-1.33-1.59,4.37,4.37,0,0,0-2.26-.52,3.68,3.68,0,0,0-2.14.52,1.65,1.65,0,0,0-.75,1.45,1.7,1.7,0,0,0,.8,1.45,5.78,5.78,0,0,0,2.74.71,6.63,6.63,0,0,1,3.58,1.18A3.1,3.1,0,0,1,687,271a3.36,3.36,0,0,1-.73,2.18,4.46,4.46,0,0,1-1.94,1.36,7.25,7.25,0,0,1-2.62.46A6.52,6.52,0,0,1,678.52,274.21Z"/><path class="cls-1" d="M690.7,259a1.46,1.46,0,0,1-.42-1,1.37,1.37,0,0,1,.42-1,1.46,1.46,0,1,1,2.07,2.06,1.46,1.46,0,0,1-2.07,0Zm.12,15.53V261.92h1.84v12.64Z"/><path class="cls-1" d="M705.24,261.92h1.86l-4.59,12.64h-2l-4.57-12.64h1.92l3.73,10.67Z"/><path class="cls-1" d="M717.33,262.33a5.88,5.88,0,0,1,2.17,2.28,6.67,6.67,0,0,1,.78,3.22,7.68,7.68,0,0,1,0,.79H709.86a5.49,5.49,0,0,0,1.26,3.32,3.92,3.92,0,0,0,3.16,1.37,5.44,5.44,0,0,0,2.69-.6,4.8,4.8,0,0,0,1.72-1.69l1.45,1a6.21,6.21,0,0,1-2.35,2.2,7.09,7.09,0,0,1-3.45.8,6.23,6.23,0,0,1-3.27-.86,6.06,6.06,0,0,1-2.24-2.41,7.32,7.32,0,0,1-.81-3.48,7.44,7.44,0,0,1,.8-3.48,6,6,0,0,1,2.21-2.41,6.14,6.14,0,0,1,3.23-.86A5.76,5.76,0,0,1,717.33,262.33Zm1.11,4.77a4.81,4.81,0,0,0-1.32-3,4,4,0,0,0-2.86-1,3.94,3.94,0,0,0-2.88,1.12A5.14,5.14,0,0,0,710,267.1Z"/><path class="cls-1" d="M723.11,274.56V255H725v19.6Z"/><path class="cls-1" d="M737.15,261.92h1.73l-6.83,18h-1.84l2-5.16L727,261.92h1.91l4.19,10.48Z"/><path class="cls-1" d="M387.82,294.75a6.09,6.09,0,0,1,2.22,2.39,8,8,0,0,1,0,7,6,6,0,0,1-2.24,2.4,6.09,6.09,0,0,1-3.24.87,5.09,5.09,0,0,1-2.48-.61,5.54,5.54,0,0,1-1.92-1.69V307H378.3V287.35h1.84v8.86a5.35,5.35,0,0,1,1.93-1.71,5.25,5.25,0,0,1,2.52-.61A6.12,6.12,0,0,1,387.82,294.75Zm-1,10.32a4.41,4.41,0,0,0,1.57-1.81,6,6,0,0,0,.57-2.65,5.75,5.75,0,0,0-.57-2.6,4.38,4.38,0,0,0-1.57-1.8,4.08,4.08,0,0,0-2.27-.65,4.18,4.18,0,0,0-2.3.65,4.29,4.29,0,0,0-1.58,1.81,6.31,6.31,0,0,0,0,5.24,4.29,4.29,0,0,0,1.58,1.81,4.18,4.18,0,0,0,2.3.65A4.08,4.08,0,0,0,386.86,305.07Z"/><path class="cls-1" d="M402.12,294.32h1.73l-6.84,18h-1.83l2-5.16L392,294.32h1.92l4.18,10.48Z"/><path class="cls-1" d="M426.52,301.84a9.26,9.26,0,0,1-1.83,3.17l1.59,1.57-1.19,1.16-1.64-1.65a7.41,7.41,0,0,1-8.28.07,8.26,8.26,0,0,1-2.81-3.41,12.76,12.76,0,0,1,0-9.95,8.2,8.2,0,0,1,2.81-3.43,7.42,7.42,0,0,1,8.18,0,8.12,8.12,0,0,1,2.81,3.43,11.72,11.72,0,0,1,1,5A11.93,11.93,0,0,1,426.52,301.84Zm-4.5,2.88-2.27-2.27,1.19-1.19,2.34,2.32a7.56,7.56,0,0,0,1.35-2.55,10.3,10.3,0,0,0,.49-3.25,10.13,10.13,0,0,0-.76-4,6.63,6.63,0,0,0-2.09-2.78,5,5,0,0,0-6,0,6.63,6.63,0,0,0-2.09,2.78,11,11,0,0,0,0,8,6.47,6.47,0,0,0,2.09,2.75,4.94,4.94,0,0,0,3,1A5.05,5.05,0,0,0,422,304.72Z"/><path class="cls-1" d="M440.75,294.32V307h-1.83v-2.11a4.83,4.83,0,0,1-1.72,1.88,4.58,4.58,0,0,1-2.47.66,5.55,5.55,0,0,1-2.44-.54,4.21,4.21,0,0,1-1.78-1.59,4.61,4.61,0,0,1-.66-2.49v-8.45h1.83V302c0,2.5,1.12,3.76,3.35,3.76a3.34,3.34,0,0,0,2.92-1.38,6.36,6.36,0,0,0,1-3.7v-6.32Z"/><path class="cls-1" d="M445,291.43a1.46,1.46,0,0,1-.42-1.05,1.37,1.37,0,0,1,.42-1,1.49,1.49,0,0,1,2.07,0,1.37,1.37,0,0,1,.43,1,1.46,1.46,0,0,1-2.5,1Zm.12,15.53V294.32H447V307Z"/><path class="cls-1" d="M461.3,307h-2.11l-3.29-5.27L452.61,307h-2.06l4.05-6.48-3.8-6.16h2.08l3.05,5,3.21-5h2l-4,6.13Z"/><path class="cls-1" d="M473.77,307h-2.1l-3.3-5.27L465.08,307H463l4.05-6.48-3.81-6.16h2.08l3,5,3.21-5h2l-4,6.13Z"/><path class="cls-1" d="M483,307V296h-2.16v-1.68H483v-4.18h1.84v4.18h2.92V296h-2.92v11Z"/><path class="cls-1" d="M492.05,306.52a6,6,0,0,1-2.24-2.41,7.95,7.95,0,0,1,0-7,6.07,6.07,0,0,1,2.21-2.39,6.14,6.14,0,0,1,3.23-.86,6.23,6.23,0,0,1,3.24.86,6.06,6.06,0,0,1,2.24,2.41,7.32,7.32,0,0,1,.81,3.48,7.44,7.44,0,0,1-.8,3.48,5.9,5.9,0,0,1-2.21,2.4,6.06,6.06,0,0,1-3.23.87A6.14,6.14,0,0,1,492.05,306.52Zm5.5-1.45a4.43,4.43,0,0,0,1.58-1.81,6.41,6.41,0,0,0,0-5.24,4.43,4.43,0,0,0-1.58-1.81,4.23,4.23,0,0,0-2.31-.65,4.1,4.1,0,0,0-2.27.65,4.38,4.38,0,0,0-1.57,1.8,5.88,5.88,0,0,0-.56,2.6,6.1,6.1,0,0,0,.56,2.65,4.41,4.41,0,0,0,1.57,1.81,4.1,4.1,0,0,0,2.27.65A4.23,4.23,0,0,0,497.55,305.07Z"/><path class="cls-1" d="M510.28,307V287.35h1.83V307Z"/><path class="cls-1" d="M517.89,306.52a6,6,0,0,1-2.24-2.41,7.46,7.46,0,0,1-.81-3.5,7.31,7.31,0,0,1,.8-3.47,6,6,0,0,1,2.21-2.39,6.12,6.12,0,0,1,3.23-.86,6.23,6.23,0,0,1,3.24.86,6.06,6.06,0,0,1,2.24,2.41,7.32,7.32,0,0,1,.81,3.48,7.44,7.44,0,0,1-.8,3.48,5.9,5.9,0,0,1-2.21,2.4,6.45,6.45,0,0,1-6.47,0Zm5.49-1.45a4.29,4.29,0,0,0,1.58-1.81,6.31,6.31,0,0,0,0-5.24,4.29,4.29,0,0,0-1.58-1.81,4.18,4.18,0,0,0-2.3-.65,4.08,4.08,0,0,0-2.27.65,4.38,4.38,0,0,0-1.57,1.8,5.74,5.74,0,0,0-.56,2.6,6,6,0,0,0,.56,2.65,4.41,4.41,0,0,0,1.57,1.81,4.08,4.08,0,0,0,2.27.65A4.18,4.18,0,0,0,523.38,305.07Z"/><path class="cls-1" d="M532.17,306.52a6,6,0,0,1-2.24-2.4,7.32,7.32,0,0,1-.81-3.48,7.44,7.44,0,0,1,.8-3.48,5.9,5.9,0,0,1,2.23-2.41,6.18,6.18,0,0,1,3.24-.86,5.27,5.27,0,0,1,2.68.66,7.23,7.23,0,0,1,2.1,1.88l-1.35,1.05a4,4,0,0,0-3.43-1.92,4.19,4.19,0,0,0-2.29.65,4.34,4.34,0,0,0-1.57,1.81,6.31,6.31,0,0,0,0,5.24,4.34,4.34,0,0,0,1.57,1.81,4.19,4.19,0,0,0,2.29.65,4.48,4.48,0,0,0,2.13-.45A4.74,4.74,0,0,0,539,304l1.43,1a6.57,6.57,0,0,1-2.2,1.77,6.47,6.47,0,0,1-6.09-.21Z"/><path class="cls-1" d="M554.58,294.32V307h-1.83v-1.87a5.54,5.54,0,0,1-1.92,1.69,5.12,5.12,0,0,1-2.48.61,6.09,6.09,0,0,1-3.24-.87,5.9,5.9,0,0,1-2.24-2.4,8,8,0,0,1,0-7,6,6,0,0,1,2.22-2.39,6.11,6.11,0,0,1,3.22-.86,5.29,5.29,0,0,1,2.53.61,5.43,5.43,0,0,1,1.93,1.71v-1.89Zm-4,10.75a4.36,4.36,0,0,0,1.58-1.81,6.31,6.31,0,0,0,0-5.24,4.36,4.36,0,0,0-1.58-1.81,4.19,4.19,0,0,0-2.31-.65,4.12,4.12,0,0,0-2.27.65,4.43,4.43,0,0,0-1.56,1.8,5.75,5.75,0,0,0-.57,2.6,6,6,0,0,0,.57,2.65,4.46,4.46,0,0,0,1.56,1.81,4.12,4.12,0,0,0,2.27.65A4.19,4.19,0,0,0,550.6,305.07Z"/><path class="cls-1" d="M558.66,307V296H556.5v-1.68h2.16v-4.18h1.84v4.18h2.91V296H560.5v11Z"/><path class="cls-1" d="M573.94,294.73A5.85,5.85,0,0,1,576.1,297a6.67,6.67,0,0,1,.78,3.22c0,.35,0,.61,0,.79h-10.4a5.5,5.5,0,0,0,1.27,3.32,3.92,3.92,0,0,0,3.16,1.38,5.43,5.43,0,0,0,2.69-.61,4.7,4.7,0,0,0,1.71-1.69l1.46,1a6.28,6.28,0,0,1-2.35,2.2,7.1,7.1,0,0,1-3.46.8,6.14,6.14,0,0,1-3.26-.87,5.9,5.9,0,0,1-2.24-2.4,7.32,7.32,0,0,1-.81-3.48,7.43,7.43,0,0,1,.79-3.48,6,6,0,0,1,2.22-2.41,6.11,6.11,0,0,1,3.22-.86A5.79,5.79,0,0,1,573.94,294.73Zm1.11,4.78a4.81,4.81,0,0,0-1.32-3,4,4,0,0,0-2.87-1,3.9,3.9,0,0,0-2.87,1.12,5.14,5.14,0,0,0-1.42,2.83Z"/><path class="cls-1" d="M597.35,294.32V307h-1.84v-1.87a5.6,5.6,0,0,1-1.91,1.69,5.16,5.16,0,0,1-2.49.61,6.14,6.14,0,0,1-3.24-.87,6,6,0,0,1-2.24-2.4,8,8,0,0,1,0-7,6.07,6.07,0,0,1,2.21-2.39,6.14,6.14,0,0,1,3.23-.86,5.22,5.22,0,0,1,2.52.61,5.35,5.35,0,0,1,1.93,1.71v-1.89Zm-4,10.75a4.43,4.43,0,0,0,1.58-1.81,6.41,6.41,0,0,0,0-5.24,4.43,4.43,0,0,0-1.58-1.81,4.23,4.23,0,0,0-2.31-.65,4.1,4.1,0,0,0-2.27.65,4.29,4.29,0,0,0-1.56,1.8,5.75,5.75,0,0,0-.57,2.6,6,6,0,0,0,.57,2.65,4.32,4.32,0,0,0,1.56,1.81,4.1,4.1,0,0,0,2.27.65A4.23,4.23,0,0,0,593.37,305.07Z"/><path class="cls-1" d="M609.22,294.43A4.27,4.27,0,0,1,611,296a4.58,4.58,0,0,1,.66,2.49V307h-1.84v-7.64q0-3.76-3.34-3.76a3.34,3.34,0,0,0-2.92,1.38,6.29,6.29,0,0,0-1,3.7V307h-1.84V294.32h1.84v2.11a4.8,4.8,0,0,1,1.71-1.88,4.61,4.61,0,0,1,2.47-.66A5.6,5.6,0,0,1,609.22,294.43Z"/><path class="cls-1" d="M627,287.35V307h-1.84v-1.87a5.54,5.54,0,0,1-1.92,1.69,5.09,5.09,0,0,1-2.48.61,6.09,6.09,0,0,1-3.24-.87,5.9,5.9,0,0,1-2.24-2.4,8,8,0,0,1,0-7,6,6,0,0,1,2.22-2.39,6.11,6.11,0,0,1,3.22-.86,5.29,5.29,0,0,1,2.53.61,5.43,5.43,0,0,1,1.93,1.71v-8.86Zm-4,17.72a4.36,4.36,0,0,0,1.58-1.81,6.31,6.31,0,0,0,0-5.24,4.36,4.36,0,0,0-1.58-1.81,4.19,4.19,0,0,0-2.31-.65,4.07,4.07,0,0,0-2.26.65,4.38,4.38,0,0,0-1.57,1.8,5.75,5.75,0,0,0-.57,2.6,6,6,0,0,0,.57,2.65,4.41,4.41,0,0,0,1.57,1.81,4.07,4.07,0,0,0,2.26.65A4.19,4.19,0,0,0,623,305.07Z"/><path class="cls-1" d="M637.09,307V296h-2.16v-1.68h2.16v-4.18h1.84v4.18h2.92V296h-2.92v11Z"/><path class="cls-1" d="M651.29,294.08v1.67a2.82,2.82,0,0,0-1.24-.27,3.93,3.93,0,0,0-2.16.65,4.58,4.58,0,0,0-1.6,1.88,6.39,6.39,0,0,0-.61,2.9v6h-1.84V294.32h1.84v2.54a5.91,5.91,0,0,1,1.85-2.19,4.32,4.32,0,0,1,2.52-.78A3.92,3.92,0,0,1,651.29,294.08Z"/><path class="cls-1" d="M664.74,294.32V307H662.9v-1.87a5.6,5.6,0,0,1-1.91,1.69,5.16,5.16,0,0,1-2.49.61,6.14,6.14,0,0,1-3.24-.87,6,6,0,0,1-2.24-2.4,8,8,0,0,1,0-7,6.07,6.07,0,0,1,2.21-2.39,6.14,6.14,0,0,1,3.23-.86,5.22,5.22,0,0,1,2.52.61,5.35,5.35,0,0,1,1.93,1.71v-1.89Zm-4,10.75a4.43,4.43,0,0,0,1.58-1.81,6.41,6.41,0,0,0,0-5.24,4.43,4.43,0,0,0-1.58-1.81,4.23,4.23,0,0,0-2.31-.65,4.1,4.1,0,0,0-2.27.65,4.36,4.36,0,0,0-1.56,1.8,5.75,5.75,0,0,0-.57,2.6,6,6,0,0,0,.57,2.65,4.39,4.39,0,0,0,1.56,1.81,4.1,4.1,0,0,0,2.27.65A4.23,4.23,0,0,0,660.76,305.07Z"/><path class="cls-1" d="M670.36,306.52a5.9,5.9,0,0,1-2.24-2.4,7.32,7.32,0,0,1-.81-3.48,7.43,7.43,0,0,1,.79-3.48,5.9,5.9,0,0,1,2.23-2.41,6.18,6.18,0,0,1,3.24-.86,5.31,5.31,0,0,1,2.69.66,7.33,7.33,0,0,1,2.09,1.88L677,297.48a4,4,0,0,0-3.43-1.92,4.13,4.13,0,0,0-2.28.65,4.36,4.36,0,0,0-1.58,1.81,6.31,6.31,0,0,0,0,5.24,4.36,4.36,0,0,0,1.58,1.81,4.13,4.13,0,0,0,2.28.65,4.48,4.48,0,0,0,2.13-.45,4.74,4.74,0,0,0,1.51-1.31l1.44,1a6.61,6.61,0,0,1-2.21,1.77,6.45,6.45,0,0,1-6.08-.21Z"/><path class="cls-1" d="M688.82,307l-4.42-6.51-1.54,1.49v5H681V287.35h1.84v12.26l5.53-5.29h2.38l-5.1,4.91,5.21,7.73Z"/><path class="cls-1" d="M710.56,294.32V307h-1.84v-1.87a5.6,5.6,0,0,1-1.91,1.69,5.16,5.16,0,0,1-2.49.61,6.14,6.14,0,0,1-3.24-.87,6,6,0,0,1-2.24-2.4,8,8,0,0,1,0-7,6.07,6.07,0,0,1,2.21-2.39,6.14,6.14,0,0,1,3.23-.86,5.22,5.22,0,0,1,2.52.61,5.35,5.35,0,0,1,1.93,1.71v-1.89Zm-4,10.75a4.43,4.43,0,0,0,1.58-1.81,6.41,6.41,0,0,0,0-5.24,4.43,4.43,0,0,0-1.58-1.81,4.23,4.23,0,0,0-2.31-.65,4.1,4.1,0,0,0-2.27.65,4.38,4.38,0,0,0-1.57,1.8,5.88,5.88,0,0,0-.56,2.6,6.1,6.1,0,0,0,.56,2.65,4.41,4.41,0,0,0,1.57,1.81,4.1,4.1,0,0,0,2.27.65A4.23,4.23,0,0,0,706.58,305.07Z"/><path class="cls-1" d="M722.42,294.43a4.24,4.24,0,0,1,1.79,1.59,4.58,4.58,0,0,1,.66,2.49V307H723v-7.64c0-2.51-1.11-3.76-3.35-3.76a3.33,3.33,0,0,0-2.91,1.38,6.29,6.29,0,0,0-1,3.7V307H714V294.32h1.84v2.11a4.8,4.8,0,0,1,1.71-1.88,4.58,4.58,0,0,1,2.47-.66A5.52,5.52,0,0,1,722.42,294.43Z"/><path class="cls-1" d="M737.15,294.32h1.73l-6.83,18h-1.84l2-5.16L727,294.32h1.91l4.19,10.48Z"/><path class="cls-1" d="M564.41,326.72h1.86l-4.59,12.64h-2l-4.56-12.64H557l3.73,10.67Z"/><path class="cls-1" d="M576.51,327.13a5.93,5.93,0,0,1,2.16,2.28,6.67,6.67,0,0,1,.78,3.22,7.68,7.68,0,0,1,0,.79H569a5.44,5.44,0,0,0,1.27,3.32,3.89,3.89,0,0,0,3.16,1.37,5.4,5.4,0,0,0,2.68-.6,4.8,4.8,0,0,0,1.72-1.69l1.45,1A6.26,6.26,0,0,1,577,339a7.16,7.16,0,0,1-3.46.8,6.28,6.28,0,0,1-3.27-.86,6.06,6.06,0,0,1-2.24-2.41,7.32,7.32,0,0,1-.81-3.48,7.44,7.44,0,0,1,.8-3.48,6,6,0,0,1,2.21-2.41,6.14,6.14,0,0,1,3.23-.86A5.82,5.82,0,0,1,576.51,327.13Zm1.1,4.77a4.81,4.81,0,0,0-1.32-2.95,4,4,0,0,0-2.86-1,3.94,3.94,0,0,0-2.88,1.12,5.13,5.13,0,0,0-1.41,2.82Z"/><path class="cls-1" d="M590.61,326.83a4.3,4.3,0,0,1,1.79,1.59,4.58,4.58,0,0,1,.66,2.49v8.45h-1.84v-7.64q0-3.77-3.35-3.76a3.33,3.33,0,0,0-2.91,1.38,6.29,6.29,0,0,0-1,3.7v6.32h-1.84v-19.6H584v9.07A4.8,4.8,0,0,1,585.7,327a4.58,4.58,0,0,1,2.47-.66A5.52,5.52,0,0,1,590.61,326.83Z"/><path class="cls-1" d="M597.44,323.83a1.49,1.49,0,0,1-.41-1.05,1.4,1.4,0,0,1,.41-1,1.49,1.49,0,0,1,2.07,0,1.37,1.37,0,0,1,.43,1,1.46,1.46,0,0,1-2.5,1Zm.13,15.53V326.72h1.83v12.64Z"/><path class="cls-1" d="M606,338.93a6,6,0,0,1-2.24-2.41A7.32,7.32,0,0,1,603,333a7.43,7.43,0,0,1,.79-3.48,6,6,0,0,1,2.23-2.41,6.18,6.18,0,0,1,3.24-.86,5.31,5.31,0,0,1,2.69.66,7.33,7.33,0,0,1,2.09,1.88l-1.35,1.05a4,4,0,0,0-3.43-1.92,4.13,4.13,0,0,0-2.28.65,4.36,4.36,0,0,0-1.58,1.81,6.31,6.31,0,0,0,0,5.24,4.36,4.36,0,0,0,1.58,1.81,4.13,4.13,0,0,0,2.28.64,4.49,4.49,0,0,0,2.13-.44,4.74,4.74,0,0,0,1.51-1.31l1.44,1a6.61,6.61,0,0,1-2.21,1.77,6.16,6.16,0,0,1-2.82.66A6.22,6.22,0,0,1,606,338.93Z"/><path class="cls-1" d="M616.82,339.36v-19.6h1.83v19.6Z"/><path class="cls-1" d="M630.69,327.13a5.78,5.78,0,0,1,2.16,2.28,6.56,6.56,0,0,1,.79,3.22,7.68,7.68,0,0,1,0,.79h-10.4a5.57,5.57,0,0,0,1.27,3.32,3.92,3.92,0,0,0,3.16,1.37,5.44,5.44,0,0,0,2.69-.6,4.7,4.7,0,0,0,1.71-1.69l1.46,1a6.28,6.28,0,0,1-2.35,2.2,7.09,7.09,0,0,1-3.45.8,6.23,6.23,0,0,1-3.27-.86,6.06,6.06,0,0,1-2.24-2.41,7.92,7.92,0,0,1,0-7,5.92,5.92,0,0,1,2.21-2.41,6.12,6.12,0,0,1,3.23-.86A5.76,5.76,0,0,1,630.69,327.13Zm1.11,4.77a4.81,4.81,0,0,0-1.32-2.95,4,4,0,0,0-2.86-1,3.94,3.94,0,0,0-2.88,1.12,5.14,5.14,0,0,0-1.42,2.82Z"/><path class="cls-1" d="M651.86,327.15a6,6,0,0,1,2.24,2.41,8,8,0,0,1,0,7,6,6,0,0,1-5.44,3.25,5.29,5.29,0,0,1-2.53-.61,5.43,5.43,0,0,1-1.93-1.71v7.29h-1.84v-18h1.84v1.86a5.51,5.51,0,0,1,1.92-1.68,5.09,5.09,0,0,1,2.48-.61A6.18,6.18,0,0,1,651.86,327.15Zm-.92,10.32a4.38,4.38,0,0,0,1.57-1.8,5.75,5.75,0,0,0,.57-2.6,5.93,5.93,0,0,0-.57-2.65,4.41,4.41,0,0,0-1.57-1.81,4.07,4.07,0,0,0-2.26-.65,4.19,4.19,0,0,0-2.31.65,4.36,4.36,0,0,0-1.58,1.81,6.31,6.31,0,0,0,0,5.24,4.36,4.36,0,0,0,1.58,1.81,4.18,4.18,0,0,0,2.31.64A4.06,4.06,0,0,0,650.94,337.47Z"/><path class="cls-1" d="M659.77,338.93a6.09,6.09,0,0,1-2.24-2.42,7.95,7.95,0,0,1,0-7,6.07,6.07,0,0,1,2.21-2.39,6.14,6.14,0,0,1,3.23-.86,6.23,6.23,0,0,1,3.24.86,6.06,6.06,0,0,1,2.24,2.41,7.32,7.32,0,0,1,.81,3.48,7.44,7.44,0,0,1-.8,3.48,6,6,0,0,1-2.21,2.41,6.14,6.14,0,0,1-3.23.86A6.23,6.23,0,0,1,659.77,338.93Zm5.5-1.46a4.43,4.43,0,0,0,1.58-1.81,6.41,6.41,0,0,0,0-5.24,4.43,4.43,0,0,0-1.58-1.81A4.23,4.23,0,0,0,663,328a4.1,4.1,0,0,0-2.27.65,4.38,4.38,0,0,0-1.57,1.8,5.88,5.88,0,0,0-.56,2.6,6.1,6.1,0,0,0,.56,2.65,4.41,4.41,0,0,0,1.57,1.81,4.09,4.09,0,0,0,2.27.64A4.23,4.23,0,0,0,665.27,337.47Z"/><path class="cls-1" d="M673.07,339a5.22,5.22,0,0,1-2.12-2.22l1.65-.81c.66,1.42,2,2.13,3.91,2.13a4.72,4.72,0,0,0,2.32-.51,1.68,1.68,0,0,0,.92-1.59,1.92,1.92,0,0,0-.74-1.65,5.49,5.49,0,0,0-2.61-.7,6.65,6.65,0,0,1-3.71-1.16,3.11,3.11,0,0,1-1.12-2.51,3.24,3.24,0,0,1,1.27-2.73,5.6,5.6,0,0,1,3.48-1c2.5,0,4.21,1,5.11,3l-1.65.81a3.22,3.22,0,0,0-1.34-1.59,4.31,4.31,0,0,0-2.25-.52,3.71,3.71,0,0,0-2.15.52,1.75,1.75,0,0,0,.06,2.9,5.78,5.78,0,0,0,2.74.71,6.56,6.56,0,0,1,3.57,1.18,3.08,3.08,0,0,1,1.18,2.52,3.36,3.36,0,0,1-.73,2.18,4.52,4.52,0,0,1-1.94,1.36,7.33,7.33,0,0,1-2.62.46A6.49,6.49,0,0,1,673.07,339Z"/><path class="cls-1" d="M685.25,323.83a1.46,1.46,0,0,1-.42-1.05,1.37,1.37,0,0,1,.42-1,1.4,1.4,0,0,1,1-.42,1.42,1.42,0,0,1,1,.42,1.37,1.37,0,0,1,.43,1,1.47,1.47,0,0,1-1.45,1.45A1.37,1.37,0,0,1,685.25,323.83Zm.12,15.53V326.72h1.83v12.64Z"/><path class="cls-1" d="M692.28,339.36v-11h-2.16v-1.67h2.16v-4.18h1.84v4.18H697v1.67h-2.91v11Z"/><path class="cls-1" d="M699.91,323.83a1.46,1.46,0,0,1-.42-1.05,1.37,1.37,0,0,1,.42-1,1.4,1.4,0,0,1,1-.42,1.42,1.42,0,0,1,1,.42,1.37,1.37,0,0,1,.43,1,1.47,1.47,0,0,1-1.45,1.45A1.37,1.37,0,0,1,699.91,323.83Zm.12,15.53V326.72h1.83v12.64Z"/><path class="cls-1" d="M708.53,338.93a6.09,6.09,0,0,1-2.24-2.42,7.95,7.95,0,0,1,0-7,6.07,6.07,0,0,1,2.21-2.39,6.14,6.14,0,0,1,3.23-.86,6.23,6.23,0,0,1,3.24.86,6.06,6.06,0,0,1,2.24,2.41A7.32,7.32,0,0,1,718,333a7.44,7.44,0,0,1-.8,3.48,6,6,0,0,1-2.21,2.41,6.14,6.14,0,0,1-3.23.86A6.23,6.23,0,0,1,708.53,338.93Zm5.5-1.46a4.43,4.43,0,0,0,1.58-1.81,6.41,6.41,0,0,0,0-5.24,4.43,4.43,0,0,0-1.58-1.81,4.23,4.23,0,0,0-2.31-.65,4.1,4.1,0,0,0-2.27.65,4.38,4.38,0,0,0-1.57,1.8,5.88,5.88,0,0,0-.56,2.6,6.1,6.1,0,0,0,.56,2.65,4.41,4.41,0,0,0,1.57,1.81,4.09,4.09,0,0,0,2.27.64A4.23,4.23,0,0,0,714,337.47Z"/><path class="cls-1" d="M729.07,326.83a4.27,4.27,0,0,1,1.78,1.59,4.58,4.58,0,0,1,.66,2.49v8.45h-1.84v-7.64q0-3.77-3.34-3.76a3.34,3.34,0,0,0-2.92,1.38,6.29,6.29,0,0,0-1,3.7v6.32H720.6V326.72h1.84v2.11a4.8,4.8,0,0,1,1.71-1.88,4.61,4.61,0,0,1,2.47-.66A5.6,5.6,0,0,1,729.07,326.83Z"/><path class="cls-1" d="M735.11,339.14a1.45,1.45,0,0,1-.41-1.05,1.42,1.42,0,0,1,.41-1,1.36,1.36,0,0,1,1-.43,1.47,1.47,0,0,1,1.48,1.48,1.4,1.4,0,0,1-.43,1,1.43,1.43,0,0,1-1,.43A1.36,1.36,0,0,1,735.11,339.14Z"/></svg>