<svg id="Layer_1" data-name="Layer 1" xmlns="http://www.w3.org/2000/svg" xmlns:xlink="http://www.w3.org/1999/xlink" viewBox="0 0 802.46 419.98"><defs><style>.cls-1{fill:#fff;}.cls-2{fill:url(#linear-gradient);}.cls-3{fill:#fcb616;}.cls-4{fill:none;}.cls-5{fill:#1368b1;}.cls-6{fill:#7c8283;}.cls-7{fill:#24b8e7;}.cls-8{fill:#189acc;}.cls-9{fill:#e5e5e5;}.cls-10{fill:#818484;}.cls-11{fill:#ec2c43;}.cls-12{fill:#b41f2f;}.cls-13{fill:#db2140;}.cls-14{fill:#fc5471;}.cls-15{fill:#0b8fb7;}</style><linearGradient id="linear-gradient" x1="81.36" y1="209.8" x2="366.16" y2="209.8" gradientUnits="userSpaceOnUse"><stop offset="0" stop-color="#1368b1"/><stop offset="1" stop-color="#00adee"/></linearGradient></defs><title>Items web</title><rect class="cls-1" x="269.19" y="124.92" width="359.15" height="81.73" rx="29.28" ry="29.28" transform="translate(897.54 331.57) rotate(-180)"/><path class="cls-1" d="M587.48,207.66H310.06a41.88,41.88,0,1,1,0-83.75H587.48a41.88,41.88,0,0,1,0,83.75ZM310.06,125.93a39.86,39.86,0,1,0,0,79.71H587.48a39.86,39.86,0,0,0,0-79.71Z"/><circle class="cls-1" cx="210.68" cy="209.71" r="139.45" transform="translate(-86.58 210.39) rotate(-45)"/><path class="cls-2" d="M81.36,295.94a155.43,155.43,0,0,0,129.31,69.25c85.74,0,155.49-69.75,155.49-155.48,0-83.17-65.65-151.3-147.86-155.3-3,3.86-7,9.2-11.91,15.92,1.42,0,2.85-.07,4.28-.07A139.45,139.45,0,1,1,88.93,277.77Q85.09,286.73,81.36,295.94Z"/><circle class="cls-3" cx="210.68" cy="209.71" r="114.02"/><circle class="cls-4" cx="196.15" cy="214.25" r="138.33"/><path class="cls-1" d="M423.93,273.64,422,268.48H414.4l-1.7,5.16h-2l6.53-18.41h1.89l6.72,18.41ZM415,266.81h6.4l-3.29-8.94Z"/><path class="cls-1" d="M450.23,261.8a4.76,4.76,0,0,1,1.16,3.39v8.45h-1.84V266a4.39,4.39,0,0,0-.75-2.87,2.47,2.47,0,0,0-2-.88,2.67,2.67,0,0,0-2.31,1.15,5.94,5.94,0,0,0-1,3.11v7.13h-1.84V266a4.39,4.39,0,0,0-.75-2.87,2.47,2.47,0,0,0-2-.88,2.7,2.7,0,0,0-2.47,1.37,7.19,7.19,0,0,0-.83,3.7v6.32h-1.83V261h1.83v2a4.78,4.78,0,0,1,1.58-1.79,4.23,4.23,0,0,1,4.61.13,3.86,3.86,0,0,1,1.43,2.12,5,5,0,0,1,1.62-2.11,3.9,3.9,0,0,1,2.37-.76A3.84,3.84,0,0,1,450.23,261.8Z"/><path class="cls-1" d="M466.4,261v12.63h-1.83v-1.86a5.74,5.74,0,0,1-1.92,1.69,5.22,5.22,0,0,1-2.48.6,6,6,0,0,1-5.49-3.26,7.45,7.45,0,0,1-.81-3.51,7.37,7.37,0,0,1,.8-3.47,5.89,5.89,0,0,1,2.22-2.39,6,6,0,0,1,3.22-.87,5.4,5.4,0,0,1,2.53.61,5.65,5.65,0,0,1,1.93,1.72V261Zm-4,10.74a4.3,4.3,0,0,0,1.58-1.81,5.83,5.83,0,0,0,.57-2.62,5.89,5.89,0,0,0-.57-2.62,4.33,4.33,0,0,0-1.58-1.8,4.11,4.11,0,0,0-2.31-.65,4,4,0,0,0-2.27.65,4.47,4.47,0,0,0-1.56,1.79,5.79,5.79,0,0,0-.57,2.61,5.89,5.89,0,0,0,.57,2.64,4.4,4.4,0,0,0,1.56,1.81,4.12,4.12,0,0,0,2.27.65A4.19,4.19,0,0,0,462.42,271.75Z"/><path class="cls-1" d="M479.31,261.44a6,6,0,0,1,2.24,2.4,8,8,0,0,1,0,7,5.92,5.92,0,0,1-5.44,3.25,5.33,5.33,0,0,1-2.52-.6,5.48,5.48,0,0,1-1.93-1.72V279h-1.84V261h1.84v1.86a5.71,5.71,0,0,1,1.91-1.69,5.27,5.27,0,0,1,2.49-.61A6.14,6.14,0,0,1,479.31,261.44Zm-.92,10.31A4.42,4.42,0,0,0,480,270a6,6,0,0,0,.56-2.61,6.1,6.1,0,0,0-.56-2.65,4.38,4.38,0,0,0-1.57-1.8,4,4,0,0,0-2.27-.65,4.15,4.15,0,0,0-2.31.65,4.4,4.4,0,0,0-1.58,1.8,6,6,0,0,0-.56,2.62,6,6,0,0,0,.56,2.62,4.37,4.37,0,0,0,1.58,1.81,4.23,4.23,0,0,0,2.31.65A4.1,4.1,0,0,0,478.39,271.75Z"/><path class="cls-1" d="M494.45,261.44a5.92,5.92,0,0,1,2.25,2.4,8,8,0,0,1,0,7,6,6,0,0,1-2.21,2.39,6.08,6.08,0,0,1-3.23.86,5.4,5.4,0,0,1-2.53-.6,5.65,5.65,0,0,1-1.93-1.72V279H485V261h1.83v1.86a5.74,5.74,0,0,1,1.92-1.69,5.23,5.23,0,0,1,2.48-.61A6.09,6.09,0,0,1,494.45,261.44Zm-.91,10.31A4.47,4.47,0,0,0,495.1,270a5.82,5.82,0,0,0,.57-2.61,6,6,0,0,0-.57-2.65,4.43,4.43,0,0,0-1.56-1.8,4,4,0,0,0-2.27-.65,4.13,4.13,0,0,0-2.31.65,4.4,4.4,0,0,0-1.58,1.8,5.89,5.89,0,0,0-.57,2.62,5.83,5.83,0,0,0,.57,2.62,4.37,4.37,0,0,0,1.58,1.81,4.21,4.21,0,0,0,2.31.65A4.12,4.12,0,0,0,493.54,271.75Z"/><path class="cls-1" d="M501,258.12a1.46,1.46,0,0,1-.42-1.06,1.43,1.43,0,0,1,1.45-1.43,1.43,1.43,0,0,1,1,.42,1.46,1.46,0,0,1,0,2.07,1.44,1.44,0,0,1-1,.43A1.39,1.39,0,0,1,501,258.12Zm.12,15.52V261h1.83v12.63Z"/><path class="cls-1" d="M515.8,261.11a4.23,4.23,0,0,1,1.78,1.6,4.57,4.57,0,0,1,.66,2.48v8.45h-1.83V266q0-3.75-3.35-3.75a3.35,3.35,0,0,0-2.92,1.37,6.31,6.31,0,0,0-1,3.7v6.32h-1.84V261h1.84v2.1a4.87,4.87,0,0,1,1.71-1.88,4.61,4.61,0,0,1,2.47-.66A5.57,5.57,0,0,1,515.8,261.11Z"/><path class="cls-1" d="M533.58,261v12.15a6.39,6.39,0,0,1-.71,3,5.18,5.18,0,0,1-2,2.1A5.56,5.56,0,0,1,528,279h-5.23v-1.67H528a3.41,3.41,0,0,0,2.69-1.19,4.43,4.43,0,0,0,1-3v-1.38a5.65,5.65,0,0,1-1.92,1.69,5.2,5.2,0,0,1-2.48.6,6,6,0,0,1-5.48-3.26,7.45,7.45,0,0,1-.81-3.51,7.25,7.25,0,0,1,.8-3.47,5.87,5.87,0,0,1,2.21-2.39,6,6,0,0,1,3.23-.87,5.39,5.39,0,0,1,2.52.61,5.48,5.48,0,0,1,1.93,1.72V261Zm-4,10.74a4.24,4.24,0,0,0,1.58-1.81,5.83,5.83,0,0,0,.57-2.62,5.89,5.89,0,0,0-.57-2.62,4.27,4.27,0,0,0-1.58-1.8,4.1,4.1,0,0,0-2.3-.65,4,4,0,0,0-2.27.65,4.42,4.42,0,0,0-1.57,1.79,5.79,5.79,0,0,0-.57,2.61,5.89,5.89,0,0,0,.57,2.64,4.35,4.35,0,0,0,1.57,1.81,4.08,4.08,0,0,0,2.27.65A4.18,4.18,0,0,0,529.59,271.75Z"/><path class="cls-1" d="M544.23,273.29a5.14,5.14,0,0,1-2.12-2.21l1.65-.81c.66,1.42,2,2.13,3.91,2.13a4.72,4.72,0,0,0,2.32-.51,1.73,1.73,0,0,0,.92-1.6,1.91,1.91,0,0,0-.74-1.64,5.51,5.51,0,0,0-2.61-.71,6.62,6.62,0,0,1-3.71-1.16,3.1,3.1,0,0,1-1.12-2.51,3.2,3.2,0,0,1,1.27-2.72,5.58,5.58,0,0,1,3.48-1q3.75,0,5.1,3l-1.64.81a3.22,3.22,0,0,0-1.34-1.59,4.43,4.43,0,0,0-2.25-.51,3.77,3.77,0,0,0-2.15.51,1.66,1.66,0,0,0-.74,1.46,1.68,1.68,0,0,0,.79,1.44,5.92,5.92,0,0,0,2.74.72,6.49,6.49,0,0,1,3.58,1.17,3.12,3.12,0,0,1,1.18,2.53,3.39,3.39,0,0,1-.73,2.17,4.47,4.47,0,0,1-1.95,1.36,7.25,7.25,0,0,1-2.62.46A6.45,6.45,0,0,1,544.23,273.29Z"/><path class="cls-1" d="M564.22,261H566l-6.83,18h-1.84l2-5.16L554.1,261H556l4.19,10.47Z"/><path class="cls-1" d="M568.88,273.29a5.14,5.14,0,0,1-2.12-2.21l1.65-.81c.66,1.42,2,2.13,3.91,2.13a4.72,4.72,0,0,0,2.32-.51,1.73,1.73,0,0,0,.92-1.6,1.91,1.91,0,0,0-.74-1.64,5.51,5.51,0,0,0-2.61-.71,6.62,6.62,0,0,1-3.71-1.16,3.1,3.1,0,0,1-1.12-2.51,3.2,3.2,0,0,1,1.27-2.72,5.58,5.58,0,0,1,3.48-1q3.75,0,5.1,3l-1.64.81a3.22,3.22,0,0,0-1.34-1.59,4.43,4.43,0,0,0-2.25-.51,3.79,3.79,0,0,0-2.15.51,1.66,1.66,0,0,0-.74,1.46,1.68,1.68,0,0,0,.79,1.44,6,6,0,0,0,2.74.72,6.49,6.49,0,0,1,3.58,1.17,3.09,3.09,0,0,1,1.18,2.53,3.39,3.39,0,0,1-.73,2.17,4.47,4.47,0,0,1-1.95,1.36,7.25,7.25,0,0,1-2.62.46A6.48,6.48,0,0,1,568.88,273.29Z"/><path class="cls-1" d="M580.85,273.64v-11h-2.16V261h2.16v-4.19h1.84V261h2.91v1.67h-2.91v11Z"/><path class="cls-1" d="M596.13,261.41a5.92,5.92,0,0,1,2.16,2.28,6.6,6.6,0,0,1,.79,3.23,7.59,7.59,0,0,1,0,.78H588.66a5.47,5.47,0,0,0,1.26,3.32,3.92,3.92,0,0,0,3.16,1.38,5.33,5.33,0,0,0,2.69-.61,4.62,4.62,0,0,0,1.71-1.69l1.46,1a6.29,6.29,0,0,1-2.35,2.2,7.09,7.09,0,0,1-3.45.79,6,6,0,0,1-5.51-3.26,7.95,7.95,0,0,1,0-7,5.83,5.83,0,0,1,2.21-2.4,6,6,0,0,1,3.23-.87A5.76,5.76,0,0,1,596.13,261.41Zm1.11,4.78a4.84,4.84,0,0,0-1.32-3,4.05,4.05,0,0,0-2.86-1,3.9,3.9,0,0,0-2.88,1.12,5.14,5.14,0,0,0-1.42,2.82Z"/><path class="cls-1" d="M618.14,261.8a4.76,4.76,0,0,1,1.16,3.39v8.45h-1.84V266a4.39,4.39,0,0,0-.75-2.87,2.47,2.47,0,0,0-2-.88,2.67,2.67,0,0,0-2.31,1.15,5.94,5.94,0,0,0-1,3.11v7.13h-1.84V266a4.39,4.39,0,0,0-.75-2.87,2.47,2.47,0,0,0-2-.88,2.7,2.7,0,0,0-2.47,1.37,7.19,7.19,0,0,0-.83,3.7v6.32h-1.83V261h1.83v2a4.78,4.78,0,0,1,1.58-1.79,4.23,4.23,0,0,1,4.61.13,3.86,3.86,0,0,1,1.43,2.12,5,5,0,0,1,1.62-2.11,3.9,3.9,0,0,1,2.37-.76A3.84,3.84,0,0,1,618.14,261.8Z"/><path class="cls-1" d="M644,261h1.75l-4.1,12.63h-1.92L636.63,264l-3.32,9.69h-1.83L627.32,261h1.94l3.24,10,3.3-10h1.78l3.18,10Z"/><path class="cls-1" d="M656.46,261.11a4.2,4.2,0,0,1,1.79,1.6,4.57,4.57,0,0,1,.66,2.48v8.45h-1.84V266c0-2.5-1.11-3.75-3.35-3.75a3.35,3.35,0,0,0-2.91,1.37,6.31,6.31,0,0,0-1,3.7v6.32H648V254h1.84v9.07a4.87,4.87,0,0,1,1.71-1.88,4.58,4.58,0,0,1,2.47-.66A5.52,5.52,0,0,1,656.46,261.11Z"/><path class="cls-1" d="M663.3,258.12a1.46,1.46,0,0,1-.42-1.06,1.43,1.43,0,0,1,1.46-1.43,1.42,1.42,0,0,1,1,.42,1.46,1.46,0,0,1,0,2.07,1.43,1.43,0,0,1-1,.43A1.39,1.39,0,0,1,663.3,258.12Zm.12,15.52V261h1.83v12.63Z"/><path class="cls-1" d="M671.87,273.21a6,6,0,0,1-2.24-2.4,7.39,7.39,0,0,1-.81-3.49,7.49,7.49,0,0,1,.79-3.48,5.88,5.88,0,0,1,2.23-2.4,6.09,6.09,0,0,1,3.24-.87,5.31,5.31,0,0,1,2.69.66,7.48,7.48,0,0,1,2.09,1.88l-1.35,1.05a4,4,0,0,0-3.43-1.91,4.05,4.05,0,0,0-2.28.65,4.33,4.33,0,0,0-1.58,1.8,5.89,5.89,0,0,0-.57,2.62,5.83,5.83,0,0,0,.57,2.62,4.3,4.3,0,0,0,1.58,1.81,4.13,4.13,0,0,0,2.28.65,4.43,4.43,0,0,0,2.13-.45,4.65,4.65,0,0,0,1.52-1.31l1.43,1a6.67,6.67,0,0,1-2.2,1.77,6.22,6.22,0,0,1-2.82.66A6.14,6.14,0,0,1,671.87,273.21Z"/><path class="cls-1" d="M691,261.11a4.23,4.23,0,0,1,1.78,1.6,4.57,4.57,0,0,1,.66,2.48v8.45H691.6V266q0-3.75-3.34-3.75a3.35,3.35,0,0,0-2.92,1.37,6.31,6.31,0,0,0-1,3.7v6.32h-1.84V254h1.84v9.07a4.87,4.87,0,0,1,1.71-1.88,4.61,4.61,0,0,1,2.47-.66A5.57,5.57,0,0,1,691,261.11Z"/><path class="cls-1" d="M718.36,261h1.76L716,273.64H714.1L711,264l-3.32,9.69h-1.84L701.7,261h1.95l3.24,10,3.29-10H712l3.19,10Z"/><path class="cls-1" d="M723.26,258.12a1.46,1.46,0,0,1-.42-1.06,1.38,1.38,0,0,1,.42-1,1.49,1.49,0,0,1,2.07,0,1.46,1.46,0,0,1,0,2.07,1.46,1.46,0,0,1-2.07,0Zm.12,15.52V261h1.84v12.63Z"/><path class="cls-1" d="M729.75,273.64V254h1.84v19.6Z"/><path class="cls-1" d="M735.24,273.64V254h1.83v19.6Z"/><path class="cls-1" d="M391.71,290.52a1.46,1.46,0,0,1-.42-1.06,1.38,1.38,0,0,1,.42-1,1.4,1.4,0,0,1,1-.42,1.42,1.42,0,0,1,1,.42,1.44,1.44,0,0,1,0,2.07,1.43,1.43,0,0,1-1,.43A1.41,1.41,0,0,1,391.71,290.52Zm.12,15.52V293.41h1.84V306Z"/><path class="cls-1" d="M406.53,293.51a4.17,4.17,0,0,1,1.78,1.6,4.57,4.57,0,0,1,.66,2.48V306h-1.83V298.4q0-3.75-3.35-3.75a3.35,3.35,0,0,0-2.92,1.37,6.38,6.38,0,0,0-1,3.7V306h-1.83V293.41h1.83v2.1a4.82,4.82,0,0,1,1.72-1.88,4.58,4.58,0,0,1,2.47-.66A5.55,5.55,0,0,1,406.53,293.51Z"/><path class="cls-1" d="M414.78,305.61a6,6,0,0,1-2.24-2.4,7.39,7.39,0,0,1-.81-3.49,7.49,7.49,0,0,1,.79-3.48,5.88,5.88,0,0,1,2.23-2.4A6.14,6.14,0,0,1,418,293a5.31,5.31,0,0,1,2.69.66,7.48,7.48,0,0,1,2.09,1.88l-1.35,1.05a4,4,0,0,0-3.43-1.91,4.08,4.08,0,0,0-2.28.65,4.33,4.33,0,0,0-1.58,1.8,5.89,5.89,0,0,0-.57,2.62,5.83,5.83,0,0,0,.57,2.62,4.3,4.3,0,0,0,1.58,1.81,4.16,4.16,0,0,0,2.28.65,4.43,4.43,0,0,0,2.13-.45,4.65,4.65,0,0,0,1.52-1.31l1.43,1a6.67,6.67,0,0,1-2.2,1.77,6.22,6.22,0,0,1-2.82.66A6.14,6.14,0,0,1,414.78,305.61Z"/><path class="cls-1" d="M432.9,293.16v1.68a2.89,2.89,0,0,0-1.25-.27,3.92,3.92,0,0,0-2.16.64,4.65,4.65,0,0,0-1.6,1.88,6.42,6.42,0,0,0-.61,2.9V306h-1.84V293.41h1.84v2.53a6,6,0,0,1,1.85-2.18,4.26,4.26,0,0,1,2.52-.79A4.35,4.35,0,0,1,432.9,293.16Z"/><path class="cls-1" d="M442.86,293.81a5.92,5.92,0,0,1,2.16,2.28,6.71,6.71,0,0,1,.78,3.23,7.59,7.59,0,0,1,0,.78H435.38a5.42,5.42,0,0,0,1.27,3.32,3.9,3.9,0,0,0,3.16,1.38,5.29,5.29,0,0,0,2.68-.61,4.65,4.65,0,0,0,1.72-1.69l1.46,1a6.44,6.44,0,0,1-2.35,2.2,7.13,7.13,0,0,1-3.46.79,6.19,6.19,0,0,1-3.27-.86,6.1,6.1,0,0,1-2.24-2.4,7.39,7.39,0,0,1-.81-3.49,7.5,7.5,0,0,1,.8-3.48,5.9,5.9,0,0,1,2.21-2.4,6.06,6.06,0,0,1,3.23-.87A5.82,5.82,0,0,1,442.86,293.81Zm1.1,4.78a4.84,4.84,0,0,0-1.32-3,4,4,0,0,0-2.86-1,3.9,3.9,0,0,0-2.88,1.12,5.19,5.19,0,0,0-1.41,2.82Z"/><path class="cls-1" d="M460.25,293.41V306h-1.84v-1.86a5.65,5.65,0,0,1-1.92,1.69,5.2,5.2,0,0,1-2.48.6,6,6,0,0,1-5.48-3.26,7.45,7.45,0,0,1-.81-3.51,7.36,7.36,0,0,1,.79-3.47,5.89,5.89,0,0,1,2.22-2.39A6,6,0,0,1,454,293a5.4,5.4,0,0,1,2.53.61,5.56,5.56,0,0,1,1.93,1.72v-1.89Zm-4,10.74a4.3,4.3,0,0,0,1.58-1.81,5.83,5.83,0,0,0,.57-2.62,5.89,5.89,0,0,0-.57-2.62,4.33,4.33,0,0,0-1.58-1.8,4.11,4.11,0,0,0-2.31-.65,4,4,0,0,0-2.26.65,4.42,4.42,0,0,0-1.57,1.79,5.79,5.79,0,0,0-.57,2.61,5.89,5.89,0,0,0,.57,2.64,4.35,4.35,0,0,0,1.57,1.81,4.07,4.07,0,0,0,2.26.65A4.19,4.19,0,0,0,456.26,304.15Z"/><path class="cls-1" d="M464.88,305.69a5.14,5.14,0,0,1-2.12-2.21l1.64-.81c.67,1.42,2,2.13,3.92,2.13a4.74,4.74,0,0,0,2.32-.51,1.73,1.73,0,0,0,.92-1.6,1.91,1.91,0,0,0-.74-1.64,5.51,5.51,0,0,0-2.61-.71,6.59,6.59,0,0,1-3.71-1.16,3.1,3.1,0,0,1-1.12-2.51,3.2,3.2,0,0,1,1.27-2.72,5.56,5.56,0,0,1,3.48-1q3.75,0,5.1,3l-1.64.81a3.27,3.27,0,0,0-1.34-1.59,4.47,4.47,0,0,0-2.26-.51,3.76,3.76,0,0,0-2.14.51,1.66,1.66,0,0,0-.74,1.46,1.68,1.68,0,0,0,.79,1.44,5.92,5.92,0,0,0,2.74.72,6.52,6.52,0,0,1,3.58,1.17,3.11,3.11,0,0,1,1.17,2.53,3.38,3.38,0,0,1-.72,2.17,4.47,4.47,0,0,1-1.95,1.36,7.25,7.25,0,0,1-2.62.46A6.45,6.45,0,0,1,464.88,305.69Z"/><path class="cls-1" d="M484.71,293.81a6.07,6.07,0,0,1,2.16,2.28,6.71,6.71,0,0,1,.78,3.23,7.59,7.59,0,0,1,0,.78H477.23a5.42,5.42,0,0,0,1.27,3.32,3.9,3.9,0,0,0,3.16,1.38,5.29,5.29,0,0,0,2.68-.61,4.72,4.72,0,0,0,1.72-1.69l1.46,1a6.44,6.44,0,0,1-2.35,2.2,7.16,7.16,0,0,1-3.46.79,6.19,6.19,0,0,1-3.27-.86,6.1,6.1,0,0,1-2.24-2.4,7.39,7.39,0,0,1-.81-3.49,7.5,7.5,0,0,1,.8-3.48,5.9,5.9,0,0,1,2.21-2.4,6.06,6.06,0,0,1,3.23-.87A5.82,5.82,0,0,1,484.71,293.81Zm1.1,4.78a4.84,4.84,0,0,0-1.32-3,4.05,4.05,0,0,0-2.86-1,3.9,3.9,0,0,0-2.88,1.12,5.13,5.13,0,0,0-1.41,2.82Z"/><path class="cls-1" d="M497.05,306v-11h-2.16v-1.67h2.16v-4.19h1.83v4.19h2.92v1.67h-2.92v11Z"/><path class="cls-1" d="M512.26,293.51a4.17,4.17,0,0,1,1.78,1.6,4.57,4.57,0,0,1,.66,2.48V306h-1.83V298.4q0-3.75-3.35-3.75A3.35,3.35,0,0,0,506.6,296a6.38,6.38,0,0,0-1,3.7V306H503.8v-19.6h1.83v9.07a4.82,4.82,0,0,1,1.72-1.88,4.58,4.58,0,0,1,2.47-.66A5.55,5.55,0,0,1,512.26,293.51Z"/><path class="cls-1" d="M526.75,293.81a6.07,6.07,0,0,1,2.16,2.28,6.71,6.71,0,0,1,.78,3.23,7.59,7.59,0,0,1,0,.78H519.27a5.42,5.42,0,0,0,1.27,3.32,3.89,3.89,0,0,0,3.15,1.38,5.33,5.33,0,0,0,2.69-.61,4.72,4.72,0,0,0,1.72-1.69l1.45,1a6.29,6.29,0,0,1-2.35,2.2,7.09,7.09,0,0,1-3.45.79,6.17,6.17,0,0,1-3.27-.86,6.1,6.1,0,0,1-2.24-2.4,7.39,7.39,0,0,1-.81-3.49,7.5,7.5,0,0,1,.8-3.48,5.9,5.9,0,0,1,2.21-2.4,6.06,6.06,0,0,1,3.23-.87A5.82,5.82,0,0,1,526.75,293.81Zm1.1,4.78a4.84,4.84,0,0,0-1.32-3,4.05,4.05,0,0,0-2.86-1,3.9,3.9,0,0,0-2.88,1.12,5.14,5.14,0,0,0-1.42,2.82Z"/><path class="cls-1" d="M546.94,293.81a5.92,5.92,0,0,1,2.16,2.28,6.71,6.71,0,0,1,.78,3.23c0,.34,0,.6,0,.78h-10.4a5.48,5.48,0,0,0,1.27,3.32,3.91,3.91,0,0,0,3.16,1.38,5.33,5.33,0,0,0,2.69-.61,4.62,4.62,0,0,0,1.71-1.69l1.46,1a6.44,6.44,0,0,1-2.35,2.2,7.1,7.1,0,0,1-3.46.79,6.13,6.13,0,0,1-3.26-.86,6,6,0,0,1-2.24-2.4,7.39,7.39,0,0,1-.81-3.49,7.49,7.49,0,0,1,.79-3.48,5.86,5.86,0,0,1,2.22-2.4,6,6,0,0,1,3.22-.87A5.79,5.79,0,0,1,546.94,293.81Zm1.11,4.78a4.84,4.84,0,0,0-1.32-3,4.08,4.08,0,0,0-2.87-1,3.86,3.86,0,0,0-2.87,1.12,5.14,5.14,0,0,0-1.42,2.82Z"/><path class="cls-1" d="M569.27,306h-1.84v-11h-4.91v11h-1.84v-11h-5.59v11h-1.83v-11h-1.62v-1.67h1.62V290a3.84,3.84,0,0,1,4-4H558v1.67h-.76a2,2,0,0,0-1.55.65,2.37,2.37,0,0,0-.61,1.68v3.43h5.59V290a3.94,3.94,0,0,1,1.12-2.88,3.9,3.9,0,0,1,2.88-1.12h.76v1.67h-.76a2,2,0,0,0-1.55.65,2.33,2.33,0,0,0-.61,1.68v3.43h6.75Zm.11-17.59a1.46,1.46,0,0,1,0,2.07,1.46,1.46,0,0,1-2.07,0,1.46,1.46,0,0,1-.42-1.06,1.38,1.38,0,0,1,.42-1,1.49,1.49,0,0,1,2.07,0Z"/><path class="cls-1" d="M575.88,305.61a6.1,6.1,0,0,1-2.24-2.4,7.39,7.39,0,0,1-.81-3.49,7.5,7.5,0,0,1,.8-3.48,5.81,5.81,0,0,1,2.23-2.4,6.09,6.09,0,0,1,3.24-.87,5.27,5.27,0,0,1,2.68.66,7.38,7.38,0,0,1,2.1,1.88l-1.35,1.05a4.13,4.13,0,0,0-5.71-1.26,4.27,4.27,0,0,0-1.58,1.8,5.89,5.89,0,0,0-.57,2.62,5.83,5.83,0,0,0,.57,2.62,4.24,4.24,0,0,0,1.58,1.81,4.13,4.13,0,0,0,2.28.65,4.48,4.48,0,0,0,2.13-.45,4.62,4.62,0,0,0,1.51-1.31l1.43,1a6.47,6.47,0,0,1-2.2,1.77,6.51,6.51,0,0,1-6.09-.2Z"/><path class="cls-1" d="M587.43,290.52a1.46,1.46,0,0,1-.42-1.06,1.38,1.38,0,0,1,.42-1,1.4,1.4,0,0,1,1-.42,1.42,1.42,0,0,1,1,.42,1.46,1.46,0,0,1,0,2.07,1.43,1.43,0,0,1-1,.43A1.41,1.41,0,0,1,587.43,290.52Zm.12,15.52V293.41h1.83V306Z"/><path class="cls-1" d="M602.32,293.81a6.07,6.07,0,0,1,2.16,2.28,6.71,6.71,0,0,1,.78,3.23,7.59,7.59,0,0,1,0,.78H594.84a5.42,5.42,0,0,0,1.27,3.32,3.9,3.9,0,0,0,3.16,1.38,5.29,5.29,0,0,0,2.68-.61,4.72,4.72,0,0,0,1.72-1.69l1.45,1a6.34,6.34,0,0,1-2.34,2.2,7.16,7.16,0,0,1-3.46.79,6.19,6.19,0,0,1-3.27-.86,6.1,6.1,0,0,1-2.24-2.4,7.39,7.39,0,0,1-.81-3.49,7.5,7.5,0,0,1,.8-3.48,5.9,5.9,0,0,1,2.21-2.4,6.06,6.06,0,0,1,3.23-.87A5.82,5.82,0,0,1,602.32,293.81Zm1.1,4.78a4.84,4.84,0,0,0-1.32-3,4.05,4.05,0,0,0-2.86-1,3.9,3.9,0,0,0-2.88,1.12,5.13,5.13,0,0,0-1.41,2.82Z"/><path class="cls-1" d="M616.42,293.51a4.2,4.2,0,0,1,1.79,1.6,4.57,4.57,0,0,1,.66,2.48V306H617V298.4c0-2.5-1.11-3.75-3.35-3.75a3.35,3.35,0,0,0-2.91,1.37,6.31,6.31,0,0,0-1,3.7V306H608V293.41h1.84v2.1a4.87,4.87,0,0,1,1.71-1.88A4.58,4.58,0,0,1,614,293,5.52,5.52,0,0,1,616.42,293.51Z"/><path class="cls-1" d="M624.67,305.61a6.1,6.1,0,0,1-2.24-2.4,7.39,7.39,0,0,1-.81-3.49,7.5,7.5,0,0,1,.8-3.48,5.81,5.81,0,0,1,2.23-2.4,6.09,6.09,0,0,1,3.24-.87,5.27,5.27,0,0,1,2.68.66,7.52,7.52,0,0,1,2.1,1.88l-1.36,1.05a4,4,0,0,0-3.42-1.91,4.11,4.11,0,0,0-2.29.65,4.4,4.4,0,0,0-1.58,1.8,6,6,0,0,0-.56,2.62,6,6,0,0,0,.56,2.62,4.37,4.37,0,0,0,1.58,1.81,4.19,4.19,0,0,0,2.29.65,4.48,4.48,0,0,0,2.13-.45,4.62,4.62,0,0,0,1.51-1.31l1.43,1a6.57,6.57,0,0,1-2.2,1.77,6.51,6.51,0,0,1-6.09-.2Z"/><path class="cls-1" d="M644,293.41h1.73l-6.83,18h-1.84l2-5.16-5.18-12.87h1.91L640,303.88Z"/><path class="cls-1" d="M655.75,305.61a6,6,0,0,1-2.24-2.42,8,8,0,0,1,0-7,5.89,5.89,0,0,1,2.22-2.39,6,6,0,0,1,3.22-.87,6.09,6.09,0,0,1,3.24.87,5.92,5.92,0,0,1,2.25,2.4,7.38,7.38,0,0,1,.81,3.48,7.51,7.51,0,0,1-.8,3.49,6.28,6.28,0,0,1-8.68,2.4Zm5.49-1.46a4.3,4.3,0,0,0,1.58-1.81,5.83,5.83,0,0,0,.57-2.62,5.89,5.89,0,0,0-.57-2.62,4.33,4.33,0,0,0-1.58-1.8,4.11,4.11,0,0,0-2.31-.65,4,4,0,0,0-2.26.65,4.42,4.42,0,0,0-1.57,1.79,5.79,5.79,0,0,0-.57,2.61,5.89,5.89,0,0,0,.57,2.64,4.35,4.35,0,0,0,1.57,1.81,4.07,4.07,0,0,0,2.26.65A4.19,4.19,0,0,0,661.24,304.15Z"/><path class="cls-1" d="M670.94,288.3a2.33,2.33,0,0,0-.61,1.68v3.43h2.91v1.67h-2.91v11h-1.84v-11h-1.62v-1.67h1.62V290a3.94,3.94,0,0,1,1.12-2.88,3.9,3.9,0,0,1,2.88-1.12h.75v1.67h-.75A2,2,0,0,0,670.94,288.3Z"/><path class="cls-1" d="M688.71,293.16v1.68a2.82,2.82,0,0,0-1.24-.27,3.92,3.92,0,0,0-2.16.64,4.65,4.65,0,0,0-1.6,1.88,6.42,6.42,0,0,0-.61,2.9V306h-1.84V293.41h1.84v2.53a5.86,5.86,0,0,1,1.85-2.18,4.32,4.32,0,0,1,3.76-.6Z"/><path class="cls-1" d="M692.41,305.61a6,6,0,0,1-2.24-2.42,7.92,7.92,0,0,1,0-7,5.94,5.94,0,0,1,2.21-2.39,6.45,6.45,0,0,1,6.47,0,6,6,0,0,1,2.24,2.4,7.95,7.95,0,0,1,0,7,6,6,0,0,1-2.21,2.4,6,6,0,0,1-3.23.86A6.14,6.14,0,0,1,692.41,305.61Zm5.5-1.46a4.37,4.37,0,0,0,1.58-1.81,5.83,5.83,0,0,0,.57-2.62,5.89,5.89,0,0,0-.57-2.62,4.4,4.4,0,0,0-1.58-1.8,4.15,4.15,0,0,0-2.31-.65,4,4,0,0,0-2.27.65,4.4,4.4,0,0,0-1.56,1.79,5.79,5.79,0,0,0-.57,2.61,5.89,5.89,0,0,0,.57,2.64,4.33,4.33,0,0,0,1.56,1.81,4.1,4.1,0,0,0,2.27.65A4.23,4.23,0,0,0,697.91,304.15Z"/><path class="cls-1" d="M715.58,293.41V306h-1.84v-2.1a4.77,4.77,0,0,1-1.71,1.87,4.61,4.61,0,0,1-2.47.66,5.52,5.52,0,0,1-2.44-.54,4.24,4.24,0,0,1-1.79-1.59,4.57,4.57,0,0,1-.66-2.48v-8.45h1.84v7.64c0,2.5,1.11,3.75,3.35,3.75a3.33,3.33,0,0,0,2.91-1.38,6.29,6.29,0,0,0,1-3.7v-6.31Z"/><path class="cls-1" d="M719.66,306v-11H717.5v-1.67h2.16v-4.19h1.83v4.19h2.92v1.67h-2.92v11Z"/><path class="cls-1" d="M734.94,293.81a5.92,5.92,0,0,1,2.16,2.28,6.71,6.71,0,0,1,.78,3.23,7.59,7.59,0,0,1,0,.78H727.46a5.42,5.42,0,0,0,1.27,3.32,3.91,3.91,0,0,0,3.16,1.38,5.29,5.29,0,0,0,2.68-.61,4.57,4.57,0,0,0,1.72-1.69l1.46,1a6.44,6.44,0,0,1-2.35,2.2,7.13,7.13,0,0,1-3.46.79,6.19,6.19,0,0,1-3.27-.86,6.1,6.1,0,0,1-2.24-2.4,7.39,7.39,0,0,1-.81-3.49,7.5,7.5,0,0,1,.8-3.48,5.9,5.9,0,0,1,2.21-2.4,6.06,6.06,0,0,1,3.23-.87A5.82,5.82,0,0,1,734.94,293.81Zm1.11,4.78a4.84,4.84,0,0,0-1.33-3,4,4,0,0,0-2.86-1,3.9,3.9,0,0,0-2.88,1.12,5.19,5.19,0,0,0-1.41,2.82Z"/><path class="cls-1" d="M367.42,338a6,6,0,0,1-2.24-2.42,7.92,7.92,0,0,1,0-7,5.94,5.94,0,0,1,2.21-2.39,6.06,6.06,0,0,1,3.23-.87,6.14,6.14,0,0,1,3.24.87,6,6,0,0,1,2.24,2.4,7.38,7.38,0,0,1,.81,3.48,7.51,7.51,0,0,1-.8,3.49,5.91,5.91,0,0,1-5.44,3.26A6.14,6.14,0,0,1,367.42,338Zm5.5-1.46a4.37,4.37,0,0,0,1.58-1.81,6,6,0,0,0,.56-2.62,6,6,0,0,0-.56-2.62,4.4,4.4,0,0,0-1.58-1.8,4.15,4.15,0,0,0-2.31-.65,4,4,0,0,0-2.27.65,4.42,4.42,0,0,0-1.57,1.79,5.92,5.92,0,0,0-.56,2.61,6,6,0,0,0,.56,2.64,4.35,4.35,0,0,0,1.57,1.81,4.1,4.1,0,0,0,2.27.65A4.23,4.23,0,0,0,372.92,336.55Z"/><path class="cls-1" d="M389,326.24a6,6,0,0,1,2.24,2.4,8,8,0,0,1,0,7A6,6,0,0,1,389,338a6.08,6.08,0,0,1-3.23.86,5.4,5.4,0,0,1-2.53-.6,5.65,5.65,0,0,1-1.93-1.72v7.29h-1.83v-18h1.83v1.86a5.84,5.84,0,0,1,1.92-1.69,5.23,5.23,0,0,1,2.48-.61A6.15,6.15,0,0,1,389,326.24Zm-.92,10.31a4.4,4.4,0,0,0,1.56-1.79,5.82,5.82,0,0,0,.57-2.61,6,6,0,0,0-.57-2.65,4.36,4.36,0,0,0-1.56-1.8,4,4,0,0,0-2.27-.65,4.13,4.13,0,0,0-2.31.65,4.4,4.4,0,0,0-1.58,1.8,5.89,5.89,0,0,0-.57,2.62,5.83,5.83,0,0,0,.57,2.62,4.37,4.37,0,0,0,1.58,1.81,4.21,4.21,0,0,0,2.31.65A4.12,4.12,0,0,0,388.08,336.55Z"/><path class="cls-1" d="M395.31,338.44v-11h-2.16v-1.67h2.16v-4.19h1.84v4.19h2.91v1.67h-2.91v11Z"/><path class="cls-1" d="M402.94,322.92a1.46,1.46,0,0,1-.42-1.06,1.38,1.38,0,0,1,.42-1,1.4,1.4,0,0,1,1-.42,1.44,1.44,0,0,1,1,.42,1.46,1.46,0,0,1,0,2.07,1.45,1.45,0,0,1-1,.43A1.41,1.41,0,0,1,402.94,322.92Zm.12,15.52V325.81h1.84v12.63Z"/><path class="cls-1" d="M425.66,326.6a4.76,4.76,0,0,1,1.16,3.39v8.45H425V330.8a4.43,4.43,0,0,0-.76-2.88,2.48,2.48,0,0,0-2-.87,2.69,2.69,0,0,0-2.31,1.14,6,6,0,0,0-1,3.12v7.13h-1.83V330.8a4.43,4.43,0,0,0-.76-2.88,2.48,2.48,0,0,0-2-.87,2.7,2.7,0,0,0-2.47,1.37,7.19,7.19,0,0,0-.83,3.7v6.32H409.3V325.81h1.83v2a4.78,4.78,0,0,1,1.58-1.79,4.23,4.23,0,0,1,4.61.13,3.86,3.86,0,0,1,1.43,2.12,5,5,0,0,1,1.62-2.11,3.9,3.9,0,0,1,2.37-.76A3.84,3.84,0,0,1,425.66,326.6Z"/><path class="cls-1" d="M431,322.92a1.46,1.46,0,0,1-.42-1.06,1.43,1.43,0,0,1,1.45-1.43,1.43,1.43,0,0,1,1,.42,1.46,1.46,0,0,1,0,2.07,1.44,1.44,0,0,1-1,.43A1.39,1.39,0,0,1,431,322.92Zm.12,15.52V325.81h1.83v12.63Z"/><path class="cls-1" d="M446,325.81v1.67l-7.23,9.29H446v1.67h-9.34v-1.67l7.24-9.29h-7.24v-1.67Z"/><path class="cls-1" d="M460.41,325.81v12.63h-1.84v-1.86a5.71,5.71,0,0,1-1.91,1.69,5.26,5.26,0,0,1-2.49.6,6,6,0,0,1-5.48-3.26,7.45,7.45,0,0,1-.81-3.51,7.37,7.37,0,0,1,.8-3.47,5.94,5.94,0,0,1,2.21-2.39,6.06,6.06,0,0,1,3.23-.87,5.33,5.33,0,0,1,2.52.61,5.48,5.48,0,0,1,1.93,1.72v-1.89Zm-4,10.74a4.37,4.37,0,0,0,1.58-1.81,6,6,0,0,0,.56-2.62,6,6,0,0,0-.56-2.62,4.4,4.4,0,0,0-1.58-1.8,4.15,4.15,0,0,0-2.31-.65,4,4,0,0,0-2.27.65,4.42,4.42,0,0,0-1.57,1.79,5.92,5.92,0,0,0-.56,2.61,6,6,0,0,0,.56,2.64,4.35,4.35,0,0,0,1.57,1.81,4.1,4.1,0,0,0,2.27.65A4.23,4.23,0,0,0,456.43,336.55Z"/><path class="cls-1" d="M464.49,338.44v-11h-2.16v-1.67h2.16v-4.19h1.83v4.19h2.92v1.67h-2.92v11Z"/><path class="cls-1" d="M472.11,322.92a1.46,1.46,0,0,1-.42-1.06,1.38,1.38,0,0,1,.42-1,1.49,1.49,0,0,1,2.07,0,1.46,1.46,0,0,1,0,2.07,1.46,1.46,0,0,1-2.07,0Zm.12,15.52V325.81h1.84v12.63Z"/><path class="cls-1" d="M480.74,338a6,6,0,0,1-2.24-2.42,8,8,0,0,1,0-7,6,6,0,0,1,2.22-2.39,6,6,0,0,1,3.22-.87,6.15,6.15,0,0,1,3.25.87,6,6,0,0,1,2.24,2.4,7.38,7.38,0,0,1,.81,3.48,7.51,7.51,0,0,1-.8,3.49,6.28,6.28,0,0,1-8.68,2.4Zm5.49-1.46a4.24,4.24,0,0,0,1.58-1.81,5.83,5.83,0,0,0,.57-2.62,5.89,5.89,0,0,0-.57-2.62,4.27,4.27,0,0,0-1.58-1.8,4.11,4.11,0,0,0-2.31-.65,4,4,0,0,0-2.26.65,4.42,4.42,0,0,0-1.57,1.79,5.79,5.79,0,0,0-.57,2.61,5.89,5.89,0,0,0,.57,2.64,4.35,4.35,0,0,0,1.57,1.81,4.07,4.07,0,0,0,2.26.65A4.19,4.19,0,0,0,486.23,336.55Z"/><path class="cls-1" d="M501.27,325.91a4.17,4.17,0,0,1,1.78,1.6,4.58,4.58,0,0,1,.67,2.48v8.45h-1.84V330.8q0-3.75-3.35-3.75a3.33,3.33,0,0,0-2.91,1.37,6.31,6.31,0,0,0-1,3.7v6.32h-1.83V325.81h1.83v2.1a5,5,0,0,1,1.72-1.88,4.58,4.58,0,0,1,2.47-.66A5.55,5.55,0,0,1,501.27,325.91Z"/><path class="cls-1" d="M525.07,325.81v12.63h-1.83v-1.86a5.74,5.74,0,0,1-1.92,1.69,5.26,5.26,0,0,1-2.49.6,6,6,0,0,1-5.48-3.26,7.45,7.45,0,0,1-.81-3.51,7.37,7.37,0,0,1,.8-3.47,5.94,5.94,0,0,1,2.21-2.39,6.06,6.06,0,0,1,3.23-.87,5.4,5.4,0,0,1,2.53.61,5.65,5.65,0,0,1,1.93,1.72v-1.89Zm-4,10.74a4.37,4.37,0,0,0,1.58-1.81,5.83,5.83,0,0,0,.57-2.62,5.89,5.89,0,0,0-.57-2.62,4.4,4.4,0,0,0-1.58-1.8,4.13,4.13,0,0,0-2.31-.65,4,4,0,0,0-2.27.65,4.47,4.47,0,0,0-1.56,1.79,5.79,5.79,0,0,0-.57,2.61,5.89,5.89,0,0,0,.57,2.64,4.4,4.4,0,0,0,1.56,1.81,4.1,4.1,0,0,0,2.27.65A4.21,4.21,0,0,0,521.09,336.55Z"/><path class="cls-1" d="M536.94,325.91a4.17,4.17,0,0,1,1.78,1.6,4.57,4.57,0,0,1,.66,2.48v8.45h-1.83V330.8q0-3.75-3.35-3.75a3.35,3.35,0,0,0-2.92,1.37,6.31,6.31,0,0,0-1,3.7v6.32h-1.84V325.81h1.84v2.1A4.87,4.87,0,0,1,532,326a4.64,4.64,0,0,1,2.48-.66A5.55,5.55,0,0,1,536.94,325.91Z"/><path class="cls-1" d="M554.72,318.84v19.6h-1.84v-1.86a5.65,5.65,0,0,1-1.92,1.69,5.2,5.2,0,0,1-2.48.6,6,6,0,0,1-5.48-3.26,7.45,7.45,0,0,1-.81-3.51,7.37,7.37,0,0,1,.8-3.47,5.87,5.87,0,0,1,2.21-2.39,6.06,6.06,0,0,1,3.23-.87A5.36,5.36,0,0,1,551,326a5.48,5.48,0,0,1,1.93,1.72v-8.86Zm-4,17.71a4.24,4.24,0,0,0,1.58-1.81,5.83,5.83,0,0,0,.57-2.62,5.89,5.89,0,0,0-.57-2.62,4.27,4.27,0,0,0-1.58-1.8,4.1,4.1,0,0,0-2.3-.65,4,4,0,0,0-2.27.65,4.42,4.42,0,0,0-1.57,1.79,5.79,5.79,0,0,0-.56,2.61,5.89,5.89,0,0,0,.56,2.64,4.35,4.35,0,0,0,1.57,1.81,4.08,4.08,0,0,0,2.27.65A4.18,4.18,0,0,0,550.73,336.55Z"/><path class="cls-1" d="M564.81,338.44v-11h-2.16v-1.67h2.16v-4.19h1.84v4.19h2.92v1.67h-2.92v11Z"/><path class="cls-1" d="M572.44,322.92a1.46,1.46,0,0,1-.42-1.06,1.38,1.38,0,0,1,.42-1,1.49,1.49,0,0,1,2.07,0,1.46,1.46,0,0,1,0,2.07,1.46,1.46,0,0,1-2.07,0Zm.12,15.52V325.81h1.84v12.63Z"/><path class="cls-1" d="M595.16,326.6a4.71,4.71,0,0,1,1.16,3.39v8.45h-1.83V330.8a4.38,4.38,0,0,0-.76-2.88,2.48,2.48,0,0,0-2-.87,2.69,2.69,0,0,0-2.31,1.14,6,6,0,0,0-1,3.12v7.13h-1.83V330.8a4.38,4.38,0,0,0-.76-2.88,2.48,2.48,0,0,0-2-.87,2.7,2.7,0,0,0-2.47,1.37,7.2,7.2,0,0,0-.82,3.7v6.32H578.8V325.81h1.84v2a4.7,4.7,0,0,1,1.58-1.79,4.21,4.21,0,0,1,4.6.13,3.86,3.86,0,0,1,1.43,2.12,5.14,5.14,0,0,1,1.62-2.11,3.93,3.93,0,0,1,2.38-.76A3.82,3.82,0,0,1,595.16,326.6Z"/><path class="cls-1" d="M608.12,326.21a5.92,5.92,0,0,1,2.16,2.28,6.71,6.71,0,0,1,.78,3.23c0,.34,0,.6,0,.78h-10.4a5.48,5.48,0,0,0,1.27,3.32,3.92,3.92,0,0,0,3.16,1.38,5.33,5.33,0,0,0,2.69-.61,4.62,4.62,0,0,0,1.71-1.69l1.46,1a6.36,6.36,0,0,1-2.35,2.2,7.1,7.1,0,0,1-3.46.79,6.13,6.13,0,0,1-3.26-.86,6,6,0,0,1-2.24-2.4,7.39,7.39,0,0,1-.81-3.49,7.49,7.49,0,0,1,.79-3.48,5.86,5.86,0,0,1,2.22-2.4,6,6,0,0,1,3.22-.87A5.79,5.79,0,0,1,608.12,326.21Zm1.11,4.78a4.84,4.84,0,0,0-1.32-3,4.08,4.08,0,0,0-2.87-1,3.87,3.87,0,0,0-2.87,1.12,5.14,5.14,0,0,0-1.42,2.82Z"/><path class="cls-1" d="M628.32,326.21a5.92,5.92,0,0,1,2.16,2.28,6.71,6.71,0,0,1,.78,3.23,7.59,7.59,0,0,1,0,.78H620.84a5.42,5.42,0,0,0,1.27,3.32,3.9,3.9,0,0,0,3.16,1.38,5.29,5.29,0,0,0,2.68-.61,4.65,4.65,0,0,0,1.72-1.69l1.46,1a6.44,6.44,0,0,1-2.35,2.2,7.13,7.13,0,0,1-3.46.79,6.19,6.19,0,0,1-3.27-.86,6.1,6.1,0,0,1-2.24-2.4,7.39,7.39,0,0,1-.81-3.49,7.5,7.5,0,0,1,.8-3.48,5.9,5.9,0,0,1,2.21-2.4,6.06,6.06,0,0,1,3.23-.87A5.82,5.82,0,0,1,628.32,326.21Zm1.1,4.78a4.84,4.84,0,0,0-1.32-3,4,4,0,0,0-2.86-1,3.9,3.9,0,0,0-2.88,1.12A5.19,5.19,0,0,0,621,331Z"/><path class="cls-1" d="M635.19,338.09a5.2,5.2,0,0,1-2.12-2.21l1.65-.81c.66,1.42,2,2.13,3.91,2.13a4.72,4.72,0,0,0,2.32-.51,1.71,1.71,0,0,0,.92-1.6,1.91,1.91,0,0,0-.74-1.64,5.47,5.47,0,0,0-2.61-.71,6.65,6.65,0,0,1-3.71-1.16,3.1,3.1,0,0,1-1.12-2.51,3.2,3.2,0,0,1,1.27-2.72,5.6,5.6,0,0,1,3.48-1c2.5,0,4.21,1,5.11,3l-1.65.81a3.22,3.22,0,0,0-1.34-1.59,4.41,4.41,0,0,0-2.25-.51,3.79,3.79,0,0,0-2.15.51,1.75,1.75,0,0,0,.06,2.9,5.88,5.88,0,0,0,2.74.72,6.48,6.48,0,0,1,3.57,1.17,3.09,3.09,0,0,1,1.18,2.53,3.39,3.39,0,0,1-.73,2.17,4.47,4.47,0,0,1-2,1.36,7.24,7.24,0,0,1-2.61.46A6.49,6.49,0,0,1,635.19,338.09Z"/><path class="cls-1" d="M647.16,338.44v-11H645v-1.67h2.16v-4.19H649v4.19h2.92v1.67H649v11Z"/><path class="cls-1" d="M654.79,322.92a1.46,1.46,0,0,1-.42-1.06,1.38,1.38,0,0,1,.42-1,1.47,1.47,0,0,1,2.5,1,1.46,1.46,0,0,1-2.5,1Zm.12,15.52V325.81h1.84v12.63Z"/><path class="cls-1" d="M677.51,326.6a4.76,4.76,0,0,1,1.16,3.39v8.45h-1.83V330.8a4.43,4.43,0,0,0-.76-2.88,2.48,2.48,0,0,0-2-.87,2.69,2.69,0,0,0-2.31,1.14,6,6,0,0,0-1,3.12v7.13H669V330.8a4.43,4.43,0,0,0-.76-2.88,2.48,2.48,0,0,0-2-.87,2.7,2.7,0,0,0-2.47,1.37,7.19,7.19,0,0,0-.83,3.7v6.32h-1.83V325.81H663v2a4.87,4.87,0,0,1,1.58-1.79,4.23,4.23,0,0,1,4.61.13,3.86,3.86,0,0,1,1.43,2.12,5,5,0,0,1,1.62-2.11,3.9,3.9,0,0,1,2.37-.76A3.84,3.84,0,0,1,677.51,326.6Z"/><path class="cls-1" d="M693.68,325.81v12.63h-1.83v-1.86a5.65,5.65,0,0,1-1.92,1.69,5.22,5.22,0,0,1-2.48.6,6,6,0,0,1-5.48-3.26,7.45,7.45,0,0,1-.81-3.51,7.36,7.36,0,0,1,.79-3.47,5.89,5.89,0,0,1,2.22-2.39,6,6,0,0,1,3.22-.87,5.4,5.4,0,0,1,2.53.61,5.56,5.56,0,0,1,1.93,1.72v-1.89Zm-4,10.74a4.3,4.3,0,0,0,1.58-1.81,5.83,5.83,0,0,0,.57-2.62,5.89,5.89,0,0,0-.57-2.62,4.33,4.33,0,0,0-1.58-1.8,4.11,4.11,0,0,0-2.31-.65,4,4,0,0,0-2.27.65,4.47,4.47,0,0,0-1.56,1.79,5.79,5.79,0,0,0-.57,2.61,5.89,5.89,0,0,0,.57,2.64,4.4,4.4,0,0,0,1.56,1.81,4.12,4.12,0,0,0,2.27.65A4.19,4.19,0,0,0,689.7,336.55Z"/><path class="cls-1" d="M697.76,338.44v-11H695.6v-1.67h2.16v-4.19h1.84v4.19h2.91v1.67H699.6v11Z"/><path class="cls-1" d="M705.39,322.92a1.46,1.46,0,0,1-.42-1.06,1.38,1.38,0,0,1,.42-1,1.47,1.47,0,1,1,0,2.07Zm.12,15.52V325.81h1.84v12.63Z"/><path class="cls-1" d="M714,338a6,6,0,0,1-2.24-2.42,7.92,7.92,0,0,1,0-7,5.94,5.94,0,0,1,2.21-2.39,6.45,6.45,0,0,1,6.47,0,6,6,0,0,1,2.24,2.4,7.95,7.95,0,0,1,0,7,6,6,0,0,1-2.21,2.4,6,6,0,0,1-3.23.86A6.14,6.14,0,0,1,714,338Zm5.5-1.46a4.37,4.37,0,0,0,1.58-1.81,5.83,5.83,0,0,0,.56-2.62,5.89,5.89,0,0,0-.56-2.62,4.4,4.4,0,0,0-1.58-1.8,4.15,4.15,0,0,0-2.31-.65,4,4,0,0,0-2.27.65,4.4,4.4,0,0,0-1.56,1.79,5.79,5.79,0,0,0-.57,2.61,5.89,5.89,0,0,0,.57,2.64,4.33,4.33,0,0,0,1.56,1.81,4.1,4.1,0,0,0,2.27.65A4.23,4.23,0,0,0,719.51,336.55Z"/><path class="cls-1" d="M734.55,325.91a4.23,4.23,0,0,1,1.78,1.6A4.57,4.57,0,0,1,737,330v8.45h-1.84V330.8q0-3.75-3.34-3.75a3.35,3.35,0,0,0-2.92,1.37,6.31,6.31,0,0,0-1,3.7v6.32h-1.84V325.81h1.84v2.1a4.87,4.87,0,0,1,1.71-1.88,4.61,4.61,0,0,1,2.47-.66A5.6,5.6,0,0,1,734.55,325.91Z"/><path class="cls-5" d="M419.61,182.7H406.82c-3.8,0-5.69-2-5.69-5.93V153.52q0-6,5.64-6h4.51q5.64,0,5.64,6v24.91h2.69Zm-7.4-4.27V153.82a1.84,1.84,0,0,0-2.11-2.06h-2.21a1.82,1.82,0,0,0-2.06,2.06v22.55a1.84,1.84,0,0,0,2.11,2.06Z"/><path class="cls-5" d="M437.12,147.49V176q0,6.67-5.69,6.67h-4q-5.64,0-5.64-6.72V147.49h4.71v28.64c0,1.54.68,2.3,2.06,2.3h1.91c1.27,0,1.91-.76,1.91-2.3V147.49Z"/><path class="cls-5" d="M441.53,182.7V147.49h4.71V182.7Z"/><path class="cls-5" d="M464,182.7h-4.56l-2.65-13.39h-.1L453.5,182.7h-4.37l4.47-17.8-4.17-17.41H454l2.64,13h.1l3-13h4.36l-4.22,17.41Z"/><path class="cls-5" d="M480.32,182.7h-4.56l-2.65-13.39H473l-3.18,13.39h-4.37l4.46-17.8-4.16-17.41h4.61l2.64,13h.1l2.94-13h4.37L476.2,164.9Z"/><path class="cls-5" d="M500.72,168.19l4.36-20.7h5.2V182.7h-4.71l.49-23-3.53,16.67H498.9l-3.53-16.67.49,23h-4.7V147.49h5.19Z"/><path class="cls-5" d="M519.16,182.7h-4.71V153.52q0-6,5.64-6h3.53q5.64,0,5.64,6V182.7h-4.71V169.8h-5.39Zm5.39-17.16V153.82a1.82,1.82,0,0,0-2.06-2.06h-1.27a1.82,1.82,0,0,0-2.06,2.06v11.72Z"/><path class="cls-5" d="M533.43,147.49H542q5.68,0,5.69,6V164q0,6-5.64,6h-3.93V182.7h-4.7Zm4.7,18.19h3c1.25,0,1.87-.68,1.87-2.06v-9.8a1.84,1.84,0,0,0-2.11-2.06h-2.75Z"/><path class="cls-5" d="M560.44,157v-3.09a1.84,1.84,0,0,0-2.05-2.11h-.74c-1.34,0-2,.7-2,2.11v5.83A1.7,1.7,0,0,0,556,161a9.66,9.66,0,0,0,1.28.89l4.46,2.4a21.49,21.49,0,0,1,2.08,1.3,3.35,3.35,0,0,1,1,1.13,6.18,6.18,0,0,1,.34,2.52v7.51c0,3.95-1.89,5.93-5.69,5.93h-2.89q-5.64,0-5.64-6.47v-1.77h4.71v1.91a1.84,1.84,0,0,0,2.11,2.06h.83c1.24,0,1.86-.68,1.86-2.06v-6a1.73,1.73,0,0,0-.39-1.32,8.69,8.69,0,0,0-1.27-.88l-4.46-2.51a13.47,13.47,0,0,1-2.14-1.32,3,3,0,0,1-.95-1.4,6.86,6.86,0,0,1-.3-2.23v-7.21q0-6,5.64-6h2.94q5.64,0,5.64,6V157Z"/><polygon class="cls-6" points="110.36 248.01 146.29 240.69 178.53 246.78 210.79 240.69 242.44 246.78 274.33 239.93 309.72 247.92 273 227.94 148.01 227.94 110.36 248.01"/><polygon class="cls-1" points="274.37 237.39 242.44 246.78 210.48 237.39 178.53 246.78 146.5 237.39 110.36 248.01 137.46 154.35 163.31 149.07 186.9 153.89 210.48 149.07 234.07 153.89 257.56 149.07 283.42 154.35 310.51 248.01 274.37 237.39"/><polygon class="cls-7" points="178.53 243.8 210.48 234.42 210.48 151.99 186.9 156.8 178.53 243.8"/><polygon class="cls-8" points="242.44 243.8 210.48 234.42 210.48 151.99 234.07 156.8 242.44 243.8"/><polygon class="cls-7" points="114.54 243.8 146.5 234.42 163.31 151.99 139.72 156.8 114.54 243.8"/><polygon class="cls-8" points="178.53 243.8 146.5 234.42 163.31 151.99 186.9 156.8 178.53 243.8"/><polygon class="cls-8" points="306.33 243.8 274.37 234.42 257.56 151.99 281.15 156.8 306.33 243.8"/><polygon class="cls-7" points="242.44 243.8 274.37 234.42 257.56 151.99 234.07 156.8 242.44 243.8"/><path class="cls-4" d="M235.36,165.79a1.27,1.27,0,0,0,.4-.39c0-.1-.54-.12-.87-.07l.07.68A1.25,1.25,0,0,0,235.36,165.79Z"/><path class="cls-4" d="M210.13,165.05s.17.17.35.28v-.28l-.15,0C210.22,165,210.13,165,210.13,165.05Z"/><path class="cls-1" d="M267.81,222.79l-.5,0a2.41,2.41,0,0,1-.66-.1c-.24-.08-.27,0-.27.26a1.37,1.37,0,0,1-.12.57c-.1.17-.09.25,0,.32h0c.21.13.19.13.73-.17S268,222.83,267.81,222.79Z"/><path class="cls-1" d="M258.1,206.53c0,.05,0,.12.08.16h0a.94.94,0,0,0,.38,0,2,2,0,0,1,.38,0c.08,0,.12-.05.08-.11A1.06,1.06,0,0,0,258.1,206.53Z"/><path class="cls-1" d="M269.32,210.51a2,2,0,0,1-.53.56,3.37,3.37,0,0,1-1-.55c-1.06-.71-1.18-1-.74-1.58.33-.48.3-.52-.6-.75a1.08,1.08,0,0,0-.93.09,5.29,5.29,0,0,1-.73.27c-.3.07-.9.79-.77.92s0,.13-.05.21-.45.06-.87-.3c-.23-.2-.28-.2-.7,0a1.7,1.7,0,0,0-.72.55,1.33,1.33,0,0,1-.49.44.28.28,0,0,0-.2.31c0,.24,0,.26-.37.14-.13-.05-.27.09-.47.45a1.86,1.86,0,0,1-1.4,1,8.36,8.36,0,0,0-1.6.52c-1.25.5-1.29.53-1.48,1a1.42,1.42,0,0,0-.12.7,5.85,5.85,0,0,1-.06,1.22,4.54,4.54,0,0,0,0,1.62,1.38,1.38,0,0,1-.09,1.14,1.3,1.3,0,0,1-.41.56c-.28.1-.1.37.33.51s.5.08,1.14-.15A8.1,8.1,0,0,1,258,219a4.7,4.7,0,0,0,1.33-.33A8.35,8.35,0,0,1,262,218c.71-.07.84-.05,1.2.18a2.05,2.05,0,0,1,.68.79c.15.29.28.48.31.41a2.14,2.14,0,0,1,.56-.44c.67-.42.86-.27.36.27-.21.22-.34.44-.3.47s.13,0,.19-.12.33-.24.33,0a1.44,1.44,0,0,0,.13.48.47.47,0,0,1,0,.51c-.12.22-.1.28.14.46a1.3,1.3,0,0,0,1.31.25c.23-.15.28-.14.52.11h0l.27.27.41-.3a1.52,1.52,0,0,1,.9-.3c.46,0,.54,0,1-.58a2.6,2.6,0,0,1,.59-.57c.07,0,.3-.24.53-.54l.18-.22-1.81-8.86Z"/><path class="cls-1" d="M259,197.55a1.29,1.29,0,0,0,.39-.63c0-.18-.11-.12-.52.32a3.36,3.36,0,0,0-.52.63C258.38,198.07,258.67,197.93,259,197.55Z"/><path class="cls-1" d="M258.81,190.13c-.18.28-.19.38-.07.59a1.29,1.29,0,0,0,.27.34h0c.17.1.43-.75.34-1.09S259.08,189.69,258.81,190.13Z"/><path class="cls-1" d="M260.22,196.15s-.05-.17-.19-.31-.26-.18-.26-.11a.61.61,0,0,0,.19.3C260.06,196.13,260.18,196.18,260.22,196.15Z"/><path class="cls-1" d="M260.77,196.73c.12-.22.12-.26,0-.29a.24.24,0,0,0-.24.4C260.6,197,260.65,196.94,260.77,196.73Z"/><path class="cls-1" d="M268.52,206.23l.11,0-.06-.28C268.38,206.11,268.38,206.15,268.52,206.23Z"/><path class="cls-1" d="M261.12,197.57c.12-.15.13-.23,0-.35s-.15-.13-.23,0a.47.47,0,0,0,0,.35C261,197.76,261,197.76,261.12,197.57Z"/><path class="cls-1" d="M268,203.3a3.3,3.3,0,0,0-.72.51c-.18.22-.19.22-.43-.08a1,1,0,0,1-.25-.48.77.77,0,0,0-.62-.67,1.5,1.5,0,0,0-.52.14c-.25.14-.24.15.29.4s.53.26.34.39-.15.61.29.61a4.75,4.75,0,0,1,1.24.42,7.32,7.32,0,0,1,.72.4L268,203.3Z"/><path class="cls-1" d="M209.86,186.8a.85.85,0,0,1-.63-.4c-.19-.31-.46-.42-1.39-.6a1.46,1.46,0,0,1-.66-.37c-.27-.26-.29-.34-.18-.61s.08-.34,0-.44a.31.31,0,0,1-.05-.31c.12-.31-.34-.43-.88-.23a3.32,3.32,0,0,1-1.47.13,4.62,4.62,0,0,0-2.76.56,1.57,1.57,0,0,1-1.16.28,2.31,2.31,0,0,1-.7-.22c-.32-.22-.36-.2-.63.22a3.07,3.07,0,0,1-.81.72,1.8,1.8,0,0,0-.94,1.48,2.15,2.15,0,0,1-1,1.05c-.23,0-1,.92-1.41,1.57a9.47,9.47,0,0,1-.66,1,1.28,1.28,0,0,0-.33,1.35,2.36,2.36,0,0,1-.24,2.45c-.17.18-.16.22.06.58s.19.39.1.39-.08,0,0,.11.15.11,0,.11-.25.23,0,.3.21.08.09.16-.1.11.1.16a4,4,0,0,1,1.33,1.63,4.29,4.29,0,0,0,2.23,1.91,2.12,2.12,0,0,0,1.28-.1,2.22,2.22,0,0,1,1.23-.1c.33.09.56.06,1.33-.18l1.16-.38a1.21,1.21,0,0,1,1.21,0c.36.17.5.31.55.56s.08.33.56.26c1.23-.18,1.73.71,1.26,2.22-.22.75-.13,1,.61,1.7a2.16,2.16,0,0,1,.7,1.09,4.84,4.84,0,0,0,.4,1,.79.79,0,0,1,.15.63,2,2,0,0,0,.12.83l.2.55-.35.63a4,4,0,0,0-.65,2.28,4.93,4.93,0,0,0,.52,1.22,8.25,8.25,0,0,1,1,3.15,2,2,0,0,0,.53,1.31,3.19,3.19,0,0,1,.46.7,1.79,1.79,0,0,0,.28.52.61.61,0,0,1,.07.1V187A3.35,3.35,0,0,0,209.86,186.8Z"/><path class="cls-1" d="M210.1,175.3c-.21-.09-.41-.07-.89.11s-.65.2-.94.06a.78.78,0,0,0-.7,0c-.35.11-.4.1-.65-.19s-.23-.34-.2-.37.1,0,.15.09.12.11.18,0,.13-.09.23,0,.47-.13.37-.38-.11-.15-.33,0a2.48,2.48,0,0,1-.47.17c-.18,0-.19,0-.13-.42l.08-.46-.3.19a.69.69,0,0,0-.18,1.16c.22.15-.26.52-.74.58a1.74,1.74,0,0,0-1.08.56,3.22,3.22,0,0,1-.83.58.9.9,0,0,0-.44.32c-.2.3-.82.64-1,.54a.68.68,0,0,0-.42.13,1.55,1.55,0,0,1-.72.2c-.59,0-.57.21,0,.43.41.15.54.27.64.55a1.74,1.74,0,0,1-.21,1.46c-.18.18-1,.17-2.28,0-.58-.08-.92.16-.81.58a3,3,0,0,1-.11,1c-.22.9-.17,1.54.13,1.58a1.46,1.46,0,0,1,1,.41c.3.29.3.29.43.06s.24-.22.59-.22a2,2,0,0,0,.72-.13c.44-.21.9-.68.9-.91s.4-.94.54-.94a1.64,1.64,0,0,0,.43-.28,1.24,1.24,0,0,1,.5-.27c.1,0,.13-.09.08-.27-.09-.35.28-.55.86-.45a2,2,0,0,0,1.43-.41c.37-.24.63-.16.87.27a3.4,3.4,0,0,0,1.28,1.19c.6,0,1.33.74,1.23,1.26l-.06.33.27-.24c.23-.21.24-.28.13-.52s0-.44.44-.34.41,0-.35-.39a6.47,6.47,0,0,1-2.2-1.92.4.4,0,0,1,.22-.27c.18-.09.26-.07.38.09a1.53,1.53,0,0,0,.57.38,1.57,1.57,0,0,1,.58.38,1.45,1.45,0,0,0,.66.36,1.44,1.44,0,0,1,.49.26v-5.72A.58.58,0,0,1,210.1,175.3Z"/><path class="cls-1" d="M210.48,172.81v-.21C210.33,172.64,210.32,172.74,210.48,172.81Z"/><path class="cls-1" d="M209.4,168.76c-.3.11-.55.24-.55.3a1.76,1.76,0,0,1-.47.51,3.34,3.34,0,0,0-.63.68,4.43,4.43,0,0,1-1.83,1.22c-.54.14-1.06.6-.95.85a2,2,0,0,1,.1.5.94.94,0,0,0,.82.73,1.85,1.85,0,0,0,.64-.23l.4-.24.32.36a2.14,2.14,0,0,1,.39.66,1,1,0,0,0,.3.51c.23.19.25.19.66,0a1.33,1.33,0,0,0,.61-.69,1.45,1.45,0,0,1,.46-.64c.51-.33.58-.53.22-.64a.9.9,0,0,1-.41-.33c-.16-.23-.16-.29,0-.58a1.14,1.14,0,0,1,.52-.45,2.44,2.44,0,0,0,.48-.33v-2.55C210.16,168.49,209.69,168.67,209.4,168.76Z"/><path class="cls-1" d="M262.66,177.31a5.94,5.94,0,0,1-1.33-1.18c-.13-.17-.3-.28-.39-.26s.16.37.63.87a8.45,8.45,0,0,1,1.13,1.48c.11.21.23.42.33.58l-.29-1.43Z"/><path class="cls-1" d="M264.07,184.11c-.47.34-.7.43-.9.38a.73.73,0,0,0-.63.22,1.42,1.42,0,0,1-.48.28c-.08,0-.05,0,.06.11a.86.86,0,0,0,.64,0c.73-.19,1.05-.15,1.27.18h0l.2.29.11-.35h0l-.23-1.14Z"/><path class="cls-1" d="M259.54,207.14a.67.67,0,0,0,.35.1c.07-.08-.26-.26-.46-.26S259.37,207.05,259.54,207.14Z"/><path class="cls-1" d="M210.13,165.05c0-.05.09-.07.2,0l.15,0v-.35a.48.48,0,0,1-.21-.08c-.11-.1-.14-.1-.14,0s-.08.13-.17.13-.19.11-.21.25l-.06.25-.08-.25c-.09-.24-.41-.35-.41-.14s-.38.09-1.1,0c-.95-.06-1.1-.05-1.1.1s.13.25.74.42c.25.07.37.06.43,0s.13-.1.23,0a.36.36,0,0,0,.32.07c.17,0,.17,0,0,.06a1,1,0,0,1-.5.12c-.44,0-.39.13.18.4h0l.49.24.38-.39a1.75,1.75,0,0,0,.37-.49c0-.15.43-.1.58.07a.26.26,0,0,1,.06.28c0,.07,0,.09.18.08v-.49C210.3,165.22,210.13,165.1,210.13,165.05Z"/><path class="cls-1" d="M149.29,174.65c-.14.11-.15.17,0,.3h0c.12.14.15.13.25-.07S149.53,174.46,149.29,174.65Z"/><path class="cls-1" d="M206.07,200.43c-.06,0-.12.09-.12.12s.06,0,.12,0a.11.11,0,0,0,.11-.12C206.18,200.42,206.13,200.4,206.07,200.43Z"/><path class="cls-1" d="M253,204.11a2,2,0,0,0-.42-.68l-.6-.63a1.29,1.29,0,0,1-.27-.39,1,1,0,0,0-.64-.82,7,7,0,0,1-1.55-1.34,3.26,3.26,0,0,0-1.43-.75c-.23,0,.11.53.67,1a4.17,4.17,0,0,1,.67.77,6.16,6.16,0,0,0,.62.88,6.32,6.32,0,0,1,.68,1.1,4.77,4.77,0,0,0,1.45,1.67h0C252.63,205.21,253.12,204.69,253,204.11Z"/><path class="cls-1" d="M256.29,206.41h0l.9.11a.21.21,0,0,0,.19-.08c.06-.09-.63-.45-.86-.45a1.42,1.42,0,0,1-.44-.23c-.29-.2-.39-.21-.87-.11s-.6.09-.8,0c-.56-.34-1.6-.31-1.6,0,0,.16,1.13.47,1.4.39a1.73,1.73,0,0,1,.78.1A11.33,11.33,0,0,0,256.29,206.41Z"/><path class="cls-1" d="M205.37,201.75c-.06,0-.11.09-.11.12s.05,0,.11,0a.12.12,0,0,0,.12-.12C205.49,201.74,205.44,201.72,205.37,201.75Z"/><path class="cls-1" d="M254.32,192.35c-.56,0-.86.35-.55.64s.34.11.59-.29S254.57,192.35,254.32,192.35Z"/><path class="cls-1" d="M260.46,206.69c.57-.1.57-.12,0-.26s-.79-.07-.58.17S260.16,206.74,260.46,206.69Z"/><path class="cls-1" d="M149.3,177.14c-.27.09-.22.24.18.6a1.31,1.31,0,0,0,.58.32c.26,0,.26,0,.08-.38S149.54,177.05,149.3,177.14Z"/><path class="cls-1" d="M194.91,168.41c-.09-.11-.26-.13-.56-.08-.48.07-.78-.14-.35-.24.19-.05.21-.1.11-.22-.26-.3.23-.3.69,0s.51.27.71.19l.27-.09-.3-.21a5.94,5.94,0,0,0-.67-.41c-.43-.23-.37-.34.19-.36a2.84,2.84,0,0,0,1.62-.71,1.63,1.63,0,0,1,.4-.49c.26-.23.31-.36.23-.5-.18-.33.52-.84,1.28-.93a2.7,2.7,0,0,0,.87-.25c.21-.14.16-.15-.54-.08a1.9,1.9,0,0,1-1.23-.15,6.17,6.17,0,0,0-2.92-.35,3.53,3.53,0,0,1-1.09.06,8.86,8.86,0,0,0-2.11.17,14.61,14.61,0,0,1-2.78.21c-1.29,0-2,0-2.53,0l-.81,8.45a1.24,1.24,0,0,0,.38.12c.35,0,.7-.28,1.26-1.05a2.9,2.9,0,0,1,2.27-1.41,3.36,3.36,0,0,0,1.27-.43,2.93,2.93,0,0,1,1.81-.68,10.91,10.91,0,0,0,1.65-.21C194.88,168.6,195,168.54,194.91,168.41Z"/><path class="cls-1" d="M196.9,170.13a1.85,1.85,0,0,1-.69.07c-.34-.11-1.36.25-1.43.5s0,.21.13.16a.92.92,0,0,1,.55.16.86.86,0,0,0,.52.17,5.58,5.58,0,0,0,1.73-.6l.28-.2-.32-.2C197.4,170,197.3,170,196.9,170.13Z"/><path class="cls-1" d="M149.18,173.88a.22.22,0,0,0-.11.24c.05.07.12,0,.18,0S149.36,173.73,149.18,173.88Z"/><path class="cls-1" d="M260.16,193.51c-.31-.62-.73-.64-.73,0a1.27,1.27,0,0,1-.13.55c-.17.31-.06.56.54,1.13.42.41.57.5.8.45a.81.81,0,0,1,.49,0h0c.26.14.35,0,.14-.27a.4.4,0,0,0-.4-.1c-.17,0-.34,0-.56-.26s-.32-.32-.14-.71A.68.68,0,0,0,260.16,193.51Z"/><path class="cls-1" d="M263.92,203.93h0a.93.93,0,0,0,.66,0c.19-.07.17-.1-.16-.16a4.16,4.16,0,0,0-.54-.07C263.65,203.68,263.68,203.87,263.92,203.93Z"/><path class="cls-1" d="M261.5,207h0c-.3.4-.14.4.55,0a2.52,2.52,0,0,1,.85-.35c.27,0,.27,0-.08-.12A1.2,1.2,0,0,0,261.5,207Z"/><path class="cls-1" d="M263.34,185.32c-.27,0-.44.17-.37.36h0c.09.22.19.23.38,0S263.52,185.31,263.34,185.32Z"/><path class="cls-1" d="M261.23,202.06a.66.66,0,0,0,1-.32c.15-.31.12-.32-.33-.1a1.29,1.29,0,0,1-.94.05c-.57-.1-.64-.09-.89.15a1.5,1.5,0,0,0-.36.86,2.46,2.46,0,0,1-.28.87c-.18.24-.18.29,0,.52a.61.61,0,0,1,.11.47.46.46,0,0,0,0,.33h0c.09.13.18.13.39,0s.13-.18,0-.52-.09-.45.1-.64.23-.21.41.19a1.19,1.19,0,0,0,.41.52c.2.1.23.08.23-.17a1.56,1.56,0,0,0-.17-.6c-.21-.39-.14-.62.27-.83s.13-.21-.45,0c-.33.09-.44.07-.62-.1C259.59,202.23,260.53,201.71,261.23,202.06Z"/><path class="cls-1" d="M261.67,196.13s.06.17.2.33c.32.39.66.41.39,0S261.76,196,261.67,196.13Z"/><path class="cls-1" d="M262.6,186.46a.78.78,0,0,0-.36-.88c-.43-.27-.56,0-.2.42a1.08,1.08,0,0,1,.28.48C262.32,186.69,262.51,186.68,262.6,186.46Z"/><path class="cls-1" d="M261.55,196.83s.08.18.12.29.1.19.13.16-.08-.53-.19-.53S261.52,196.79,261.55,196.83Z"/><path class="cls-1" d="M260.93,198.29c-.13.23-.11.24.22.17s.37-.05.6.44h0c.17.38.28.49.41.45a1.05,1.05,0,0,1,.3-.07c.08,0,.06-.07,0-.17-.22-.25,0-.47.3-.26s.19.12.12-.26-.53-1.43-.53-1.15a.91.91,0,0,1-.32.47.63.63,0,0,1-.63.21C261.13,198.07,261,198.11,260.93,198.29Z"/><path class="cls-1" d="M263.51,202.23h0c.3.28.5,0,.32-.49a.38.38,0,0,1,.08-.5c.17-.18.17-.2,0-.2s-.47.39-.37.55a.36.36,0,0,1,0,.31C263.42,202,263.42,202.14,263.51,202.23Z"/><path class="cls-1" d="M257.87,199.32a1.63,1.63,0,0,1-.69.5.82.82,0,0,0-.54.46,1.36,1.36,0,0,1-.57.54,1.34,1.34,0,0,0-.57.49c-.12.25-.16.27-.39.16s-.27-.1-.41.08a.61.61,0,0,0-.09.48,8.91,8.91,0,0,0,.5,1.51,3.12,3.12,0,0,0,1.55.3.87.87,0,0,1,.52.09h0c.22.11.38.13.51,0a6.18,6.18,0,0,0,.92-1.81c0-.08.13-.22.29-.32l.29-.18-.23-.3a1,1,0,0,1-.06-1.32l.29-.38-.37-.36a1.31,1.31,0,0,0-.51-.36A1.17,1.17,0,0,0,257.87,199.32Z"/><path class="cls-1" d="M198.93,175.35c-.29.07-.37.23-.17.34s.05.19-.06.39a.74.74,0,0,0-.1.49.18.18,0,0,0,.26.1l.68-.24c.42-.13.5-.21.5-.45a1.09,1.09,0,0,1,.18-.54c.1-.13.15-.29.11-.35s-.82-.13-1,0A.8.8,0,0,1,198.93,175.35Z"/><path class="cls-1" d="M260.41,168.55a4.39,4.39,0,0,1-1.9-.21,5.27,5.27,0,0,0-2.05-.25,5.39,5.39,0,0,1-2.21-.28,4.11,4.11,0,0,0-1-.27c-.23,0-.74-.08-1.15-.15-.89-.15-1.61-.07-1.4.17s.06.18-.22.32a1.28,1.28,0,0,1-1,.06,1.54,1.54,0,0,0-1,.06c-.41.18-.43.17-1-.13l-1.09-.56a3.41,3.41,0,0,0-2.19-.13,2.06,2.06,0,0,1-1.11-.06,2,2,0,0,0-1.07-.06,1.73,1.73,0,0,1-1-.05,1.84,1.84,0,0,0-1.27,0c-.95.24-1.12.06-.33-.35a2.24,2.24,0,0,0,.59-.38s-.14-.16-.31-.28-.55-.2-1.43-.2a3.46,3.46,0,0,1-1.47-.2,1.9,1.9,0,0,0-.67-.19c-.17,0-.28,0-.24-.09s-.53-.23-1.07-.3l0,.31c.33-.05.87,0,.87.07a1.27,1.27,0,0,1-.4.39,1.25,1.25,0,0,1-.4.22l2.84,29.58.29.58a7.52,7.52,0,0,1,.52,1.28.65.65,0,0,0,.36.5c.35.15.38.13.8-.43a4.14,4.14,0,0,0,.48-2.74c0-.2.11-.36.5-.65a3.42,3.42,0,0,0,.72-.68,1,1,0,0,1,.41-.38.66.66,0,0,0,.36-.34,1.3,1.3,0,0,1,.55-.46c.28-.13.39-.24.36-.37-.09-.33.15-.52.82-.65a4.86,4.86,0,0,0,.84-.22c.26-.13.52.05.75.54a1.1,1.1,0,0,0,.55.57,2.42,2.42,0,0,1,1,1.64.55.55,0,0,0,.38.55,1.3,1.3,0,0,0,.38-.28c.41-.37.64-.26.8.37a6.71,6.71,0,0,0,.43,1.1,1.38,1.38,0,0,1,.22,1c0,.22-.09.65-.11,1,0,.54,0,.56.44.89a1.31,1.31,0,0,1,.62.88,3.16,3.16,0,0,0,1.14,1.91c.51.34.75.42.75.23a10,10,0,0,0-.29-1,2.07,2.07,0,0,0-1-1.39,2.49,2.49,0,0,1-.76-.8,2.06,2.06,0,0,0-.31-.58c-.22-.28-.23-.37-.11-.84a4.08,4.08,0,0,0,.1-.92c0-.26,0-.38.13-.38a4.54,4.54,0,0,1,1.78,1.35c.15.21.22.24.42.14s.24-.08.3.06a.62.62,0,0,1,0,.38.48.48,0,0,0,0,.32c.09.14.61-.18.69-.43a1,1,0,0,1,.52-.39,1,1,0,0,0,.64-1.23,4,4,0,0,0-1.2-2c-.61-.46-1-1-.88-1.35a1.33,1.33,0,0,1,.85-.82c.47-.19.81-.1.95.26l.11.28.24-.29a1.48,1.48,0,0,1,1.09-.57,5.89,5.89,0,0,0,1.07-.26c1-.35,1.38-.83,1.8-2.25.35-1.18.35-1.39,0-1.39s-.42-.18-.19-.3.13-.38-.3-.62a1.86,1.86,0,0,1-.59-.67,1.52,1.52,0,0,0-.53-.6c-.23-.1-.27-.17-.21-.42s.24-.48.77-.81l.28-.18-.51-.13c-.42-.11-.54-.1-.68,0s-.23.13-.66-.11A2.84,2.84,0,0,1,255,183c-.13-.15-.12-.19.07-.3a3.36,3.36,0,0,0,.62-.53c.33-.33.44-.39.62-.3a.39.39,0,0,1,.22.28,1,1,0,0,0,.12.39c.12.21.12.21.52,0s.4-.23.78,0,.37.29.37.46.09.29.33.35c.49.12.77.41,1.09,1.11l.29.63.48-.23.53-.27a1.16,1.16,0,0,0-.15-.46,2.65,2.65,0,0,0-1-.94,3.31,3.31,0,0,1-.8-.63c0-.06.12-.16.28-.23.34-.15.46-.4.29-.59s0-.27.13-.59a2.36,2.36,0,0,1,.29-.45l.35.11c.45.16.76-.07,1-.79.4-1,.3-2.6-.17-2.84a1.54,1.54,0,0,1-.45-.53c-.3-.56-1.26-1.27-1.58-1.17a2,2,0,0,1-1.44-.17c-.45-.22-.47-.24-.31-.47a3.58,3.58,0,0,0,.31-.76,1.78,1.78,0,0,1,.42-.77c.25-.22.41-.26,1.23-.26a7.31,7.31,0,0,0,1.25-.1,1.3,1.3,0,0,1,.75.1,2.17,2.17,0,0,0,.42.11l-.94-4.6Z"/><path class="cls-1" d="M190.17,193.56c-.07,0-.09.05,0,.11s.09.11.12.11,0-.05,0-.11A.11.11,0,0,0,190.17,193.56Z"/><path class="cls-1" d="M200.73,177.22,202,177c.68-.09.87-.15.77-.25s-.05-.17.17-.31.29-.43-.06-.35c-.18,0-.27,0-.42-.34-.31-.65-.61-1-.93-1.13l-.29-.11.26-.26.26-.26-.27,0c-.15,0-.26-.1-.25-.18s0-.13-.05-.13c-.32,0-.67.58-.52.85a.53.53,0,0,1,.06.33c-.05.13.09.18.4.15.13,0,.38.41.38.66,0,.06-.16.16-.35.22s-.32.17-.27.24,0,.18-.14.26-.19.15.16.22c.5.09.56.23.17.37-.18.06-.43.16-.56.22h0C200.38,177.26,200.42,177.27,200.73,177.22Z"/><path class="cls-1" d="M191.34,194.44a.11.11,0,1,0,0,.22.11.11,0,1,0,0-.22Z"/><path class="cls-1" d="M200.62,171.66c0,.05.08.09.17.09s.18,0,.18-.09-.08-.09-.18-.09S200.62,171.61,200.62,171.66Z"/><path class="cls-1" d="M159.19,168.43a.55.55,0,0,0-.57-.05.72.72,0,0,1-.45.06,3.67,3.67,0,0,0-1.15.16,5.06,5.06,0,0,1-2.86,0,11.61,11.61,0,0,0-1.51-.28c-.38,0-1.15-.15-1.71-.24a6.29,6.29,0,0,0-2.37,0,12.89,12.89,0,0,0-2.1.45,4.89,4.89,0,0,1-1.06.26c-.35,0-1,.21-1,.31a1.31,1.31,0,0,0,.24.31l.25.24-.37.18a1.32,1.32,0,0,1-.81.12,2.58,2.58,0,0,0-1.57.31c-.21.15-.2.17.28.29a1.14,1.14,0,0,0,.84,0c.56-.22.65,0,.13.37a3.27,3.27,0,0,1-1.3.4c-1.06.16-1.55.4-1.46.74s0,.57-.44.77l-.36.18.33.16a.61.61,0,0,0,.61,0c.3-.13.55-.07.44.11a9.71,9.71,0,0,1-2.09,1c-.57.22-.72.31-.5.31a9.22,9.22,0,0,0,2.4-.8,4.67,4.67,0,0,1,1-.35,7.08,7.08,0,0,0,1.28-.52c.72-.35.93-.41,1.12-.32a2.1,2.1,0,0,0,1.45-.27c.28-.14.43-.13,1.24.07a9.48,9.48,0,0,0,1.12.22,1.43,1.43,0,0,1,.57.26,4.33,4.33,0,0,0,.79.44c.43.17.56.4.52.95,0,.34,0,.58.2.68s0,.09-.07.09c-.27,0-.51.58-.36.84a.28.28,0,0,1,0,.39c-.17.17-.14.23.35.68a2,2,0,0,1,.53.65.23.23,0,0,0,.11.21c.06,0,0,.23-.21.47-.29.41-.55.51-.52.19,0-.07-.09-.13-.23-.13s-.31.15-.53.61a4.72,4.72,0,0,1-.78,1.14,4.4,4.4,0,0,0-.69,1,2.74,2.74,0,0,1-.47.71c-.16.17-.26.35-.22.41a.52.52,0,0,1-.07.39.46.46,0,0,0,.06.55c.1.15.14.3.08.34s-.06.21,0,.41.13.54.17.76a.59.59,0,0,0,.42.54,1,1,0,0,1,.63,1.2,1.3,1.3,0,0,0,.23,1c.23.44.27.62.18.78s-.06.47.36.77.34.3.28.51,0,.39.29.71c.46.55.65.56.36,0a3.86,3.86,0,0,1-.31-1,5.4,5.4,0,0,0-.41-1.21c-.44-.9-.5-1.17-.3-1.43s.21-.19.46-.09.3.24.37.67a3.44,3.44,0,0,0,.53,1.24,2,2,0,0,1,.38.79c0,.05.14.3.39.56a4.75,4.75,0,0,1,.72,1,1.07,1.07,0,0,1,.14,1c-.11.44-.1.48.25.84a8.54,8.54,0,0,0,1.92,1.08l.56.26,5.17-25.36A1.41,1.41,0,0,1,159.19,168.43Z"/><path class="cls-1" d="M181.46,213.62a.76.76,0,0,0,.69-.15c.62-.5,1.26-2.8,1.12-4-.07-.63-.06-.7.23-1a3.1,3.1,0,0,0,.49-.64,5.91,5.91,0,0,1,.56-.79,1.89,1.89,0,0,0,.52-1.72c-.11-.37-.17-.42-.76-.59a2.53,2.53,0,0,1-1.09-.6,1.38,1.38,0,0,0-.83-.47l-1,10Z"/><path class="cls-1" d="M201,175.41c0-.06-.06-.08-.12,0s-.12.09-.12.12.06.05.12.05A.12.12,0,0,0,201,175.41Z"/><path class="cls-1" d="M206.53,181.19c0-.19-.05-.25-.17-.2a.24.24,0,0,0-.1.4C206.42,181.54,206.53,181.46,206.53,181.19Z"/><path class="cls-1" d="M206.08,182.43h0c.16.45.45.36.45-.14s-.18-.59-.42-.36S206,182.15,206.08,182.43Z"/><path class="cls-1" d="M200.7,168.49c.15,0,.27-.05.27-.11s-.13-.14-.35,0S200.49,168.49,200.7,168.49Z"/><path class="cls-1" d="M209,183.68c0-.1.08-.21.09-.25s-.63-.2-.92-.13-.22.09.24.32S208.92,183.85,209,183.68Z"/><path class="cls-1" d="M266.62,198.56a.22.22,0,0,0,.11-.17c0-.06-.05-.08-.11,0a.24.24,0,0,0-.12.18C266.5,198.58,266.55,198.6,266.62,198.56Z"/><path class="cls-1" d="M203.48,182.66a.33.33,0,0,0,.24-.18c.07-.2-.28-.16-.36,0h0C203.31,182.64,203.34,182.68,203.48,182.66Z"/><path class="cls-1" d="M240.49,197.76a2.6,2.6,0,0,0,.11,1.33h0c.07.11.53,0,.64-.18s0-.49-.35-1S240.59,197.51,240.49,197.76Z"/><path class="cls-1" d="M142.43,173.73c-.5.11-.85.25-.85.32s.09,0,.2,0,.35-.1.52-.14a.68.68,0,0,0,.39-.16C142.73,173.69,142.62,173.68,142.43,173.73Z"/><path class="cls-9" d="M211.24,187c.18-.15.26-.32.22-.44a.58.58,0,0,1,.06-.42c.18-.32.69-.29,1.48.09a6.62,6.62,0,0,0,3.1.55,1.51,1.51,0,0,1,.79,0c.8.23,1.21.05,1.32-.59,0-.21.1-.39.14-.39s.11-.31.13-1c0-.23.06-.42.12-.42s.08-.07,0-.23-.43-.24-1.12,0a.65.65,0,0,1-.72-.05c-.38-.21-.77-.24-.88-.07s-.68,0-1-.15a1.14,1.14,0,0,1-.45-.84.59.59,0,0,0-.26-.39c-.22-.14-.24-.19-.09-.28a.7.7,0,0,1,.44-.05c.18,0,.35,0,.57-.23a1.1,1.1,0,0,1,.72-.31,1.82,1.82,0,0,0,.74-.22,2.4,2.4,0,0,1,1.93.15c.91.43,1.72.4,2-.07.17-.24.17-.29,0-.53a4.55,4.55,0,0,0-1-.72l-.87-.47.16-.3c.09-.16.14-.32.1-.36s0-.12,0-.2a.89.89,0,0,0,.12-.29c0-.17-.16-.12-1.08.27-.54.22-.62.29-.5.43a.63.63,0,0,0,.39.16c.19,0,.14.06-.2.23s-.46.21-.73,0-.26-.21-.15-.33.09-.18-.08-.24a.85.85,0,0,1-.34-.23c-.34-.42-1.39.68-1.7,1.77-.14.51-.14.54.13.73l.29.2-.52.11a2.44,2.44,0,0,1-.85,0c-.34-.09-.77,0-.77.24s-.08.07-.17,0a.42.42,0,0,0-.34.07c-.14.11-.13.2.1.62s.27.51.11.81-.38.35-.66-.1-.2-.32.06-.35.35-.24,0-.29c-.72-.11-1.1-.47-1.1-1a1.11,1.11,0,0,0-.46-.82V187l.15.07C210.94,187.19,211,187.18,211.24,187Zm6-2.3a.35.35,0,0,0,.29-.11c.11-.16.3-.13.23,0s-.58.42-.68.32h0C216.9,184.77,217,184.65,217.2,184.65Zm-4-.09c.58,0,1,.09.92.22s-.63.11-1-.07h0l-.35-.15Z"/><path class="cls-9" d="M211.23,174.49c-.1-.52.08-.69.54-.53s.41.11.55,0,.14-.2-.11-.45-.25-.3-.11-.39a1.91,1.91,0,0,1,.79,0c.61.06,1.38-.17,1.25-.37s-.83-.23-1.43-.11a1.3,1.3,0,0,1-1.07-.07c-.64-.27-.71-.58-.28-1.16.56-.73.66-1,.5-1.15s-.46-.18-1,.38l-.38.35v1.68h.09c.12,0,.22.06.22.14s0,.18-.28.09h0v2.54a.47.47,0,0,0,.15-.06C211.15,175,211.29,174.85,211.23,174.49Z"/><path class="cls-9" d="M226.3,182.78a1.91,1.91,0,0,1-.36-.47c-.16-.3-.16-.32,0-.26s.53,0,.53-.17a1.1,1.1,0,0,0-.24-.42c-.2-.27-.27-.3-.46-.21s-.22.08-.22,0-.21-.21-.46-.33c-.56-.27-.76-.57-.59-.88a.74.74,0,0,1,.81-.28c.27.16.35-.08.12-.38-.54-.72-1.3-.67-2.24.14-.6.53-.66.67-.31.85a.38.38,0,0,1,.23.28,1.87,1.87,0,0,0,.46.63,1.58,1.58,0,0,1,.61,1.58l-.05.57.79.39.83.39.38-.16h0c.3-.15.34-.23.34-.65A.8.8,0,0,0,226.3,182.78Z"/><path class="cls-9" d="M225.52,208.4l-.19.38a3.79,3.79,0,0,1-1.71,1.43c-.49.1-.67.53-.56,1.33a1.26,1.26,0,0,1-.29,1.17,1.25,1.25,0,0,0-.28,1.13c.08.65.13.75.46.92h0c.28.16.23.16.75,0s.66-.42,1-1.58c.09-.36.42-1.3.71-2.09.56-1.47.6-1.76.28-2.43Z"/><path class="cls-9" d="M217,184.9c.1.1.6-.14.68-.32s-.12-.2-.23,0a.35.35,0,0,1-.29.11c-.22,0-.3.12-.16.25Z"/><path class="cls-9" d="M213.09,184.71c.4.18.94.21,1,.07s-.34-.23-.92-.22h-.46l.35.15Z"/><path class="cls-9" d="M223.18,208.74s.06-.05.06-.11a.12.12,0,0,0-.13-.11c-.06,0-.09,0-.05.11A.28.28,0,0,0,223.18,208.74Z"/><path class="cls-9" d="M233.85,164.86a.7.7,0,0,0-.45-.11,2.32,2.32,0,0,1-.76-.17,1.34,1.34,0,0,0-1.34,0c-.27.26-.09.3,2.22.47.85.06.94.09.91.28s.11.28.23.09a.44.44,0,0,1,.23-.08l0-.31a4,4,0,0,0-.56-.05A.7.7,0,0,1,233.85,164.86Z"/><path class="cls-9" d="M211.67,165.09c.55-.2.36-.34-.47-.34a4.57,4.57,0,0,1-.72-.05v.35A2.22,2.22,0,0,0,211.67,165.09Z"/><path class="cls-9" d="M211.06,165.84c0,.06.07.09.17,0s.15-.08,0-.21a.55.55,0,0,0-.28-.16,1.54,1.54,0,0,1-.48-.19v.49l.16,0C210.91,165.74,211.06,165.76,211.06,165.84Z"/><path class="cls-9" d="M221.9,168.08h0a3.09,3.09,0,0,0,.81.17h.35l-.26-.17c-.34-.23-.33-.49,0-.91a2.88,2.88,0,0,1,1.79-.79c.9-.15,1.05-.21,1-.33s-.27-.09-.55-.05-.82.1-1.23.13a4.65,4.65,0,0,0-1.11.21c-.33.14-.8.57-.81.73s-.1.16-.23.25-.19.17-.13.17,0,.08,0,.17S221.31,167.85,221.9,168.08Z"/><path class="cls-9" d="M234.45,166a8.81,8.81,0,0,0-2.49.34s0,.12.08.2,0,.33-.7.35a1.62,1.62,0,0,0-.85.22c-.85.58-1.17.71-1.54.64s-.38,0-.38.07a1,1,0,0,0,.58.72c.43.21.61.51.51.88a1,1,0,0,1-.93.55c-.15,0-.13-.11.07-.39s.3-.31-.55-1.4c-.66-.83-.87-1-1.34-.85-.82.2-.77.84.11,1.24.28.13.51.29.51.35s-.41.34-.55.21a16.37,16.37,0,0,0-3.54-.78c-.12.11.43.29.6.19s.39.24.3.38a.16.16,0,0,1-.19,0,3,3,0,0,0-.92.06c-.63.1-.85.1-1,0s-.87,0-1.68.35c-.56.27-.71.31-.92.21s-.23-.19-.21-.26-.12-.15-.31-.17c-.35,0-.34,0-.1.5.06.15,0,.18-.76.36-.36.09-.49.17-.44.28s-.32.4-.68.27-.63-.12-.26.06.39.25,0,.38a1.44,1.44,0,0,1-1.38-.64,1.13,1.13,0,0,0-.48-.44c-.23-.1-.28-.17-.19-.26s.31-.09.8,0,.87.16,1.11.19c.53.08,1.14-.13,1-.35a6.67,6.67,0,0,0-2.62-.77,1.08,1.08,0,0,1-.76-.2,4.26,4.26,0,0,0-2.4-.46,4.74,4.74,0,0,0-1.51.25l-.05,0v2.55l.38-.35c.54-.56.77-.65,1-.38s.06.42-.5,1.15c-.43.58-.36.89.28,1.16a1.3,1.3,0,0,0,1.07.07c.6-.12,1.31-.07,1.43.11s-.64.43-1.25.37a1.91,1.91,0,0,0-.79,0c-.14.09-.12.15.11.39s.26.3.11.45-.23.14-.55,0-.64,0-.54.53c.06.36-.08.55-.6.8a.47.47,0,0,1-.15.06v5.72a1.11,1.11,0,0,1,.46.82c0,.56.38.92,1.1,1,.32.05.3.24,0,.29s-.26,0-.06.35.46.48.66.1.15-.36-.11-.81-.24-.51-.1-.62a.42.42,0,0,1,.34-.07c.09,0,.17,0,.17,0s.43-.33.77-.24a2.44,2.44,0,0,0,.85,0l.52-.11-.29-.2c-.27-.19-.27-.22-.13-.73.31-1.09,1.36-2.19,1.7-1.77a.85.85,0,0,0,.34.23c.17.06.18.11.08.24s-.08.19.15.33.31.17.73,0,.39-.22.2-.23a.63.63,0,0,1-.39-.16c-.12-.14,0-.21.5-.43.92-.39,1.1-.44,1.08-.27a.89.89,0,0,1-.12.29c-.05.08-.07.17,0,.2s0,.2-.1.36l-.16.3.87.47a4.55,4.55,0,0,1,1,.72c.16.24.16.29,0,.53-.32.47-1.13.5-2,.07a2.4,2.4,0,0,0-1.93-.15,1.82,1.82,0,0,1-.74.22,1.1,1.1,0,0,0-.72.31c-.22.2-.39.27-.57.23a.7.7,0,0,0-.44.05c-.15.09-.13.14.09.28a.59.59,0,0,1,.26.39,1.14,1.14,0,0,0,.45.84c.32.19.91.28,1,.15s.5-.14.88.07a.65.65,0,0,0,.72.05c.69-.27,1-.28,1.12,0s.09.23,0,.23-.12.19-.12.42c0,.7,0,1-.13,1s-.1.18-.14.39c-.11.64-.52.82-1.32.59a1.51,1.51,0,0,0-.79,0,6.62,6.62,0,0,1-3.1-.55c-.79-.38-1.3-.41-1.48-.09a.58.58,0,0,0-.06.42c0,.12,0,.29-.22.44s-.3.24-.61.09l-.15-.07v30.79a.83.83,0,0,1,.15.69.61.61,0,0,0,.23.67h0c.36.33.26.32,1.17.11a2.09,2.09,0,0,1,1.17-.06c.38.1.51.07,1-.17a9.28,9.28,0,0,0,2.46-2.26,1.79,1.79,0,0,1,.51-.52c.18-.09.21-.2.16-.5-.1-.57,0-.89.43-1.05.94-.37,1.21-.9.81-1.63a2.57,2.57,0,0,1-.24-.56,3,3,0,0,1,.53-.67,3,3,0,0,0,.52-.66c0-.06.27-.23.61-.39a2.22,2.22,0,0,0,1.26-1.06,1.07,1.07,0,0,0,.09-1,2.31,2.31,0,0,1-.06-.83,1.27,1.27,0,0,0-.23-.82,2.86,2.86,0,0,1,.56-3.8c.4-.42.85-.92,1-1.1a8.45,8.45,0,0,1,1.15-1c.88-.66.93-.71,1.81-2.32s.91-1.7.84-2.09l-.08-.44-.33.16a8.32,8.32,0,0,1-1.43.39c-1,.21-1.14.22-1.46.06a.81.81,0,0,1-.43-.47,3.41,3.41,0,0,0-1.32-1.63c-.48-.36-.71-.62-.76-.86a2.38,2.38,0,0,0-.45-.78c-.52-.61-.65-.86-.65-1.28a1.22,1.22,0,0,0-.27-.69,10.42,10.42,0,0,1-.73-1.22c-.26-.49-.68-1.22-1-1.64-.57-.89-.49-1.21.11-.49l.39.47.06-.32c.08-.45.26-.35.47.26a7.84,7.84,0,0,0,1.54,2.16,3.23,3.23,0,0,1,.47.95,2.42,2.42,0,0,0,.65,1.07,2.09,2.09,0,0,1,.47.56,1.41,1.41,0,0,0,.33.46,1.64,1.64,0,0,1,.42,1,4,4,0,0,0,.31,1c.21.4.24.41.64.34a18.25,18.25,0,0,0,2.81-1.11,1.91,1.91,0,0,0,.57-.44,1.53,1.53,0,0,1,1.06-.58c.3,0,1.19-.83,1.49-1.39a3.49,3.49,0,0,1,.53-.69c.17-.15.31-.32.31-.39s-.73-.72-1.24-1c-.34-.17-.54-.45-.49-.7s-.08-.33-.48.1a2.26,2.26,0,0,1-.75.57c-.31.07-1-.24-.91-.43a.42.42,0,0,0-.08-.28c-.09-.14-.13-.13-.27,0s-.51.15-.65-.35a3,3,0,0,0-.48-.88c-.28-.37-.34-.53-.28-.79s.15-.35.25-.38c.3-.11.8.23,1,.7s.34.52.92.8.73.33,1.22.2.53-.13.87.24a1.69,1.69,0,0,0,.63.46,14.45,14.45,0,0,0,3.21,0,.93.93,0,0,1,1,.46c0,.12.12.22.18.22a1.79,1.79,0,0,1,.45.28.93.93,0,0,0,.54.25c.31,0,.34.23,0,.34l-.27.09.31.29c.47.44,1.06.36,1.07-.14a.24.24,0,0,1,.15-.2c.2-.06.4.49.31.86s.07,1.05,1.29,3.56L235,166A1.08,1.08,0,0,1,234.45,166Zm-8.31,18h0l-.38.16-.83-.39-.79-.39.05-.57a1.58,1.58,0,0,0-.61-1.58,1.87,1.87,0,0,1-.46-.63.38.38,0,0,0-.23-.28c-.35-.18-.29-.32.31-.85.94-.81,1.7-.86,2.24-.14.23.3.15.54-.12.38a.74.74,0,0,0-.81.28c-.17.31,0,.61.59.88.25.12.46.27.46.33s.07.08.22,0,.26-.06.46.21a1.1,1.1,0,0,1,.24.42c0,.15-.31.25-.53.17s-.17,0,0,.26a1.91,1.91,0,0,0,.36.47.8.8,0,0,1,.18.62C226.48,183.82,226.44,183.9,226.14,184.05Z"/><path class="cls-9" d="M210.51,172.82c.24.09.28.08.28-.09s-.1-.15-.22-.14h-.09v.21Z"/><path class="cls-9" d="M228.46,212.58a.11.11,0,1,0,0,.22.11.11,0,0,0,0-.22Z"/><path class="cls-9" d="M228.92,204.78a.11.11,0,1,0,.12.11A.12.12,0,0,0,228.92,204.78Z"/><path class="cls-9" d="M229.27,212.2c-.07,0-.12.09-.12.12s0,0,.12,0a.11.11,0,0,0,.11-.11C229.38,212.18,229.33,212.16,229.27,212.2Z"/><path class="cls-9" d="M164.1,179a.66.66,0,0,1,.76,0,1.19,1.19,0,0,0,.66.11c.15,0,.31,0,.35,0s-.13.14-.38.18a2,2,0,0,0-1.52,1.16c-.41.65-.44.73-.27.9s.2.17.42,0a2.43,2.43,0,0,0,.54-.74h0A1.8,1.8,0,0,1,166,179.6c.34,0,.34.05,0,.42l-.24.29.25.19a.42.42,0,0,0,.53.06.67.67,0,0,0,.35-.33c0-.16.14-.2.34-.15a.31.31,0,0,0,.39-.12c.24-.4-.36-.91-.81-.69a.46.46,0,0,1-.64-.49.62.62,0,0,0-.15-.49c-.24-.3-.6-.33-1.4-.12a4.54,4.54,0,0,1-.73.13c-.11,0-.17,0-.14.09s0,.11,0,.11a1.24,1.24,0,0,0-.38.21l-.29.21.32.12A.73.73,0,0,0,164.1,179Z"/><path class="cls-9" d="M168.82,180.52c.25-.16.25-.2.08-.29s-1,.1-1,.31S168.48,180.74,168.82,180.52Z"/><path class="cls-9" d="M167.07,181c-.14-.14-.23-.13-.71.07s-.73.55-.3.55a2.46,2.46,0,0,0,.71-.23C167.18,181.15,167.22,181.1,167.07,181Z"/><path class="cls-9" d="M168.84,195.83a.32.32,0,0,0,.07.19.11.11,0,0,0,.14,0s0-.11-.08-.18S168.84,195.76,168.84,195.83Z"/><path class="cls-9" d="M171.79,193.63c-.11,0-.15,0-.11,0a.25.25,0,0,0,.18.11C172,193.78,172,193.7,171.79,193.63Z"/><path class="cls-9" d="M172.29,196.86c-.14,0-.21,0-.17.07s0,.14-.05.22h0c-.1.12-.08.15.1.15a.29.29,0,0,0,.29-.22C172.51,196.91,172.47,196.86,172.29,196.86Z"/><path class="cls-9" d="M167.8,192.35c-.55,0-.59,0-.48.21s0,.38-.62.37c-.42,0-.44,0-.19.09a1.21,1.21,0,0,0,.6,0,.92.92,0,0,1,.51,0h0c.21.11,1.7-.18,1.62-.31A2.38,2.38,0,0,0,167.8,192.35Z"/><path class="cls-9" d="M172.79,193.56c.06,0,.09-.05.05-.11s-.1-.11-.13-.11-.05,0-.05.11A.12.12,0,0,0,172.79,193.56Z"/><path class="cls-9" d="M172.43,185.7c-.06,0-.11.09-.11.12s.05,0,.11,0a.11.11,0,0,0,.12-.11C172.55,185.68,172.5,185.66,172.43,185.7Z"/><path class="cls-9" d="M172.26,193.56s.06-.05.06-.11a.12.12,0,0,0-.13-.11c-.07,0-.09,0-.05.11A.28.28,0,0,0,172.26,193.56Z"/><path class="cls-9" d="M170.19,192.9c-.31,0-.48.14-.34.27a.49.49,0,0,0,.58-.13C170.46,193,170.37,192.9,170.19,192.9Z"/><path class="cls-9" d="M171,192.86c-.09,0-.17.08-.17.11s.08,0,.17,0,.18,0,.18-.11S171.08,192.83,171,192.86Z"/><path class="cls-9" d="M165.09,189.05a.61.61,0,0,0,.22-.16c.16-.15.15-.17,0-.17a.2.2,0,0,0-.22.17C165.05,189,165.07,189.05,165.09,189.05Z"/><path class="cls-9" d="M175.06,228.73a3.56,3.56,0,0,0-.85-.42c-.09,0-.21.13-.28.29-.14.35,0,.55.62.76h0a1.62,1.62,0,0,0,.71.09c.18,0,.52,0,.75,0h.42l-.34-.12A7.06,7.06,0,0,1,175.06,228.73Z"/><path class="cls-9" d="M172.25,170.47a.85.85,0,0,0-1,.31c-.27.29-.08.39.46.25a1,1,0,0,1,.73,0c.26.13.31.13.4,0S172.73,170.62,172.25,170.47Z"/><path class="cls-9" d="M167.62,191c.16,0,.29-.05.29-.1s-.44-.1-.52,0h0C167.36,191,167.46,191,167.62,191Z"/><path class="cls-9" d="M165.91,189.12s0-.14,0-.24-.1-.16-.13-.13,0,.13,0,.24S165.87,189.15,165.91,189.12Z"/><path class="cls-9" d="M165.35,190s0-.09-.07-.11-.1-.14-.07-.26,0-.22-.06-.22c-.21,0-.24.27-.05.47S165.31,190,165.35,190Z"/><path class="cls-9" d="M168.31,195.76s-.05.05-.05.11a.11.11,0,0,0,.12.11c.07,0,.09,0,.05-.11A.28.28,0,0,0,168.31,195.76Z"/><path class="cls-9" d="M165.82,191.53a5.34,5.34,0,0,0-2.24-.81c-.66,0-1.59.21-1.59.44s0,.12.57-.08,1-.11,1.86.4c.43.26.55.39.47.49s0,.14.36.14a1.82,1.82,0,0,1,.54.07c.08.08.35.06.73,0S166.85,192.05,165.82,191.53Z"/><path class="cls-9" d="M166.72,191.36c.14,0,.26-.05.26-.11s-.12-.14-.35,0S166.51,191.36,166.72,191.36Z"/><path class="cls-9" d="M180.6,203.62c-.31.19-.41.1-.36-.32,0-.15-.13-.3-.48-.48-.55-.29-.69-.27-1.3.2a.51.51,0,0,1-.58.12c-.17-.06-.21-.11-.1-.12a.91.91,0,0,0,.44-.26c.24-.24.24-.28.07-.44s-.48-.22-1,.28c-.4.34-.56.42-.66.33s0-.23.34-.55c.55-.5.81-.9.64-1a1.4,1.4,0,0,1-.25-.56,2.08,2.08,0,0,0-2.14-1.48,2,2,0,0,1-1.53-.67,4.12,4.12,0,0,0-2.68-1.54,3.71,3.71,0,0,1-1.92-.49.68.68,0,0,0-1-.1c-.37.26-.43.42-.23.61s0,.19-.1.37-.23.26-.35,0a1.72,1.72,0,0,1,.21-1.31c.26-.3-.28-.2-.58.1a.88.88,0,0,1-.51.28,1.23,1.23,0,0,0-.92.73,1.57,1.57,0,0,1-.45.5c-.25.16-.3.15-.62-.09a1.13,1.13,0,0,0-1.28-.1.68.68,0,0,1-.74,0,1.88,1.88,0,0,1-.58-.55c-.25-.39-.25-.41-.08-1.45a5.49,5.49,0,0,0,.12-1.2c-.09-.2-.8-.28-1.58-.18s-.89,0-.39-1c.73-1.49.79-1.65.62-1.75s-.41-.11-.92,0a.65.65,0,0,0-.56.49c-.16.47-.62.78-1.37.94-1,.2-1.47-.18-1.82-1.44l-.18-.68.36-1.06c.2-.58.42-1.19.48-1.34a1.47,1.47,0,0,1,.71-.58c.33-.16.79-.39,1-.52a1,1,0,0,1,1.14-.06,3.51,3.51,0,0,0,.67.22c.3.06.37,0,.48-.2a1,1,0,0,1,.53-.39,1.14,1.14,0,0,1,1,.1,1.58,1.58,0,0,0,.78.16.56.56,0,0,1,.51.19.52.52,0,0,1,.22.62c-.09.43.22,1.4.47,1.49.1,0,.23-.05.34-.25s.15-.47,0-1.28-.11-1,.08-1.33a6.16,6.16,0,0,1,2-1.51,1.49,1.49,0,0,0,1.08-1.38c0-.61.23-1,.38-.6.07.19.09.18.15-.06a1.13,1.13,0,0,1,.47-.52,4.76,4.76,0,0,0,.7-.53,2.39,2.39,0,0,1,.81-.43c.88-.26,1.14-.41,1.21-.73s.24-.37,1.27-.8a13.29,13.29,0,0,1,1.6-.57c.58-.1.66.12.13.33s-.79.4-.61.51a1.27,1.27,0,0,0,.68-.17,4.72,4.72,0,0,1,.88-.33,2.3,2.3,0,0,0,.69-.3l.35-.22-.45.07a1.1,1.1,0,0,1-1.23-.47c-.12-.25-.11-.32.08-.46a1.83,1.83,0,0,0,.37-.42c.13-.23.11-.24-.31-.24a3.61,3.61,0,0,0-1.15.32c-.67.3-.85.32-.85.09a4.35,4.35,0,0,1,1-.55,3.51,3.51,0,0,1,2.06-.47,5.6,5.6,0,0,0,2.8-.56q1.4-.61.87-1.08a.89.89,0,0,0-1-.05c-.34.17-.54,0-.23-.25s.24-.16,0-.6-.24-.51-.16-.63a.42.42,0,0,0,0-.39.51.51,0,0,1-.06-.37.6.6,0,0,0,0-.39l-.1-.24-.4.28a6.34,6.34,0,0,1-.82.49l-.42.21-.26-.26c-.21-.22-.23-.3-.12-.49a.64.64,0,0,0,.06-.44c-.08-.26-.81-.63-1.43-.72a1.11,1.11,0,0,0-1.36.61,1.94,1.94,0,0,1-.55.67c-.29.2-.33.28-.26.6.1.5-.27.95-1.17,1.4-.6.31-.7.41-.91.93s-.58.88-1,.89c-.08,0-.22-.14-.32-.32s-.16-.37.05-.87.24-.6-.28-.71a6.89,6.89,0,0,1-1.05-.4,6.53,6.53,0,0,0-1-.39.62.62,0,0,1-.46-.36.93.93,0,0,0-.28-.38c-.44-.26.76-1.25,2.17-1.79.43-.17.64-.31.64-.44s.1-.2.52-.22a5.12,5.12,0,0,0,1-.15l.5-.13-.25-.26c-.3-.3-.15-.45.26-.27a.65.65,0,0,0,.64-.05,2.73,2.73,0,0,1,1-.18,1.68,1.68,0,0,0,1.54-.64c.42-.44.45-.52.19-.61a1,1,0,0,0-1.1.22c-.68.68-1.68.87-1.23.22.16-.23.16-.28,0-.33a.53.53,0,0,0-.33,0c-.25.09-.45-.34-.29-.63s.09-.27,0-.35-.3,0-.78.18c-.64.3-.65.31-.4.47s.14.55-.43.7a2.59,2.59,0,0,0-.71.32c-.29.21-.29.21-.61,0a1,1,0,0,0-.82-.15,2.5,2.5,0,0,1-1-.09,1.49,1.49,0,0,0-1.1,0,1.79,1.79,0,0,0-.8.45l-.25.3-.19-.35c-.19-.35-.19-.35-.88-.29a2.73,2.73,0,0,1-.89,0c-.2-.07-.2-.08,0-.23s.22-.16,0-.16a4.82,4.82,0,0,1-1-.23,2.93,2.93,0,0,0-1.29-.17h-.16l-5.17,25.36,1,.45.5-.18c.46-.17.54-.17.85,0a2,2,0,0,1,.61.51,2.38,2.38,0,0,0,.88.61c.69.29,1,.32,1.16.14s.17,0,.26.26a1.8,1.8,0,0,0,.36.58.68.68,0,0,1,.23.45.5.5,0,0,0,.15.36c.07.06.36.28.62.5a2.18,2.18,0,0,0,.6.39,2.41,2.41,0,0,1,.6.23c.49.24.64.22.64-.1s.56-.42.93-.26.28.16.17.35-.08.22,0,.22.1.06.11.14.07.36.14.63a2.25,2.25,0,0,1-.68,2.14c-1,1.21-1.26,1.93-.69,2.07.23.06.22.08-.12.55s-.34.53-.24.88a1.11,1.11,0,0,0,.4.56,3.77,3.77,0,0,1,1,1.63,3.8,3.8,0,0,0,.57.94,6.89,6.89,0,0,1,.75,1.15c.29.57.4.67,1.15,1a4.09,4.09,0,0,1,2.07,1.93,4.45,4.45,0,0,1,.12,1.16,22.48,22.48,0,0,0,.28,4.75,6.35,6.35,0,0,1,.12,2c-.05.76,0,1.14.06,1.24a1.33,1.33,0,0,1,.16.65c0,.42.1.57.51,1s.46.53.41.65a.69.69,0,0,0,.17.5c.29.39.23,1-.11,1.07s-.28.18.11.39a1.32,1.32,0,0,1,.54.72,3.42,3.42,0,0,0,1,1.52.69.69,0,0,1,.34.34c.11.19.22.25.37.21a.59.59,0,0,1,.41,0h0c.28.15.91-.27.73-.48a1.16,1.16,0,0,1,.1-1.23c.26-.49.21-.93-.14-1.06a1,1,0,0,1-.37-.34c-.19-.27-.19-.3.11-.66s.27-.45.23-.55a.42.42,0,0,1,.12-.39c.19-.19.18-.2,0-.27a.93.93,0,0,1-.43-.41c-.24-.45-.07-.61.42-.37a1.08,1.08,0,0,0,.4.15.71.71,0,0,0,.18-.75c-.18-.32-.05-.44.47-.44a1.67,1.67,0,0,0,1.38-.63c.1-.22.08-.36-.12-.74a1.6,1.6,0,0,0-.53-.6c-.15-.06-.27-.17-.27-.23s.33-.14,1,.08,1,.1,1.51-.73a9.17,9.17,0,0,1,.63-.95,1.23,1.23,0,0,0,.27-.61,1,1,0,0,1,.18-.52,1.44,1.44,0,0,0,.27-1.33c-.13-.36-.12-.4.26-.7a4.26,4.26,0,0,1,.87-.52,1.82,1.82,0,0,0,.57-.33c0-.07.22-.1.47-.06l1-10-.57-.08C181,203.46,180.84,203.47,180.6,203.62Zm-11.7-23.39c.17.09.17.13-.08.29s-.91.24-.91,0S168.65,180.1,168.9,180.23Zm-2.13,1.12a2.46,2.46,0,0,1-.71.23c-.43,0-.25-.32.3-.55s.57-.21.71-.07S167.18,181.15,166.77,181.35Zm-3.38-2.64a1.24,1.24,0,0,1,.38-.21s.06-.05,0-.11,0-.1.14-.09a4.54,4.54,0,0,0,.73-.13c.8-.21,1.16-.18,1.4.12a.62.62,0,0,1,.15.49.46.46,0,0,0,.64.49c.45-.22,1.05.29.81.69a.31.31,0,0,1-.39.12c-.2-.05-.29,0-.34.15a.67.67,0,0,1-.35.33.42.42,0,0,1-.53-.06l-.25-.19L166,180c.31-.37.31-.42,0-.42a1.8,1.8,0,0,0-1.35,1.07h0a2.43,2.43,0,0,1-.54.74c-.22.14-.26.14-.42,0s-.14-.25.27-.9a2,2,0,0,1,1.52-1.16c.25,0,.42-.12.38-.18s-.2-.08-.35,0a1.19,1.19,0,0,1-.66-.11.66.66,0,0,0-.76,0,.73.73,0,0,1-.68.06l-.32-.12Z"/><path class="cls-9" d="M165,166.88l-.52-.15a2.87,2.87,0,0,0-2.53.35c-.89.46-.94.5-.75.68a.46.46,0,0,0,.38.12,19,19,0,0,1,2.72-.87Z"/><path class="cls-9" d="M172.78,194a.23.23,0,0,0-.12.17c0,.06.06.08.12,0a.27.27,0,0,0,.12-.18C172.9,193.93,172.84,193.91,172.78,194Z"/><path class="cls-9" d="M177.82,227.54c-.57,0-.77,0-.69.11s0,.11-.08.11-.06.06.07.13.25.08.36-.06.18-.18.24-.18,0,.06-.05.13a.47.47,0,0,0-.14.22h0c0,.15.25.1.54-.12S178.34,227.57,177.82,227.54Z"/><path class="cls-9" d="M171,166.73a2.41,2.41,0,0,0-1.12.4c-.06.11-.22.14-.52.1l-.43-.07.32.18c.18.09.32.22.32.28h0c0,.33,1.1-.13,1.34-.56C171,166.88,171,166.73,171,166.73Z"/><path class="cls-9" d="M169.43,168.55a1.06,1.06,0,0,0-.6.06c-.28.1-.32.16-.21.28h0c.16.19.19.19.67-.06S169.68,168.63,169.43,168.55Z"/><path class="cls-9" d="M167.33,167.94l.23-.36a1.52,1.52,0,0,0,.23-.44c0-.18-.44-.06-.7.2s-.5.31-.53.07c0-.07,0-.18,0-.25s-.12-.06-.29.05-.34.16-.88,0a3.22,3.22,0,0,0-2.09.15c-.4.16-.4.17-.12.24s.37.27-.06.33c-.25,0-.15.06.35.11s.7.11.7.17-.36.13-.81.16l-.8.06.57.24a6.16,6.16,0,0,0,.86.29h0a1.79,1.79,0,0,0,1.24-.15,1.37,1.37,0,0,1,1.1-.1,1.42,1.42,0,0,0,1.17-.15l.61-.26-.37-.19Z"/><path class="cls-9" d="M165.3,193.06c-.24-.18-.76-.22-.76-.06s.07.13.15.16a1.84,1.84,0,0,0,.49.06C165.51,193.22,165.52,193.22,165.3,193.06Z"/><path class="cls-9" d="M185,163.43l-.57.06c-.31,0-1.28.11-2.15.17-1.67.1-4.22.32-4.27.37a8.71,8.71,0,0,0,2,.11c.37-.09.5.13.17.29a3.08,3.08,0,0,1-1.25.07c-1.08-.07-1.41,0-1.11.25s.08.35-.44.28-.44,0-.2.06c.49.19.09.38-.82.37-.72,0-.78,0-.54.14a1.86,1.86,0,0,0,.9.09,1.64,1.64,0,0,1,.93.1h0l.29.17.68-.33a4.09,4.09,0,0,1,.85-.33,3.66,3.66,0,0,0,.81-.33,3.19,3.19,0,0,1,.91-.33,9.64,9.64,0,0,0,2.89-.79Z"/><path class="cls-9" d="M179.6,169.25a.59.59,0,0,1-.27-.55c0-.35,0-.38-.56-.54a1.88,1.88,0,0,1-.83-.48c-.22-.26-.3-.29-.5-.19s-.38.16-1-.21-.6-.33-1-.26a2,2,0,0,0-.81.39c-.5.41-.67.2-.21-.26l.33-.34-.46.08c-.59.1-1.57.76-1.57,1.06s.68.33,1.06.27a2.81,2.81,0,0,1,.94.05,1.18,1.18,0,0,0,.91-.06c.33-.16.37-.15.74.06a2.54,2.54,0,0,1,.7.72,1.43,1.43,0,0,0,.39.49.82.82,0,0,1,.31.16c.22.15.21.16-.12.28a.76.76,0,0,1-.61,0,.88.88,0,0,0-1,.38c-.06.16-.18.17-.71.11-.69-.08-1.31.1-1,.28a1,1,0,0,0,.56,0c.66-.18.88-.13,1.12.23a2.7,2.7,0,0,0,.68.6h0c.45.26,1,.35,1.14.18s-.1-.18-.29-.28c-.6-.34-.17-.55.48-.23.33.16.35.16.47-.1s.09-.33-.06-.6-.17-.35.05-.46.33-.07.69.11.69.22.92-.13S180.38,169.77,179.6,169.25Z"/><path class="cls-9" d="M179.38,177.78c-.45-.09-.61-.38-.37-.63s.13-.19.05-.19a4.91,4.91,0,0,0-.94.76l-.81.76.43.05h0a5.2,5.2,0,0,0,1.79,0c.4-.1.42-.13.3-.38A.68.68,0,0,0,179.38,177.78Z"/><path class="cls-9" d="M184.6,164.41a7.64,7.64,0,0,1-2.07.56l-1.05.11s-.07.12-.08.27c0,.36.23.43,1.55.44,1,0,1.09,0,1.37.28s.77,1,.69,1.24.05.2.22.27a.82.82,0,0,1,.3,1,2.47,2.47,0,0,1-.67.53c-.65.38-.9.78-.7,1.12a.55.55,0,0,1,0,.54c-.21.48.14,1.07.88,1.44h0a3.14,3.14,0,0,0,.37.18l.81-8.45A4.56,4.56,0,0,0,184.6,164.41Z"/><path class="cls-9" d="M173.13,194.83a.21.21,0,0,0-.12.11s.05.05.12.05a.11.11,0,0,0,.11-.12C173.24,194.81,173.19,194.79,173.13,194.83Z"/><path class="cls-9" d="M175.39,164.79a1.17,1.17,0,0,0,1.05-.17c.4-.22.42-.24.21-.39a1.66,1.66,0,0,0-1.43.19C174.81,164.63,174.83,164.67,175.39,164.79Z"/><path class="cls-9" d="M178.46,178.72c-.06,0-.11.07-.11.16s0,.17,0,.17.08-.08.11-.17S178.52,178.72,178.46,178.72Z"/><path class="cls-9" d="M173.76,195.54s0,.05,0,.11a.11.11,0,0,0,.12.11c.07,0,.09,0,0-.11S173.79,195.54,173.76,195.54Z"/><path class="cls-9" d="M175,166.48h0l1.57.12a1.7,1.7,0,0,0,.58-.19l.4-.21-.33-.08a5.82,5.82,0,0,0-1.16,0,2,2,0,0,1-1.27-.16c-.38-.18-.51-.19-.78-.09s-.54.41-.43.5S174.28,166.43,175,166.48Z"/><path class="cls-9" d="M172.79,166.79c-.48-.15-1.62.25-1.45.5h0c0,.07.16.08.26,0a6.16,6.16,0,0,1,.69-.16C172.9,167.08,173.14,166.9,172.79,166.79Z"/><path class="cls-9" d="M268.73,205.37a1,1,0,0,0-.37-.43l.21,1.05.06,0C268.93,205.76,268.93,205.76,268.73,205.37Z"/><path class="cls-9" d="M278.33,207.14c.16.18.35.22.35.07s-.08-.13-.18-.17C278.21,206.94,278.18,207,278.33,207.14Z"/><path class="cls-9" d="M282,210.6c.12,0,.11,0-.14-.5s-.33-.28-.1.21C281.8,210.47,281.91,210.6,282,210.6Z"/><path class="cls-9" d="M278.88,207c0,.11.09.15.11.09a.65.65,0,0,0-.07-.38q-.1-.27-.12-.09a1,1,0,0,0,.08.38Z"/><path class="cls-9" d="M279,207.58h0c.08.1.17.15.2.12s-.08-.28-.22-.28S278.94,207.48,279,207.58Z"/><path class="cls-9" d="M280.65,221.38c-.52.2-.74.49-.59.75s.08.26-.16.44-.25.24-.21.28h0a.22.22,0,0,0,.12.07,3.67,3.67,0,0,0,1.07-.66,6.44,6.44,0,0,1,.9-.59,1.41,1.41,0,0,0,.38-.23.87.87,0,0,1,.08-.23c.06-.16,0-.17-.17-.06s-.28.07-.55-.23a.71.71,0,0,1-.24-.7c.05-.25,0-.39-.12-.5s-.19-.11-.12.42C281.15,220.91,281.05,221.22,280.65,221.38Z"/><path class="cls-9" d="M280.08,212.85c.56.57.8.74.8.52a1.3,1.3,0,0,0-.35-.41,4.32,4.32,0,0,1-.64-.79c-.34-.54-.4-.57-.4-.2a1.86,1.86,0,0,0,.59.88Z"/><path class="cls-9" d="M275.31,204.57c0-.09-.15,0-.39.18a2.19,2.19,0,0,1-.84.41l-.44.08.29.15h0c.37.2.35.2.81-.12S275.31,204.8,275.31,204.57Z"/><path class="cls-9" d="M274.84,203.84a1.59,1.59,0,0,1,.56.46h0c.11.16.22.23.24.16.09-.25-.92-1-1.1-.85C274.51,203.64,274.64,203.74,274.84,203.84Z"/><path class="cls-9" d="M276.38,205.74a.22.22,0,0,0,.23.07c.07,0,0-.14-.05-.25a4.24,4.24,0,0,1-.31-.4c-.12-.19-.13-.18-.06.11A1.52,1.52,0,0,0,276.38,205.74Z"/><path class="cls-9" d="M278,206.43a.71.71,0,0,0,.33.22c.06,0,0-.13-.15-.28-.32-.32-.49-.27-.18.06Z"/><path class="cls-9" d="M274.4,225.24c.48.29,1.52,0,2.34-.74a1.61,1.61,0,0,1,.66-.37.82.82,0,0,0,.48-.26,2.3,2.3,0,0,1,.69-.46c.51-.22.64-.42.43-.71s-.2-.17-.9.34a10.16,10.16,0,0,1-1.62.88c-1.72.68-2.41,1.12-2.08,1.32Z"/><path class="cls-9" d="M277.11,205.88a.76.76,0,0,0,.33.22c.06,0,0-.1-.09-.22a.76.76,0,0,0-.33-.22c-.06,0,0,.1.09.22Z"/><path class="cls-9" d="M277.28,206.32c-.06,0,0,.09,0,.22s.19.22.24.22,0-.1,0-.22S277.34,206.32,277.28,206.32Z"/><path class="cls-9" d="M286.85,211.23c.19-.13.18-.15-.09-.27s-.47,0-.35.24S286.58,211.42,286.85,211.23Z"/><path class="cls-9" d="M282.17,210.23c0,.13,0,.15.07.07a.24.24,0,0,0,0-.22s-.07,0-.06.15Z"/><path class="cls-9" d="M271.73,218.79a3.94,3.94,0,0,0,1.43-1.53,3.7,3.7,0,0,0,.52-1.53l.13-.87-.45-.56a9.78,9.78,0,0,1-.82-1.33,4.85,4.85,0,0,0-.77-1.16c-.37-.36-.39-.42-.28-.77a2.07,2.07,0,0,0-.41-1.76,2.18,2.18,0,0,1-.46-.84,1.3,1.3,0,0,0-.28-.58c-.17,0-.49.89-.56,1.53a2,2,0,0,1-.32.94l1.81,8.86A1.58,1.58,0,0,1,271.73,218.79Z"/><path class="cls-9" d="M265.1,180.43a3.69,3.69,0,0,1-1-.46c-.45-.32-.49-.29-.22.18.15.3.15.36,0,.57s-.15.26.06.54h0c.29.38.36.4.32.07s.13-.31.74-.16c.24.06.32,0,.32-.08s.11-.19.23-.23C265.91,180.76,265.76,180.61,265.1,180.43Z"/><path class="cls-9" d="M269,206.26c.17,0,.33,0,.55.2a1.74,1.74,0,0,0,.74.34c.41.07.45,0,.68-.31a1.2,1.2,0,0,1,.46-.45c.31-.1.92.26,1.25.72a2.17,2.17,0,0,0,1.35.83h0c.83.25.84.2.09-.34s-1.34-1.36-1.18-1.56-.15-.66-1-1.18a8.87,8.87,0,0,0-1.33-.68c-.3-.1-.88-.32-1.28-.5l-.74-.32-.53.29.33,1.64a1,1,0,0,1,.37.43c.2.39.2.39-.1.58l-.06,0,.06.28A.69.69,0,0,0,269,206.26Z"/><path class="cls-9" d="M262.23,173.16c.27-.06.31-.11.26-.36a1.17,1.17,0,0,1,.06-.61c.12-.3.16-.31.62-.24a2.52,2.52,0,0,1,.76.24c.34.21.64.12.54-.17s.32-.51.55-.25.42.61.26.9a1.42,1.42,0,0,0-.17.53,1.58,1.58,0,0,1-.17.57c-.17.3-.16.33.34,1a5.65,5.65,0,0,0,1,.95,7.14,7.14,0,0,1,.85.74c.34.35.48.43.68.36s.23-.12.17-.25a2.39,2.39,0,0,1-.11-.46,2.71,2.71,0,0,0-.11-.47.17.17,0,0,1,.1-.26c.17-.06.17-.09,0-.36a5.12,5.12,0,0,1-.28-.58,1.13,1.13,0,0,0-.61-.52c-.58-.26-1-.8-.76-1a1.53,1.53,0,0,1,.5-.19,4.67,4.67,0,0,0,.66-.23.57.57,0,0,1,.65,0c.31.15.35.14.58-.06a.78.78,0,0,0,.25-.32c0-.17.71-.46,1-.41s.62-.08.52-.18-.53-.22-1.1-.43c-1.06-.39-1.26-.6-.54-.55.39,0,.39,0,.19-.19s0-.39.64-.18a1.49,1.49,0,0,0,.6.11.25.25,0,0,1,.24.05,2.36,2.36,0,0,0,1.31.3l.28-.06-.37-.32c-.61-.5-.87-.59-1.27-.46s-.44.07-.89-.15a5.12,5.12,0,0,0-1.24-.34A5.93,5.93,0,0,1,267,169a20.34,20.34,0,0,0-3.53-.61c-.81-.08-.81-.08-.6.15s.07.39-.46.17a4.32,4.32,0,0,0-1.43-.19l.94,4.6A1,1,0,0,0,262.23,173.16Z"/><path class="cls-9" d="M263.83,179.22a4.46,4.46,0,0,0-.52-.62c-.5-.52-.59-.85-.21-.72s.1-.17-.36-.51l.29,1.43a1.23,1.23,0,0,0,.2.27C263.38,179.25,263.83,179.35,263.83,179.22Z"/><path class="cls-9" d="M264.77,184.87a1.16,1.16,0,0,0,1-.44c.11-.18.09-.33-.06-.71a1.4,1.4,0,0,1-.13-.66c.11-.26-.25-.88-.64-1.1s-.63-.08-.27.59.29.9-.59,1.53l.23,1.14C264.43,184.94,264.51,184.87,264.77,184.87Z"/><path class="cls-9" d="M291.61,209.17c.06.09.13.09.26,0s.17-.14,0-.18-.34,0-.24.2Z"/><path class="cls-9" d="M284.83,198.62c.07,0,.09-.05.06-.11s-.1-.11-.13-.11-.05,0-.05.11A.12.12,0,0,0,284.83,198.62Z"/><path class="cls-9" d="M289.42,212.49c.05.08.11.07.17,0s.06-.26-.12-.15a.13.13,0,0,0-.05.18Z"/><path class="cls-9" d="M282.51,202.58a.11.11,0,0,0,.11-.12c0-.06-.05-.08-.11-.05s-.12.09-.12.12S282.44,202.58,282.51,202.58Z"/><path class="cls-9" d="M285.82,201.7s.05,0,.05-.11a.11.11,0,0,0-.12-.11c-.07,0-.09.05-.05.11S285.79,201.7,285.82,201.7Z"/><path class="cls-9" d="M288,207.2a.13.13,0,0,0,.12-.12c0-.06-.06-.09-.12-.05s-.12.09-.12.12S287.9,207.2,288,207.2Z"/><path class="cls-9" d="M287.14,210.71h0a.4.4,0,0,0,.38,0c.2-.12.19-.13-.09-.17S286.91,210.58,287.14,210.71Z"/><ellipse class="cls-10" cx="230.36" cy="180.92" rx="1.68" ry="0.8"/><path class="cls-11" d="M235.45,172.7a5.14,5.14,0,1,0-10.28,0,5.34,5.34,0,0,0,.87,2.93h0c.12.17.24.33.37.49L230,181a.34.34,0,0,0,.55,0l3.49-4.68A5.31,5.31,0,0,0,235.45,172.7Z"/><ellipse class="cls-12" cx="230.46" cy="172.88" rx="3.15" ry="3.21"/><ellipse class="cls-1" cx="230.33" cy="172.72" rx="3" ry="3.06"/><path class="cls-13" d="M230.54,180.62,227,175.9a4.29,4.29,0,0,1-.36-.48h0a5.12,5.12,0,0,1-.86-2.85,5.07,5.07,0,0,1,4.76-5.1h-.25a5.19,5.19,0,0,0-5.14,5.24,5.34,5.34,0,0,0,.87,2.93h0c.12.17.24.33.37.49L230,181a.34.34,0,0,0,.55,0l.16-.2A.34.34,0,0,1,230.54,180.62Z"/><path class="cls-14" d="M231.09,167.9c-.39-.09-.56.52-.17.61a4.53,4.53,0,0,1,3.49,5.05c0,.4.58.39.63,0A5.14,5.14,0,0,0,231.09,167.9Z"/><ellipse class="cls-15" cx="210.98" cy="224.22" rx="5.07" ry="2.4"/><path class="cls-11" d="M226.27,199.48a15.46,15.46,0,1,0-30.91,0,15.91,15.91,0,0,0,2.63,8.8h0a14.64,14.64,0,0,0,1.11,1.48L210,224.31a1,1,0,0,0,1.67,0l10.49-14.1A15.9,15.9,0,0,0,226.27,199.48Z"/><ellipse class="cls-12" cx="211.29" cy="200.01" rx="9.47" ry="9.67"/><ellipse class="cls-1" cx="210.88" cy="199.53" rx="9.02" ry="9.2"/><path class="cls-13" d="M211.53,223.31l-10.62-14.19q-.57-.69-1.08-1.44h0a15.57,15.57,0,0,1-2.56-8.57,15.25,15.25,0,0,1,14.31-15.36l-.77,0a15.61,15.61,0,0,0-15.45,15.76,15.91,15.91,0,0,0,2.63,8.8h0a14.64,14.64,0,0,0,1.11,1.48L210,224.31a1,1,0,0,0,1.67,0l.46-.62A1,1,0,0,1,211.53,223.31Z"/><path class="cls-14" d="M213.17,185c-1.19-.26-1.7,1.58-.51,1.84a13.61,13.61,0,0,1,10.49,15.18c-.16,1.22,1.73,1.2,1.89,0A15.47,15.47,0,0,0,213.17,185Z"/><ellipse class="cls-10" cx="174.35" cy="210.73" rx="1.68" ry="0.8"/><path class="cls-11" d="M179.43,202.51a5.14,5.14,0,1,0-10.27,0,5.28,5.28,0,0,0,.87,2.92h0a5.72,5.72,0,0,0,.37.49l3.62,4.83a.34.34,0,0,0,.55,0l3.49-4.68A5.3,5.3,0,0,0,179.43,202.51Z"/><ellipse class="cls-12" cx="174.45" cy="202.68" rx="3.15" ry="3.21"/><ellipse class="cls-1" cx="174.32" cy="202.53" rx="3" ry="3.06"/><path class="cls-13" d="M174.53,210.43,171,205.71a4.29,4.29,0,0,1-.36-.48h0a5.2,5.2,0,0,1-.85-2.85,5.06,5.06,0,0,1,4.76-5.1h-.26a5.19,5.19,0,0,0-5.13,5.24,5.28,5.28,0,0,0,.87,2.92h0a5.72,5.72,0,0,0,.37.49l3.62,4.83a.34.34,0,0,0,.55,0l.15-.2A.35.35,0,0,1,174.53,210.43Z"/><path class="cls-14" d="M175.08,197.71c-.4-.09-.57.52-.17.61a4.53,4.53,0,0,1,3.49,5c-.06.41.57.4.62,0A5.13,5.13,0,0,0,175.08,197.71Z"/><ellipse class="cls-10" cx="158.52" cy="178.86" rx="1.68" ry="0.8"/><path class="cls-11" d="M163.6,170.64a5.14,5.14,0,1,0-10.27,0,5.34,5.34,0,0,0,.87,2.93h0c.12.17.24.33.37.49l3.62,4.83a.34.34,0,0,0,.55,0l3.49-4.68A5.3,5.3,0,0,0,163.6,170.64Z"/><ellipse class="cls-12" cx="158.62" cy="170.81" rx="3.15" ry="3.21"/><ellipse class="cls-1" cx="158.49" cy="170.66" rx="3" ry="3.06"/><path class="cls-13" d="M158.7,178.56l-3.53-4.72a5.92,5.92,0,0,1-.35-.48h0a5.12,5.12,0,0,1-.86-2.85,5.07,5.07,0,0,1,4.76-5.1h-.25a5.19,5.19,0,0,0-5.14,5.24,5.34,5.34,0,0,0,.87,2.93h0c.12.17.24.33.37.49l3.62,4.83a.34.34,0,0,0,.55,0l.16-.2A.34.34,0,0,1,158.7,178.56Z"/><path class="cls-14" d="M159.25,165.84c-.4-.09-.56.52-.17.61a4.52,4.52,0,0,1,3.49,5c0,.41.57.4.63,0A5.14,5.14,0,0,0,159.25,165.84Z"/><ellipse class="cls-10" cx="188.96" cy="166.12" rx="1.68" ry="0.8"/><path class="cls-11" d="M194,157.89a5.14,5.14,0,1,0-10.27,0,5.31,5.31,0,0,0,.87,2.93h0c.12.17.24.33.37.49l3.62,4.84a.35.35,0,0,0,.55,0l3.49-4.69A5.3,5.3,0,0,0,194,157.89Z"/><ellipse class="cls-12" cx="189.06" cy="158.07" rx="3.15" ry="3.21"/><ellipse class="cls-1" cx="188.93" cy="157.91" rx="3" ry="3.06"/><path class="cls-13" d="M189.14,165.82l-3.53-4.72-.35-.48h0a5.18,5.18,0,0,1-.86-2.86,5.07,5.07,0,0,1,4.76-5.1h-.25a5.19,5.19,0,0,0-5.14,5.24,5.31,5.31,0,0,0,.87,2.93h0c.12.17.24.33.37.49l3.62,4.84a.35.35,0,0,0,.55,0l.16-.21A.37.37,0,0,1,189.14,165.82Z"/><path class="cls-14" d="M189.69,153.09c-.4-.09-.56.52-.17.61a4.53,4.53,0,0,1,3.49,5.05c0,.4.57.4.63,0A5.15,5.15,0,0,0,189.69,153.09Z"/><path class="cls-10" d="M251.84,173.85c0,.44-.75.8-1.68.8s-1.69-.36-1.69-.8.76-.8,1.69-.8S251.84,173.41,251.84,173.85Z"/><path class="cls-11" d="M255.24,165.63a5.14,5.14,0,1,0-10.27,0,5.28,5.28,0,0,0,.87,2.92h0a4.49,4.49,0,0,0,.37.49l3.62,4.84a.34.34,0,0,0,.55,0l3.49-4.69A5.27,5.27,0,0,0,255.24,165.63Z"/><ellipse class="cls-12" cx="250.26" cy="165.8" rx="3.15" ry="3.21"/><ellipse class="cls-1" cx="250.13" cy="165.64" rx="3" ry="3.06"/><path class="cls-13" d="M250.34,173.55l-3.53-4.72a4.29,4.29,0,0,1-.36-.48h0a5.22,5.22,0,0,1-.85-2.85,5.08,5.08,0,0,1,4.76-5.11h-.25a5.19,5.19,0,0,0-5.14,5.24,5.28,5.28,0,0,0,.87,2.92h0a4.49,4.49,0,0,0,.37.49l3.62,4.84a.34.34,0,0,0,.55,0l.16-.2A.34.34,0,0,1,250.34,173.55Z"/><path class="cls-14" d="M250.89,160.82c-.4-.08-.57.53-.17.61a4.54,4.54,0,0,1,3.49,5c-.06.41.57.4.63,0A5.16,5.16,0,0,0,250.89,160.82Z"/><ellipse class="cls-10" cx="266.18" cy="214.27" rx="1.68" ry="0.8"/><path class="cls-11" d="M271.27,206.05a5.14,5.14,0,1,0-9.4,2.92h0a4.41,4.41,0,0,0,.36.49l3.62,4.84a.35.35,0,0,0,.56,0l3.49-4.69A5.27,5.27,0,0,0,271.27,206.05Z"/><ellipse class="cls-12" cx="266.29" cy="206.22" rx="3.15" ry="3.21"/><ellipse class="cls-1" cx="266.15" cy="206.06" rx="3" ry="3.06"/><path class="cls-13" d="M266.37,214l-3.53-4.72a4.29,4.29,0,0,1-.36-.48h0a5.16,5.16,0,0,1-.85-2.85,5.07,5.07,0,0,1,4.75-5.11h-.25a5.25,5.25,0,0,0-4.26,8.16h0a4.41,4.41,0,0,0,.36.49l3.62,4.84a.35.35,0,0,0,.56,0l.15-.21A.28.28,0,0,1,266.37,214Z"/><path class="cls-14" d="M266.91,201.24c-.39-.09-.56.53-.17.61a4.52,4.52,0,0,1,3.49,5.05c-.05.4.58.4.63,0A5.15,5.15,0,0,0,266.91,201.24Z"/></svg>