<svg id="Layer_1" data-name="Layer 1" xmlns="http://www.w3.org/2000/svg" xmlns:xlink="http://www.w3.org/1999/xlink" viewBox="0 0 804.08 414.04"><defs><style>.cls-1{fill:#fff;}.cls-2{fill:url(#linear-gradient);}.cls-3{fill:#fcb616;}.cls-4{fill:#1368b1;}.cls-5{fill:#0d67b1;}.cls-6{opacity:0.71;}.cls-7{fill:#2e3790;}.cls-8{opacity:0.58;}</style><linearGradient id="linear-gradient" x1="84.83" y1="180.68" x2="369.63" y2="180.68" gradientUnits="userSpaceOnUse"><stop offset="0" stop-color="#1368b1"/><stop offset="1" stop-color="#00adee"/></linearGradient></defs><title>Items web</title><rect class="cls-1" x="260.93" y="95.19" width="359.15" height="81.73" rx="29.28" ry="29.28"/><path class="cls-1" d="M579.21,177.93H301.79a41.88,41.88,0,0,1,0-83.75H579.21a41.88,41.88,0,1,1,0,83.75ZM301.79,96.2a39.86,39.86,0,0,0,0,79.71H579.21a39.86,39.86,0,1,0,0-79.71Z"/><circle class="cls-1" cx="214.15" cy="180.59" r="139.45" transform="translate(-64.97 204.32) rotate(-45)"/><path class="cls-2" d="M84.83,266.82a155.44,155.44,0,0,0,129.32,69.25c85.73,0,155.48-69.75,155.48-155.48,0-83.17-65.65-151.31-147.85-155.3-3,3.86-7,9.2-11.91,15.92,1.42-.05,2.84-.07,4.28-.07A139.45,139.45,0,1,1,92.41,248.65Q88.57,257.61,84.83,266.82Z"/><circle class="cls-3" cx="214.15" cy="180.59" r="114.02"/><path class="cls-1" d="M502.49,241.47H500l-2-5.3h-8l-1.89,5.3h-2.46l7.25-18.9h2.29Zm-5.18-7.29-3-8.05a8,8,0,0,1-.29-1.27H494a7.74,7.74,0,0,1-.3,1.27l-2.94,8.05Z"/><path class="cls-1" d="M521.58,240.85a7,7,0,0,1-3.69.94,6.11,6.11,0,0,1-4.66-1.88,6.78,6.78,0,0,1-1.78-4.87,7.46,7.46,0,0,1,1.92-5.36,6.67,6.67,0,0,1,5.1-2,7.28,7.28,0,0,1,3.14.65v2.22a5.55,5.55,0,0,0-3.22-1.05A4.36,4.36,0,0,0,515,231a5.64,5.64,0,0,0-1.32,3.89,5.37,5.37,0,0,0,1.24,3.75,4.32,4.32,0,0,0,3.35,1.37,5.44,5.44,0,0,0,3.32-1.17Z"/><path class="cls-1" d="M536.05,241.47h-2.16v-7.78c0-2.81-1-4.21-3.14-4.21a3.42,3.42,0,0,0-2.66,1.21,4.57,4.57,0,0,0-1.08,3.14v7.64h-2.16v-20H527v8.72h0a4.92,4.92,0,0,1,4.43-2.55q4.56,0,4.56,5.49Z"/><path class="cls-1" d="M549.79,241.47h-2.16v-2.11h0a4.53,4.53,0,0,1-4.16,2.43,4.44,4.44,0,0,1-3.15-1.07,3.7,3.7,0,0,1-1.14-2.83c0-2.53,1.48-4,4.45-4.41l4-.56c0-2.3-.93-3.44-2.78-3.44a6.64,6.64,0,0,0-4.41,1.66v-2.22a8.41,8.41,0,0,1,4.59-1.26c3.18,0,4.76,1.67,4.76,5Zm-2.16-6.83-3.26.45a5.19,5.19,0,0,0-2.26.75,2.13,2.13,0,0,0-.77,1.89,2,2,0,0,0,.71,1.61,2.7,2.7,0,0,0,1.88.63,3.47,3.47,0,0,0,2.65-1.13,4,4,0,0,0,1-2.85Z"/><path class="cls-1" d="M560.13,241.34a4.18,4.18,0,0,1-2,.42c-2.36,0-3.55-1.32-3.55-3.95v-8h-2.32V228h2.32v-3.29l2.17-.7v4h3.4v1.85h-3.4v7.6a3.12,3.12,0,0,0,.46,1.94,1.84,1.84,0,0,0,1.53.58,2.28,2.28,0,0,0,1.41-.45Z"/><path class="cls-1" d="M565.23,239.52h-.05v1.95H563v-20h2.17v8.86h.05a5.1,5.1,0,0,1,4.67-2.69,4.93,4.93,0,0,1,4.06,1.81,7.49,7.49,0,0,1,1.47,4.86,8.4,8.4,0,0,1-1.64,5.42,5.5,5.5,0,0,1-4.51,2A4.44,4.44,0,0,1,565.23,239.52Zm-.05-5.44V236a4,4,0,0,0,1.08,2.84,3.88,3.88,0,0,0,5.84-.33,6.87,6.87,0,0,0,1.12-4.18,5.49,5.49,0,0,0-1-3.54,3.46,3.46,0,0,0-2.82-1.27,3.83,3.83,0,0,0-3,1.31A4.83,4.83,0,0,0,565.18,234.08Z"/><path class="cls-1" d="M584.53,241.79a6.27,6.27,0,0,1-4.78-1.89,7,7,0,0,1-1.78-5,7.27,7.27,0,0,1,1.85-5.31,6.68,6.68,0,0,1,5-1.91,6,6,0,0,1,4.71,1.85,7.38,7.38,0,0,1,1.69,5.16,7.22,7.22,0,0,1-1.82,5.17A6.39,6.39,0,0,1,584.53,241.79Zm.16-12.31a4.13,4.13,0,0,0-3.3,1.41,5.83,5.83,0,0,0-1.21,3.91,5.48,5.48,0,0,0,1.23,3.78,4.13,4.13,0,0,0,3.28,1.39,3.93,3.93,0,0,0,3.22-1.36,5.88,5.88,0,0,0,1.13-3.86,6,6,0,0,0-1.13-3.9A3.91,3.91,0,0,0,584.69,229.48Z"/><path class="cls-1" d="M601,241.34a4.18,4.18,0,0,1-2,.42q-3.54,0-3.54-3.95v-8h-2.32V228h2.32v-3.29l2.16-.7v4H601v1.85h-3.4v7.6a3.12,3.12,0,0,0,.46,1.94,1.84,1.84,0,0,0,1.53.58,2.28,2.28,0,0,0,1.41-.45Z"/><path class="cls-1" d="M628.26,228l-4,13.5H622l-2.78-9.66a5.72,5.72,0,0,1-.21-1.25h-.05a6.12,6.12,0,0,1-.28,1.22l-3,9.69h-2.16L609.38,228h2.27l2.79,10.15a6.4,6.4,0,0,1,.19,1.22h.1a6,6,0,0,1,.24-1.24L618.08,228h2l2.8,10.18a7.92,7.92,0,0,1,.19,1.21h.11a5.9,5.9,0,0,1,.22-1.21L626.12,228Z"/><path class="cls-1" d="M642,241.47h-2.16v-7.78q0-4.22-3.14-4.21a3.42,3.42,0,0,0-2.66,1.21,4.57,4.57,0,0,0-1.08,3.14v7.64h-2.16v-20h2.16v8.72H633a4.91,4.91,0,0,1,4.43-2.55q4.56,0,4.56,5.49Z"/><path class="cls-1" d="M647.15,224.54a1.41,1.41,0,0,1-1-.39,1.33,1.33,0,0,1-.4-1,1.36,1.36,0,0,1,.4-1,1.45,1.45,0,0,1,2,0,1.34,1.34,0,0,1,.42,1,1.35,1.35,0,0,1-.42,1A1.39,1.39,0,0,1,647.15,224.54Zm1.06,16.93h-2.16V228h2.16Z"/><path class="cls-1" d="M661.79,240.85a7,7,0,0,1-3.7.94,6.14,6.14,0,0,1-4.66-1.88,6.82,6.82,0,0,1-1.77-4.87,7.5,7.5,0,0,1,1.91-5.36,6.7,6.7,0,0,1,5.11-2,7.2,7.2,0,0,1,3.13.65v2.22a5.5,5.5,0,0,0-3.21-1.05,4.35,4.35,0,0,0-3.4,1.48,5.64,5.64,0,0,0-1.32,3.89,5.37,5.37,0,0,0,1.24,3.75,4.31,4.31,0,0,0,3.34,1.37,5.45,5.45,0,0,0,3.33-1.17Z"/><path class="cls-1" d="M676.26,241.47H674.1v-7.78q0-4.22-3.14-4.21a3.42,3.42,0,0,0-2.66,1.21,4.57,4.57,0,0,0-1.08,3.14v7.64h-2.16v-20h2.16v8.72h0a4.91,4.91,0,0,1,4.43-2.55q4.56,0,4.56,5.49Z"/><path class="cls-1" d="M698.94,241.47h-2.16v-7.78q0-4.22-3.14-4.21a3.44,3.44,0,0,0-2.67,1.21,4.57,4.57,0,0,0-1.08,3.14v7.64h-2.16v-20h2.16v8.72H690a4.9,4.9,0,0,1,4.43-2.55q4.56,0,4.56,5.49Z"/><path class="cls-1" d="M713.86,235.26h-9.53a5.06,5.06,0,0,0,1.21,3.48,4.19,4.19,0,0,0,3.19,1.23,6.67,6.67,0,0,0,4.2-1.5v2a7.87,7.87,0,0,1-4.71,1.29,5.7,5.7,0,0,1-4.5-1.84,7.54,7.54,0,0,1-1.63-5.18,7.37,7.37,0,0,1,1.78-5.13,5.75,5.75,0,0,1,4.44-2,5.08,5.08,0,0,1,4.1,1.71,7.13,7.13,0,0,1,1.45,4.76Zm-2.21-1.83a4.35,4.35,0,0,0-.91-2.91,3,3,0,0,0-2.47-1,3.5,3.5,0,0,0-2.6,1.09,4.92,4.92,0,0,0-1.31,2.86Z"/><path class="cls-1" d="M719.29,241.47h-2.16v-20h2.16Z"/><path class="cls-1" d="M725.89,239.52h-.06v8.16h-2.16V228h2.16v2.38h.06a5.08,5.08,0,0,1,4.66-2.69,5,5,0,0,1,4.08,1.81,7.55,7.55,0,0,1,1.46,4.86,8.35,8.35,0,0,1-1.65,5.42,5.48,5.48,0,0,1-4.51,2A4.5,4.5,0,0,1,725.89,239.52Zm-.06-5.44V236a4,4,0,0,0,1.09,2.84,3.88,3.88,0,0,0,5.84-.33,6.94,6.94,0,0,0,1.11-4.18,5.43,5.43,0,0,0-1-3.54,3.43,3.43,0,0,0-2.82-1.27,3.8,3.8,0,0,0-3,1.31A4.78,4.78,0,0,0,725.83,234.08Z"/><path class="cls-1" d="M399.06,273.87H396.9v-7.75a5.86,5.86,0,0,0-.69-3.24,2.62,2.62,0,0,0-2.33-1,2.89,2.89,0,0,0-2.35,1.26,4.82,4.82,0,0,0-1,3v7.7H388.4v-8c0-2.66-1-4-3.07-4a2.83,2.83,0,0,0-2.35,1.19,4.89,4.89,0,0,0-.92,3.1v7.7h-2.17v-13.5h2.17v2.14h.05a4.58,4.58,0,0,1,4.19-2.45,3.92,3.92,0,0,1,3.83,2.79,4.81,4.81,0,0,1,4.48-2.79q4.45,0,4.45,5.49Z"/><path class="cls-1" d="M414,267.66h-9.53a5,5,0,0,0,1.21,3.48,4.19,4.19,0,0,0,3.19,1.23,6.63,6.63,0,0,0,4.19-1.5v2a7.81,7.81,0,0,1-4.7,1.29,5.7,5.7,0,0,1-4.5-1.84,7.53,7.53,0,0,1-1.63-5.17A7.37,7.37,0,0,1,404,262a5.73,5.73,0,0,1,4.44-2,5.08,5.08,0,0,1,4.1,1.71,7.13,7.13,0,0,1,1.45,4.76Zm-2.21-1.83a4.35,4.35,0,0,0-.91-2.91,3,3,0,0,0-2.47-1,3.5,3.5,0,0,0-2.6,1.09,4.92,4.92,0,0,0-1.31,2.86Z"/><path class="cls-1" d="M424.31,262.56a2.64,2.64,0,0,0-1.63-.43,2.76,2.76,0,0,0-2.32,1.3,6,6,0,0,0-.93,3.56v6.88h-2.16v-13.5h2.16v2.78h.06a4.59,4.59,0,0,1,1.41-2.22,3.21,3.21,0,0,1,2.12-.79,3.61,3.61,0,0,1,1.29.18Z"/><path class="cls-1" d="M435.5,273.25a6.93,6.93,0,0,1-3.69.94,6.12,6.12,0,0,1-4.66-1.88,6.82,6.82,0,0,1-1.77-4.87,7.51,7.51,0,0,1,1.91-5.36,6.67,6.67,0,0,1,5.1-2,7.11,7.11,0,0,1,3.14.66v2.21a5.5,5.5,0,0,0-3.22-1.05,4.33,4.33,0,0,0-3.39,1.48,5.6,5.6,0,0,0-1.33,3.89,5.38,5.38,0,0,0,1.25,3.75,4.3,4.3,0,0,0,3.34,1.37,5.4,5.4,0,0,0,3.32-1.17Z"/><path class="cls-1" d="M450,273.87h-2.16v-7.78q0-4.21-3.14-4.21A3.38,3.38,0,0,0,442,263.1a4.54,4.54,0,0,0-1.09,3.13v7.64h-2.16v-20h2.16v8.72H441a4.9,4.9,0,0,1,4.43-2.55q4.56,0,4.56,5.49Z"/><path class="cls-1" d="M463.72,273.87h-2.17v-2.11h-.05a4.52,4.52,0,0,1-4.15,2.43,4.44,4.44,0,0,1-3.16-1.07,3.7,3.7,0,0,1-1.14-2.83c0-2.53,1.49-4,4.46-4.41l4-.56c0-2.3-.92-3.44-2.78-3.44a6.64,6.64,0,0,0-4.4,1.66v-2.22a8.41,8.41,0,0,1,4.59-1.26c3.17,0,4.76,1.67,4.76,5ZM461.55,267l-3.25.45a5.24,5.24,0,0,0-2.27.75,2.13,2.13,0,0,0-.76,1.89,2,2,0,0,0,.7,1.61,2.72,2.72,0,0,0,1.88.63,3.49,3.49,0,0,0,2.66-1.13,4,4,0,0,0,1-2.85Z"/><path class="cls-1" d="M479,273.87h-2.17v-7.7q0-4.29-3.13-4.29A3.4,3.4,0,0,0,471,263.1a4.53,4.53,0,0,0-1.06,3.07v7.7h-2.16v-13.5H470v2.24H470a4.88,4.88,0,0,1,4.43-2.55,4.11,4.11,0,0,1,3.39,1.43,6.37,6.37,0,0,1,1.18,4.13Z"/><path class="cls-1" d="M489.33,273.74a4.18,4.18,0,0,1-2,.42q-3.54,0-3.54-4v-8h-2.32v-1.85h2.32v-3.29l2.16-.7v4h3.4v1.85h-3.4v7.61a3.11,3.11,0,0,0,.46,1.93,1.84,1.84,0,0,0,1.53.58,2.3,2.3,0,0,0,1.41-.44Z"/><path class="cls-1" d="M491.4,273.38v-2.32a6.36,6.36,0,0,0,3.89,1.31c1.9,0,2.85-.63,2.85-1.9a1.57,1.57,0,0,0-.25-.91,2.3,2.3,0,0,0-.65-.67,5.3,5.3,0,0,0-1-.52c-.37-.16-.78-.32-1.21-.48a17,17,0,0,1-1.57-.72,5.05,5.05,0,0,1-1.14-.82,3,3,0,0,1-.68-1,3.56,3.56,0,0,1-.23-1.36,3.23,3.23,0,0,1,.43-1.68,3.89,3.89,0,0,1,1.16-1.23,5.33,5.33,0,0,1,1.66-.74,7.22,7.22,0,0,1,1.92-.25,7.8,7.8,0,0,1,3.13.6v2.19a6.09,6.09,0,0,0-3.42-1,4.15,4.15,0,0,0-1.1.13,3.26,3.26,0,0,0-.84.39,1.92,1.92,0,0,0-.54.6,1.69,1.69,0,0,0-.19.77,2,2,0,0,0,.19.89,2.19,2.19,0,0,0,.56.63,4.73,4.73,0,0,0,.9.5l1.2.49c.6.23,1.13.46,1.61.7a6,6,0,0,1,1.21.82,3,3,0,0,1,.77,1.05,3.41,3.41,0,0,1,.27,1.41,3.26,3.26,0,0,1-.44,1.74,3.84,3.84,0,0,1-1.18,1.23,5.55,5.55,0,0,1-1.7.72,8.28,8.28,0,0,1-2,.24A7.63,7.63,0,0,1,491.4,273.38Z"/><path class="cls-1" d="M517.33,273.74a4.17,4.17,0,0,1-2,.42q-3.56,0-3.55-4v-8h-2.32v-1.85h2.32v-3.29l2.16-.7v4h3.4v1.85h-3.4v7.61a3.18,3.18,0,0,0,.46,1.93,1.84,1.84,0,0,0,1.53.58,2.3,2.3,0,0,0,1.41-.44Z"/><path class="cls-1" d="M525.65,274.19a6.27,6.27,0,0,1-4.78-1.89,7,7,0,0,1-1.78-5A7.28,7.28,0,0,1,521,262a6.65,6.65,0,0,1,5-1.91,6.05,6.05,0,0,1,4.71,1.86,7.34,7.34,0,0,1,1.7,5.15,7.23,7.23,0,0,1-1.83,5.17A6.39,6.39,0,0,1,525.65,274.19Zm.16-12.31a4.13,4.13,0,0,0-3.3,1.41,5.88,5.88,0,0,0-1.21,3.91,5.52,5.52,0,0,0,1.23,3.79,4.17,4.17,0,0,0,3.28,1.38A3.93,3.93,0,0,0,529,271a5.83,5.83,0,0,0,1.13-3.86,5.93,5.93,0,0,0-1.13-3.9A3.91,3.91,0,0,0,525.81,261.88Z"/><path class="cls-1" d="M552.43,273.25a7,7,0,0,1-3.69.94,6.11,6.11,0,0,1-4.66-1.88,6.78,6.78,0,0,1-1.78-4.87,7.47,7.47,0,0,1,1.92-5.36,6.67,6.67,0,0,1,5.1-2,7.06,7.06,0,0,1,3.13.66v2.21a5.5,5.5,0,0,0-3.21-1.05,4.36,4.36,0,0,0-3.4,1.48,5.64,5.64,0,0,0-1.32,3.89,5.37,5.37,0,0,0,1.24,3.75,4.32,4.32,0,0,0,3.35,1.37,5.44,5.44,0,0,0,3.32-1.17Z"/><path class="cls-1" d="M562.74,262.56a2.65,2.65,0,0,0-1.64-.43,2.75,2.75,0,0,0-2.31,1.3,6,6,0,0,0-.93,3.56v6.88H555.7v-13.5h2.16v2.78h0a4.74,4.74,0,0,1,1.41-2.22,3.24,3.24,0,0,1,2.13-.79,3.61,3.61,0,0,1,1.29.18Z"/><path class="cls-1" d="M575.58,267.66h-9.53a5,5,0,0,0,1.21,3.48,4.17,4.17,0,0,0,3.19,1.23,6.63,6.63,0,0,0,4.19-1.5v2a7.81,7.81,0,0,1-4.7,1.29,5.7,5.7,0,0,1-4.5-1.84,7.53,7.53,0,0,1-1.63-5.17,7.37,7.37,0,0,1,1.78-5.14,5.73,5.73,0,0,1,4.44-2,5.08,5.08,0,0,1,4.1,1.71,7.13,7.13,0,0,1,1.45,4.76Zm-2.22-1.83a4.35,4.35,0,0,0-.9-2.91,3.06,3.06,0,0,0-2.47-1,3.49,3.49,0,0,0-2.6,1.09,5,5,0,0,0-1.32,2.86Z"/><path class="cls-1" d="M588.51,273.87h-2.16v-2.11h-.05a4.53,4.53,0,0,1-4.16,2.43,4.44,4.44,0,0,1-3.15-1.07,3.7,3.7,0,0,1-1.14-2.83c0-2.53,1.48-4,4.45-4.41l4.05-.56c0-2.3-.93-3.44-2.78-3.44a6.64,6.64,0,0,0-4.41,1.66v-2.22a8.41,8.41,0,0,1,4.59-1.26c3.18,0,4.76,1.67,4.76,5ZM586.35,267l-3.26.45a5.19,5.19,0,0,0-2.26.75,2.13,2.13,0,0,0-.77,1.89,2,2,0,0,0,.71,1.61,2.7,2.7,0,0,0,1.88.63,3.47,3.47,0,0,0,2.65-1.13,4,4,0,0,0,1.05-2.85Z"/><path class="cls-1" d="M598.85,273.74a4.18,4.18,0,0,1-2,.42c-2.36,0-3.55-1.32-3.55-4v-8H591v-1.85h2.32v-3.29l2.17-.7v4h3.4v1.85h-3.4v7.61a3.11,3.11,0,0,0,.46,1.93,1.84,1.84,0,0,0,1.53.58,2.34,2.34,0,0,0,1.41-.44Z"/><path class="cls-1" d="M612.37,267.66h-9.53a5,5,0,0,0,1.22,3.48,4.16,4.16,0,0,0,3.19,1.23,6.65,6.65,0,0,0,4.19-1.5v2a7.87,7.87,0,0,1-4.71,1.29,5.68,5.68,0,0,1-4.49-1.84,7.53,7.53,0,0,1-1.64-5.17,7.38,7.38,0,0,1,1.79-5.14,5.73,5.73,0,0,1,4.43-2,5.07,5.07,0,0,1,4.1,1.71,7.13,7.13,0,0,1,1.45,4.76Zm-2.21-1.83a4.4,4.4,0,0,0-.9-2.91,3.08,3.08,0,0,0-2.48-1,3.47,3.47,0,0,0-2.59,1.09,5,5,0,0,0-1.32,2.86Z"/><path class="cls-1" d="M628.68,274.19a6.27,6.27,0,0,1-4.78-1.89,7,7,0,0,1-1.78-5A7.28,7.28,0,0,1,624,262a6.65,6.65,0,0,1,5-1.91,6.05,6.05,0,0,1,4.71,1.86,7.34,7.34,0,0,1,1.7,5.15,7.23,7.23,0,0,1-1.83,5.17A6.39,6.39,0,0,1,628.68,274.19Zm.16-12.31a4.13,4.13,0,0,0-3.3,1.41,5.88,5.88,0,0,0-1.21,3.91,5.52,5.52,0,0,0,1.23,3.79,4.17,4.17,0,0,0,3.28,1.38,3.93,3.93,0,0,0,3.22-1.36,5.83,5.83,0,0,0,1.13-3.86,5.93,5.93,0,0,0-1.13-3.9A3.91,3.91,0,0,0,628.84,261.88Z"/><path class="cls-1" d="M645.9,262.56a2.64,2.64,0,0,0-1.63-.43,2.76,2.76,0,0,0-2.32,1.3A6,6,0,0,0,641,267v6.88h-2.16v-13.5H641v2.78h.05a4.67,4.67,0,0,1,1.42-2.22,3.21,3.21,0,0,1,2.12-.79,3.61,3.61,0,0,1,1.29.18Z"/><path class="cls-1" d="M659.41,273.87h-2.16v-2.29h0a5,5,0,0,1-4.64,2.61,5.07,5.07,0,0,1-4.07-1.81,7.48,7.48,0,0,1-1.52-4.94,8.09,8.09,0,0,1,1.69-5.37,5.56,5.56,0,0,1,4.49-2,4.34,4.34,0,0,1,4.05,2.18h0v-8.35h2.16Zm-2.16-6.1v-2a3.87,3.87,0,0,0-1.08-2.77,3.6,3.6,0,0,0-2.74-1.13,3.71,3.71,0,0,0-3.11,1.45,6.3,6.3,0,0,0-1.14,4,5.75,5.75,0,0,0,1.09,3.69,3.56,3.56,0,0,0,2.92,1.35,3.66,3.66,0,0,0,2.93-1.31A4.8,4.8,0,0,0,657.25,267.77Z"/><path class="cls-1" d="M674.64,267.66h-9.53a5,5,0,0,0,1.21,3.48,4.17,4.17,0,0,0,3.19,1.23,6.63,6.63,0,0,0,4.19-1.5v2a7.81,7.81,0,0,1-4.7,1.29,5.7,5.7,0,0,1-4.5-1.84,7.53,7.53,0,0,1-1.63-5.17,7.37,7.37,0,0,1,1.78-5.14,5.73,5.73,0,0,1,4.44-2,5.08,5.08,0,0,1,4.1,1.71,7.13,7.13,0,0,1,1.45,4.76Zm-2.21-1.83a4.35,4.35,0,0,0-.91-2.91,3,3,0,0,0-2.47-1,3.5,3.5,0,0,0-2.6,1.09,4.92,4.92,0,0,0-1.31,2.86Z"/><path class="cls-1" d="M685,262.56a2.64,2.64,0,0,0-1.63-.43,2.76,2.76,0,0,0-2.32,1.3,6,6,0,0,0-.93,3.56v6.88h-2.16v-13.5h2.16v2.78h0a4.67,4.67,0,0,1,1.42-2.22,3.21,3.21,0,0,1,2.12-.79,3.61,3.61,0,0,1,1.29.18Z"/><path class="cls-1" d="M686.66,273.38v-2.32a6.36,6.36,0,0,0,3.89,1.31c1.9,0,2.85-.63,2.85-1.9a1.65,1.65,0,0,0-.24-.91,2.47,2.47,0,0,0-.66-.67,5,5,0,0,0-1-.52q-.56-.24-1.2-.48a16.11,16.11,0,0,1-1.58-.72,4.77,4.77,0,0,1-1.13-.82,2.92,2.92,0,0,1-.69-1,3.76,3.76,0,0,1-.23-1.36,3.24,3.24,0,0,1,.44-1.68,3.78,3.78,0,0,1,1.16-1.23,5.17,5.17,0,0,1,1.65-.74,7.22,7.22,0,0,1,1.92-.25,7.85,7.85,0,0,1,3.14.6v2.19a6.14,6.14,0,0,0-3.43-1,4.15,4.15,0,0,0-1.1.13,3,3,0,0,0-.83.39,1.7,1.7,0,0,0-.54.6,1.57,1.57,0,0,0-.19.77,1.83,1.83,0,0,0,.19.89,1.93,1.93,0,0,0,.56.63,4.34,4.34,0,0,0,.89.5l1.2.49a16.81,16.81,0,0,1,1.61.7,5.68,5.68,0,0,1,1.21.82,3.2,3.2,0,0,1,.78,1.05,3.41,3.41,0,0,1,.27,1.41,3.27,3.27,0,0,1-.45,1.74,3.74,3.74,0,0,1-1.18,1.23,5.55,5.55,0,0,1-1.7.72,8.26,8.26,0,0,1-2,.24A7.64,7.64,0,0,1,686.66,273.38Z"/><path class="cls-1" d="M717,260.37l-5.38,13.5h-2.12l-5.12-13.5h2.37l3.43,9.81a9,9,0,0,1,.48,1.89h0a9.4,9.4,0,0,1,.42-1.84l3.59-9.86Z"/><path class="cls-1" d="M720.37,256.94a1.37,1.37,0,0,1-1-.39,1.31,1.31,0,0,1-.41-1,1.38,1.38,0,0,1,1.39-1.41,1.37,1.37,0,0,1,1,.4,1.34,1.34,0,0,1,.42,1,1.35,1.35,0,0,1-.42,1A1.37,1.37,0,0,1,720.37,256.94Zm1.06,16.93h-2.16v-13.5h2.16Z"/><path class="cls-1" d="M735.47,273.87h-2.16v-2.11h-.06a4.52,4.52,0,0,1-4.15,2.43,4.46,4.46,0,0,1-3.16-1.07,3.7,3.7,0,0,1-1.14-2.83c0-2.53,1.49-4,4.46-4.41l4-.56c0-2.3-.93-3.44-2.78-3.44a6.64,6.64,0,0,0-4.41,1.66v-2.22a8.41,8.41,0,0,1,4.59-1.26c3.17,0,4.76,1.67,4.76,5ZM733.31,267l-3.26.45a5.24,5.24,0,0,0-2.27.75,2.13,2.13,0,0,0-.76,1.89,2,2,0,0,0,.7,1.61,2.72,2.72,0,0,0,1.88.63,3.48,3.48,0,0,0,2.66-1.13,4,4,0,0,0,1-2.85Z"/><path class="cls-1" d="M383.07,289.37h-7.38v6.54h6.83v2h-6.83v8.37h-2.22v-18.9h9.6Z"/><path class="cls-1" d="M395,306.27h-2.16v-2.11h-.06a4.52,4.52,0,0,1-4.15,2.43,4.46,4.46,0,0,1-3.16-1.07,3.7,3.7,0,0,1-1.14-2.83c0-2.53,1.49-4,4.46-4.41l4.05-.56q0-3.45-2.78-3.45a6.65,6.65,0,0,0-4.41,1.67v-2.22a8.41,8.41,0,0,1,4.59-1.26c3.17,0,4.76,1.67,4.76,5Zm-2.16-6.83-3.26.45a5.24,5.24,0,0,0-2.27.75,2.13,2.13,0,0,0-.76,1.89,2,2,0,0,0,.7,1.61,2.72,2.72,0,0,0,1.88.63,3.48,3.48,0,0,0,2.66-1.13,4,4,0,0,0,1.05-2.85Z"/><path class="cls-1" d="M408.31,305.65a7,7,0,0,1-3.7.94,6.14,6.14,0,0,1-4.66-1.88,6.82,6.82,0,0,1-1.77-4.87,7.5,7.5,0,0,1,1.91-5.36,6.7,6.7,0,0,1,5.1-2,7.22,7.22,0,0,1,3.14.65v2.22a5.51,5.51,0,0,0-3.21-1.06,4.35,4.35,0,0,0-3.4,1.49,5.64,5.64,0,0,0-1.32,3.89,5.37,5.37,0,0,0,1.24,3.75,4.31,4.31,0,0,0,3.34,1.37,5.45,5.45,0,0,0,3.33-1.17Z"/><path class="cls-1" d="M422.43,300.06h-9.54a5,5,0,0,0,1.22,3.48,4.16,4.16,0,0,0,3.19,1.23,6.65,6.65,0,0,0,4.19-1.5v2a7.87,7.87,0,0,1-4.71,1.29,5.69,5.69,0,0,1-4.49-1.84,7.54,7.54,0,0,1-1.64-5.18,7.37,7.37,0,0,1,1.79-5.13,5.73,5.73,0,0,1,4.43-2,5.07,5.07,0,0,1,4.1,1.71,7.13,7.13,0,0,1,1.46,4.76Zm-2.22-1.83a4.4,4.4,0,0,0-.9-2.91,3.08,3.08,0,0,0-2.47-1.05,3.5,3.5,0,0,0-2.6,1.1,5,5,0,0,0-1.32,2.86Z"/><path class="cls-1" d="M427.91,304.32h-.05v1.95h-2.17v-20h2.17v8.86h.05a5.1,5.1,0,0,1,4.67-2.69,4.93,4.93,0,0,1,4.06,1.81,7.49,7.49,0,0,1,1.47,4.86,8.4,8.4,0,0,1-1.64,5.42,5.5,5.5,0,0,1-4.51,2A4.44,4.44,0,0,1,427.91,304.32Zm-.05-5.44v1.88a4,4,0,0,0,1.08,2.84,3.88,3.88,0,0,0,5.84-.33,6.87,6.87,0,0,0,1.12-4.18,5.49,5.49,0,0,0-1-3.54,3.47,3.47,0,0,0-2.82-1.28,3.84,3.84,0,0,0-3,1.32A4.83,4.83,0,0,0,427.86,298.88Z"/><path class="cls-1" d="M447.21,306.59a6.27,6.27,0,0,1-4.78-1.89,7,7,0,0,1-1.79-5,7.28,7.28,0,0,1,1.86-5.31,6.68,6.68,0,0,1,5-1.91,6,6,0,0,1,4.71,1.85,7.38,7.38,0,0,1,1.69,5.16,7.26,7.26,0,0,1-1.82,5.17A6.39,6.39,0,0,1,447.21,306.59Zm.16-12.32a4.14,4.14,0,0,0-3.3,1.42,5.83,5.83,0,0,0-1.21,3.91,5.52,5.52,0,0,0,1.23,3.79,4.16,4.16,0,0,0,3.28,1.38,3.93,3.93,0,0,0,3.22-1.36,5.88,5.88,0,0,0,1.13-3.86,6,6,0,0,0-1.13-3.9A3.91,3.91,0,0,0,447.37,294.27Z"/><path class="cls-1" d="M463,306.59a6.27,6.27,0,0,1-4.78-1.89,7,7,0,0,1-1.78-5,7.27,7.27,0,0,1,1.85-5.31,6.68,6.68,0,0,1,5-1.91,6,6,0,0,1,4.71,1.85,7.38,7.38,0,0,1,1.69,5.16,7.22,7.22,0,0,1-1.82,5.17A6.39,6.39,0,0,1,463,306.59Zm.16-12.32a4.14,4.14,0,0,0-3.3,1.42,5.83,5.83,0,0,0-1.21,3.91,5.52,5.52,0,0,0,1.23,3.79,4.16,4.16,0,0,0,3.28,1.38,3.93,3.93,0,0,0,3.22-1.36,5.88,5.88,0,0,0,1.13-3.86,6,6,0,0,0-1.13-3.9A3.91,3.91,0,0,0,463.19,294.27Z"/><path class="cls-1" d="M484.41,306.27h-3l-6-6.48h-.05v6.48h-2.16v-20h2.16V299h.05l5.67-6.19h2.84l-6.27,6.51Z"/><path class="cls-1" d="M488.46,306.56a1.38,1.38,0,0,1-1-.43,1.48,1.48,0,0,1,0-2.09,1.36,1.36,0,0,1,1-.44,1.48,1.48,0,0,1,1.06,2.53A1.45,1.45,0,0,1,488.46,306.56Z"/><path class="cls-1" d="M501.25,306.27v-18.9h5.38a5.89,5.89,0,0,1,3.89,1.2,3.86,3.86,0,0,1,1.43,3.12,4.54,4.54,0,0,1-3.26,4.48v.06a4.8,4.8,0,0,1,3.05,1.44,4.41,4.41,0,0,1,1.15,3.17,4.94,4.94,0,0,1-1.74,3.93,6.48,6.48,0,0,1-4.39,1.5Zm2.21-16.9v6.11h2.27a4.31,4.31,0,0,0,2.86-.88,3,3,0,0,0,1-2.47c0-1.84-1.2-2.76-3.62-2.76Zm0,8.1v6.8h3a4.55,4.55,0,0,0,3-.92,3.19,3.19,0,0,0,1.07-2.54q0-3.35-4.56-3.34Z"/><path class="cls-1" d="M527.35,306.27h-2.16v-2.13h-.05a4.46,4.46,0,0,1-4.17,2.45q-4.82,0-4.82-5.75v-8.07h2.15v7.73q0,4.28,3.27,4.27a3.3,3.3,0,0,0,2.6-1.17,4.46,4.46,0,0,0,1-3.05v-7.78h2.16Z"/><path class="cls-1" d="M542.46,292.77l-6.21,15.66q-1.66,4.2-4.66,4.2a5.15,5.15,0,0,1-1.42-.17v-1.94a4,4,0,0,0,1.28.23,2.66,2.66,0,0,0,2.46-1.95l1.08-2.55-5.28-13.48h2.4l3.65,10.39c0,.13.14.48.28,1h.08c0-.21.13-.55.26-1l3.84-10.42Z"/><path class="cls-1" d="M551.82,295a2.64,2.64,0,0,0-1.63-.43,2.76,2.76,0,0,0-2.32,1.3,6,6,0,0,0-.93,3.56v6.88h-2.16v-13.5h2.16v2.78H547a4.59,4.59,0,0,1,1.41-2.22,3.22,3.22,0,0,1,2.12-.8,3.58,3.58,0,0,1,1.29.19Z"/><path class="cls-1" d="M553.54,305.78v-2.32a6.38,6.38,0,0,0,3.89,1.31c1.89,0,2.84-.63,2.84-1.9A1.68,1.68,0,0,0,560,302a2.3,2.3,0,0,0-.66-.66,5,5,0,0,0-1-.52q-.55-.24-1.2-.48a16.11,16.11,0,0,1-1.58-.72,4.77,4.77,0,0,1-1.13-.82,3.22,3.22,0,0,1-.69-1,3.76,3.76,0,0,1-.23-1.36,3.21,3.21,0,0,1,.44-1.68,3.78,3.78,0,0,1,1.16-1.23,5.17,5.17,0,0,1,1.65-.74,7.22,7.22,0,0,1,1.92-.25,7.82,7.82,0,0,1,3.14.6v2.19a6.15,6.15,0,0,0-3.43-1,4.06,4.06,0,0,0-1.09.14,3,3,0,0,0-.84.39,1.92,1.92,0,0,0-.54.6,1.57,1.57,0,0,0-.19.77,1.86,1.86,0,0,0,.19.89,2.05,2.05,0,0,0,.56.63,4.18,4.18,0,0,0,.9.5l1.19.49a16.81,16.81,0,0,1,1.61.7,6,6,0,0,1,1.22.82,3.17,3.17,0,0,1,.77,1.05,3.73,3.73,0,0,1-.17,3.15,4,4,0,0,1-1.18,1.23,5.66,5.66,0,0,1-1.7.72,8.4,8.4,0,0,1-2,.24A7.6,7.6,0,0,1,553.54,305.78Z"/><path class="cls-1" d="M590.21,292.77l-4,13.5h-2.25l-2.78-9.66a7.23,7.23,0,0,1-.21-1.25h0a6.12,6.12,0,0,1-.28,1.22l-3,9.69h-2.16l-4.09-13.5h2.27l2.8,10.15a6.5,6.5,0,0,1,.18,1.22h.11a5.36,5.36,0,0,1,.23-1.24L580,292.77h2l2.8,10.18a7.59,7.59,0,0,1,.2,1.21h.1a5.9,5.9,0,0,1,.22-1.21l2.75-10.18Z"/><path class="cls-1" d="M593.82,289.34a1.37,1.37,0,0,1-1-.39,1.31,1.31,0,0,1-.41-1,1.38,1.38,0,0,1,1.39-1.41,1.37,1.37,0,0,1,1,.4,1.34,1.34,0,0,1,.42,1,1.35,1.35,0,0,1-.42,1A1.37,1.37,0,0,1,593.82,289.34Zm1.06,16.93h-2.16v-13.5h2.16Z"/><path class="cls-1" d="M601.42,306.27h-2.16v-20h2.16Z"/><path class="cls-1" d="M608,306.27H605.8v-20H608Z"/><path class="cls-1" d="M622,304.32h-.06v1.95h-2.16v-20h2.16v8.86H622a5.08,5.08,0,0,1,4.66-2.69,5,5,0,0,1,4.07,1.81,7.49,7.49,0,0,1,1.47,4.86,8.35,8.35,0,0,1-1.65,5.42,5.48,5.48,0,0,1-4.51,2A4.43,4.43,0,0,1,622,304.32Zm-.06-5.44v1.88A4,4,0,0,0,623,303.6a3.88,3.88,0,0,0,5.84-.33,6.94,6.94,0,0,0,1.11-4.18,5.43,5.43,0,0,0-1-3.54,3.44,3.44,0,0,0-2.82-1.28,3.82,3.82,0,0,0-3,1.32A4.83,4.83,0,0,0,621.89,298.88Z"/><path class="cls-1" d="M646.45,300.06h-9.53a5,5,0,0,0,1.22,3.48,4.16,4.16,0,0,0,3.19,1.23,6.65,6.65,0,0,0,4.19-1.5v2a7.87,7.87,0,0,1-4.71,1.29,5.68,5.68,0,0,1-4.49-1.84,7.54,7.54,0,0,1-1.64-5.18,7.37,7.37,0,0,1,1.79-5.13,5.73,5.73,0,0,1,4.43-2,5.07,5.07,0,0,1,4.1,1.71,7.13,7.13,0,0,1,1.45,4.76Zm-2.21-1.83a4.4,4.4,0,0,0-.9-2.91,3.08,3.08,0,0,0-2.48-1.05,3.48,3.48,0,0,0-2.59,1.1,4.93,4.93,0,0,0-1.32,2.86Z"/><path class="cls-1" d="M666.78,306.27h-2.16v-2.11h0a4.53,4.53,0,0,1-4.15,2.43,4.44,4.44,0,0,1-3.16-1.07,3.7,3.7,0,0,1-1.14-2.83c0-2.53,1.48-4,4.45-4.41l4-.56q0-3.45-2.78-3.45a6.63,6.63,0,0,0-4.4,1.67v-2.22a8.35,8.35,0,0,1,4.58-1.26c3.18,0,4.76,1.67,4.76,5Zm-2.16-6.83-3.26.45a5.19,5.19,0,0,0-2.26.75,2.13,2.13,0,0,0-.77,1.89,2,2,0,0,0,.71,1.61,2.7,2.7,0,0,0,1.88.63,3.47,3.47,0,0,0,2.65-1.13,4,4,0,0,0,1-2.85Z"/><path class="cls-1" d="M673.07,304.32H673v1.95h-2.16v-20H673v8.86h.05a5.11,5.11,0,0,1,4.67-2.69,5,5,0,0,1,4.07,1.81,7.49,7.49,0,0,1,1.47,4.86,8.35,8.35,0,0,1-1.65,5.42,5.48,5.48,0,0,1-4.51,2A4.45,4.45,0,0,1,673.07,304.32Zm-.05-5.44v1.88a4,4,0,0,0,1.09,2.84,3.59,3.59,0,0,0,2.76,1.17,3.63,3.63,0,0,0,3.08-1.5,6.94,6.94,0,0,0,1.11-4.18,5.49,5.49,0,0,0-1-3.54,3.47,3.47,0,0,0-2.82-1.28,3.8,3.8,0,0,0-3,1.32A4.78,4.78,0,0,0,673,298.88Z"/><path class="cls-1" d="M688.89,306.27h-2.16v-20h2.16Z"/><path class="cls-1" d="M704.12,300.06h-9.53a5,5,0,0,0,1.21,3.48,4.17,4.17,0,0,0,3.19,1.23,6.63,6.63,0,0,0,4.19-1.5v2a7.81,7.81,0,0,1-4.7,1.29,5.7,5.7,0,0,1-4.5-1.84,7.54,7.54,0,0,1-1.63-5.18,7.37,7.37,0,0,1,1.78-5.13,5.73,5.73,0,0,1,4.44-2,5.08,5.08,0,0,1,4.1,1.71,7.13,7.13,0,0,1,1.45,4.76Zm-2.22-1.83a4.35,4.35,0,0,0-.9-2.91,3.06,3.06,0,0,0-2.47-1.05,3.5,3.5,0,0,0-2.6,1.1,5,5,0,0,0-1.32,2.86Z"/><path class="cls-1" d="M721.05,306.14a4.21,4.21,0,0,1-2,.42c-2.36,0-3.55-1.32-3.55-3.95v-8h-2.32v-1.85h2.32v-3.29l2.17-.7v4h3.4v1.85h-3.4v7.61a3.11,3.11,0,0,0,.46,1.93,1.81,1.81,0,0,0,1.53.58,2.28,2.28,0,0,0,1.41-.45Z"/><path class="cls-1" d="M729.37,306.59a6.26,6.26,0,0,1-4.78-1.89,7,7,0,0,1-1.79-5,7.28,7.28,0,0,1,1.86-5.31,6.65,6.65,0,0,1,5-1.91,6,6,0,0,1,4.71,1.85,7.38,7.38,0,0,1,1.7,5.16,7.23,7.23,0,0,1-1.83,5.17A6.37,6.37,0,0,1,729.37,306.59Zm.15-12.32a4.13,4.13,0,0,0-3.29,1.42A5.83,5.83,0,0,0,725,299.6a5.52,5.52,0,0,0,1.23,3.79,4.17,4.17,0,0,0,3.28,1.38,4,4,0,0,0,3.23-1.36,5.88,5.88,0,0,0,1.12-3.86,6,6,0,0,0-1.12-3.9A3.93,3.93,0,0,0,729.52,294.27Z"/><path class="cls-1" d="M365.27,336.72h0v8.16h-2.16V325.17h2.16v2.38h0a5.11,5.11,0,0,1,4.67-2.69,4.92,4.92,0,0,1,4.07,1.81,7.49,7.49,0,0,1,1.47,4.86,8.35,8.35,0,0,1-1.65,5.42,5.48,5.48,0,0,1-4.51,2A4.53,4.53,0,0,1,365.27,336.72Zm0-5.44v1.88a4,4,0,0,0,1.09,2.84,3.88,3.88,0,0,0,5.84-.33,6.94,6.94,0,0,0,1.11-4.18,5.43,5.43,0,0,0-1-3.54,3.43,3.43,0,0,0-2.82-1.27,3.8,3.8,0,0,0-3,1.31A4.78,4.78,0,0,0,365.22,331.28Z"/><path class="cls-1" d="M381.09,338.67h-2.16v-20h2.16Z"/><path class="cls-1" d="M395.14,338.67H393v-2.11h-.05a4.52,4.52,0,0,1-4.15,2.43,4.44,4.44,0,0,1-3.16-1.07,3.7,3.7,0,0,1-1.14-2.83c0-2.53,1.48-4,4.46-4.41l4-.56c0-2.3-.92-3.44-2.78-3.44a6.64,6.64,0,0,0-4.4,1.66v-2.22a8.39,8.39,0,0,1,4.59-1.26c3.17,0,4.76,1.67,4.76,5ZM393,331.84l-3.25.45a5.2,5.2,0,0,0-2.27.75,2.13,2.13,0,0,0-.77,1.89,2,2,0,0,0,.71,1.61,2.72,2.72,0,0,0,1.88.63,3.45,3.45,0,0,0,2.65-1.13,4,4,0,0,0,1.05-2.85Z"/><path class="cls-1" d="M408.41,338.05a7,7,0,0,1-3.69.94,6.11,6.11,0,0,1-4.66-1.88,6.82,6.82,0,0,1-1.77-4.87,7.47,7.47,0,0,1,1.91-5.36,6.67,6.67,0,0,1,5.1-2,7.11,7.11,0,0,1,3.14.66v2.21a5.52,5.52,0,0,0-3.22-1.05,4.33,4.33,0,0,0-3.39,1.48,5.6,5.6,0,0,0-1.33,3.89,5.38,5.38,0,0,0,1.25,3.75,4.3,4.3,0,0,0,3.34,1.37,5.42,5.42,0,0,0,3.32-1.17Z"/><path class="cls-1" d="M422.53,332.46H413a5,5,0,0,0,1.21,3.48,4.19,4.19,0,0,0,3.19,1.23,6.63,6.63,0,0,0,4.19-1.5v2a7.81,7.81,0,0,1-4.7,1.29,5.7,5.7,0,0,1-4.5-1.84,7.53,7.53,0,0,1-1.63-5.17,7.37,7.37,0,0,1,1.78-5.14,5.73,5.73,0,0,1,4.44-2,5.08,5.08,0,0,1,4.1,1.71,7.13,7.13,0,0,1,1.45,4.76Zm-2.21-1.83a4.35,4.35,0,0,0-.91-2.91,3,3,0,0,0-2.47-1,3.5,3.5,0,0,0-2.6,1.09,4.92,4.92,0,0,0-1.31,2.86Z"/><path class="cls-1" d="M438.84,339a6.26,6.26,0,0,1-4.78-1.89,7,7,0,0,1-1.79-5,7.28,7.28,0,0,1,1.86-5.31,6.68,6.68,0,0,1,5-1.91,6.05,6.05,0,0,1,4.71,1.86,8.47,8.47,0,0,1-.13,10.32A6.39,6.39,0,0,1,438.84,339Zm.16-12.31a4.13,4.13,0,0,0-3.3,1.41,5.83,5.83,0,0,0-1.21,3.91,5.57,5.57,0,0,0,1.22,3.79,4.19,4.19,0,0,0,3.29,1.38,3.94,3.94,0,0,0,3.22-1.36,5.88,5.88,0,0,0,1.13-3.86,6,6,0,0,0-1.13-3.9A3.92,3.92,0,0,0,439,326.68Z"/><path class="cls-1" d="M456.06,327.36a2.67,2.67,0,0,0-1.64-.43,2.75,2.75,0,0,0-2.31,1.3,6,6,0,0,0-.93,3.56v6.88H449v-13.5h2.16V328h.05a4.74,4.74,0,0,1,1.41-2.22,3.21,3.21,0,0,1,2.12-.79,3.64,3.64,0,0,1,1.3.18Z"/><path class="cls-1" d="M469.57,338.67h-2.16v-2.29h-.06a5,5,0,0,1-4.64,2.61,5.05,5.05,0,0,1-4.06-1.81,7.43,7.43,0,0,1-1.53-4.94,8.14,8.14,0,0,1,1.69-5.37,5.59,5.59,0,0,1,4.5-2,4.33,4.33,0,0,1,4,2.18h.06v-8.35h2.16Zm-2.16-6.1v-2a3.86,3.86,0,0,0-1.08-2.77,3.62,3.62,0,0,0-2.75-1.13,3.74,3.74,0,0,0-3.11,1.45,6.36,6.36,0,0,0-1.13,4,5.69,5.69,0,0,0,1.09,3.69,3.55,3.55,0,0,0,2.92,1.35,3.69,3.69,0,0,0,2.93-1.31A4.85,4.85,0,0,0,467.41,332.57Z"/><path class="cls-1" d="M484.8,332.46h-9.54a5,5,0,0,0,1.22,3.48,4.16,4.16,0,0,0,3.19,1.23,6.63,6.63,0,0,0,4.19-1.5v2a7.84,7.84,0,0,1-4.71,1.29,5.69,5.69,0,0,1-4.49-1.84A7.53,7.53,0,0,1,473,332a7.38,7.38,0,0,1,1.79-5.14,5.73,5.73,0,0,1,4.44-2,5.09,5.09,0,0,1,4.1,1.71,7.18,7.18,0,0,1,1.45,4.76Zm-2.22-1.83a4.4,4.4,0,0,0-.9-2.91,3.06,3.06,0,0,0-2.47-1,3.49,3.49,0,0,0-2.6,1.09,5,5,0,0,0-1.32,2.86Z"/><path class="cls-1" d="M495.11,327.36a2.67,2.67,0,0,0-1.64-.43,2.75,2.75,0,0,0-2.31,1.3,6,6,0,0,0-.93,3.56v6.88h-2.16v-13.5h2.16V328h0a4.74,4.74,0,0,1,1.41-2.22,3.21,3.21,0,0,1,2.12-.79,3.64,3.64,0,0,1,1.3.18Z"/><path class="cls-1" d="M496.82,338.18v-2.32a6.4,6.4,0,0,0,3.89,1.31c1.9,0,2.85-.63,2.85-1.9a1.6,1.6,0,0,0-.25-.92,2.3,2.3,0,0,0-.66-.66,4.9,4.9,0,0,0-1-.52c-.38-.16-.78-.32-1.21-.48a15.86,15.86,0,0,1-1.57-.72,4.84,4.84,0,0,1-1.14-.82,3,3,0,0,1-.68-1,3.56,3.56,0,0,1-.23-1.36,3.21,3.21,0,0,1,.43-1.68,3.89,3.89,0,0,1,1.16-1.23,5.33,5.33,0,0,1,1.66-.74,7.2,7.2,0,0,1,1.91-.25,7.82,7.82,0,0,1,3.14.6v2.19a6.1,6.1,0,0,0-3.43-1,4.12,4.12,0,0,0-1.09.13,3.11,3.11,0,0,0-.84.39,1.92,1.92,0,0,0-.54.6,1.57,1.57,0,0,0-.19.77,1.83,1.83,0,0,0,.19.89,2.19,2.19,0,0,0,.56.63,4.73,4.73,0,0,0,.9.5l1.2.49c.6.23,1.13.46,1.61.7a6,6,0,0,1,1.21.82,3.17,3.17,0,0,1,.77,1,3.41,3.41,0,0,1,.27,1.41,3.36,3.36,0,0,1-.44,1.74,3.84,3.84,0,0,1-1.18,1.23,5.55,5.55,0,0,1-1.7.72,8.28,8.28,0,0,1-2,.24A7.6,7.6,0,0,1,496.82,338.18Z"/><path class="cls-1" d="M533.5,325.17l-4,13.5h-2.24L524.43,329a5.72,5.72,0,0,1-.21-1.25h-.06a6,6,0,0,1-.27,1.22l-3,9.69H518.7l-4.08-13.5h2.27l2.79,10.15a6.4,6.4,0,0,1,.19,1.22h.1a6,6,0,0,1,.24-1.24l3.11-10.13h2l2.79,10.18a6.76,6.76,0,0,1,.2,1.21h.1a6,6,0,0,1,.23-1.21l2.74-10.18Z"/><path class="cls-1" d="M537.11,321.74a1.37,1.37,0,0,1-1-.39,1.34,1.34,0,0,1-.41-1,1.36,1.36,0,0,1,.41-1,1.34,1.34,0,0,1,1-.4,1.4,1.4,0,0,1,1,.4,1.36,1.36,0,0,1,.41,1,1.38,1.38,0,0,1-.41,1A1.4,1.4,0,0,1,537.11,321.74Zm1,16.93H536v-13.5h2.16Z"/><path class="cls-1" d="M548.8,338.54a4.17,4.17,0,0,1-2,.42q-3.56,0-3.55-3.95v-8h-2.32v-1.85h2.32v-3.29l2.16-.7v4h3.4V327h-3.4v7.61a3.18,3.18,0,0,0,.46,1.93,1.84,1.84,0,0,0,1.53.58,2.24,2.24,0,0,0,1.41-.45Z"/><path class="cls-1" d="M562.9,338.67h-2.17v-7.78q0-4.22-3.13-4.21a3.4,3.4,0,0,0-2.67,1.22,4.53,4.53,0,0,0-1.08,3.13v7.64h-2.16v-20h2.16v8.72h.06a4.9,4.9,0,0,1,4.42-2.55q4.57,0,4.57,5.49Z"/><path class="cls-1" d="M572.61,339a6.27,6.27,0,0,1-4.78-1.89,7,7,0,0,1-1.78-5,7.28,7.28,0,0,1,1.86-5.31,6.65,6.65,0,0,1,5-1.91,6.05,6.05,0,0,1,4.71,1.86,7.34,7.34,0,0,1,1.7,5.15,7.23,7.23,0,0,1-1.83,5.17A6.39,6.39,0,0,1,572.61,339Zm.16-12.31a4.13,4.13,0,0,0-3.3,1.41,5.88,5.88,0,0,0-1.21,3.91,5.52,5.52,0,0,0,1.23,3.79,4.17,4.17,0,0,0,3.28,1.38,3.93,3.93,0,0,0,3.22-1.36,5.83,5.83,0,0,0,1.13-3.86,5.93,5.93,0,0,0-1.13-3.9A3.91,3.91,0,0,0,572.77,326.68Z"/><path class="cls-1" d="M593.71,338.67h-2.17v-2.13h0a4.44,4.44,0,0,1-4.16,2.45q-4.83,0-4.83-5.75v-8.07h2.15v7.73q0,4.28,3.27,4.27a3.3,3.3,0,0,0,2.6-1.17,4.44,4.44,0,0,0,1-3.05v-7.78h2.17Z"/><path class="cls-1" d="M604.33,338.54a4.17,4.17,0,0,1-2,.42q-3.55,0-3.55-3.95v-8h-2.32v-1.85h2.32v-3.29l2.16-.7v4h3.4V327h-3.4v7.61a3.11,3.11,0,0,0,.46,1.93,1.84,1.84,0,0,0,1.53.58,2.24,2.24,0,0,0,1.41-.45Z"/><path class="cls-1" d="M620.88,338.54a4.18,4.18,0,0,1-2,.42c-2.36,0-3.55-1.32-3.55-3.95v-8H613v-1.85h2.32v-3.29l2.17-.7v4h3.4V327h-3.4v7.61a3.11,3.11,0,0,0,.46,1.93,1.84,1.84,0,0,0,1.53.58,2.28,2.28,0,0,0,1.41-.45Z"/><path class="cls-1" d="M635,338.67h-2.16v-7.78q0-4.22-3.14-4.21A3.4,3.4,0,0,0,627,327.9a4.53,4.53,0,0,0-1.08,3.13v7.64h-2.17v-20h2.17v8.72H626a4.91,4.91,0,0,1,4.43-2.55q4.56,0,4.56,5.49Z"/><path class="cls-1" d="M640.15,321.74a1.41,1.41,0,0,1-1-.39,1.34,1.34,0,0,1-.41-1,1.38,1.38,0,0,1,1.4-1.41,1.39,1.39,0,0,1,1,.4,1.34,1.34,0,0,1,.42,1,1.35,1.35,0,0,1-.42,1A1.39,1.39,0,0,1,640.15,321.74Zm1.06,16.93H639v-13.5h2.17Z"/><path class="cls-1" d="M652.62,327.36a2.62,2.62,0,0,0-1.63-.43,2.74,2.74,0,0,0-2.31,1.3,6,6,0,0,0-.93,3.56v6.88h-2.17v-13.5h2.17V328h0a4.74,4.74,0,0,1,1.41-2.22,3.21,3.21,0,0,1,2.12-.79,3.61,3.61,0,0,1,1.29.18Z"/><path class="cls-1" d="M666.14,338.67H664v-2.29h-.05a5,5,0,0,1-4.64,2.61,5.09,5.09,0,0,1-4.07-1.81,7.48,7.48,0,0,1-1.52-4.94,8.09,8.09,0,0,1,1.69-5.37,5.56,5.56,0,0,1,4.49-2,4.33,4.33,0,0,1,4,2.18H664v-8.35h2.17Zm-2.17-6.1v-2a3.86,3.86,0,0,0-1.08-2.77,3.6,3.6,0,0,0-2.74-1.13,3.73,3.73,0,0,0-3.11,1.45,6.3,6.3,0,0,0-1.13,4,5.75,5.75,0,0,0,1.08,3.69,3.56,3.56,0,0,0,2.92,1.35,3.7,3.7,0,0,0,2.94-1.31A4.84,4.84,0,0,0,664,332.57Z"/><path class="cls-1" d="M680.12,336.72h0v8.16h-2.16V325.17h2.16v2.38h0a5.11,5.11,0,0,1,4.67-2.69,5,5,0,0,1,4.08,1.81,7.55,7.55,0,0,1,1.46,4.86,8.35,8.35,0,0,1-1.65,5.42,5.48,5.48,0,0,1-4.51,2A4.53,4.53,0,0,1,680.12,336.72Zm0-5.44v1.88a4,4,0,0,0,1.09,2.84,3.88,3.88,0,0,0,5.84-.33,6.94,6.94,0,0,0,1.11-4.18,5.43,5.43,0,0,0-1-3.54,3.43,3.43,0,0,0-2.82-1.27,3.8,3.8,0,0,0-3,1.31A4.78,4.78,0,0,0,680.07,331.28Z"/><path class="cls-1" d="M703.09,338.67h-2.16v-2.11h0a4.53,4.53,0,0,1-4.16,2.43,4.44,4.44,0,0,1-3.15-1.07,3.66,3.66,0,0,1-1.14-2.83c0-2.53,1.48-4,4.45-4.41l4-.56c0-2.3-.93-3.44-2.78-3.44a6.64,6.64,0,0,0-4.41,1.66v-2.22a8.41,8.41,0,0,1,4.59-1.26c3.17,0,4.76,1.67,4.76,5Zm-2.16-6.83-3.26.45a5.24,5.24,0,0,0-2.27.75,2.13,2.13,0,0,0-.76,1.89,2,2,0,0,0,.7,1.61,2.74,2.74,0,0,0,1.88.63,3.48,3.48,0,0,0,2.66-1.13,4,4,0,0,0,1-2.85Z"/><path class="cls-1" d="M714.2,327.36a2.62,2.62,0,0,0-1.63-.43,2.75,2.75,0,0,0-2.31,1.3,6,6,0,0,0-.93,3.56v6.88h-2.17v-13.5h2.17V328h0a4.74,4.74,0,0,1,1.41-2.22,3.21,3.21,0,0,1,2.12-.79,3.58,3.58,0,0,1,1.29.18Z"/><path class="cls-1" d="M723.59,338.54a4.18,4.18,0,0,1-2,.42Q718,339,718,335v-8h-2.32v-1.85H718v-3.29l2.16-.7v4h3.4V327h-3.4v7.61a3.11,3.11,0,0,0,.46,1.93,1.84,1.84,0,0,0,1.53.58,2.24,2.24,0,0,0,1.41-.45Z"/><path class="cls-1" d="M737.22,325.17,731,340.83c-1.1,2.8-2.66,4.2-4.66,4.2a5,5,0,0,1-1.41-.17v-1.94a3.89,3.89,0,0,0,1.27.23,2.66,2.66,0,0,0,2.46-1.95l1.08-2.55-5.28-13.48h2.4l3.66,10.39c0,.13.13.48.27,1h.08c0-.21.13-.55.27-1L735,325.17Z"/><path class="cls-1" d="M589.14,354.14a1.37,1.37,0,0,1-1-.39,1.44,1.44,0,0,1,0-2,1.34,1.34,0,0,1,1-.4,1.37,1.37,0,0,1,1,.4,1.34,1.34,0,0,1,.42,1,1.35,1.35,0,0,1-.42,1A1.37,1.37,0,0,1,589.14,354.14Zm1.06,16.93H588v-13.5h2.16Z"/><path class="cls-1" d="M605.78,371.07h-2.16v-7.7c0-2.86-1-4.3-3.14-4.3a3.41,3.41,0,0,0-2.68,1.22,4.52,4.52,0,0,0-1.06,3.08v7.7h-2.16v-13.5h2.16v2.24h0a4.88,4.88,0,0,1,4.43-2.55,4.11,4.11,0,0,1,3.39,1.43,6.37,6.37,0,0,1,1.17,4.13Z"/><path class="cls-1" d="M620.47,357.57l-5.38,13.5H613l-5.12-13.5h2.38l3.42,9.81a8.44,8.44,0,0,1,.48,1.89h0a9.4,9.4,0,0,1,.42-1.84l3.59-9.86Z"/><path class="cls-1" d="M628.27,371.39a6.29,6.29,0,0,1-4.78-1.89,7,7,0,0,1-1.78-5,7.28,7.28,0,0,1,1.86-5.31,6.65,6.65,0,0,1,5-1.91,6,6,0,0,1,4.71,1.85,7.38,7.38,0,0,1,1.7,5.16,7.23,7.23,0,0,1-1.83,5.17A6.39,6.39,0,0,1,628.27,371.39Zm.16-12.32a4.1,4.1,0,0,0-3.29,1.42,5.83,5.83,0,0,0-1.22,3.91,5.52,5.52,0,0,0,1.23,3.79,4.17,4.17,0,0,0,3.28,1.38,4,4,0,0,0,3.23-1.36,5.88,5.88,0,0,0,1.12-3.86,6,6,0,0,0-1.12-3.9A4,4,0,0,0,628.43,359.07Z"/><path class="cls-1" d="M640.61,371.07h-2.16v-20h2.16Z"/><path class="cls-1" d="M655.6,357.57l-5.38,13.5H648.1L643,357.57h2.37l3.43,9.81a8.93,8.93,0,0,1,.47,1.89h0a8.72,8.72,0,0,1,.43-1.84l3.58-9.86Z"/><path class="cls-1" d="M668.62,364.86h-9.54a5.05,5.05,0,0,0,1.22,3.48,4.16,4.16,0,0,0,3.19,1.23,6.63,6.63,0,0,0,4.19-1.5v2a7.87,7.87,0,0,1-4.71,1.29,5.72,5.72,0,0,1-4.49-1.84,7.54,7.54,0,0,1-1.64-5.18,7.37,7.37,0,0,1,1.79-5.13,5.73,5.73,0,0,1,4.44-2,5.09,5.09,0,0,1,4.1,1.71,7.18,7.18,0,0,1,1.45,4.76ZM666.4,363a4.4,4.4,0,0,0-.9-2.91,3.08,3.08,0,0,0-2.47-1.05,3.5,3.5,0,0,0-2.6,1.1,5,5,0,0,0-1.32,2.86Z"/><path class="cls-1" d="M691.05,371.07h-2.16v-7.75a5.84,5.84,0,0,0-.69-3.24,2.63,2.63,0,0,0-2.33-1,2.9,2.9,0,0,0-2.35,1.27,4.8,4.8,0,0,0-1,3v7.7h-2.16v-8c0-2.66-1-4-3.07-4a2.85,2.85,0,0,0-2.35,1.2,4.89,4.89,0,0,0-.92,3.1v7.7h-2.16v-13.5h2.16v2.14h.05a4.58,4.58,0,0,1,4.19-2.45,3.84,3.84,0,0,1,2.41.77,3.89,3.89,0,0,1,1.42,2,4.81,4.81,0,0,1,4.48-2.79q4.46,0,4.45,5.49Z"/><path class="cls-1" d="M706,364.86h-9.53a5,5,0,0,0,1.21,3.48,4.19,4.19,0,0,0,3.19,1.23,6.63,6.63,0,0,0,4.19-1.5v2a7.81,7.81,0,0,1-4.7,1.29,5.73,5.73,0,0,1-4.5-1.84,7.54,7.54,0,0,1-1.63-5.18,7.37,7.37,0,0,1,1.78-5.13,5.75,5.75,0,0,1,4.44-2,5.08,5.08,0,0,1,4.1,1.71,7.13,7.13,0,0,1,1.45,4.76ZM703.78,363a4.35,4.35,0,0,0-.91-2.91,3,3,0,0,0-2.47-1.05,3.51,3.51,0,0,0-2.6,1.1,4.92,4.92,0,0,0-1.31,2.86Z"/><path class="cls-1" d="M720.47,371.07H718.3v-7.7c0-2.86-1-4.3-3.13-4.3a3.43,3.43,0,0,0-2.69,1.22,4.57,4.57,0,0,0-1.06,3.08v7.7h-2.16v-13.5h2.16v2.24h.06a4.86,4.86,0,0,1,4.43-2.55,4.1,4.1,0,0,1,3.38,1.43,6.31,6.31,0,0,1,1.18,4.13Z"/><path class="cls-1" d="M730.8,370.94a4.17,4.17,0,0,1-2,.42q-3.56,0-3.55-3.95v-8h-2.32v-1.85h2.32v-3.29l2.16-.7v4h3.4v1.85h-3.4V367a3.12,3.12,0,0,0,.46,1.94,1.84,1.84,0,0,0,1.53.58,2.24,2.24,0,0,0,1.41-.45Z"/><path class="cls-1" d="M734.44,371.36a1.38,1.38,0,0,1-1-.43,1.48,1.48,0,0,1,0-2.09,1.36,1.36,0,0,1,1-.44,1.48,1.48,0,0,1,1.06,2.53A1.45,1.45,0,0,1,734.44,371.36Z"/><path class="cls-4" d="M426.66,119.87h8q5.31,0,5.31,5.64v9.75c0,3.73-1.75,5.59-5.27,5.59h-3.66v11.91h-4.4Zm4.4,17h2.79c1.16,0,1.74-.65,1.74-1.93v-9.16a1.71,1.71,0,0,0-2-1.92h-2.57Z"/><path class="cls-4" d="M447.64,152.76h-4.4V125.51q0-5.64,5.27-5.64h3.3q5.26,0,5.26,5.64v27.25h-4.39v-12h-5Zm5-16V125.78a1.7,1.7,0,0,0-1.93-1.92h-1.19a1.7,1.7,0,0,0-1.92,1.92v10.95Z"/><path class="cls-4" d="M461,119.87h8.61q5,0,5,5.64v8.1q0,4.3-2.61,5.45l3.07,13.7H470.9L468,139.48h-2.66v13.28H461Zm4.39,15.85h2.89c1.31,0,2-.79,2-2.38v-7.1c0-1.59-.66-2.38-2-2.38h-2.89Z"/><path class="cls-4" d="M478.28,119.87h8.61q5,0,5,5.64v8.1q0,4.3-2.61,5.45l3.07,13.7h-4.17l-2.88-13.28h-2.66v13.28h-4.39Zm4.39,15.85h2.89c1.31,0,2-.79,2-2.38v-7.1c0-1.59-.66-2.38-2-2.38h-2.89Z"/><path class="cls-4" d="M500.67,152.76q-5.31,0-5.31-5.59V125.51q0-5.64,5.26-5.64h4.22q5.27,0,5.26,5.64v21.66q0,5.6-5.31,5.59Zm1.05-4H504q1.74,0,1.74-1.92V125.78a1.72,1.72,0,0,0-2-1.92h-2.06a1.7,1.7,0,0,0-1.93,1.92v21.07A1.72,1.72,0,0,0,501.72,148.77Z"/><path class="cls-4" d="M521,123.86v28.9h-4.39v-28.9h-4.22v-4h12.83v4Z"/><path class="cls-5" d="M213.83,107.43a45.54,45.54,0,0,0-45.24,50.31v78.75c.68,0,1.35.11,2,.11a44.13,44.13,0,0,0,43.71-38.21,45.48,45.48,0,0,0-.52-91Zm0,74.2a28.7,28.7,0,1,1,28.7-28.7A28.7,28.7,0,0,1,213.84,181.63Z"/><circle class="cls-5" cx="209.08" cy="145.66" r="4.76"/><path class="cls-1" d="M216,209.57a43.93,43.93,0,0,0-1.61-11.65,44.17,44.17,0,0,1-43.8,38.67c-.69,0-1.37-.07-2-.11v17.1c1.08.08,2.17.17,3.27.17A44.18,44.18,0,0,0,216,209.57Z"/><g class="cls-6"><path class="cls-7" d="M214.45,164.46v0l.09,0Z"/></g><g class="cls-8"><path class="cls-7" d="M214.45,164.46v0l.09,0Z"/></g><path class="cls-1" d="M260,164.48a45.34,45.34,0,0,1-18.35,36.39A34.59,34.59,0,0,0,242,196a29.72,29.72,0,0,0-.19-3.41,31.83,31.83,0,0,0-27.36-28.13l.1,0h45.39Z"/><path class="cls-5" d="M241.81,192.63a31.88,31.88,0,0,0-27.36-28.14v34a30.74,30.74,0,0,0,27.36-5.84Z"/></svg>