<svg width="528" height="316" viewBox="0 0 528 316" fill="none" xmlns="http://www.w3.org/2000/svg">
<g opacity="0.6">
<path d="M205.9 53.112C205.9 53.112 205.32 50.332 204.35 42.292L195.51 24.962C195.51 24.962 197.51 21.332 202.02 29.012C204.1 32.512 211.02 31.012 209.9 25.552C208.78 20.092 201.62 17.552 197.24 22.992C197.24 22.992 194.41 23.282 194.08 21.072C193.75 18.862 200.14 13.402 205.58 14.992C207.797 15.6901 209.842 16.8487 211.58 18.392C211.58 18.392 210.4 0.172003 211.88 0.012003C213.36 -0.147997 215.41 1.01201 216.53 20.942C216.53 20.942 217.15 5.172 217.46 3.162C217.77 1.152 220.46 -0.207995 220.82 4.842C220.82 5.402 221.82 20.902 221.82 20.902C221.82 20.902 223.59 10.652 223.82 9.832C224.32 7.672 226.45 7.902 226.66 10.762C226.81 12.932 227.51 22.192 227.51 22.192L228.85 50.702H229.03" fill="#FFBE9D"/>
<path d="M234.18 43.7018L200.98 42.8418L197.68 123.182L160.12 106.702L160.06 106.832C157.8 105.832 155.83 104.932 154.78 104.352C134.03 93.0418 120.41 91.6618 98.1401 99.6118L55.4801 116.692C47.2201 120.582 25.7301 124.172 18.3601 158.152L17.3601 162.212L51.5001 186.702L74.9101 248.402L102.91 310.162L167.36 308.072L201.04 266.072L172.46 211.482L154.7 150.342C167.25 158.672 190.54 170.012 218.43 164.102C248.68 157.702 234.18 43.7018 234.18 43.7018Z" fill="#6BB0F0"/>
<path opacity="0.3" d="M74.6899 247.772C79.8135 250.891 85.342 253.29 91.1199 254.902C94.2599 255.842 97.8599 256.532 100.65 254.812C103.44 253.092 103.87 248.002 100.75 246.982L127.8 240.872C124.13 230.312 130.18 218.262 139.33 211.872C148.48 205.482 158.88 203.622 170.02 202.652L183.51 244.502L138.42 306.002L101.5 307.072L74.6899 247.772Z" fill="black"/>
<path d="M60.54 189.962C60.54 189.962 43.63 226.962 47.54 245.402C49.7 255.722 83.47 264.532 104.99 267.162L98.54 303.282C98.54 303.282 18.54 295.672 3.59 264.002C-4.91 246.002 3.7 202.002 19.89 152.202L60.54 189.962Z" fill="#6BB0F0"/>
<path d="M137.56 233.292C137.382 233.416 137.191 233.52 136.99 233.602L135.3 234.382C133.83 235.062 131.68 235.992 129.01 237.112C123.67 239.332 116.19 242.192 107.78 244.892C99.3701 247.592 91.6201 249.612 85.9801 250.892C83.1601 251.542 80.8701 252.032 79.2801 252.332L77.4501 252.672C77.2413 252.729 77.0263 252.759 76.8101 252.762C77.0089 252.675 77.2169 252.612 77.4301 252.572L79.2401 252.132C80.8201 251.772 83.0901 251.222 85.9001 250.532C91.5101 249.142 99.2201 247.062 107.62 244.372C116.02 241.682 123.5 238.882 128.87 236.742C131.56 235.682 133.72 234.802 135.22 234.182L136.94 233.482C137.139 233.397 137.347 233.333 137.56 233.292V233.292Z" fill="white"/>
<path d="M159.83 105.512C159.83 105.642 128.36 117.072 89.4399 131.032C50.5199 144.992 18.9099 156.202 18.8599 156.032C18.8099 155.862 50.3299 144.472 89.2599 130.512C128.19 116.552 159.78 105.372 159.83 105.512Z" fill="white"/>
<path d="M52.32 208.702C52.3371 208.626 52.3639 208.552 52.4 208.482L52.66 207.862L53.66 205.472C54.54 203.392 55.79 200.362 57.06 196.532C58.5564 192.041 59.5819 187.406 60.12 182.702C60.7828 176.958 60.3622 171.141 58.88 165.552C57.4251 159.949 54.553 154.814 50.54 150.642C47.203 147.302 43.1009 144.827 38.59 143.432C35.5456 142.503 32.3517 142.163 29.18 142.432L27.69 142.622C27.26 142.682 26.91 142.772 26.61 142.822L25.95 142.952H25.72C25.72 142.952 25.79 142.952 25.93 142.882L26.59 142.702C26.88 142.632 27.24 142.522 27.67 142.442L29.16 142.212C32.3616 141.86 35.6012 142.149 38.69 143.062C43.2887 144.422 47.4776 146.903 50.88 150.282C54.9714 154.5 57.8999 159.706 59.38 165.392C60.8801 171.043 61.2941 176.927 60.6 182.732C60.0269 187.456 58.9542 192.105 57.4 196.602C56.08 200.432 54.78 203.442 53.84 205.502C53.36 206.502 52.98 207.322 52.71 207.852L52.4 208.462C52.37 208.612 52.33 208.702 52.32 208.702Z" fill="#263238"/>
<path d="M132.67 97.1821C132.87 97.2418 133.061 97.3257 133.24 97.4321C133.777 97.6987 134.295 98.0027 134.79 98.3421C136.626 99.583 138.256 101.105 139.62 102.852C141.621 105.459 143.219 108.351 144.36 111.432C145.719 115.191 146.878 119.02 147.83 122.902L153.4 143.902L155.02 150.292L155.44 152.032C155.502 152.233 155.539 152.442 155.55 152.652C155.458 152.464 155.387 152.266 155.34 152.062C155.21 151.612 155.04 151.062 154.83 150.342L153.04 144.002L147.33 123.002C146.23 118.902 145.22 115.002 143.91 111.562C142.803 108.516 141.261 105.646 139.33 103.042C138.012 101.299 136.445 99.7597 134.68 98.4721C133.42 97.6121 132.64 97.2221 132.67 97.1821Z" fill="#263238"/>
<path d="M187.97 118.702L187.53 118.912L186.2 119.492L181.12 121.632C176.68 123.512 170.23 126.172 162.25 129.432C146.25 135.942 124.15 144.732 99.54 154.012C74.93 163.292 52.54 171.322 36.21 177.012C28.07 179.842 21.47 182.092 16.9 183.622L11.63 185.372L10.26 185.812L9.78003 185.952L10.24 185.762L11.6 185.272L16.83 183.432L36.09 176.662C52.34 170.922 74.74 162.842 99.36 153.562C123.98 144.282 146.12 135.562 162.11 129.122L181.04 121.482L186.19 119.402L187.54 118.872L187.97 118.702Z" fill="white"/>
<path d="M158.69 158.572L158.31 158.752L157.17 159.242L152.76 161.072C148.93 162.662 143.37 164.892 136.47 167.602C122.67 173.012 103.47 180.202 82.1001 187.522C60.7301 194.842 41.1001 200.892 26.9101 205.062C19.8001 207.142 14.0301 208.782 10.0301 209.872L5.43007 211.122L4.23007 211.432C4.09661 211.475 3.95931 211.505 3.82007 211.522C3.94625 211.465 4.07664 211.418 4.21007 211.382L5.40007 211.022L9.98007 209.702C13.9801 208.552 19.7101 206.852 26.8101 204.702C41.0001 200.452 60.5401 194.342 81.9301 187.032C103.32 179.722 122.51 172.582 136.34 167.252C143.25 164.592 148.83 162.412 152.68 160.882L157.13 159.142L158.29 158.702L158.69 158.572Z" fill="white"/>
<path d="M236.87 123.952C236.691 124.135 236.497 124.303 236.29 124.452L234.54 125.812C233.78 126.402 232.84 127.112 231.73 127.902C230.62 128.692 229.37 129.622 227.94 130.572C225.11 132.522 221.66 134.732 217.75 137.052C213.84 139.372 209.44 141.762 204.75 144.052C200.06 146.342 195.44 148.332 191.22 150.052C187 151.772 183.12 153.052 179.84 154.102C178.21 154.642 176.71 155.102 175.4 155.452C174.09 155.802 172.96 156.152 172.03 156.382L169.88 156.932C169.634 157.002 169.384 157.053 169.13 157.082C169.362 156.974 169.603 156.887 169.85 156.822L171.97 156.192C172.89 155.922 173.97 155.592 175.32 155.192C176.67 154.792 178.1 154.342 179.72 153.772C182.98 152.692 186.82 151.292 191.04 149.622C195.26 147.952 199.82 145.932 204.52 143.622C209.22 141.312 213.6 138.932 217.52 136.622C221.44 134.312 224.89 132.152 227.74 130.242C229.18 129.312 230.44 128.412 231.57 127.642C232.7 126.872 233.65 126.192 234.43 125.642L236.23 124.362C236.43 124.205 236.644 124.068 236.87 123.952Z" fill="white"/>
<path d="M238.43 97.2721C238.48 97.4121 229.3 101.102 217.93 105.522C206.56 109.942 197.29 113.412 197.24 113.272C197.19 113.132 206.36 109.452 217.74 105.032C229.12 100.612 238.38 97.1421 238.43 97.2721Z" fill="white"/>
<path d="M236.41 72.3921C236.41 72.5321 228.41 74.9421 218.41 77.7721C208.41 80.6021 200.3 82.7721 200.26 82.6421C200.22 82.5121 208.26 80.1021 218.26 77.2721C228.26 74.4421 236.37 72.2521 236.41 72.3921Z" fill="white"/>
<path d="M234.65 48.0518C234.65 48.1918 226.88 50.0518 217.23 52.1418C207.58 54.2318 199.74 55.8718 199.71 55.7318C199.68 55.5918 207.47 53.7318 217.12 51.6418C226.77 49.5518 234.61 47.9118 234.65 48.0518Z" fill="white"/>
<path d="M164.99 186.102C164.99 186.232 142.79 195.102 115.3 205.962C87.81 216.822 65.47 225.482 65.42 225.352C65.37 225.222 87.61 216.352 115.11 205.482C142.61 194.612 164.94 185.962 164.99 186.102Z" fill="white"/>
<path d="M47.35 230.132C47.2087 230.222 47.0578 230.296 46.9 230.352L45.56 230.902C44.39 231.362 42.69 232.012 40.56 232.792C36.34 234.352 30.47 236.402 23.93 238.482C17.39 240.562 11.41 242.292 7.07 243.482C4.9 244.062 3.13 244.482 1.91 244.822L0.5 245.152C0.338368 245.204 0.169764 245.231 0 245.232C0.147575 245.15 0.305751 245.09 0.469997 245.052L1.86 244.622L6.97 243.122C11.28 241.862 17.23 240.122 23.77 238.002C30.31 235.882 36.18 233.922 40.43 232.452L45.43 230.722L46.8 230.262C46.974 230.186 47.1603 230.142 47.35 230.132V230.132Z" fill="white"/>
<path d="M59.22 255.472C59.28 255.602 48.5 260.102 35.15 265.522C21.8 270.942 10.92 275.232 10.87 275.102C10.82 274.972 21.59 270.462 34.95 265.042C48.31 259.622 59.17 255.332 59.22 255.472Z" fill="white"/>
<path d="M78.85 262.472C78.96 262.572 72.91 269.732 65.35 278.472C57.79 287.212 51.56 294.222 51.45 294.132C51.34 294.042 57.39 286.872 64.95 278.132C72.51 269.392 78.74 262.382 78.85 262.472Z" fill="white"/>
<path d="M98.92 267.572C99.06 267.622 96.63 275.242 93.5 284.572C90.37 293.902 87.72 301.482 87.59 301.432C87.46 301.382 89.88 293.772 93.01 284.432C96.14 275.092 98.78 267.522 98.92 267.572Z" fill="white"/>
<path d="M230.12 155.052C230.18 155.182 224.43 157.562 217.28 160.362C210.13 163.162 204.28 165.312 204.28 165.182C204.28 165.052 209.98 162.672 217.13 159.872C224.28 157.072 230.06 154.912 230.12 155.052Z" fill="white"/>
<path opacity="0.3" d="M144.77 113.272C154.05 138.402 170.77 152.452 194.38 165.052C180.418 163.505 167.037 158.602 155.38 150.762" fill="black"/>
<path d="M99.4101 99.9819C99.513 100.178 99.6 100.382 99.6701 100.592C99.9033 101.19 100.1 101.801 100.26 102.422C100.85 104.706 101.079 107.067 100.94 109.422C100.742 112.933 99.7467 116.353 98.0301 119.422C95.8866 123.201 92.6183 126.218 88.6801 128.052C84.7551 129.934 80.3169 130.461 76.0601 129.552C72.6224 128.755 69.4411 127.104 66.8101 124.752C65.045 123.172 63.5547 121.31 62.4001 119.242C62.0857 118.686 61.8052 118.112 61.5601 117.522C61.4581 117.322 61.3809 117.111 61.3301 116.892C61.3901 116.892 61.7201 117.732 62.5801 119.142C63.7807 121.142 65.2893 122.941 67.0501 124.472C69.6575 126.74 72.7881 128.324 76.1601 129.082C80.3147 129.942 84.6369 129.411 88.4601 127.572C92.3032 125.783 95.5017 122.854 97.6201 119.182C99.3224 116.173 100.33 112.821 100.57 109.372C100.745 107.046 100.573 104.707 100.06 102.432C99.7001 100.852 99.3501 100.002 99.4101 99.9819Z" fill="#263238"/>
<path d="M82.27 51.402C82.2699 52.1063 82.4764 52.7951 82.8638 53.3832C83.2513 53.9712 83.8028 54.4328 84.4499 54.7106C85.097 54.9884 85.8115 55.0702 86.5047 54.9461C87.1979 54.8219 87.8395 54.4972 88.35 54.012C90.28 52.182 89.62 48.962 88.42 46.582C87.22 44.202 85.56 41.792 85.91 39.162C86.18 37.162 87.58 35.492 88.52 33.682C89.3523 32.1113 89.8081 30.3686 89.8515 28.5914C89.8949 26.8143 89.5246 25.0515 88.77 23.442C87.9751 21.8499 86.7563 20.508 85.2477 19.564C83.7392 18.6201 81.9994 18.1107 80.22 18.092C76.61 18.162 72.8 20.422 69.59 18.762C67.26 17.552 66.29 14.762 64.26 13.042C61.13 10.452 56.4 11.312 52.69 13.042C48.98 14.772 45.43 17.162 41.36 17.362C37.97 17.522 34.71 16.102 31.36 15.642C27.6891 15.1469 23.9551 15.8081 20.6774 17.5335C17.3997 19.2589 14.7411 21.9629 13.0714 25.2693C11.4017 28.5758 10.8038 32.3204 11.3609 35.9823C11.9181 39.6443 13.6025 43.0417 16.18 45.702C17.9711 47.6849 20.4034 48.9736 23.05 49.342" fill="#263238"/>
<path d="M86.7999 127.822C81.7116 129.499 76.1658 129.09 71.3783 126.685C66.5908 124.28 62.9521 120.075 61.2599 114.992C59.2599 108.932 57.5499 103.832 57.5499 103.832C57.5499 103.832 41.4499 106.292 36.4099 91.002C31.3699 75.712 23.4099 41.692 23.4099 41.692L22.9199 39.632C38.2799 26.382 60.1199 24.172 79.1699 31.122L80.1699 34.292L100.17 103.602C101.431 108.582 100.752 113.855 98.2689 118.353C95.7861 122.85 91.6861 126.235 86.7999 127.822V127.822Z" fill="#FFBE9D"/>
<path d="M36.8799 64.2421C37.2644 63.9597 37.5542 63.5674 37.7112 63.1169C37.8682 62.6664 37.885 62.179 37.7594 61.7187C37.6338 61.2585 37.3717 60.8472 37.0076 60.539C36.6435 60.2307 36.1945 60.04 35.7199 59.9921C35.1526 59.9226 34.5808 60.0808 34.1299 60.4321C33.7385 60.7117 33.4418 61.1043 33.2797 61.5572C33.1175 62.0101 33.0977 62.5018 33.2228 62.9663C33.3479 63.4308 33.612 63.846 33.9796 64.1562C34.3473 64.4664 34.801 64.6569 35.2799 64.7021C35.5638 64.7345 35.8512 64.7106 36.1258 64.6316C36.4003 64.5527 36.6566 64.4203 36.8799 64.2421V64.2421Z" fill="#263238"/>
<path d="M30.4901 62.3219C30.8201 62.5119 31.9601 60.8719 34.0701 60.1919C36.1801 59.5119 38.0701 60.1219 38.2001 59.7819C38.2801 59.6219 37.8901 59.2219 37.0601 58.9219C35.9543 58.5543 34.7599 58.5501 33.6516 58.9099C32.5432 59.2698 31.5791 59.9748 30.9001 60.9219C30.4101 61.7019 30.3401 62.2419 30.4901 62.3219Z" fill="#263238"/>
<path d="M56.2899 55.7019C55.9872 56.052 55.7951 56.484 55.7379 56.9433C55.6807 57.4026 55.761 57.8685 55.9687 58.2822C56.1763 58.6958 56.5019 59.0386 56.9044 59.2672C57.3069 59.4957 57.7681 59.5998 58.2297 59.5663C58.6913 59.5327 59.1326 59.363 59.4978 59.0786C59.8629 58.7942 60.1356 58.4079 60.2812 57.9685C60.4268 57.5292 60.4388 57.0565 60.3158 56.6104C60.1927 56.1642 59.9401 55.7645 59.5899 55.4619C59.1193 55.0587 58.5086 54.8577 57.8905 54.9027C57.2725 54.9476 56.6972 55.2349 56.2899 55.7019Z" fill="#263238"/>
<path d="M53.4899 57.1722C53.8099 57.3622 54.9499 55.7322 57.0599 55.0522C59.1699 54.3722 61.0599 54.9822 61.1999 54.6322C61.2799 54.4822 60.8899 54.0722 60.0599 53.7822C58.9541 53.4146 57.7597 53.4104 56.6513 53.7703C55.543 54.1301 54.5788 54.8352 53.8999 55.7822C53.4099 56.5422 53.3299 57.0922 53.4899 57.1722Z" fill="#263238"/>
<path d="M50.5201 77.292C50.5201 77.132 49.0901 77.292 46.8801 77.672C46.3101 77.792 45.8201 77.812 45.6701 77.502C45.466 76.9518 45.4277 76.3538 45.5601 75.782C45.6601 74.222 45.7601 72.622 45.8701 70.952C46.2401 64.102 46.2801 58.542 45.9601 58.522C45.6401 58.502 45.0601 64.042 44.6801 70.892C44.6001 72.562 44.5301 74.152 44.4601 75.722C44.3281 76.5368 44.4761 77.3722 44.8801 78.092C45.0213 78.2746 45.2035 78.4213 45.412 78.5203C45.6205 78.6193 45.8493 78.6679 46.0801 78.662C46.4197 78.6527 46.7564 78.5955 47.0801 78.492C49.2301 77.902 50.5501 77.452 50.5201 77.292Z" fill="#263238"/>
<path d="M58.12 77.4621C59.91 75.4621 53.12 82.5921 48.71 83.7421C49.7767 84.6277 51.1126 85.1248 52.4987 85.152C53.8849 85.1793 55.2392 84.7351 56.34 83.8921C60.4 80.7621 58.12 77.4621 58.12 77.4621Z" fill="white"/>
<path d="M57.46 103.622C64.586 101.517 70.9248 97.34 75.67 91.6221C75.67 91.6221 74.43 104.162 58.67 107.622L57.46 103.622Z" fill="#EB996E"/>
<path d="M82.3899 44.7722C82.6999 44.5522 93.5599 40.2922 95.8099 53.8222C98.0599 67.3522 83.6499 65.1322 83.5599 64.7522C83.4699 64.3722 82.3899 44.7722 82.3899 44.7722Z" fill="#FFBE9D"/>
<path d="M86.92 59.3219C86.92 59.2619 87.18 59.4419 87.61 59.5619C88.2116 59.7045 88.8449 59.6115 89.38 59.3019C90.72 58.5419 91.54 56.0719 91.21 53.6319C91.049 52.4654 90.6324 51.3488 89.99 50.3619C89.7911 49.9608 89.498 49.614 89.1358 49.351C88.7735 49.088 88.3529 48.9168 87.91 48.8519C87.6273 48.825 87.3442 48.8985 87.1102 49.0594C86.8762 49.2203 86.7062 49.4583 86.63 49.7319C86.51 50.1319 86.63 50.3919 86.63 50.4219C86.63 50.4519 86.3 50.2519 86.31 49.6719C86.3356 49.3229 86.4763 48.9923 86.71 48.7319C87.0354 48.3919 87.4798 48.1912 87.95 48.1719C88.5236 48.191 89.0827 48.3563 89.5744 48.6521C90.0662 48.9478 90.4743 49.3642 90.76 49.8619C91.4999 50.948 91.9664 52.1967 92.12 53.5019C92.49 56.2319 91.52 59.0219 89.66 59.9019C89.3143 60.0706 88.9347 60.1584 88.55 60.1584C88.1653 60.1584 87.7857 60.0706 87.44 59.9019C87 59.6419 86.88 59.3519 86.92 59.3219Z" fill="#EB996E"/>
<path d="M21.6499 49.112C21.6499 49.112 32.2599 51.022 42.7299 41.542C49.5899 35.322 58.3499 30.762 60.8599 31.792C63.3699 32.822 66.0899 40.932 74.6799 41.112C74.6799 41.112 78.5299 56.962 84.6299 54.652C90.7299 52.342 80.0099 29.122 80.0099 29.122L62.7999 22.812L45.2099 24.342L27.3499 31.552L18.6499 40.832L21.6499 49.112Z" fill="#263238"/>
<path d="M77.45 15.7021C76.3056 16.1298 75.2123 16.6832 74.19 17.3521C73.2661 18.1547 72.4373 19.0607 71.72 20.0522C72.0837 18.8093 72.8367 17.716 73.8682 16.9329C74.8996 16.1499 76.1551 15.7185 77.45 15.7021V15.7021Z" fill="#263238"/>
<path d="M69.2801 11.312C69.6014 11.7025 69.8457 12.1505 70.0001 12.632C70.4783 13.7523 70.8143 14.9282 71.0001 16.132C71.186 17.3415 71.1521 18.5746 70.9001 19.772C70.8435 20.2803 70.6651 20.7674 70.3801 21.192C70.6141 19.5354 70.6477 17.8566 70.4801 16.192C70.0601 13.472 69.1201 11.372 69.2801 11.312Z" fill="#263238"/>
<path d="M118.06 300.142C117.94 300.062 122.39 293.002 128.01 284.372C133.63 275.742 138.27 268.802 138.39 268.882C138.51 268.962 134.06 276.022 128.39 284.652C122.72 293.282 118.18 300.222 118.06 300.142Z" fill="#263238"/>
<path d="M112.2 264.522C112.2 264.522 112.69 273.592 117.06 273.522C121.43 273.452 136.85 265.032 138.64 267.952C140.43 270.872 135.7 274.952 135.7 274.952C135.7 274.952 141.13 274.872 139.11 278.122C137.09 281.372 131.04 296.592 125.45 298.022C117.45 300.072 98.9199 300.872 98.9199 300.872L104.63 269.002L112.2 264.522Z" fill="#FFBE9D"/>
<path d="M137.38 272.982C137.213 273.221 137.018 273.439 136.8 273.632C136.4 274.022 135.8 274.572 135.04 275.212C131.039 278.565 126.534 281.265 121.69 283.212C120.76 283.582 120 283.852 119.47 284.022C119.199 284.133 118.912 284.204 118.62 284.232C119.568 283.72 120.547 283.265 121.55 282.872C126.267 280.732 130.718 278.047 134.81 274.872C135.627 274.189 136.485 273.558 137.38 272.982V272.982Z" fill="#EB996E"/>
<path d="M137.12 281.962C136.7 282.793 136.165 283.56 135.53 284.242C132.601 287.7 128.805 290.316 124.53 291.822C123.666 292.174 122.757 292.406 121.83 292.512C122.667 292.129 123.525 291.795 124.4 291.512C128.512 289.848 132.204 287.294 135.21 284.032C135.81 283.309 136.448 282.618 137.12 281.962V281.962Z" fill="#EB996E"/>
</g>
<g opacity="0.6">
<path d="M476.415 241.33C476.28 240.867 476.193 240.391 476.155 239.91C476.015 239 475.855 237.67 475.695 236.02C475.355 232.73 475.045 228.18 474.695 223.15C474.345 218.12 473.995 213.58 473.615 210.31C473.425 208.67 473.255 207.31 473.125 206.43C473.025 205.96 472.985 205.48 473.005 205C473.171 205.45 473.292 205.916 473.365 206.39C473.555 207.3 473.785 208.62 474.035 210.25C474.535 213.52 474.975 218.08 475.295 223.11C475.615 228.14 475.885 232.56 476.095 235.99C476.205 237.53 476.295 238.84 476.365 239.89C476.434 240.367 476.451 240.85 476.415 241.33V241.33Z" fill="#263238"/>
<path d="M518.955 235.07C518.397 235.167 517.831 235.211 517.265 235.2C516.175 235.26 514.605 235.33 512.655 235.48C508.775 235.75 503.425 236.3 497.545 237.18C492.335 237.96 487.265 238.89 482.545 239.94C480.645 240.36 479.115 240.73 478.055 240.94C477.51 241.106 476.951 241.223 476.385 241.29C476.899 241.039 477.439 240.844 477.995 240.71C478.995 240.39 480.555 239.95 482.455 239.48C486.235 238.48 491.535 237.42 497.455 236.53C502.486 235.764 507.553 235.256 512.635 235.01C514.585 234.91 516.165 234.91 517.255 234.93C517.825 234.915 518.395 234.962 518.955 235.07V235.07Z" fill="#263238"/>
<path d="M452.16 296.43L453.27 296.83C453.99 297.11 455.09 297.48 456.55 297.89C460.812 299.08 465.246 299.529 469.66 299.22C472.846 299 476.006 298.491 479.1 297.7C482.787 296.797 486.38 295.544 489.83 293.96C498.221 289.992 505.678 284.294 511.71 277.24C513.459 275.291 514.817 273.023 515.71 270.56C516.622 267.982 516.485 265.149 515.33 262.67C514.686 261.438 513.722 260.402 512.54 259.67C511.322 258.927 509.957 258.456 508.54 258.29C505.602 257.94 502.625 258.425 499.95 259.69C498.539 260.308 497.085 260.822 495.6 261.23C494.05 261.635 492.417 261.594 490.89 261.11C490.092 260.882 489.364 260.459 488.771 259.88C488.177 259.3 487.737 258.582 487.49 257.79C487.298 256.978 487.281 256.134 487.442 255.315C487.602 254.495 487.936 253.72 488.42 253.04C489.377 251.661 490.7 250.577 492.24 249.91C493.756 249.239 495.316 248.674 496.91 248.22C503.385 246.137 509.48 243.02 514.96 238.99C516.386 238.002 517.683 236.84 518.82 235.53C520.012 234.271 520.72 232.631 520.82 230.9C520.805 230.048 520.553 229.216 520.09 228.5C519.61 227.78 518.97 227.182 518.22 226.75C516.66 225.899 514.926 225.413 513.15 225.33C511.308 225.247 509.477 224.996 507.68 224.58C506.739 224.358 505.864 223.916 505.127 223.291C504.39 222.665 503.812 221.873 503.44 220.98C503.273 220.504 503.217 219.996 503.278 219.494C503.339 218.993 503.514 218.513 503.79 218.09C504.375 217.316 505.11 216.666 505.95 216.18C507.51 215.18 509.05 214.09 510.54 212.95C513.55 210.652 516.379 208.124 519 205.39C521.6 202.62 524.24 199.74 525.87 196.26C526.719 194.544 527.125 192.643 527.05 190.73C526.933 188.814 526.168 186.994 524.88 185.57C523.581 184.159 521.942 183.104 520.12 182.506C518.298 181.907 516.353 181.785 514.47 182.15C510.723 182.963 507.324 184.928 504.75 187.77C499.48 193.32 496.88 200.64 492.56 206.71C491.496 208.24 490.294 209.669 488.97 210.98C488.324 211.665 487.583 212.254 486.77 212.73C486.342 212.992 485.854 213.139 485.353 213.156C484.852 213.174 484.355 213.061 483.91 212.83C483.509 212.55 483.169 212.191 482.911 211.775C482.653 211.359 482.482 210.894 482.41 210.41C482.285 209.491 482.285 208.559 482.41 207.64C482.528 206.774 482.494 205.894 482.31 205.04C482.095 204.213 481.66 203.459 481.05 202.86C480.436 202.263 479.71 201.794 478.914 201.48C478.117 201.166 477.266 201.013 476.41 201.03C474.696 201.139 473.075 201.847 471.83 203.03C470.572 204.177 469.582 205.587 468.93 207.16C468.3 208.734 467.883 210.386 467.69 212.07C467.48 213.75 467.42 215.43 467.36 217.07C467.3 218.71 467.25 220.42 467.2 222.07C467.087 225.404 466.977 228.677 466.87 231.89C466.81 233.5 466.78 235.09 466.7 236.7C466.639 238.301 466.332 239.883 465.79 241.39C465.527 242.158 465.097 242.858 464.532 243.441C463.967 244.024 463.28 244.474 462.52 244.76C460.993 245.205 459.357 245.098 457.9 244.46C455.112 243.276 452.659 241.421 450.76 239.06C449.833 237.926 449.035 236.691 448.38 235.38C447.782 234.095 447.114 232.843 446.38 231.63C445.702 230.463 444.643 229.566 443.38 229.09C442.107 228.708 440.738 228.804 439.53 229.36C438.332 229.883 437.283 230.698 436.48 231.73C435.719 232.762 435.187 233.946 434.92 235.2C434.529 237.672 434.308 240.168 434.26 242.67C434.09 245.11 434.01 247.5 433.98 249.81C433.931 254.177 434.195 258.541 434.77 262.87C435.25 266.635 436.063 270.349 437.2 273.97C437.66 275.66 438.34 277.2 438.89 278.7C439.2 279.43 439.54 280.13 439.89 280.82C440.24 281.51 440.5 282.19 440.89 282.82C442.951 286.734 445.617 290.298 448.79 293.38C449.248 293.864 449.739 294.315 450.26 294.73L451.37 295.67L452.25 296.44L451.33 295.71L450.21 294.79C449.682 294.383 449.184 293.939 448.72 293.46C445.51 290.395 442.809 286.837 440.72 282.92C440.353 282.271 440.019 281.604 439.72 280.92C439.4 280.23 439.04 279.53 438.72 278.79C438.16 277.29 437.47 275.79 437 274.06C435.845 270.425 435.018 266.693 434.53 262.91C433.928 258.574 433.647 254.198 433.69 249.82C433.69 247.5 433.79 245.11 433.95 242.66C433.998 240.135 434.216 237.616 434.6 235.12C434.878 233.816 435.43 232.585 436.22 231.51C437.057 230.425 438.154 229.569 439.41 229.02C440.703 228.417 442.173 228.311 443.54 228.72C444.899 229.225 446.045 230.177 446.79 231.42C447.525 232.646 448.193 233.911 448.79 235.21C449.429 236.491 450.211 237.695 451.12 238.8C452.988 241.102 455.391 242.912 458.12 244.07C459.487 244.662 461.016 244.765 462.45 244.36C463.148 244.092 463.779 243.673 464.298 243.134C464.816 242.595 465.209 241.948 465.45 241.24C466.55 238.35 466.31 235.09 466.45 231.88C466.59 228.67 466.66 225.38 466.77 222.07C466.82 220.41 466.87 218.74 466.93 217.07C466.99 215.4 467.04 213.68 467.26 211.98C467.452 210.264 467.876 208.582 468.52 206.98C469.19 205.34 470.214 203.868 471.52 202.67C472.857 201.426 474.587 200.687 476.41 200.58C477.335 200.564 478.253 200.732 479.112 201.075C479.971 201.419 480.752 201.93 481.41 202.58C482.085 203.242 482.565 204.075 482.8 204.99C483.004 205.896 483.045 206.83 482.92 207.75C482.8 208.623 482.8 209.508 482.92 210.38C482.973 210.796 483.113 211.195 483.33 211.554C483.547 211.912 483.837 212.221 484.18 212.46C484.548 212.652 484.96 212.743 485.375 212.723C485.79 212.704 486.192 212.575 486.54 212.35C487.31 211.896 488.014 211.338 488.63 210.69C489.923 209.395 491.101 207.99 492.15 206.49C494.217 203.384 496.123 200.173 497.86 196.87C499.634 193.478 501.828 190.323 504.39 187.48C507.037 184.557 510.535 182.539 514.39 181.71C516.362 181.328 518.4 181.457 520.308 182.085C522.216 182.714 523.931 183.821 525.29 185.3C526.653 186.811 527.464 188.739 527.59 190.77C527.668 192.769 527.246 194.756 526.36 196.55C524.68 200.13 522.01 203.03 519.36 205.82C516.721 208.573 513.873 211.118 510.84 213.43C509.34 214.58 507.79 215.66 506.22 216.68C505.443 217.128 504.763 217.726 504.22 218.44C503.983 218.797 503.833 219.205 503.781 219.63C503.729 220.055 503.777 220.487 503.92 220.89C504.268 221.703 504.802 222.423 505.48 222.991C506.157 223.559 506.959 223.96 507.82 224.16C509.587 224.571 511.388 224.816 513.2 224.89C515.051 224.986 516.856 225.499 518.48 226.39C519.283 226.867 519.967 227.52 520.48 228.3C520.99 229.095 521.27 230.016 521.29 230.96C521.207 232.822 520.467 234.593 519.2 235.96C518.02 237.3 516.676 238.486 515.2 239.49C509.676 243.545 503.534 246.682 497.01 248.78C495.432 249.222 493.888 249.777 492.39 250.44C490.92 251.076 489.661 252.116 488.76 253.44C488.308 254.065 487.995 254.779 487.842 255.534C487.688 256.289 487.698 257.069 487.87 257.82C488.101 258.538 488.506 259.188 489.048 259.711C489.591 260.234 490.255 260.615 490.98 260.82C492.429 261.281 493.98 261.319 495.45 260.93C496.915 260.532 498.349 260.027 499.74 259.42C502.488 258.138 505.539 257.646 508.55 258C510.021 258.189 511.435 258.686 512.7 259.46C513.945 260.229 514.957 261.321 515.63 262.62C516.829 265.197 516.965 268.143 516.01 270.82C515.102 273.329 513.716 275.638 511.93 277.62C505.864 284.694 498.366 290.4 489.93 294.36C486.46 295.942 482.847 297.187 479.14 298.08C476.031 298.858 472.858 299.357 469.66 299.57C465.223 299.851 460.771 299.364 456.5 298.13C455.392 297.816 454.3 297.446 453.23 297.02L452.16 296.43Z" fill="#263238"/>
<path d="M457.75 284.23C461.454 273.579 465.764 263.149 470.66 252.99C471.94 250.29 473.21 247.61 474.47 244.99C475.73 242.37 476.96 239.76 478.34 237.28C480.989 232.538 483.897 227.944 487.05 223.52C490.05 219.28 493.05 215.36 495.84 211.72C498.63 208.08 501.36 204.72 503.95 201.8C508.015 197.141 512.442 192.811 517.19 188.85C518.87 187.45 520.19 186.4 521.12 185.71L522.17 184.92C522.286 184.826 522.41 184.742 522.54 184.67L522.21 184.97L521.21 185.8C520.32 186.53 519.01 187.6 517.35 189.03C512.675 193.053 508.307 197.419 504.28 202.09C501.72 205.04 499.05 208.39 496.28 212.03C493.51 215.67 490.52 219.61 487.55 223.85C484.424 228.264 481.539 232.844 478.91 237.57C477.54 240.03 476.31 242.62 475.06 245.25L471.26 253.25C466.368 263.386 462.051 273.789 458.33 284.41" fill="#263238"/>
<path d="M458.3 283.47C458.186 283.31 458.095 283.135 458.03 282.95L457.37 281.39C456.8 280.04 456.02 278.06 455.1 275.6C453.25 270.68 450.91 263.81 448.43 256.19C445.95 248.57 443.67 241.68 441.92 236.74C441.07 234.33 440.36 232.35 439.84 230.88C439.62 230.24 439.43 229.72 439.28 229.28C439.202 229.098 439.148 228.906 439.12 228.71C439.237 228.872 439.328 229.05 439.39 229.24L440.06 230.79C440.63 232.15 441.4 234.13 442.32 236.59C444.17 241.5 446.52 248.38 449 256C451.48 263.62 454.75 271.6 456.5 276.55C457.35 278.96 457.06 279.83 457.58 281.3C457.81 281.94 457.99 282.47 458.14 282.9C458.217 283.083 458.271 283.274 458.3 283.47V283.47Z" fill="#263238"/>
<path d="M515.12 267.56C514.939 267.653 514.748 267.723 514.55 267.77L512.9 268.25L506.82 269.96C501.68 271.41 494.61 273.5 486.82 275.81C479.51 277.97 472.71 279.93 466.74 281.48C464.16 282.16 462.06 282.68 460.6 283.01L458.92 283.38C458.728 283.437 458.53 283.467 458.33 283.47C458.51 283.375 458.702 283.304 458.9 283.26L460.55 282.78L466.63 281.07C471.77 279.62 478.84 277.53 486.63 275.22C494.42 272.91 501.54 270.89 506.71 269.55C509.29 268.87 511.39 268.35 512.84 268.02L514.52 267.65C514.715 267.593 514.917 267.563 515.12 267.56V267.56Z" fill="#263238"/>
<path d="M280.6 313.78H458.73V237.68C458.731 234.29 458.065 230.933 456.768 227.8C455.472 224.668 453.571 221.821 451.174 219.423C448.777 217.026 445.932 215.124 442.799 213.826C439.667 212.528 436.31 211.86 432.92 211.86H306.42C299.572 211.86 293.005 214.581 288.163 219.423C283.32 224.265 280.6 230.832 280.6 237.68V313.78Z" fill="#455A64"/>
<path d="M303.69 211.86H331.99C334.764 211.86 337.425 212.962 339.386 214.924C341.348 216.886 342.45 219.546 342.45 222.32V312.45C342.45 312.803 342.31 313.141 342.061 313.391C341.811 313.64 341.473 313.78 341.12 313.78H281.94C281.587 313.78 281.249 313.64 281 313.391C280.75 313.141 280.61 312.803 280.61 312.45V234.95C280.61 228.828 283.041 222.957 287.369 218.627C291.698 214.297 297.568 211.863 303.69 211.86V211.86Z" fill="#455A64"/>
<path d="M293.74 313.78V237.57C293.74 230.753 296.447 224.215 301.267 219.394C306.086 214.573 312.623 211.863 319.44 211.86H301.12C301.12 211.86 279.61 214.72 279.61 241.64C279.61 268.56 280.3 313.78 280.3 313.78H293.74Z" fill="#263238"/>
<path d="M342.45 306.54H193V315.02H342.45V306.54Z" fill="#263238"/>
<path d="M464.55 306.54H342.45V315.02H464.55V306.54Z" fill="#455A64"/>
<path d="M342.45 310.78C342.437 310.681 342.437 310.58 342.45 310.48C342.45 310.25 342.45 309.95 342.45 309.58C342.45 308.76 342.45 307.58 342.45 306.15C342.45 303.15 342.45 298.84 342.45 293.54C342.5 282.85 342.58 268.16 342.67 251.92C342.67 247.86 342.8 243.92 342.55 240.08C342.377 236.419 341.732 232.796 340.63 229.3C339.013 224.339 335.881 220.01 331.674 216.922C327.467 213.835 322.398 212.145 317.18 212.09C316.513 212.068 315.845 212.085 315.18 212.14C314.698 212.158 314.217 212.205 313.74 212.28L312.86 212.4H312.55L312.85 212.33L313.73 212.16C314.205 212.064 314.686 212 315.17 211.97C315.834 211.891 316.502 211.858 317.17 211.87C321.42 211.85 325.605 212.913 329.33 214.96C334.96 217.946 339.183 223.036 341.08 229.12C342.212 232.656 342.884 236.323 343.08 240.03C343.33 243.87 343.25 247.85 343.21 251.91C343.06 268.14 342.93 282.84 342.83 293.52C342.76 298.82 342.7 303.12 342.66 306.14C342.66 307.6 342.6 308.75 342.59 309.57V310.46C342.554 310.571 342.508 310.679 342.45 310.78V310.78Z" fill="#263238"/>
<path d="M463.71 306.33C463.71 306.47 435.89 306.64 401.59 306.7C367.29 306.76 339.47 306.7 339.47 306.54C339.47 306.38 367.27 306.23 401.59 306.17C435.91 306.11 463.71 306.19 463.71 306.33Z" fill="#263238"/>
<path d="M463.71 315.36C463.71 315.5 436.09 315.54 402.04 315.45C367.99 315.36 340.36 315.17 340.37 315.02C340.38 314.87 367.97 314.84 402.04 314.93C436.11 315.02 463.71 315.21 463.71 315.36Z" fill="#263238"/>
<path d="M447.63 296.86C447.63 296.86 447.63 296.73 447.63 296.5C447.63 296.27 447.63 295.9 447.63 295.45C447.63 294.52 447.63 293.17 447.63 291.45C447.63 287.94 447.58 282.83 447.55 276.37L447.7 276.53L367.77 276.63C367.88 276.52 367.5 276.89 368.02 276.37V296.87L367.76 296.62L424.76 296.73L441.57 296.8H446.11H447.29H447.7C447.574 296.81 447.446 296.81 447.32 296.8H446.17H441.69L424.94 296.87L367.76 296.99H367.51V296.73C367.51 293.397 367.51 290.03 367.51 286.63V276.23C368.03 275.71 367.66 276.09 367.78 275.97L447.71 276.07H447.87V276.23C447.87 282.73 447.8 287.87 447.78 291.41C447.78 293.144 447.78 294.477 447.78 295.41C447.78 295.84 447.78 296.18 447.78 296.41C447.749 296.566 447.699 296.717 447.63 296.86V296.86Z" fill="#263238"/>
<path d="M402.49 281.63V290.78H401.56V283.48L397.98 289.62H397.52L393.94 283.52V290.78H393.02V281.66H393.81L397.81 288.42L401.73 281.66L402.49 281.63Z" fill="#263238"/>
<path d="M411.18 288.31H406.1L405 290.75H404L408.17 281.63H409.12L413.29 290.75H412.29L411.18 288.31ZM410.83 287.53L408.64 282.63L406.45 287.53H410.83Z" fill="#263238"/>
<path d="M414.8 281.63H415.8V290.78H414.8V281.63Z" fill="#263238"/>
<path d="M418.74 281.63H419.74V289.91H424.85V290.78H418.78L418.74 281.63Z" fill="#263238"/>
<path d="M437.36 191V176H409.36V236.14C407.093 237.48 405.335 239.534 404.363 241.982C403.391 244.429 403.259 247.129 403.989 249.659C404.718 252.19 406.268 254.406 408.394 255.959C410.52 257.513 413.102 258.316 415.734 258.243C418.366 258.17 420.899 257.224 422.936 255.555C424.972 253.886 426.396 251.587 426.984 249.02C427.572 246.453 427.29 243.764 426.184 241.375C425.077 238.986 423.208 237.032 420.87 235.82V191H437.36Z" fill="#6BB0F0"/>
<path d="M328.77 254.86L342.42 254.68L341.89 301.05L329.22 301.55L328.77 254.86Z" fill="#EBEBEB"/>
<path d="M329.22 301.55C331.088 299.136 333.092 296.829 335.22 294.64C337.239 292.332 339.389 290.141 341.66 288.08C339.766 290.491 337.743 292.798 335.6 294.99C333.596 297.293 331.466 299.483 329.22 301.55V301.55Z" fill="#263238"/>
<path d="M342.42 270.3C339.965 267.945 337.628 265.469 335.42 262.88C333.077 260.41 330.864 257.82 328.79 255.12C331.249 257.472 333.585 259.949 335.79 262.54C338.13 265.013 340.342 267.603 342.42 270.3Z" fill="#263238"/>
<path d="M254.62 254.16L323.87 241.28L334.22 288.08L262.3 300.22L254.62 254.16Z" fill="#E0E0E0"/>
<path d="M323.87 241.28C323.87 241.28 323.87 241.35 323.75 241.47L323.36 242.02L321.82 244.08L316.06 251.61C311.12 257.99 304.34 266.76 296.79 276.5L296.66 276.67L296.47 276.57L295.12 275.86L266.43 260.61L257.77 255.93L255.42 254.64L254.82 254.29C254.747 254.253 254.68 254.206 254.62 254.15L254.84 254.24L255.47 254.54L257.86 255.78C259.97 256.87 262.94 258.42 266.61 260.31L295.36 275.4L296.7 276.11L296.37 276.18L315.76 251.39L321.65 243.95C322.34 243.11 322.88 242.44 323.27 241.95C323.45 241.75 323.59 241.58 323.7 241.44L323.87 241.28Z" fill="#263238"/>
<path d="M334.22 288.08C334.13 288.19 327.65 283.23 319.75 277C311.85 270.77 305.52 265.63 305.61 265.52C305.7 265.41 312.17 270.36 320.08 276.59C327.99 282.82 334.36 287.96 334.22 288.08Z" fill="#263238"/>
<path d="M415.58 251.16C418.109 251.16 420.16 249.109 420.16 246.58C420.16 244.051 418.109 242 415.58 242C413.051 242 411 244.051 411 246.58C411 249.109 413.051 251.16 415.58 251.16Z" fill="#263238"/>
</g>
</svg>
