<?xml version="1.0" encoding="utf-8"?>
<!-- Generator: Adobe Illustrator 22.0.1, SVG Export Plug-In . SVG Version: 6.00 Build 0)  -->
<svg version="1.1" id="Layer_1" xmlns="http://www.w3.org/2000/svg" xmlns:xlink="http://www.w3.org/1999/xlink" x="0px" y="0px"
	 viewBox="0 0 528 421" style="enable-background:new 0 0 528 421;" xml:space="preserve">
<style type="text/css">
	.st0{fill-rule:evenodd;clip-rule:evenodd;fill:#FDB813;}
	.st1{fill:#ECECEC;}
	.st2{fill:#E1E1E1;}
	.st3{fill:#153F9C;}
	.st4{fill:#9DD2F2;}
	.st5{clip-path:url(#SVGID_2_);}
	.st6{fill:#F5F5F5;}
	.st7{fill:#FFFFFF;}
	.st8{fill:#2A66C6;}
	.st9{fill:#AFC7D3;}
	.st10{fill:#969696;}
	.st11{fill:#2E3192;}
	.st12{fill:#1F57B5;}
	.st13{opacity:0.21;}
	.st14{fill:#CADBE5;}
	.st15{fill:url(#SVGID_3_);}
	.st16{fill:url(#SVGID_4_);}
	.st17{fill:url(#SVGID_5_);}
	.st18{fill:url(#SVGID_6_);}
	.st19{fill:url(#SVGID_7_);}
	.st20{fill:#00ACB3;}
	.st21{fill:url(#SVGID_8_);}
	.st22{fill:url(#SVGID_9_);}
	.st23{fill:url(#SVGID_10_);}
	.st24{fill:url(#SVGID_11_);}
	.st25{fill:url(#SVGID_12_);}
	.st26{fill:url(#SVGID_13_);}
	.st27{fill:url(#SVGID_14_);}
	.st28{fill:url(#SVGID_15_);}
	.st29{fill:url(#SVGID_16_);}
	.st30{fill:url(#SVGID_17_);}
	.st31{fill:url(#SVGID_18_);}
	.st32{fill:url(#SVGID_19_);}
	.st33{fill:url(#SVGID_20_);}
	.st34{fill:url(#SVGID_21_);}
	.st35{fill:#FDB813;}
	.st36{fill:#353568;}
	.st37{fill:url(#SVGID_22_);}
	.st38{fill:#4254D3;}
	.st39{fill:#A5B7C6;}
	.st40{fill:#8DA3B2;}
	.st41{fill:#071A2B;}
	.st42{fill:#7886EF;}
	.st43{fill:#C5CBEF;}
	.st44{fill:url(#SVGID_23_);}
	.st45{fill:#878CF0;}
	.st46{fill:#D8E8EF;}
	.st47{fill:url(#SVGID_24_);}
	.st48{fill:url(#SVGID_25_);}
	.st49{fill:url(#SVGID_26_);}
	.st50{fill:url(#SVGID_27_);}
	.st51{fill:url(#SVGID_28_);}
	.st52{fill:url(#SVGID_29_);}
	.st53{fill:url(#SVGID_30_);}
	.st54{fill:url(#SVGID_31_);}
	.st55{fill:url(#SVGID_32_);}
	.st56{fill:url(#SVGID_33_);}
	.st57{fill:url(#SVGID_34_);}
	.st58{fill:url(#SVGID_35_);}
	.st59{fill:url(#SVGID_36_);}
	.st60{fill:url(#SVGID_37_);}
	.st61{fill:url(#SVGID_38_);}
	.st62{fill:url(#SVGID_39_);}
	.st63{fill:url(#SVGID_40_);}
	.st64{fill:url(#SVGID_41_);}
	.st65{fill:url(#SVGID_42_);}
	.st66{fill:#FFC8AF;}
	.st67{fill:#EAA183;}
	.st68{fill:#333366;}
	.st69{fill:url(#SVGID_43_);}
	.st70{fill:url(#SVGID_44_);}
	.st71{fill:url(#SVGID_45_);}
	.st72{fill:url(#SVGID_46_);}
	.st73{fill:#25BCAF;}
	.st74{fill:url(#SVGID_47_);}
	.st75{fill:url(#SVGID_48_);}
	.st76{fill:url(#SVGID_49_);}
	.st77{fill:#4E5FD8;}
	.st78{fill:url(#SVGID_50_);}
	.st79{fill:#FBD15B;}
	.st80{fill:#F4B9A2;}
	.st81{fill:#FFC17A;}
	.st82{fill:#FCC995;}
	.st83{fill:#E4EEF4;}
	.st84{fill:#404077;}
	.st85{fill:#F2B49C;}
	.st86{fill:#414042;}
	.st87{fill:#E0BD96;}
	.st88{fill:#845E40;}
	.st89{fill:#BD884C;}
	.st90{fill:url(#SVGID_51_);}
	.st91{fill:url(#SVGID_52_);}
	.st92{fill:url(#SVGID_53_);}
	.st93{fill:url(#SVGID_54_);}
	.st94{fill:#0066B3;}
	.st95{font-family:'RedDeliciousHalftoneItalic';}
	.st96{font-size:9.4911px;}
	.st97{fill:#EF5B51;}
</style>
<g>
	<g>
		<polygon class="st0" points="253.7,151.2 252.2,151.1 252.1,152.9 253.6,153.1 		"/>
		<polygon class="st0" points="253.9,147.9 252.4,147.9 252.3,149.7 253.8,149.8 		"/>
		<polygon class="st0" points="254,144.7 252.5,144.7 252.5,146.5 254,146.5 		"/>
	</g>
	<g>
		<polygon class="st0" points="249.9,170.6 248.5,170.1 247.9,171.8 249.4,172.3 		"/>
		<polygon class="st0" points="250.9,167.4 249.4,167 248.9,168.7 250.4,169.2 		"/>
		<polygon class="st0" points="251.7,164.2 250.2,163.9 249.8,165.6 251.2,166 		"/>
	</g>
	<g>
		<polygon class="st0" points="241.9,188.5 240.6,187.8 239.7,189.3 240.9,190.1 		"/>
		<polygon class="st0" points="243.5,185.7 242.2,185 241.3,186.5 242.6,187.3 		"/>
		<polygon class="st0" points="245,182.8 243.7,182.1 242.8,183.7 244.2,184.4 		"/>
	</g>
	<g>
		<polygon class="st0" points="230.1,204.3 229,203.3 227.7,204.6 228.8,205.6 		"/>
		<polygon class="st0" points="232.3,201.9 231.1,200.9 229.9,202.2 231,203.2 		"/>
		<polygon class="st0" points="234.4,199.4 233.2,198.4 232.1,199.8 233.2,200.8 		"/>
	</g>
	<g>
		<polygon class="st0" points="215,217 214.2,215.8 212.7,216.8 213.5,218 		"/>
		<polygon class="st0" points="217.7,215.1 216.8,213.9 215.4,215 216.2,216.2 		"/>
		<polygon class="st0" points="220.3,213.2 219.4,212 218,213.1 218.9,214.3 		"/>
	</g>
	<g>
		<polygon class="st0" points="197.5,226.1 197,224.7 195.3,225.3 195.8,226.7 		"/>
		<polygon class="st0" points="200.6,224.9 200,223.5 198.3,224.2 198.9,225.6 		"/>
		<polygon class="st0" points="203.6,223.5 202.9,222.2 201.3,222.9 201.9,224.3 		"/>
	</g>
	<g>
		<polygon class="st0" points="178.5,231 178.3,229.5 176.5,229.8 176.6,231.3 		"/>
		<polygon class="st0" points="181.7,230.5 181.4,229 179.7,229.3 179.9,230.8 		"/>
		<polygon class="st0" points="184.9,229.9 184.6,228.4 182.8,228.8 183.1,230.2 		"/>
	</g>
	<g>
		<polygon class="st0" points="158.8,231.6 158.9,230.1 157.1,229.9 156.9,231.4 		"/>
		<polygon class="st0" points="162.1,231.8 162.1,230.3 160.3,230.2 160.2,231.7 		"/>
		<polygon class="st0" points="165.3,231.9 165.3,230.4 163.5,230.3 163.5,231.8 		"/>
	</g>
	<g>
		<polygon class="st0" points="139.4,227.8 139.9,226.3 138.2,225.8 137.7,227.2 		"/>
		<polygon class="st0" points="142.6,228.7 143,227.3 141.3,226.8 140.8,228.2 		"/>
		<polygon class="st0" points="145.8,229.5 146.1,228.1 144.4,227.6 144,229.1 		"/>
	</g>
	<g>
		<polygon class="st0" points="121.5,219.7 122.2,218.4 120.7,217.5 119.9,218.8 		"/>
		<polygon class="st0" points="124.3,221.4 125,220 123.5,219.2 122.7,220.5 		"/>
		<polygon class="st0" points="127.2,222.9 127.9,221.5 126.3,220.7 125.6,222 		"/>
	</g>
	<g>
		<polygon class="st0" points="105.7,207.9 106.7,206.8 105.4,205.6 104.4,206.6 		"/>
		<polygon class="st0" points="108.1,210.1 109.1,209 107.8,207.8 106.8,208.9 		"/>
		<polygon class="st0" points="110.6,212.2 111.6,211.1 110.2,209.9 109.2,211.1 		"/>
	</g>
	<g>
		<polygon class="st0" points="93,192.9 94.2,192 93.2,190.5 92,191.3 		"/>
		<polygon class="st0" points="94.9,195.6 96.1,194.7 95,193.2 93.8,194.1 		"/>
		<polygon class="st0" points="96.8,198.2 98,197.3 96.9,195.8 95.7,196.7 		"/>
	</g>
	<g>
		<polygon class="st0" points="83.9,175.4 85.3,174.9 84.7,173.2 83.3,173.7 		"/>
		<polygon class="st0" points="85.1,178.4 86.5,177.8 85.8,176.2 84.4,176.7 		"/>
		<polygon class="st0" points="86.5,181.4 87.8,180.8 87.1,179.1 85.7,179.8 		"/>
	</g>
	<g>
		<polygon class="st0" points="79,156.3 80.5,156.1 80.2,154.3 78.7,154.5 		"/>
		<polygon class="st0" points="79.5,159.6 81,159.3 80.7,157.5 79.2,157.8 		"/>
		<polygon class="st0" points="80.1,162.8 81.6,162.5 81.2,160.7 79.8,161 		"/>
	</g>
	<g>
		<polygon class="st0" points="78.4,136.6 79.9,136.7 80.1,135 78.6,134.8 		"/>
		<polygon class="st0" points="78.2,139.9 79.7,140 79.8,138.2 78.3,138.1 		"/>
		<polygon class="st0" points="78.1,143.2 79.6,143.2 79.7,141.4 78.2,141.3 		"/>
	</g>
	<g>
		<polygon class="st0" points="82.2,117.3 83.7,117.7 84.2,116 82.8,115.6 		"/>
		<polygon class="st0" points="81.3,120.4 82.7,120.8 83.2,119.1 81.8,118.7 		"/>
		<polygon class="st0" points="80.5,123.6 81.9,124 82.4,122.2 80.9,121.8 		"/>
	</g>
	<g>
		<polygon class="st0" points="90.3,99.3 91.6,100.1 92.5,98.5 91.2,97.7 		"/>
		<polygon class="st0" points="88.6,102.2 90,102.9 90.8,101.3 89.5,100.6 		"/>
		<polygon class="st0" points="87.1,105.1 88.5,105.7 89.3,104.1 88,103.4 		"/>
	</g>
	<g>
		<polygon class="st0" points="102.1,83.6 103.2,84.6 104.4,83.3 103.4,82.2 		"/>
		<polygon class="st0" points="99.9,86 101,87 102.2,85.6 101.1,84.6 		"/>
		<polygon class="st0" points="97.8,88.5 98.9,89.4 100.1,88.1 98.9,87.1 		"/>
	</g>
	<g>
		<polygon class="st0" points="117.1,70.8 118,72.1 119.5,71.1 118.7,69.8 		"/>
		<polygon class="st0" points="114.4,72.7 115.3,73.9 116.8,72.9 115.9,71.7 		"/>
		<polygon class="st0" points="111.8,74.7 112.7,75.9 114.2,74.8 113.3,73.6 		"/>
	</g>
	<g>
		<polygon class="st0" points="134.6,61.8 135.1,63.2 136.8,62.5 136.3,61.1 		"/>
		<polygon class="st0" points="131.6,63 132.2,64.4 133.8,63.7 133.3,62.3 		"/>
		<polygon class="st0" points="128.6,64.3 129.2,65.7 130.9,64.9 130.2,63.6 		"/>
	</g>
	<g>
		<polygon class="st0" points="153.7,56.8 153.9,58.3 155.7,58.1 155.5,56.6 		"/>
		<polygon class="st0" points="150.4,57.4 150.7,58.8 152.5,58.5 152.2,57.1 		"/>
		<polygon class="st0" points="147.2,58 147.5,59.5 149.3,59.1 149,57.6 		"/>
	</g>
	<g>
		<polygon class="st0" points="173.4,56.3 173.3,57.8 175,57.9 175.2,56.4 		"/>
		<polygon class="st0" points="170.1,56.1 170,57.6 171.8,57.7 171.9,56.2 		"/>
		<polygon class="st0" points="166.8,56 166.8,57.5 168.6,57.5 168.7,56 		"/>
	</g>
	<g>
		<polygon class="st0" points="192.7,60.1 192.3,61.5 194,62.1 194.4,60.6 		"/>
		<polygon class="st0" points="189.6,59.1 189.2,60.6 190.9,61.1 191.3,59.6 		"/>
		<polygon class="st0" points="186.4,58.3 186,59.8 187.8,60.2 188.2,58.8 		"/>
	</g>
	<g>
		<polygon class="st0" points="210.7,68.1 209.9,69.4 211.5,70.3 212.3,69.1 		"/>
		<polygon class="st0" points="207.8,66.5 207.1,67.8 208.7,68.7 209.4,67.4 		"/>
		<polygon class="st0" points="204.9,65 204.3,66.3 205.9,67.2 206.6,65.8 		"/>
	</g>
	<g>
		<polygon class="st0" points="226.4,79.9 225.4,81 226.7,82.3 227.8,81.2 		"/>
		<polygon class="st0" points="224,77.7 223,78.9 224.4,80.1 225.4,79 		"/>
		<polygon class="st0" points="221.5,75.6 220.6,76.8 221.9,77.9 222.9,76.8 		"/>
	</g>
	<g>
		<polygon class="st0" points="239.2,95 237.9,95.8 238.9,97.3 240.2,96.5 		"/>
		<polygon class="st0" points="237.3,92.3 236.1,93.2 237.1,94.6 238.3,93.8 		"/>
		<polygon class="st0" points="235.3,89.7 234.1,90.6 235.2,92 236.4,91.1 		"/>
	</g>
	<g>
		<polygon class="st0" points="248.2,112.5 246.8,113 247.5,114.7 248.9,114.2 		"/>
		<polygon class="st0" points="247,109.4 245.6,110 246.3,111.7 247.7,111.1 		"/>
		<polygon class="st0" points="245.7,106.4 244.3,107.1 245.1,108.7 246.4,108.1 		"/>
	</g>
	<g>
		<polygon class="st0" points="253.2,131.5 251.7,131.7 251.9,133.5 253.4,133.4 		"/>
		<polygon class="st0" points="252.6,128.3 251.2,128.6 251.5,130.3 252.9,130.1 		"/>
		<polygon class="st0" points="252,125.1 250.5,125.4 250.9,127.2 252.4,126.9 		"/>
	</g>
</g>
<g>
	<g>
		<g>
			<g>
				<g>
					<path class="st1" d="M470.7,126.9c0,0-4.3-4-12.1,6.7c-7.8,10.7-11.1,17-11.1,17s-2,2.2-3.4,0.3c-1.4-1.9-3-6.7-6-6.4
						c-3.1,0.4-4.6,3.5-4.8,8.4c-0.2,4.9-1,15.7-1.1,16.7c-0.1,1-0.8,2.3-2,1.2c-1.2-1.1-7.4-10.7-11.8-7.5
						c-4.4,3.2-2.7,17-2.5,18.5c0.2,1.5-0.2,2.1-1,2.3c-0.7,0.3-2.5-3.2-4.4-5.8c-1.9-2.7-4.5-5.4-6.9-3.3
						c-2.4,2.1-4.6,11.9,2.3,29.5l3.7,7.9l8.8,0.9c18.9,0.8,27.4-4.5,28.6-7.4c1.2-2.9-2.3-4.5-5.4-5.4c-3.1-0.9-6.9-1.5-7-2.3
						c0-0.8,0.4-1.3,1.9-1.7c1.5-0.3,15.1-3.3,16.7-8.4c1.6-5.2-9.5-7.9-10.9-8.7c-1.4-0.7-0.4-1.9,0.4-2.3
						c0.9-0.4,10.8-4.7,15.4-6.5c4.6-1.8,7.1-4.2,6.4-7.3c-0.6-2.9-5.8-2.8-8-3.6c-2.2-0.7-0.8-3.3-0.8-3.3s4.9-5.2,12.5-16
						C475.9,129.7,470.6,126.8,470.7,126.9"/>
				</g>
			</g>
		</g>
		<g>
			<g>
				<g>
					<g>
						<path class="st2" d="M410.4,210.8c5.6-7.9,13.4-18.8,22.1-30.8c8.7-12,16.5-22.9,22.1-30.7c2.8-3.9,5.1-7.1,6.7-9.4
							c0.8-1.1,1.4-1.9,1.8-2.5c0.2-0.3,0.4-0.5,0.5-0.7c0.1-0.1,0.2-0.2,0.2-0.2s0,0.1-0.1,0.2c-0.1,0.2-0.3,0.4-0.5,0.7
							c-0.4,0.6-1,1.5-1.8,2.6c-1.5,2.2-3.8,5.4-6.6,9.4c-5.6,7.9-13.4,18.8-22.1,30.8c-8.7,12-16.5,22.9-22.1,30.8"/>
					</g>
				</g>
			</g>
		</g>
		<g>
			<g>
				<g>
					<g>
						<path class="st2" d="M440.1,151.5c0,0,0.1,0.2,0.1,0.6c0.1,0.4,0.1,1,0.2,1.7c0.2,1.4,0.4,3.5,0.5,5.7
							c0.2,2.2,0.3,4.2,0.4,5.7c0.1,0.7,0.1,1.2,0.1,1.7c0,0.4,0,0.6,0,0.6c0,0-0.1-0.2-0.1-0.6c-0.1-0.4-0.1-1-0.2-1.7
							c-0.2-1.4-0.3-3.5-0.5-5.7c-0.2-2.2-0.3-4.1-0.4-5.7c-0.1-0.7-0.1-1.2-0.1-1.7C440.1,151.8,440.1,151.5,440.1,151.5z"/>
					</g>
				</g>
			</g>
		</g>
		<g>
			<g>
				<g>
					<g>
						<path class="st2" d="M442.3,167.8c0-0.1,4.1-0.7,9.2-1.3c5.1-0.6,9.2-1.1,9.2-1c0,0.1-4.1,0.7-9.2,1.3
							C446.5,167.5,442.3,167.9,442.3,167.8z"/>
					</g>
				</g>
			</g>
		</g>
		<g>
			<g>
				<g>
					<g>
						<path class="st2" d="M428.2,185.7c0,0,0.2,0,0.6,0.1c0.5,0.1,1.1,0.2,1.7,0.3c1.5,0.2,3.5,0.5,5.7,0.8
							c2.3,0.3,4.3,0.4,5.8,0.6c0.7,0.1,1.3,0.1,1.8,0.1c0.4,0,0.6,0.1,0.6,0.1c0,0-0.2,0-0.6,0c-0.4,0-1,0-1.8,0
							c-1.5-0.1-3.5-0.2-5.8-0.5c-2.3-0.3-4.3-0.6-5.7-0.9c-0.7-0.1-1.3-0.3-1.7-0.4C428.4,185.7,428.2,185.7,428.2,185.7z"/>
					</g>
				</g>
			</g>
		</g>
		<g>
			<g>
				<g>
					<g>
						<path class="st2" d="M422.9,171.3c0,0,0.1,0.2,0.3,0.5c0.2,0.4,0.4,0.9,0.6,1.5c0.5,1.3,1.2,3,2,5c0.7,2,1.4,3.7,1.9,5
							c0.2,0.6,0.4,1.2,0.5,1.5c0.1,0.4,0.2,0.6,0.2,0.6c0,0-0.1-0.2-0.3-0.5c-0.2-0.4-0.4-0.9-0.6-1.5c-0.5-1.3-1.2-3-2-5
							c-0.7-2-1.4-3.7-1.9-5c-0.2-0.6-0.4-1.2-0.5-1.5C423,171.6,422.9,171.3,422.9,171.3z"/>
					</g>
				</g>
			</g>
		</g>
		<g>
			<g>
				<g>
					<g>
						<path class="st2" d="M408.4,185.5c0,0,0.1,0.2,0.3,0.7c0.2,0.5,0.5,1.2,0.8,1.9c0.7,1.6,1.6,3.9,2.6,6.4
							c1,2.5,1.9,4.8,2.5,6.4c0.3,0.8,0.5,1.4,0.7,2c0.2,0.5,0.2,0.7,0.2,0.7c0,0-0.1-0.2-0.3-0.7c-0.2-0.5-0.5-1.2-0.8-1.9
							c-0.7-1.6-1.6-3.9-2.6-6.4c-1-2.5-1.9-4.8-2.5-6.4c-0.3-0.8-0.5-1.4-0.7-2C408.5,185.8,408.4,185.5,408.4,185.5z"/>
					</g>
				</g>
			</g>
		</g>
		<g>
			<g>
				<g>
					<g>
						<path class="st2" d="M415.5,203.1c0,0,0.3,0,0.8,0.1c0.6,0.1,1.3,0.2,2.2,0.3c1.9,0.2,4.5,0.5,7.3,0.8
							c2.9,0.3,5.5,0.4,7.3,0.6c0.9,0.1,1.6,0.1,2.2,0.1c0.5,0,0.8,0.1,0.8,0.1c0,0-0.3,0-0.8,0c-0.5,0-1.3,0-2.2,0
							c-1.9-0.1-4.5-0.2-7.4-0.5c-2.9-0.3-5.5-0.6-7.3-0.9c-0.9-0.1-1.7-0.3-2.2-0.4C415.8,203.2,415.5,203.1,415.5,203.1z"/>
					</g>
				</g>
			</g>
		</g>
	</g>
	<g>
		<g>
			<g>
				<g>
					<path class="st1" d="M25.2,189.5c0,0,5.2-7.6,20.7,5.9c15.5,13.4,22.8,21.9,22.8,21.9s3.7,2.6,5.2-0.7
						c1.5-3.3,2.2-11.3,6.8-11.8c4.8-0.5,8.2,3.7,10.2,11.1c2,7.4,7.1,23.4,7.6,24.9c0.5,1.4,2.1,3.1,3.5,1
						c1.4-2.1,7.4-18.9,15.2-15.5c7.8,3.3,10.1,24.9,10.4,27.2c0.3,2.3,1.1,3.1,2.3,3.2c1.2,0.1,2.7-5.7,4.6-10.4
						c1.9-4.7,5-9.8,9.3-7.5c4.3,2.3,11.1,16.4,6.9,45.5l-2.8,13.4l-13,4.5c-28.3,7.8-43.2,2.8-46-1.2c-2.8-4,1.9-7.7,6.3-10.1
						c4.4-2.5,10-4.7,9.7-5.9c-0.3-1.2-1.1-1.9-3.5-1.9c-2.4,0-24,0.4-28.3-6.9c-4.3-7.3,11.6-15.4,13.5-17c1.9-1.6,0-3-1.5-3.3
						c-1.5-0.3-18-3.3-25.6-4.4s-12.2-3.9-12.3-8.7c-0.1-4.7,7.7-6.3,10.8-8.2c3.1-1.9,0-5.3,0-5.3s-9.3-6.1-24.6-19.9
						c-15.3-13.7-8.2-19.9-8.2-19.9"/>
				</g>
			</g>
		</g>
		<g>
			<g>
				<g>
					<g>
						<path class="st2" d="M146.2,295.3c-11.3-10-27-23.8-44.3-38.9c-17.4-15.1-33.1-28.8-44.4-38.8c-5.6-5-10.2-9-13.4-11.8
							c-1.6-1.4-2.8-2.5-3.6-3.2c-0.4-0.4-0.7-0.6-1-0.8c-0.2-0.2-0.3-0.3-0.3-0.3s0.1,0.1,0.3,0.3c0.2,0.2,0.5,0.5,0.9,0.9
							c0.8,0.8,2,1.9,3.6,3.3c3.1,2.8,7.7,6.9,13.3,11.9c11.3,10,26.9,23.8,44.3,38.9c17.4,15.1,33.1,28.8,44.4,38.8"/>
					</g>
				</g>
			</g>
		</g>
		<g>
			<g>
				<g>
					<g>
						<path class="st2" d="M80.2,215.9c0,0,0,0.4,0,1c0,0.6,0.1,1.5,0.2,2.7c0.2,2.3,0.7,5.4,1.2,8.8c0.5,3.4,1,6.4,1.4,8.7
							c0.2,1,0.3,1.9,0.4,2.7c0.1,0.6,0.2,1,0.2,1c0,0,0-0.4,0-1c0-0.6-0.1-1.5-0.3-2.7c-0.3-2.3-0.7-5.4-1.3-8.8
							c-0.5-3.4-1-6.4-1.3-8.8c-0.2-1-0.3-1.9-0.4-2.7C80.3,216.3,80.2,215.9,80.2,215.9z"/>
					</g>
				</g>
			</g>
		</g>
		<g>
			<g>
				<g>
					<g>
						<path class="st2" d="M82.6,241.4c0-0.1-6.5,0.5-14.4,1.3c-7.9,0.8-14.4,1.6-14.3,1.8c0,0.1,6.5-0.5,14.4-1.3
							C76.2,242.4,82.6,241.6,82.6,241.4z"/>
					</g>
				</g>
			</g>
		</g>
		<g>
			<g>
				<g>
					<g>
						<path class="st2" d="M110.3,263.5c0,0-0.4,0.1-1,0.3c-0.7,0.3-1.5,0.6-2.5,1c-2.1,0.9-5.1,2.1-8.4,3.3
							c-3.3,1.2-6.4,2.2-8.6,2.9c-1,0.3-1.9,0.6-2.6,0.8c-0.6,0.2-1,0.3-0.9,0.4c0,0,0.4,0,1-0.2c0.6-0.1,1.5-0.4,2.7-0.7
							c2.2-0.6,5.3-1.6,8.6-2.8c3.3-1.2,6.3-2.5,8.4-3.4c1.1-0.5,1.9-0.9,2.5-1.2C110,263.7,110.3,263.5,110.3,263.5z"/>
					</g>
				</g>
			</g>
		</g>
		<g>
			<g>
				<g>
					<g>
						<path class="st2" d="M113.2,239.9c0,0-0.1,0.3-0.2,0.9c-0.1,0.6-0.3,1.4-0.4,2.5c-0.3,2.1-0.8,5-1.2,8.3
							c-0.4,3.2-0.8,6.2-1.1,8.3c-0.1,1.1-0.2,1.9-0.3,2.5c-0.1,0.6-0.1,0.9,0,0.9c0,0,0.1-0.3,0.2-0.9c0.1-0.6,0.3-1.4,0.4-2.5
							c0.3-2.1,0.8-5,1.2-8.3c0.4-3.2,0.8-6.2,1.1-8.3c0.1-1.1,0.2-1.9,0.3-2.5C113.2,240.2,113.3,239.9,113.2,239.9z"/>
					</g>
				</g>
			</g>
		</g>
		<g>
			<g>
				<g>
					<g>
						<path class="st2" d="M140.2,256.2c0,0-0.1,0.4-0.3,1.2c-0.1,0.8-0.3,1.9-0.5,3.2c-0.4,2.7-1,6.4-1.6,10.6
							c-0.6,4.1-1.1,7.9-1.5,10.6c-0.2,1.3-0.3,2.4-0.4,3.2c-0.1,0.8-0.1,1.2-0.1,1.2c0,0,0.1-0.4,0.3-1.2c0.1-0.8,0.3-1.9,0.5-3.2
							c0.4-2.7,1-6.4,1.6-10.6c0.6-4.1,1.1-7.9,1.5-10.6c0.2-1.3,0.3-2.4,0.4-3.2C140.2,256.7,140.2,256.2,140.2,256.2z"/>
					</g>
				</g>
			</g>
		</g>
		<g>
			<g>
				<g>
					<g>
						<path class="st2" d="M135.7,285.4c0,0-0.4,0.1-1.2,0.4c-0.9,0.3-2,0.7-3.3,1.2c-2.8,1-6.6,2.4-10.8,3.8
							c-4.2,1.4-8.1,2.6-10.9,3.4c-1.3,0.4-2.5,0.7-3.3,1c-0.8,0.2-1.2,0.4-1.2,0.4c0,0,0.5-0.1,1.3-0.2c0.8-0.2,2-0.5,3.4-0.9
							c2.8-0.8,6.7-1.9,11-3.3c4.3-1.4,8.1-2.8,10.8-3.9c1.4-0.5,2.5-1,3.2-1.3C135.3,285.7,135.7,285.5,135.7,285.4z"/>
					</g>
				</g>
			</g>
		</g>
	</g>
	<g>
		<path class="st3" d="M405.6,282.4H138.2c-14.3,0-26-11.6-26-26V113.8c0-14.3,11.6-26,26-26h267.4c14.3,0,26,11.6,26,26v142.7
			C431.5,270.8,419.9,282.4,405.6,282.4z"/>
		<path class="st4" d="M399.2,262.7H144.6c-12.9,0-23.4-10.5-23.4-23.4V119.1c0-12.9,10.5-23.4,23.4-23.4h254.6
			c12.9,0,23.4,10.5,23.4,23.4v120.3C422.6,252.3,412.1,262.7,399.2,262.7z"/>
		<g>
			<defs>
				<path id="SVGID_1_" d="M399.2,262.7H144.6c-12.9,0-23.4-10.5-23.4-23.4V119.1c0-12.9,10.5-23.4,23.4-23.4h254.6
					c12.9,0,23.4,10.5,23.4,23.4v120.3C422.6,252.3,412.1,262.7,399.2,262.7z"/>
			</defs>
			<clipPath id="SVGID_2_">
				<use xlink:href="#SVGID_1_"  style="overflow:visible;"/>
			</clipPath>
			<g class="st5">
				<g>
					<path class="st6" d="M107,189.2c-4.6-0.2-9-0.3-12.6-0.5v22.6l13.9-2.8L107,189.2z"/>
				</g>
				<g>
					<path class="st6" d="M101.2,97.5l-6.8,0.2v88.7c3.8,0.2,8.1,0.3,12.5,0.5L101.2,97.5z"/>
				</g>
				<g>
					<polygon class="st6" points="108.3,209.6 94.4,212.4 94.4,254 111.1,253.5 					"/>
				</g>
				<g>
					<polygon class="st6" points="302.9,191.4 348.5,199.3 350,178.7 302.9,178.7 					"/>
				</g>
				<g>
					<polygon class="st6" points="126.5,95.7 117.8,73.3 101.9,73.3 103.4,96.3 					"/>
				</g>
				<g>
					<polygon class="st6" points="130.1,95.6 172.5,94.3 172.5,94.3 187.5,94.3 185.3,73.6 121.4,73.3 130.1,95.6 					"/>
				</g>
				<g>
					<polygon class="st6" points="220.9,94.3 223.6,73.8 188.7,73.6 190.9,94.3 					"/>
				</g>
				<g>
					<polygon class="st6" points="186.9,247.6 174.7,246.7 172.1,222.4 162.5,224.3 164.5,251.9 178.3,251.4 187.5,253.6 					"/>
				</g>
				<g>
					<polygon class="st6" points="160.9,203.8 162.4,223.2 184,218.9 182.3,202 					"/>
				</g>
				<g>
					<polygon class="st6" points="158.7,204 140.7,205.5 115.9,208.1 110.5,209.2 113.3,253.4 162.3,251.9 					"/>
				</g>
				<g>
					<path class="st6" d="M243.7,127.9l-2.9,1.7l-19.9-34.1h-47.2l2.5,36l7,69.4l30.9-2.5l8.7-66.3l3.3,0.4l-8.6,65.6l52.4-4.3
						l-6.2-64.9l2.2-0.2l6.2,64.9l27.3-2.2v-62.4l-10-54.8L227,73.8l-2.7,20.8L243.7,127.9z M178.2,98.9c0,0,38.9,0.3,40.4,0
						l14.8,27.8l-53.2,3.6L178.2,98.9z"/>
				</g>
				<g>
					<polygon class="st6" points="186.6,245.3 184.1,220.1 174.3,222 176.7,244.6 					"/>
				</g>
				<g>
					<path class="st6" d="M115.3,189.5c-2-0.1-4.1-0.2-6.1-0.2l1.2,18.8l4.8-1L115.3,189.5z"/>
				</g>
				<g>
					<polygon class="st6" points="302.9,149.1 317.9,152.4 317.9,177.6 350.1,177.6 356,98.8 325.7,98.8 320.2,74.2 293,74.1 
						302.9,128.6 					"/>
				</g>
				<g>
					<path class="st6" d="M392.5,201.6l2.8-0.7l11.9,30.1l39.3-19.6c-0.1-0.4-0.1-0.7-0.1-1.1l0.2-33.2l-55,0.9L392.5,201.6z"/>
				</g>
				<g>
					<path class="st6" d="M413.6,247.2l53.6,0l0.1-21.9c0-4.1-3.4-7.4-7.7-7.4l-5.5,0c-2.6,0-5-1.3-6.3-3.2l-39.3,19.6L413.6,247.2z
						"/>
				</g>
				<g>
					<path class="st6" d="M411.3,134.1l56.5-2.5l0-6.1l0.1-23.8l-50.5-10.1L411.3,134.1z M462.1,128.7l-46,0.8l4.6-31.6l41.4,6.9
						L462.1,128.7z"/>
				</g>
				<g>
					<path class="st6" d="M411.1,135.3l-0.5,0c-4.4,0.1-12.3,0.1-20.8,0.2l1.7,41.4l55-0.9l0.1-25.1c0-4.1,3.5-7.4,7.8-7.4l5.5,0
						c4.3,0,7.8-3.3,7.8-7.4l0-3.5L411.1,135.3L411.1,135.3z"/>
				</g>
				<g>
					<path class="st6" d="M417.9,88.2l50,10c-0.2-13-10.8-23.5-23.9-23.6l-24.9-0.1l0.7,0.1L417.9,88.2z"/>
				</g>
				<g>
					<polygon class="st6" points="356.2,95.4 357.8,74.3 323.6,74.2 328.4,95.4 					"/>
				</g>
				<g>
					<polygon class="st6" points="416.8,88 418.7,74.6 363.4,74.4 363.2,77.3 					"/>
				</g>
				<g>
					<polygon class="st6" points="130.7,130.6 175.1,130.9 172.6,95.5 129.1,96.7 					"/>
				</g>
				<g>
					<path class="st6" d="M141,137.1l-24.1,50.2c15.7,0.6,30.4,1.1,31.4,1.1l0.1,1.1l1.1,0.5c-0.4,0.7-0.4,0.7-11.1,0.3
						c-6-0.2-13.9-0.5-21.9-0.8v17.4l24.1-2.6l41.6-3.4l-6.6-65.6L141,137.1z"/>
				</g>
				<g>
					<polygon class="st6" points="214.6,260.2 220.5,259.6 214.2,199.4 183.4,202 188.6,253.9 					"/>
				</g>
				<g>
					<polygon class="st6" points="314.6,177.6 314.6,155.1 302.9,152.5 302.9,177.6 					"/>
				</g>
				<g>
					<path class="st6" d="M310.6,250.9l3.9-56.3l-13.3-2.3l-28.9,2.4l5.7,59.4L310.6,250.9z M301.3,196.6l8.4,3l-3.1,48.9l-24,2.8
						l-6.3-53.1L301.3,196.6z"/>
				</g>
				<g>
					<polygon class="st6" points="250.3,256.7 275.8,254.2 270.1,194.8 242.9,197.1 					"/>
				</g>
				<g>
					<polygon class="st6" points="101.1,96.4 99.7,73.4 101.2,73.3 94.4,73.2 94.4,96.6 					"/>
				</g>
				<g>
					<path class="st6" d="M426.3,279.3l-0.9,0.3l17.7,0.1c13.3,0.1,24-10.6,24.1-23.9l0-7.5l-53.2,0L426.3,279.3z"/>
				</g>
				<g>
					<path class="st6" d="M115.7,187.3l24.6-51.3l35.2-1.8l-0.2-2.1l-45.6-0.4L128,96.8l-1,0l0,0l0,0l-23.5,0.7l5.7,89.5
						C111.3,187.1,113.5,187.2,115.7,187.3z M125.1,98.9l3.4,48.9l-14.8,31.8l-4.4-80.7H125.1z"/>
				</g>
				<g>
					<path class="st6" d="M367.2,264.7l12.4,2.1c6.6-18.4,25.7-19.7,31.5-19.6l-4.7-12l-36.3,18.1L367.2,264.7z"/>
				</g>
				<g>
					<polygon class="st6" points="217.6,199.1 220.2,224.1 242.3,219.2 239.6,197.3 					"/>
				</g>
				<g>
					<polygon class="st6" points="348.1,251 348.2,204.3 348.4,200.4 317.9,195.1 314,250.5 327.3,249.3 347,254.7 					"/>
				</g>
				<g>
					<path class="st6" d="M353.8,249.8l14.6,0.6l36.8-18.3l-11.3-28.4l-40.2,9.8V249.8z M400.7,231l-32,16.8l-10-2.4l1.1-28.8
						l30.2-7.2L400.7,231z"/>
				</g>
				<g>
					<polygon class="st6" points="177.8,257.1 149.1,257.9 150.2,278.2 149.1,278.2 148,258 113.7,259 114.9,278.1 112.6,278.3 
						111.4,259.1 94.4,259.6 94.4,278.2 190,278.6 188.1,259.6 					"/>
				</g>
				<g>
					<path class="st6" d="M410.2,134.2l6.1-42.8L363,80.6l-4,53.7C367.2,134.6,392.4,134.4,410.2,134.2z"/>
				</g>
				<g>
					<polygon class="st6" points="353.8,204.6 353.8,211.1 391.4,201.9 390.4,178.1 355.7,178.7 					"/>
				</g>
				<g>
					<path class="st6" d="M67,73.1l-7.9,0c-0.2,0-0.5,0-0.7,0H67z"/>
				</g>
				<g>
					<path class="st6" d="M358.9,135.5l-3.1,42.1l34.6-0.6l-1.7-41.4C377,135.6,364.5,135.6,358.9,135.5z"/>
				</g>
				<g>
					<polygon class="st6" points="246.9,257 242.4,220.3 220.3,225.3 223.9,259.3 					"/>
				</g>
				<g>
					<path class="st6" d="M380.8,267l14,2.4l-0.8,10.1l30.1,0.1l-12.4-31.3C390.5,247.7,383,261,380.8,267z"/>
				</g>
				<g>
					<polygon class="st6" points="326.8,255 313.7,256.2 312.1,279.1 339.2,279.3 345.3,260.1 					"/>
				</g>
				<g>
					<path class="st6" d="M214.2,265.9l-25-6l1.9,18.8l26.2,0.1c1.5-5.8,2.8-10.8,3.3-13.5L214.2,265.9z"/>
				</g>
				<g>
					<polygon class="st6" points="353.3,253.2 345.1,279.3 359.9,279.3 366.6,253.7 					"/>
				</g>
				<g>
					<path class="st6" d="M224.1,264.9c-0.3,2.1-1.2,6.1-3.2,13.8l57.3,0.2l-1.8-19.1L224.1,264.9z"/>
				</g>
				<g>
					<polygon class="st6" points="278.6,259.6 280.5,279 308.7,279.1 310.2,256.6 					"/>
				</g>
				<g>
					<path class="st6" d="M380.1,269.2c-1.1,3.7-2,7.1-2.6,10.3l14.2,0.1l0.6-8.2L380.1,269.2z"/>
				</g>
				<g>
					<path class="st6" d="M366.6,266.9l-3.2,12.5l12.9,0.1c0.6-3.2,1.5-6.7,2.7-10.4L366.6,266.9z"/>
				</g>
				<g>
					<path class="st7" d="M101.1,96.4l-6.8,0.2v1.1l6.8-0.2l5.7,89.4c-4.4-0.2-8.7-0.3-12.5-0.5v2.3c3.6,0.1,8,0.3,12.6,0.5
						l1.2,19.3l-13.9,2.8v1.1l13.9-2.8l2.8,43.8L94.4,254v5.6l17.1-0.5l1.2,19.2l2.2-0.1l-1.2-19.1l34.3-1l1.1,20.3l1.1-0.1
						l-1.1-20.2l28.7-0.9l10.3,2.5l1.9,19.1l1.1,0l-1.9-18.8l25,6l6.4-0.6c-0.5,2.7-1.8,7.7-3.3,13.5l3.5,0c2-7.8,2.9-11.7,3.2-13.8
						l52.3-5.1l1.8,19.1l2.3,0l-1.9-19.4l31.6-3.1l-1.6,22.6l3.4,0l1.6-22.9l13.2-1.3l18.4,5.1l-6.1,19.2l5.9,0l8.2-26.1l13.2,0.5
						l-6.6,25.6l3.5,0l3.2-12.5l12.3,2.1c-1.1,3.7-2,7.2-2.7,10.4l1.2,0c0.6-3.2,1.5-6.6,2.6-10.3l12.3,2.1l-0.6,8.2l2.3,0l0.8-10.1
						l-14-2.4c2.3-6,9.7-19.3,30.9-18.6l12.4,31.3l1.4,0l0.9-0.3l-12.2-30.9l53.2,0l0-1.1l-53.6,0l-5.2-13l39.3-19.6
						c-0.7-0.9-1.1-2-1.3-3.1l-39.3,19.6L395.3,201l-2.8,0.7l-1-23.6l55-0.9l0-1.1l-55,0.9l-1.7-41.4c8.5-0.1,16.4-0.2,20.8-0.2
						l0.5,0l0,0l56.6-2.5l0-1.1l-56.5,2.5l6.1-42.6l50.5,10.1l0-2.9c0-0.2,0-0.4,0-0.5l-50-10l1.9-13.5l-0.7-0.1l-0.4,0L416.8,88
						l-53.6-10.8l0.2-2.9l-5.6,0l-1.6,21.1h-27.8l-4.8-21.2l-3.5,0l5.6,24.6H356l-5.8,78.8h-32.2v-25.2l-15-3.3v-20.5L293,74.1
						l-3.4,0l10,54.8v62.4l-27.3,2.2l-6.2-64.9l-2.2,0.2l6.2,64.9l-52.4,4.3l8.6-65.6l-3.3-0.4l-8.7,66.3l-30.9,2.5l-7-69.4l-2.5-36
						h47.2l19.9,34.1l2.9-1.7l-19.4-33.3l2.7-20.8l-3.4,0l-2.7,20.6h-30l-2.2-20.7l-3.4,0l2.2,20.7h-15l0,0l-42.5,1.2l0,0l-8.7-22.2
						l-3.6,0l8.8,22.3l-23.1,0.7l-1.5-23.1l-0.7,0l-1.5,0.1L101.1,96.4z M109.3,189.3c2,0.1,4,0.2,6.1,0.2l0,17.6l-4.8,1
						L109.3,189.3z M110.5,209.2l5.4-1.1l24.7-2.6l18-1.5l3.6,47.9l-49,1.5L110.5,209.2z M184.1,220.1l2.5,25.2l-9.9-0.7l-2.4-22.6
						L184.1,220.1z M184,218.9l-21.6,4.2l-1.5-19.4l21.4-1.8L184,218.9z M164.5,251.9l-2.1-27.6l9.6-1.9l2.6,24.3l12.2,0.9l0.6,6.1
						l-9.1-2.2L164.5,251.9z M242.3,219.2l-22.1,4.9l-2.6-25l22-1.8L242.3,219.2z M220.3,225.3l22.1-4.9l4.5,36.7l-23.1,2.2
						L220.3,225.3z M314,250.5l3.8-55.4l30.6,5.3l-0.3,3.9l0,46.7l-1.2,3.7l-19.6-5.5L314,250.5z M411.2,247.2
						c-5.8-0.1-25,1.2-31.5,19.6l-12.4-2.1l3-11.4l36.3-18.1L411.2,247.2z M405.2,232.1l-36.8,18.3l-14.6-0.6v-36.4l40.2-9.8
						L405.2,232.1z M391.4,201.9l-37.7,9.2v-6.5l1.9-25.9l34.8-0.6L391.4,201.9z M390.4,177l-34.6,0.6l3.1-42.1
						c5.6,0.2,18.1,0.1,29.8,0.1L390.4,177z M416.3,91.4l-6.1,42.8c-17.8,0.2-43,0.4-51.2,0.2l4-53.7L416.3,91.4z M348.5,199.3
						l-45.6-7.9v-12.7H350L348.5,199.3z M314.6,155.1v22.5h-11.6v-25L314.6,155.1z M301.2,192.3l13.3,2.3l-3.9,56.3l-32.6,3.2
						l-5.7-59.4L301.2,192.3z M275.8,254.2l-25.5,2.5l-7.4-59.7l27.2-2.2L275.8,254.2z M214.2,199.4l6.3,60.2l-5.9,0.6l-26-6.3
						l-5.2-52L214.2,199.4z M140.5,204.3l-24.1,2.6v-17.4c8,0.3,15.9,0.6,21.9,0.8c10.7,0.4,10.7,0.4,11.1-0.3l-1.1-0.5l-0.1-1.1
						c-0.9,0.1-15.6-0.5-31.4-1.1l24.1-50.2l34.6-1.8l6.6,65.6L140.5,204.3z M175.1,130.9l-44.4-0.4l-1.6-33.8l43.5-1.3L175.1,130.9
						z M127,96.8L127,96.8L127,96.8l1,0l1.7,34.9l45.6,0.4l0.2,2.1l-35.2,1.8l-24.6,51.3c-2.2-0.1-4.4-0.2-6.6-0.3l-5.7-89.5
						L127,96.8z"/>
				</g>
				<g>
					<polygon class="st1" points="128.5,147.8 125.1,98.9 109.4,98.9 113.8,179.7 					"/>
				</g>
				<g>
					<polygon class="st1" points="306.6,248.6 309.7,199.7 301.3,196.6 276.2,198.3 282.5,251.4 					"/>
				</g>
				<g>
					<polygon class="st1" points="416.1,129.5 462.1,128.7 462.1,104.8 420.7,97.9 					"/>
				</g>
				<g>
					<polygon class="st1" points="358.8,245.3 368.7,247.8 400.7,231 390.1,209.4 359.8,216.6 					"/>
				</g>
				<g>
					<path class="st1" d="M218.6,98.9c-1.5,0.3-40.4,0-40.4,0l2,31.4l53.2-3.6L218.6,98.9z"/>
				</g>
			</g>
		</g>
		<path class="st8" d="M282.8,276.1H261c-1.4,0-2.5-1.1-2.5-2.5v-0.2c0-1.4,1.1-2.5,2.5-2.5h21.8c1.4,0,2.5,1.1,2.5,2.5v0.2
			C285.3,275,284.2,276.1,282.8,276.1z"/>
		<path class="st9" d="M457.9,335.4v6.7c0,3.1-2.5,5.6-5.6,5.6H91.2c-3.1,0-5.6-2.5-5.6-5.6v-6.3c0.3,3.5,3.2,6.5,7.1,6.5h358.1
			C454.8,342.2,457.8,339,457.9,335.4z"/>
		<path class="st10" d="M450.8,342.2H92.7c-5.3,0-8.7-5.6-6.3-10.3l23.7-45.8c1.2-2.4,3.6-3.8,6.3-3.8h310.2c2.6,0,5,1.5,6.3,3.8
			l24.2,45.8C459.5,336.5,456.1,342.2,450.8,342.2z"/>
		<path class="st11" d="M442.7,337.2H100.1c-5.1,0-7.1-4-4.8-8.1l21.4-40.8c1.2-2,3.5-3.3,6-3.3h296.8c2.5,0,4.8,1.3,6,3.3
			l21.6,40.2C449.5,332.5,447.8,337.2,442.7,337.2z"/>
		<path class="st12" d="M85.7,334.5v1.2C85.6,335.3,85.6,334.9,85.7,334.5z"/>
		<g class="st13">
			<polygon class="st4" points="424.7,293.3 119.8,293.3 121,291 423.5,291 			"/>
			<polygon class="st4" points="428,299.6 116.5,299.6 117.7,297.3 426.8,297.3 			"/>
			<polygon class="st4" points="431.4,305.8 113.2,305.8 114.4,303.6 430.2,303.6 			"/>
			<polygon class="st4" points="434.7,312.1 109.8,312.1 111,309.9 433.5,309.9 			"/>
			<polygon class="st4" points="438,318.4 106.5,318.4 107.7,316.2 436.8,316.2 			"/>
			<polygon class="st4" points="441.4,324.7 103.2,324.7 104.4,322.5 440.2,322.5 			"/>
			<polygon class="st4" points="444.7,331 99.8,331 101,328.8 443.5,328.8 			"/>
		</g>
	</g>
	<g>
		<g>
			<path class="st14" d="M221.8,325.7h176.6c3.2,0,5.9-2.6,5.9-5.9l0,0c0-3.2-2.6-5.9-5.9-5.9H221.8c-3.2,0-5.9,2.6-5.9,5.9l0,0
				C215.9,323.1,218.5,325.7,221.8,325.7z"/>
			<path class="st14" d="M109.9,318.3h319.7c3.3,0,6.1-2.7,6.1-6.1l0,0c0-3.3-2.7-6.1-6.1-6.1H109.9c-3.3,0-6.1,2.7-6.1,6.1l0,0
				C103.9,315.6,106.6,318.3,109.9,318.3z"/>
			<path class="st14" d="M143.3,327.6h69.4c1.7,0,3-1.4,3-3l0,0c0-1.7-1.4-3-3-3h-69.4c-1.7,0-3,1.4-3,3l0,0
				C140.3,326.3,141.7,327.6,143.3,327.6z"/>
			<path class="st14" d="M172.5,307.8h245.7c1.9,0,3.4-1.6,3.4-3.4l0,0c0-1.9-1.6-3.4-3.4-3.4H172.5c-1.9,0-3.4,1.6-3.4,3.4l0,0
				C169,306.3,170.6,307.8,172.5,307.8z"/>
			<path class="st14" d="M169.4,327.6h43.2c2.9,0,5.3-2.4,5.3-5.3V322c0-2.9-2.4-5.3-5.3-5.3h-43.2c-2.9,0-5.3,2.4-5.3,5.3v0.4
				C164.1,325.3,166.5,327.6,169.4,327.6z"/>
		</g>
		<path class="st9" d="M126.7,315.9h278.5c1.7,0,3.2-1.4,3.2-3.2l0,0c0-1.7-1.4-3.2-3.2-3.2H126.7c-1.7,0-3.2,1.4-3.2,3.2l0,0
			C123.6,314.5,125,315.9,126.7,315.9z"/>
		<path class="st9" d="M233.6,322.2h139.8c2.4,0,4.4-2,4.4-4.4l0,0c0-2.4-2-4.4-4.4-4.4H233.6c-2.4,0-4.4,2-4.4,4.4l0,0
			C229.2,320.2,231.2,322.2,233.6,322.2z"/>
		<g>
			
				<linearGradient id="SVGID_3_" gradientUnits="userSpaceOnUse" x1="118.2846" y1="183.2641" x2="169.0134" y2="271.129" gradientTransform="matrix(-1 0 0 1 520.9817 0)">
				<stop  offset="0" style="stop-color:#BEE1F4"/>
				<stop  offset="1" style="stop-color:#25BCAF"/>
			</linearGradient>
			<path class="st15" d="M375.9,167.8c0,0,21,36.8,21,69.1c0,32.4-21,48-21,48s-21-15.7-21-48C354.9,204.6,375.9,167.8,375.9,167.8z
				"/>
			
				<linearGradient id="SVGID_4_" gradientUnits="userSpaceOnUse" x1="127.6574" y1="239.5021" x2="161.9737" y2="298.9398" gradientTransform="matrix(-1 0 0 1 520.9817 0)">
				<stop  offset="0.3124" style="stop-color:#56548C"/>
				<stop  offset="0.9382" style="stop-color:#3B367A"/>
			</linearGradient>
			<polygon class="st16" points="365.4,256.1 374.4,264.3 375.4,229.8 376.5,229.8 377.5,249.9 389.3,238.9 377.5,251.8 
				377.5,307.8 374.4,307.8 374.4,266.1 			"/>
		</g>
		<g>
			
				<linearGradient id="SVGID_5_" gradientUnits="userSpaceOnUse" x1="173.8316" y1="183.2641" x2="224.5604" y2="271.129" gradientTransform="matrix(-1 0 0 1 520.9817 0)">
				<stop  offset="0" style="stop-color:#BEE1F4"/>
				<stop  offset="1" style="stop-color:#25BCAF"/>
			</linearGradient>
			<path class="st17" d="M320.4,167.8c0,0,21,36.8,21,69.1c0,32.4-21,48-21,48s-21-15.7-21-48C299.4,204.6,320.4,167.8,320.4,167.8z
				"/>
			
				<linearGradient id="SVGID_6_" gradientUnits="userSpaceOnUse" x1="183.2044" y1="239.5021" x2="217.5207" y2="298.9398" gradientTransform="matrix(-1 0 0 1 520.9817 0)">
				<stop  offset="0.3124" style="stop-color:#56548C"/>
				<stop  offset="0.9382" style="stop-color:#3B367A"/>
			</linearGradient>
			<polygon class="st18" points="309.8,256.1 318.8,264.3 319.8,229.8 320.9,229.8 321.9,249.9 333.8,238.9 321.9,251.8 
				321.9,307.8 318.8,307.8 318.8,266.1 			"/>
		</g>
		<g>
			<g>
				
					<linearGradient id="SVGID_7_" gradientUnits="userSpaceOnUse" x1="374.2061" y1="289.3788" x2="383.6748" y2="305.7789" gradientTransform="matrix(-1 0 0 1 520.9817 0)">
					<stop  offset="0" style="stop-color:#BEE1F4"/>
					<stop  offset="1" style="stop-color:#25BCAF"/>
				</linearGradient>
				<path class="st19" d="M136.8,283.8c-1.2,0.4,0.2,8.5,4.2,24.1c1.4,0,2.8,0,4.3,0c-2.2-6-4.3-12.1-6.2-18.3
					c-0.1-0.3,0.1-0.4,0.2-0.1c2.3,6.1,4.5,12.2,6.6,18.3c1.2,0,2.3,0,3.5,0C142.3,291.4,138.1,283.3,136.8,283.8z"/>
				<path class="st20" d="M139.3,289.6c-0.1-0.3-0.3-0.3-0.2,0.1c2,6.1,4,12.2,6.2,18.3c0.2,0,0.4,0,0.6,0
					C143.8,301.7,141.6,295.6,139.3,289.6z"/>
			</g>
			<g>
				
					<linearGradient id="SVGID_8_" gradientUnits="userSpaceOnUse" x1="352.326" y1="265.8526" x2="374.6529" y2="304.5239" gradientTransform="matrix(-1 0 0 1 520.9817 0)">
					<stop  offset="0" style="stop-color:#BEE1F4"/>
					<stop  offset="1" style="stop-color:#25BCAF"/>
				</linearGradient>
				<path class="st21" d="M152.2,307.9c1.5,0,3.1,0,4.6,0l0-1.7l-0.1-3c-0.1-4-0.2-8.1-0.4-12.1c-0.3-8.1-0.5-16.1-0.8-24.2
					c0-0.6,0.2-0.6,0.2,0c0.5,8,0.9,16.1,1.1,24.2c0.1,4,0.2,8.1,0.3,12.1l0,3l0,1.7c1.7,0,3.5,0,5.1,0c-3.3-36.8-5.5-49.8-7-49.7
					C153.8,258.3,152.6,271.2,152.2,307.9z"/>
				<path class="st20" d="M155.8,266.9c0-0.6-0.2-0.6-0.2,0c0.3,8.1,0.5,16.1,0.8,24.2c0.1,4,0.2,8.1,0.4,12.1l0.1,3l0,1.7
					c0.1,0,0.3,0,0.4,0l0-1.7l0-3c-0.1-4-0.2-8.1-0.3-12.1C156.6,283,156.2,274.9,155.8,266.9z"/>
			</g>
			<g>
				
					<linearGradient id="SVGID_9_" gradientUnits="userSpaceOnUse" x1="347.9333" y1="278.527" x2="363.7419" y2="305.9084" gradientTransform="matrix(-1 0 0 1 520.9817 0)">
					<stop  offset="0" style="stop-color:#BEE1F4"/>
					<stop  offset="1" style="stop-color:#25BCAF"/>
				</linearGradient>
				<path class="st22" d="M160.7,307.9c0.9,0,1.8,0,2.7,0c0.1-8.8,0.5-17.7,1-26.5c0-0.4,0.2-0.4,0.2,0c-0.1,8.8-0.4,17.7-0.9,26.5
					c1.2,0,2.4,0,3.6,0c-0.3-20.5-1.5-34.1-2.4-34.1C163.8,273.7,162.4,285.1,160.7,307.9z"/>
				<path class="st20" d="M163.3,307.9c0.1,0,0.2,0,0.3,0c0.5-8.8,0.8-17.6,0.9-26.5c0-0.4-0.2-0.4-0.2,0
					C163.8,290.2,163.4,299.1,163.3,307.9z"/>
			</g>
			<g>
				
					<linearGradient id="SVGID_10_" gradientUnits="userSpaceOnUse" x1="343.1158" y1="287.603" x2="354.9697" y2="308.1346" gradientTransform="matrix(-1 0 0 1 520.9817 0)">
					<stop  offset="0" style="stop-color:#BEE1F4"/>
					<stop  offset="1" style="stop-color:#25BCAF"/>
				</linearGradient>
				<path class="st23" d="M165.6,307.9c0.9,0,1.7,0,2.6,0c1.2-5.9,2.6-11.7,4.2-17.5c0.1-0.3,0.3-0.2,0.2,0.1
					c-1.1,5.9-2.4,11.7-3.9,17.5c1.3,0,2.5,0,3.6,0c2-14.9,2.4-22.5,1.4-22.7C172.5,284.9,169.9,292.5,165.6,307.9z"/>
				<path class="st20" d="M168.2,307.9c0.2,0,0.3,0,0.5,0c1.5-5.8,2.8-11.6,3.9-17.5c0.1-0.3-0.1-0.3-0.2-0.1
					C170.8,296.2,169.4,302,168.2,307.9z"/>
			</g>
			<g>
				
					<linearGradient id="SVGID_11_" gradientUnits="userSpaceOnUse" x1="367.117" y1="278.7971" x2="381.1452" y2="303.0947" gradientTransform="matrix(-1 0 0 1 520.9817 0)">
					<stop  offset="0" style="stop-color:#BEE1F4"/>
					<stop  offset="1" style="stop-color:#25BCAF"/>
				</linearGradient>
				<path class="st24" d="M140,270.9c-1.1,0.3,1.6,12.7,8.1,37c1.3,0,2.6,0,3.9,0c-3.4-9.8-6.6-19.7-9.7-29.6
					c-0.2-0.5,0-0.5,0.2-0.1c3.5,9.8,6.9,19.7,10,29.7c1,0,2,0,2.9,0C146.3,282.9,141.2,270.5,140,270.9z"/>
				<path class="st20" d="M142.5,278.2c-0.2-0.5-0.4-0.4-0.2,0.1c3.1,9.9,6.3,19.8,9.7,29.6c0.2,0,0.3,0,0.5,0
					C149.4,297.9,146,288,142.5,278.2z"/>
			</g>
		</g>
		<g>
			<g>
				
					<linearGradient id="SVGID_12_" gradientUnits="userSpaceOnUse" x1="331.3481" y1="289.3787" x2="340.8168" y2="305.7789" gradientTransform="matrix(-1 0 0 1 520.9817 0)">
					<stop  offset="0" style="stop-color:#BEE1F4"/>
					<stop  offset="1" style="stop-color:#25BCAF"/>
				</linearGradient>
				<path class="st25" d="M179.6,283.8c-1.2,0.4,0.2,8.5,4.2,24.1c1.4,0,2.8,0,4.3,0c-2.2-6-4.3-12.1-6.2-18.3
					c-0.1-0.3,0.1-0.4,0.2-0.1c2.3,6.1,4.5,12.2,6.6,18.3c1.2,0,2.3,0,3.5,0C185.1,291.4,180.9,283.3,179.6,283.8z"/>
				<path class="st20" d="M182.2,289.6c-0.1-0.3-0.3-0.3-0.2,0.1c2,6.1,4,12.2,6.2,18.3c0.2,0,0.4,0,0.6,0
					C186.7,301.7,184.5,295.6,182.2,289.6z"/>
			</g>
			<g>
				
					<linearGradient id="SVGID_13_" gradientUnits="userSpaceOnUse" x1="309.468" y1="265.8526" x2="331.7948" y2="304.5239" gradientTransform="matrix(-1 0 0 1 520.9817 0)">
					<stop  offset="0" style="stop-color:#BEE1F4"/>
					<stop  offset="1" style="stop-color:#25BCAF"/>
				</linearGradient>
				<path class="st26" d="M195,307.9c1.5,0,3.1,0,4.6,0l0-1.7l-0.1-3c-0.1-4-0.2-8.1-0.4-12.1c-0.3-8.1-0.5-16.1-0.8-24.2
					c0-0.6,0.2-0.6,0.2,0c0.5,8,0.9,16.1,1.1,24.2c0.1,4,0.2,8.1,0.3,12.1l0,3l0,1.7c1.7,0,3.5,0,5.1,0c-3.3-36.8-5.5-49.8-7-49.7
					C196.7,258.3,195.5,271.2,195,307.9z"/>
				<path class="st20" d="M198.6,266.9c0-0.6-0.2-0.6-0.2,0c0.3,8.1,0.5,16.1,0.8,24.2c0.1,4,0.2,8.1,0.4,12.1l0.1,3l0,1.7
					c0.1,0,0.3,0,0.4,0l0-1.7l0-3c-0.1-4-0.2-8.1-0.3-12.1C199.5,283,199.1,274.9,198.6,266.9z"/>
			</g>
			<g>
				
					<linearGradient id="SVGID_14_" gradientUnits="userSpaceOnUse" x1="305.0753" y1="278.527" x2="320.884" y2="305.9084" gradientTransform="matrix(-1 0 0 1 520.9817 0)">
					<stop  offset="0" style="stop-color:#BEE1F4"/>
					<stop  offset="1" style="stop-color:#25BCAF"/>
				</linearGradient>
				<path class="st27" d="M203.5,307.9c0.9,0,1.8,0,2.7,0c0.1-8.8,0.5-17.7,1-26.5c0-0.4,0.2-0.4,0.2,0c-0.1,8.8-0.4,17.7-0.9,26.5
					c1.2,0,2.4,0,3.6,0c-0.3-20.5-1.5-34.1-2.4-34.1C206.6,273.7,205.3,285.1,203.5,307.9z"/>
				<path class="st20" d="M206.2,307.9c0.1,0,0.2,0,0.3,0c0.5-8.8,0.8-17.6,0.9-26.5c0-0.4-0.2-0.4-0.2,0
					C206.7,290.2,206.3,299.1,206.2,307.9z"/>
			</g>
			<g>
				
					<linearGradient id="SVGID_15_" gradientUnits="userSpaceOnUse" x1="300.2577" y1="287.603" x2="312.1117" y2="308.1346" gradientTransform="matrix(-1 0 0 1 520.9817 0)">
					<stop  offset="0" style="stop-color:#BEE1F4"/>
					<stop  offset="1" style="stop-color:#25BCAF"/>
				</linearGradient>
				<path class="st28" d="M208.5,307.9c0.9,0,1.7,0,2.6,0c1.2-5.9,2.6-11.7,4.2-17.5c0.1-0.3,0.3-0.2,0.2,0.1
					c-1.1,5.9-2.4,11.7-3.9,17.5c1.3,0,2.5,0,3.6,0c2-14.9,2.4-22.5,1.4-22.7C215.4,284.9,212.7,292.5,208.5,307.9z"/>
				<path class="st20" d="M211,307.9c0.2,0,0.3,0,0.5,0c1.5-5.8,2.8-11.6,3.9-17.5c0.1-0.3-0.1-0.3-0.2-0.1
					C213.6,296.2,212.2,302,211,307.9z"/>
			</g>
			<g>
				
					<linearGradient id="SVGID_16_" gradientUnits="userSpaceOnUse" x1="324.259" y1="278.7971" x2="338.2872" y2="303.0947" gradientTransform="matrix(-1 0 0 1 520.9817 0)">
					<stop  offset="0" style="stop-color:#BEE1F4"/>
					<stop  offset="1" style="stop-color:#25BCAF"/>
				</linearGradient>
				<path class="st29" d="M182.9,270.9c-1.1,0.3,1.6,12.7,8.1,37c1.3,0,2.6,0,3.9,0c-3.4-9.8-6.6-19.7-9.7-29.6
					c-0.2-0.5,0-0.5,0.2-0.1c3.5,9.8,6.9,19.7,10,29.7c1,0,2,0,2.9,0C189.2,282.9,184,270.5,182.9,270.9z"/>
				<path class="st20" d="M185.4,278.2c-0.2-0.5-0.4-0.4-0.2,0.1c3.1,9.9,6.3,19.8,9.7,29.6c0.2,0,0.3,0,0.5,0
					C192.3,297.9,188.9,288,185.4,278.2z"/>
			</g>
		</g>
		<g>
			<g>
				
					<linearGradient id="SVGID_17_" gradientUnits="userSpaceOnUse" x1="230.0651" y1="289.3788" x2="239.5337" y2="305.7789" gradientTransform="matrix(-1 0 0 1 520.9817 0)">
					<stop  offset="0" style="stop-color:#BEE1F4"/>
					<stop  offset="1" style="stop-color:#25BCAF"/>
				</linearGradient>
				<path class="st30" d="M280.9,283.8c-1.2,0.4,0.2,8.5,4.2,24.1c1.4,0,2.8,0,4.3,0c-2.2-6-4.3-12.1-6.2-18.3
					c-0.1-0.3,0.1-0.4,0.2-0.1c2.3,6.1,4.5,12.2,6.6,18.3c1.2,0,2.3,0,3.5,0C286.4,291.4,282.2,283.3,280.9,283.8z"/>
				<path class="st20" d="M283.4,289.6c-0.1-0.3-0.3-0.3-0.2,0.1c2,6.1,4,12.2,6.2,18.3c0.2,0,0.4,0,0.6,0
					C288,301.7,285.8,295.6,283.4,289.6z"/>
			</g>
			<g>
				
					<linearGradient id="SVGID_18_" gradientUnits="userSpaceOnUse" x1="208.1849" y1="265.8526" x2="230.5118" y2="304.5239" gradientTransform="matrix(-1 0 0 1 520.9817 0)">
					<stop  offset="0" style="stop-color:#BEE1F4"/>
					<stop  offset="1" style="stop-color:#25BCAF"/>
				</linearGradient>
				<path class="st31" d="M296.3,307.9c1.5,0,3.1,0,4.6,0l0-1.7l-0.1-3c-0.1-4-0.2-8.1-0.4-12.1c-0.3-8.1-0.5-16.1-0.8-24.2
					c0-0.6,0.2-0.6,0.2,0c0.5,8,0.9,16.1,1.1,24.2c0.1,4,0.2,8.1,0.3,12.1l0,3l0,1.7c1.7,0,3.5,0,5.1,0c-3.3-36.8-5.5-49.8-7-49.7
					C298,258.3,296.8,271.2,296.3,307.9z"/>
				<path class="st20" d="M299.9,266.9c0-0.6-0.2-0.6-0.2,0c0.3,8.1,0.5,16.1,0.8,24.2c0.1,4,0.2,8.1,0.4,12.1l0.1,3l0,1.7
					c0.1,0,0.3,0,0.4,0l0-1.7l0-3c-0.1-4-0.2-8.1-0.3-12.1C300.8,283,300.4,274.9,299.9,266.9z"/>
			</g>
			<g>
				
					<linearGradient id="SVGID_19_" gradientUnits="userSpaceOnUse" x1="203.7922" y1="278.527" x2="219.6009" y2="305.9084" gradientTransform="matrix(-1 0 0 1 520.9817 0)">
					<stop  offset="0" style="stop-color:#BEE1F4"/>
					<stop  offset="1" style="stop-color:#25BCAF"/>
				</linearGradient>
				<path class="st32" d="M304.8,307.9c0.9,0,1.8,0,2.7,0c0.1-8.8,0.5-17.7,1-26.5c0-0.4,0.2-0.4,0.2,0c-0.1,8.8-0.4,17.7-0.9,26.5
					c1.2,0,2.4,0,3.6,0c-0.3-20.5-1.5-34.1-2.4-34.1C307.9,273.7,306.5,285.1,304.8,307.9z"/>
				<path class="st20" d="M307.5,307.9c0.1,0,0.2,0,0.3,0c0.5-8.8,0.8-17.6,0.9-26.5c0-0.4-0.2-0.4-0.2,0
					C308,290.2,307.6,299.1,307.5,307.9z"/>
			</g>
			<g>
				
					<linearGradient id="SVGID_20_" gradientUnits="userSpaceOnUse" x1="198.9747" y1="287.603" x2="210.8286" y2="308.1346" gradientTransform="matrix(-1 0 0 1 520.9817 0)">
					<stop  offset="0" style="stop-color:#BEE1F4"/>
					<stop  offset="1" style="stop-color:#25BCAF"/>
				</linearGradient>
				<path class="st33" d="M309.7,307.9c0.9,0,1.7,0,2.6,0c1.2-5.9,2.6-11.7,4.2-17.5c0.1-0.3,0.3-0.2,0.2,0.1
					c-1.1,5.9-2.4,11.7-3.9,17.5c1.3,0,2.5,0,3.6,0c2-14.9,2.4-22.5,1.4-22.7C316.7,284.9,314,292.5,309.7,307.9z"/>
				<path class="st20" d="M312.3,307.9c0.2,0,0.3,0,0.5,0c1.5-5.8,2.8-11.6,3.9-17.5c0.1-0.3-0.1-0.3-0.2-0.1
					C314.9,296.2,313.5,302,312.3,307.9z"/>
			</g>
			<g>
				
					<linearGradient id="SVGID_21_" gradientUnits="userSpaceOnUse" x1="222.976" y1="278.7971" x2="237.0042" y2="303.0947" gradientTransform="matrix(-1 0 0 1 520.9817 0)">
					<stop  offset="0" style="stop-color:#BEE1F4"/>
					<stop  offset="1" style="stop-color:#25BCAF"/>
				</linearGradient>
				<path class="st34" d="M284.2,270.9c-1.1,0.3,1.6,12.7,8.1,37c1.3,0,2.6,0,3.9,0c-3.4-9.8-6.6-19.7-9.7-29.6
					c-0.2-0.5,0-0.5,0.2-0.1c3.5,9.8,6.9,19.7,10,29.7c1,0,2,0,2.9,0C290.5,282.9,285.3,270.5,284.2,270.9z"/>
				<path class="st20" d="M286.7,278.2c-0.2-0.5-0.4-0.4-0.2,0.1c3.1,9.9,6.3,19.8,9.7,29.6c0.2,0,0.3,0,0.5,0
					C293.5,297.9,290.2,288,286.7,278.2z"/>
			</g>
		</g>
		<circle class="st35" cx="187" cy="150.3" r="30.4"/>
		<path class="st7" d="M210.3,147.8h-46.6l4.9,19.6c0.2,0.9,1.1,1.6,2,1.6h32.9c0.9,0,1.8-0.6,2-1.6L210.3,147.8z M175,165
			c0,0.6-0.5,1.1-1.1,1.1l0,0c-0.6,0-1.1-0.5-1.1-1.1v-13.8c0-0.6,0.5-1.1,1.1-1.1l0,0c0.6,0,1.1,0.5,1.1,1.1V165z M181.6,165
			c0,0.6-0.5,1.1-1.1,1.1c-0.6,0-1.1-0.5-1.1-1.1v-13.8c0-0.6,0.5-1.1,1.1-1.1c0.6,0,1.1,0.5,1.1,1.1V165z M188.1,165
			c0,0.6-0.5,1.1-1.1,1.1s-1.1-0.5-1.1-1.1v-13.8c0-0.6,0.5-1.1,1.1-1.1s1.1,0.5,1.1,1.1V165z M194.6,165c0,0.6-0.5,1.1-1.1,1.1
			c-0.6,0-1.1-0.5-1.1-1.1v-13.8c0-0.6,0.5-1.1,1.1-1.1c0.6,0,1.1,0.5,1.1,1.1V165z M201.2,165c0,0.6-0.5,1.1-1.1,1.1
			c-0.6,0-1.1-0.5-1.1-1.1v-13.8c0-0.6,0.5-1.1,1.1-1.1c0.6,0,1.1,0.5,1.1,1.1V165z M161.7,144.1c0,1.1,0.9,2.1,2.1,2.1h46.5
			c1.1,0,2.1-0.9,2.1-2.1c0-1.1-0.9-2.1-2.1-2.1h-7L193.2,132c-0.6-0.6-1.5-0.6-2.1,0c-0.6,0.6-0.6,1.5,0,2.1l8,8h-24.2l8-8
			c0.6-0.6,0.6-1.5,0-2.1c-0.6-0.6-1.5-0.6-2.1,0l-10.1,10.1h-7C162.6,142.1,161.7,143,161.7,144.1z"/>
		<g>
			
				<rect x="284.7" y="284" transform="matrix(-1 -4.495749e-11 4.495749e-11 -1 576.7532 583.2696)" class="st36" width="7.4" height="15.2"/>
			
				<rect x="209.5" y="281" transform="matrix(-1 -4.491797e-11 4.491797e-11 -1 547.0955 571.1078)" class="st36" width="128" height="9.1"/>
			
				<linearGradient id="SVGID_22_" gradientUnits="userSpaceOnUse" x1="114.6995" y1="254.7722" x2="176.841" y2="254.7722" gradientTransform="matrix(-1 0 0 1 520.9817 0)">
				<stop  offset="0" style="stop-color:#606BF1"/>
				<stop  offset="0.266" style="stop-color:#5B62F1"/>
				<stop  offset="0.6982" style="stop-color:#4C4AF1"/>
				<stop  offset="1" style="stop-color:#4035F1"/>
			</linearGradient>
			<path class="st37" d="M392.3,227.5l12.2,27.4c1.2,2.7,1.8,5.5,1.8,8.4v23.8h-62.1v-64.9h40.3
				C387.8,222.3,390.9,224.4,392.3,227.5z"/>
			<g>
				<path class="st38" d="M346.3,287.2h0.8v-61.5h38c1.6,0,3.1,0.9,3.7,2.4l13.7,30.3v28.7h0.8v-28.9l-13.8-30.5
					c-0.8-1.7-2.5-2.9-4.5-2.9h-38.8V287.2z"/>
			</g>
			
				<rect x="202.5" y="202.3" transform="matrix(-1 -4.489576e-11 4.489576e-11 -1 543.4708 486.3013)" class="st39" width="138.5" height="81.8"/>
			
				<rect x="202.5" y="202.3" transform="matrix(-1 -4.490775e-11 4.490775e-11 -1 546.6345 408.9645)" class="st40" width="141.6" height="4.4"/>
			<g>
				<g>
					
						<rect x="229.1" y="242.1" transform="matrix(8.577589e-11 -1 1 8.577589e-11 19.0445 507.7196)" class="st40" width="68.6" height="4.4"/>
					
						<rect x="213.4" y="242.1" transform="matrix(8.578922e-11 -1 1 8.578922e-11 3.4039 492.079)" class="st40" width="68.6" height="4.4"/>
					
						<rect x="197.8" y="242.1" transform="matrix(8.577589e-11 -1 1 8.577589e-11 -12.2366 476.4385)" class="st40" width="68.6" height="4.4"/>
					
						<rect x="182.2" y="242.1" transform="matrix(8.578922e-11 -1 1 8.578922e-11 -27.8772 460.7979)" class="st40" width="68.6" height="4.4"/>
				</g>
				<g>
					
						<rect x="291.4" y="242.1" transform="matrix(8.578922e-11 -1 1 8.578922e-11 81.33 570.0051)" class="st40" width="68.6" height="4.4"/>
					
						<rect x="275.7" y="242.1" transform="matrix(8.576257e-11 -1 1 8.576257e-11 65.6894 554.3646)" class="st40" width="68.6" height="4.4"/>
					
						<rect x="260.1" y="242.1" transform="matrix(8.578922e-11 -1 1 8.578922e-11 50.0489 538.7241)" class="st40" width="68.6" height="4.4"/>
					
						<rect x="244.4" y="242.1" transform="matrix(8.578922e-11 -1 1 8.578922e-11 34.4083 523.0834)" class="st40" width="68.6" height="4.4"/>
				</g>
			</g>
			<path class="st41" d="M348.9,240.9v-13.8h35.5c1.6,0,3,0.9,3.6,2.3l10.8,24.3h-37.1L348.9,240.9z"/>
			<polygon class="st36" points="378.6,228.1 389.1,252.7 386.8,252.7 376.5,228.1 			"/>
			<polygon class="st36" points="370.1,228.1 380.2,252.7 373.5,252.7 363.6,228.1 			"/>
			<path class="st36" d="M319.2,299.2h86.4c2.3,0,4.2-1.9,4.2-4.2v-7.8h-90.6V299.2z"/>
			<rect x="202.5" y="289.6" class="st36" width="116.7" height="7.2"/>
			<path class="st38" d="M364.5,262.3h7.7c0.9,0,1.7-0.7,1.7-1.7v-0.9h-11v0.9C362.8,261.6,363.6,262.3,364.5,262.3z"/>
			<path class="st42" d="M364.5,261.7h7.7c0.9,0,1.7-0.7,1.7-1.7v-0.9h-11v0.9C362.8,260.9,363.6,261.7,364.5,261.7z"/>
			<path class="st43" d="M402.4,281.8h3.9v-12.6h-3.9c-2.2,0-4,1.8-4,4v4.6C398.4,280,400.2,281.8,402.4,281.8z"/>
			
				<rect x="215.3" y="284" transform="matrix(-1 -4.495794e-11 4.495794e-11 -1 438.0912 583.2696)" class="st36" width="7.4" height="15.2"/>
			<g>
				<g>
					<path class="st36" d="M367.6,281c10.1,0,18.2,8.2,18.2,18.2h-36.5C349.4,289.2,357.6,281,367.6,281z"/>
				</g>
				
					<linearGradient id="SVGID_23_" gradientUnits="userSpaceOnUse" x1="145.9799" y1="286.4665" x2="160.7193" y2="311.9958" gradientTransform="matrix(-1 0 0 1 520.9817 0)">
					<stop  offset="0.3124" style="stop-color:#56548C"/>
					<stop  offset="0.9382" style="stop-color:#3B367A"/>
				</linearGradient>
				<circle class="st44" cx="367.6" cy="299.2" r="14.7"/>
				
					<ellipse transform="matrix(0.3799 -0.925 0.925 0.3799 -48.8195 525.6393)" class="st45" cx="367.6" cy="299.2" rx="9.6" ry="9.6"/>
				<circle class="st46" cx="367.6" cy="299.2" r="8.6"/>
				<g>
					
						<linearGradient id="SVGID_24_" gradientUnits="userSpaceOnUse" x1="152.4281" y1="291.9388" x2="154.9049" y2="296.2287" gradientTransform="matrix(-1 0 0 1 520.9817 0)">
						<stop  offset="0.3124" style="stop-color:#56548C"/>
						<stop  offset="0.9382" style="stop-color:#3B367A"/>
					</linearGradient>
					<path class="st47" d="M367.3,296.8l-1.2-4.5h3.1l-1.2,4.5C367.9,297.2,367.4,297.2,367.3,296.8z"/>
					
						<linearGradient id="SVGID_25_" gradientUnits="userSpaceOnUse" x1="148.2588" y1="293.979" x2="150.7662" y2="298.322" gradientTransform="matrix(-1 0 0 1 520.9817 0)">
						<stop  offset="0.3124" style="stop-color:#56548C"/>
						<stop  offset="0.9382" style="stop-color:#3B367A"/>
					</linearGradient>
					<path class="st48" d="M369.1,297.2l2.3-4l2.2,2.2l-4,2.3C369.3,298,368.9,297.6,369.1,297.2z"/>
					
						<linearGradient id="SVGID_26_" gradientUnits="userSpaceOnUse" x1="147.2221" y1="297.2166" x2="149.1823" y2="300.6118" gradientTransform="matrix(-1 0 0 1 520.9817 0)">
						<stop  offset="0.3124" style="stop-color:#56548C"/>
						<stop  offset="0.9382" style="stop-color:#3B367A"/>
					</linearGradient>
					<path class="st49" d="M370.1,298.9l4.5-1.2v3.1l-4.5-1.2C369.7,299.5,369.7,299,370.1,298.9z"/>
					
						<linearGradient id="SVGID_27_" gradientUnits="userSpaceOnUse" x1="149.5141" y1="301.7607" x2="151.0239" y2="304.3757" gradientTransform="matrix(-1 0 0 1 520.9817 0)">
						<stop  offset="0.3124" style="stop-color:#56548C"/>
						<stop  offset="0.9382" style="stop-color:#3B367A"/>
					</linearGradient>
					<path class="st50" d="M369.6,300.7l4,2.3l-2.2,2.2l-2.3-4C368.9,300.9,369.3,300.5,369.6,300.7z"/>
					
						<linearGradient id="SVGID_28_" gradientUnits="userSpaceOnUse" x1="151.7943" y1="302.2336" x2="154.2711" y2="306.5235" gradientTransform="matrix(-1 0 0 1 520.9817 0)">
						<stop  offset="0.3124" style="stop-color:#56548C"/>
						<stop  offset="0.9382" style="stop-color:#3B367A"/>
					</linearGradient>
					<path class="st51" d="M368,301.7l1.2,4.5h-3.1l1.2-4.5C367.4,301.3,367.9,301.3,368,301.7z"/>
					
						<linearGradient id="SVGID_29_" gradientUnits="userSpaceOnUse" x1="155.933" y1="300.1402" x2="158.4405" y2="304.4833" gradientTransform="matrix(-1 0 0 1 520.9817 0)">
						<stop  offset="0.3124" style="stop-color:#56548C"/>
						<stop  offset="0.9382" style="stop-color:#3B367A"/>
					</linearGradient>
					<path class="st52" d="M366.2,301.2l-2.3,4l-2.2-2.2l4-2.3C366,300.5,366.4,300.9,366.2,301.2z"/>
					
						<linearGradient id="SVGID_30_" gradientUnits="userSpaceOnUse" x1="157.517" y1="297.8505" x2="159.4771" y2="301.2456" gradientTransform="matrix(-1 0 0 1 520.9817 0)">
						<stop  offset="0.3124" style="stop-color:#56548C"/>
						<stop  offset="0.9382" style="stop-color:#3B367A"/>
					</linearGradient>
					<path class="st53" d="M365.2,299.6l-4.5,1.2v-3.1l4.5,1.2C365.6,299,365.6,299.5,365.2,299.6z"/>
					
						<linearGradient id="SVGID_31_" gradientUnits="userSpaceOnUse" x1="155.6754" y1="294.0865" x2="157.1852" y2="296.7015" gradientTransform="matrix(-1 0 0 1 520.9817 0)">
						<stop  offset="0.3124" style="stop-color:#56548C"/>
						<stop  offset="0.9382" style="stop-color:#3B367A"/>
					</linearGradient>
					<path class="st54" d="M365.6,297.8l-4-2.3l2.2-2.2l2.3,4C366.4,297.6,366,298,365.6,297.8z"/>
					
						<linearGradient id="SVGID_32_" gradientUnits="userSpaceOnUse" x1="152.9754" y1="298.583" x2="153.7238" y2="299.8793" gradientTransform="matrix(-1 0 0 1 520.9817 0)">
						<stop  offset="0.3124" style="stop-color:#56548C"/>
						<stop  offset="0.9382" style="stop-color:#3B367A"/>
					</linearGradient>
					<circle class="st55" cx="367.6" cy="299.2" r="0.7"/>
				</g>
			</g>
			<g>
				<g>
					<path class="st36" d="M248.8,281c10.1,0,18.2,8.2,18.2,18.2h-36.5C230.6,289.2,238.7,281,248.8,281z"/>
				</g>
				<g>
					
						<linearGradient id="SVGID_33_" gradientUnits="userSpaceOnUse" x1="264.8031" y1="286.4665" x2="279.5424" y2="311.9958" gradientTransform="matrix(-1 0 0 1 520.9817 0)">
						<stop  offset="0.3124" style="stop-color:#56548C"/>
						<stop  offset="0.9382" style="stop-color:#3B367A"/>
					</linearGradient>
					<circle class="st56" cx="248.8" cy="299.2" r="14.7"/>
					
						<ellipse transform="matrix(0.973 -0.231 0.231 0.973 -62.3821 65.5533)" class="st45" cx="248.8" cy="299.2" rx="9.6" ry="9.6"/>
					<circle class="st46" cx="248.8" cy="299.2" r="8.6"/>
					<g>
						
							<linearGradient id="SVGID_34_" gradientUnits="userSpaceOnUse" x1="271.2513" y1="291.9388" x2="273.7281" y2="296.2287" gradientTransform="matrix(-1 0 0 1 520.9817 0)">
							<stop  offset="0.3124" style="stop-color:#56548C"/>
							<stop  offset="0.9382" style="stop-color:#3B367A"/>
						</linearGradient>
						<path class="st57" d="M248.4,296.8l-1.2-4.5h3.1l-1.2,4.5C249.1,297.2,248.5,297.2,248.4,296.8z"/>
						
							<linearGradient id="SVGID_35_" gradientUnits="userSpaceOnUse" x1="267.0819" y1="293.979" x2="269.5894" y2="298.322" gradientTransform="matrix(-1 0 0 1 520.9817 0)">
							<stop  offset="0.3124" style="stop-color:#56548C"/>
							<stop  offset="0.9382" style="stop-color:#3B367A"/>
						</linearGradient>
						<path class="st58" d="M250.3,297.2l2.3-4l2.2,2.2l-4,2.3C250.5,298,250.1,297.6,250.3,297.2z"/>
						
							<linearGradient id="SVGID_36_" gradientUnits="userSpaceOnUse" x1="266.0453" y1="297.2166" x2="268.0055" y2="300.6118" gradientTransform="matrix(-1 0 0 1 520.9817 0)">
							<stop  offset="0.3124" style="stop-color:#56548C"/>
							<stop  offset="0.9382" style="stop-color:#3B367A"/>
						</linearGradient>
						<path class="st59" d="M251.3,298.9l4.5-1.2v3.1l-4.5-1.2C250.9,299.5,250.9,299,251.3,298.9z"/>
						
							<linearGradient id="SVGID_37_" gradientUnits="userSpaceOnUse" x1="268.3372" y1="301.7607" x2="269.847" y2="304.3758" gradientTransform="matrix(-1 0 0 1 520.9817 0)">
							<stop  offset="0.3124" style="stop-color:#56548C"/>
							<stop  offset="0.9382" style="stop-color:#3B367A"/>
						</linearGradient>
						<path class="st60" d="M250.8,300.7l4,2.3l-2.2,2.2l-2.3-4C250.1,300.9,250.5,300.5,250.8,300.7z"/>
						
							<linearGradient id="SVGID_38_" gradientUnits="userSpaceOnUse" x1="270.6174" y1="302.2336" x2="273.0942" y2="306.5235" gradientTransform="matrix(-1 0 0 1 520.9817 0)">
							<stop  offset="0.3124" style="stop-color:#56548C"/>
							<stop  offset="0.9382" style="stop-color:#3B367A"/>
						</linearGradient>
						<path class="st61" d="M249.2,301.7l1.2,4.5h-3.1l1.2-4.5C248.5,301.3,249.1,301.3,249.2,301.7z"/>
						
							<linearGradient id="SVGID_39_" gradientUnits="userSpaceOnUse" x1="274.7562" y1="300.1402" x2="277.2636" y2="304.4832" gradientTransform="matrix(-1 0 0 1 520.9817 0)">
							<stop  offset="0.3124" style="stop-color:#56548C"/>
							<stop  offset="0.9382" style="stop-color:#3B367A"/>
						</linearGradient>
						<path class="st62" d="M247.3,301.2l-2.3,4l-2.2-2.2l4-2.3C247.2,300.5,247.5,300.9,247.3,301.2z"/>
						
							<linearGradient id="SVGID_40_" gradientUnits="userSpaceOnUse" x1="276.3401" y1="297.8505" x2="278.3003" y2="301.2456" gradientTransform="matrix(-1 0 0 1 520.9817 0)">
							<stop  offset="0.3124" style="stop-color:#56548C"/>
							<stop  offset="0.9382" style="stop-color:#3B367A"/>
						</linearGradient>
						<path class="st63" d="M246.4,299.6l-4.5,1.2v-3.1l4.5,1.2C246.7,299,246.7,299.5,246.4,299.6z"/>
						
							<linearGradient id="SVGID_41_" gradientUnits="userSpaceOnUse" x1="274.4985" y1="294.0865" x2="276.0083" y2="296.7015" gradientTransform="matrix(-1 0 0 1 520.9817 0)">
							<stop  offset="0.3124" style="stop-color:#56548C"/>
							<stop  offset="0.9382" style="stop-color:#3B367A"/>
						</linearGradient>
						<path class="st64" d="M246.8,297.8l-4-2.3l2.2-2.2l2.3,4C247.5,297.6,247.2,298,246.8,297.8z"/>
						
							<linearGradient id="SVGID_42_" gradientUnits="userSpaceOnUse" x1="271.7986" y1="298.583" x2="272.547" y2="299.8793" gradientTransform="matrix(-1 0 0 1 520.9817 0)">
							<stop  offset="0.3124" style="stop-color:#56548C"/>
							<stop  offset="0.9382" style="stop-color:#3B367A"/>
						</linearGradient>
						<path class="st65" d="M248.1,299.2c0,0.4,0.3,0.7,0.7,0.7c0.4,0,0.7-0.3,0.7-0.7c0-0.4-0.3-0.7-0.7-0.7
							C248.4,298.5,248.1,298.8,248.1,299.2z"/>
					</g>
				</g>
			</g>
		</g>
		<g>
			<path class="st66" d="M272.5,260.5c-1.4-0.3-0.1-8.4,0.8-11.8c0.8-3.4,2-5.9,3.7-5.5c1.7,0.4,1.5,3.2,0.6,6.6
				C276.6,253.2,273.9,260.8,272.5,260.5z"/>
			<path class="st66" d="M260.4,249c0.8-0.9,7.9,4.8,9.8,6.5c1.9,1.7,3.9,3.6,2.9,4.7c-0.9,1-3.1-0.6-5-2.3
				C266.2,256.2,259.5,249.9,260.4,249z"/>
			<path class="st66" d="M262.2,250.1c0.1-1.5-2.5-1.3-3.4-1.3c-1.4,0.1-3,1.3-3,1.9s3.3,0.1,3.4,0.2c0.1,0.1-1.4,0.5-1.4,1
				c0.1,0.5,2.2,0.3,3-0.1C261.7,251.4,262.1,251,262.2,250.1z"/>
			<path class="st66" d="M280.2,312.6l0.1,1.7c0,0.2-0.2,0.4-0.4,0.4h-4.7c-0.4,0-0.6-0.5-0.3-0.8c0.7-0.5,1.7-1.1,2.6-1.3
				c0.1,0,0.7-14.7,1.5-14.7C279.6,297.9,280.2,312.6,280.2,312.6z"/>
			<path class="st66" d="M290.4,312.5c0,0,0,0.1,0,0.2v1.4c0,0.2-0.4,0.8-0.7,0.9c-1.2,0.5-3.4,0.2-3.5-0.2c-0.1-0.4,0.5-1.3,1-1.9
				c0,0,0,0,0,0c0.3-0.4,0.6-0.7,0.6-0.7s0.6-14.2,1.3-14.2C289.9,298,290.4,312.5,290.4,312.5z"/>
			<path class="st66" d="M279,290.1c-2,0-3-10.9-3.1-15.5c-0.1-4.6,0.7-8.3,3.1-8.3c2.4,0,3.2,3.7,3.1,8.3
				C282,279.2,281,290.1,279,290.1z"/>
			<path class="st66" d="M279,313.2c-1.7,0-2.2-15.3-2.2-18.8c0-3.4,0.3-7.1,2.2-7.1s2.2,3.6,2.2,7.1
				C281.3,297.9,280.8,313.2,279,313.2z"/>
			<path class="st66" d="M287.4,290.1c-2,0.2-4-10.6-4.5-15.2c-0.5-4.6-0.1-8.4,2.3-8.6c2.4-0.2,3.5,3.4,3.8,8
				C289.4,279,289.4,289.9,287.4,290.1z"/>
			<path class="st66" d="M289.3,313.1c-1.7,0.2-3.3-15.1-3.6-18.5c-0.3-3.4-0.4-7.1,1.6-7.3c1.9-0.2,2.5,3.4,2.9,6.9
				C290.4,297.6,291,312.9,289.3,313.1z"/>
			<path class="st66" d="M289,269.8H276l-0.5-20.8l1-5.9l6.3-1.9l3.6,0.7c2.1,0.4,3.5,2.2,3.4,4.3l-1.3,14.7L289,269.8z"/>
			<path class="st66" d="M292.6,259.6c-1.3,0.4-4.6-7.1-5.7-10.5c-1.1-3.3-1.4-6.1,0.2-6.7c1.6-0.5,3,1.9,4,5.3
				C292.2,251.2,294,259.2,292.6,259.6z"/>
			<path class="st66" d="M284.1,238.5v4.2c0,0-0.9,0.5-2.9,0.5c-1.1,0-1.4-0.5-1.4-0.5v-1.5L284.1,238.5z"/>
			<path class="st66" d="M284.6,235.4c0,0.2,0,0.3,0,0.4c0,0,0,0.1,0,0.2c0.1,2.5-1.5,5.1-3.9,5.5c0,0,0,0-0.1,0c0,0,0,0-0.1,0
				c-0.5,0.1-2.4,0.2-3-0.5c-0.8-0.9-1.5-2.5-1.5-3.6c0-1.1,0.2-1.4,0.2-1.8c0-0.3-0.2-1.4-0.2-1.9c0-2.2,1.5-4.4,4.1-4.4
				C284.1,229.2,284.7,232.7,284.6,235.4z"/>
			<g>
				<path class="st66" d="M283.4,235.4c0.3-0.1,1.1-0.3,0.9,0.8c-0.2,1.9-1.4,1.8-1.4,1.8c0.1-0.3,0.2-0.7,0.2-1.1
					c-0.3-0.2,0.1-0.4,0.1-0.6c0,0,0-0.1,0-0.1C283.4,235.9,283.4,235.6,283.4,235.4z"/>
				<path class="st67" d="M283.3,236.1c0,0,0.3-0.3,0.6-0.2c0.3,0.1,0.1,0.7-0.1,1.1c-0.2,0.4-0.4,0.4-0.5,0.3
					c0-0.1,0.4-0.3,0.3-0.5c-0.2-0.2-0.3-0.2-0.3-0.3C283.3,236.4,283.3,236.1,283.3,236.1z"/>
			</g>
			<path class="st67" d="M279.2,241.5c1.2,0.1,2.8-1.1,3.2-1.7c0.4-0.5,0.7-1.9,0.7-1.9s0.4,0,0.6-0.3c0,0,0,0.6-0.3,0.8
				c-0.2,0.2-0.4,0.2-0.4,0.4c-0.1,0.1-0.3,2-1.3,2.6C280.7,241.9,279.2,241.5,279.2,241.5z"/>
			<path class="st68" d="M280.3,312.9v1.6c0,0.2-0.1,0.3-0.3,0.3h-5.2c-0.5,0-0.7-0.6-0.3-0.9c0.8-0.6,2-1.1,2.9-1.6
				c0.2,0.2,0.5,0.8,0.9,0.8C278.6,313.3,280.3,312.9,280.3,312.9z"/>
			<path class="st68" d="M290.4,312.7v1.4c0,0.2-0.4,0.8-0.7,0.9c-1.2,0.5-3.4,0.2-3.5-0.2c-0.1-0.4,0.5-1.3,1-1.9c0,0,0,0,0,0
				c0.2-0.2,1.5-0.1,1.7,0c0.2,0.1,0.7,0.4,0.8,0.4C289.9,313.3,290.4,312.7,290.4,312.7z"/>
			
				<linearGradient id="SVGID_43_" gradientUnits="userSpaceOnUse" x1="225.161" y1="276.0831" x2="242.6359" y2="306.3505" gradientTransform="matrix(-1 0 0 1 520.9817 0)">
				<stop  offset="0.3124" style="stop-color:#56548C"/>
				<stop  offset="0.9382" style="stop-color:#3B367A"/>
			</linearGradient>
			<polygon class="st69" points="282.5,272.3 282.5,273.3 287.2,311.5 290.9,311.5 289.3,272.3 			"/>
			
				<linearGradient id="SVGID_44_" gradientUnits="userSpaceOnUse" x1="233.152" y1="275.4063" x2="251.4145" y2="307.0379" gradientTransform="matrix(-1 0 0 1 520.9817 0)">
				<stop  offset="0.3124" style="stop-color:#56548C"/>
				<stop  offset="0.9382" style="stop-color:#3B367A"/>
			</linearGradient>
			<polygon class="st70" points="275.7,272.3 277.3,311.5 280.9,311.5 282.5,273.3 282.5,272.3 			"/>
			
				<linearGradient id="SVGID_45_" gradientUnits="userSpaceOnUse" x1="243.0939" y1="244.0121" x2="248.3494" y2="253.1149" gradientTransform="matrix(-1 0 0 1 520.9817 0)">
				<stop  offset="0" style="stop-color:#606BF1"/>
				<stop  offset="0.266" style="stop-color:#5B62F1"/>
				<stop  offset="0.6982" style="stop-color:#4C4AF1"/>
				<stop  offset="1" style="stop-color:#4035F1"/>
			</linearGradient>
			<path class="st71" d="M273.4,247.3c-0.8,2.5-1.2,5.3-1.2,5.3s0.5,0.9,2.8,1.3h0c0-2.8,0-5.1,0-5.9c0.2-2.8,1.2-5,1.2-5
				C275.1,243.5,274.2,244.8,273.4,247.3z"/>
			
				<linearGradient id="SVGID_46_" gradientUnits="userSpaceOnUse" x1="229.7135" y1="244.1326" x2="234.697" y2="252.7642" gradientTransform="matrix(-1 0 0 1 520.9817 0)">
				<stop  offset="0" style="stop-color:#606BF1"/>
				<stop  offset="0.266" style="stop-color:#5B62F1"/>
				<stop  offset="0.6982" style="stop-color:#4C4AF1"/>
				<stop  offset="1" style="stop-color:#4035F1"/>
			</linearGradient>
			<path class="st72" d="M287.6,242.1c-1.7,0.2-2.5,1.7-2,4.1c0.6,2.7,2.8,7.8,2.8,7.8c0.1,0,0.3-0.1,0.4-0.1
				c3.3-0.7,3.8-1.8,3.8-1.8c-0.9-4.1-2.5-8.5-3.8-9.4C288.5,242.5,288,242.3,287.6,242.1z"/>
			
				<linearGradient id="SVGID_47_" gradientUnits="userSpaceOnUse" x1="230.1588" y1="244.0251" x2="246.2646" y2="271.9212" gradientTransform="matrix(-1 0 0 1 520.9817 0)">
				<stop  offset="0" style="stop-color:#606BF1"/>
				<stop  offset="0.266" style="stop-color:#5B62F1"/>
				<stop  offset="0.6982" style="stop-color:#4C4AF1"/>
				<stop  offset="1" style="stop-color:#4035F1"/>
			</linearGradient>
			<path class="st74" d="M279.8,242.1l-3.5,1c0,0-1.1,2.2-1.2,5c0,0.8,0,3,0,5.9c0.1,7.2,0.3,18.3,0.3,18.3h0.3h6.7h6.8h0.3
				c0,0-0.6-8.2-0.7-10.8c-0.1-2.5,0.4-6.7,0.4-6.7l-0.4-1c-0.1,0-0.3,0.1-0.4,0.1c0,0-2.2-5.1-2.8-7.8c-0.6-2.4,0.3-3.9,2-4.1
				c-1.3-0.4-2.8-0.5-2.8-0.5s-0.6,1.9-3.3,1.9C278.8,243.6,279.8,242.1,279.8,242.1z"/>
			<path class="st68" d="M284.7,238.6c-0.1,0.1-0.4,0.1-0.6,0l-0.3-0.9c0,0,0.1-0.1,0.3-0.5c0.2-0.4,0.4-1.1,0.2-1.5
				c-0.2-0.4-0.8-0.2-0.8-0.2s-0.4,1.2-0.6,1.2c-0.2,0-0.3-1.7-0.3-1.7c0,0-0.4,0-0.6-0.3c-0.2-0.2-0.3-0.6-0.1-0.9
				c-0.1,0-0.6-0.2-0.7-0.8c0,0-0.7,0.2-1.4-0.2c-0.7-0.4-0.7-0.4-0.7-0.4s-1.3,0.6-1.7,0.3c-0.4-0.3-0.8-0.3-0.8-0.3
				s-0.6,0.4-0.8,0.2c-0.3-0.2-0.1-1.2,0.5-1.4c0,0,0.4-1.9,2.4-2c0,0,2.2-0.9,3.2,0.3c0,0,1.1-0.2,1.2,0.4c0,0,1,0.4,1,1.2
				c0,0,0.7,0.6,0.5,1.3c0,0,0.6,1.6,0.3,2.2c0,0,0.5,1.3,0.1,1.9c-0.5,0.7-0.5,0.7-0.5,0.7S285.3,237.8,284.7,238.6z"/>
			
				<linearGradient id="SVGID_48_" gradientUnits="userSpaceOnUse" x1="235.8994" y1="230.52" x2="245.4894" y2="230.52" gradientTransform="matrix(-1 0 0 1 520.9817 0)">
				<stop  offset="0" style="stop-color:#606BF1"/>
				<stop  offset="0.266" style="stop-color:#5B62F1"/>
				<stop  offset="0.6982" style="stop-color:#4C4AF1"/>
				<stop  offset="1" style="stop-color:#4035F1"/>
			</linearGradient>
			<path class="st75" d="M285.1,233.1l-9.6-0.2c0,0,0.1-5,4.9-5S285.1,233.1,285.1,233.1z"/>
			
				<linearGradient id="SVGID_49_" gradientUnits="userSpaceOnUse" x1="242.3178" y1="231.4572" x2="244.6396" y2="235.4786" gradientTransform="matrix(-1 0 0 1 520.9817 0)">
				<stop  offset="0.3124" style="stop-color:#56548C"/>
				<stop  offset="0.9382" style="stop-color:#3B367A"/>
			</linearGradient>
			<path class="st76" d="M275.5,232.9c0,0-1.8,0.9-1.9,1c-0.1,0.1,3.3,0.2,4.6,0.1c1.3-0.2,3.2-1,3.2-1s-1.7-0.4-3.5-0.4
				S275.5,232.9,275.5,232.9z"/>
			<path class="st66" d="M290.7,273.9c-1.2-0.1-0.8-9.3-0.6-11.9c0.2-2.6,0.6-5.3,2-5.2s1.4,2.9,1.1,5.5
				C293.1,264.9,292,274,290.7,273.9z"/>
			<path class="st66" d="M290.9,271.6c1.5,0,1.2,2.6,1,3.5c-0.2,1.4-1.9,2.7-2.4,2.6c-0.6-0.1,0.2-3.3,0.1-3.4
				c-0.1-0.1-0.4,1.6-0.9,1.5c-0.5-0.1-0.1-2.3,0.4-3C289.5,271.9,290,271.6,290.9,271.6z"/>
			<g>
				<path class="st77" d="M281.6,242.1l-1.3,2.1c0,0,1.8-0.5,2.3-0.6c0.5-0.1-0.2-0.7-0.2-0.7L281.6,242.1z"/>
				<polygon class="st68" points="284.6,240.6 281.6,242.1 282.6,244.2 285.1,241.7 				"/>
				
					<linearGradient id="SVGID_50_" gradientUnits="userSpaceOnUse" x1="236.4009" y1="240.7131" x2="236.8994" y2="240.7131" gradientTransform="matrix(-1 0 0 1 520.9817 0)">
					<stop  offset="0" style="stop-color:#606BF1"/>
					<stop  offset="0.266" style="stop-color:#5B62F1"/>
					<stop  offset="0.6982" style="stop-color:#4C4AF1"/>
					<stop  offset="1" style="stop-color:#4035F1"/>
				</linearGradient>
				<polygon class="st78" points="284.6,240.6 284.1,240.6 284.1,240.8 				"/>
				<polygon class="st68" points="279.2,241.9 278.5,243.4 279.6,242.7 				"/>
				<path class="st77" d="M280.3,244.2c0,0-0.3-0.7-0.4-1.2c-0.1-0.5-0.1-1.4-0.1-1.4l-0.6,0.2c0,0,0.1,0.7,0.3,1.1
					C279.7,243.4,280.3,244.2,280.3,244.2z"/>
				<path class="st68" d="M279.3,242.1c0,0.1,0.1,0.3,0.2,0.6c0.1,0.2,0.2,0.5,0.3,0.8c0.1,0.2,0.2,0.4,0.4,0.7
					c0.1-0.2,0.2-0.4,0.4-0.6c0.2-0.2,0.4-0.5,0.5-0.7c0.1-0.2,0.3-0.4,0.4-0.5c0.1-0.1,0.1-0.2,0.1-0.2s0,0.1-0.1,0.2
					c-0.1,0.1-0.2,0.3-0.3,0.5c-0.1,0.2-0.3,0.5-0.4,0.7c-0.2,0.3-0.3,0.5-0.5,0.8l-0.1,0.2l-0.1-0.2l0,0c-0.2-0.3-0.3-0.6-0.5-0.9
					c-0.1-0.3-0.2-0.6-0.3-0.8C279.3,242.5,279.3,242.2,279.3,242.1c-0.1-0.1-0.1-0.2-0.1-0.2S279.2,241.9,279.3,242.1z"/>
				
					<rect x="275.6" y="248.9" transform="matrix(-1 -4.561919e-11 4.561919e-11 -1 552.5916 498.369)" class="st79" width="1.5" height="0.7"/>
			</g>
		</g>
		<g>
			
				<rect x="236.1" y="259.9" transform="matrix(-1 -4.486201e-11 4.486201e-11 -1 500.7222 534.2139)" class="st66" width="28.6" height="14.5"/>
			
				<rect x="227.6" y="294.4" transform="matrix(-1 -4.495261e-11 4.495261e-11 -1 495.3872 609.1462)" class="st66" width="40.2" height="20.3"/>
			
				<rect x="227.6" y="274.2" transform="matrix(-1 -4.486246e-11 4.486246e-11 -1 495.3872 568.7439)" class="st80" width="40.2" height="20.3"/>
			
				<rect x="187.4" y="294.4" transform="matrix(-1 -4.486246e-11 4.486246e-11 -1 415.0247 609.1462)" class="st80" width="40.2" height="20.3"/>
			
				<rect x="248.4" y="259.9" transform="matrix(-1 -4.498991e-11 4.498991e-11 -1 500.7223 534.1093)" class="st81" width="3.9" height="14.4"/>
			
				<rect x="245" y="294.5" transform="matrix(-1 -4.467505e-11 4.467505e-11 -1 495.3872 609.1462)" class="st81" width="5.5" height="20.2"/>
			
				<rect x="245" y="274.3" transform="matrix(-1 -4.500812e-11 4.500812e-11 -1 495.3872 568.7439)" class="st82" width="5.5" height="20.2"/>
			
				<rect x="204.8" y="294.5" transform="matrix(-1 -4.500767e-11 4.500767e-11 -1 415.0247 609.1462)" class="st82" width="5.5" height="20.2"/>
		</g>
		<path class="st83" d="M266,157.8h0.5c0-0.1,0-0.1,0-0.2l0,0c0-1.5,1.2-2.7,2.7-2.7h2.1c0,0,0-0.1,0-0.1c0-1.5,1.3-2.8,2.8-2.8h0.5
			c1.5,0,2.8,1.3,2.8,2.8c0,0,0,0.1,0,0.1h2.6c1.5,0,2.7,1.2,2.7,2.7l0,0c0,0.1,0,0.1,0,0.2h1.3c1.4,0,2.5,1.1,2.5,2.5
			s-1.1,2.5-2.5,2.5h-18c-1.4,0-2.5-1.1-2.5-2.5S264.7,157.8,266,157.8z"/>
		<g>
			<g>
				<rect x="307.6" y="294.4" class="st80" width="40.2" height="20.3"/>
				<rect x="324.9" y="294.5" class="st82" width="5.5" height="20.2"/>
			</g>
			<g>
				<rect x="307.6" y="281.7" class="st66" width="25.1" height="12.7"/>
				<rect x="318.4" y="281.7" class="st81" width="3.4" height="12.6"/>
			</g>
		</g>
		<g>
			<path class="st84" d="M212.1,236.1c-0.4,3.6-0.9,11.8-0.9,11.8l9.4,0l-0.7-12.9l-3.4-1.8L212.1,236.1z"/>
			<path class="st66" d="M222.9,262.6c-1.3,0.2-3.3-7.3-4-10.6s-0.5-6,1.1-6.2c1.6-0.3,2.6,2.2,3.1,5.5
				C223.7,254.6,224.3,262.4,222.9,262.6z"/>
			<path class="st66" d="M233.5,266.5c-0.6,1.1-7-2-8.8-2.9c-1.8-0.9-3.6-2.1-3-3.3c0.6-1.2,2.6-0.4,4.4,0.6
				C227.8,261.9,234,265.5,233.5,266.5z"/>
			<path class="st66" d="M220.3,291.2c1.9,0.1,3.3-10.2,3.5-14.6c0.3-4.4-0.4-7.9-2.6-8c-2.3-0.1-3.2,3.4-3.3,7.8
				C217.9,280.8,218.4,291.2,220.3,291.2z"/>
			<path class="st66" d="M219.4,313.3c1.7,0.1,2.7-14.6,2.8-17.9c0.1-3.3,0-6.7-1.8-6.8c-1.9-0.1-2.2,3.4-2.4,6.7
				C217.9,298.5,217.8,313.2,219.4,313.3z"/>
			<path class="st66" d="M211.6,291.2c1.9,0.2,3.8-10,4.3-14.4c0.5-4.4,0-7.9-2.2-8.2c-2.3-0.2-3.3,3.2-3.7,7.6
				S209.8,291,211.6,291.2z"/>
			<path class="st66" d="M209.9,313.2c1.6,0.2,3.2-14.4,3.5-17.7c0.3-3.3,0.4-6.7-1.5-6.9c-1.8-0.2-2.4,3.3-2.7,6.5
				S208.2,313.1,209.9,313.2z"/>
			<path class="st66" d="M210.7,271.9h13.1c0,0-1.1-5.8-1.2-7.9c0-1.7-0.7-7.2-0.7-7.2s1.6-2.4,1.6-3.6c0-1.9-3.2-7-3.2-7l-4.6-1.4
				l-3.1,0.7c-2,0.4-2,2.2-2,4.2c0,6,2.5,10.1,2.3,13.5C212.6,265.5,210.7,271.9,210.7,271.9z"/>
			<path class="st66" d="M208.4,262.4c1.3,0.3,3.8-7.1,4.6-10.3c0.8-3.2,0.9-5.9-0.7-6.3c-1.6-0.4-2.7,2.1-3.4,5.3
				C208.2,254.4,207.1,262.1,208.4,262.4z"/>
			<g>
				<path class="st66" d="M214.1,240.9v4.7c0,0,0.8,0.5,2.8,0.5c1.1,0,1.3-0.5,1.3-0.5v-1.5L214.1,240.9z"/>
				<g>
					<path class="st85" d="M218.1,237.9c0.4,0.1,0.6,1.5,0.5,1.5c-0.1,0-0.3-1.1-0.7-1.2C217.6,238,218.1,237.9,218.1,237.9z"/>
					<path class="st85" d="M219.8,237.9c-0.3,0.2-0.2,1.3-0.2,1.4c0,0.1,0.2-1.2,0.2-1.2L219.8,237.9z"/>
					<g>
						<path class="st86" d="M217.1,239c0,0.2,0.2,0.3,0.3,0.3c0.2,0,0.3-0.2,0.3-0.3c0-0.2-0.2-0.3-0.3-0.3
							C217.2,238.7,217.1,238.9,217.1,239z"/>
						<path class="st86" d="M216.7,238.8c0.2-0.1,0.4-0.2,0.7-0.2c0.3,0,0.5,0.1,0.7,0.2H216.7z"/>
						<path class="st86" d="M219.9,239c0,0.2,0.2,0.3,0.3,0.3c0.2,0,0.3-0.2,0.3-0.3c0-0.2-0.2-0.3-0.3-0.3
							C220,238.7,219.9,238.9,219.9,239z"/>
						<path class="st86" d="M219.7,238.8c0.1-0.1,0.3-0.2,0.5-0.2c0.2,0,0.4,0.1,0.5,0.2H219.7z"/>
					</g>
					<path class="st87" d="M219.2,240.9c-0.3,0-0.6,0-0.6,0.1c0,0.1,0.3,0.2,0.6,0.2s0.6-0.1,0.6-0.2
						C219.8,240.9,219.6,240.9,219.2,240.9z"/>
					<path class="st85" d="M219.2,242.3c-0.3,0-0.5,0-0.5,0c0,0.1,0.2,0.2,0.5,0.2c0.3,0,0.5-0.2,0.5-0.2
						C219.7,242.3,219.5,242.3,219.2,242.3z"/>
					<g>
						<path class="st85" d="M217.9,241.7C217.9,241.7,217.9,241.7,217.9,241.7c-0.1,0.1-0.1,0.1,0,0.2c0,0,0.6,0.2,1.2,0.2
							c0.6,0,1.2-0.2,1.2-0.2c0,0,0.1-0.1,0.1-0.1c0,0-0.1-0.1-0.1-0.1c0,0-0.6,0.2-1.1,0.2C218.5,241.9,217.9,241.7,217.9,241.7
							C217.9,241.7,217.9,241.7,217.9,241.7z"/>
					</g>
					<g>
						<path class="st88" d="M218.2,238.1c0.1-0.1-0.1-0.2-0.4-0.2c-0.3,0-1,0-1.4,0.3c0,0,0,0,0.2,0
							C216.8,238.1,218,238.1,218.2,238.1z"/>
						<path class="st88" d="M219.8,238.1c-0.1-0.1,0-0.2,0.2-0.2c0.2,0,0.7,0,1,0.3c0,0,0,0-0.1,0
							C220.7,238.1,219.8,238.1,219.8,238.1z"/>
					</g>
				</g>
				<path class="st66" d="M214,238.4c0,0.1,0,0.3,0,0.4c0,0,0,0.1,0,0.1c-0.1,2.4,0.2,4.2,2.8,5.2c0.5,0.1,2.2,0.4,2.9-0.3
					c0.8-0.8,1.4-3,1.4-3.8v0c0-0.7-0.1-0.9-0.1-1.4c0-0.3,0.2-1.4,0.2-1.8c0-0.7-0.3-1.6-0.6-2.3c-0.6-1.2-1.7-1.9-3.3-1.9
					C213.5,232.7,213.9,235.9,214,238.4z"/>
				<path class="st84" d="M216.4,234.8c1.6,1.4,4.4,1.3,4.7,3l-0.1,0.7c0,0,0.4-0.9,0.5-1.2c0.2-0.7-0.2-2.2-1.1-3.2
					c-1.6-2-4.9-2.4-6.2-0.6c0,0-1.9-0.4-2.2,2.5c-0.2,2,2.1,9,2.1,9s0.5-0.5,0.7-1.2c0.7-2.8,1.3-7.7,1.7-9.7"/>
				<path class="st89" d="M215.4,236.5C215.4,236.5,215.4,236.5,215.4,236.5"/>
				<path class="st85" d="M217.8,244.3c-0.8-0.1-2.1-0.6-2.7-1.3c0,0,0.1,0.7,0.8,1.1C216.5,244.4,217.8,244.3,217.8,244.3z"/>
			</g>
			<path class="st66" d="M218.3,312.6l-0.1,1.7c0,0.2,0.2,0.4,0.4,0.4h4.6c0.4,0,1-0.8,0.6-1c-0.8-0.5-2.1-1.1-2.9-1.5
				c-0.1,0-0.7-13.9-1.4-14C218.9,298.3,218.3,312.6,218.3,312.6z"/>
			<path class="st66" d="M208.8,312.5c0,0,0,0.1,0,0.2v1.4c0,0.1,0.8,0.8,1.1,0.9c1.2,0.5,2.9,0.2,3-0.2c0.1-0.4-1.1-1.8-1.1-1.8
				c-0.3-0.4-0.5-0.8-0.5-0.8s-0.6-13.9-1.3-13.9C209.4,298.3,208.8,312.5,208.8,312.5z"/>
			
				<linearGradient id="SVGID_51_" gradientUnits="userSpaceOnUse" x1="298.8176" y1="312.5871" x2="300.7172" y2="315.8773" gradientTransform="matrix(-1 0 0 1 520.9817 0)">
				<stop  offset="0.3124" style="stop-color:#56548C"/>
				<stop  offset="0.9382" style="stop-color:#3B367A"/>
			</linearGradient>
			<path class="st90" d="M224,314.7h-5.6c-0.1,0-0.1-0.1-0.1-0.1v-0.9c1.1,0,3.7,0,3.9,0c0.2,0,0.7-0.6,0.8-0.8
				c0.4,0.2,1.1,0.6,1.4,0.9C224.6,314.1,224.4,314.7,224,314.7z"/>
			
				<linearGradient id="SVGID_52_" gradientUnits="userSpaceOnUse" x1="309.4348" y1="312.9984" x2="310.7152" y2="315.216" gradientTransform="matrix(-1 0 0 1 520.9817 0)">
				<stop  offset="0.3124" style="stop-color:#56548C"/>
				<stop  offset="0.9382" style="stop-color:#3B367A"/>
			</linearGradient>
			<path class="st91" d="M209.9,315c-0.3-0.1-1.1-0.8-1.1-0.9v-0.7l1.1,0.7c0.8-0.8,2.2-1.1,2.6-0.3l0,0c0.3,0.4,0.5,0.9,0.5,1.1
				C212.9,315.2,211.1,315.5,209.9,315z"/>
			
				<linearGradient id="SVGID_53_" gradientUnits="userSpaceOnUse" x1="296.9044" y1="291.9446" x2="312.6835" y2="291.9446" gradientTransform="matrix(-1 0 0 1 520.9817 0)">
				<stop  offset="0" style="stop-color:#606BF1"/>
				<stop  offset="0.266" style="stop-color:#5B62F1"/>
				<stop  offset="0.6982" style="stop-color:#4C4AF1"/>
				<stop  offset="1" style="stop-color:#4035F1"/>
			</linearGradient>
			<path class="st92" d="M210.2,272.8c0,0-1,9.7-1,16.2c0,0-0.7,4.3-0.9,8.9c-0.2,4.6,0.5,13.3,0.5,13.3h2.8l4.8-36.2h1.3v36.2h3.3
				c0,0,1.9-14.6,3.1-38.4H210.2z"/>
			
				<linearGradient id="SVGID_54_" gradientUnits="userSpaceOnUse" x1="296.6538" y1="247.8109" x2="311.2868" y2="273.1559" gradientTransform="matrix(-1 0 0 1 520.9817 0)">
				<stop  offset="0" style="stop-color:#FF697D"/>
				<stop  offset="1" style="stop-color:#DE2276"/>
			</linearGradient>
			<path class="st93" d="M224.3,273.1l-2.2-16.4c0.7-0.9,1.4-3,1.4-3.9c0-0.5-0.6-2.1-1.3-3.6c-0.2-0.5,0.4-0.8,0.4-0.8
				s-0.3-1.4-1.1-2.2c-0.6-0.6-3.3-0.6-3.3-0.6c1.5,0.4,1.9,2.6,1.7,2.7c-0.2,0.2-3.2,0.1-3.7,0c-0.5-0.1-1.5-2.8-3-3
				c0,0-1-0.1-2,0.5c-1.1,0.7-1.5,2.5-1.5,2.5s3.9-0.1,3.7,2.2c0,0.1,0,0.1,0,0.2c-0.3,2.4-2,6.5-2,6.5s0.7,2.5,0.7,5.3
				c0,2.8-2.4,10.5-2.4,10.5H224.3z"/>
			<path class="st66" d="M211,276.4c1.2-0.2,0.1-8.9-0.3-11.3c-0.4-2.4-1-5-2.3-4.8c-1.3,0.2-1.1,2.8-0.7,5.3
				C208.1,268,209.8,276.6,211,276.4z"/>
			<path class="st66" d="M210.7,274.1c-1.4,0.1-0.9,2.6-0.7,3.4c0.3,1.3,1.7,2.7,2.2,2.6c0.5-0.1-0.4-3.1-0.3-3.3
				c0.1-0.1,0.7,1.3,1.2,1.1c0.5-0.2-0.1-2.2-0.6-2.9C212,274.4,211.5,274.1,210.7,274.1z"/>
			<g>
				<path class="st66" d="M232,266.1c-0.3,1.4,2,1.6,2.9,1.8c1.1,0.2,2.5-1.1,2.6-1.7c0.1-0.5-3-0.6-3.1-0.7
					c-0.1-0.1,1.4,0.1,1.4-0.4c0-0.5-1.4-0.7-2.3-0.4C232.6,265,232.2,265.3,232,266.1z"/>
			</g>
		</g>
		<g>
			<g>
				<path class="st94" d="M293,195.5h0.8v-68.6c0-2.4-2-4.4-4.4-4.4h-69.3v0.8h69.3c2,0,3.6,1.6,3.6,3.6V195.5z"/>
			</g>
			<g>
				<circle class="st94" cx="220.3" cy="122.9" r="1.2"/>
			</g>
			<g>
				<circle class="st94" cx="293.4" cy="195.4" r="1.2"/>
			</g>
		</g>
		<g>
			<g>
				<path class="st94" d="M144.4,241.9h52.2v-0.8h-52.2c-2,0-3.6-1.6-3.6-3.6v-52.9c0-2,1.6-3.6,3.6-3.6h9.7v-0.8h-9.7
					c-2.4,0-4.4,2-4.4,4.4v52.9C140,239.9,142,241.9,144.4,241.9z"/>
			</g>
			<g>
				<circle class="st94" cx="154.1" cy="180.7" r="1.2"/>
			</g>
			<g>
				<path class="st94" d="M196.5,240.3c0.7,0,1.2,0.5,1.2,1.2c0,0.7-0.5,1.2-1.2,1.2c-0.7,0-1.2-0.5-1.2-1.2
					C195.3,240.8,195.8,240.3,196.5,240.3z"/>
			</g>
		</g>
		<circle class="st35" cx="126.1" cy="170.3" r="13.8"/>
		<circle class="st35" cx="126.1" cy="252.3" r="13.8"/>
		<g>
			<g>
				<polygon class="st7" points="117.6,246.9 134.5,246.9 126.1,251.9 				"/>
			</g>
			<g>
				<polygon class="st7" points="126.1,252.7 134.8,247.5 134.8,257.6 117.3,257.6 117.3,247.5 				"/>
			</g>
		</g>
		<path class="st7" d="M120.5,174.9l-1.4,2.8l3.1-2.1c1.2,0.4,2.5,0.6,3.9,0.6c5.2,0,9.5-3,9.5-6.7c0-3.7-4.2-6.7-9.5-6.7
			c-5.2,0-9.5,3-9.5,6.7C116.6,171.7,118.1,173.7,120.5,174.9z M129,169.3c0-0.7,0.5-1.2,1.2-1.2c0.7,0,1.2,0.5,1.2,1.2
			c0,0.7-0.5,1.2-1.2,1.2C129.6,170.5,129,170,129,169.3z M124.9,169.3c0-0.7,0.5-1.2,1.2-1.2c0.7,0,1.2,0.5,1.2,1.2
			c0,0.7-0.5,1.2-1.2,1.2C125.4,170.5,124.9,170,124.9,169.3z M120.7,169.3c0-0.7,0.5-1.2,1.2-1.2c0.7,0,1.2,0.5,1.2,1.2
			c0,0.7-0.5,1.2-1.2,1.2C121.2,170.5,120.7,170,120.7,169.3z"/>
		<g>
			<rect x="222.9" y="131.1" class="st39" width="10.1" height="1.6"/>
			<rect x="222.9" y="135.8" class="st39" width="10.1" height="1.6"/>
			<rect x="222.9" y="126.4" class="st39" width="10.1" height="1.6"/>
		</g>
		<g>
			<g>
				<rect x="293.4" y="140.7" class="st94" width="17.3" height="0.8"/>
			</g>
			<g>
				<path class="st94" d="M310.7,139.9c0.7,0,1.2,0.5,1.2,1.2c0,0.7-0.5,1.2-1.2,1.2c-0.7,0-1.2-0.5-1.2-1.2
					C309.5,140.4,310,139.9,310.7,139.9z"/>
			</g>
		</g>
		
			<ellipse transform="matrix(0.9735 -0.2287 0.2287 0.9735 -23.692 77.7259)" class="st35" cx="323.5" cy="141.1" rx="8.4" ry="8.4"/>
		<g>
			<g>
				<path class="st7" d="M320.7,137.9c0,1.6,1.3,2.8,2.8,2.8c1.6,0,2.8-1.3,2.8-2.8c0-1.6-1.3-2.8-2.8-2.8
					C321.9,135.1,320.7,136.3,320.7,137.9z"/>
			</g>
			<g>
				<g>
					<path class="st7" d="M321.9,140.7c0.5,0.3,1,0.4,1.6,0.4s1.1-0.1,1.6-0.4c1.6,0.6,2.7,2.2,2.7,4v2.4h-8.6v-2.4
						C319.2,142.9,320.3,141.3,321.9,140.7z"/>
				</g>
			</g>
		</g>
		<g>
			<path class="st39" d="M145,124.6h7v7h-7V124.6z M150.8,125.8h-4.6v4.6h4.6V125.8z"/>
		</g>
		<g>
			<path class="st39" d="M288,165.8c0,0.3-0.1,0.5-0.3,0.7c-0.2,0.2-0.4,0.3-0.7,0.3c-0.3,0-0.5-0.1-0.7-0.3
				c-0.2-0.2-0.3-0.4-0.3-0.7c0-0.3,0.1-0.5,0.3-0.7c0.2-0.2,0.4-0.3,0.7-0.3c0.3,0,0.5,0.1,0.7,0.3
				C287.9,165.2,288,165.5,288,165.8"/>
			<path class="st39" d="M287,178.6c-0.5,0-1,0.4-1,1v0c0,0.5,0.4,1,1,1c0.5,0,1-0.4,1-1v0C288,179,287.6,178.6,287,178.6z
				 M287,171.7c-0.5,0-1,0.4-1,1v0c0,0.5,0.4,1,1,1c0.5,0,1-0.4,1-1v0C288,172.1,287.6,171.7,287,171.7z"/>
			<path class="st39" d="M288,186.4c0,0.3-0.1,0.5-0.3,0.7c-0.2,0.2-0.4,0.3-0.7,0.3c-0.3,0-0.5-0.1-0.7-0.3
				c-0.2-0.2-0.3-0.4-0.3-0.7c0-0.3,0.1-0.5,0.3-0.7c0.2-0.2,0.4-0.3,0.7-0.3c0.3,0,0.5,0.1,0.7,0.3
				C287.9,185.9,288,186.2,288,186.4"/>
		</g>
		<path class="st35" d="M238,141.1c0-6.5,5.3-11.7,11.7-11.7c6.5,0,11.7,5.3,11.7,11.7s-5.3,11.7-11.7,11.7
			C243.2,152.8,238,147.5,238,141.1z M240.1,141.1c0,5.3,4.3,9.6,9.6,9.6c5.3,0,9.6-4.3,9.6-9.6c0-5.3-4.3-9.6-9.6-9.6
			C244.4,131.5,240.1,135.8,240.1,141.1z"/>
		<path class="st39" d="M252.7,146.2c0.3,0,0.5-0.1,0.7-0.3c0.4-0.4,0.4-1.1,0-1.5l-3.3-3.4v-7.3c0-0.6-0.5-1-1-1s-1,0.5-1,1v7.8
			c0,0.3,0.1,0.5,0.3,0.7l3.5,3.7C252.2,146.1,252.5,146.2,252.7,146.2z"/>
	</g>
	<text transform="matrix(1 0 0 1 354.2754 273.3057)" class="st7 st95 st96">DELIVERY</text>
	<path class="st97" d="M455.8,200.8c-13.4,0-22.2,14-16.4,26l1.9,4l14.4,30l14.4-30l1.9-4c1.2-2.6,1.8-5.3,1.8-7.9
		C474,209.4,466.3,200.8,455.8,200.8z M455.8,226c-4.1,0-7.5-3.3-7.5-7.5s3.3-7.5,7.5-7.5c4.1,0,7.5,3.3,7.5,7.5
		S459.9,226,455.8,226z"/>
</g>
</svg>
