<svg xmlns="http://www.w3.org/2000/svg" xmlns:xlink="http://www.w3.org/1999/xlink" viewBox="0 0 524 416" xmlns:v="https://vecta.io/nano"><defs><path id="A" d="M.5-.4H524V416H.5z"/><path id="B" d="M352.257 126.842h-153.7v-7.7h153.7z"/><path id="C" d="M197.8 176.7h32.7v3.1h-32.7z"/></defs><clipPath id="D"><use xlink:href="#A"/></clipPath><g clip-path="url(#D)"><circle cx="186.5" cy="98.8" r="44" opacity=".18" fill="#2fc1cc"/><circle cx="108.3" cy="119.8" r="15.3" opacity=".18" fill="#082c4c"/><circle cx="429.8" cy="298.8" r="26.8" opacity=".18" fill="#2fc1cc"/><g opacity=".4" fill-rule="evenodd" fill="#082c4c"><path d="M429.1 272.7h-1.6v.7h1.6zm-1.564-.566l.004-.7 1.6.008-.004.7zm1.564-1.934h-1.5l-.1.7h1.6zm-.2 9.1l-1.6-.1v.6l1.6.1zm.1-1.1h-1.6v.6h1.6zm0-1l-1.6-.1v.6l1.6.1zm-.5 8.5l-1.6-.1v.6l1.6.1zm.1-1.1l-1.6-.1v.6l1.6.1zm.1-1l-1.6-.1-.1.5 1.6.2zm-.8 8.5l-1.6-.2-.1.6 1.6.2zm.1-1.1l-1.6-.2-.1.6 1.6.2zm.1-1l-1.6-.2v.6l1.5.2zm-1.1 8.4l-1.6-.2-.1.6 1.6.2zm.2-1l-1.6-.3-.1.6 1.6.3zm.1-1.1l-1.6-.2-.1.6 1.6.2zm-1.4 8.4l-1.6-.3-.1.6 1.6.3zm.2-1l-1.6-.3-.1.6 1.6.3zm.2-1.1l-1.6-.2-.1.5 1.6.3zm-1.7 8.4l-1.6-.3-.1.5 1.6.4zm.2-1l-1.5-.4-.2.6 1.6.4zm.3-1.1l-1.6-.3-.1.6 1.5.3zm-2.1 8.3l-1.5-.4-.2.6 1.6.4zm.3-1l-1.5-.4-.2.6 1.6.4zm.3-1l-1.6-.4-.1.6 1.5.4zm-314.1 6.6l-1.5.4-.2-.6 1.6-.4zm.4 1l-1.6.4-.1-.5 1.5-.5zm.3 1l-1.6.4-.1-.5 1.5-.5zm-3.9-7.8l1.5-.4-.1-.5-1.6.4zm.3 1.1l1.5-.4-.1-.6-1.6.4zm.2 1l1.6-.4-.2-.6-1.5.4zm-2-8.3l1.6-.3-.2-.6-1.5.3zm.2 1.1l1.6-.4-.1-.6-1.6.4zm.3 1l1.5-.4-.1-.6-1.6.4zm-1.8-8.4l1.6-.3-.1-.5-1.6.2zm.2 1.1l1.6-.3-.1-.6-1.6.3zm.2 1l1.6-.3-.1-.6-1.6.3zm-1.4-8.4l1.5-.2v-.6l-1.6.2zm.1 1.1l1.6-.3-.1-.6-1.6.3zm.2 1l1.6-.2-.1-.6-1.6.2zm-1.2-8.4l1.6-.2v-.6l-1.6.2zm.2 1l1.5-.2v-.6l-1.6.2zm.1 1.1l1.6-.2-.1-.6-1.6.2zm-.9-8.5l1.6-.1v-.6l-1.6.1zm.1 1l1.6-.1v-.6l-1.6.1zm.1 1.1l1.6-.1v-.6l-1.6.1zm-.5-8.5l1.6-.1-.1-.6-1.6.1zm0 1h1.6v-.6h-1.6zm.1 1.1l1.6-.1-.1-.6-1.6.1zm-.3-8.5h1.6v-.6h-1.6zm0 1h1.6v-.6h-1.6zm0 1.1h1.6v-.6h-1.6zm.1-8.5h1.6v-.6h-1.6zm0 1l1.6.1v-.6l-1.6-.1zm-.1 1.1h1.6v-.6h-1.6zm.4-8.5l1.6.1v-.6l-1.6-.1zm-.1 1l1.6.1v-.6l-1.6-.1zm-.1 1.1l1.6.1.1-.6-1.6-.1zm.7-8.5l1.6.1v-.6l-1.5-.1zm-.1 1l1.6.2v-.6l-1.5-.2zm-.1 1.1l1.6.1v-.6l-1.5-.1zm.9-8.5l1.6.2.1-.6-1.6-.2zm-.1 1.1l1.6.2.1-.6-1.6-.2zm-.1 1l1.6.2v-.6l-1.6-.2zm1.2-8.4l1.6.2.1-.5-1.6-.3zm-.2 1l1.6.3.1-.6-1.6-.3zm-.1 1.1l1.5.2.1-.6-1.5-.2zm1.5-8.4l1.6.3.1-.6-1.6-.3zm-.2 1l1.6.3.1-.5-1.6-.4zm-.2 1.1l1.6.3.1-.6-1.6-.3zm1.8-8.4l1.6.4.1-.6-1.5-.4zm-.2 1.1l1.5.3.2-.5-1.6-.4zm-.3 1l1.6.4.1-.6-1.5-.4zm2.2-8.3l1.5.5.2-.6-1.6-.4zm-.3 1.1l1.5.4.2-.6-1.5-.4zm-.3 1l1.5.4.2-.6-1.5-.4zm2.4-8.2l1.6.5.1-.6-1.5-.5zm-.3 1l1.5.5.2-.6-1.5-.5zm-.3 1l1.5.5.2-.6-1.5-.4zm2.7-8.1l1.5.6.2-.6-1.5-.5zm-.3 1l1.5.6.2-.6-1.5-.5zm-.4 1l1.5.6.2-.6-1.5-.5zm3.1-7.9l1.4.6.2-.6-1.4-.6zm-.4.9l1.4.6.3-.5-1.5-.6zm-.4 1l1.4.6.3-.5-1.5-.6zm3.3-7.8l1.4.6.3-.5-1.5-.7zm-.5.9l1.5.7.2-.6-1.4-.6zm-.4 1l1.5.6.2-.5-1.4-.6zm3.6-7.7l1.4.7.3-.6-1.4-.7zm-.5.9l1.5.7.2-.5-1.4-.7zm-.4 1l1.4.7.3-.6-1.5-.7zm3.9-7.6l1.4.7.2-.5-1.4-.7zm-.5.9l1.4.8.2-.5-1.4-.8zm-.5 1l1.4.7.3-.5-1.5-.8zm4.1-7.5l1.4.8.3-.5-1.4-.8zm-.5.9l1.4.8.3-.5-1.4-.8zm-.6.9l1.4.8.3-.5-1.4-.8zm4.5-7.3l1.3.9.3-.5-1.3-.9zm-.6.9l1.4.9.3-.5-1.4-.9zm-.6.9l1.4.9.3-.5-1.3-.9zm4.7-7.1l1.4.9.3-.5-1.3-.9zm-.6.9l1.4.9.3-.5-1.3-.9zm-.6.9l1.4.9.3-.5-1.3-.9zm5-7l1.3 1 .3-.5-1.2-1zm-.6.9l1.2.9.4-.5-1.3-.9zm-.7.8l1.3 1 .4-.5-1.3-1zm5.2-6.7l1.3 1 .3-.5-1.2-1zm-.6.8l1.2 1 .4-.5-1.3-1zm-.7.8l1.3 1 .3-.4-1.2-1zm5.5-6.5l1.2 1 .4-.4-1.2-1.1zm-.7.8l1.2 1 .4-.4-1.2-1.1zm-.7.8l1.2 1 .4-.4-1.2-1.1zm5.7-6.4l1.1 1.1.4-.4-1.1-1.1zm-.7.8l1.1 1.1.4-.4-1.1-1.1zm-.8.8l1.2 1.1.4-.5-1.2-1.1zm6-6.2l1.1 1.2.4-.4-1.1-1.2zm-.8.8l1.1 1.1.5-.4-1.2-1.1zm-.7.7l1.1 1.2.4-.4-1.1-1.2zm6.1-5.9l1.1 1.2.4-.4-1-1.2zm-.8.8l1.1 1.1.5-.4-1.1-1.1zm-.7.7l1.1 1.1.4-.4-1.1-1.1zm6.4-5.7l1 1.2.4-.3-1-1.3zm-.9.7l1.1 1.2.4-.4-1-1.2zm-.8.7l1.1 1.2.4-.4-1-1.2zm6.6-5.4l1 1.2.5-.3-1-1.3zm-.8.6l1 1.3.4-.4-.9-1.2zm-.8.7l1 1.2.4-.3-1-1.3zm6.8-5.2l.9 1.3.5-.3-.9-1.3zm-.9.7l.9 1.3.5-.4-.9-1.3z"/><path d="M170.4 129.4l1 1.3.5-.4-1-1.3zm7.1-4.9l.8 1.3.5-.3-.9-1.3zm-.9.6l.9 1.3.4-.3-.8-1.3zm-.9.6l.9 1.3.5-.3-.9-1.3zm7.2-4.6l.8 1.4.5-.4-.8-1.3zm-.9.5l.8 1.4.5-.3-.8-1.4zm-.9.6l.8 1.4.5-.4-.8-1.3zm7.3-4.3l.8 1.4.5-.3-.8-1.4zm-.9.5l.8 1.4.5-.3-.8-1.4zm-.9.5l.7 1.4.6-.3-.8-1.4zm7.5-4l.7 1.4.5-.2-.7-1.5zm-1 .5l.8 1.4.5-.3-.7-1.4zm-.9.5l.7 1.4.5-.3-.7-1.4zm7.7-3.8l.6 1.5.6-.3-.7-1.4zm-1 .5l.7 1.4.5-.2-.7-1.5zm-1 .4l.7 1.5.6-.3-.7-1.4zm7.9-3.4l.6 1.5.5-.2-.6-1.5zm-1 .4l.6 1.5.5-.2-.6-1.5zm-1 .4l.6 1.5.6-.2-.7-1.5zm8-3.1l.5 1.5.6-.2-.6-1.5zm-1 .4l.5 1.5.6-.2-.6-1.5zm-1 .4l.5 1.5.6-.2-.6-1.5zm8-2.8l.5 1.5.6-.2-.5-1.5zm-1 .3l.5 1.5.6-.1-.5-1.6zm-1 .3l.5 1.6.6-.2-.5-1.5zm8.2-2.4l.4 1.6.6-.2-.4-1.5zm-1 .3l.4 1.5.6-.1-.5-1.6zm-1.1.3l.5 1.5.5-.1-.4-1.6zm8.3-2.1l.4 1.5.5-.1-.3-1.6zm-1 .2l.3 1.6.6-.2-.3-1.5zm-1.1.3l.4 1.5.6-.1-.4-1.6zm8.4-1.8l.3 1.6.6-.1-.3-1.6zm-1 .2l.2 1.6.6-.1-.3-1.6zm-1.1.2l.3 1.6.6-.1-.3-1.6zm8.4-1.4l.3 1.6.5-.1-.2-1.6zm-1 .1l.2 1.6.6-.1-.2-1.6zm-1.1.2l.3 1.6.5-.1-.2-1.6zm8.5-1.1l.2 1.6.5-.1-.1-1.5zm-1.1.1l.2 1.6h.6l-.2-1.6zm-1 .1l.2 1.6h.5l-.1-1.6zm8.5-.7l.1 1.6h.6l-.1-1.6zm-1.1.1l.1 1.6.6-.1-.1-1.6zm-1 .1l.1 1.5h.6l-.1-1.6zm8.5-.4v1.6h.6v-1.6zm-1.1 0l.1 1.6h.6l-.1-1.6zm-1 0v1.6h.6v-1.6zm8.5 0v1.6h.6v-1.6zm-1.1 0v1.6h.6v-1.6zm-1 0v1.6h.5l.1-1.6zm8.5.3l-.1 1.6h.6l.1-1.6zm-1.1-.1v1.6h.5l.1-1.6zm-1-.1l-.1 1.6.6.1.1-1.6zm8.5.7l-.2 1.6h.6l.2-1.5zm-1.1-.1l-.1 1.6h.6l.1-1.6zm-1-.1l-.2 1.6h.6l.2-1.6zm8.5 1l-.3 1.6.6.1.3-1.6zm-1.1-.2l-.2 1.6.6.1.2-1.6zm-1-.1l-.3 1.6.6.1.2-1.6zm8.4 1.3l-.3 1.6.6.1.3-1.6zm-1.1-.2l-.2 1.6.5.1.3-1.5zm-1-.1l-.3 1.5.6.1.3-1.5zm8.4 1.6l-.4 1.6.6.1.3-1.5zm-1.1-.2l-.3 1.6.6.1.3-1.6zm-1-.2l-.3 1.5.5.2.4-1.6zm8.3 2l-.4 1.6.5.1.5-1.5zm-1-.3l-.5 1.6.6.1.4-1.5zm-1.1-.2l-.4 1.5.6.2.4-1.6zm8.2 2.3l-.5 1.6.6.1.5-1.5zm-1-.3l-.5 1.5.6.2.5-1.5zm-1-.3l-.5 1.5.6.2.5-1.5zm8.1 2.7l-.5 1.5.5.2.6-1.5zm-1-.4l-.5 1.5.5.2.6-1.5zm-1-.3l-.5 1.5.5.2.6-1.5zm8 3l-.6 1.5.5.2.6-1.5zm-1-.4l-.6 1.5.5.2.6-1.5zm-1-.4l-.6 1.5.6.2.6-1.5zm7.9 3.4l-.7 1.4.5.2.7-1.4zm-1-.5l-.7 1.5.6.2.6-1.4zm-1-.4l-.6 1.4.5.3.7-1.5zm7.7 3.6l-.7 1.5.5.2.8-1.4zm-.9-.4l-.7 1.4.5.2.7-1.4zm-1-.5l-.7 1.4.5.3.8-1.5zm7.6 3.9l-.8 1.4.5.3.8-1.4zm-.9-.5l-.8 1.4.5.3.8-1.4zm-1-.5l-.7 1.4.5.3.7-1.4zm7.4 4.3l-.8 1.3.5.3.8-1.3zm-.9-.6l-.8 1.4.5.3.8-1.4zm-.9-.5l-.8 1.3.5.4.8-1.4zm7.2 4.5l-.9 1.3.5.4.9-1.4zm-.9-.6l-.9 1.4.5.3.9-1.3zm-.9-.6l-.8 1.4.5.3.8-1.3zm7.1 4.9l-1 1.3.5.3 1-1.3zm-.9-.6l-.9 1.3.5.3.9-1.3zm-.9-.7l-.9 1.3.5.4.9-1.3zm6.9 5.1l-1 1.3.5.3 1-1.2zm-.9-.6l-.9 1.2.4.4 1-1.3zm-.8-.7l-1 1.3.5.4 1-1.3zm6.6 5.4l-1 1.2.5.4 1-1.2zm-.8-.7l-1 1.2.5.4 1-1.2zm-.8-.7l-1 1.2.4.4 1.1-1.2zm6.4 5.6l-1 1.2.4.4 1.1-1.2zm-.7-.7l-1.1 1.2.4.4 1.1-1.2zm-.8-.7l-1.1 1.2.4.4 1.1-1.2zm6.2 5.8l-1.1 1.2.4.4 1.1-1.1zm-.8-.7l-1.1 1.1.4.4 1.1-1.1zm-.7-.8l-1.2 1.2.5.4 1.1-1.1zm5.9 6.1l-1.1 1.1.4.4 1.2-1zm-.7-.8l-1.1 1.1.4.5 1.1-1.1zm-.7-.7l-1.2 1.1.4.4 1.2-1.1zm5.7 6.3l-1.2 1 .4.5 1.2-1.1zm-.7-.8l-1.2 1 .4.5 1.2-1.1zm-.7-.8l-1.2 1 .4.5 1.2-1.1zm5.5 6.5l-1.2 1 .4.4 1.2-1zm-.6-.8l-1.3 1 .4.4 1.2-1zm-.7-.9l-1.2 1.1.3.4 1.3-1zm5.3 6.7l-1.3 1 .3.5 1.3-1zm-.7-.8l-1.3 1 .4.4 1.3-.9zm-.6-.9l-1.3 1 .4.5 1.2-1zm5 7l-1.3.9.3.4 1.3-.9zm-.6-.9l-1.3.9.3.5 1.3-.9zm-.6-.9l-1.3.9.3.5 1.3-.9zm4.7 7.1l-1.3.8.3.5 1.3-.8zm-.6-.9l-1.3.9.3.5 1.4-.9zm-.5-.9l-1.4.9.4.5 1.3-.9zm4.5 7.3l-1.4.8.3.5 1.4-.8zm-.6-1l-1.4.9.3.5 1.4-.8zm-.5-.9l-1.4.8.3.6 1.4-.9zm4.2 7.4l-1.4.8.3.5 1.4-.7zm-.5-.9l-1.4.8.3.5 1.4-.8zm-.5-.9l-1.4.7.3.6 1.4-.8zm3.9 7.5l-1.4.7.2.6 1.5-.7zm-.5-.9l-1.4.7.3.5 1.4-.7zm-.4-1l-1.5.8.3.5 1.4-.7zm3.6 7.7l-1.4.7.2.5 1.5-.6zm-.4-.9l-1.5.6.3.6 1.4-.7zm-.4-1l-1.5.7.2.5 1.5-.7zm3.3 7.8l-1.4.6.2.6 1.5-.6zm-.4-1l-1.4.7.2.5 1.5-.6zm-.4-.9l-1.4.6.2.5 1.5-.6zm3.1 7.9l-1.5.6.2.5 1.5-.5zm-.3-1l-1.5.6.2.5 1.5-.5zm-.4-1l-1.5.6.2.5 1.5-.5zm2.8 8.1l-1.5.5.1.5 1.6-.5zm-.3-1l-1.6.5.2.5 1.5-.5zm-.4-1l-1.5.5.2.5 1.5-.5zm2.5 8.1l-1.5.4.2.6 1.5-.4zm-.3-1l-1.5.4.2.6 1.5-.4zm-.3-1l-1.5.4.2.6 1.5-.5zm2.3 8.2l-1.6.4.1.6 1.6-.4zm-.3-1l-1.5.4.1.5 1.5-.4zm-.3-1.1l-1.5.4.1.6 1.6-.4zm2 8.4l-1.6.3.1.6 1.6-.4zm-.3-1.1l-1.5.3.1.6 1.6-.3zm-.2-1l-1.5.3.1.6 1.5-.3zm1.6 8.4l-1.5.2.1.6 1.5-.3zm-.1-1.1l-1.6.3.1.6 1.6-.3zm-.2-1l-1.6.2.1.6 1.6-.3zm1.3 8.4l-1.6.2.1.6 1.6-.2zm-.2-1.1l-1.5.3v.5l1.6-.2zm-.1-1l-1.6.2.1.6 1.6-.2zm1 8.5l-1.6.1.1.6 1.6-.1zm-.1-1.1l-1.6.2.1.5 1.6-.1zm-.1-1.1l-1.6.2.1.6 1.6-.2zm.7 8.6h-1.6l.1.6 1.5-.1zm-.1-1.1l-1.6.1.1.6 1.6-.1zm0-1.1l-1.6.1v.6l1.6-.1zm.4 8.6h-1.6v.6l1.6-.1zm0-1.1h-1.6v.6h1.6zm-.1-1.1l-1.6.1v.6l1.6-.1z"/></g><path d="M265.3 111.7c-83.3 0-150.9 70.7-150.9 157.8 0 26.8 6.4 52 17.6 74.1h266.4c11.3-22.1 17.6-47.3 17.6-74.1.1-87.1-67.4-157.8-150.7-157.8z" fill="#d6a816"/><g fill="#deddf9"><path d="M400.2 241.9c1.7 2 4.2 3 6.7 3.1s4.9-.7 6.9-2.1c-2.1 1.1-4.5 1.7-6.8 1.4-2.3-.2-4.5-1.3-5.8-3.1-.3-.4-.5-.8-.7-1.2 1.8-.4 3.6-1.4 4.8-2.9.8-1 1.4-2.3 1.4-3.7 0-.7-.2-1.5-.6-2.1-.4-.7-1.2-1.1-1.9-1.3s-1.5-.1-2.2.1-1.3.7-1.8 1.1c-1 1-1.6 2.2-1.9 3.5-.3 1.5-.2 3 .3 4.4h-.2c-2.3.1-4.6-.5-6.7-1.4-2.2-.9-4.2-2.1-6.1-3.6 1.7 1.7 3.7 3.1 5.8 4.3 2.2 1.1 4.6 1.9 7.1 1.9h.7c.2.5.5 1.1 1 1.6zm-.5-7c.2-1 .7-2 1.5-2.7.7-.7 1.7-1.1 2.6-.9s1.4.9 1.4 2c0 1-.4 2-1 2.9s-1.5 1.6-2.5 2c-.5.3-1.1.5-1.7.6-.5-1.2-.7-2.6-.3-3.9zm-206.5 31.5l-69.5.9 22.2 10.5-7.5 17.1 13.5-6.3-3.4-5 16.3 24zm-62.5 33.8c-1.9 1.3-3.9 2.6-6 3.6-2 .9-4.1 1.6-6.3 1.9l.3 1.1c2.3-.4 4.4-1.2 6.4-2.2l3.1-1.8 2.9-2.1 5.3-4.7-5.7 4.2zm206.1 27V202.8l2.4-.9v-27.8l-2.4-.9v-5.3l2.4-.9v-14.7l-2.4-.9v-3l2.4-.9v-14.7l-2.4-.9v-1.5c-21.3-12-45.6-18.8-71.5-18.8a144.48 144.48 0 0 0-64.8 15.3v39.5H181c-2.4-5.9-8.2-10.1-15-10.1-2.8 0-5.4.7-7.7 2-2.6 2.7-5 5.5-7.4 8.4a16.29 16.29 0 0 0-1.1 5.9c0 7.4 5 13.6 11.8 15.6v37c0 7.4 6 13.4 13.4 13.4h25.6v88.6c0 6.5 3.4 12.6 8.7 16.4H328c5.3-3.6 8.8-9.6 8.8-16.4zm9.4-113.6l19.6 28.5 8.9-13.2 9.4 4.4-5.2-11.8 15.3-7.3z"/></g><path d="M411.3 343.7H119.2" fill="none" stroke="#4675c1" stroke-width="2.072" stroke-linecap="round" stroke-linejoin="round" stroke-miterlimit="10"/><path d="M218.3 379.6h100.8c12.2-.1 22.5-10.4 22.4-22.6l-1.1-253.9c-.1-12.2-10-22-22.2-22l-101.2.5c-12.2.1-22 10-22 22.2l1.1 253.9c.1 12.1 10 21.9 22.2 21.9z" fill="#1a2e35"/><path d="M201.1 115.3V103c.4-8.3 7.2-14.8 15.5-14.9h5.6l14.3-.1c.5 0 1 .1 1.4.2 2 .6 3.4 2.5 3.4 4.8v4.4c0 .1 0 .3.1.4v.2c0 .1.1.3.1.4s0 .1.1.2c.1.2.1.3.2.5s.2.3.3.5v.1c.1.1.2.3.3.4l.5.5c.1.1.3.2.4.3.4.3.9.6 1.5.7.2 0 .4.1.5.1.2 0 .5.1.7.1l21.6-.1h.7l16.3-.1c2.7 0 4.8-2.3 4.8-5.1v-3.6c0-2.8 2.1-5.1 4.8-5.1h7l17.4-.1c6 0 11.2 3.3 13.8 8.2.1.2.2.4.3.7v.1l.3.6v.1c.1.2.2.4.2.6 0 .1 0 .1.1.2.1.2.1.4.2.5 0 .1 0 .2.1.2 0 .2.1.3.1.5 0 .1 0 .2.1.3 0 .2.1.3.1.5 0 .1 0 .2.1.3 0 .1.1.3.1.4s0 .3.1.4v2l.1 16.4.1 12.5.1 27.3v10.2l.4 75v1.3l.3 69.1v3.8l.1 35.2c0 6-3.3 11.2-8.2 13.8l-.6.3h-.1l-.6.3h-.1c-.2.1-.4.2-.6.2-.1 0-.1 0-.2.1-.2.1-.4.1-.5.2-.1 0-.2 0-.2.1-.2 0-.3.1-.5.1-.1 0-.2 0-.3.1-.2 0-.3.1-.5.1-.1 0-.2 0-.3.1-.1 0-.3.1-.4.1s-.3 0-.4.1h-2L217 370c-5.6-.3-10.4-3.5-13-8.1-.4-.7-.7-1.4-.9-2.1-.2-.5-.3-1-.5-1.5-.3-1.2-.5-2.6-.5-3.9l-.4-88.6-.1-16.8v-6.8l-.1-35-.1-15.8v-2.2l-.1-15.7v-37.9l-.1-15.1v-4.7l-.1-.5z" fill="#fff"/><defs><path id="E" d="M201.9 115.6v-12.2c.4-8.2 7.1-14.7 15.4-14.7h5.5l14.1-.1c.5 0 1 .1 1.4.2 1.9.6 3.4 2.5 3.4 4.7v4.4c0 .1 0 .3.1.4v.2c0 .1.1.3.1.4 0 0 0 .1.1.1.1.2.1.3.2.5s.2.3.3.5v.1c.1.1.2.3.3.4l.5.5c.1.1.3.2.4.3.4.3.9.6 1.5.7.2 0 .4.1.5.1.2 0 .5.1.7.1l38.2-.2c2.6 0 4.8-2.3 4.7-5v-3.6c0-2.8 2.1-5 4.7-5h6.9l17.2-.1c5.9 0 11 3.3 13.7 8.1.1.2.2.4.3.7v.1l.3.6v.1c.1.2.2.4.2.6 0 .1 0 .1.1.2.1.2.1.4.2.5 0 .1 0 .2.1.2 0 .2.1.3.1.5 0 .1 0 .2.1.3 0 .1.1.3.1.5 0 .1 0 .2.1.3 0 .1.1.3.1.4s0 .3.1.4v1.9l.1 16.2.1 12.4.1 26.9v10l.4 75.4.3 69.1v3l.1 34.8c0 5.9-3.3 11.1-8.1 13.7l-.6.3h-.1l-.6.3h-.1c-.2.1-.4.2-.6.2-.1 0-.1 0-.2.1-.2.1-.3.1-.5.2-.1 0-.2 0-.2.1-.2 0-.3.1-.5.1-.1 0-.2 0-.3.1-.1 0-.3.1-.4.1s-.2 0-.3.1c-.1 0-.3.1-.4.1s-.3 0-.4.1h-2l-101.9.5c-5.5-.3-10.3-3.4-12.8-8-.4-.7-.7-1.3-.9-2-.2-.5-.3-1-.5-1.4a16 16 0 0 1-.5-3.9l-.4-87.7-.1-14.8v-8.5l-.1-34.7-.1-15.6v-2.2l-.1-15.5V136l-.1-14.9v-5.5z"/></defs><clipPath id="F"><use xlink:href="#E"/></clipPath><g clip-path="url(#F)"><g fill="#b5b5e3"><path d="M352.257 101.897h-153.7v-15.4h153.7z"/><use xlink:href="#B"/><path d="M352.257 145.705h-153.7v-7.7h153.7zm0 18.963h-153.7v-7.7h153.7zm0 18.964h-153.7v-7.7h153.7zm0 18.863h-153.7v-7.7h153.7zm0 18.964h-153.7v-7.7h153.7zm0 18.963h-153.7v-7.7h153.7zm0 18.963h-153.7v-7.7h153.7zm0 18.864h-153.7v-7.7h153.7zm0 18.963h-153.7v-7.7h153.7zm0 18.964h-153.7v-7.7h153.7zm.042 18.863h-98.8v-7.7h98.8zm-.03 18.963h-59.6v-7.7h59.6z"/></g><g fill="#fff"><path d="M195.6 54.9l171.7 287v10.6a18.35 18.35 0 0 1-18.4 18.4h-31.7L185.5 151V68.5c0-6.4 4.3-11.8 10.1-13.6zm30.9-.6s8.8 12.5 13.2 12.5H302L367.2 176v142L209.5 54.3h17zm31.8 316.6l-72.8-121.6V175l117.3 195.9z"/></g></g><path d="M341.1 261.6v38.3s30.3 45.1 30.5 37.2c.3-7.9 7.6-45 4.6-48.7s-26.9-34.7-26.9-34.7l-8.2 7.9z" fill="#fa8b82"/><path d="M294.9 239c23.1 1 24 39.6 37.8 54.7 6.9 7.5 13.3 8.1 18.2 6.5 7.5-2.4 11-11 7.8-18.1-5-11-17.7-20.5-17.7-20.5v-27.5l38.9 34.5c5 4.5 8.4 10.5 9.6 17.1 9.6 52.6-8.4 143.3-8.4 143.3s-34.5 13.7-72.5 0l9.5-43.4c-21.2-22.2-18.5-73.6-19.6-94.8-.8-16.2-5.6-37.6-7.9-46.8-.4-2.6 1.7-5.1 4.3-5z" fill="#fdbeb9"/><path d="M292.2 244.6l2.6 9.7c.3 1.2 1.4 2 2.6 2.1 2.3.1 5.8-.1 7-2.3 1.7-3.3-3.7-9.9-5.5-11.3-1.8-1.5-7.2-.2-6.7 1.8z" opacity=".3" fill="#fd5b7e"/><g fill="#082c4c"><path d="M205.6 220.5s10.5 38.3 58.1 33.7c0 0-23.8-4-23.8-33.7h-34.3z"/><path d="M253.6 234.1h-79a17.67 17.67 0 0 1-17.7-17.7v-36.7a17.67 17.67 0 0 1 17.7-17.7h79a17.67 17.67 0 0 1 17.7 17.7v36.7a17.67 17.67 0 0 1-17.7 17.7z"/></g><path d="M185.8 184.4h56.6v40.7h-56.6z" fill="#e9b646"/><path d="M193.1 171h42.1v52.1h-42.1z" fill="#fff"/><g fill="#d0d0d0"><use xlink:href="#C"/><path d="M197.8 183h32.7v3.1h-32.7zm0 6.2h32.7v3.1h-32.7zm0 6.3h32.7v3.1h-32.7zm0 6.3h32.7v3.1h-32.7zm0 6.3h32.7v3.1h-32.7zm0 6.3h32.7v3.1h-32.7z"/></g><g fill="#f0d44a"><path d="M198.5 203.5l-12.7-19.1v40.7h56.6v-40.7l-12.6 19.1z"/><path d="M242.4 225.1h-56.6l12.7-21.6h31.3z"/></g><path d="M185.8 225.1l2.9-5.5 6-11 3.1-5.5.2-.4h.4l15.7-.1 16 .1.2.4c2.1 3.6 4.1 7.3 6.1 10.9l3 5.5c1 1.8 2 3.7 2.9 5.5-1.2-1.7-2.3-3.5-3.4-5.3s-2.3-3.5-3.3-5.3l-6.6-10.7.6.4-15.6.1c-5.2 0-10.4 0-15.7-.1l.6-.4-9.9 15.9c-.9 2-2 3.7-3.2 5.5z" fill="#e9b646"/><circle transform="matrix(.9239 -.3827 .3827 .9239 -52.0588 74.5615)" cx="161.4" cy="168.1" r="15.5" fill="#fff" stroke="#d9505b" stroke-width="2.104"/><text transform="translate(154.052 175.553)" fill="#082c4c" font-family="NexaBold" font-size="22.869">3</text><path d="M143.7 278.5l43.4-20.3-25.5 43.1z" fill="#bdebf9"/><path d="M134.4 290.5l9.3-12 3.8 4.8z" fill="#90cade"/><path d="M140.8 272.9l-6.4 17.6 9.3-12 43.4-20.3z" fill="#a9dff9"/><path d="M117.9 263.9l22.9 9 46.3-14.7z" fill="#fff"/><path d="M132.4 291.6l-4.9 5.1-2.7 2.4-2.9 2.1c-2 1.3-4.3 2.3-6.7 2.8s-4.9.5-7.4 0c-2.4-.5-4.8-1.7-6.6-3.5s-3-4.4-3-7c0-1.3.3-2.7 1-3.9s1.7-2.1 2.8-2.8c.6-.3 1.1-.7 1.8-.9.6-.2 1.4-.4 2.2-.3s1.6.6 2.1 1.2c.5.7.7 1.4.8 2h0c0 .2 0 .4-.1.6-.7 1.2-1.8 2.3-3.1 2.9s-2.7.8-4.1.8c-2.7-.1-5.2-.9-7.5-2a33.88 33.88 0 0 1-6.5-4.1c-2-1.6-3.8-3.4-5.3-5.4 1.7 1.9 3.6 3.5 5.7 4.9s4.3 2.6 6.6 3.5 4.7 1.6 7.1 1.5c1.2 0 2.3-.3 3.3-.8s1.7-1.3 2.3-2.3l-.1.6c-.1-.5-.3-.9-.5-1.2s-.5-.4-.9-.5c-.8-.1-1.8.3-2.7.9s-1.7 1.3-2.2 2.1-.7 1.8-.7 2.9c0 2.1.9 4.1 2.4 5.7 1.5 1.5 3.5 2.6 5.6 3.1 2.2.5 4.4.6 6.7.2 2.2-.4 4.4-1.3 6.4-2.3 2-1.1 3.9-2.5 5.8-3.9 1.8-1.3 3.5-2.8 5.3-4.4z" fill="#a9dff9"/><path d="M372.9 220.7l-29.8-14.4 17.2 30z" fill="#bdebf9"/><path d="M379.2 229.1l-6.3-8.4-2.7 3.3z" fill="#90cade"/><path d="M375 216.9l4.2 12.2-6.3-8.4-29.8-14.4z" fill="#a9dff9"/><path d="M390.9 210.9l-15.9 6-31.9-10.6z" fill="#fff"/><path d="M380.5 230c1.8 1.6 3.8 3 5.9 4 2.1 1.1 4.3 1.8 6.6 1.8 1.1 0 2.2-.2 3.2-.6s1.9-1 2.6-1.8 1.2-1.7 1.2-2.6c.1-.9-.3-1.6-1-1.8-.8-.3-1.6 0-2.4.6s-1.3 1.5-1.7 2.5c-.7 2-.3 4.3.8 6.2 1.1 1.8 3.2 3.1 5.4 3.6s4.7.2 6.9-.7c-2 1.3-4.5 1.9-7 1.6-2.5-.2-5-1.5-6.5-3.7-1.5-2.1-2.1-4.9-1.3-7.6.4-1.3 1.1-2.5 2.2-3.4.5-.5 1.2-.8 1.9-1 .8-.2 1.6-.2 2.3.1.8.2 1.5.8 1.9 1.6.4.7.5 1.6.4 2.3-.1 1.5-.8 2.8-1.8 3.8-1.9 2-4.7 2.9-7.2 2.6-2.6-.2-4.9-1.2-7-2.5-2.1-1.5-3.9-3.1-5.4-5z" fill="#a9dff9"/><g fill="#414042"><circle cx="249.9" cy="90.5" r="2.8"/><circle cx="282.2" cy="90.5" r="2.8"/><path d="M272.1 91.2h-11a.94.94 0 0 1-1-1v-.1c0-.5.4-1 1-1h11a1.08 1.08 0 0 1 1 1v.1c0 .5-.4 1-1 1z"/></g><path d="M402.5 94.7l-1.5 11.1 7.9-5.8 24.2-12.4-18.7 1.7s-9.5 2.3-10.1 2.8c-.4.5-1.8 2.6-1.8 2.6z" fill="#de3268"/><g fill="#fd5b7e"><path d="M394.2 87.9l39-.3-30.7 7.1z"/><path d="M415 105.9l-10.2-8.2 28.4-10.1z"/></g><g fill="#07095b"><path d="M278.2 182.3c-1.3 0-2.3-.2-3.1-.6l.3-.6c.7.3 1.7.5 2.9.6l-.1.6zm6.2-.8l-.2-.7c1.8-.4 3.8-1 5.9-1.8l.2.6c-2 .9-4 1.5-5.9 1.9zm11.9-4.1l-.3-.6 5.6-2.7.3.6c-1.6.9-3.6 1.8-5.6 2.7zm10.9-6.3l-.5-.5c1.4-1.4 2.7-3.1 3.7-4.9l.6.3c-1.1 2-2.4 3.7-3.8 5.1zm12.9-2.5c-2.2.1-4.3-.2-6.3-.8l.2-.7c1.9.5 4 .8 6.1.7v.8zm6.2-1.1l-.2-.6c2-.6 3.8-1.6 5.5-2.7l.4.6c-1.8 1.1-3.7 2.1-5.7 2.7zm-18.2-2.4c-1.8-1.2-3.3-2.8-4.5-4.5l.6-.4c1.1 1.6 2.6 3.1 4.3 4.3l-.4.6zm28.5-4.7l-.6-.4c1.1-1.4 2.1-3 3.4-5.2l.6.3c-1.3 2.3-2.3 3.9-3.4 5.3zm-23.3-.2l-.7-.2c.5-2 .7-4.1.7-6.1h.7c0 2.1-.2 4.2-.7 6.3zm-12.1-5.4c-.1-.4-.1-.8-.1-1.2v-.3c-.1-1.8.2-3.4.9-4.8l.6.3c-.6 1.3-.9 2.8-.8 4.5v.3c0 .4.1.8.1 1.1l-.7.1zm41.8-5.1l-.6-.3.8-1.6 2.1-3.9.6.3-2.1 3.9-.8 1.6zm-31.2-1.6c-.8-1.4-1.9-2.3-3.2-2.6-.5-.1-1-.2-1.6-.1l-.1-.7c.6-.1 1.2 0 1.8.1 1.5.4 2.7 1.4 3.6 3l-.5.3zm37.2-9.4l-.6-.3 3.2-5.4.6.4c-1.1 1.6-2.1 3.3-3.2 5.3zm6.5-10.6l-.6-.4 3.7-5.1.5.4-3.6 5.1zm7.6-9.8l-.5-.5c1.4-1.6 2.9-3.1 4.4-4.5l.5.5-4.4 4.5zm9.2-8.4l-.4-.5 5.3-3.4.3.6c-1.8 1-3.6 2.1-5.2 3.3zm10.7-6.2l-.3-.6 5.9-2.2.2.6c-2 .6-3.9 1.4-5.8 2.2zm11.8-3.8l-.1-.7 3-.5.1.7c-1 .1-2 .3-3 .5z"/></g></g></svg>