<?xml version="1.0" standalone="no"?>
<!DOCTYPE svg PUBLIC "-//W3C//DTD SVG 20010904//EN"
 "http://www.w3.org/TR/2001/REC-SVG-20010904/DTD/svg10.dtd">
<svg version="1.0" xmlns="http://www.w3.org/2000/svg"
 width="2096.000000pt" height="2096.000000pt" viewBox="0 0 2096.000000 2096.000000"
 preserveAspectRatio="xMidYMid meet">
<metadata>
Created by potrace 1.11, written by Peter Selinger 2001-2013
</metadata>
<g transform="translate(0.000000,2096.000000) scale(0.100000,-0.100000)"
fill="#000000" stroke="none">
<path d="M10149 19456 c-2 -2 -58 -7 -124 -10 -223 -11 -453 -34 -630 -61 -16
-3 -48 -7 -70 -10 -22 -4 -51 -8 -65 -11 -14 -2 -52 -9 -85 -14 -104 -17 -117
-20 -270 -51 -512 -104 -1008 -263 -1535 -491 -14 -6 -27 -12 -30 -13 -5 -1
-63 -29 -250 -119 -122 -58 -319 -163 -440 -233 -80 -47 -146 -87 -384 -236
-11 -7 -25 -15 -30 -20 -6 -4 -67 -46 -136 -94 -234 -162 -522 -387 -685 -534
-138 -125 -272 -248 -309 -285 -83 -84 -281 -291 -316 -329 -190 -213 -260
-297 -443 -540 -232 -306 -428 -606 -580 -885 -16 -30 -38 -68 -47 -85 -73
-123 -260 -521 -365 -776 -130 -318 -288 -812 -350 -1093 -2 -11 -9 -39 -14
-61 -5 -22 -12 -51 -15 -65 -2 -14 -12 -58 -20 -97 -9 -40 -18 -85 -21 -100
-3 -16 -7 -37 -9 -48 -2 -11 -7 -40 -11 -65 -4 -25 -9 -54 -11 -65 -7 -36 -13
-69 -19 -115 -3 -25 -8 -52 -10 -60 -2 -8 -6 -37 -10 -65 -3 -27 -10 -84 -15
-125 -5 -41 -12 -104 -15 -140 -3 -36 -8 -81 -10 -100 -34 -278 -39 -955 -9
-1300 2 -30 7 -82 9 -115 3 -33 7 -76 10 -95 2 -19 7 -60 10 -90 4 -30 8 -66
10 -80 2 -14 7 -49 10 -79 4 -30 8 -62 10 -72 2 -9 7 -39 11 -66 3 -26 8 -57
11 -68 2 -11 6 -38 9 -60 3 -22 7 -46 10 -54 3 -8 7 -30 10 -50 3 -20 21 -108
40 -196 20 -88 37 -167 39 -175 1 -8 8 -35 15 -60 7 -25 14 -53 16 -62 36
-158 148 -514 246 -778 114 -306 350 -815 478 -1030 4 -8 55 -94 111 -190 56
-96 143 -236 192 -310 89 -132 284 -410 296 -420 4 -3 38 -45 76 -95 61 -78
219 -271 235 -285 3 -3 32 -36 65 -75 229 -264 598 -617 904 -863 64 -51 124
-100 135 -109 10 -8 64 -49 120 -90 55 -41 108 -80 116 -86 45 -37 366 -246
495 -324 549 -330 1108 -580 1710 -763 105 -32 201 -60 215 -63 14 -3 86 -22
160 -41 74 -20 149 -38 167 -40 18 -3 49 -9 70 -15 21 -6 49 -12 63 -15 14 -2
87 -16 163 -30 76 -14 147 -26 158 -26 10 0 19 -6 19 -12 0 -10 -214 -341
-247 -383 -4 -5 -42 -62 -83 -125 -41 -63 -79 -119 -83 -125 -4 -5 -207 -309
-449 -675 -243 -366 -553 -833 -690 -1038 -136 -205 -248 -375 -248 -377 0 -3
2057 -4 4571 -3 l4571 3 0 1415 c0 778 -1 1424 -1 1435 -1 20 -4 20 -2046 20
-1125 0 -2037 3 -2028 7 10 3 83 25 163 48 130 38 391 121 430 137 8 3 20 7
25 9 6 1 24 8 40 15 17 7 32 13 35 14 19 4 245 95 363 146 168 72 513 241 646
316 51 29 95 53 96 53 16 0 493 302 604 382 33 24 69 50 81 58 79 54 430 327
450 349 3 3 32 28 65 56 126 105 249 219 440 410 176 176 238 242 340 360 33
38 68 79 79 90 10 11 53 63 95 115 42 52 78 97 81 100 21 18 249 328 331 450
401 591 710 1215 933 1883 36 106 78 242 95 302 17 61 35 124 41 140 5 17 11
41 14 55 2 14 20 88 39 165 19 77 37 154 40 170 3 17 17 88 31 159 14 71 29
150 32 175 3 25 7 53 9 61 14 77 43 292 49 361 3 24 7 70 10 102 24 237 31
384 31 727 0 283 -7 520 -20 640 -2 19 -6 69 -10 110 -3 41 -7 86 -10 100 -2
14 -9 68 -14 120 -6 52 -13 104 -15 115 -2 11 -7 43 -10 70 -4 28 -8 61 -11
75 -6 30 -12 72 -20 125 -4 22 -10 56 -15 75 -5 19 -11 51 -14 70 -3 19 -13
69 -22 110 -9 41 -22 105 -30 143 -7 37 -15 71 -18 76 -3 4 -7 21 -10 37 -21
117 -207 726 -251 821 -8 17 -15 34 -15 37 0 15 -117 303 -180 441 -12 28 -31
70 -42 95 -55 122 -212 428 -280 543 -15 26 -28 49 -28 51 0 6 -165 276 -208
340 -15 21 -31 47 -37 57 -51 94 -473 664 -525 709 -3 3 -28 32 -55 65 -28 33
-52 62 -56 65 -3 3 -47 52 -99 110 -203 227 -519 529 -760 729 -190 158 -199
164 -290 231 -47 35 -87 66 -90 69 -3 3 -18 15 -35 27 -16 11 -52 36 -80 56
-507 354 -1081 665 -1595 863 -52 20 -104 40 -115 45 -24 10 -131 49 -245 88
-275 95 -703 209 -1005 268 -11 2 -42 8 -70 13 -27 6 -68 13 -90 16 -22 3 -62
9 -90 15 -27 5 -70 12 -95 15 -25 3 -58 8 -75 11 -45 7 -141 18 -255 30 -30 3
-66 7 -80 9 -14 2 -70 7 -125 11 -55 3 -113 8 -130 10 -40 6 -811 15 -816 10z
m711 -2970 c14 -3 52 -7 85 -10 33 -3 76 -8 95 -11 186 -26 211 -30 280 -45
25 -5 56 -12 70 -14 14 -2 66 -14 115 -26 50 -12 99 -23 110 -26 11 -2 31 -8
45 -13 14 -6 59 -20 100 -31 249 -71 629 -233 883 -379 108 -61 242 -145 245
-153 2 -4 8 -8 13 -8 6 0 34 -18 64 -40 30 -22 58 -40 64 -40 5 0 11 -3 13 -7
2 -5 38 -34 80 -66 326 -242 666 -584 926 -929 187 -249 410 -623 511 -858 13
-30 34 -77 46 -105 81 -183 151 -377 213 -595 34 -117 88 -336 96 -390 3 -19
7 -44 10 -55 7 -37 35 -209 41 -255 3 -25 8 -56 10 -70 6 -38 22 -212 30 -340
5 -63 5 -486 0 -540 -2 -25 -6 -86 -10 -137 -3 -50 -8 -100 -10 -111 -2 -11
-6 -53 -10 -94 -3 -40 -8 -80 -10 -88 -2 -8 -7 -35 -10 -60 -71 -536 -304
-1203 -584 -1678 -17 -29 -31 -55 -31 -57 0 -8 -152 -238 -213 -325 -69 -96
-221 -290 -287 -365 -132 -150 -441 -444 -578 -550 -7 -5 -18 -15 -25 -20 -7
-6 -39 -31 -72 -55 -33 -25 -62 -47 -65 -50 -24 -24 -373 -250 -386 -250 -2 0
-23 -12 -47 -27 -46 -29 -277 -146 -372 -188 -250 -111 -590 -223 -840 -276
-33 -7 -64 -14 -70 -15 -51 -12 -309 -52 -380 -59 -33 -4 -76 -8 -95 -10 -111
-13 -236 -19 -400 -19 -173 0 -420 10 -465 19 -11 2 -47 7 -80 10 -76 7 -325
47 -432 69 -132 27 -529 145 -608 180 -16 8 -41 17 -55 21 -14 4 -45 16 -70
27 -25 11 -58 26 -75 33 -59 25 -381 185 -435 216 -119 68 -412 257 -430 278
-3 4 -39 32 -81 63 -161 120 -450 386 -589 543 -134 151 -272 326 -361 455
-24 36 -47 69 -52 75 -23 32 -112 176 -169 275 -117 206 -204 388 -288 600
-29 74 -56 144 -61 155 -34 80 -154 500 -172 605 -3 14 -12 59 -20 100 -9 41
-18 89 -21 105 -13 75 -15 93 -21 140 -4 28 -8 57 -10 65 -2 8 -7 44 -11 80
-3 36 -8 79 -10 95 -19 181 -26 671 -11 860 11 139 17 207 22 235 2 14 9 63
15 110 6 47 13 94 15 105 1 11 6 38 10 60 3 22 10 60 15 85 6 25 12 56 14 70
2 14 10 48 16 75 6 28 13 58 15 67 7 32 66 253 82 303 145 467 339 878 596
1265 246 371 533 694 862 971 86 72 296 233 346 264 9 6 56 37 105 69 381 253
906 480 1344 581 84 20 254 54 290 59 25 3 59 8 75 11 74 12 93 15 145 21 30
3 66 7 80 10 14 2 66 7 115 10 50 4 92 8 94 10 6 6 592 -3 621 -10z"/>
</g>
</svg>
