<?xml version="1.0" encoding="UTF-8" standalone="no"?>
<svg
   xmlns:dc="http://purl.org/dc/elements/1.1/"
   xmlns:cc="http://creativecommons.org/ns#"
   xmlns:rdf="http://www.w3.org/1999/02/22-rdf-syntax-ns#"
   xmlns:svg="http://www.w3.org/2000/svg"
   xmlns="http://www.w3.org/2000/svg"
   viewBox="0 0 500.12 501.28"
   height="501.28"
   width="500.12"
   xml:space="preserve"
   id="svg2"
   version="1.1"><metadata
     id="metadata8"><rdf:RDF><cc:Work
         rdf:about=""><dc:format>image/svg+xml</dc:format><dc:type
           rdf:resource="http://purl.org/dc/dcmitype/StillImage" /></cc:Work></rdf:RDF></metadata><defs
     id="defs6"><clipPath
       id="clipPath20"
       clipPathUnits="userSpaceOnUse"><path
         id="path18"
         d="M 0,3759.64 V 0 h 3750.94 v 3759.64 z" /></clipPath></defs><g
     transform="matrix(1.3333333,0,0,-1.3333333,0,501.28)"
     id="g10"><g
       transform="scale(0.1)"
       id="g12"><g
         id="g14"><g
           clip-path="url(#clipPath20)"
           id="g16"><path
             id="path22"
             style="fill:#2c3b9a;fill-opacity:1;fill-rule:evenodd;stroke:none"
             d="m 2354.53,1839.2 c 0,52.28 -1.23,104.6 0.45,156.83 1.08,33.87 -22.6,22.55 -38.2,22.59 -15.5,0.03 -38.29,11.36 -37.82,-22.62 1.46,-104.54 1.48,-209.13 -0.06,-313.68 -0.43,-30.2 18.56,-24.41 34.11,-22.6 15.91,1.85 42.77,-14.45 41.85,22.63 -1.29,52.26 -0.33,104.56 -0.33,156.85 z m 751.27,175.37 c -53.83,16.66 -88.45,0.96 -110.43,-48.3 -9.98,-22.39 -22.25,-45.89 -44.2,-62.73 -14.81,22.95 -31.59,42.51 -41.16,65.12 -22.5,53.08 -62.09,59.41 -115.03,46.01 31.89,-48.95 62,-97.2 94.37,-143.9 13.15,-18.96 14.41,-32.79 1.04,-52.8 -33.56,-50.21 -64.17,-102.38 -96.45,-154.54 52.31,-13.86 87.4,-2.55 108.69,46.21 12.17,27.88 31.88,52.45 50.78,82.62 20.69,-31.58 39.04,-59.47 57.26,-87.44 33.49,-51.37 45.29,-55.79 109.76,-39.65 -32.8,50.55 -63.97,101.51 -98.32,150.23 -16.49,23.41 -19.22,40.39 -1.28,65.24 30.49,42.22 56.16,87.92 84.97,133.93 z m -366.9,0.7 c -53.19,13.6 -89.37,1.44 -110.98,-48.92 -9.66,-22.48 -22.26,-45.91 -44.17,-62.84 -14.79,22.92 -31.59,42.46 -41.16,65.08 -22.48,53.1 -62.07,59.5 -115.07,46.09 31.2,-47.86 60.44,-95.19 92.38,-140.63 14.88,-21.19 16.6,-36.87 1.28,-59.32 -33.33,-48.84 -63.16,-100.09 -94.96,-151.24 52.49,-13.87 87.6,-2.7 108.91,46.08 12.19,27.89 31.92,52.48 50.83,82.67 20.64,-31.5 38.98,-59.38 57.2,-87.34 33.63,-51.58 44.65,-55.73 109.8,-39.82 -30.7,47.45 -58.87,96.02 -92.24,140.72 -22.59,30.26 -25.71,53.01 -1.66,84.44 29.32,38.33 52.42,81.42 79.84,125.03 z m -791.97,-111.18 c -0.66,0.01 -1.31,0.01 -1.95,0.01 0,31.23 -1.33,62.54 0.43,93.66 1.35,24.06 -13.56,24.37 -28.33,20.9 -16.13,-3.78 -45.9,15.67 -46.23,-17.62 -0.72,-73.57 -6.42,-147.51 4.37,-220.79 11.98,-81.44 70.05,-129.27 153.43,-128.45 82.82,0.81 138.12,50.2 148.4,133.55 8.12,65.96 0.62,132.37 4.57,198.37 1.85,31.23 -10,36.55 -37.87,36.46 -27.25,-0.08 -39.05,-4.54 -37.74,-35.75 2.54,-61.09 2.48,-122.49 -0.61,-183.54 -2.65,-52.09 -30.01,-75.85 -78.45,-76.19 -47.66,-0.32 -74.53,21.47 -79.34,70.89 -3.49,35.85 -0.68,72.32 -0.68,108.5 z m -269.44,-246.2 c 108.46,99.06 133.39,169.27 92.35,259.05 -33.17,72.53 -110.1,117.16 -187.99,109.06 -78.75,-8.18 -147.39,-69.7 -162.74,-148.63 -7.73,-39.7 -4.22,-79.03 12.51,-117.04 26.4,-59.98 75.29,-92.37 137.24,-110.62 -14.43,-22.79 -26.72,-42.21 -41.5,-65.57 67.33,0 128.32,1.5 189.17,-0.7 27.16,-0.97 32.13,8.09 32.56,33.33 0.49,28.48 -6.43,40.85 -36.46,36.85 -11.18,-1.48 -24.15,-4.18 -35.14,4.27 z m -912.502,330.08 c -24.898,0.42 -49.867,2.09 -74.672,0.74 -14.695,-0.8 -36.546,10.11 -42.878,-8.09 -7.598,-21.81 7.406,-40.15 25.164,-53.89 16.175,-12.51 34.054,-20.73 54.898,-20.63 31.113,0.14 62.227,0.59 93.34,0.9 167.25,-5.9 334.54,-1.13 501.81,-1.97 16.56,-0.09 22.4,5.46 21.03,21.59 -1.04,12.4 -1.24,25.07 0.04,37.42 1.98,19.02 -4.06,25.77 -24.44,25.64 -184.76,-1.19 -369.522,-1.29 -554.292,-1.71 z m 135.203,-104.98 c -24.898,0.4 -49.824,1.73 -74.671,0.85 -14.036,-0.49 -34.973,8.26 -40.711,-6.69 -7.219,-18.81 3.625,-38.99 17.488,-54.22 16.144,-17.76 37.566,-22.66 61.008,-22.66 115.82,-0.05 231.645,-0.53 347.465,-0.85 34.9,0.3 69.91,2.29 104.69,0.32 24.12,-1.36 31.21,7.42 28.26,29.69 -1.29,9.81 -1.2,20.05 -0.01,29.87 2.33,19.34 -4.55,25.56 -24.61,25.38 -139.63,-1.25 -279.27,-1.27 -418.909,-1.69 z m 310.639,-101.55 c -50.24,0.01 -100.48,0.03 -150.72,0.04 -8.89,-0.69 -17.77,-1.38 -26.65,-2.07 -26.12,0.36 -52.23,0.97 -78.343,1.03 -42.543,0.09 -51.422,-15.4 -29.48,-52.84 11.199,-19.11 26.941,-31.93 51.273,-31.08 31.06,1.07 62.17,0.95 93.26,1.34 83.22,-0.41 166.47,-0.15 249.66,-1.71 20.95,-0.39 25.75,7.76 23.83,26 -1.03,9.84 -1.33,20.03 0.06,29.77 3.24,22.9 -5.23,30.39 -28.57,29.17 -34.67,-1.81 -69.54,0.06 -104.32,0.35 z M 0.703125,9.41016 C 0.703125,1248 0.8125,2486.6 0,3725.19 c -0.0195313,28.12 6.32813,34.47 34.4492,34.45 1227.3408,-0.82 2454.6908,-0.82 3682.0408,0 28.11,0.02 34.46,-6.33 34.44,-34.45 -0.81,-1238.59 -0.7,-2477.19 -0.7,-3715.77984 -1249.84,0 -2499.68,0 -3749.526875,0" /><path
             id="path24"
             style="fill:#fbfbfe;fill-opacity:1;fill-rule:evenodd;stroke:none"
             d="m 0.703125,9.41016 c 1249.846875,0 2499.686875,0 3749.526875,0 -6.74,-15.51172 -20.26,-7 -29.99,-7.03907 C 3534.01,1.73828 3347.79,1.91016 3161.56,1.91016 2119.19,1.91016 1076.82,1.87109 34.4492,2.37109 23.4727,2.37891 9.02344,-6.28125 0.703125,9.41016" /><path
             id="path26"
             style="fill:#fbfbfe;fill-opacity:1;fill-rule:evenodd;stroke:none"
             d="m 1599.2,1954.07 c -60.64,-0.77 -106.8,-51.14 -106.67,-116.41 0.13,-64.59 47.58,-115.25 108.13,-115.45 61.25,-0.2 110.88,53.66 109.38,118.68 -1.48,63.96 -50.43,113.94 -110.84,113.18 z m 78.29,-296.18 c 10.99,-8.45 23.96,-5.75 35.14,-4.27 30.03,4 36.95,-8.37 36.46,-36.85 -0.43,-25.24 -5.4,-34.3 -32.56,-33.33 -60.85,2.2 -121.84,0.7 -189.17,0.7 14.78,23.36 27.07,42.78 41.5,65.57 -61.95,18.25 -110.84,50.64 -137.24,110.62 -16.73,38.01 -20.24,77.34 -12.51,117.04 15.35,78.93 83.99,140.45 162.74,148.63 77.89,8.1 154.82,-36.53 187.99,-109.06 41.04,-89.78 16.11,-159.99 -92.35,-259.05" /><path
             id="path28"
             style="fill:#fbfbfe;fill-opacity:1;fill-rule:evenodd;stroke:none"
             d="m 1946.93,1904.09 c 0,-36.18 -2.81,-72.65 0.68,-108.5 4.81,-49.42 31.68,-71.21 79.34,-70.89 48.44,0.34 75.8,24.1 78.45,76.19 3.09,61.05 3.15,122.45 0.61,183.54 -1.31,31.21 10.49,35.67 37.74,35.75 27.87,0.09 39.72,-5.23 37.87,-36.46 -3.95,-66 3.55,-132.41 -4.57,-198.37 -10.28,-83.35 -65.58,-132.74 -148.4,-133.55 -83.38,-0.82 -141.45,47.01 -153.43,128.45 -10.79,73.28 -5.09,147.22 -4.37,220.79 0.33,33.29 30.1,13.84 46.23,17.62 14.77,3.47 29.68,3.16 28.33,-20.9 -1.76,-31.12 -0.43,-62.43 -0.43,-93.66 0.64,0 1.29,0 1.95,-0.01" /><path
             id="path30"
             style="fill:#fbfbfe;fill-opacity:1;fill-rule:evenodd;stroke:none"
             d="m 2738.9,2015.27 c -27.42,-43.61 -50.52,-86.7 -79.84,-125.03 -24.05,-31.43 -20.93,-54.18 1.66,-84.44 33.37,-44.7 61.54,-93.27 92.24,-140.72 -65.15,-15.91 -76.17,-11.76 -109.8,39.82 -18.22,27.96 -36.56,55.84 -57.2,87.34 -18.91,-30.19 -38.64,-54.78 -50.83,-82.67 -21.31,-48.78 -56.42,-59.95 -108.91,-46.08 31.8,51.15 61.63,102.4 94.96,151.24 15.32,22.45 13.6,38.13 -1.28,59.32 -31.94,45.44 -61.18,92.77 -92.38,140.63 53,13.41 92.59,7.01 115.07,-46.09 9.57,-22.62 26.37,-42.16 41.16,-65.08 21.91,16.93 34.51,40.36 44.17,62.84 21.61,50.36 57.79,62.52 110.98,48.92" /><path
             id="path32"
             style="fill:#fbfbfe;fill-opacity:1;fill-rule:evenodd;stroke:none"
             d="m 3105.8,2014.57 c -28.81,-46.01 -54.48,-91.71 -84.97,-133.93 -17.94,-24.85 -15.21,-41.83 1.28,-65.24 34.35,-48.72 65.52,-99.68 98.32,-150.23 -64.47,-16.14 -76.27,-11.72 -109.76,39.65 -18.22,27.97 -36.57,55.86 -57.26,87.44 -18.9,-30.17 -38.61,-54.74 -50.78,-82.62 -21.29,-48.76 -56.38,-60.07 -108.69,-46.21 32.28,52.16 62.89,104.33 96.45,154.54 13.37,20.01 12.11,33.84 -1.04,52.8 -32.37,46.7 -62.48,94.95 -94.37,143.9 52.94,13.4 92.53,7.07 115.03,-46.01 9.57,-22.61 26.35,-42.17 41.16,-65.12 21.95,16.84 34.22,40.34 44.2,62.73 21.98,49.26 56.6,64.96 110.43,48.3" /><path
             id="path34"
             style="fill:#fbfbfe;fill-opacity:1;fill-rule:evenodd;stroke:none"
             d="m 764.988,1987.97 c 184.77,0.42 369.532,0.52 554.292,1.71 20.38,0.13 26.42,-6.62 24.44,-25.64 -1.28,-12.35 -1.08,-25.02 -0.04,-37.42 1.37,-16.13 -4.47,-21.68 -21.03,-21.59 -167.27,0.84 -334.56,-3.93 -501.822,1.97 -31.609,18.04 -63.617,35.8 -55.84,80.97" /><path
             id="path36"
             style="fill:#fbfbfe;fill-opacity:1;fill-rule:evenodd;stroke:none"
             d="m 900.191,1882.99 c 139.639,0.42 279.279,0.44 418.909,1.69 20.06,0.18 26.94,-6.04 24.61,-25.38 -1.19,-9.82 -1.28,-20.06 0.01,-29.87 2.95,-22.27 -4.14,-31.05 -28.26,-29.69 -34.78,1.97 -69.79,-0.02 -104.46,-0.32 -74.67,0.14 -149.56,-0.06 -224.457,0.52 -59.813,0.46 -83.285,23.48 -86.352,83.05" /><path
             id="path38"
             style="fill:#fbfbfe;fill-opacity:1;fill-rule:evenodd;stroke:none"
             d="m 2354.53,1839.2 c 0,-52.29 -0.96,-104.59 0.33,-156.85 0.92,-37.08 -25.94,-20.78 -41.85,-22.63 -15.55,-1.81 -34.54,-7.6 -34.11,22.6 1.54,104.55 1.52,209.14 0.06,313.68 -0.47,33.98 22.32,22.65 37.82,22.62 15.6,-0.04 39.28,11.28 38.2,-22.59 -1.68,-52.23 -0.45,-104.55 -0.45,-156.83" /><path
             id="path40"
             style="fill:#fbfbfe;fill-opacity:1;fill-rule:evenodd;stroke:none"
             d="m 1033.46,1779.41 c 8.88,0.69 17.76,1.38 26.41,2.07 50.16,-0.01 100.56,-0.03 150.96,-0.04 34.78,-0.29 69.65,-2.16 104.32,-0.35 23.34,1.22 31.81,-6.27 28.57,-29.17 -1.39,-9.74 -1.09,-19.93 -0.06,-29.77 1.92,-18.24 -2.88,-26.39 -23.83,-26 -83.19,1.56 -166.44,1.3 -249.65,1.71 -27.98,20.1 -40.54,47.14 -36.72,81.55" /><path
             id="path42"
             style="fill:#eb7d2d;fill-opacity:1;fill-rule:evenodd;stroke:none"
             d="m 900.191,1882.99 c 3.067,-59.57 26.539,-82.59 86.352,-83.05 74.897,-0.58 149.787,-0.38 224.457,-0.52 -116.05,0.32 -231.875,0.8 -347.695,0.85 -23.442,0 -44.864,4.9 -61.008,22.66 -13.863,15.23 -24.707,35.41 -17.488,54.22 5.738,14.95 26.675,6.2 40.711,6.69 24.847,0.88 49.773,-0.45 74.671,-0.85" /><path
             id="path44"
             style="fill:#eb7d2d;fill-opacity:1;fill-rule:evenodd;stroke:none"
             d="m 764.988,1987.97 c -7.777,-45.17 24.231,-62.93 55.84,-80.97 -31.101,-0.31 -62.215,-0.76 -93.328,-0.9 -20.844,-0.1 -38.723,8.12 -54.898,20.63 -17.758,13.74 -32.762,32.08 -25.164,53.89 6.332,18.2 28.183,7.29 42.878,8.09 24.805,1.35 49.774,-0.32 74.672,-0.74" /><path
             id="path46"
             style="fill:#eb7d2d;fill-opacity:1;fill-rule:evenodd;stroke:none"
             d="m 1033.46,1779.41 c -3.82,-34.41 8.74,-61.45 36.72,-81.55 -31.1,-0.39 -62.21,-0.27 -93.27,-1.34 -24.332,-0.85 -40.074,11.97 -51.273,31.08 -21.942,37.44 -13.063,52.93 29.48,52.84 26.113,-0.06 52.223,-0.67 78.343,-1.03" /><path
             id="path48"
             style="fill:#eb7d2d;fill-opacity:1;fill-rule:evenodd;stroke:none"
             d="m 1210.83,1781.44 c -50.4,0.01 -100.8,0.03 -150.96,0.04 50.48,-0.01 100.72,-0.03 150.96,-0.04" /><path
             id="path50"
             style="fill:#2c3b9a;fill-opacity:1;fill-rule:evenodd;stroke:none"
             d="m 1599.2,1954.07 c 60.41,0.76 109.36,-49.22 110.84,-113.18 1.5,-65.02 -48.13,-118.88 -109.38,-118.68 -60.55,0.2 -108,50.86 -108.13,115.45 -0.13,65.27 46.03,115.64 106.67,116.41" /></g></g></g></g></svg>