<?xml version="1.0" encoding="utf-8"?>
<!-- Generator: Adobe Illustrator 22.0.1, SVG Export Plug-In . SVG Version: 6.00 Build 0)  -->
<svg version="1.1" id="Layer_1" xmlns="http://www.w3.org/2000/svg" xmlns:xlink="http://www.w3.org/1999/xlink" x="0px" y="0px"
	 viewBox="0 0 524 416" style="enable-background:new 0 0 524 416;" xml:space="preserve">
<style type="text/css">
	.st0{clip-path:url(#SVGID_2_);}
	.st1{opacity:0.18;fill:#2FC1CC;}
	.st2{opacity:0.18;fill:#082C4C;}
	.st3{opacity:0.4;}
	.st4{fill-rule:evenodd;clip-rule:evenodd;fill:#082C4C;}
	.st5{fill:#D6A816;}
	.st6{fill:#DEDDF9;}
	.st7{fill:none;stroke:#4675C1;stroke-width:2.0719;stroke-linecap:round;stroke-linejoin:round;stroke-miterlimit:10;}
	.st8{fill:#1A2E35;}
	.st9{fill:#FFFFFF;}
	.st10{clip-path:url(#SVGID_4_);}
	.st11{fill:#B5B5E3;}
	.st12{fill:#FA8B82;}
	.st13{fill:#FDBEB9;}
	.st14{opacity:0.3;fill:#FD5B7E;}
	.st15{fill:#082C4C;}
	.st16{fill:#E9B646;}
	.st17{fill:#D0D0D0;}
	.st18{fill:#F0D44A;}
	.st19{fill:#FFFFFF;stroke:#D9505B;stroke-width:2.1036;stroke-miterlimit:10;}
	.st20{font-family:'NexaBold';}
	.st21{font-size:22.8691px;}
	.st22{fill:#BDEBF9;}
	.st23{fill:#90CADE;}
	.st24{fill:#A9DFF9;}
	.st25{fill:#414042;}
	.st26{fill:#DE3268;}
	.st27{fill:#FD5B7E;}
	.st28{fill:#07095B;}
</style>
<g>
	<defs>
		<rect id="SVGID_1_" x="0.5" y="-0.4" width="523.5" height="416.4"/>
	</defs>
	<clipPath id="SVGID_2_">
		<use xlink:href="#SVGID_1_"  style="overflow:visible;"/>
	</clipPath>
	<g class="st0">
		<circle class="st1" cx="186.5" cy="98.8" r="44"/>
		<circle class="st2" cx="108.3" cy="119.8" r="15.3"/>
		<circle class="st1" cx="429.8" cy="298.8" r="26.8"/>
		<g>
			<g class="st3">
				<g>
					<polygon class="st4" points="429.1,272.7 427.5,272.7 427.5,273.4 429.1,273.4 					"/>
					
						<rect x="428" y="271" transform="matrix(5.045509e-03 -1 1 5.045509e-03 154.3768 698.7666)" class="st4" width="0.7" height="1.6"/>
					<polygon class="st4" points="429.1,270.2 427.6,270.2 427.5,270.9 429.1,270.9 					"/>
				</g>
				<g>
					<polygon class="st4" points="428.9,279.3 427.3,279.2 427.3,279.8 428.9,279.9 					"/>
					<polygon class="st4" points="429,278.2 427.4,278.2 427.4,278.8 429,278.8 					"/>
					<polygon class="st4" points="429,277.2 427.4,277.1 427.4,277.7 429,277.8 					"/>
				</g>
				<g>
					<polygon class="st4" points="428.5,285.7 426.9,285.6 426.9,286.2 428.5,286.3 					"/>
					<polygon class="st4" points="428.6,284.6 427,284.5 427,285.1 428.6,285.2 					"/>
					<polygon class="st4" points="428.7,283.6 427.1,283.5 427,284 428.6,284.2 					"/>
				</g>
				<g>
					<polygon class="st4" points="427.9,292.1 426.3,291.9 426.2,292.5 427.8,292.7 					"/>
					<polygon class="st4" points="428,291 426.4,290.8 426.3,291.4 427.9,291.6 					"/>
					<polygon class="st4" points="428.1,290 426.5,289.8 426.5,290.4 428,290.6 					"/>
				</g>
				<g>
					<polygon class="st4" points="427,298.4 425.4,298.2 425.3,298.8 426.9,299 					"/>
					<polygon class="st4" points="427.2,297.4 425.6,297.1 425.5,297.7 427.1,298 					"/>
					<polygon class="st4" points="427.3,296.3 425.7,296.1 425.6,296.7 427.2,296.9 					"/>
				</g>
				<g>
					<polygon class="st4" points="425.9,304.7 424.3,304.4 424.2,305 425.8,305.3 					"/>
					<polygon class="st4" points="426.1,303.7 424.5,303.4 424.4,304 426,304.3 					"/>
					<polygon class="st4" points="426.3,302.6 424.7,302.4 424.6,302.9 426.2,303.2 					"/>
				</g>
				<g>
					<polygon class="st4" points="424.6,311 423,310.7 422.9,311.2 424.5,311.6 					"/>
					<polygon class="st4" points="424.8,310 423.3,309.6 423.1,310.2 424.7,310.6 					"/>
					<polygon class="st4" points="425.1,308.9 423.5,308.6 423.4,309.2 424.9,309.5 					"/>
				</g>
				<g>
					<polygon class="st4" points="423,317.2 421.5,316.8 421.3,317.4 422.9,317.8 					"/>
					<polygon class="st4" points="423.3,316.2 421.8,315.8 421.6,316.4 423.2,316.8 					"/>
					<polygon class="st4" points="423.6,315.2 422,314.8 421.9,315.4 423.4,315.8 					"/>
				</g>
				<g>
					<polygon class="st4" points="109.5,321.8 108,322.2 107.8,321.6 109.4,321.2 					"/>
					<polygon class="st4" points="109.9,322.8 108.3,323.2 108.2,322.7 109.7,322.2 					"/>
					<polygon class="st4" points="110.2,323.8 108.6,324.2 108.5,323.7 110,323.2 					"/>
				</g>
				<g>
					<polygon class="st4" points="106.3,316 107.8,315.6 107.7,315.1 106.1,315.5 					"/>
					<polygon class="st4" points="106.6,317.1 108.1,316.7 108,316.1 106.4,316.5 					"/>
					<polygon class="st4" points="106.8,318.1 108.4,317.7 108.2,317.1 106.7,317.5 					"/>
				</g>
				<g>
					<polygon class="st4" points="104.8,309.8 106.4,309.5 106.2,308.9 104.7,309.2 					"/>
					<polygon class="st4" points="105,310.9 106.6,310.5 106.5,309.9 104.9,310.3 					"/>
					<polygon class="st4" points="105.3,311.9 106.8,311.5 106.7,310.9 105.1,311.3 					"/>
				</g>
				<g>
					<polygon class="st4" points="103.5,303.5 105.1,303.2 105,302.7 103.4,302.9 					"/>
					<polygon class="st4" points="103.7,304.6 105.3,304.3 105.2,303.7 103.6,304 					"/>
					<polygon class="st4" points="103.9,305.6 105.5,305.3 105.4,304.7 103.8,305 					"/>
				</g>
				<g>
					<polygon class="st4" points="102.5,297.2 104,297 104,296.4 102.4,296.6 					"/>
					<polygon class="st4" points="102.6,298.3 104.2,298 104.1,297.4 102.5,297.7 					"/>
					<polygon class="st4" points="102.8,299.3 104.4,299.1 104.3,298.5 102.7,298.7 					"/>
				</g>
				<g>
					<polygon class="st4" points="101.6,290.9 103.2,290.7 103.2,290.1 101.6,290.3 					"/>
					<polygon class="st4" points="101.8,291.9 103.3,291.7 103.3,291.1 101.7,291.3 					"/>
					<polygon class="st4" points="101.9,293 103.5,292.8 103.4,292.2 101.8,292.4 					"/>
				</g>
				<g>
					<polygon class="st4" points="101,284.5 102.6,284.4 102.6,283.8 101,283.9 					"/>
					<polygon class="st4" points="101.1,285.5 102.7,285.4 102.7,284.8 101.1,284.9 					"/>
					<polygon class="st4" points="101.2,286.6 102.8,286.5 102.8,285.9 101.2,286 					"/>
				</g>
				<g>
					<polygon class="st4" points="100.7,278.1 102.3,278 102.2,277.4 100.6,277.5 					"/>
					<polygon class="st4" points="100.7,279.1 102.3,279.1 102.3,278.5 100.7,278.5 					"/>
					<polygon class="st4" points="100.8,280.2 102.4,280.1 102.3,279.5 100.7,279.6 					"/>
				</g>
				<g>
					<polygon class="st4" points="100.5,271.7 102.1,271.7 102.1,271.1 100.5,271.1 					"/>
					<polygon class="st4" points="100.5,272.7 102.1,272.7 102.1,272.1 100.5,272.1 					"/>
					<polygon class="st4" points="100.5,273.8 102.1,273.8 102.1,273.2 100.5,273.2 					"/>
				</g>
				<g>
					<polygon class="st4" points="100.6,265.3 102.2,265.3 102.2,264.7 100.6,264.7 					"/>
					<polygon class="st4" points="100.6,266.3 102.2,266.4 102.2,265.8 100.6,265.7 					"/>
					<polygon class="st4" points="100.5,267.4 102.1,267.4 102.1,266.8 100.5,266.8 					"/>
				</g>
				<g>
					<polygon class="st4" points="100.9,258.9 102.5,259 102.5,258.4 100.9,258.3 					"/>
					<polygon class="st4" points="100.8,259.9 102.4,260 102.4,259.4 100.8,259.3 					"/>
					<polygon class="st4" points="100.7,261 102.3,261.1 102.4,260.5 100.8,260.4 					"/>
				</g>
				<g>
					<polygon class="st4" points="101.4,252.5 103,252.6 103,252 101.5,251.9 					"/>
					<polygon class="st4" points="101.3,253.5 102.9,253.7 102.9,253.1 101.4,252.9 					"/>
					<polygon class="st4" points="101.2,254.6 102.8,254.7 102.8,254.1 101.3,254 					"/>
				</g>
				<g>
					<polygon class="st4" points="102.1,246.1 103.7,246.3 103.8,245.7 102.2,245.5 					"/>
					<polygon class="st4" points="102,247.2 103.6,247.4 103.7,246.8 102.1,246.6 					"/>
					<polygon class="st4" points="101.9,248.2 103.5,248.4 103.5,247.8 101.9,247.6 					"/>
				</g>
				<g>
					<polygon class="st4" points="103.1,239.8 104.7,240 104.8,239.5 103.2,239.2 					"/>
					<polygon class="st4" points="102.9,240.8 104.5,241.1 104.6,240.5 103,240.2 					"/>
					<polygon class="st4" points="102.8,241.9 104.3,242.1 104.4,241.5 102.9,241.3 					"/>
				</g>
				<g>
					<polygon class="st4" points="104.3,233.5 105.9,233.8 106,233.2 104.4,232.9 					"/>
					<polygon class="st4" points="104.1,234.5 105.7,234.8 105.8,234.3 104.2,233.9 					"/>
					<polygon class="st4" points="103.9,235.6 105.5,235.9 105.6,235.3 104,235 					"/>
				</g>
				<g>
					<polygon class="st4" points="105.7,227.2 107.3,227.6 107.4,227 105.9,226.6 					"/>
					<polygon class="st4" points="105.5,228.3 107,228.6 107.2,228.1 105.6,227.7 					"/>
					<polygon class="st4" points="105.2,229.3 106.8,229.7 106.9,229.1 105.4,228.7 					"/>
				</g>
				<g>
					<polygon class="st4" points="107.4,221 108.9,221.5 109.1,220.9 107.5,220.5 					"/>
					<polygon class="st4" points="107.1,222.1 108.6,222.5 108.8,221.9 107.3,221.5 					"/>
					<polygon class="st4" points="106.8,223.1 108.3,223.5 108.5,222.9 107,222.5 					"/>
				</g>
				<g>
					<polygon class="st4" points="109.2,214.9 110.8,215.4 110.9,214.8 109.4,214.3 					"/>
					<polygon class="st4" points="108.9,215.9 110.4,216.4 110.6,215.8 109.1,215.3 					"/>
					<polygon class="st4" points="108.6,216.9 110.1,217.4 110.3,216.8 108.8,216.4 					"/>
				</g>
				<g>
					<polygon class="st4" points="111.3,208.8 112.8,209.4 113,208.8 111.5,208.3 					"/>
					<polygon class="st4" points="111,209.8 112.5,210.4 112.7,209.8 111.2,209.3 					"/>
					<polygon class="st4" points="110.6,210.8 112.1,211.4 112.3,210.8 110.8,210.3 					"/>
				</g>
				<g>
					<polygon class="st4" points="113.7,202.9 115.1,203.5 115.3,202.9 113.9,202.3 					"/>
					<polygon class="st4" points="113.3,203.8 114.7,204.4 115,203.9 113.5,203.3 					"/>
					<polygon class="st4" points="112.9,204.8 114.3,205.4 114.6,204.9 113.1,204.3 					"/>
				</g>
				<g>
					<polygon class="st4" points="116.2,197 117.6,197.6 117.9,197.1 116.4,196.4 					"/>
					<polygon class="st4" points="115.7,197.9 117.2,198.6 117.4,198 116,197.4 					"/>
					<polygon class="st4" points="115.3,198.9 116.8,199.5 117,199 115.6,198.4 					"/>
				</g>
				<g>
					<polygon class="st4" points="118.9,191.2 120.3,191.9 120.6,191.3 119.2,190.6 					"/>
					<polygon class="st4" points="118.4,192.1 119.9,192.8 120.1,192.3 118.7,191.6 					"/>
					<polygon class="st4" points="118,193.1 119.4,193.8 119.7,193.2 118.2,192.5 					"/>
				</g>
				<g>
					<polygon class="st4" points="121.9,185.5 123.3,186.2 123.5,185.7 122.1,185 					"/>
					<polygon class="st4" points="121.4,186.4 122.8,187.2 123,186.7 121.6,185.9 					"/>
					<polygon class="st4" points="120.9,187.4 122.3,188.1 122.6,187.6 121.1,186.8 					"/>
				</g>
				<g>
					<polygon class="st4" points="125,179.9 126.4,180.7 126.7,180.2 125.3,179.4 					"/>
					<polygon class="st4" points="124.5,180.8 125.9,181.6 126.2,181.1 124.8,180.3 					"/>
					<polygon class="st4" points="123.9,181.7 125.3,182.5 125.6,182 124.2,181.2 					"/>
				</g>
				<g>
					<polygon class="st4" points="128.4,174.4 129.7,175.3 130,174.8 128.7,173.9 					"/>
					<polygon class="st4" points="127.8,175.3 129.2,176.2 129.5,175.7 128.1,174.8 					"/>
					<polygon class="st4" points="127.2,176.2 128.6,177.1 128.9,176.6 127.6,175.7 					"/>
				</g>
				<g>
					<polygon class="st4" points="131.9,169.1 133.3,170 133.6,169.5 132.3,168.6 					"/>
					<polygon class="st4" points="131.3,170 132.7,170.9 133,170.4 131.7,169.5 					"/>
					<polygon class="st4" points="130.7,170.9 132.1,171.8 132.4,171.3 131.1,170.4 					"/>
				</g>
				<g>
					<polygon class="st4" points="135.7,163.9 137,164.9 137.3,164.4 136.1,163.4 					"/>
					<polygon class="st4" points="135.1,164.8 136.3,165.7 136.7,165.2 135.4,164.3 					"/>
					<polygon class="st4" points="134.4,165.6 135.7,166.6 136.1,166.1 134.8,165.1 					"/>
				</g>
				<g>
					<polygon class="st4" points="139.6,158.9 140.9,159.9 141.2,159.4 140,158.4 					"/>
					<polygon class="st4" points="139,159.7 140.2,160.7 140.6,160.2 139.3,159.2 					"/>
					<polygon class="st4" points="138.3,160.5 139.6,161.5 139.9,161.1 138.7,160.1 					"/>
				</g>
				<g>
					<polygon class="st4" points="143.8,154 145,155 145.4,154.6 144.2,153.5 					"/>
					<polygon class="st4" points="143.1,154.8 144.3,155.8 144.7,155.4 143.5,154.3 					"/>
					<polygon class="st4" points="142.4,155.6 143.6,156.6 144,156.2 142.8,155.1 					"/>
				</g>
				<g>
					<polygon class="st4" points="148.1,149.2 149.2,150.3 149.6,149.9 148.5,148.8 					"/>
					<polygon class="st4" points="147.4,150 148.5,151.1 148.9,150.7 147.8,149.6 					"/>
					<polygon class="st4" points="146.6,150.8 147.8,151.9 148.2,151.4 147,150.3 					"/>
				</g>
				<g>
					<polygon class="st4" points="152.6,144.6 153.7,145.8 154.1,145.4 153,144.2 					"/>
					<polygon class="st4" points="151.8,145.4 152.9,146.5 153.4,146.1 152.2,145 					"/>
					<polygon class="st4" points="151.1,146.1 152.2,147.3 152.6,146.9 151.5,145.7 					"/>
				</g>
				<g>
					<polygon class="st4" points="157.2,140.2 158.3,141.4 158.7,141 157.7,139.8 					"/>
					<polygon class="st4" points="156.4,141 157.5,142.1 158,141.7 156.9,140.6 					"/>
					<polygon class="st4" points="155.7,141.7 156.8,142.8 157.2,142.4 156.1,141.3 					"/>
				</g>
				<g>
					<polygon class="st4" points="162.1,136 163.1,137.2 163.5,136.9 162.5,135.6 					"/>
					<polygon class="st4" points="161.2,136.7 162.3,137.9 162.7,137.5 161.7,136.3 					"/>
					<polygon class="st4" points="160.4,137.4 161.5,138.6 161.9,138.2 160.9,137 					"/>
				</g>
				<g>
					<polygon class="st4" points="167,132 168,133.2 168.5,132.9 167.5,131.6 					"/>
					<polygon class="st4" points="166.2,132.6 167.2,133.9 167.6,133.5 166.7,132.3 					"/>
					<polygon class="st4" points="165.4,133.3 166.4,134.5 166.8,134.2 165.8,132.9 					"/>
				</g>
				<g>
					<polygon class="st4" points="172.2,128.1 173.1,129.4 173.6,129.1 172.7,127.8 					"/>
					<polygon class="st4" points="171.3,128.8 172.2,130.1 172.7,129.7 171.8,128.4 					"/>
					<polygon class="st4" points="170.4,129.4 171.4,130.7 171.9,130.3 170.9,129 					"/>
				</g>
				<g>
					<polygon class="st4" points="177.5,124.5 178.3,125.8 178.8,125.5 177.9,124.2 					"/>
					<polygon class="st4" points="176.6,125.1 177.5,126.4 177.9,126.1 177.1,124.8 					"/>
					<polygon class="st4" points="175.7,125.7 176.6,127 177.1,126.7 176.2,125.4 					"/>
				</g>
				<g>
					<polygon class="st4" points="182.9,121.1 183.7,122.5 184.2,122.1 183.4,120.8 					"/>
					<polygon class="st4" points="182,121.6 182.8,123 183.3,122.7 182.5,121.3 					"/>
					<polygon class="st4" points="181.1,122.2 181.9,123.6 182.4,123.2 181.6,121.9 					"/>
				</g>
				<g>
					<polygon class="st4" points="188.4,117.9 189.2,119.3 189.7,119 188.9,117.6 					"/>
					<polygon class="st4" points="187.5,118.4 188.3,119.8 188.8,119.5 188,118.1 					"/>
					<polygon class="st4" points="186.6,118.9 187.3,120.3 187.9,120 187.1,118.6 					"/>
				</g>
				<g>
					<polygon class="st4" points="194.1,114.9 194.8,116.3 195.3,116.1 194.6,114.6 					"/>
					<polygon class="st4" points="193.1,115.4 193.9,116.8 194.4,116.5 193.7,115.1 					"/>
					<polygon class="st4" points="192.2,115.9 192.9,117.3 193.4,117 192.7,115.6 					"/>
				</g>
				<g>
					<polygon class="st4" points="199.9,112.1 200.5,113.6 201.1,113.3 200.4,111.9 					"/>
					<polygon class="st4" points="198.9,112.6 199.6,114 200.1,113.8 199.4,112.3 					"/>
					<polygon class="st4" points="197.9,113 198.6,114.5 199.2,114.2 198.5,112.8 					"/>
				</g>
				<g>
					<polygon class="st4" points="205.8,109.6 206.4,111.1 206.9,110.9 206.3,109.4 					"/>
					<polygon class="st4" points="204.8,110 205.4,111.5 205.9,111.3 205.3,109.8 					"/>
					<polygon class="st4" points="203.8,110.4 204.4,111.9 205,111.7 204.3,110.2 					"/>
				</g>
				<g>
					<polygon class="st4" points="211.8,107.3 212.3,108.8 212.9,108.6 212.3,107.1 					"/>
					<polygon class="st4" points="210.8,107.7 211.3,109.2 211.9,109 211.3,107.5 					"/>
					<polygon class="st4" points="209.8,108.1 210.3,109.6 210.9,109.4 210.3,107.9 					"/>
				</g>
				<g>
					<polygon class="st4" points="217.8,105.3 218.3,106.8 218.9,106.6 218.4,105.1 					"/>
					<polygon class="st4" points="216.8,105.6 217.3,107.1 217.9,107 217.4,105.4 					"/>
					<polygon class="st4" points="215.8,105.9 216.3,107.5 216.9,107.3 216.4,105.8 					"/>
				</g>
				<g>
					<polygon class="st4" points="224,103.5 224.4,105.1 225,104.9 224.6,103.4 					"/>
					<polygon class="st4" points="223,103.8 223.4,105.3 224,105.2 223.5,103.6 					"/>
					<polygon class="st4" points="221.9,104.1 222.4,105.6 222.9,105.5 222.5,103.9 					"/>
				</g>
				<g>
					<polygon class="st4" points="230.2,102 230.6,103.5 231.1,103.4 230.8,101.8 					"/>
					<polygon class="st4" points="229.2,102.2 229.5,103.8 230.1,103.6 229.8,102.1 					"/>
					<polygon class="st4" points="228.1,102.5 228.5,104 229.1,103.9 228.7,102.3 					"/>
				</g>
				<g>
					<polygon class="st4" points="236.5,100.7 236.8,102.3 237.4,102.2 237.1,100.6 					"/>
					<polygon class="st4" points="235.5,100.9 235.7,102.5 236.3,102.4 236,100.8 					"/>
					<polygon class="st4" points="234.4,101.1 234.7,102.7 235.3,102.6 235,101 					"/>
				</g>
				<g>
					<polygon class="st4" points="242.8,99.7 243.1,101.3 243.6,101.2 243.4,99.6 					"/>
					<polygon class="st4" points="241.8,99.8 242,101.4 242.6,101.3 242.4,99.7 					"/>
					<polygon class="st4" points="240.7,100 241,101.6 241.5,101.5 241.3,99.9 					"/>
				</g>
				<g>
					<polygon class="st4" points="249.2,98.9 249.4,100.5 249.9,100.4 249.8,98.9 					"/>
					<polygon class="st4" points="248.1,99 248.3,100.6 248.9,100.6 248.7,99 					"/>
					<polygon class="st4" points="247.1,99.1 247.3,100.7 247.8,100.7 247.7,99.1 					"/>
				</g>
				<g>
					<polygon class="st4" points="255.6,98.4 255.7,100 256.3,100 256.2,98.4 					"/>
					<polygon class="st4" points="254.5,98.5 254.6,100.1 255.2,100 255.1,98.4 					"/>
					<polygon class="st4" points="253.5,98.6 253.6,100.1 254.2,100.1 254.1,98.5 					"/>
				</g>
				<g>
					<polygon class="st4" points="262,98.2 262,99.8 262.6,99.8 262.6,98.2 					"/>
					<polygon class="st4" points="260.9,98.2 261,99.8 261.6,99.8 261.5,98.2 					"/>
					<polygon class="st4" points="259.9,98.2 259.9,99.8 260.5,99.8 260.5,98.2 					"/>
				</g>
				<g>
					<polygon class="st4" points="268.4,98.2 268.4,99.8 269,99.8 269,98.2 					"/>
					<polygon class="st4" points="267.3,98.2 267.3,99.8 267.9,99.8 267.9,98.2 					"/>
					<polygon class="st4" points="266.3,98.2 266.3,99.8 266.8,99.8 266.9,98.2 					"/>
				</g>
				<g>
					<polygon class="st4" points="274.8,98.5 274.7,100.1 275.3,100.1 275.4,98.5 					"/>
					<polygon class="st4" points="273.7,98.4 273.7,100 274.2,100 274.3,98.4 					"/>
					<polygon class="st4" points="272.7,98.3 272.6,99.9 273.2,100 273.3,98.4 					"/>
				</g>
				<g>
					<polygon class="st4" points="281.2,99 281,100.6 281.6,100.6 281.8,99.1 					"/>
					<polygon class="st4" points="280.1,98.9 280,100.5 280.6,100.5 280.7,98.9 					"/>
					<polygon class="st4" points="279.1,98.8 278.9,100.4 279.5,100.4 279.7,98.8 					"/>
				</g>
				<g>
					<polygon class="st4" points="287.6,99.8 287.3,101.4 287.9,101.5 288.2,99.9 					"/>
					<polygon class="st4" points="286.5,99.6 286.3,101.2 286.9,101.3 287.1,99.7 					"/>
					<polygon class="st4" points="285.5,99.5 285.2,101.1 285.8,101.2 286,99.6 					"/>
				</g>
				<g>
					<polygon class="st4" points="293.9,100.8 293.6,102.4 294.2,102.5 294.5,100.9 					"/>
					<polygon class="st4" points="292.8,100.6 292.6,102.2 293.1,102.3 293.4,100.8 					"/>
					<polygon class="st4" points="291.8,100.5 291.5,102 292.1,102.1 292.4,100.6 					"/>
				</g>
				<g>
					<polygon class="st4" points="300.2,102.1 299.8,103.7 300.4,103.8 300.7,102.3 					"/>
					<polygon class="st4" points="299.1,101.9 298.8,103.5 299.4,103.6 299.7,102 					"/>
					<polygon class="st4" points="298.1,101.7 297.8,103.2 298.3,103.4 298.7,101.8 					"/>
				</g>
				<g>
					<polygon class="st4" points="306.4,103.7 306,105.3 306.5,105.4 307,103.9 					"/>
					<polygon class="st4" points="305.4,103.4 304.9,105 305.5,105.1 305.9,103.6 					"/>
					<polygon class="st4" points="304.3,103.2 303.9,104.7 304.5,104.9 304.9,103.3 					"/>
				</g>
				<g>
					<polygon class="st4" points="312.5,105.5 312,107.1 312.6,107.2 313.1,105.7 					"/>
					<polygon class="st4" points="311.5,105.2 311,106.7 311.6,106.9 312.1,105.4 					"/>
					<polygon class="st4" points="310.5,104.9 310,106.4 310.6,106.6 311.1,105.1 					"/>
				</g>
				<g>
					<polygon class="st4" points="318.6,107.6 318.1,109.1 318.6,109.3 319.2,107.8 					"/>
					<polygon class="st4" points="317.6,107.2 317.1,108.7 317.6,108.9 318.2,107.4 					"/>
					<polygon class="st4" points="316.6,106.9 316.1,108.4 316.6,108.6 317.2,107.1 					"/>
				</g>
				<g>
					<polygon class="st4" points="324.6,109.9 324,111.4 324.5,111.6 325.1,110.1 					"/>
					<polygon class="st4" points="323.6,109.5 323,111 323.5,111.2 324.1,109.7 					"/>
					<polygon class="st4" points="322.6,109.1 322,110.6 322.6,110.8 323.2,109.3 					"/>
				</g>
				<g>
					<polygon class="st4" points="330.5,112.5 329.8,113.9 330.3,114.1 331,112.7 					"/>
					<polygon class="st4" points="329.5,112 328.8,113.5 329.4,113.7 330,112.3 					"/>
					<polygon class="st4" points="328.5,111.6 327.9,113 328.4,113.3 329.1,111.8 					"/>
				</g>
				<g>
					<polygon class="st4" points="336.2,115.2 335.5,116.7 336,116.9 336.8,115.5 					"/>
					<polygon class="st4" points="335.3,114.8 334.6,116.2 335.1,116.4 335.8,115 					"/>
					<polygon class="st4" points="334.3,114.3 333.6,115.7 334.1,116 334.9,114.5 					"/>
				</g>
				<g>
					<polygon class="st4" points="341.9,118.2 341.1,119.6 341.6,119.9 342.4,118.5 					"/>
					<polygon class="st4" points="341,117.7 340.2,119.1 340.7,119.4 341.5,118 					"/>
					<polygon class="st4" points="340,117.2 339.3,118.6 339.8,118.9 340.5,117.5 					"/>
				</g>
				<g>
					<polygon class="st4" points="347.4,121.5 346.6,122.8 347.1,123.1 347.9,121.8 					"/>
					<polygon class="st4" points="346.5,120.9 345.7,122.3 346.2,122.6 347,121.2 					"/>
					<polygon class="st4" points="345.6,120.4 344.8,121.7 345.3,122.1 346.1,120.7 					"/>
				</g>
				<g>
					<polygon class="st4" points="352.8,124.9 351.9,126.2 352.4,126.6 353.3,125.2 					"/>
					<polygon class="st4" points="351.9,124.3 351,125.7 351.5,126 352.4,124.7 					"/>
					<polygon class="st4" points="351,123.7 350.2,125.1 350.7,125.4 351.5,124.1 					"/>
				</g>
				<g>
					<polygon class="st4" points="358.1,128.6 357.1,129.9 357.6,130.2 358.6,128.9 					"/>
					<polygon class="st4" points="357.2,128 356.3,129.3 356.8,129.6 357.7,128.3 					"/>
					<polygon class="st4" points="356.3,127.3 355.4,128.6 355.9,129 356.8,127.7 					"/>
				</g>
				<g>
					<polygon class="st4" points="363.2,132.4 362.2,133.7 362.7,134 363.7,132.8 					"/>
					<polygon class="st4" points="362.3,131.8 361.4,133 361.8,133.4 362.8,132.1 					"/>
					<polygon class="st4" points="361.5,131.1 360.5,132.4 361,132.8 362,131.5 					"/>
				</g>
				<g>
					<polygon class="st4" points="368.1,136.5 367.1,137.7 367.6,138.1 368.6,136.9 					"/>
					<polygon class="st4" points="367.3,135.8 366.3,137 366.8,137.4 367.8,136.2 					"/>
					<polygon class="st4" points="366.5,135.1 365.5,136.3 365.9,136.7 367,135.5 					"/>
				</g>
				<g>
					<polygon class="st4" points="372.9,140.7 371.9,141.9 372.3,142.3 373.4,141.1 					"/>
					<polygon class="st4" points="372.2,140 371.1,141.2 371.5,141.6 372.6,140.4 					"/>
					<polygon class="st4" points="371.4,139.3 370.3,140.5 370.7,140.9 371.8,139.7 					"/>
				</g>
				<g>
					<polygon class="st4" points="377.6,145.1 376.5,146.3 376.9,146.7 378,145.6 					"/>
					<polygon class="st4" points="376.8,144.4 375.7,145.5 376.1,145.9 377.2,144.8 					"/>
					<polygon class="st4" points="376.1,143.6 374.9,144.8 375.4,145.2 376.5,144.1 					"/>
				</g>
				<g>
					<polygon class="st4" points="382,149.7 380.9,150.8 381.3,151.2 382.5,150.2 					"/>
					<polygon class="st4" points="381.3,148.9 380.2,150 380.6,150.5 381.7,149.4 					"/>
					<polygon class="st4" points="380.6,148.2 379.4,149.3 379.8,149.7 381,148.6 					"/>
				</g>
				<g>
					<polygon class="st4" points="386.3,154.5 385.1,155.5 385.5,156 386.7,154.9 					"/>
					<polygon class="st4" points="385.6,153.7 384.4,154.7 384.8,155.2 386,154.1 					"/>
					<polygon class="st4" points="384.9,152.9 383.7,153.9 384.1,154.4 385.3,153.3 					"/>
				</g>
				<g>
					<polygon class="st4" points="390.4,159.4 389.2,160.4 389.6,160.8 390.8,159.8 					"/>
					<polygon class="st4" points="389.8,158.6 388.5,159.6 388.9,160 390.1,159 					"/>
					<polygon class="st4" points="389.1,157.7 387.9,158.8 388.2,159.2 389.5,158.2 					"/>
				</g>
				<g>
					<polygon class="st4" points="394.4,164.4 393.1,165.4 393.4,165.9 394.7,164.9 					"/>
					<polygon class="st4" points="393.7,163.6 392.4,164.6 392.8,165 394.1,164.1 					"/>
					<polygon class="st4" points="393.1,162.7 391.8,163.7 392.2,164.2 393.4,163.2 					"/>
				</g>
				<g>
					<polygon class="st4" points="398.1,169.7 396.8,170.6 397.1,171 398.4,170.1 					"/>
					<polygon class="st4" points="397.5,168.8 396.2,169.7 396.5,170.2 397.8,169.3 					"/>
					<polygon class="st4" points="396.9,167.9 395.6,168.8 395.9,169.3 397.2,168.4 					"/>
				</g>
				<g>
					<polygon class="st4" points="401.6,175 400.3,175.8 400.6,176.3 401.9,175.5 					"/>
					<polygon class="st4" points="401,174.1 399.7,175 400,175.5 401.4,174.6 					"/>
					<polygon class="st4" points="400.5,173.2 399.1,174.1 399.5,174.6 400.8,173.7 					"/>
				</g>
				<g>
					<polygon class="st4" points="405,180.5 403.6,181.3 403.9,181.8 405.3,181 					"/>
					<polygon class="st4" points="404.4,179.5 403,180.4 403.3,180.9 404.7,180.1 					"/>
					<polygon class="st4" points="403.9,178.6 402.5,179.4 402.8,180 404.2,179.1 					"/>
				</g>
				<g>
					<polygon class="st4" points="408.1,186 406.7,186.8 407,187.3 408.4,186.6 					"/>
					<polygon class="st4" points="407.6,185.1 406.2,185.9 406.5,186.4 407.9,185.6 					"/>
					<polygon class="st4" points="407.1,184.2 405.7,184.9 406,185.5 407.4,184.7 					"/>
				</g>
				<g>
					<polygon class="st4" points="411,191.7 409.6,192.4 409.8,193 411.3,192.3 					"/>
					<polygon class="st4" points="410.5,190.8 409.1,191.5 409.4,192 410.8,191.3 					"/>
					<polygon class="st4" points="410.1,189.8 408.6,190.6 408.9,191.1 410.3,190.4 					"/>
				</g>
				<g>
					<polygon class="st4" points="413.7,197.5 412.3,198.2 412.5,198.7 414,198.1 					"/>
					<polygon class="st4" points="413.3,196.6 411.8,197.2 412.1,197.8 413.5,197.1 					"/>
					<polygon class="st4" points="412.9,195.6 411.4,196.3 411.6,196.8 413.1,196.1 					"/>
				</g>
				<g>
					<polygon class="st4" points="416.2,203.4 414.8,204 415,204.6 416.5,204 					"/>
					<polygon class="st4" points="415.8,202.4 414.4,203.1 414.6,203.6 416.1,203 					"/>
					<polygon class="st4" points="415.4,201.5 414,202.1 414.2,202.6 415.7,202 					"/>
				</g>
				<g>
					<polygon class="st4" points="418.5,209.4 417,210 417.2,210.5 418.7,210 					"/>
					<polygon class="st4" points="418.2,208.4 416.7,209 416.9,209.5 418.4,209 					"/>
					<polygon class="st4" points="417.8,207.4 416.3,208 416.5,208.5 418,208 					"/>
				</g>
				<g>
					<polygon class="st4" points="420.6,215.5 419.1,216 419.2,216.5 420.8,216 					"/>
					<polygon class="st4" points="420.3,214.5 418.7,215 418.9,215.5 420.4,215 					"/>
					<polygon class="st4" points="419.9,213.5 418.4,214 418.6,214.5 420.1,214 					"/>
				</g>
				<g>
					<polygon class="st4" points="422.4,221.6 420.9,222 421.1,222.6 422.6,222.2 					"/>
					<polygon class="st4" points="422.1,220.6 420.6,221 420.8,221.6 422.3,221.2 					"/>
					<polygon class="st4" points="421.8,219.6 420.3,220 420.5,220.6 422,220.1 					"/>
				</g>
				<g>
					<polygon class="st4" points="424.1,227.8 422.5,228.2 422.6,228.8 424.2,228.4 					"/>
					<polygon class="st4" points="423.8,226.8 422.3,227.2 422.4,227.7 423.9,227.3 					"/>
					<polygon class="st4" points="423.5,225.7 422,226.1 422.1,226.7 423.7,226.3 					"/>
				</g>
				<g>
					<polygon class="st4" points="425.5,234.1 423.9,234.4 424,235 425.6,234.6 					"/>
					<polygon class="st4" points="425.2,233 423.7,233.3 423.8,233.9 425.4,233.6 					"/>
					<polygon class="st4" points="425,232 423.5,232.3 423.6,232.9 425.1,232.6 					"/>
				</g>
				<g>
					<polygon class="st4" points="426.6,240.4 425.1,240.6 425.2,241.2 426.7,240.9 					"/>
					<polygon class="st4" points="426.5,239.3 424.9,239.6 425,240.2 426.6,239.9 					"/>
					<polygon class="st4" points="426.3,238.3 424.7,238.5 424.8,239.1 426.4,238.8 					"/>
				</g>
				<g>
					<polygon class="st4" points="427.6,246.7 426,246.9 426.1,247.5 427.7,247.3 					"/>
					<polygon class="st4" points="427.4,245.6 425.9,245.9 425.9,246.4 427.5,246.2 					"/>
					<polygon class="st4" points="427.3,244.6 425.7,244.8 425.8,245.4 427.4,245.2 					"/>
				</g>
				<g>
					<polygon class="st4" points="428.3,253.1 426.7,253.2 426.8,253.8 428.4,253.7 					"/>
					<polygon class="st4" points="428.2,252 426.6,252.2 426.7,252.7 428.3,252.6 					"/>
					<polygon class="st4" points="428.1,250.9 426.5,251.1 426.6,251.7 428.2,251.5 					"/>
				</g>
				<g>
					<polygon class="st4" points="428.8,259.5 427.2,259.5 427.3,260.1 428.8,260 					"/>
					<polygon class="st4" points="428.7,258.4 427.1,258.5 427.2,259.1 428.8,259 					"/>
					<polygon class="st4" points="428.7,257.3 427.1,257.4 427.1,258 428.7,257.9 					"/>
				</g>
				<g>
					<polygon class="st4" points="429.1,265.9 427.5,265.9 427.5,266.5 429.1,266.4 					"/>
					<polygon class="st4" points="429.1,264.8 427.5,264.8 427.5,265.4 429.1,265.4 					"/>
					<polygon class="st4" points="429,263.7 427.4,263.8 427.4,264.4 429,264.3 					"/>
				</g>
			</g>
			<path class="st5" d="M265.3,111.7c-83.3,0-150.9,70.7-150.9,157.8c0,26.8,6.4,52,17.6,74.1h266.4c11.3-22.1,17.6-47.3,17.6-74.1
				C416.1,182.4,348.6,111.7,265.3,111.7z"/>
			<g>
				<path class="st6" d="M400.2,241.9c1.7,2,4.2,3,6.7,3.1c2.5,0.1,4.9-0.7,6.9-2.1c-2.1,1.1-4.5,1.7-6.8,1.4
					c-2.3-0.2-4.5-1.3-5.8-3.1c-0.3-0.4-0.5-0.8-0.7-1.2c1.8-0.4,3.6-1.4,4.8-2.9c0.8-1,1.4-2.3,1.4-3.7c0-0.7-0.2-1.5-0.6-2.1
					c-0.4-0.7-1.2-1.1-1.9-1.3c-0.7-0.2-1.5-0.1-2.2,0.1c-0.7,0.2-1.3,0.7-1.8,1.1c-1,1-1.6,2.2-1.9,3.5c-0.3,1.5-0.2,3,0.3,4.4
					c-0.1,0-0.2,0-0.2,0c-2.3,0.1-4.6-0.5-6.7-1.4c-2.2-0.9-4.2-2.1-6.1-3.6c1.7,1.7,3.7,3.1,5.8,4.3c2.2,1.1,4.6,1.9,7.1,1.9
					c0.2,0,0.4,0,0.7,0C399.4,240.8,399.7,241.4,400.2,241.9z M399.7,234.9c0.2-1,0.7-2,1.5-2.7c0.7-0.7,1.7-1.1,2.6-0.9
					c0.9,0.2,1.4,0.9,1.4,2c0,1-0.4,2-1,2.9c-0.6,0.9-1.5,1.6-2.5,2c-0.5,0.3-1.1,0.5-1.7,0.6C399.5,237.6,399.3,236.2,399.7,234.9z
					"/>
				<polygon class="st6" points="193.2,266.4 123.7,267.3 145.9,277.8 138.4,294.9 151.9,288.6 148.5,283.6 164.8,307.6 				"/>
				<path class="st6" d="M130.7,300.2c-1.9,1.3-3.9,2.6-6,3.6c-2,0.9-4.1,1.6-6.3,1.9c0.1,0.4,0.2,0.8,0.3,1.1
					c2.3-0.4,4.4-1.2,6.4-2.2c1.1-0.6,2.1-1.2,3.1-1.8c1-0.7,1.9-1.4,2.9-2.1c1.8-1.5,3.6-3.1,5.3-4.7
					C134.4,297.4,132.6,298.8,130.7,300.2z"/>
				<path class="st6" d="M336.8,327.2V202.8l2.4-0.9v-27.8l-2.4-0.9v-5.3l2.4-0.9v-14.7l-2.4-0.9v-3l2.4-0.9v-14.7l-2.4-0.9v-1.5
					c-21.3-12-45.6-18.8-71.5-18.8c-23.2,0-45.2,5.5-64.8,15.3v39.5H181c-2.4-5.9-8.2-10.1-15-10.1c-2.8,0-5.4,0.7-7.7,2
					c-2.6,2.7-5,5.5-7.4,8.4c-0.7,1.8-1.1,3.8-1.1,5.9c0,7.4,5,13.6,11.8,15.6v37c0,7.4,6,13.4,13.4,13.4h25.6v88.6
					c0,6.5,3.4,12.6,8.7,16.4h118.7C333.3,340,336.8,334,336.8,327.2z"/>
				<polygon class="st6" points="346.2,213.6 365.8,242.1 374.7,228.9 384.1,233.3 378.9,221.5 394.2,214.2 				"/>
			</g>
			<line class="st7" x1="411.3" y1="343.7" x2="119.2" y2="343.7"/>
			<g>
				<g>
					<g>
						<g>
							<g>
								<g>
									<g>
										<g>
											<g>
												<g>
													<g>
														<g>
															<path class="st8" d="M218.3,379.6l100.8,0c12.2-0.1,22.5-10.4,22.4-22.6l-1.1-253.9c-0.1-12.2-10-22-22.2-22
																L217,81.6c-12.2,0.1-22,10-22,22.2l1.1,253.9C196.2,369.8,206.1,379.6,218.3,379.6z"/>
														</g>
													</g>
												</g>
											</g>
										</g>
									</g>
								</g>
							</g>
						</g>
					</g>
				</g>
				<path class="st9" d="M201.1,115.3l0-11.5c0-0.3,0-0.5,0-0.8c0.4-8.3,7.2-14.8,15.5-14.9l4.9,0l0.7,0l14.3-0.1
					c0.5,0,1,0.1,1.4,0.2c2,0.6,3.4,2.5,3.4,4.8l0,3.6c0,0.2,0,0.4,0,0.6c0,0.1,0,0.1,0,0.2c0,0.1,0,0.3,0.1,0.4c0,0.1,0,0.1,0,0.2
					c0,0.1,0.1,0.3,0.1,0.4c0,0.1,0,0.1,0.1,0.2c0.1,0.2,0.1,0.3,0.2,0.5c0,0,0,0,0,0c0.1,0.2,0.2,0.3,0.3,0.5c0,0,0,0,0,0.1
					c0.1,0.1,0.2,0.3,0.3,0.4c0,0,0.1,0.1,0.1,0.1c0.1,0.1,0.2,0.2,0.3,0.3c0,0,0,0,0.1,0.1c0.1,0.1,0.3,0.2,0.4,0.3
					c0.4,0.3,0.9,0.6,1.5,0.7c0,0,0,0,0,0c0.2,0,0.4,0.1,0.5,0.1c0.2,0,0.5,0.1,0.7,0.1l21.6-0.1l0.7,0l16.3-0.1
					c2.7,0,4.8-2.3,4.8-5.1l0-3.6l0,0v0c0-2.8,2.1-5.1,4.8-5.1l2.6,0l0.4,0l4,0l17.4-0.1c6,0,11.2,3.3,13.8,8.2c0,0,0,0,0,0
					c0.1,0.2,0.2,0.4,0.3,0.7c0,0,0,0,0,0.1c0.1,0.2,0.2,0.4,0.3,0.6c0,0,0,0.1,0,0.1c0.1,0.2,0.2,0.4,0.2,0.6c0,0.1,0,0.1,0.1,0.2
					c0.1,0.2,0.1,0.4,0.2,0.5c0,0.1,0,0.2,0.1,0.2c0,0.2,0.1,0.3,0.1,0.5c0,0.1,0,0.2,0.1,0.3c0,0.2,0.1,0.3,0.1,0.5
					c0,0.1,0,0.2,0.1,0.3c0,0.1,0.1,0.3,0.1,0.4c0,0.1,0,0.3,0.1,0.4c0,0.1,0,0.2,0,0.4c0,0.2,0,0.4,0,0.5c0,0.1,0,0.2,0,0.3
					c0,0.3,0,0.5,0,0.8l0.1,16.2l0,0.2l0.1,12.5l0.1,23.6l0,3.7l0,10.2l0.2,36.8l0.2,38.2l0,1.3l0.3,69.1l0,0.8l0,3l0.1,35.2
					c0,6-3.3,11.2-8.2,13.8c0,0,0,0,0,0c-0.2,0.1-0.4,0.2-0.6,0.3c0,0,0,0-0.1,0c-0.2,0.1-0.4,0.2-0.6,0.3c0,0-0.1,0-0.1,0
					c-0.2,0.1-0.4,0.2-0.6,0.2c-0.1,0-0.1,0-0.2,0.1c-0.2,0.1-0.4,0.1-0.5,0.2c-0.1,0-0.2,0-0.2,0.1c-0.2,0-0.3,0.1-0.5,0.1
					c-0.1,0-0.2,0-0.3,0.1c-0.2,0-0.3,0.1-0.5,0.1c-0.1,0-0.2,0-0.3,0.1c-0.1,0-0.3,0.1-0.4,0.1c-0.1,0-0.3,0-0.4,0.1
					c-0.1,0-0.2,0-0.4,0c-0.2,0-0.3,0-0.5,0c-0.1,0-0.2,0-0.3,0c-0.3,0-0.5,0-0.8,0L217.8,370c-0.3,0-0.5,0-0.8,0
					c-5.6-0.3-10.4-3.5-13-8.1c-0.4-0.7-0.7-1.4-0.9-2.1c-0.2-0.5-0.3-1-0.5-1.5c-0.3-1.2-0.5-2.6-0.5-3.9l-0.1-23.6l-0.3-62.2
					l0-0.5l0-2.3l-0.1-15l0-1.8l0-6.8l-0.1-31l0-1.2l0-2.8l-0.1-15.8l0-2.2l-0.1-15.7l0-2.7l0-3.2l0-9.7l0-2.3l0-8.4l0-0.8l0-9.3
					l0-1.5l-0.1-15.1l0-4.7L201.1,115.3z"/>
				<g>
					<defs>
						<path id="SVGID_3_" d="M201.9,115.6l0-11.4c0-0.3,0-0.5,0-0.8c0.4-8.2,7.1-14.7,15.4-14.7l4.8,0l0.7,0l14.1-0.1
							c0.5,0,1,0.1,1.4,0.2c1.9,0.6,3.4,2.5,3.4,4.7l0,3.6c0,0.2,0,0.4,0,0.6c0,0.1,0,0.1,0,0.2c0,0.1,0,0.3,0.1,0.4
							c0,0.1,0,0.1,0,0.2c0,0.1,0.1,0.3,0.1,0.4c0,0,0,0.1,0.1,0.1c0.1,0.2,0.1,0.3,0.2,0.5c0,0,0,0,0,0c0.1,0.2,0.2,0.3,0.3,0.5
							c0,0,0,0,0,0.1c0.1,0.1,0.2,0.3,0.3,0.4c0,0,0.1,0.1,0.1,0.1c0.1,0.1,0.2,0.2,0.3,0.3c0,0,0,0,0.1,0.1
							c0.1,0.1,0.3,0.2,0.4,0.3c0.4,0.3,0.9,0.6,1.5,0.7c0,0,0,0,0,0c0.2,0,0.4,0.1,0.5,0.1c0.2,0,0.5,0.1,0.7,0.1l21.4-0.1l0.7,0
							l16.1-0.1c2.6,0,4.8-2.3,4.7-5l0-3.6l0,0v0c0-2.8,2.1-5,4.7-5l2.6,0l0.4,0l3.9,0l17.2-0.1c5.9,0,11,3.3,13.7,8.1c0,0,0,0,0,0
							c0.1,0.2,0.2,0.4,0.3,0.7c0,0,0,0,0,0.1c0.1,0.2,0.2,0.4,0.3,0.6c0,0,0,0.1,0,0.1c0.1,0.2,0.2,0.4,0.2,0.6
							c0,0.1,0,0.1,0.1,0.2c0.1,0.2,0.1,0.4,0.2,0.5c0,0.1,0,0.2,0.1,0.2c0,0.2,0.1,0.3,0.1,0.5c0,0.1,0,0.2,0.1,0.3
							c0,0.1,0.1,0.3,0.1,0.5c0,0.1,0,0.2,0.1,0.3c0,0.1,0.1,0.3,0.1,0.4c0,0.1,0,0.3,0.1,0.4c0,0.1,0,0.2,0,0.3c0,0.2,0,0.3,0,0.5
							c0,0.1,0,0.2,0,0.3c0,0.3,0,0.5,0,0.8l0.1,16l0,0.2l0.1,12.4l0.1,23.3l0,3.6l0,10l0.2,36.3l0.2,37.8l0,1.3l0.3,68.3l0,0.8l0,3
							l0.1,34.8c0,5.9-3.3,11.1-8.1,13.7c0,0,0,0,0,0c-0.2,0.1-0.4,0.2-0.6,0.3c0,0,0,0-0.1,0c-0.2,0.1-0.4,0.2-0.6,0.3
							c0,0-0.1,0-0.1,0c-0.2,0.1-0.4,0.2-0.6,0.2c-0.1,0-0.1,0-0.2,0.1c-0.2,0.1-0.3,0.1-0.5,0.2c-0.1,0-0.2,0-0.2,0.1
							c-0.2,0-0.3,0.1-0.5,0.1c-0.1,0-0.2,0-0.3,0.1c-0.1,0-0.3,0.1-0.4,0.1c-0.1,0-0.2,0-0.3,0.1c-0.1,0-0.3,0.1-0.4,0.1
							c-0.1,0-0.3,0-0.4,0.1c-0.1,0-0.2,0-0.4,0c-0.2,0-0.3,0-0.5,0c-0.1,0-0.2,0-0.3,0c-0.3,0-0.5,0-0.8,0l-101.1,0.5
							c-0.3,0-0.5,0-0.8,0c-5.5-0.3-10.3-3.4-12.8-8c-0.4-0.7-0.7-1.3-0.9-2c-0.2-0.5-0.3-1-0.5-1.4c-0.3-1.2-0.5-2.5-0.5-3.9
							l-0.1-23.3l-0.3-61.6l0-0.5l0-2.3l-0.1-14.8l0-1.8l0-6.7l-0.1-30.7l0-1.2l0-2.8l-0.1-15.6l0-2.2l-0.1-15.5l0-2.6l0-3.1l0-9.6
							l0-2.2l0-8.3l0-0.7l0-9.2l0-1.5l-0.1-14.9l0-4.6L201.9,115.6z"/>
					</defs>
					<clipPath id="SVGID_4_">
						<use xlink:href="#SVGID_3_"  style="overflow:visible;"/>
					</clipPath>
					<g class="st10">
						<g>
							
								<rect x="198.5" y="86.5" transform="matrix(-1 -4.489976e-11 4.489976e-11 -1 550.7574 188.3972)" class="st11" width="153.7" height="15.4"/>
							
								<rect x="198.5" y="119.1" transform="matrix(-1 -4.489976e-11 4.489976e-11 -1 550.7574 245.9417)" class="st11" width="153.7" height="7.7"/>
							
								<rect x="198.5" y="138.1" transform="matrix(-1 -4.489399e-11 4.489399e-11 -1 550.7574 283.8051)" class="st11" width="153.7" height="7.7"/>
							
								<rect x="198.5" y="157" transform="matrix(-1 -4.489399e-11 4.489399e-11 -1 550.7574 321.6685)" class="st11" width="153.7" height="7.7"/>
							
								<rect x="198.5" y="175.9" transform="matrix(-1 -4.489976e-11 4.489976e-11 -1 550.7574 359.5318)" class="st11" width="153.7" height="7.7"/>
							
								<rect x="198.5" y="194.9" transform="matrix(-1 -4.490598e-11 4.490598e-11 -1 550.7574 397.3953)" class="st11" width="153.7" height="7.7"/>
							
								<rect x="198.5" y="213.8" transform="matrix(-1 -4.491175e-11 4.491175e-11 -1 550.7574 435.2587)" class="st11" width="153.7" height="7.7"/>
							
								<rect x="198.5" y="232.7" transform="matrix(-1 -4.489976e-11 4.489976e-11 -1 550.7574 473.122)" class="st11" width="153.7" height="7.7"/>
							
								<rect x="198.5" y="251.6" transform="matrix(-1 -4.488821e-11 4.488821e-11 -1 550.7574 510.9855)" class="st11" width="153.7" height="7.7"/>
							
								<rect x="198.5" y="270.6" transform="matrix(-1 -4.489976e-11 4.489976e-11 -1 550.7574 548.8489)" class="st11" width="153.7" height="7.7"/>
							
								<rect x="198.5" y="289.5" transform="matrix(-1 -4.488821e-11 4.488821e-11 -1 550.7574 586.7122)" class="st11" width="153.7" height="7.7"/>
							
								<rect x="198.5" y="308.4" transform="matrix(-1 -4.487622e-11 4.487622e-11 -1 550.7574 624.5757)" class="st11" width="153.7" height="7.7"/>
							
								<rect x="253.4" y="327.4" transform="matrix(-1 -4.490287e-11 4.490287e-11 -1 605.6985 662.439)" class="st11" width="98.8" height="7.7"/>
							
								<rect x="292.6" y="346.3" transform="matrix(-1 -4.487045e-11 4.487045e-11 -1 644.8687 700.3024)" class="st11" width="59.6" height="7.7"/>
						</g>
						<g>
							<path class="st9" d="M195.6,54.9l171.7,287v10.6c0,10.2-8.2,18.4-18.4,18.4h-31.7L185.5,151V68.5
								C185.5,62.1,189.8,56.7,195.6,54.9z"/>
							<path class="st9" d="M226.5,54.3c0,0,8.8,12.5,13.2,12.5h62.3L367.2,176v142L209.5,54.3H226.5z"/>
							<polygon class="st9" points="258.3,370.9 185.5,249.3 185.5,175 302.8,370.9 							"/>
						</g>
					</g>
				</g>
				<g>
					<path class="st12" d="M341.1,261.6v38.3c0,0,30.3,45.1,30.5,37.2c0.3-7.9,7.6-45,4.6-48.7c-3-3.7-26.9-34.7-26.9-34.7
						L341.1,261.6z"/>
					<path class="st13" d="M294.9,239c23.1,1,24,39.6,37.8,54.7c6.9,7.5,13.3,8.1,18.2,6.5c7.5-2.4,11-11,7.8-18.1
						c-5-11-17.7-20.5-17.7-20.5v-27.5l38.9,34.5c5,4.5,8.4,10.5,9.6,17.1c9.6,52.6-8.4,143.3-8.4,143.3s-34.5,13.7-72.5,0l9.5-43.4
						c-21.2-22.2-18.5-73.6-19.6-94.8c-0.8-16.2-5.6-37.6-7.9-46.8C290.2,241.4,292.3,238.9,294.9,239z"/>
					<path class="st14" d="M292.2,244.6l2.6,9.7c0.3,1.2,1.4,2,2.6,2.1c2.3,0.1,5.8-0.1,7-2.3c1.7-3.3-3.7-9.9-5.5-11.3
						C297.1,241.3,291.7,242.6,292.2,244.6z"/>
				</g>
			</g>
			<g>
				<g>
					<path class="st15" d="M205.6,220.5c0,0,10.5,38.3,58.1,33.7c0,0-23.8-4-23.8-33.7H205.6z"/>
					<path class="st15" d="M253.6,234.1h-79c-9.8,0-17.7-7.9-17.7-17.7v-36.7c0-9.8,7.9-17.7,17.7-17.7h79c9.8,0,17.7,7.9,17.7,17.7
						v36.7C271.3,226.2,263.4,234.1,253.6,234.1z"/>
				</g>
				<g>
					<g>
						<g>
							<rect x="185.8" y="184.4" class="st16" width="56.6" height="40.7"/>
							<g>
								<rect x="193.1" y="171" class="st9" width="42.1" height="52.1"/>
								<g>
									<rect x="197.8" y="176.7" class="st17" width="32.7" height="3.1"/>
									<rect x="197.8" y="183" class="st17" width="32.7" height="3.1"/>
									<rect x="197.8" y="189.2" class="st17" width="32.7" height="3.1"/>
									<rect x="197.8" y="195.5" class="st17" width="32.7" height="3.1"/>
									<rect x="197.8" y="201.8" class="st17" width="32.7" height="3.1"/>
									<rect x="197.8" y="208.1" class="st17" width="32.7" height="3.1"/>
									<rect x="197.8" y="214.4" class="st17" width="32.7" height="3.1"/>
								</g>
							</g>
							<polygon class="st18" points="198.5,203.5 185.8,184.4 185.8,225.1 242.4,225.1 242.4,184.4 229.8,203.5 							"/>
							<polygon class="st18" points="242.4,225.1 185.8,225.1 198.5,203.5 229.8,203.5 							"/>
							<g>
								<path class="st16" d="M185.8,225.1c1-1.9,1.9-3.7,2.9-5.5c1-1.8,2-3.7,3-5.5l3-5.5c1-1.8,2-3.7,3.1-5.5l0.2-0.4l0.4,0
									c5.2-0.1,10.4-0.1,15.7-0.1c5.2,0,10.4,0,15.6,0.1l0.4,0l0.2,0.4c2.1,3.6,4.1,7.3,6.1,10.9c1,1.8,2,3.7,3,5.5
									c1,1.8,2,3.7,2.9,5.5c-1.2-1.7-2.3-3.5-3.4-5.3c-1.1-1.8-2.3-3.5-3.3-5.3c-2.2-3.6-4.4-7.1-6.6-10.7l0.6,0.4
									c-5.2,0.1-10.4,0.1-15.6,0.1c-5.2,0-10.4,0-15.7-0.1l0.6-0.4c-1.1,1.8-2.2,3.6-3.3,5.3l-3.3,5.3c-1.1,1.8-2.2,3.5-3.3,5.3
									C188.1,221.6,187,223.3,185.8,225.1z"/>
							</g>
						</g>
					</g>
				</g>
				<g>
					
						<ellipse transform="matrix(0.9239 -0.3827 0.3827 0.9239 -52.0588 74.5615)" class="st19" cx="161.4" cy="168.1" rx="15.5" ry="15.5"/>
					<text transform="matrix(1 0 0 1 154.0518 175.5527)" class="st15 st20 st21">3</text>
				</g>
			</g>
			<g>
				<g>
					<polygon class="st22" points="143.7,278.5 187.1,258.2 161.6,301.3 					"/>
					<polygon class="st23" points="134.4,290.5 143.7,278.5 147.5,283.3 					"/>
					<polygon class="st24" points="140.8,272.9 134.4,290.5 143.7,278.5 187.1,258.2 					"/>
					<polygon class="st9" points="117.9,263.9 140.8,272.9 187.1,258.2 					"/>
				</g>
				<g>
					<path class="st24" d="M132.4,291.6c-1.6,1.8-3.2,3.5-4.9,5.1c-0.9,0.8-1.8,1.6-2.7,2.4c-0.9,0.7-1.9,1.4-2.9,2.1
						c-2,1.3-4.3,2.3-6.7,2.8c-2.4,0.5-4.9,0.5-7.4,0c-2.4-0.5-4.8-1.7-6.6-3.5c-1.8-1.8-3-4.4-3-7c0-1.3,0.3-2.7,1-3.9
						c0.7-1.2,1.7-2.1,2.8-2.8c0.6-0.3,1.1-0.7,1.8-0.9c0.6-0.2,1.4-0.4,2.2-0.3c0.8,0.1,1.6,0.6,2.1,1.2c0.5,0.7,0.7,1.4,0.8,2l0,0
						c0,0.2,0,0.4-0.1,0.6c-0.7,1.2-1.8,2.3-3.1,2.9c-1.3,0.6-2.7,0.8-4.1,0.8c-2.7-0.1-5.2-0.9-7.5-2c-2.3-1.1-4.5-2.5-6.5-4.1
						c-2-1.6-3.8-3.4-5.3-5.4c1.7,1.9,3.6,3.5,5.7,4.9c2.1,1.4,4.3,2.6,6.6,3.5c2.3,0.9,4.7,1.6,7.1,1.5c1.2,0,2.3-0.3,3.3-0.8
						c1-0.5,1.7-1.3,2.3-2.3l-0.1,0.6c-0.1-0.5-0.3-0.9-0.5-1.2c-0.2-0.3-0.5-0.4-0.9-0.5c-0.8-0.1-1.8,0.3-2.7,0.9
						c-0.9,0.6-1.7,1.3-2.2,2.1c-0.5,0.8-0.7,1.8-0.7,2.9c0,2.1,0.9,4.1,2.4,5.7c1.5,1.5,3.5,2.6,5.6,3.1c2.2,0.5,4.4,0.6,6.7,0.2
						c2.2-0.4,4.4-1.3,6.4-2.3c2-1.1,3.9-2.5,5.8-3.9C128.9,294.7,130.6,293.2,132.4,291.6z"/>
				</g>
			</g>
			<g>
				<g>
					<polygon class="st22" points="372.9,220.7 343.1,206.3 360.3,236.3 					"/>
					<polygon class="st23" points="379.2,229.1 372.9,220.7 370.2,224 					"/>
					<polygon class="st24" points="375,216.9 379.2,229.1 372.9,220.7 343.1,206.3 					"/>
					<polygon class="st9" points="390.9,210.9 375,216.9 343.1,206.3 					"/>
				</g>
				<g>
					<path class="st24" d="M380.5,230c1.8,1.6,3.8,3,5.9,4c2.1,1.1,4.3,1.8,6.6,1.8c1.1,0,2.2-0.2,3.2-0.6c1-0.4,1.9-1,2.6-1.8
						c0.7-0.8,1.2-1.7,1.2-2.6c0.1-0.9-0.3-1.6-1-1.8c-0.8-0.3-1.6,0-2.4,0.6c-0.8,0.6-1.3,1.5-1.7,2.5c-0.7,2-0.3,4.3,0.8,6.2
						c1.1,1.8,3.2,3.1,5.4,3.6c2.2,0.5,4.7,0.2,6.9-0.7c-2,1.3-4.5,1.9-7,1.6c-2.5-0.2-5-1.5-6.5-3.7c-1.5-2.1-2.1-4.9-1.3-7.6
						c0.4-1.3,1.1-2.5,2.2-3.4c0.5-0.5,1.2-0.8,1.9-1c0.8-0.2,1.6-0.2,2.3,0.1c0.8,0.2,1.5,0.8,1.9,1.6c0.4,0.7,0.5,1.6,0.4,2.3
						c-0.1,1.5-0.8,2.8-1.8,3.8c-1.9,2-4.7,2.9-7.2,2.6c-2.6-0.2-4.9-1.2-7-2.5C383.8,233.5,382,231.9,380.5,230z"/>
				</g>
			</g>
			<g>
				<circle class="st25" cx="249.9" cy="90.5" r="2.8"/>
				<circle class="st25" cx="282.2" cy="90.5" r="2.8"/>
				<path class="st25" d="M272.1,91.2h-11c-0.6,0-1-0.4-1-1v-0.1c0-0.5,0.4-1,1-1h11c0.5,0,1,0.5,1,1v0.1
					C273.1,90.7,272.7,91.2,272.1,91.2z"/>
			</g>
			<g>
				<path class="st26" d="M402.5,94.7l-1.5,11.1l7.9-5.8l24.2-12.4l-18.7,1.7c0,0-9.5,2.3-10.1,2.8
					C403.9,92.6,402.5,94.7,402.5,94.7z"/>
				<polygon class="st27" points="394.2,87.9 433.2,87.6 402.5,94.7 				"/>
				<polygon class="st27" points="415,105.9 404.8,97.7 433.2,87.6 				"/>
				<g>
					<g>
						<g>
							<path class="st28" d="M278.2,182.3c-1.3,0-2.3-0.2-3.1-0.6l0.3-0.6c0.7,0.3,1.7,0.5,2.9,0.6L278.2,182.3z"/>
						</g>
						<g>
							<path class="st28" d="M284.4,181.5l-0.2-0.7c1.8-0.4,3.8-1,5.9-1.8l0.2,0.6C288.3,180.5,286.3,181.1,284.4,181.5z
								 M296.3,177.4l-0.3-0.6c2-0.9,3.9-1.8,5.6-2.7l0.3,0.6C300.3,175.6,298.3,176.5,296.3,177.4z M307.2,171.1l-0.5-0.5
								c1.4-1.4,2.7-3.1,3.7-4.9l0.6,0.3C309.9,168,308.6,169.7,307.2,171.1z M320.1,168.6c-2.2,0.1-4.3-0.2-6.3-0.8l0.2-0.7
								c1.9,0.5,4,0.8,6.1,0.7L320.1,168.6z M326.3,167.5l-0.2-0.6c2-0.6,3.8-1.6,5.5-2.7l0.4,0.6
								C330.2,165.9,328.3,166.9,326.3,167.5z M308.1,165.1c-1.8-1.2-3.3-2.8-4.5-4.5l0.6-0.4c1.1,1.6,2.6,3.1,4.3,4.3L308.1,165.1z
								 M336.6,160.4L336,160c1.1-1.4,2.1-3,3.4-5.2l0.6,0.3C338.7,157.4,337.7,159,336.6,160.4z M313.3,160.2l-0.7-0.2
								c0.5-2,0.7-4.1,0.7-6.1l0.7,0C314,156,313.8,158.1,313.3,160.2z M301.2,154.8c-0.1-0.4-0.1-0.8-0.1-1.2c0-0.1,0-0.2,0-0.3
								c-0.1-1.8,0.2-3.4,0.9-4.8l0.6,0.3c-0.6,1.3-0.9,2.8-0.8,4.5c0,0.1,0,0.2,0,0.3c0,0.4,0.1,0.8,0.1,1.1L301.2,154.8z
								 M343,149.7l-0.6-0.3l0.8-1.6c0.7-1.3,1.4-2.6,2.1-3.9l0.6,0.3c-0.7,1.3-1.4,2.6-2.1,3.9L343,149.7z M311.8,148.1
								c-0.8-1.4-1.9-2.3-3.2-2.6c-0.5-0.1-1-0.2-1.6-0.1l-0.1-0.7c0.6-0.1,1.2,0,1.8,0.1c1.5,0.4,2.7,1.4,3.6,3L311.8,148.1z
								 M349,138.7l-0.6-0.3c1.1-2,2.2-3.7,3.2-5.4l0.6,0.4C351.1,135,350.1,136.7,349,138.7z M355.5,128.1l-0.6-0.4
								c1.2-1.8,2.4-3.5,3.7-5.1l0.5,0.4C357.9,124.6,356.7,126.3,355.5,128.1z M363.1,118.3l-0.5-0.5c1.4-1.6,2.9-3.1,4.4-4.5
								l0.5,0.5C366,115.2,364.5,116.7,363.1,118.3z M372.3,109.9l-0.4-0.5c1.7-1.2,3.4-2.4,5.3-3.4l0.3,0.6
								C375.7,107.6,373.9,108.7,372.3,109.9z M383,103.7l-0.3-0.6c1.9-0.8,3.9-1.6,5.9-2.2l0.2,0.6
								C386.8,102.1,384.9,102.9,383,103.7z"/>
						</g>
						<g>
							<path class="st28" d="M394.8,99.9l-0.1-0.7c1-0.2,2-0.4,3-0.5l0.1,0.7C396.8,99.5,395.8,99.7,394.8,99.9z"/>
						</g>
					</g>
				</g>
			</g>
		</g>
	</g>
</g>
</svg>
