<svg xmlns="http://www.w3.org/2000/svg" xmlns:xlink="http://www.w3.org/1999/xlink" width="480" height="454" fill="none" xmlns:v="https://vecta.io/nano"><style><![CDATA[.g{fill:#000}.h{fill:#68a7f0}.i{fill:#fff}.j{fill:#37474f}.k{opacity:.15}.l{opacity:.85}.m{fill:#455a64}.n{opacity:.3}.o{opacity:.1}.p{opacity:.6}.q{fill:#e0e0e0}.r{fill:#263238}.s{fill:#f07a79}.t{fill:#e75151}.u{fill:#79b48d}.v{fill:#637386}]]></style><g opacity=".9"><path d="M240 453.69c132.355 0 239.65-61.475 239.65-137.31S372.355 179.07 240 179.07.35 240.546.35 316.38 107.645 453.69 240 453.69z" fill="#f5f5f5" class="l"/><path d="M42.46 365.6c11.615 0 21.03-5.435 21.03-12.14s-9.416-12.14-21.03-12.14-21.03 5.435-21.03 12.14 9.415 12.14 21.03 12.14zm52.26 35.62c11.615 0 21.03-5.435 21.03-12.14s-9.415-12.14-21.03-12.14-21.03 5.435-21.03 12.14 9.415 12.14 21.03 12.14zM360.94 328c-23.93-13.82-62.72-13.82-86.65 0-20.29 11.67-23.36 29.54-9.29 43.13-.795.215-1.561.527-2.28.93l-75.55 43.64c-3.21 1.85-3.21 4.85 0 6.71l4.73 2.73c1.779.905 3.756 1.35 5.751 1.294s3.944-.611 5.669-1.614l70.4-46.07c.284-.195.555-.409.81-.64 23.94 13.68 62.56 13.64 86.41-.13s23.92-36.21 0-49.98z" fill="#e6e6e6" class="l"/><g class="q"><path d="M438.045 283.04c13.882 7.998 13.992 21.208.315 29.513s-36.006 8.545-49.866.546-13.999-21.208-.307-29.505 36.006-8.575 49.858-.554z" class="l"/><g class="l"><path d="M259.131 52.459L48.495 173.514l.53.922L259.661 53.381l-.53-.922zm-1.123 24.64L48.419 198.3l.531.917L258.539 78.016l-.531-.918zm.022 25.425L48.399 223.652l.53.918L258.56 103.441l-.53-.917zm1.106 26.393L48.5 249.972l.53.922 210.636-121.055-.53-.922zm-1.106 24.438L48.399 274.483l.53.918 209.632-121.128-.531-.918zm.008 25.42L48.407 299.903l.53.918 209.631-121.129-.53-.917z"/><path d="M68.24 136.93h-1.06v177.9h1.06v-177.9zm19.06-11.01h-1.06v177.9h1.06v-177.9zm19.06-11h-1.06v177.9h1.06v-177.9zm19.06-11.01h-1.06v177.9h1.06v-177.9zm19.06-11h-1.06v177.9h1.06V92.91zm19.06-11.01h-1.06v177.9h1.06V81.9zm19.06-11h-1.06v177.9h1.06V70.9zm19.06-11.01h-1.06v177.9h1.06V59.89zm19.07-11h-1.06v177.9h1.06V48.89zm19.06-11.01h-1.06v177.9h1.06V37.88z"/><path d="M48.64 326.28a.59.59 0 0 1-.26-.07.55.55 0 0 1-.27-.46V147.93a.55.55 0 0 1 .27-.46l209.67-121a.51.51 0 0 1 .53 0c.08.047.146.115.191.195a.53.53 0 0 1 .069.265v177.76c.001.093-.023.184-.069.265s-.111.148-.191.195L48.91 326.21c-.084.043-.176.067-.27.07zm.53-178v176.55l208.62-120.44V27.79L49.17 148.28zm227.85 66.889L67.389 336.297l.53.918L277.55 216.086l-.53-.917zm19.066 10.988L86.455 347.286l.53.917 209.631-121.128-.531-.918zm19.062 11.028L105.517 358.313l.53.918 209.631-121.128-.53-.918zm19.056 10.998L124.573 369.312l.531.917 209.631-121.128-.531-.918z"/><use xlink:href="#A"/><use xlink:href="#A" x="19.064" y="-11.006"/><use xlink:href="#A" x="38.119" y="-22.008"/><use xlink:href="#A" x="57.183" y="-33.014"/><use xlink:href="#A" x="76.238" y="-44.015"/><path d="M163.273 259.263l-.53.918 95.307 55.025.53-.918-95.307-55.025zm19.06-11.01l-.53.918 95.307 55.025.53-.918-95.307-55.025z"/><use xlink:href="#A" x="133.435" y="-77.038"/><use xlink:href="#A" x="152.49" y="-88.05"/><use xlink:href="#A" x="171.554" y="-99.047"/><path d="M143.88 381.26c-.092.002-.182-.022-.26-.07l-95.24-55c-.081-.046-.148-.113-.195-.194a.53.53 0 0 1 0-.532c.047-.081.114-.148.195-.194l209.67-121c.08-.049.172-.074.265-.074s.185.025.265.074l95.24 55c.079.048.144.116.189.197s.068.171.068.263-.023.183-.068.264a.54.54 0 0 1-.189.196l-209.67 121a.53.53 0 0 1-.27.07h0zM49.7 325.75l94.18 54.37L352.5 259.68l-94.18-54.38L49.7 325.75z"/></g></g><g class="l"><path d="M101 153.59c0 11.5-6.53 24.86-14.58 29.85s-14.57-.31-14.57-11.81 6.53-24.86 14.57-29.84v22.07l13.87-16.26c.493 1.958.732 3.971.71 5.99h0z" fill="#ebd0d0"/><path d="M101.59 144.39c-1.9-7.18-7.39-9.82-13.87-5.81v22.07l13.87-16.26z" fill="#f27979"/><path d="M134.32 135.58l8.57 11.55c-2.105 3.708-5.038 6.881-8.57 9.27-8 5-14.57-.3-14.57-11.8s6.52-24.86 14.57-29.85v20.83z" fill="#f9f3e5"/><path d="M145.1 146.23c3.761-6.212 5.829-13.3 6-20.56 0-11.51-6.53-16.79-14.57-11.81v20.82l8.57 11.55z" fill="#f9c749"/><path d="M228.08 60v20.8L214.21 83c1.9-9.58 7.39-19 13.87-23z" fill="#e4efe8"/><path d="M216.67 85.34a35.23 35.23 0 0 0-.71 6.87c0 11.5 6.53 16.79 14.58 11.81s14.57-18.34 14.57-29.84-6.53-16.79-14.57-11.81V83.2l-13.87 2.14z" fill="#3d7"/><path d="M181.91 86.25v20.83l-8.56 22.15c-3.64-1.53-6-6.21-6-13.14-.01-11.49 6.51-24.86 14.56-29.84z" fill="#eee2ee"/><path d="M175.69 129.89c2.4 1 5.36.66 8.56-1.32 8.05-5 14.58-18.34 14.58-29.84s-6.53-16.79-14.58-11.81v20.82l-8.56 22.15z" fill="#d356d6"/><path d="M77.58 211.11v-6.81a.53.53 0 0 1 .073-.245.55.55 0 0 1 .177-.185L95 193.81c.14-.08.25 0 .25.14v6.8a.56.56 0 0 1-.25.44l-17.17 10.06c-.14.08-.25.02-.25-.14zm47.74-27.43v-6.8c.004-.088.029-.173.072-.25a.58.58 0 0 1 .178-.19l17.21-10.06c.14-.08.25 0 .25.15v6.8a.55.55 0 0 1-.073.25c-.043.076-.104.142-.177.19l-17.21 10.06c-.14.08-.25.01-.25-.15zm47.74-27.42v-6.8a.56.56 0 0 1 .072-.25.57.57 0 0 1 .178-.19L190.52 139c.14-.08.25 0 .25.15v6.8a.53.53 0 0 1-.073.245.54.54 0 0 1-.177.185l-17.21 10.07c-.14.04-.25-.03-.25-.19zm47.74-27.42V122c.003-.088.027-.174.07-.251s.106-.142.18-.189l17.21-10.06c.14-.08.25 0 .25.14v6.8c-.003.088-.027.174-.07.251s-.106.142-.18.189L221.05 129c-.14.06-.25 0-.25-.16z" class="h"/><path d="M292.08 98.27l-19.06 32.77-19.06 56.21-19.06-10.43-19.07 52.44-19.06-10.43-19.06 11.42-19.06 26.4-19.06-1.38-19.06 39.13-19.06-1.08-19.06 26.51v25.41l4.29 2.48 209.67-121.08V100.75l-4.29-2.48z" class="r"/><path d="M86.7 322.31l19.06-26.51 19.06 1.08 19.06-39.13 19.06 1.38 19.06-26.4 19.07-11.42 19.06 10.43 19.06-52.44 19.06 10.43 19.06-56.21 19.06-32.77v125.89L86.7 347.72v-25.41z" class="m"/><path d="M82.41 319.83l4.29 2.48 19.06-26.51-4.29-2.48-19.06 26.51zm57.18-64.56l4.29 2.48-19.06 39.13-4.29-2.48 19.06-39.13zm19.06 1.38l4.29 2.48 19.06-26.4-4.29-2.48-19.06 26.4zm76.25-79.83l4.29 2.48-19.06 52.44-4.3-2.48 19.07-52.44zm38.12-45.78l4.29 2.48-19.06 56.21-4.29-2.48 19.06-56.21z" class="j"/><g class="m"><path d="M276.21 108.44c-.081.004-.161-.015-.231-.055a.42.42 0 0 1-.167-.169c-.039-.071-.057-.151-.052-.232a.43.43 0 0 1 .08-.224l16.29-24.58a.44.44 0 0 1 .73.49l-16.29 24.58a.43.43 0 0 1-.157.139c-.062.033-.132.051-.203.051h0zm-19.82 55.82c-.046.009-.094.009-.14 0-.055-.018-.107-.047-.151-.085a.43.43 0 0 1-.106-.137.42.42 0 0 1-.045-.167.43.43 0 0 1 .022-.171l16.3-48c.018-.055.047-.107.085-.151a.44.44 0 0 1 .136-.106.45.45 0 0 1 .167-.046c.059-.003.117.004.172.023a.44.44 0 0 1 .251.224c.05.105.057.226.019.336L256.81 164a.45.45 0 0 1-.171.193c-.075.046-.161.069-.249.067h0zm-3.54 2.9a.42.42 0 0 1-.21-.06l-13.25-7.24a.44.44 0 0 1-.131-.108c-.035-.045-.062-.096-.078-.151a.44.44 0 0 1-.014-.169.44.44 0 0 1 .053-.162c.027-.051.065-.097.11-.134a.43.43 0 0 1 .152-.081c.056-.017.115-.023.173-.016s.114.023.165.051l13.25 7.24c.051.028.095.066.131.112s.063.097.079.153a.45.45 0 0 1 .013.171c-.007.058-.025.114-.053.164a.45.45 0 0 1-.164.168c-.068.04-.146.062-.226.062zm-32.98 39.96a.38.38 0 0 1-.15 0 .44.44 0 0 1-.251-.224c-.05-.105-.057-.226-.019-.336l16.11-44.32c.041-.111.123-.201.23-.251a.45.45 0 0 1 .34-.019c.055.02.105.051.148.091s.077.087.101.14.038.11.04.168a.43.43 0 0 1-.029.171l-16.11 44.32c-.034.08-.092.147-.165.194a.43.43 0 0 1-.245.066h0zm-3.63 2.88a.54.54 0 0 1-.24 0l-14.75-8.08a.44.44 0 1 1 .43-.77l14.75 8.07c.051.028.095.066.131.112s.063.097.079.153.02.114.013.172a.44.44 0 0 1-.053.163.43.43 0 0 1-.158.135c-.062.031-.132.047-.202.045h0zm-33.16.48c-.075.001-.148-.018-.214-.054s-.119-.091-.156-.156c-.031-.049-.051-.105-.06-.163a.44.44 0 0 1 .007-.173c.014-.057.039-.11.074-.157a.45.45 0 0 1 .129-.117l13.42-8c.101-.059.221-.077.335-.048a.44.44 0 0 1 .115.808l-13.42 8a.45.45 0 0 1-.23.06zm-19.39 24.65c-.08-.003-.158-.027-.226-.07s-.123-.103-.16-.174-.054-.152-.049-.232a.44.44 0 0 1 .075-.224l14.31-19.82c.069-.096.173-.16.289-.179s.236.01.331.079.16.173.178.289a.45.45 0 0 1-.078.331l-14.31 19.81a.42.42 0 0 1-.36.19zm-5.09 3.25l-13.88-1c-.058-.004-.114-.019-.166-.045a.44.44 0 0 1-.137-.105c-.038-.044-.067-.094-.085-.149a.43.43 0 0 1-.022-.171c.003-.058.017-.116.042-.168a.42.42 0 0 1 .105-.138c.044-.038.095-.067.151-.085a.42.42 0 0 1 .172-.019l13.88 1c.058.004.114.019.166.045a.44.44 0 0 1 .137.105c.038.044.067.094.085.149a.43.43 0 0 1 .022.171c-.01.116-.065.223-.152.3a.45.45 0 0 1-.318.11h0zm-33.55 33.9c-.063.014-.127.014-.19 0-.053-.024-.1-.059-.139-.102a.42.42 0 0 1-.087-.15.43.43 0 0 1-.022-.171.44.44 0 0 1 .048-.167l15.15-31.11a.45.45 0 0 1 .255-.218c.11-.038.23-.031.335.018a.45.45 0 0 1 .137.105c.038.043.067.094.085.149a.43.43 0 0 1 .023.17c-.004.058-.019.114-.045.166L125.45 272c-.031.081-.086.151-.158.201a.44.44 0 0 1-.242.079h0zm-4.57 3.89l-13.9-.79c-.117 0-.229-.046-.311-.129s-.129-.194-.129-.311.046-.229.129-.311.194-.129.311-.129l13.9.79c.117 0 .229.046.311.129s.129.194.129.311-.046.229-.129.311-.194.129-.311.129zM85 301.75a.43.43 0 0 1-.26-.09.44.44 0 0 1-.1-.61l16.65-23.16c.071-.092.175-.154.29-.172a.46.46 0 0 1 .33.072c.094.07.157.174.176.29a.45.45 0 0 1-.076.33l-16.69 23.15a.45.45 0 0 1-.139.13.46.46 0 0 1-.181.06h0z"/><path d="M102.9 279.35c-.35.013-.697-.073-1-.25-.416-.301-.745-.706-.956-1.175a2.94 2.94 0 0 1-.244-1.495 7.14 7.14 0 0 1 .803-3.252 7.13 7.13 0 0 1 2.197-2.528c.334-.231.724-.367 1.129-.393s.81.057 1.171.243c.415.302.743.708.952 1.176s.291.984.238 1.494a7.15 7.15 0 0 1-.826 3.259c-.53 1.005-1.293 1.87-2.224 2.521a2.63 2.63 0 0 1-1.24.4h0zm2.25-8.22c-.321.019-.634.115-.91.28a6.31 6.31 0 0 0-2.6 5 2.11 2.11 0 0 0 .129 1.052 2.12 2.12 0 0 0 .621.858 1.44 1.44 0 0 0 .725.111 1.43 1.43 0 0 0 .685-.261c.794-.573 1.444-1.323 1.897-2.191s.697-1.83.713-2.809c.048-.357.003-.72-.13-1.054a2.1 2.1 0 0 0-.63-.856c-.152-.086-.325-.131-.5-.13zM141 241.42c-.35.013-.697-.074-1-.25-.415-.302-.743-.708-.952-1.176s-.291-.984-.238-1.494c.012-1.138.296-2.257.826-3.263a7.17 7.17 0 0 1 2.224-2.527 2.28 2.28 0 0 1 1.125-.386 2.27 2.27 0 0 1 1.165.236c.411.305.738.711.948 1.179s.297.98.252 1.491a7.17 7.17 0 0 1-.804 3.256c-.521 1.006-1.274 1.875-2.196 2.534-.406.251-.872.389-1.35.4zm2.25-8.22a1.8 1.8 0 0 0-.9.28c-.794.573-1.444 1.323-1.897 2.191s-.697 1.83-.713 2.809a2.11 2.11 0 0 0 .76 1.91 1.43 1.43 0 0 0 .725.11 1.44 1.44 0 0 0 .685-.26c.79-.576 1.436-1.327 1.887-2.195s.695-1.828.713-2.805c.046-.354.001-.715-.13-1.047s-.344-.626-.62-.853c-.149-.088-.317-.137-.49-.14h-.02zM122 280.23c-.348.019-.695-.06-1-.23-.416-.301-.745-.706-.956-1.175a2.94 2.94 0 0 1-.244-1.495 7.15 7.15 0 0 1 3.05-5.78c.334-.231.724-.367 1.129-.393s.81.057 1.171.243c.415.302.743.708.952 1.176s.291.984.238 1.494a7.14 7.14 0 0 1-.803 3.252c-.521 1.005-1.274 1.872-2.197 2.528a2.67 2.67 0 0 1-1.34.38h0zm2.25-8.22c-.319.015-.629.112-.9.28-.794.573-1.444 1.323-1.897 2.191s-.697 1.83-.713 2.809a2.11 2.11 0 0 0 .129 1.052 2.12 2.12 0 0 0 .621.858 1.44 1.44 0 0 0 1.41-.15c.794-.573 1.444-1.323 1.897-2.191s.697-1.83.713-2.809a2.12 2.12 0 0 0-.128-1.052c-.132-.334-.345-.629-.622-.858a1.07 1.07 0 0 0-.55-.14l.04.01zm35.83-29.56c-.35.013-.697-.073-1-.25-.415-.302-.743-.707-.952-1.176s-.291-.984-.238-1.494a7.14 7.14 0 0 1 .825-3.259 7.13 7.13 0 0 1 2.225-2.521 2.23 2.23 0 0 1 1.124-.394c.404-.026.807.058 1.166.244a2.95 2.95 0 0 1 .956 1.175 2.93 2.93 0 0 1 .244 1.495 7.15 7.15 0 0 1-3 5.78c-.406.251-.872.39-1.35.4zm2.25-8.22c-.319.017-.628.113-.9.28-.794.573-1.444 1.323-1.897 2.191s-.697 1.83-.713 2.809a2.1 2.1 0 0 0 .13 1.055c.133.334.35.629.63.855a1.42 1.42 0 0 0 1.41-.15c.791-.575 1.438-1.326 1.889-2.193a6.31 6.31 0 0 0 .711-2.807 2.12 2.12 0 0 0-.128-1.052c-.132-.334-.345-.629-.622-.858a1.07 1.07 0 0 0-.51-.13h0zm16.81-18.37c-.33.003-.655-.084-.94-.25a2.93 2.93 0 0 1-.959-1.173c-.21-.469-.294-.985-.241-1.497.012-1.136.296-2.253.826-3.259a7.15 7.15 0 0 1 2.224-2.521 2.23 2.23 0 0 1 1.124-.394c.404-.026.807.058 1.166.244a2.95 2.95 0 0 1 .956 1.175c.21.469.295.984.244 1.495-.006 1.133-.281 2.247-.803 3.252s-1.274 1.872-2.197 2.528c-.421.26-.905.399-1.4.4h0zm2.25-8.22c-.319.017-.628.113-.9.28-.794.573-1.444 1.323-1.897 2.191s-.697 1.83-.713 2.809c-.045.357.001.719.134 1.053s.348.629.626.857a1.44 1.44 0 0 0 .725.111 1.43 1.43 0 0 0 .685-.261c.794-.572 1.444-1.323 1.897-2.191s.697-1.83.713-2.809c.045-.356-.001-.718-.134-1.052s-.348-.629-.626-.858c-.157-.085-.332-.129-.51-.13zm16.81-2.78c-.33.003-.655-.084-.94-.25-.416-.301-.745-.706-.956-1.175a2.94 2.94 0 0 1-.244-1.495 7.17 7.17 0 0 1 3.05-5.79c.333-.229.721-.364 1.124-.39s.806.056 1.166.24a3.01 3.01 0 0 1 .948 1.179c.21.467.297.981.252 1.491-.007 1.134-.282 2.25-.804 3.256s-1.274 1.875-2.196 2.534c-.421.26-.905.399-1.4.4h0zm2.25-8.23c-.32.015-.631.116-.9.29-.794.573-1.444 1.323-1.897 2.191s-.697 1.83-.713 2.809a2.11 2.11 0 0 0 .134 1.049c.133.332.349.625.626.851.226.103.476.145.724.12a1.41 1.41 0 0 0 .686-.26 6.31 6.31 0 0 0 1.895-2.192c.453-.868.698-1.829.715-2.808.045-.355-.001-.716-.134-1.048s-.349-.626-.626-.852a1 1 0 0 0-.51-.15h0zm16.82 18.66c-.35.013-.697-.074-1-.25a2.94 2.94 0 0 1-1.2-2.67 7.14 7.14 0 0 1 .803-3.252 7.13 7.13 0 0 1 2.197-2.528c.332-.231.72-.367 1.124-.394s.807.058 1.166.244a2.94 2.94 0 0 1 .956 1.175c.21.469.295.984.244 1.495-.007 1.132-.282 2.247-.804 3.251a7.16 7.16 0 0 1-2.196 2.529c-.389.242-.833.379-1.29.4h0zm2.24-8.22c-.319.017-.628.113-.9.28-.787.58-1.431 1.332-1.884 2.198a6.43 6.43 0 0 0-.726 2.802c-.045.357.001.719.134 1.053s.348.629.626.857a1.44 1.44 0 0 0 1.41-.15c.794-.573 1.444-1.323 1.897-2.191s.697-1.83.713-2.809c.045-.357-.001-.719-.134-1.053s-.348-.629-.626-.857a1 1 0 0 0-.51-.13h0zm16.82-44.22c-.35.013-.697-.074-1-.25-.416-.301-.745-.706-.956-1.175a2.94 2.94 0 0 1-.244-1.495 7.17 7.17 0 0 1 .804-3.256c.521-1.006 1.274-1.875 2.196-2.534a2.23 2.23 0 0 1 1.126-.385 2.24 2.24 0 0 1 1.164.245c.416.299.746.703.956 1.169s.295.981.244 1.491c-.012 1.138-.296 2.257-.826 3.263a7.17 7.17 0 0 1-2.224 2.527 2.67 2.67 0 0 1-1.24.4h0zm2.24-8.22c-.319.014-.629.11-.9.28-.794.573-1.444 1.323-1.897 2.191s-.697 1.83-.713 2.809c-.044.357.003.719.136 1.052a2.14 2.14 0 0 0 .624.858 1.44 1.44 0 0 0 1.41-.15 6.31 6.31 0 0 0 1.895-2.192c.453-.868.698-1.829.715-2.808a2.12 2.12 0 0 0-.136-1.048 2.11 2.11 0 0 0-.624-.852.93.93 0 0 0-.51-.14h0zm15.31 17.82a2 2 0 0 1-.95-.25 2.93 2.93 0 0 1-.95-1.177c-.209-.468-.292-.983-.24-1.493a7.18 7.18 0 0 1 .826-3.263 7.17 7.17 0 0 1 2.224-2.527 2.22 2.22 0 0 1 1.124-.394c.404-.026.807.058 1.166.244.416.301.745.706.956 1.175a2.93 2.93 0 0 1 .244 1.495 7.17 7.17 0 0 1-.804 3.256c-.521 1.006-1.274 1.875-2.196 2.534a2.79 2.79 0 0 1-1.4.4h0zm2.25-8.23c-.319.017-.628.113-.9.28a6.31 6.31 0 0 0-1.895 2.192c-.453.868-.698 1.829-.715 2.808-.045.355.001.716.134 1.048a2.11 2.11 0 0 0 .626.852 1.42 1.42 0 0 0 .725.114 1.43 1.43 0 0 0 .685-.264c.794-.573 1.444-1.323 1.897-2.191s.697-1.83.713-2.809c.044-.357-.003-.719-.136-1.052a2.13 2.13 0 0 0-.624-.858c-.157-.082-.333-.123-.51-.12h0zm16.81-47.99a1.84 1.84 0 0 1-.94-.23 2.94 2.94 0 0 1-.956-1.175 2.93 2.93 0 0 1-.244-1.495 7.15 7.15 0 0 1 3.05-5.78 2.23 2.23 0 0 1 1.124-.394c.404-.026.807.058 1.166.244a2.94 2.94 0 0 1 1.2 2.67 7.14 7.14 0 0 1-.803 3.252 7.13 7.13 0 0 1-2.197 2.528c-.423.253-.907.384-1.4.38h0zm2.25-8.22c-.319.017-.628.113-.9.28-.794.573-1.444 1.323-1.897 2.191s-.697 1.83-.713 2.809c-.045.357.001.719.134 1.053s.348.629.626.857a1.41 1.41 0 0 0 1.41-.15 6.42 6.42 0 0 0 1.883-2.198c.453-.867.701-1.825.727-2.802.045-.357-.001-.719-.134-1.053s-.348-.629-.626-.857c-.154-.092-.331-.14-.51-.14v.01zm18.32-23.71a2 2 0 0 1-.95-.25 2.95 2.95 0 0 1-.956-1.175 2.94 2.94 0 0 1-.244-1.495 7.17 7.17 0 0 1 3.05-5.79 2.26 2.26 0 0 1 2.3-.15 2.95 2.95 0 0 1 .956 1.175 2.94 2.94 0 0 1 .244 1.495 7.17 7.17 0 0 1-3.05 5.79 2.78 2.78 0 0 1-1.35.4h0zm2.25-8.23a1.87 1.87 0 0 0-.9.28 6.32 6.32 0 0 0-2.61 5 2.1 2.1 0 0 0 .128 1.047 2.11 2.11 0 0 0 .622.853 1.43 1.43 0 0 0 1.41-.14 6.31 6.31 0 0 0 1.894-2.193 6.32 6.32 0 0 0 .716-2.807 2.1 2.1 0 0 0-.128-1.047 2.11 2.11 0 0 0-.622-.853 1 1 0 0 0-.51-.14h0z"/></g><g class="h"><path d="M313.14 106.75a.45.45 0 0 1-.2-.05c-.052-.026-.099-.063-.137-.108a.42.42 0 0 1-.084-.152.44.44 0 0 1-.019-.173c.005-.059.022-.115.05-.167l15.06-28.77c.053-.103.145-.181.256-.216a.44.44 0 0 1 .334.026c.052.026.099.063.137.108a.43.43 0 0 1 .084.152.44.44 0 0 1 .019.173.43.43 0 0 1-.05.167l-15.06 28.77a.45.45 0 0 1-.161.175.44.44 0 0 1-.229.065zm-19.8 61.55c-.043.009-.087.009-.13 0-.111-.035-.204-.112-.259-.215a.44.44 0 0 1-.031-.335l16.53-53.63c.037-.112.116-.205.221-.26a.45.45 0 0 1 .339-.03c.111.035.204.112.259.215a.44.44 0 0 1 .031.335L293.76 168c-.028.089-.084.166-.16.22s-.167.082-.26.08h0zm-3.26 2.59a.46.46 0 0 1-.27-.09l-15.06-11.38c-.094-.07-.157-.175-.174-.291a.45.45 0 0 1 .084-.329c.07-.094.175-.156.291-.173s.235.013.329.083l15.06 11.39c.047.035.086.078.116.128s.05.106.059.163a.44.44 0 0 1-.01.173c-.014.057-.04.11-.075.156a.46.46 0 0 1-.156.124.47.47 0 0 1-.194.046zm-34.64 35.32h-.15a.45.45 0 0 1-.27-.57l16.1-44.16c.041-.11.124-.199.231-.248s.229-.053.339-.012.199.124.248.231.053.229.012.339l-16.1 44.15a.43.43 0 0 1-.41.27h0zm-3.88 3.46h-.11L237.18 206a.46.46 0 0 1-.266-.207c-.06-.1-.079-.219-.054-.333.014-.057.039-.11.074-.157s.079-.086.129-.116.106-.049.164-.057a.44.44 0 0 1 .173.01l14.27 3.64c.112.029.209.1.269.199a.44.44 0 0 1 .051.331c-.02.1-.074.19-.152.255a.45.45 0 0 1-.278.105h0zm-34.17 46.15h-.15a.44.44 0 0 1-.27-.56l16.09-46.33c.041-.111.123-.201.23-.251a.45.45 0 0 1 .34-.019c.112.039.2.119.251.224a.44.44 0 0 1 .019.336l-16.1 46.33a.44.44 0 0 1-.41.27h0zm-3.61 2.64c-.106-.003-.208-.042-.29-.11l-15.2-13.56c-.047-.037-.086-.083-.115-.136s-.046-.11-.052-.17.002-.119.02-.176a.46.46 0 0 1 .088-.155c.04-.044.088-.081.142-.107a.45.45 0 0 1 .172-.042.44.44 0 0 1 .176.03.43.43 0 0 1 .149.096l15.21 13.56c.042.04.075.088.098.142a.44.44 0 0 1 .034.168c0 .058-.012.115-.034.169a.43.43 0 0 1-.098.141.41.41 0 0 1-.134.107.4.4 0 0 1-.166.043h0zm-19.48-15.8h-.11L180 239c-.061-.009-.119-.03-.171-.063a.43.43 0 0 1-.132-.126.45.45 0 0 1-.068-.17.43.43 0 0 1 .006-.182c.015-.06.042-.116.079-.164a.44.44 0 0 1 .14-.118.43.43 0 0 1 .175-.051.43.43 0 0 1 .181.024l14.16 3.6a.44.44 0 0 1 .192.767c-.084.071-.192.108-.302.103l.04.04zm-33.89 36.47c-.056.013-.114.013-.17 0-.053-.022-.101-.054-.141-.094a.44.44 0 0 1-.125-.31c.001-.057.013-.113.036-.166l15.56-36.61a.44.44 0 0 1 .237-.256.45.45 0 0 1 .174-.038c.06 0 .119.011.174.035a.45.45 0 0 1 .242.251.46.46 0 0 1 .028.176c-.003.06-.019.118-.045.172l-15.56 36.61c-.039.074-.098.135-.171.176s-.156.06-.239.054zm-18.14 6.37c-.107-.002-.209-.042-.289-.114a.44.44 0 0 1-.141-.276.43.43 0 0 1 .005-.171.44.44 0 0 1 .073-.155.42.42 0 0 1 .129-.112.41.41 0 0 1 .163-.052l13.66-1.85c.111-.008.222.026.309.096a.44.44 0 0 1 .082.597c-.064.091-.161.155-.271.177l-13.72 1.86zm-21.74 36.78a.53.53 0 0 1-.21 0 .42.42 0 0 1-.134-.11.45.45 0 0 1-.082-.152.46.46 0 0 1-.016-.173c.006-.058.024-.114.052-.165L137.2 289c.023-.057.057-.108.101-.15s.096-.076.153-.097a.46.46 0 0 1 .18-.027.44.44 0 0 1 .174.048c.055.028.103.067.141.114a.44.44 0 0 1 .083.161c.016.059.02.121.011.181a.45.45 0 0 1-.063.17L120.92 322a.44.44 0 0 1-.154.198c-.069.05-.151.078-.236.082h0z"/><path d="M138.46 290c-.33.002-.655-.084-.94-.25a2.95 2.95 0 0 1-.956-1.175c-.21-.469-.295-.984-.244-1.495.012-1.137.294-2.254.825-3.259a7.13 7.13 0 0 1 2.225-2.521c.332-.231.72-.367 1.124-.394s.807.058 1.166.244a2.94 2.94 0 0 1 1.2 2.67 7.15 7.15 0 0 1-3.05 5.78c-.406.251-.872.389-1.35.4zm2.25-8.22c-.319.017-.628.113-.9.28-.794.573-1.444 1.323-1.897 2.191s-.697 1.83-.713 2.809c-.045.365.004.735.144 1.075s.367.638.656.865a1.44 1.44 0 0 0 .725.111 1.45 1.45 0 0 0 .685-.261c.794-.573 1.444-1.323 1.897-2.191s.697-1.83.713-2.809c.045-.357-.001-.719-.134-1.053s-.348-.629-.626-.857a1 1 0 0 0-.55-.19v.03zm35.88-39.11c-.35.013-.697-.074-1-.25a2.95 2.95 0 0 1-.956-1.175 2.93 2.93 0 0 1-.244-1.495 7.15 7.15 0 0 1 .826-3.263 7.17 7.17 0 0 1 2.224-2.527 2.28 2.28 0 0 1 1.125-.386 2.27 2.27 0 0 1 1.165.236c.416.301.747.706.957 1.174s.295.985.243 1.496a7.17 7.17 0 0 1-.804 3.256c-.521 1.006-1.274 1.875-2.196 2.534a2.67 2.67 0 0 1-1.34.4zm2.24-8.23a1.83 1.83 0 0 0-.9.29c-.794.573-1.444 1.323-1.897 2.191s-.697 1.83-.713 2.809c-.044.356.003.718.136 1.052a2.13 2.13 0 0 0 .624.858 1.43 1.43 0 0 0 .725.11 1.44 1.44 0 0 0 .685-.26 6.31 6.31 0 0 0 1.895-2.192c.453-.868.698-1.829.715-2.808.045-.355-.001-.716-.134-1.048a2.11 2.11 0 0 0-.626-.852.94.94 0 0 0-.51-.15h0zm-21.3 52.75a1.85 1.85 0 0 1-.95-.25 2.95 2.95 0 0 1-.956-1.175 2.93 2.93 0 0 1-.244-1.495 7.15 7.15 0 0 1 .826-3.263 7.17 7.17 0 0 1 2.224-2.527 2.25 2.25 0 0 1 1.124-.391c.403-.026.806.057 1.166.241.411.305.738.711.948 1.179s.297.98.252 1.491a7.17 7.17 0 0 1-.804 3.256c-.521 1.006-1.274 1.875-2.196 2.534a2.67 2.67 0 0 1-1.39.4zm2.24-8.23c-.32.015-.631.115-.9.29a6.39 6.39 0 0 0-2.61 5c-.044.356.003.718.136 1.052a2.13 2.13 0 0 0 .624.858 1.43 1.43 0 0 0 .725.11 1.44 1.44 0 0 0 .685-.26 6.42 6.42 0 0 0 1.883-2.198c.453-.867.701-1.825.727-2.802.045-.355-.001-.716-.134-1.048a2.11 2.11 0 0 0-.626-.852 1 1 0 0 0-.51-.11v-.04zm35.88-31.78c-.35.013-.697-.074-1-.25a2.94 2.94 0 0 1-1.2-2.67 7.17 7.17 0 0 1 3.05-5.79 2.25 2.25 0 0 1 1.124-.391c.403-.026.806.057 1.166.241.421.3.754.706.967 1.177A2.92 2.92 0 0 1 200 241a7.17 7.17 0 0 1-.804 3.256c-.521 1.006-1.274 1.875-2.196 2.534a2.75 2.75 0 0 1-1.35.39h0zm2.25-8.18c-.321.019-.634.115-.91.28-.786.58-1.428 1.332-1.879 2.199a6.41 6.41 0 0 0-.721 2.801 2.1 2.1 0 0 0 .128 1.047 2.11 2.11 0 0 0 .622.853c.227.1.476.14.723.115s.484-.112.687-.255a6.32 6.32 0 0 0 1.894-2.193 6.31 6.31 0 0 0 .716-2.807 2.08 2.08 0 0 0-.13-1.05c-.133-.333-.35-.626-.63-.85a.93.93 0 0 0-.5-.14h0zm16.81 25c-.35.013-.697-.074-1-.25a2.94 2.94 0 0 1-.956-1.175 2.93 2.93 0 0 1-.244-1.495c.012-1.138.295-2.256.826-3.263a7.17 7.17 0 0 1 2.224-2.527 2.26 2.26 0 0 1 1.129-.39 2.25 2.25 0 0 1 1.171.24 2.93 2.93 0 0 1 .95 1.177c.209.468.292.983.24 1.493a7.17 7.17 0 0 1-.804 3.256c-.521 1.006-1.274 1.875-2.196 2.534a2.64 2.64 0 0 1-1.34.4h0zm2.25-8.22c-.323.012-.637.109-.91.28-.787.579-1.431 1.331-1.882 2.197a6.37 6.37 0 0 0-.718 2.803 2.13 2.13 0 0 0 .13 1.051c.131.334.344.63.62.859a1.44 1.44 0 0 0 1.41-.15 6.31 6.31 0 0 0 1.895-2.192c.453-.868.698-1.829.715-2.808.047-.355.001-.717-.132-1.049s-.349-.626-.628-.851c-.136-.094-.295-.149-.46-.16l-.04.02zm16.81-46.25c-.35.013-.697-.074-1-.25a2.95 2.95 0 0 1-.956-1.175c-.21-.469-.295-.984-.244-1.495a7.14 7.14 0 0 1 .803-3.252c.521-1.005 1.274-1.872 2.197-2.528.334-.231.724-.367 1.129-.394s.81.058 1.171.244c.416.301.745.706.956 1.175a2.94 2.94 0 0 1 .244 1.495c-.007 1.132-.282 2.246-.804 3.251a7.15 7.15 0 0 1-2.196 2.529 2.68 2.68 0 0 1-1.3.4h0zm2.25-8.22c-.32.01-.631.107-.9.28-.789.578-1.434 1.33-1.887 2.196a6.39 6.39 0 0 0-.723 2.804 2.12 2.12 0 0 0 .128 1.052c.132.334.346.629.622.858a1.43 1.43 0 0 0 .725.11 1.44 1.44 0 0 0 .685-.26 6.38 6.38 0 0 0 1.886-2.197c.453-.866.7-1.826.724-2.803a2.11 2.11 0 0 0-.129-1.052 2.12 2.12 0 0 0-.621-.858c-.162-.088-.345-.133-.53-.13h.02zm16.81 13.08a2 2 0 0 1-.95-.25 2.93 2.93 0 0 1-.95-1.177c-.209-.468-.292-.983-.24-1.493.012-1.138.295-2.256.826-3.263a7.17 7.17 0 0 1 2.224-2.527 2.25 2.25 0 0 1 1.124-.391c.403-.026.806.057 1.166.241a2.94 2.94 0 0 1 1.2 2.67 7.18 7.18 0 0 1-.826 3.263 7.17 7.17 0 0 1-2.224 2.527c-.408.247-.873.385-1.35.4h0zm2.25-8.23c-.319.017-.628.113-.9.28a6.31 6.31 0 0 0-1.895 2.192c-.453.868-.698 1.829-.715 2.808a2.08 2.08 0 0 0 .13 1.05c.133.333.35.626.63.85a1.42 1.42 0 0 0 .725.114 1.43 1.43 0 0 0 .685-.264 6.31 6.31 0 0 0 1.889-2.194c.451-.867.695-1.828.711-2.806a2.13 2.13 0 0 0-.13-1.051c-.131-.334-.344-.63-.62-.859-.158-.082-.333-.123-.51-.12h0zm16.81-44.05a2 2 0 0 1-.95-.25 2.93 2.93 0 0 1-.95-1.177c-.209-.468-.292-.983-.24-1.493a7.17 7.17 0 0 1 3.05-5.79c.332-.231.72-.367 1.124-.394s.807.058 1.166.244a2.95 2.95 0 0 1 .956 1.175c.21.469.295.984.244 1.495-.012 1.138-.296 2.257-.826 3.263a7.17 7.17 0 0 1-2.224 2.527c-.408.247-.873.385-1.35.4zm2.25-8.23c-.319.017-.628.113-.9.28a6.39 6.39 0 0 0-1.887 2.197c-.452.866-.7 1.826-.723 2.803a2.08 2.08 0 0 0 .13 1.05c.133.333.35.626.63.85a1.42 1.42 0 0 0 .725.114 1.43 1.43 0 0 0 .685-.264c.787-.579 1.431-1.33 1.882-2.197s.696-1.826.718-2.803a2.13 2.13 0 0 0-.75-1.91c-.157-.082-.333-.123-.51-.12zM291 176.52c-.33-.002-.653-.088-.94-.25a3.01 3.01 0 0 1-.948-1.179c-.21-.467-.297-.981-.252-1.491a7.16 7.16 0 0 1 .826-3.264c.53-1.006 1.293-1.872 2.224-2.526.332-.231.72-.368 1.124-.394s.807.058 1.166.244c.416.301.745.706.956 1.175a2.94 2.94 0 0 1 .244 1.495 7.18 7.18 0 0 1-.826 3.263 7.17 7.17 0 0 1-2.224 2.527c-.408.247-.873.384-1.35.4h0zm2.25-8.23a1.9 1.9 0 0 0-.9.28 6.31 6.31 0 0 0-1.895 2.192c-.453.868-.698 1.829-.715 2.808-.045.355.001.716.134 1.048a2.11 2.11 0 0 0 .626.852 1.41 1.41 0 0 0 1.41-.15c.794-.573 1.444-1.323 1.897-2.191s.697-1.83.713-2.809c.044-.357-.003-.719-.136-1.052a2.14 2.14 0 0 0-.624-.858c-.171-.094-.366-.136-.56-.12h.05zM310 114.68c-.333.004-.662-.082-.95-.25-.416-.301-.745-.706-.956-1.175a2.94 2.94 0 0 1-.244-1.495c.012-1.137.294-2.254.825-3.259a7.13 7.13 0 0 1 2.225-2.521 2.23 2.23 0 0 1 1.124-.394c.404-.026.807.058 1.166.244a2.95 2.95 0 0 1 .956 1.175c.21.469.295.984.244 1.495a7.15 7.15 0 0 1-3.05 5.78 2.67 2.67 0 0 1-1.34.4zm2.24-8.22c-.319.017-.628.113-.9.28-.794.573-1.444 1.323-1.897 2.191s-.697 1.83-.713 2.809c-.045.357.001.719.134 1.053s.348.629.626.857a1.44 1.44 0 0 0 1.41-.15c.794-.573 1.444-1.323 1.897-2.191s.697-1.83.713-2.809a2.13 2.13 0 0 0-.76-1.91 1 1 0 0 0-.49-.13h-.02zm16.84-28.2a1.85 1.85 0 0 1-.95-.25 2.95 2.95 0 0 1-.956-1.175 2.94 2.94 0 0 1-.244-1.495 7.15 7.15 0 0 1 .834-3.263A7.12 7.12 0 0 1 330 69.56a2.22 2.22 0 0 1 2.29-.15 2.94 2.94 0 0 1 1.2 2.67 7.15 7.15 0 0 1-3.05 5.78 2.67 2.67 0 0 1-1.36.4h0zm2.24-8.26a1.91 1.91 0 0 0-.9.28 6.29 6.29 0 0 0-1.897 2.191c-.453.868-.697 1.83-.713 2.809-.045.357.001.719.134 1.053a2.13 2.13 0 0 0 .626.857 1.44 1.44 0 0 0 1.41-.15 6.29 6.29 0 0 0 1.897-2.191c.453-.868.697-1.83.713-2.809.045-.357-.001-.719-.134-1.053s-.349-.629-.626-.857a1 1 0 0 0-.51-.13h0z"/><path opacity=".4" d="M330.2 93.71l-19.06 36.42-18.87 61.21-14.96-11.31-4.29-2.48-19.06 52.28-19.06-4.85-18.71 53.83-15.12-13.48-4.3-2.48-19.06-4.86-19.06 44.84-19.06 2.59-19.06 36.42v25.41l4.29 2.48L334.5 248.68V96.19l-4.3-2.48z"/><path d="M124.82 344.31l19.06-36.42 19.06-2.58L182 260.47l19.07 4.86 19.06 16.99 19.06-54.86 19.06 4.85 19.06-52.28 19.06 14.41 19.06-61.83 19.07-36.42v152.49L124.82 369.73v-25.42z" class="n"/><use xlink:href="#K"/></g><use xlink:href="#K" opacity=".05" class="g"/><use xlink:href="#L" class="h n"/><use xlink:href="#L" class="g k"/><use xlink:href="#M" class="h n"/><use xlink:href="#M" class="g k"/><use xlink:href="#N" class="h n"/><use xlink:href="#N" class="g k"/><use xlink:href="#O" class="h n"/><use xlink:href="#O" class="g k"/><use xlink:href="#P" class="h n"/><use xlink:href="#P" class="g k"/><g fill="#3cb388"><path d="M351.76 62.55l-4.29-2.47-10.73 24.78 4.29 2.48 2.15-1.24v153.11l4.29 2.48 8.59-4.95V78.67l6.44-3.72-10.74-12.4z"/><path d="M362.5 74.95l-10.74-12.4-10.73 24.79 6.44-3.72v158.07l8.59-4.95V78.67l6.44-3.72z"/></g><path d="M336.74 84.86l4.29 2.48 10.73-24.79-4.29-2.47-10.73 24.78zm6.44 154.35l4.29 2.48V83.62l-4.29 2.48v153.11z" class="g k"/><path d="M61.47 328.53h-37.9l3.92 22.7c.3 2 1.75 3.88 4.36 5.39 5.89 3.4 15.45 3.4 21.34 0 2.81-1.62 4.26-3.72 4.4-5.85l3.88-22.24z" class="j"/><g class="r"><path d="M57.42 332.46c-8.23 4.74-21.57 4.74-29.8 0a15.35 15.35 0 0 1-3.94-3.16l1 6.57a14.64 14.64 0 0 0 3.69 2.92c7.84 4.53 20.54 4.53 28.38 0a14.59 14.59 0 0 0 3.68-2.93l1-6.56c-1.148 1.273-2.504 2.341-4.01 3.16h0z"/><path d="M27.49 351.22c.3 2 1.75 3.89 4.36 5.4 4.21 2.43 10.29 3.11 15.57 2.07-9.47.72-16-3.41-16.94-7.23s-2.22-18.29-2.22-18.29l1.05-4.23-.3-.41h-5.44l3.92 22.69z"/></g><path d="M63.44 323.7c-.222 1.059-.654 2.062-1.27 2.95a14 14 0 0 1-4.75 4.22c-8.23 4.75-21.57 4.75-29.8 0a14 14 0 0 1-4.75-4.22c-.609-.891-1.038-1.893-1.26-2.95h0c-.74-3.57 1.27-7.29 6-10 8.23-4.75 21.57-4.75 29.8 0 4.75 2.71 6.76 6.43 6.03 10z" class="m"/><path d="M62.17 326.65a13.99 13.99 0 0 1-4.75 4.22c-8.23 4.75-21.57 4.75-29.8 0a13.99 13.99 0 0 1-4.75-4.22c-.609-.891-1.038-1.893-1.26-2.95h0l.93 6.43c.43 2.58 2.35 5.1 5.79 7.08 7.84 4.52 20.54 4.52 28.38 0 3.39-2 5.31-4.44 5.77-7v-.33l.91-6.19a8.07 8.07 0 0 1-1.22 2.96h0zm-7.23-11.55c-6.86-4-18-4-24.83 0-3.88 2.25-5.56 5.27-5.05 8.19.39 2.25 2.08 4.43 5.05 6.14 6.85 4 18 4 24.83 0 3-1.71 4.65-3.89 5-6.13.56-2.93-1.12-5.95-5-8.2z" class="j"/><path d="M26.22 326c1.02 1.421 2.351 2.59 3.89 3.42 6.85 4 18 4 24.83 0a11.82 11.82 0 0 0 3.89-3.42c0-2.37-1.64-4.73-4.77-6.54-6.37-3.68-16.7-3.68-23.07 0-3.13 1.82-4.72 4.18-4.77 6.54z" class="q"/><use xlink:href="#B" class="u"/><g class="g"><use xlink:href="#B" class="o"/><path d="M42.8 326.64c-.25-9.74 5.78-19 5.78-19-1.6-.2-6 3.19-7.68 8.59-1.65 5.11 1.73 10.16 1.9 10.41z" class="k"/></g><use xlink:href="#C" class="u"/><g class="g"><use xlink:href="#C" class="o"/><path opacity=".25" d="M42.8 326.64c-2.62-4-7.66-6.06-7.66-6.06.59-.53 3.3-.38 5.5 1.31a6.52 6.52 0 0 1 1.576 2.149 6.51 6.51 0 0 1 .584 2.601h0z"/></g><path d="M113.49 366.22h-37.9l3.92 22.69c.3 2 1.75 3.89 4.36 5.39 5.89 3.41 15.45 3.41 21.34 0 2.81-1.62 4.26-3.72 4.4-5.84l3.88-22.24z" class="j"/><g class="r"><path d="M109.44 370.15c-8.23 4.75-21.57 4.75-29.8 0A15.37 15.37 0 0 1 75.7 367l1 6.57c1.064 1.169 2.31 2.159 3.69 2.93 7.84 4.52 20.54 4.52 28.38 0a14.65 14.65 0 0 0 3.68-2.94l1-6.55c-1.152 1.263-2.508 2.324-4.01 3.14h0z"/><path d="M79.51 388.92c.3 2 1.75 3.88 4.36 5.39 4.21 2.43 10.29 3.12 15.57 2.07-9.47.73-16-3.41-16.94-7.22s-2.22-18.29-2.22-18.29l1-4.23-.3-.41h-5.39l3.92 22.69z"/></g><path d="M115.46 361.4a8 8 0 0 1-1.27 2.94 14 14 0 0 1-4.75 4.22c-8.23 4.75-21.57 4.75-29.8 0a14 14 0 0 1-4.75-4.22 8.12 8.12 0 0 1-1.26-2.94c-.74-3.57 1.27-7.3 6-10 8.23-4.76 21.57-4.76 29.8 0 4.75 2.7 6.76 6.43 6.03 10z" class="m"/><path d="M114.19 364.34a14 14 0 0 1-4.75 4.22c-8.23 4.75-21.57 4.75-29.8 0a14 14 0 0 1-4.75-4.22 8.12 8.12 0 0 1-1.26-2.94l.93 6.42c.43 2.58 2.35 5.1 5.79 7.08 7.84 4.52 20.54 4.52 28.38 0 3.39-1.95 5.31-4.44 5.77-7v-.33l.91-6.18a7.99 7.99 0 0 1-1.22 2.95h0zM107 352.8c-6.86-4-18-4-24.83 0-3.88 2.24-5.56 5.26-5 8.19.39 2.24 2.08 4.42 5 6.14 6.85 4 18 4 24.83 0 3-1.72 4.65-3.9 5-6.14.52-2.93-1.16-5.99-5-8.19z" class="j"/><path d="M78.24 363.7a11.66 11.66 0 0 0 3.89 3.43c6.85 4 18 4 24.83 0a11.86 11.86 0 0 0 3.89-3.43c0-2.37-1.64-4.73-4.77-6.54-6.38-3.68-16.7-3.68-23.07 0-3.13 1.84-4.72 4.17-4.77 6.54z" class="q"/><path d="M94.54 351.44s.75-6.61 5.78-9.63 11-2.75 12.08-1.47-.27 7.09-4.92 10.57a10.88 10.88 0 0 1-12.94.53h0z" class="u"/><path d="M94.54 351.44c6.58-7.91 17.86-11.11 17.86-11.11-1.13-1.27-7-1.61-12.08 1.48-4.91 2.95-5.74 9.31-5.78 9.63z" class="g k"/><path d="M95.92 363.91a2.5 2.5 0 0 1-1.14-.65 2.88 2.88 0 0 1-.72-.87 6.44 6.44 0 0 1-.72-1.91 37.54 37.54 0 0 1-.72-3.85c-.334-2.549-.465-5.12-.39-7.69a59.47 59.47 0 0 1 .78-7.66 54.9 54.9 0 0 1 1.91-7.47c1.664-4.633 2.926-9.4 3.77-14.25a37.65 37.65 0 0 0-.22-14.69l.2-.06a30.15 30.15 0 0 1 1.73 7.35c.245 2.53.265 5.077.06 7.61a79.82 79.82 0 0 1-2.86 14.88A55.1 55.1 0 0 0 95.72 349a69.77 69.77 0 0 0 .29 7.24c.11 1.2.26 2.38.47 3.54.139.555.229 1.12.27 1.69a6.63 6.63 0 0 1-.21 1.81l-.62.63z" class="r"/><path d="M93.2 350.41s.78-8-4.4-12.84-12.27-6-13.92-4.78-2.07 10 2.55 15.32 12.57 4.7 15.77 2.3z" class="u"/><path d="M93.2 350.4c-5.79-11-18.32-17.62-18.32-17.62 1.65-1.22 8.63-.15 13.91 4.79 5.06 4.71 4.45 12.43 4.41 12.83z" class="g k"/><path d="M98 302.42a13.22 13.22 0 0 0 4.46-2.83c2.29-2.13 4.73-7 5.25-11.66s-1.18-10.43-2-11.28c-.316-.253-.68-.439-1.071-.547a2.98 2.98 0 0 0-1.199-.083 5.42 5.42 0 0 0-3.1-1.71c-1.94-.3-3.29-.1-4.37 1.1s-1.41 1.73-2.34 2.71-2.31 4.24-2.29 8.25c.04 3.72 1.86 11.63 6.66 16.05z" class="s"/><path d="M104 285.6c-.07-.13-.29 0-.32.09-.11.893-.11 1.796 0 2.69 0 .9-.08 1.81-.15 2.7-.18 2.33-1.35 4-2.33 6.08l-.87 1.89c-.1-2.31.68-5 .88-6.91.41-3.8.77-7.09-1-10.56-.07-.14-.43-.05-.39.12 1 4 .16 8.41-.44 12.48-.14 1-.45 2.49-.56 4.05-.71-1.2-1.53-2.36-2.12-3.47-1.17-2.21-1-5-.91-7.46.05-1.85.32-3.13-.71-4.72-.07-.11-.29 0-.31.09a8 8 0 0 0 0 1.83c0 1-.18 1.91-.24 2.88a26.67 26.67 0 0 0 0 5.36 15.11 15.11 0 0 0 2.08 5.08c.653 1.004 1.228 2.057 1.72 3.15a4.4 4.4 0 0 1 .28 1.2c1.119-.508 2.165-1.164 3.11-1.95.79-2 2.11-3.85 2.75-5.79a12.56 12.56 0 0 0-.47-8.83h0z" class="t"/><path d="M107.75 287.93c.53-4.67-1.18-10.43-2-11.28-.316-.253-.68-.439-1.071-.547a2.98 2.98 0 0 0-1.199-.083 5.42 5.42 0 0 0-3.1-1.71c-1.67-.25-2.9-.14-3.9.66a7.9 7.9 0 0 1 2.1-.32 3.92 3.92 0 0 1 2.73 1c.32.32.57.71.89 1.05.293.353.706.584 1.16.65h.65a1.7 1.7 0 0 1 1.17.55 4.31 4.31 0 0 1 .73 1.1 14.1 14.1 0 0 1 1.17 3.28c.184 1.045.307 2.1.37 3.16a26.46 26.46 0 0 1 .11 3.88 38.35 38.35 0 0 0 .19-1.39z" class="i p"/><path d="M91.36 286.37c0-4 1.37-7.27 2.29-8.25l1.75-2c-.78.94-1.07 1.85-.58 3.9a15.26 15.26 0 0 1 .53 6.15A24.55 24.55 0 0 0 98 302.42c-4.8-4.42-6.62-12.33-6.64-16.05z" class="t"/><path d="M95.35 286.13a15.26 15.26 0 0 0-.53-6.15c-.49-2.05-.2-3 .58-3.9l-1.3 1.55a10.3 10.3 0 0 0-.17 2.39c.06.93.34 1.77.45 2.68.21 1.66-.31 3.26-.5 4.88a19.54 19.54 0 0 0 .85 8.35 7.54 7.54 0 0 0 2 3.52 24.24 24.24 0 0 1-1.38-13.32h0z" class="i p"/><path d="M103.66 306.19a14 14 0 0 0 8.24 3.27c5.08.27 8.49-2.16 10.06-5.07s2.48-3.82 3.21-5.93 0-3.7-.16-4.83-.11-2.94-1-4.06-2.79-.93-4.81-1.86-5.63-1.93-8.25-.68-8.68 8.51-9.91 13.75l2.62 5.41z" fill="#fb807e"/><path d="M117.06 303.05c-3.352-.687-6.822-.532-10.1.45a17.75 17.75 0 0 0-2.86 1l.15-.25a17.13 17.13 0 0 1 3.42-3.33c2.9-2.37 6.58-5.45 10.4-6 .24 0 .36-.34.05-.36-4-.24-7.68 2-10.7 4.44-1.603 1.176-3.055 2.546-4.32 4.08.437-1.261.99-2.48 1.65-3.64a23.87 23.87 0 0 1 5.8-7c.2-.15-.1-.27-.24-.17-2.52 1.73-4.83 3.07-6.49 5.75-.837 1.313-1.547 2.703-2.12 4.15l2 4.06s.13.12.39.32l.34-.22c.821-.444 1.673-.828 2.55-1.15 3.213-1.154 6.588-1.795 10-1.9.02-.04.25-.19.08-.23z" class="s"/><path d="M125 293.63c-.19-1.13-.11-2.94-1-4.06s-2.79-.93-4.81-1.86-5.63-1.93-8.25-.68a8.81 8.81 0 0 0-1.93 1.42c1.214-.689 2.548-1.14 3.93-1.33 2.31-.21 3.81 1.21 5.93 1.78 1.2.32 2.88.31 4 .86 1.49.77 1.4 3 1.84 4.36.169.555.415 1.083.73 1.57-.11-.81-.34-1.49-.44-2.06zm-.58 6.54c-1.25.949-2.349 2.082-3.26 3.36-1.19 1.46-2.26 2.8-4.15 3.4-1.25.39-2.32.44-3.35 1.28-.2.17.17 1.22.31 1.2 2.086-.119 4.078-.908 5.68-2.25a9.41 9.41 0 0 0 2.31-2.77c1.04-2.02 1.84-3.07 2.46-4.22z" class="i p"/><path d="M103.66 306.19a4.52 4.52 0 0 1 1.56-.08 35.81 35.81 0 0 1 4.27.16 13.63 13.63 0 0 1 9.08 4.1c1.515 1.687 2.671 3.663 3.4 5.81a7.85 7.85 0 0 1 .45 4.84c-.206.8-.686 1.502-1.357 1.984s-1.489.715-2.313.656c.28 0 .1 1.82-.22 2-.74.5-1.85.32-3.28.81s-5.47 2.63-8.64-3.69-7.78-14.44-7.78-14.44l4.83-2.15z" class="s"/><path d="M107.65 308c-2.028-.561-4.126-.834-6.23-.81l-2.59 1.18 1 1.72a11.64 11.64 0 0 1 4.18 1c2.244 1.24 4.11 3.064 5.4 5.28 0 .1.34 0 .28-.12a15.51 15.51 0 0 0-5.29-6.65c-.551-.344-1.142-.619-1.76-.82 1.189.008 2.376.109 3.55.3a16.56 16.56 0 0 1 9.67 6.13c.07.09.33 0 .28-.12a14.6 14.6 0 0 0-8.49-7.09h0z" class="t"/><path d="M122 316.18c-.729-2.147-1.885-4.123-3.4-5.81a13.63 13.63 0 0 0-9.08-4.1c-.56 0-1.13-.09-1.7-.12 3 .71 5.12 1.16 7.68 2.83.778.623 1.519 1.291 2.22 2a12 12 0 0 1 2.69 4 12.34 12.34 0 0 1 1.08 3.89 6.37 6.37 0 0 1-.55 3.07c-.217.429-.521.808-.893 1.113a3.44 3.44 0 0 1-1.267.657 3.53 3.53 0 0 0 3.67-2.64 7.85 7.85 0 0 0-.45-4.89z" class="i p"/><path d="M107.76 324.72c1.88 1.44 4 .78 6 .6s4 .67 4.72.38c-.74.5-1.85.32-3.28.81-1.2.42-4.5 2.14-7.44-1.79z" class="t"/><path d="M98.36 300.48s.79-1.08 2.83-.23 3.36 4.61 2.59 6.5a3.81 3.81 0 0 1-4.83 2.33c-2.12-.74-2.63-6.68-.59-8.6z" fill="#fafafa"/><path d="M103.12 307.85a12.01 12.01 0 0 1-1.38.41h-.15c-1.38-.58-.7-1.15-1-2a9.69 9.69 0 0 1-.89-1.76 9.09 9.09 0 0 1 .18-2.91c.23-1 .66-1.25 1.36-1.35-2-.85-2.83.23-2.83.23a3.77 3.77 0 0 0-.27.3 5.93 5.93 0 0 0 0 2.34c-.049.816-.002 1.635.14 2.44.057.164.13.321.22.47a.88.88 0 0 0-.54.66 3.61 3.61 0 0 0 0 1.35c.235.45.621.804 1.09 1 .717.247 1.493.266 2.222.054a3.68 3.68 0 0 0 1.848-1.234h0z" class="q"/><path d="M98.83 308.38c2.64.56 5.2 4.33 6.31 6.93a20.33 20.33 0 0 1 1.43 8.85c-.17 3-2.06 3.25-2.06 3.25s-.23 2.57-1.66 3.78-2.55 2.16-4.36 1.31-3-1.37-5.09-5.17-4.75-5.06-2.79-11.05 8.22-7.9 8.22-7.9z" class="t"/><path d="M99.85 308.75c-.316-.166-.652-.29-1-.37-.429.147-.85.317-1.26.51l.19.08a5.08 5.08 0 0 1-.19 1.19 10.31 10.31 0 0 1-1.93 3.37 11.62 11.62 0 0 1-3.95 3.47 7.24 7.24 0 0 1-1.45.51c-.162.639-.265 1.292-.31 1.95 2.45 0 5.22-2.52 6.52-4.14a16.57 16.57 0 0 0 2.62-4.2c.272.534.509 1.085.71 1.65a19.57 19.57 0 0 1 .89 7.29 26.15 26.15 0 0 1-.3 5c0 .15.29.11.33 0a20.49 20.49 0 0 0 0-13.86 11.03 11.03 0 0 1 1.1 1.52c1 1.73 2.25 3.86 2.21 5.93 0 .13.25.05.26-.05.23-2.23-1-4.88-2.08-6.8-.606-1.145-1.404-2.177-2.36-3.05h0z" class="g o"/><path d="M106.57 324.16c.096-1.673-.011-3.352-.32-5 .09 1.185.09 2.375 0 3.56 0 1.074-.383 2.113-1.08 2.93-.67.63-1.58 1-1.91 1.91-.19 1.062-.527 2.091-1 3.06-.643 1.008-1.598 1.777-2.72 2.19 1.27.16 2.23-.63 3.38-1.6 1.43-1.21 1.66-3.78 1.66-3.78s1.82-.28 1.99-3.27z" class="i p"/><path d="M91.62 324.56c1.14.95 2.95 1 4.56 3.21s2.49 5.14 5 4.66c-.404.244-.864.379-1.336.391a2.72 2.72 0 0 1-1.354-.321c-1.82-.85-3-1.37-5.09-5.17-.59-1.07-1.22-1.94-1.78-2.77z" fill="#b16668"/><path d="M98.43 304.55a1.9 1.9 0 0 0-.39-2.13s.9-1.14-.13-3.33-5.19-6.56-10.4-6-5.4 4.2-5.33 7.91c.06 3.42-.58 5.57-.08 8.76.4 2.55 1.43 6.1 4.38 7.55s5.27.76 8.35-2.38a14.6 14.6 0 0 0 4.28-7.8 3.46 3.46 0 0 0-.68-2.58h0z" fill="#fb807e"/><path d="M89.86 298.9c-.17 0-.4.25-.12.3a22.1 22.1 0 0 1 6.64 2.17 8.65 8.65 0 0 1 1.81 1.27 1.39 1.39 0 0 0-.15-.22 2.46 2.46 0 0 0 .35-1.56 19 19 0 0 0-2-1.08c-2.21-1.14-4.1-.92-6.53-.88zm9.2 7.1a3.48 3.48 0 0 0-.63-1.4 1.29 1.29 0 0 0 .08-.18c-.811 1.026-1.76 1.935-2.82 2.7-1.82 1.42-4.31 3.29-6.56 3.9-.16 0-.15.23 0 .2 3.41-.62 7.6-2.37 9.93-5.22z" class="s"/><path d="M84.85 316.08a6.01 6.01 0 0 0 1.63 1.21c3 1.46 5.27.76 8.35-2.38a14.6 14.6 0 0 0 4.28-7.8 3.35 3.35 0 0 0-.1-1.37 22.67 22.67 0 0 1-.42 2.34 9.02 9.02 0 0 1-1.36 2.67 19.21 19.21 0 0 1-4.47 4.34c-1.145.898-2.502 1.486-3.94 1.71-1.362.092-2.727-.156-3.97-.72h0zm2.66-23.01c-1.107.071-2.179.414-3.12 1a.61.61 0 0 0-.15.3c0 .2.35.19.42 0s2.17-.25 2.51-.27a15.91 15.91 0 0 1 3.15.24c2.45.31 3.86 1.53 5.6 3.19l2.29 2.28c-.083-.259-.184-.513-.3-.76-1.03-2.14-5.19-6.52-10.4-5.98z" class="i p"/><path d="M87.51 293.07a7.61 7.61 0 0 1 1.35 0 3.85 3.85 0 0 0-3.26 4c-.08 2.51 1.21 4.76.85 7.42s-4.07 7-2.36 10.7a13.07 13.07 0 0 1-2-5.46c-.5-3.19.14-5.34.08-8.76-.06-3.7.13-7.36 5.34-7.9z" class="s"/><path d="M88.21 293.2c-.13.11-.6.1-.8.19a3.89 3.89 0 0 0-.65.44 4.76 4.76 0 0 0-1.2 1.21 4.82 4.82 0 0 0-.7 2.8 24.01 24.01 0 0 0 .74 4c.85 3.77-2.94 7.66-1.95 11.25 0-3.17 2.5-6.46 2.8-8.63.36-2.66-.93-4.91-.85-7.42a3.83 3.83 0 0 1 .642-2.36c.466-.695 1.147-1.218 1.938-1.49l.03.01z" class="i"/><path d="M371.25 337c0-8.08-5.34-16.16-16-22.33-21.36-12.32-56-12.32-77.33 0-10.68 6.17-16 14.25-16 22.33v14.88c0 8.08 5.34 16.16 16 22.32 21.35 12.33 56 12.33 77.33 0 10.67-6.16 16-14.24 16-22.32V337zm-90.7-17.75c9.54-5.5 22.33-8.53 36-8.53s26.49 3 36 8.53c8.62 5 13.37 11.28 13.37 17.75s-4.75 12.76-13.37 17.74c-9.53 5.51-22.33 8.54-36 8.54s-26.48-3-36-8.54c-8.62-5-13.37-11.28-13.37-17.74s4.75-12.82 13.37-17.8v.05z" class="v"/><path d="M277.9 359.27c21.36 12.33 56 12.33 77.33 0s21.36-32.32 0-44.65-56-12.32-77.33 0-21.35 32.32 0 44.65zM267.18 337c0-6.47 4.74-12.77 13.37-17.75 9.53-5.5 22.33-8.53 36-8.53s26.48 3 36 8.53c8.62 5 13.37 11.28 13.37 17.75s-4.75 12.76-13.37 17.74c-9.54 5.51-22.33 8.54-36 8.54s-26.49-3-36-8.54c-8.62-5.03-13.37-11.33-13.37-17.74z" class="i n"/><use xlink:href="#D" class="v"/><use xlink:href="#D" class="g o"/><path opacity=".4" d="M280.55 325.94c9.53-5.5 22.33-8.54 36-8.54s26.48 3 36 8.54c7.11 4.11 11.58 9.12 12.93 14.38-1.35 5.25-5.82 10.26-12.93 14.37-9.54 5.51-22.33 8.54-36 8.54s-26.49-3-36-8.54c-7.12-4.11-11.59-9.12-12.93-14.37 1.38-5.26 5.81-10.27 12.93-14.38z" class="i"/><path d="M303.68 367.64v14.87a71.62 71.62 0 0 1-25.77-8.36c-10.68-6.16-16-14.24-16-22.32V337a19.01 19.01 0 0 1 .65-4.88h0c-2.59 9.61 2.53 19.79 15.36 27.2a71.84 71.84 0 0 0 25.76 8.32h0z" class="g o"/><path d="M279.53 368.74c-.067-1.329-.445-2.624-1.105-3.779s-1.584-2.139-2.695-2.871a2.71 2.71 0 0 0-2.7-.28h0l-18.41 10.51c-.389.276-.698.649-.897 1.083a2.71 2.71 0 0 0-.233 1.387 8.48 8.48 0 0 0 1.111 3.78c.662 1.155 1.586 2.138 2.699 2.87.386.282.841.457 1.317.506a2.7 2.7 0 0 0 1.393-.226h0l18.4-10.5c.392-.275.703-.651.9-1.087a2.67 2.67 0 0 0 .22-1.393h0z" class="j"/><path d="M278.39 371.22c.396-.273.71-.647.911-1.083s.28-.919.229-1.397a7 7 0 0 0-.65-2.86l-23.73 13.57c.566.805 1.291 1.486 2.13 2 .386.283.841.458 1.317.507a2.7 2.7 0 0 0 1.393-.227l18.4-10.51z" class="r"/><path d="M260.38 381.39a11 11 0 0 0-1.439-4.918c-.86-1.503-2.063-2.782-3.511-3.732a3.5 3.5 0 0 0-3.46-.39h0l-61 32.6 9.1 16.09L259 384.59a3.49 3.49 0 0 0 1.118-1.416c.242-.561.333-1.177.262-1.784z" class="v"/><path d="M200 421.07l58.93-36.45c.513-.357.922-.845 1.182-1.413s.363-1.196.298-1.817c-.068-1.867-.638-3.68-1.65-5.25l-63.45 36.63 4.69 8.3z" class="g o"/><use xlink:href="#E" class="v"/><use xlink:href="#E" opacity=".04" class="g"/><g class="h"><path d="M53.09 108.79c-.137.01-.274.01-.41 0l-4.12-.64a2.33 2.33 0 0 1-1.62-1c-.175-.281-.287-.596-.328-.924a2.29 2.29 0 0 1 .088-.976l2.3-7.68a1.77 1.77 0 0 0-.54-1.59 11.86 11.86 0 0 1-1.23-1.32.67.67 0 0 0-.93-.18l-5.15 3.89a2 2 0 0 1-1.87.36A2 2 0 0 1 38 97.27l-1.4-5.81a4.17 4.17 0 0 1 1-3.56l5.06-5.31a4.06 4.06 0 0 0 .89-2.17c.065-1.363.205-2.722.42-4.07a1 1 0 0 0-.63-1.1l-3.24-1.14a2.46 2.46 0 0 1-1.43-1.29 2.42 2.42 0 0 1-.08-1.92l3.13-8.48a3.39 3.39 0 0 1 3-2.13l3.92-.06a2.23 2.23 0 0 0 1.62-1l2.63-4a3.67 3.67 0 0 0 .59-2.21l-.74-5.76A4.25 4.25 0 0 1 54 43.84l5.76-5.18a1.92 1.92 0 0 1 3.22.78l1.67 4.47a.5.5 0 0 0 .26.29.55.55 0 0 0 .46 0 20.76 20.76 0 0 1 2.56-1 3.12 3.12 0 0 0 1.64-1.39l3.34-7.52a3.12 3.12 0 0 1 3.2-1.75l4.12.64A2.26 2.26 0 0 1 82.07 36l-2.25 7.61a1.78 1.78 0 0 0 .54 1.59c.445.402.856.84 1.23 1.31a.66.66 0 0 0 .93.19l5.15-3.9a1.87 1.87 0 0 1 3.09 1.2l1.4 5.8a4.15 4.15 0 0 1-1 3.56l-5.06 5.31a4.13 4.13 0 0 0-.89 2.17 38.93 38.93 0 0 1-.42 4.08 1 1 0 0 0 .62 1.1l3.25 1.14a2.47 2.47 0 0 1 1.51 3.2l-3.13 8.49a3.4 3.4 0 0 1-3 2.12l-3.93.07a2.27 2.27 0 0 0-1.62 1 46.55 46.55 0 0 1-2.62 4 3.62 3.62 0 0 0-.59 2.21l.74 5.76a4.3 4.3 0 0 1-1.28 3.45l-5.74 5.1a1.93 1.93 0 0 1-.849.502 1.94 1.94 0 0 1-1.852-.454 1.93 1.93 0 0 1-.52-.838l-1.67-4.46a.45.45 0 0 0-.26-.29.54.54 0 0 0-.46 0c-.832.385-1.687.719-2.56 1a3 3 0 0 0-1.64 1.39L55.88 107a3.16 3.16 0 0 1-1.141 1.292c-.493.317-1.064.488-1.649.498h0zm-6.48-16.27a2.54 2.54 0 0 1 2 1c.305.397.64.772 1 1.12a3.58 3.58 0 0 1 1.05 3.45l-2.25 7.61a.46.46 0 0 0 0 .4.44.44 0 0 0 .149.148c.061.037.13.058.201.062L53 107a1.28 1.28 0 0 0 1.25-.68l3.34-7.53a4.87 4.87 0 0 1 2.74-2.38 18.72 18.72 0 0 0 2.33-1 2.39 2.39 0 0 1 1.94-.09 2.29 2.29 0 0 1 1.29 1.35l1.67 4.46a.38.38 0 0 0 .12.18.48.48 0 0 0 .17-.11l5.72-5.2a2.53 2.53 0 0 0 .69-1.86l-.74-5.76a5.43 5.43 0 0 1 .92-3.52l2.53-3.85a4.06 4.06 0 0 1 3.17-1.87l3.91-.07a1.59 1.59 0 0 0 1.32-.93l3.13-8.48a.69.69 0 0 0 0-.51.67.67 0 0 0-.38-.34l-3.25-1.14A2.88 2.88 0 0 1 83 64.58a35.11 35.11 0 0 0 .41-3.87 5.8 5.8 0 0 1 1.39-3.35l5.06-5.31a2.34 2.34 0 0 0 .5-1.87h0L89 44.37a.34.34 0 0 0-.07-.16l-.14.09-5.15 3.9a2.47 2.47 0 0 1-3.46-.5c-.303-.4-.637-.774-1-1.12a3.58 3.58 0 0 1-1.05-3.45l2.25-7.61a.48.48 0 0 0 0-.41.5.5 0 0 0-.35-.21l-4.12-.64a1.3 1.3 0 0 0-1.25.69l-3.34 7.52a4.87 4.87 0 0 1-2.74 2.38 18.72 18.72 0 0 0-2.33 1 2.36 2.36 0 0 1-1.94.09 2.3 2.3 0 0 1-1.29-1.34l-1.67-4.46a.52.52 0 0 0-.11-.19.78.78 0 0 0-.24.05l-5.8 5.2a2.47 2.47 0 0 0-.69 1.86l.75 5.76a5.62 5.62 0 0 1-.93 3.52 44.12 44.12 0 0 0-2.53 3.85 4.08 4.08 0 0 1-3.17 1.87l-3.92.06a1.61 1.61 0 0 0-1.31.93l-3.13 8.48a.67.67 0 0 0 .4.86l3.25 1.13a2.9 2.9 0 0 1 1.83 3.11c-.207 1.285-.343 2.58-.41 3.88A5.77 5.77 0 0 1 44 83.85l-5.06 5.31a2.34 2.34 0 0 0-.5 1.87l1.4 5.81a.34.34 0 0 0 .07.17l.14-.09 5.15-3.9a2.43 2.43 0 0 1 1.41-.5h0zm12.91-5a7.06 7.06 0 0 1-2.16-.32c-2.56-.79-4.4-3-5.18-6.24-1.71-7.12 2.15-17.64 8.61-23.45C64.39 54.3 68.26 53 71.41 54c2.56.8 4.4 3 5.17 6.24 1.72 7.13-2.14 17.65-8.6 23.46-2.81 2.51-5.79 3.85-8.46 3.85v-.03zm9.72-32.06c-2.21 0-4.76 1.18-7.23 3.41C56 64.3 52.38 74 54 80.57c.63 2.61 2 4.31 3.94 4.92 2.52.78 5.75-.37 8.86-3.17 6-5.41 9.63-15.13 8-21.67-.63-2.62-2-4.32-3.94-4.92a5.5 5.5 0 0 0-1.62-.24v-.03zm43.04 34.47a1.62 1.62 0 0 1-.31 0l-3-.46a1.9 1.9 0 0 1-.728-.28 1.89 1.89 0 0 1-.552-.55 1.85 1.85 0 0 1-.263-.734c-.035-.261-.013-.525.063-.776l1.64-5.51a1.14 1.14 0 0 0-.35-1 10.51 10.51 0 0 1-.91-1c-.08-.11-.28-.25-.45-.11l-3.74 2.82a1.5 1.5 0 0 1-2.151-.158c-.173-.207-.286-.456-.329-.722l-1-4.22a3.19 3.19 0 0 1 .05-1.445c.126-.472.359-.908.68-1.275l3.67-3.85c.338-.422.546-.932.6-1.47a25.82 25.82 0 0 1 .32-3 .62.62 0 0 0-.36-.62l-2.35-.82c-.491-.181-.892-.547-1.117-1.02a2 2 0 0 1-.083-1.51l2.28-6.15c.186-.467.503-.87.913-1.161a2.61 2.61 0 0 1 1.397-.479h2.84a1.5 1.5 0 0 0 .565-.212 1.49 1.49 0 0 0 .435-.418l1.91-2.91a2.58 2.58 0 0 0 .4-1.49l-.54-4.17a3.27 3.27 0 0 1 1-2.64l4.19-3.78a1.62 1.62 0 0 1 .682-.396 1.61 1.61 0 0 1 .788-.024 1.64 1.64 0 0 1 .675.366c.193.174.342.391.435.634l1.21 3.24c.16.14.24.13.31.09A16.04 16.04 0 0 1 123 42a2 2 0 0 0 1.09-.92l2.42-5.45a2.39 2.39 0 0 1 2.49-1.35l3 .46c.259.038.508.131.728.273s.406.331.547.552a1.82 1.82 0 0 1 .267.73 1.83 1.83 0 0 1-.062.775l-1.63 5.52c-.029.182-.013.368.046.542a1.13 1.13 0 0 0 .294.458 9.37 9.37 0 0 1 .91 1 .33.33 0 0 0 .088.097c.035.026.076.045.119.055a.33.33 0 0 0 .253-.042l3.73-2.82a1.6 1.6 0 0 1 .713-.337 1.59 1.59 0 0 1 .787.047 1.6 1.6 0 0 1 1 1.17l1 4.22a3.18 3.18 0 0 1-.046 1.446 3.17 3.17 0 0 1-.684 1.274l-3.67 3.85c-.338.422-.546.932-.6 1.47a26.02 26.02 0 0 1-.31 3c-.015.128.011.258.074.371a.62.62 0 0 0 .276.259l2.36.82a2 2 0 0 1 1.19 2.53l-2.27 6.15a2.62 2.62 0 0 1-.92 1.16 2.64 2.64 0 0 1-1.4.48h-2.84a1.47 1.47 0 0 0-.567.209c-.172.109-.319.252-.433.421l-1.91 2.91c-.289.438-.432.956-.41 1.48l.54 4.18c.04.487-.03.976-.203 1.433a3.28 3.28 0 0 1-.797 1.207L124 85.37a1.56 1.56 0 0 1-1.475.409 1.55 1.55 0 0 1-.695-.379c-.195-.184-.34-.415-.42-.671l-1.21-3.23c-.16-.15-.23-.13-.31-.09a16.34 16.34 0 0 1-1.87.76 2 2 0 0 0-1.09.92l-2.42 5.45a2.45 2.45 0 0 1-2.23 1.39zm-4.69-12.11a2 2 0 0 1 1.57.78 6.98 6.98 0 0 0 .74.79 2.76 2.76 0 0 1 .767 1.225 2.77 2.77 0 0 1 .043 1.445l-1.63 5.51.15.25 3 .46c.149.011.297-.021.428-.092s.24-.178.312-.308l2.42-5.46a3.66 3.66 0 0 1 2.08-1.81c.57-.191 1.128-.418 1.67-.68a1.86 1.86 0 0 1 1.53-.07 1.81 1.81 0 0 1 .613.429c.172.184.304.403.387.641l1.21 3.23 4.13-3.77a1.69 1.69 0 0 0 .347-.56c.077-.208.112-.429.103-.65l-.54-4.18a4.16 4.16 0 0 1 .7-2.66c.65-.88 1.26-1.82 1.83-2.78.263-.412.619-.756 1.039-1.004a3.12 3.12 0 0 1 1.381-.426h2.84c.173-.016.338-.078.48-.178a1 1 0 0 0 .33-.392l2.27-6.15c.018-.038.027-.078.027-.12s-.009-.083-.027-.12a.34.34 0 0 0-.076-.106c-.033-.029-.072-.051-.114-.064l-2.35-.83a2.25 2.25 0 0 1-1.43-2.43 27.18 27.18 0 0 0 .3-2.79 4.39 4.39 0 0 1 1.05-2.52l3.66-3.85a1.56 1.56 0 0 0 .292-.57 1.55 1.55 0 0 0 .038-.64h0l-1-4.21-3.64 2.84a2 2 0 0 1-2.73-.39 6.91 6.91 0 0 0-.73-.79 2.79 2.79 0 0 1-.82-2.67l1.64-5.51v-.21h-.2l-3-.46a.74.74 0 0 0-.432.085c-.133.072-.24.181-.308.315l-2.42 5.46a3.72 3.72 0 0 1-2.08 1.81c-.571.19-1.129.417-1.67.68a1.93 1.93 0 0 1-1.54.07 1.8 1.8 0 0 1-1-1.07L118.06 40l-4.14 3.77a1.72 1.72 0 0 0-.45 1.21l.54 4.17c.08.944-.167 1.887-.7 2.67-.64.88-1.25 1.82-1.82 2.78-.266.411-.624.755-1.046 1.003a3.14 3.14 0 0 1-1.384.427h-2.84a1 1 0 0 0-.482.182.99.99 0 0 0-.328.398l-2.27 6.15a.31.31 0 0 0 0 .24c.018.04.045.075.077.105a.32.32 0 0 0 .113.065l2.35.82a2.26 2.26 0 0 1 1.43 2.43 25.1 25.1 0 0 0-.29 2.79 4.39 4.39 0 0 1-1 2.53l-3.67 3.85a1.6 1.6 0 0 0-.289.571 1.62 1.62 0 0 0-.041.639l1 4.21 3.64-2.86a1.92 1.92 0 0 1 1.13-.33h0zm9.36-3.29a5.36 5.36 0 0 1-1.61-.24 6 6 0 0 1-3.86-4.63c-1.26-5.22 1.56-12.92 6.28-17.16 2.66-2.38 5.52-3.34 7.86-2.61a5.93 5.93 0 0 1 3.85 4.63c1.26 5.22-1.56 12.92-6.28 17.16a9.74 9.74 0 0 1-6.19 2.85h-.05zm7-23.24a8.11 8.11 0 0 0-5.13 2.43c-4.32 3.88-6.92 10.86-5.79 15.55a4.37 4.37 0 0 0 2.75 3.46c1.77.55 4.06-.28 6.28-2.27 4.32-3.88 6.91-10.86 5.78-15.55-.105-.77-.416-1.498-.9-2.107a4.33 4.33 0 0 0-1.85-1.353 3.88 3.88 0 0 0-1.09-.16h-.05zm62.05.21a1.61 1.61 0 0 1-.88-.25 2.45 2.45 0 0 1-.782-.955c-.175-.38-.25-.798-.218-1.215V26.67a6.47 6.47 0 0 1 .754-2.807c.461-.867 1.113-1.616 1.906-2.193l33-20.67a2 2 0 0 1 2.2-.19 2.42 2.42 0 0 1 .785.954c.175.381.249.799.215 1.216v22.37a6.45 6.45 0 0 1-.752 2.807 6.46 6.46 0 0 1-1.908 2.193l-4.88 3.07-3.29 12.18a1.16 1.16 0 0 1-1 .9 1.15 1.15 0 0 1-.687-.191c-.203-.135-.358-.331-.443-.559l-2.83-7.12-19.83 12.44a2.6 2.6 0 0 1-1.36.43h0zm34.25-49.6l-32.89 20.69a5.4 5.4 0 0 0-2.17 4.08v22.41a1.42 1.42 0 0 0 .46 1.23 1.18 1.18 0 0 0 1.21-.18l20.72-13 3.27 8.24c.009.034.031.063.061.081s.065.025.099.019c.034 0 .067-.012.093-.034a.14.14 0 0 0 .047-.086l3.41-12.6 5.22-3.29a5.4 5.4 0 0 0 1.538-1.798 5.39 5.39 0 0 0 .622-2.282V2.94a1.44 1.44 0 0 0-.076-.67 1.42 1.42 0 0 0-.374-.56 1.18 1.18 0 0 0-1.21.19h-.03zm-28.01 27a.5.5 0 0 1-.252-.076.49.49 0 0 1-.178-.194c-.066-.124-.085-.268-.052-.404a.57.57 0 0 1 .232-.335l22.65-14.24a.47.47 0 0 1 .187-.069.48.48 0 0 1 .199.014.47.47 0 0 1 .294.254c.069.123.089.268.055.405s-.117.257-.235.335l-22.65 14.24c-.076.043-.162.067-.25.07z"/><path d="M192.24 33.67a.48.48 0 0 1-.43-.271c-.066-.124-.085-.268-.052-.404s.116-.256.232-.336l22.65-14.24a.48.48 0 0 1 .558.044c.051.043.093.096.122.156.069.123.089.268.055.405s-.117.257-.235.335L192.49 33.6a.45.45 0 0 1-.25.07z"/><path d="M192.24 38.45c-.089-.003-.176-.029-.252-.076s-.137-.114-.178-.194c-.066-.124-.085-.268-.052-.405s.116-.256.232-.335l22.65-14.24a.47.47 0 0 1 .187-.069c.066-.009.134-.005.199.014s.124.052.174.096.092.098.12.159c.069.123.089.268.055.405a.56.56 0 0 1-.235.335l-22.65 14.23c-.074.05-.161.078-.25.08z"/><use xlink:href="#F"/></g><use xlink:href="#F" opacity=".2" class="g"/><g class="h"><path d="M326.23 44.58l3.23 7.25a.74.74 0 0 0 1.39-.09l3.51-11.87-8.13 4.71z"/><path d="M343 9.06l-33.56 19.39a1.7 1.7 0 0 0-.77 1.33v20.78a1.69 1.69 0 0 0 .78 1.33l2.76 1.55a1.76 1.76 0 0 0 1.55 0L347.34 34a1.69 1.69 0 0 0 .547-.577c.134-.233.21-.495.223-.763V11.92c-.013-.266-.09-.524-.224-.754a1.65 1.65 0 0 0-.546-.566l-2.76-1.55a1.73 1.73 0 0 0-1.58.01z"/><path d="M313 53V32.2c.013-.267.09-.527.224-.758a1.68 1.68 0 0 1 .546-.572l33.58-19.39c.43-.25.77 0 .77.44V32.7a1.69 1.69 0 0 1-.77 1.34l-33.59 19.39c-.43.24-.76.05-.76-.43z"/></g><path opacity=".2" d="M313.76 53.43a1.76 1.76 0 0 1-1.55 0l-2.76-1.55a1.7 1.7 0 0 1-.551-.571 1.68 1.68 0 0 1-.229-.759V29.78c.012-.281.098-.553.25-.79l4.29 2.46c-.138.226-.214.485-.22.75V53c.01.43.31.69.77.43z" class="g"/><g class="i"><path opacity=".4" d="M348.1 11.78c-.06-.38-.37-.52-.76-.3l-33.58 19.39a1.47 1.47 0 0 0-.55.58l-4.3-2.45c.129-.224.315-.411.54-.54L343 9.05a1.76 1.76 0 0 1 1.55 0l2.76 1.55c.21.127.389.299.526.502s.226.435.264.678z"/><path d="M319.22 40.11a.49.49 0 0 1-.43-.27.58.58 0 0 1 .19-.74l22.65-14.23a.46.46 0 0 1 .378-.058c.063.018.123.05.173.092s.091.096.119.156a.56.56 0 0 1-.18.74L319.47 40a.43.43 0 0 1-.25.11z"/></g><use xlink:href="#G" class="h"/><use xlink:href="#G" opacity=".2" class="g"/><g class="h"><path d="M77.69 257.47l3.22 7.26a.75.75 0 0 0 .731.438.74.74 0 0 0 .417-.16.75.75 0 0 0 .252-.368l3.51-11.88-8.13 4.71z"/><path d="M94.48 222L60.9 241.34a1.69 1.69 0 0 0-.77 1.34v20.78a1.66 1.66 0 0 0 .224.754 1.65 1.65 0 0 0 .546.566l2.76 1.55a1.74 1.74 0 0 0 1.55 0l33.59-19.39c.224-.146.41-.342.544-.573a1.7 1.7 0 0 0 .226-.757v-20.79a1.69 1.69 0 0 0-.229-.759c-.136-.231-.324-.427-.55-.571L96 221.94a1.77 1.77 0 0 0-1.52.06h0z"/><path d="M64.44 265.88V245.1a1.74 1.74 0 0 1 .228-.76 1.75 1.75 0 0 1 .542-.58l33.59-19.39c.42-.24.77 0 .77.45v20.78a1.7 1.7 0 0 1-.226.757c-.134.231-.32.427-.544.573l-33.59 19.39c-.42.25-.77.05-.77-.44z"/></g><path opacity=".2" d="M65.21 266.32c-.241.118-.506.18-.775.18s-.534-.062-.775-.18l-2.76-1.55a1.68 1.68 0 0 1-.544-.567c-.134-.23-.211-.488-.226-.753v-20.77a1.58 1.58 0 0 1 .24-.79l4.3 2.45a1.56 1.56 0 0 0-.23.76v20.78c0 .45.32.71.77.44z" class="g"/><g class="i"><path opacity=".4" d="M99.56 224.68c-.06-.39-.38-.53-.77-.31l-33.58 19.39a1.68 1.68 0 0 0-.54.58l-4.3-2.45a1.57 1.57 0 0 1 .53-.55L94.49 222a1.72 1.72 0 0 1 1.54 0l2.76 1.55a1.72 1.72 0 0 1 .77 1.13h0z"/><path d="M70.68 253a.5.5 0 0 1-.252-.076c-.076-.048-.137-.115-.178-.194a.56.56 0 0 1 .18-.74l22.65-14.24a.48.48 0 0 1 .187-.065.47.47 0 0 1 .197.015c.064.019.123.051.174.094a.48.48 0 0 1 .122.156.56.56 0 0 1-.18.74l-22.65 14.25c-.076.043-.163.064-.25.06h0z"/></g><path d="M414.906 291.57c-.01.582-.192 1.149-.524 1.628a2.95 2.95 0 0 1-1.339 1.064c-.541.215-1.134.264-1.704.143s-1.091-.41-1.497-.828a2.95 2.95 0 0 1-.786-1.518c-.107-.573-.041-1.165.188-1.7a2.95 2.95 0 0 1 2.742-1.789c.389.004.773.085 1.131.238s.682.375.953.654a2.95 2.95 0 0 1 .628.971c.144.361.214.748.208 1.137h0z" class="j"/><path d="M408.426 291.7c-1.94-1.15-1.92-3 0-4.08 1.1-.542 2.313-.817 3.539-.803a7.81 7.81 0 0 1 3.521.883c1.94 1.14 1.92 3 0 4.07-1.099.546-2.312.824-3.539.812a7.77 7.77 0 0 1-3.521-.882h0z" class="m"/><path d="M408.326 290.63c-2-1.18-2-3.06 0-4.2 1.136-.559 2.388-.844 3.654-.83a8.08 8.08 0 0 1 3.636.91c2 1.18 2 3.06-.05 4.2a8 8 0 0 1-3.63.826c-1.258-.014-2.495-.324-3.61-.906h0z" class="j"/><path d="M408.226 289.54c-2.06-1.22-2-3.16.05-4.34 1.169-.574 2.457-.866 3.759-.852a8.33 8.33 0 0 1 3.741.932c2.06 1.22 2 3.16-.05 4.34a8.33 8.33 0 0 1-7.5-.08h0z" class="m"/><path d="M408.126 288.41c-2.13-1.26-2.1-3.26 0-4.47 1.206-.594 2.535-.896 3.879-.882a8.57 8.57 0 0 1 3.861.962c2.12 1.26 2.1 3.26-.05 4.47a8.57 8.57 0 0 1-3.855.872 8.56 8.56 0 0 1-3.835-.952h0z" class="j"/><path d="M408.056 287.22c-2.17-1.28-2.14-3.32.05-4.56 1.23-.604 2.585-.911 3.955-.896s2.719.354 3.935.986c2.17 1.28 2.15 3.32 0 4.55a8.71 8.71 0 0 1-3.98.918c-1.38-.014-2.738-.356-3.96-.998h0z" class="m"/><use xlink:href="#H" class="h"/><use xlink:href="#H" opacity=".36" class="i"/><path d="M409.446 285.78c-1.41-.84-1.4-2.17 0-3 .803-.395 1.687-.595 2.582-.585s1.774.232 2.568.645c1.41.83 1.4 2.16 0 3-.803.395-1.688.595-2.582.585a5.7 5.7 0 0 1-2.568-.645h0z" class="h"/><path d="M413.906 284.02c-.125 0-.244-.049-.333-.137s-.137-.208-.137-.333a34.45 34.45 0 0 1 1.07-8 18.07 18.07 0 0 1 .72-2.22 5.97 5.97 0 0 1-1.21-.61 8.25 8.25 0 0 1-1.84-1.58c-.549.602-1.182 1.121-1.88 1.54-.383.24-.792.435-1.22.58a17.16 17.16 0 0 1 .67 2.24 33.46 33.46 0 0 1 .9 8 .49.49 0 0 1-.49.46c-.126-.005-.244-.059-.33-.151s-.133-.213-.13-.339a33.95 33.95 0 0 0-.87-7.78 16.76 16.76 0 0 0-.69-2.23 3 3 0 0 1-2.65-.81c-.268-.254-.434-.598-.468-.966s.069-.736.288-1.034c.138-.208.337-.37.568-.465s.487-.117.732-.065c.75.15 1.47.93 2.09 2.19a5.36 5.36 0 0 0 1.11-.51 7.47 7.47 0 0 0 1.79-1.45 3.53 3.53 0 0 1-.608-1.272c-.115-.46-.136-.939-.062-1.408.076-.279.246-.525.48-.695s.52-.257.81-.245a1.26 1.26 0 0 1 1.27 1c.067.471.038.95-.086 1.409a3.52 3.52 0 0 1-.634 1.261c.5.608 1.094 1.131 1.76 1.55.344.222.713.403 1.1.54.64-1.25 1.38-2 2.13-2.16a1.3 1.3 0 0 1 .728.089 1.29 1.29 0 0 1 .562.471 1.52 1.52 0 0 1 .268 1.042c-.04.368-.214.709-.488.958-.352.331-.779.572-1.243.702s-.955.147-1.427.048a17.36 17.36 0 0 0-.73 2.22 33.91 33.91 0 0 0-1 7.76c.001.063-.01.125-.033.183s-.058.111-.101.156a.48.48 0 0 1-.154.105c-.058.024-.12.036-.182.036l-.05-.08zm-7.56-12.92c-.057.004-.113.021-.161.05a.35.35 0 0 0-.119.12c-.23.32 0 .66.13.76.198.195.438.344.701.435a1.88 1.88 0 0 0 .819.095c-.5-.94-1-1.39-1.3-1.45l-.07-.01zm10.25 1.55a1.88 1.88 0 0 0 .819-.074 1.9 1.9 0 0 0 .711-.416c.09-.1.37-.44.14-.76s-.25-.19-.34-.17c-.33.06-.8.49-1.33 1.42zm-4.4-5c-.24 0-.32.1-.36.26a2.25 2.25 0 0 0 .34 1.56 2.33 2.33 0 0 0 .39-1.56.34.34 0 0 0-.36-.23l-.01-.03z" class="i"/><path d="M412.506 247.61c-.08.015-.161.015-.24 0a.92.92 0 0 1-.352-.067.9.9 0 0 1-.298-.2.91.91 0 0 1-.197-.3c-.044-.112-.066-.232-.063-.353v-4.77c0-.244.097-.478.269-.651a.92.92 0 0 1 .651-.269.93.93 0 0 1 .91.92v4.78a.91.91 0 0 1-.68.91h0zm-10.21 2.69c-.191.046-.391.028-.572-.049a.91.91 0 0 1-.428-.381l-2.4-4.09a.93.93 0 0 1-.088-.7c.063-.235.217-.437.428-.56a.9.9 0 0 1 .697-.083.92.92 0 0 1 .553.433l2.37 4.14a.92.92 0 0 1-.34 1.25.86.86 0 0 1-.22.04h0zm-7.49 7.48a.86.86 0 0 1-.36.029c-.12-.015-.236-.056-.34-.119l-4.13-2.4c-.209-.125-.361-.327-.423-.562a.93.93 0 0 1 .093-.698c.121-.212.323-.36.557-.421a.92.92 0 0 1 .693.091l4.13 2.41a.91.91 0 0 1 .271.234c.074.095.128.205.159.321a.92.92 0 0 1 .02.358.9.9 0 0 1-.352.604c-.095.072-.203.124-.318.153h0zm-2.77 10.14c-.083.01-.167.01-.25 0h-4.77a.93.93 0 0 1-.712-.231c-.096-.087-.172-.192-.225-.31a.91.91 0 0 1-.079-.374c0-.129.027-.256.079-.374a.92.92 0 0 1 .225-.31.93.93 0 0 1 .712-.231h4.78a.92.92 0 0 1 .352.067.9.9 0 0 1 .298.2.89.89 0 0 1 .196.3c.045.112.066.232.064.353a.91.91 0 0 1-.177.572c-.121.165-.295.284-.493.338zm42.13 12.76a1 1 0 0 1-.7-.09l-4.13-2.41a.91.91 0 0 1-.424-.557c-.062-.234-.028-.484.094-.693s.322-.362.556-.424.484-.028.694.094l4.13 2.4c.156.091.281.227.36.389a.91.91 0 0 1 .086.524.92.92 0 0 1-.217.484.93.93 0 0 1-.449.283h0zm-43.8 0a1 1 0 0 0 .7-.09l4.12-2.41c.209-.122.362-.322.424-.557a.91.91 0 0 0-.651-1.117c-.234-.062-.484-.028-.693.094l-4.13 2.4a.92.92 0 0 0-.36.391.93.93 0 0 0-.083.525c.025.179.102.348.221.483a.92.92 0 0 0 .452.281h0zm47.23-12.57c-.083.01-.167.01-.25 0h-4.78a.92.92 0 0 1-.644-.273c-.171-.172-.266-.405-.266-.647-.002-.121.021-.24.067-.352a.9.9 0 0 1 .2-.298.89.89 0 0 1 .653-.26h4.78c.12 0 .239.024.35.07a.92.92 0 0 1 .493.499.9.9 0 0 1 .067.351c.005.205-.058.405-.179.57a.92.92 0 0 1-.491.34h0zm-7.47-10.23c-.214.054-.44.029-.637-.069s-.353-.266-.438-.469a.92.92 0 0 1 .375-1.142l4.17-2.37a.92.92 0 0 1 1.179.381c.114.198.149.433.099.656a.92.92 0 0 1-.368.553l-4.17 2.36c-.066.041-.137.075-.21.1zm-7.44-7.49a1 1 0 0 1-.7-.09c-.207-.127-.357-.329-.419-.564a.94.94 0 0 1 .089-.696l2.41-4.13a.91.91 0 0 1 .561-.482c.122-.037.25-.049.377-.034a.91.91 0 0 1 .358.121c.11.065.205.151.279.254a.92.92 0 0 1 .154.346.91.91 0 0 1 .001.378.92.92 0 0 1-.15.347l-2.4 4.12c-.061.105-.141.197-.237.271a.91.91 0 0 1-.323.159h0z" class="q"/><path d="M90.18 143.12c-.035-.013-.064-.033-.088-.06s-.032-.06-.032-.1.011-.077.032-.104.059-.051.112-.072l.56-.244h.076c.053 0 .096.016.128.048s.048.075.048.128v2.288a.55.55 0 0 1-.064.016c-.027.008-.056.012-.088.012-.115 0-.172-.049-.172-.148v-2.004l-.512.24zm3.038.664c0-.179-.017-.331-.052-.456s-.076-.228-.132-.308a.49.49 0 0 0-.2-.172c-.075-.037-.155-.056-.24-.056a.5.5 0 0 0-.24.06c-.075.037-.14.096-.196.176s-.101.183-.136.308a1.83 1.83 0 0 0-.048.448c0 .323.053.569.16.74s.263.256.46.256a.51.51 0 0 0 .46-.256c.109-.171.164-.417.164-.74zm-.624 1.268c-.141 0-.271-.025-.388-.076s-.215-.132-.3-.236a1.17 1.17 0 0 1-.192-.396c-.045-.16-.068-.347-.068-.56 0-.229.027-.424.08-.584s.124-.291.212-.392.188-.175.3-.22.233-.068.356-.068.241.024.356.072a.78.78 0 0 1 .304.22c.088.101.159.232.212.392s.08.353.08.58c0 .213-.023.4-.068.56a1.13 1.13 0 0 1-.196.396.8.8 0 0 1-.3.236c-.117.051-.247.076-.388.076zm2.508-1.948a.6.6 0 0 1-.044.236c-.029.069-.069.129-.12.18s-.111.085-.18.112a.6.6 0 0 1-.22.04.61.61 0 0 1-.224-.04c-.067-.027-.125-.064-.176-.112a.57.57 0 0 1-.12-.18.6.6 0 0 1-.044-.236.6.6 0 0 1 .044-.236.52.52 0 0 1 .296-.292.61.61 0 0 1 .224-.04.6.6 0 0 1 .22.04.51.51 0 0 1 .18.116.52.52 0 0 1 .12.176.6.6 0 0 1 .044.236zm-.844 0c0 .104.025.185.076.244a.27.27 0 0 0 .204.084c.083 0 .149-.028.2-.084s.08-.14.08-.244-.027-.184-.08-.24a.25.25 0 0 0-.2-.088c-.083 0-.151.029-.204.088s-.076.136-.076.24zm1.72-.568c.061.008.109.024.144.048s.056.051.056.088c0 .027-.005.053-.016.08s-.027.051-.048.08l-1.468 2.196c-.059-.005-.107-.02-.144-.044s-.056-.059-.056-.096.02-.087.06-.148l1.472-2.204zm.66 1.924a.63.63 0 0 1-.044.24c-.029.069-.069.129-.12.18s-.111.085-.18.112a.58.58 0 0 1-.22.04.6.6 0 0 1-.22-.04c-.069-.027-.129-.064-.18-.112a.57.57 0 0 1-.12-.18.63.63 0 0 1-.044-.24.59.59 0 0 1 .044-.232.52.52 0 0 1 .12-.176.51.51 0 0 1 .18-.116.6.6 0 0 1 .22-.04.58.58 0 0 1 .22.04.51.51 0 0 1 .18.116.52.52 0 0 1 .12.176.59.59 0 0 1 .044.232zm-.844 0c0 .107.025.189.076.248a.27.27 0 0 0 .204.084c.083 0 .149-.028.2-.084s.08-.141.08-.248c0-.101-.027-.18-.08-.236a.25.25 0 0 0-.2-.088c-.083 0-.151.029-.204.088a.34.34 0 0 0-.076.236z" fill="#e3e3e3"/><path d="M141.868 126.516a1.28 1.28 0 0 1 .344.044.76.76 0 0 1 .268.124.56.56 0 0 1 .172.208c.043.083.064.179.064.288a.55.55 0 0 1-.04.216.61.61 0 0 1-.1.16.48.48 0 0 1-.124.108c-.045.027-.085.044-.12.052a.61.61 0 0 1 .16.076.58.58 0 0 1 .144.124c.045.048.081.107.108.176a.57.57 0 0 1 .044.228c0 .12-.023.225-.068.316a.61.61 0 0 1-.184.228c-.08.059-.176.104-.288.136s-.235.044-.368.044c-.109 0-.211-.009-.304-.028a1.05 1.05 0 0 1-.236-.068c-.067-.032-.119-.067-.156-.104s-.056-.076-.056-.116.009-.069.028-.096a.28.28 0 0 1 .08-.068c.069.053.153.101.252.144s.232.064.392.064c.176 0 .319-.037.428-.112s.164-.193.164-.348c0-.136-.051-.245-.152-.328s-.248-.124-.44-.124h-.332c-.011-.013-.02-.032-.028-.056s-.012-.053-.012-.08.004-.056.012-.08.017-.043.028-.056h.304c.197 0 .337-.036.42-.108a.37.37 0 0 0 .128-.292c0-.131-.048-.229-.144-.296s-.224-.104-.392-.104a.9.9 0 0 0-.34.06c-.096.037-.176.079-.24.124-.027-.013-.051-.033-.072-.06s-.032-.063-.032-.1.017-.069.052-.104a.44.44 0 0 1 .144-.096.98.98 0 0 1 .22-.068c.085-.019.176-.028.272-.028zm2.447.048a.8.8 0 0 1 .08-.012.56.56 0 0 1 .084-.008.29.29 0 0 1 .152.04c.046.027.068.079.068.156v1.4h.4c.008.013.016.032.024.056s.012.047.012.076c0 .091-.041.136-.124.136h-.312v.6c-.013.005-.033.011-.06.016s-.05.008-.08.008c-.114 0-.172-.047-.172-.14v-.484h-1.156c-.026-.013-.05-.036-.072-.068a.26.26 0 0 1-.028-.12c0-.024.002-.044.004-.06l.016-.052 1.164-1.544zm.084.316h-.008l-.888 1.26h.888l.008-1.26zm2.035.224c0 .088-.015.167-.044.236a.59.59 0 0 1-.12.18c-.051.048-.111.085-.18.112s-.143.04-.22.04a.61.61 0 0 1-.224-.04c-.067-.027-.126-.064-.176-.112s-.091-.111-.12-.18-.044-.148-.044-.236.014-.167.044-.236a.51.51 0 0 1 .296-.292.61.61 0 0 1 .224-.04c.077 0 .15.013.22.04s.129.065.18.116a.54.54 0 0 1 .12.176c.029.069.044.148.044.236zm-.844 0a.36.36 0 0 0 .076.244c.053.056.121.084.204.084s.149-.028.2-.084.08-.14.08-.244-.027-.184-.08-.24-.118-.088-.2-.088-.151.029-.204.088-.076.136-.076.24zm1.72-.568a.33.33 0 0 1 .144.048c.037.021.056.051.056.088 0 .027-.006.053-.016.08a.48.48 0 0 1-.048.08l-1.468 2.196a.31.31 0 0 1-.144-.044c-.038-.027-.056-.059-.056-.096s.02-.087.06-.148l1.472-2.204zm.66 1.924c0 .088-.015.168-.044.24a.59.59 0 0 1-.12.18c-.051.048-.111.085-.18.112a.58.58 0 0 1-.22.04c-.078 0-.151-.013-.22-.04s-.13-.064-.18-.112-.091-.111-.12-.18a.62.62 0 0 1-.044-.24.58.58 0 0 1 .044-.232.51.51 0 0 1 .12-.176.5.5 0 0 1 .18-.116c.069-.027.142-.04.22-.04a.58.58 0 0 1 .22.04c.069.027.129.065.18.116a.54.54 0 0 1 .12.176c.029.069.044.147.044.232zm-.844 0c0 .107.025.189.076.248s.121.084.204.084.149-.028.2-.084.08-.141.08-.248c0-.101-.027-.18-.08-.236s-.118-.088-.2-.088-.151.029-.204.088-.076.135-.076.236z" fill="#a3a3a3"/></g><g fill="#d9d9d9" class="l"><use xlink:href="#I"/><use xlink:href="#I"/></g><g class="l"><use xlink:href="#J" fill="#d9d9d9"/><use xlink:href="#J" fill="#8d8d8d"/></g></g><defs><path id="A" d="M67.972 314.285l-.53.918 95.306 55.025.53-.918-95.306-55.025z"/><path id="B" d="M42.8 326.65s-3.59-5.18-1.9-10.47 6.08-8.78 7.68-8.58 4.23 5.22 3.1 10.59c-.382 2.174-1.451 4.168-3.049 5.69a10.33 10.33 0 0 1-5.831 2.77h0z"/><path id="C" d="M42.8 326.64a6.56 6.56 0 0 0-.586-2.6c-.371-.818-.907-1.549-1.574-2.15-2.2-1.69-4.91-1.84-5.5-1.31s-.25 3.29 1.71 5.14a5.07 5.07 0 0 0 2.824 1.439 5.08 5.08 0 0 0 3.126-.519h0z"/><path id="D" d="M267.17 337a14.64 14.64 0 0 0 2.14 7.44c2.17-3.75 6-7.27 11.24-10.3 9.53-5.51 22.33-8.54 36-8.54s26.49 3 36 8.54c5.26 3 9.08 6.55 11.26 10.3A14.81 14.81 0 0 0 366 337c0-6.47-4.75-12.77-13.38-17.75-9.52-5.5-22.32-8.54-36-8.54s-26.49 3-36 8.54c-8.7 4.93-13.45 11.23-13.45 17.75z"/><path id="E" d="M195.37 420.59c-1.898-1.249-3.474-2.927-4.602-4.899a14.44 14.44 0 0 1-1.888-6.451c0-4.18 3-5.86 6.55-3.76 1.899 1.25 3.476 2.93 4.603 4.904a14.46 14.46 0 0 1 1.887 6.456c-.01 4.16-2.92 5.85-6.55 3.75z"/><path id="F" d="M331.56 38.25L323.43 43l3.23 7.26a.69.69 0 0 0 .31.34l2.79 1.62a.75.75 0 0 0 1.09-.44l3.51-11.87-2.8-1.66z"/><path id="G" d="M83 251.15l-8.13 4.71 3.23 7.25a.72.72 0 0 0 .31.35l2.79 1.61a.74.74 0 0 0 .319.102.75.75 0 0 0 .332-.049c.105-.042.2-.107.276-.191a.73.73 0 0 0 .164-.292l3.51-11.88-2.8-1.61z"/><path id="H" d="M412.366 252.96a14 14 0 0 0-5.385 1.002c-1.712.686-3.271 1.703-4.589 2.992a14.01 14.01 0 0 0-3.089 4.524c-.722 1.696-1.102 3.519-1.117 5.362-.12 11.14 9.05 13.08 9 17.57.03.428.175.839.42 1.191a2.37 2.37 0 0 0 .97.809c1.054.553 2.225.848 3.415.862s2.368-.254 3.435-.782a2.43 2.43 0 0 0 1.44-2h0c0-4.49 9.25-6.25 9.37-17.38a14.01 14.01 0 0 0-4.002-9.951 14 14 0 0 0-4.516-3.082 14.01 14.01 0 0 0-5.352-1.117h0z"/><path id="I" d="M189.816 105.568c.008.013.016.032.024.056s.012.045.012.072c0 .045-.011.081-.032.108s-.052.036-.092.036h-1.024l-.064.72c.045-.024.108-.047.188-.068s.167-.036.26-.036a1.01 1.01 0 0 1 .332.052c.104.035.195.085.272.152s.137.145.18.244.068.208.068.336c0 .117-.02.225-.06.324a.71.71 0 0 1-.176.256c-.077.072-.173.129-.288.172a1.14 1.14 0 0 1-.384.06c-.115 0-.22-.011-.316-.032s-.173-.044-.24-.076-.119-.067-.156-.104-.052-.079-.052-.116c0-.043.013-.079.04-.108s.059-.055.088-.068a1.11 1.11 0 0 0 .248.16c.107.051.236.076.388.076.184 0 .327-.051.428-.152a.53.53 0 0 0 .152-.392c0-.163-.052-.289-.156-.38s-.24-.136-.408-.136c-.093 0-.179.015-.256.044a1.65 1.65 0 0 0-.216.1c-.072-.005-.131-.027-.176-.064s-.064-.091-.064-.152v-.06l.008-.076.068-.764a.22.22 0 0 1 .052-.132c.029-.035.072-.052.128-.052h1.224zm1.251-.052c.126 0 .24.015.344.044s.194.068.268.124a.56.56 0 0 1 .172.208c.043.083.064.179.064.288a.55.55 0 0 1-.04.216c-.026.061-.06.115-.1.16s-.078.081-.124.108-.085.044-.12.052c.054.016.107.041.16.076s.102.073.144.124a.51.51 0 0 1 .108.176c.03.067.044.143.044.228a.69.69 0 0 1-.068.316.6.6 0 0 1-.184.228c-.08.059-.176.104-.288.136a1.46 1.46 0 0 1-.368.044c-.109 0-.21-.009-.304-.028s-.169-.039-.236-.068-.118-.067-.156-.104-.056-.076-.056-.116a.17.17 0 0 1 .028-.096c.022-.027.048-.049.08-.068.07.053.154.101.252.144s.232.064.392.064c.176 0 .319-.037.428-.112s.164-.193.164-.348a.4.4 0 0 0-.152-.328c-.101-.083-.248-.124-.44-.124h-.332c-.01-.013-.02-.032-.028-.056s-.012-.053-.012-.08.004-.056.012-.08.018-.043.028-.056h.304c.198 0 .338-.036.42-.108s.128-.172.128-.292c0-.131-.048-.229-.144-.296s-.224-.104-.392-.104a.9.9 0 0 0-.34.06c-.096.037-.176.079-.24.124-.026-.013-.05-.033-.072-.06s-.032-.063-.032-.1.018-.069.052-.104a.44.44 0 0 1 .144-.096 1 1 0 0 1 .22-.068c.086-.019.176-.028.272-.028zm2.496.588c0 .088-.015.167-.044.236a.59.59 0 0 1-.12.18c-.051.048-.111.085-.18.112s-.143.04-.22.04a.61.61 0 0 1-.224-.04c-.067-.027-.126-.064-.176-.112s-.091-.111-.12-.18-.044-.148-.044-.236.014-.167.044-.236a.51.51 0 0 1 .296-.292.61.61 0 0 1 .224-.04c.077 0 .15.013.22.04s.129.065.18.116a.54.54 0 0 1 .12.176c.029.069.044.148.044.236zm-.844 0a.36.36 0 0 0 .076.244c.053.056.121.084.204.084s.149-.028.2-.084.08-.14.08-.244-.027-.184-.08-.24-.118-.088-.2-.088-.151.029-.204.088-.076.136-.076.24zm1.72-.568a.33.33 0 0 1 .144.048c.037.021.056.051.056.088 0 .027-.006.053-.016.08a.48.48 0 0 1-.048.08l-1.468 2.196a.31.31 0 0 1-.144-.044c-.038-.027-.056-.059-.056-.096s.02-.087.06-.148l1.472-2.204zm.66 1.924c0 .088-.015.168-.044.24a.59.59 0 0 1-.12.18c-.051.048-.111.085-.18.112a.58.58 0 0 1-.22.04c-.078 0-.151-.013-.22-.04s-.13-.064-.18-.112-.091-.111-.12-.18a.62.62 0 0 1-.044-.24.58.58 0 0 1 .044-.232.51.51 0 0 1 .12-.176.5.5 0 0 1 .18-.116c.069-.027.142-.04.22-.04a.58.58 0 0 1 .22.04c.069.027.129.065.18.116a.54.54 0 0 1 .12.176c.029.069.044.147.044.232zm-.844 0c0 .107.025.189.076.248s.121.084.204.084.149-.028.2-.084.08-.141.08-.248c0-.101-.027-.18-.08-.236s-.118-.088-.2-.088-.151.029-.204.088-.076.135-.076.236z"/><path id="J" d="M232.236 86.356a.66.66 0 0 1 .036-.224.64.64 0 0 1 .104-.176c.043-.053.092-.097.148-.132s.115-.068.176-.092c-.128-.048-.228-.117-.3-.208s-.104-.205-.104-.344a.6.6 0 0 1 .06-.272.56.56 0 0 1 .172-.208c.075-.059.164-.103.268-.132s.219-.048.344-.048c.261 0 .467.06.616.18a.58.58 0 0 1 .228.488c0 .141-.04.257-.12.348s-.183.153-.308.196c.067.024.129.055.188.092a.66.66 0 0 1 .152.132.53.53 0 0 1 .104.18.59.59 0 0 1 .04.224c0 .109-.023.207-.068.292a.6.6 0 0 1-.184.216.85.85 0 0 1-.284.136c-.109.032-.231.048-.364.048-.275 0-.495-.06-.66-.18s-.244-.295-.244-.516zm1.484-.008a.42.42 0 0 0-.168-.348c-.109-.088-.26-.144-.452-.168a.79.79 0 0 0-.396.176c-.099.088-.148.203-.148.344a.38.38 0 0 0 .152.32c.104.075.248.112.432.112.176 0 .316-.036.42-.108s.16-.184.16-.328zm-1.104-1.164c0 .075.015.139.044.192s.069.093.12.128.115.063.184.084.144.032.224.04c.16-.04.279-.095.356-.164s.12-.161.12-.276c0-.128-.047-.227-.14-.296a.63.63 0 0 0-.384-.104c-.16 0-.288.036-.384.108s-.14.168-.14.288zm1.841-.064a.23.23 0 0 1-.088-.06c-.021-.027-.032-.06-.032-.1s.011-.077.032-.104.059-.051.112-.072l.56-.244h.076c.054 0 .096.016.128.048s.048.075.048.128v2.288c-.016.005-.037.011-.064.016s-.056.012-.088.012c-.114 0-.172-.049-.172-.148V84.88l-.512.24zm2.59-.016c0 .088-.015.167-.044.236a.55.55 0 0 1-.3.292c-.069.027-.143.04-.22.04s-.155-.013-.224-.04a.55.55 0 0 1-.296-.292c-.029-.069-.044-.148-.044-.236s.015-.167.044-.236.069-.128.12-.176a.52.52 0 0 1 .176-.116c.069-.027.144-.04.224-.04s.151.013.22.04.129.065.18.116.091.107.12.176.044.148.044.236zm-.844 0c0 .104.025.185.076.244s.121.084.204.084.149-.028.2-.084.08-.14.08-.244-.027-.184-.08-.24-.117-.088-.2-.088-.151.029-.204.088-.076.136-.076.24zm1.72-.568a.33.33 0 0 1 .144.048c.037.021.056.051.056.088 0 .027-.005.053-.016.08s-.027.051-.048.08l-1.468 2.196c-.059-.005-.107-.02-.144-.044s-.056-.059-.056-.096.02-.087.06-.148l1.472-2.204zm.66 1.924c0 .088-.015.168-.044.24a.55.55 0 0 1-.3.292.59.59 0 0 1-.22.04c-.077 0-.151-.013-.22-.04a.55.55 0 0 1-.3-.292c-.029-.072-.044-.152-.044-.24s.015-.163.044-.232.069-.128.12-.176.111-.089.18-.116.143-.04.22-.04a.59.59 0 0 1 .22.04c.069.027.129.065.18.116s.091.107.12.176.044.147.044.232zm-.844 0c0 .107.025.189.076.248s.121.084.204.084.149-.028.2-.084.08-.141.08-.248a.33.33 0 0 0-.08-.236c-.051-.059-.117-.088-.2-.088s-.151.029-.204.088-.076.135-.076.236z"/><path id="K" d="M120.53 341.84l4.29 2.47v25.42l-4.29-2.48v-25.41z"/><path id="L" d="M158.65 302.83l4.29 2.48L182 260.47l-4.29-2.48-19.06 44.84z"/><path id="M" d="M139.59 305.42l4.29 2.47-19.06 36.42-4.29-2.47 19.06-36.42z"/><path id="N" d="M239.19 227.46l-4.29-2.48-18.71 53.83 3.94 3.51 19.06-54.86z"/><path id="O" d="M253.96 229.83l4.29 2.48 19.06-52.28-4.29-2.48-19.06 52.28z"/><path id="P" d="M315.43 132.61l-4.29-2.48-18.87 61.21 4.1 3.1 19.06-61.83z"/></defs></svg>