<svg xmlns="http://www.w3.org/2000/svg" xmlns:xlink="http://www.w3.org/1999/xlink" width="315" height="362" fill="none" xmlns:v="https://vecta.io/nano"><style><![CDATA[.B{opacity:.85}.C{fill:#68a7f0}.D{fill:#000}.E{opacity:.3}.F{opacity:.15}]]></style><g fill="#e0e0e0" class="B"><path d="M211.021 32.459L.385 153.514l.53.922L211.551 33.381l-.53-.922zm-1.123 24.64L.309 178.3l.531.918L210.429 58.016l-.531-.918zm.022 25.425L.289 203.652l.53.918L210.45 83.442l-.53-.918zm1.106 26.392L.39 229.971l.53.923 210.636-121.055-.53-.923zm-1.106 24.439L.289 254.483l.53.918 209.632-121.128-.531-.918zm.008 25.42L.297 279.903l.53.918 209.631-121.128-.53-.918z"/><path d="M20.13 116.93h-1.06v177.9h1.06v-177.9zm19.06-11.01h-1.06v177.9h1.06v-177.9zm19.06-11h-1.06v177.9h1.06V94.92zm19.06-11.01h-1.06v177.9h1.06V83.91zm19.06-11h-1.06v177.9h1.06V72.91zm19.06-11.01h-1.06v177.9h1.06V61.9zm19.06-11h-1.06v177.9h1.06V50.9zm19.06-11.01h-1.06v177.9h1.06V39.89zm19.07-11h-1.06v177.9h1.06V28.89zm19.06-11.01h-1.06v177.9h1.06V17.88z"/><path d="M.53 306.28a.59.59 0 0 1-.26-.07.55.55 0 0 1-.194-.195c-.047-.081-.073-.172-.076-.265V127.93a.54.54 0 0 1 .076-.265.55.55 0 0 1 .194-.195l209.67-121a.51.51 0 0 1 .53 0c.08.047.146.115.191.195a.53.53 0 0 1 .069.265v177.76c.001.093-.023.184-.069.265s-.111.148-.191.195L.8 306.21c-.084.043-.176.067-.27.07zm.53-178v176.55l208.62-120.44V7.79L1.06 128.28zm227.85 66.889L19.279 316.297l.53.918 209.632-121.129-.531-.917zm19.067 10.988L38.346 327.286l.53.917 209.631-121.128-.53-.918zm19.061 11.028L57.407 338.313l.53.918 209.631-121.128-.53-.918zm19.056 10.998L76.463 349.312l.53.917 209.631-121.128-.531-.918z"/><use xlink:href="#B"/><use xlink:href="#B" x="19.064" y="-11.006"/><use xlink:href="#B" x="38.119" y="-22.008"/><use xlink:href="#B" x="57.183" y="-33.014"/><path d="M96.1 250.27l-.53.918 95.306 55.025.53-.918L96.1 250.27zm19.063-11.007l-.53.918 95.307 55.025.53-.918-95.307-55.025zm19.06-11.01l-.53.918L229 284.196l.53-.918-95.307-55.025z"/><use xlink:href="#B" x="133.435" y="-77.039"/><use xlink:href="#B" x="152.49" y="-88.05"/><path d="M191.416 195.239l-.53.917 95.306 55.025.53-.917-95.306-55.025z"/><path d="M95.77 361.26c-.092.002-.182-.022-.26-.07l-95.24-55c-.081-.046-.148-.113-.195-.194a.53.53 0 0 1-.072-.266.53.53 0 0 1 .072-.266c.047-.081.114-.148.195-.194l209.67-121c.08-.049.171-.074.265-.074s.185.025.265.074l95.24 55a.53.53 0 0 1 .188.197.54.54 0 0 1 .069.263c0 .092-.024.183-.069.264s-.109.148-.188.196l-209.67 121c-.082.047-.175.071-.27.07h0zM1.59 305.75l94.18 54.37 208.62-120.44-94.18-54.38L1.59 305.75z"/></g><g class="B"><path d="M52.89 133.59c0 11.5-6.53 24.86-14.58 29.85s-14.57-.31-14.57-11.81 6.53-24.86 14.57-29.84v22.07l13.87-16.26a23.49 23.49 0 0 1 .71 5.99h0z" fill="#ebd0d0"/><path d="M53.48 124.39c-1.9-7.18-7.39-9.82-13.87-5.81v22.07l13.87-16.26z" fill="#f27979"/><path d="M86.21 115.58l8.57 11.55a27.71 27.71 0 0 1-8.57 9.27c-8 5-14.57-.3-14.57-11.8s6.52-24.86 14.57-29.85v20.83z" fill="#f9f3e5"/><path d="M96.99 126.23a41.59 41.59 0 0 0 6-20.56c0-11.51-6.53-16.79-14.57-11.81v20.82l8.57 11.55z" fill="#f9c749"/><path d="M179.97 40v20.8L166.1 63c1.9-9.58 7.39-19 13.87-23z" fill="#e4efe8"/><path d="M168.56 65.34c-.46 2.261-.698 4.562-.71 6.87 0 11.5 6.53 16.79 14.58 11.81S197 65.68 197 54.18s-6.53-16.79-14.57-11.81V63.2l-13.87 2.14z" fill="#3d7"/><path d="M133.8 66.25v20.83l-8.56 22.15c-3.64-1.53-6-6.21-6-13.14-.01-11.49 6.51-24.86 14.56-29.84z" fill="#eee2ee"/><path d="M127.58 109.89c2.4 1 5.36.66 8.56-1.32 8.05-5 14.58-18.34 14.58-29.84s-6.53-16.79-14.58-11.81v20.82l-8.56 22.15z" fill="#d356d6"/><path d="M29.47 191.11v-6.81a.53.53 0 0 1 .073-.245.55.55 0 0 1 .177-.185l17.17-10.06c.14-.08.25 0 .25.14v6.8a.56.56 0 0 1-.25.44l-17.17 10.06c-.14.08-.25.02-.25-.14zm47.74-27.43v-6.8a.56.56 0 0 1 .073-.25c.043-.076.104-.141.177-.19l17.21-10.06c.14-.08.25 0 .25.15v6.8a.56.56 0 0 1-.25.44l-17.21 10.06c-.14.08-.25.01-.25-.15zm47.74-27.42v-6.8c.004-.088.029-.173.073-.25s.104-.141.177-.19L142.41 119c.14-.08.25 0 .25.15v6.8c-.004.087-.029.171-.072.246a.55.55 0 0 1-.178.184l-17.21 10.07c-.14.04-.25-.03-.25-.19zm47.74-27.42V102c.003-.088.027-.174.07-.251s.106-.142.18-.189l17.21-10.06c.14-.08.25 0 .25.14v6.8a.54.54 0 0 1-.25.44L172.94 109c-.14.06-.25 0-.25-.16z" class="C"/><path d="M245.97 84.27l-19.06 32.77-19.06 56.21-19.06-10.43-19.07 52.44-19.06-10.43-19.06 11.42-19.06 26.4-19.06-1.38-19.06 39.13-19.06-1.08-19.06 26.51v25.41l4.29 2.48 209.67-121.08V86.75l-4.29-2.48z" fill="#263238"/><path d="M40.59 308.31l19.06-26.51 19.06 1.08 19.06-39.13 19.06 1.38 19.06-26.4 19.07-11.42 19.06 10.43 19.06-52.44 19.06 10.43 19.06-56.21 19.06-32.77v125.89L40.59 333.72v-25.41z" fill="#455a64"/><path d="M36.3 305.83l4.29 2.48 19.06-26.51-4.29-2.48-19.06 26.51zm57.18-64.56l4.29 2.48-19.06 39.13-4.29-2.48 19.06-39.13zm19.06 1.38l4.29 2.48 19.06-26.4-4.29-2.48-19.06 26.4zm76.25-79.83l4.29 2.48-19.06 52.44-4.3-2.48 19.07-52.44zm38.12-45.78l4.29 2.48-19.06 56.21-4.29-2.48 19.06-56.21z" fill="#37474f"/><g fill="#455a64"><path d="M230.1 94.44a.43.43 0 0 1-.231-.055c-.07-.04-.128-.098-.167-.169s-.056-.151-.051-.232a.43.43 0 0 1 .079-.224l16.29-24.58a.44.44 0 0 1 .6-.105c.094.063.16.16.185.271a.44.44 0 0 1-.055.324l-16.29 24.58a.44.44 0 0 1-.36.19h0zm-19.82 55.82a.33.33 0 0 1-.14 0 .44.44 0 0 1-.302-.388c-.004-.058.004-.117.022-.172l16.3-48c.018-.055.047-.106.085-.151a.43.43 0 0 1 .137-.106.44.44 0 0 1 .167-.045.43.43 0 0 1 .171.022.44.44 0 0 1 .251.224c.051.105.058.226.019.336L210.7 150c-.037.08-.096.147-.171.193s-.161.07-.249.067h0zm-3.54 2.9c-.074-.001-.146-.022-.21-.06l-13.25-7.24c-.05-.027-.094-.064-.13-.108a.43.43 0 0 1-.079-.151.44.44 0 0 1-.013-.169c.006-.057.024-.112.052-.162a.46.46 0 0 1 .11-.134c.045-.037.097-.065.153-.081s.114-.023.172-.016.114.023.165.051l13.25 7.24c.051.028.096.066.131.112s.063.097.079.153a.45.45 0 0 1 .014.171.43.43 0 0 1-.054.164.45.45 0 0 1-.164.168c-.068.04-.146.062-.226.062zm-32.98 39.96a.38.38 0 0 1-.15 0 .44.44 0 0 1-.251-.224c-.05-.105-.057-.226-.019-.336l16.11-44.32c.041-.111.123-.201.23-.251a.45.45 0 0 1 .34-.019c.055.02.105.051.148.091s.077.087.101.14.038.11.04.168a.43.43 0 0 1-.029.171l-16.11 44.32c-.034.08-.091.147-.165.194a.43.43 0 0 1-.245.066h0zm-3.63 2.88a.54.54 0 0 1-.24 0l-14.75-8.08a.44.44 0 0 1-.17-.6c.057-.102.153-.177.265-.209a.44.44 0 0 1 .335.039l14.75 8.07c.051.028.096.066.131.112s.063.097.079.153.02.114.014.172a.43.43 0 0 1-.054.163c-.04.057-.095.104-.157.135a.43.43 0 0 1-.203.045h0zm-33.16.48a.42.42 0 0 1-.213-.055c-.065-.037-.119-.09-.157-.155a.45.45 0 0 1-.06-.163c-.009-.058-.007-.117.007-.173a.44.44 0 0 1 .074-.158c.035-.047.079-.086.129-.116l13.42-8a.44.44 0 0 1 .653.49c-.029.113-.102.21-.203.27l-13.42 8a.46.46 0 0 1-.23.06zm-19.39 24.65c-.08-.002-.158-.026-.226-.069a.45.45 0 0 1-.16-.175.44.44 0 0 1-.049-.231.46.46 0 0 1 .075-.225l14.31-19.82c.069-.095.173-.16.29-.178a.44.44 0 0 1 .33.078c.096.069.16.173.179.289s-.01.236-.079.331l-14.31 19.81c-.039.06-.092.108-.155.142a.42.42 0 0 1-.205.048zm-5.09 3.25l-13.88-1a.44.44 0 0 1-.166-.045.42.42 0 0 1-.136-.105c-.038-.044-.067-.094-.086-.149a.44.44 0 0 1-.022-.171.43.43 0 0 1 .147-.306.42.42 0 0 1 .151-.085c.056-.018.114-.024.172-.019l13.88 1a.44.44 0 0 1 .167.045c.052.026.098.061.136.105s.067.094.086.149a.45.45 0 0 1 .021.171c-.01.116-.065.223-.152.3a.45.45 0 0 1-.318.11h0zm-33.55 33.9c-.063.014-.127.014-.19 0-.053-.024-.1-.059-.139-.103s-.069-.094-.087-.149a.43.43 0 0 1 .026-.338l15.15-31.11c.054-.103.145-.181.255-.219s.23-.03.335.019a.44.44 0 0 1 .136.105c.038.043.067.094.086.149s.026.112.022.17a.44.44 0 0 1-.045.166L79.34 258a.44.44 0 0 1-.158.201c-.071.049-.155.077-.242.079h0zm-4.57 3.89l-13.9-.79a.44.44 0 1 1 0-.88l13.9.79a.44.44 0 1 1 0 .88zm-35.48 25.58a.43.43 0 0 1-.26-.09.44.44 0 0 1-.1-.61l16.65-23.16c.071-.092.175-.154.29-.172a.46.46 0 0 1 .33.072.45.45 0 0 1 .1.62l-16.69 23.15a.45.45 0 0 1-.139.13.46.46 0 0 1-.181.06h0z"/><path d="M56.79 265.35c-.35.013-.697-.074-1-.25a2.94 2.94 0 0 1-1.2-2.67 7.14 7.14 0 0 1 .803-3.252 7.15 7.15 0 0 1 2.197-2.528c.334-.231.724-.367 1.129-.394a2.24 2.24 0 0 1 1.171.244c.415.302.743.707.952 1.176a2.93 2.93 0 0 1 .238 1.494 7.15 7.15 0 0 1-.826 3.259 7.16 7.16 0 0 1-2.224 2.521 2.64 2.64 0 0 1-1.24.4h0zm2.25-8.22c-.321.019-.634.115-.91.28a6.31 6.31 0 0 0-1.889 2.194 6.32 6.32 0 0 0-.711 2.806 2.12 2.12 0 0 0 .75 1.91 1.44 1.44 0 0 0 1.41-.15 6.29 6.29 0 0 0 2.61-5c.048-.357.003-.72-.13-1.054a2.1 2.1 0 0 0-.63-.856c-.152-.086-.325-.131-.5-.13zm35.85-29.71c-.35.013-.697-.073-1-.25-.415-.302-.743-.707-.952-1.176a2.93 2.93 0 0 1-.238-1.494 7.17 7.17 0 0 1 3.05-5.79 2.28 2.28 0 0 1 1.125-.386 2.27 2.27 0 0 1 1.165.236 3 3 0 0 1 1.2 2.67 7.17 7.17 0 0 1-3 5.79c-.406.251-.872.39-1.35.4zm2.25-8.22a1.81 1.81 0 0 0-.9.28 6.29 6.29 0 0 0-2.61 5 2.11 2.11 0 0 0 .76 1.91 1.44 1.44 0 0 0 1.41-.15c.79-.576 1.436-1.327 1.887-2.195s.695-1.827.713-2.805a2.11 2.11 0 0 0-.75-1.9c-.148-.088-.317-.136-.49-.14h-.02zm-21.25 47.03c-.348.019-.695-.06-1-.23-.416-.301-.745-.706-.956-1.175a2.94 2.94 0 0 1-.244-1.495 7.15 7.15 0 0 1 3.05-5.78c.334-.231.724-.367 1.129-.393a2.23 2.23 0 0 1 1.171.243c.415.302.743.708.952 1.176a2.93 2.93 0 0 1 .238 1.494 7.14 7.14 0 0 1-.803 3.252c-.522 1.005-1.275 1.872-2.197 2.528a2.67 2.67 0 0 1-1.34.38h0zm2.25-8.22a1.88 1.88 0 0 0-.9.28 6.29 6.29 0 0 0-2.61 5 2.12 2.12 0 0 0 .75 1.91 1.44 1.44 0 0 0 1.41-.15 6.29 6.29 0 0 0 2.61-5 2.12 2.12 0 0 0-.75-1.91 1.07 1.07 0 0 0-.55-.14l.04.01zm35.83-29.56c-.35.013-.697-.073-1-.25-.414-.302-.743-.707-.951-1.176a2.95 2.95 0 0 1-.239-1.494 7.15 7.15 0 0 1 .825-3.259c.531-1.006 1.294-1.87 2.225-2.521a2.23 2.23 0 0 1 1.124-.394c.404-.026.807.058 1.166.244a2.94 2.94 0 0 1 .956 1.175 2.93 2.93 0 0 1 .244 1.495 7.15 7.15 0 0 1-.803 3.252 7.16 7.16 0 0 1-2.197 2.528c-.406.251-.872.39-1.35.4zm2.25-8.22c-.318.017-.628.113-.9.28-.794.573-1.443 1.323-1.897 2.191a6.28 6.28 0 0 0-.713 2.809 2.11 2.11 0 0 0 .131 1.055 2.1 2.1 0 0 0 .629.855 1.42 1.42 0 0 0 1.41-.15 6.32 6.32 0 0 0 1.89-2.193 6.31 6.31 0 0 0 .71-2.807 2.12 2.12 0 0 0-.128-1.052c-.131-.334-.345-.629-.622-.858a1.07 1.07 0 0 0-.51-.13h0zm16.81-18.37c-.33.003-.655-.084-.94-.25-.417-.3-.748-.705-.958-1.174s-.294-.985-.242-1.496c.013-1.136.296-2.254.826-3.259a7.16 7.16 0 0 1 2.224-2.521 2.23 2.23 0 0 1 1.124-.394c.404-.026.807.058 1.166.244a2.94 2.94 0 0 1 .956 1.175 2.93 2.93 0 0 1 .244 1.495 7.15 7.15 0 0 1-.802 3.252c-.522 1.005-1.275 1.872-2.198 2.528-.421.26-.905.398-1.4.4h0zm2.25-8.22c-.318.017-.628.113-.9.28-.794.573-1.443 1.323-1.897 2.191a6.28 6.28 0 0 0-.713 2.809c-.045.357.002.719.135 1.053a2.12 2.12 0 0 0 .625.857 1.44 1.44 0 0 0 1.41-.15c.794-.573 1.444-1.323 1.897-2.191s.697-1.83.713-2.809c.045-.357-.001-.719-.134-1.053s-.348-.629-.626-.857a1.07 1.07 0 0 0-.51-.13zm16.81-2.78a1.84 1.84 0 0 1-.94-.25c-.415-.301-.745-.706-.956-1.175a2.95 2.95 0 0 1-.244-1.495 7.18 7.18 0 0 1 3.05-5.79 2.24 2.24 0 0 1 1.125-.39 2.23 2.23 0 0 1 1.165.24 3 3 0 0 1 .948 1.179c.21.467.297.981.252 1.491-.006 1.134-.282 2.25-.803 3.256a7.18 7.18 0 0 1-2.197 2.534 2.67 2.67 0 0 1-1.4.4h0zm2.25-8.23c-.32.015-.631.116-.9.29a6.29 6.29 0 0 0-1.896 2.191 6.28 6.28 0 0 0-.714 2.809c-.045.355.002.716.135 1.049a2.11 2.11 0 0 0 .625.851 1.41 1.41 0 0 0 .724.12c.248-.024.485-.114.686-.26a6.31 6.31 0 0 0 1.895-2.192c.453-.868.698-1.829.715-2.808.045-.355-.001-.716-.134-1.048a2.11 2.11 0 0 0-.626-.852 1 1 0 0 0-.51-.15h0zm16.82 18.66c-.35.013-.697-.074-1-.25a2.95 2.95 0 0 1-1.2-2.67 7.14 7.14 0 0 1 .803-3.252 7.15 7.15 0 0 1 2.197-2.528 2.23 2.23 0 0 1 1.124-.394c.404-.026.807.058 1.166.244.416.301.746.707.956 1.175a2.93 2.93 0 0 1 .244 1.495c-.006 1.132-.282 2.247-.803 3.251s-1.275 1.872-2.197 2.529c-.388.242-.832.379-1.29.4h0zm2.24-8.22c-.318.017-.628.113-.9.28a6.42 6.42 0 0 0-1.883 2.198 6.43 6.43 0 0 0-.727 2.802 2.14 2.14 0 0 0 .135 1.053 2.13 2.13 0 0 0 .625.857 1.44 1.44 0 0 0 1.41-.15c.795-.573 1.444-1.323 1.897-2.191a6.28 6.28 0 0 0 .713-2.809c.045-.357-.001-.719-.134-1.053s-.348-.629-.626-.857a1 1 0 0 0-.51-.13h0zm16.82-44.22c-.35.013-.697-.074-1-.25-.416-.301-.745-.706-.956-1.175a2.95 2.95 0 0 1-.244-1.495 7.17 7.17 0 0 1 .804-3.256c.521-1.006 1.274-1.875 2.196-2.534a2.23 2.23 0 0 1 1.126-.385 2.24 2.24 0 0 1 1.164.245c.416.299.746.703.956 1.169s.295.981.244 1.491a7.15 7.15 0 0 1-.826 3.263 7.16 7.16 0 0 1-2.224 2.527 2.67 2.67 0 0 1-1.24.4h0zm2.24-8.22c-.319.014-.629.11-.9.28-.794.573-1.443 1.323-1.897 2.191a6.28 6.28 0 0 0-.713 2.809c-.044.357.003.719.136 1.052a2.14 2.14 0 0 0 .624.858 1.44 1.44 0 0 0 1.41-.15 6.31 6.31 0 0 0 1.895-2.192c.453-.868.698-1.829.715-2.808a2.12 2.12 0 0 0-.76-1.9.93.93 0 0 0-.51-.14h0zm15.31 17.82a2 2 0 0 1-.95-.25c-.414-.302-.741-.708-.95-1.176a2.95 2.95 0 0 1-.24-1.494 7.18 7.18 0 0 1 .826-3.263 7.17 7.17 0 0 1 2.224-2.527 2.23 2.23 0 0 1 1.124-.394c.404-.026.807.058 1.166.244a2.94 2.94 0 0 1 .956 1.175 2.93 2.93 0 0 1 .244 1.495 7.18 7.18 0 0 1-3 5.79 2.77 2.77 0 0 1-1.4.4h0zm2.25-8.23c-.318.017-.628.113-.9.28-.793.574-1.442 1.325-1.894 2.192a6.32 6.32 0 0 0-.716 2.808 2.12 2.12 0 0 0 .134 1.048 2.11 2.11 0 0 0 .626.852 1.42 1.42 0 0 0 1.41-.15c.794-.573 1.444-1.323 1.897-2.191s.697-1.83.713-2.809c.044-.356-.003-.718-.135-1.052a2.14 2.14 0 0 0-.625-.858c-.157-.081-.332-.123-.51-.12h0zm16.81-47.99a1.84 1.84 0 0 1-.94-.23c-.415-.301-.745-.706-.956-1.175a2.95 2.95 0 0 1-.244-1.495c.013-1.136.296-2.254.826-3.259a7.16 7.16 0 0 1 2.224-2.521 2.22 2.22 0 0 1 2.29-.15 2.94 2.94 0 0 1 .956 1.175 2.93 2.93 0 0 1 .244 1.495 7.15 7.15 0 0 1-.802 3.252c-.522 1.005-1.275 1.872-2.198 2.528-.423.253-.907.385-1.4.38h0zm2.25-8.22c-.318.017-.628.113-.9.28a6.29 6.29 0 0 0-1.896 2.191 6.28 6.28 0 0 0-.714 2.809 2.14 2.14 0 0 0 .135 1.053 2.13 2.13 0 0 0 .625.857c.228.102.478.142.726.115s.484-.117.684-.265a6.42 6.42 0 0 0 1.884-2.198c.452-.867.701-1.825.726-2.802.045-.357-.001-.719-.134-1.053a2.13 2.13 0 0 0-.626-.857 1 1 0 0 0-.51-.14v.01zM247.4 70.3a2 2 0 0 1-.95-.25 2.95 2.95 0 0 1-1.2-2.67 7.18 7.18 0 0 1 3.05-5.79 2.26 2.26 0 0 1 2.3-.15c.416.301.746.707.956 1.175a2.93 2.93 0 0 1 .244 1.495 7.15 7.15 0 0 1-.826 3.263 7.16 7.16 0 0 1-2.224 2.527 2.78 2.78 0 0 1-1.35.4h0zm2.25-8.23a1.87 1.87 0 0 0-.9.28 6.32 6.32 0 0 0-2.61 5 2.09 2.09 0 0 0 .129 1.047 2.1 2.1 0 0 0 .621.853 1.43 1.43 0 0 0 1.41-.14 6.31 6.31 0 0 0 1.894-2.193 6.32 6.32 0 0 0 .716-2.807 2.1 2.1 0 0 0-.75-1.9 1 1 0 0 0-.51-.14h0z"/></g><g class="C"><path d="M265.03 86.75a.46.46 0 0 1-.2-.05c-.052-.026-.099-.063-.137-.108a.43.43 0 0 1-.084-.152.44.44 0 0 1-.019-.173.43.43 0 0 1 .05-.167l15.06-28.77c.053-.103.145-.181.256-.216a.44.44 0 0 1 .334.026c.052.026.099.063.137.108a.43.43 0 0 1 .084.152.44.44 0 0 1 .019.173.43.43 0 0 1-.05.167l-15.06 28.77a.44.44 0 0 1-.39.24zm-19.8 61.55c-.043.009-.087.009-.13 0-.111-.035-.204-.112-.259-.215a.44.44 0 0 1-.031-.335l16.53-53.63a.45.45 0 0 1 .56-.29.44.44 0 0 1 .259.215c.054.103.065.224.031.335L245.65 148c-.028.089-.084.166-.16.22s-.167.082-.26.08h0zm-3.26 2.59a.46.46 0 0 1-.27-.09l-15.06-11.38c-.094-.07-.156-.175-.173-.291s.013-.235.083-.329.175-.156.291-.173.235.013.329.083l15.06 11.39c.047.035.087.078.117.128s.049.106.058.163a.44.44 0 0 1-.01.173c-.014.057-.04.11-.075.156a.46.46 0 0 1-.156.124.47.47 0 0 1-.194.046zm-34.64 35.32h-.15c-.111-.041-.201-.123-.251-.23a.45.45 0 0 1-.019-.34l16.1-44.16c.041-.11.124-.199.231-.248s.229-.053.339-.012.199.124.248.231.053.229.012.339l-16.1 44.15c-.032.081-.089.151-.163.199a.43.43 0 0 1-.247.071h0zm-3.88 3.46h-.11L189.07 186a.46.46 0 0 1-.266-.207c-.06-.1-.079-.219-.054-.333.014-.057.039-.11.074-.157s.079-.086.129-.116.106-.05.164-.058a.44.44 0 0 1 .173.011l14.27 3.64a.44.44 0 0 1 .32.53c-.02.1-.074.19-.152.255a.45.45 0 0 1-.278.105h0zm-34.17 46.15h-.15c-.11-.039-.2-.119-.251-.224a.44.44 0 0 1-.019-.336l16.09-46.33a.45.45 0 0 1 .57-.27.44.44 0 0 1 .27.56l-16.1 46.33a.44.44 0 0 1-.41.27h0zm-3.61 2.64c-.106-.003-.208-.042-.29-.11l-15.2-13.56c-.047-.037-.086-.083-.115-.136s-.046-.11-.051-.17a.44.44 0 0 1 .019-.176.46.46 0 0 1 .088-.155c.04-.044.088-.081.142-.107a.45.45 0 0 1 .173-.042.44.44 0 0 1 .175.03.43.43 0 0 1 .149.096l15.21 13.56c.042.04.075.088.098.142a.44.44 0 0 1 .034.168c0 .058-.012.115-.034.169a.43.43 0 0 1-.098.141.4.4 0 0 1-.3.15h0zm-19.48-15.8h-.11L131.89 219c-.061-.009-.119-.03-.171-.063s-.097-.076-.132-.127a.43.43 0 0 1-.062-.351c.015-.06.042-.116.08-.165s.085-.088.139-.117a.43.43 0 0 1 .175-.051c.062-.005.123.003.181.024l14.16 3.6a.44.44 0 0 1 .193.766c-.085.072-.193.109-.303.104l.04.04zm-33.89 36.47c-.056.013-.114.013-.17 0-.053-.022-.101-.054-.141-.095a.44.44 0 0 1-.094-.142c-.021-.053-.032-.11-.031-.167a.43.43 0 0 1 .036-.166l15.56-36.61c.02-.057.051-.109.092-.153s.09-.079.145-.103.114-.037.174-.038a.43.43 0 0 1 .174.034c.056.024.106.058.147.101a.44.44 0 0 1 .123.327c-.003.059-.018.118-.045.172l-15.56 36.61c-.039.074-.098.135-.171.176s-.156.06-.239.054zm-18.14 6.37a.44.44 0 0 1-.43-.39.42.42 0 0 1 .005-.171c.013-.056.038-.108.073-.154s.079-.085.129-.113.106-.046.163-.052l13.66-1.85c.112-.008.222.026.309.097a.44.44 0 0 1 .082.596.44.44 0 0 1-.271.177l-13.72 1.86zm-21.74 36.78a.53.53 0 0 1-.21 0 .43.43 0 0 1-.134-.11.44.44 0 0 1-.081-.152.46.46 0 0 1-.016-.173c.006-.058.024-.114.052-.165L89.09 269a.43.43 0 0 1 .254-.247c.057-.021.118-.03.179-.027a.43.43 0 0 1 .175.048c.055.028.102.067.141.114s.067.102.083.161.02.121.011.181a.44.44 0 0 1-.063.17L72.81 302a.44.44 0 0 1-.39.28h0z"/><path d="M90.35 270c-.33.002-.655-.084-.94-.25a2.95 2.95 0 0 1-.956-1.175 2.94 2.94 0 0 1-.244-1.495c.012-1.137.294-2.254.825-3.259s1.293-1.87 2.225-2.521a2.23 2.23 0 0 1 1.124-.394c.403-.027.807.058 1.166.244a2.94 2.94 0 0 1 1.2 2.67 7.15 7.15 0 0 1-3.05 5.78c-.406.251-.872.389-1.35.4zm2.25-8.22c-.319.017-.628.113-.9.28a6.29 6.29 0 0 0-2.61 5 2.13 2.13 0 0 0 .8 1.94 1.44 1.44 0 0 0 .725.111 1.45 1.45 0 0 0 .685-.261 6.29 6.29 0 0 0 2.61-5 2.13 2.13 0 0 0-.134-1.053c-.133-.334-.348-.629-.626-.857a1 1 0 0 0-.55-.19v.03zm35.88-39.11c-.35.013-.697-.074-1-.25a2.95 2.95 0 0 1-.956-1.175c-.21-.469-.295-.984-.244-1.495a7.18 7.18 0 0 1 .826-3.263 7.17 7.17 0 0 1 2.224-2.527 2.28 2.28 0 0 1 1.125-.386 2.27 2.27 0 0 1 1.165.236c.417.301.747.706.957 1.174s.295.985.243 1.496a7.17 7.17 0 0 1-.804 3.256c-.521 1.006-1.274 1.875-2.196 2.534a2.67 2.67 0 0 1-1.34.4zm2.24-8.23a1.83 1.83 0 0 0-.9.29c-.794.573-1.444 1.323-1.897 2.191s-.697 1.83-.713 2.809c-.044.356.003.718.136 1.052a2.14 2.14 0 0 0 .624.858 1.43 1.43 0 0 0 .725.11 1.44 1.44 0 0 0 .685-.26 6.31 6.31 0 0 0 1.895-2.192c.453-.868.698-1.829.715-2.808.045-.355-.001-.716-.134-1.048a2.1 2.1 0 0 0-.626-.852.94.94 0 0 0-.51-.15h0zm-21.3 52.75a1.85 1.85 0 0 1-.95-.25 2.94 2.94 0 0 1-1.2-2.67 7.17 7.17 0 0 1 3.05-5.79c.333-.229.721-.364 1.124-.39a2.23 2.23 0 0 1 1.166.24c.411.306.738.711.948 1.179a3 3 0 0 1 .252 1.491 7.17 7.17 0 0 1-.804 3.256c-.521 1.006-1.274 1.875-2.196 2.534a2.67 2.67 0 0 1-1.39.4zm2.24-8.23c-.32.015-.631.115-.9.29a6.38 6.38 0 0 0-1.886 2.197c-.453.866-.7 1.825-.724 2.803-.044.357.003.718.136 1.052a2.14 2.14 0 0 0 .624.858 1.44 1.44 0 0 0 1.41-.15c.787-.58 1.431-1.331 1.884-2.198s.7-1.825.726-2.802c.045-.355-.001-.716-.134-1.048a2.1 2.1 0 0 0-.626-.852 1 1 0 0 0-.51-.11v-.04zm35.88-31.78c-.35.013-.697-.074-1-.25a2.94 2.94 0 0 1-.956-1.175 2.95 2.95 0 0 1-.244-1.495 7.18 7.18 0 0 1 .826-3.263 7.17 7.17 0 0 1 2.224-2.527 2.25 2.25 0 0 1 1.124-.391c.404-.026.806.057 1.166.241.421.3.755.706.967 1.177a2.92 2.92 0 0 1 .243 1.503 7.17 7.17 0 0 1-.804 3.256c-.521 1.006-1.274 1.875-2.196 2.534a2.75 2.75 0 0 1-1.35.39h0zm2.25-8.18c-.321.019-.634.115-.91.28-.786.58-1.428 1.332-1.879 2.199a6.41 6.41 0 0 0-.721 2.801 2.09 2.09 0 0 0 .129 1.047 2.1 2.1 0 0 0 .621.853c.227.1.476.14.724.115a1.43 1.43 0 0 0 .686-.255 6.31 6.31 0 0 0 2.61-5 2.08 2.08 0 0 0-.13-1.05c-.133-.333-.35-.626-.63-.85a.93.93 0 0 0-.5-.14h0zm16.81 25c-.35.013-.697-.074-1-.25a2.94 2.94 0 0 1-1.2-2.67 7.17 7.17 0 0 1 3.05-5.79 2.26 2.26 0 0 1 1.129-.39 2.25 2.25 0 0 1 1.171.24 2.93 2.93 0 0 1 .95 1.177c.209.468.292.983.24 1.493a7.17 7.17 0 0 1-.804 3.256c-.521 1.006-1.274 1.875-2.196 2.534a2.64 2.64 0 0 1-1.34.4h0zm2.25-8.22c-.323.012-.636.109-.91.28-.787.579-1.431 1.331-1.882 2.197a6.38 6.38 0 0 0-.718 2.803 2.13 2.13 0 0 0 .13 1.051c.131.334.344.63.62.859a1.44 1.44 0 0 0 1.41-.15 6.31 6.31 0 0 0 1.895-2.192c.453-.868.698-1.829.715-2.808.047-.355.002-.717-.131-1.049a2.1 2.1 0 0 0-.629-.851c-.136-.094-.295-.149-.46-.16l-.04.02zm16.81-46.25c-.35.013-.697-.074-1-.25a2.95 2.95 0 0 1-.956-1.175c-.21-.469-.295-.984-.244-1.495a7.14 7.14 0 0 1 .803-3.252c.521-1.005 1.275-1.872 2.197-2.528.334-.231.724-.367 1.129-.394s.81.058 1.171.244c.416.301.745.706.956 1.175a2.93 2.93 0 0 1 .244 1.495c-.007 1.132-.282 2.246-.804 3.251a7.15 7.15 0 0 1-2.196 2.529c-.392.243-.839.381-1.3.4h0zm2.25-8.22c-.32.01-.631.107-.9.28-.789.578-1.434 1.33-1.886 2.196a6.39 6.39 0 0 0-.724 2.804 2.11 2.11 0 0 0 .129 1.052 2.12 2.12 0 0 0 .621.858 1.43 1.43 0 0 0 .725.11 1.44 1.44 0 0 0 .685-.26 6.39 6.39 0 0 0 1.887-2.197c.452-.866.7-1.826.723-2.803a2.12 2.12 0 0 0-.128-1.052c-.132-.334-.345-.629-.622-.858-.162-.088-.345-.133-.53-.13h.02zm16.81 13.08a2 2 0 0 1-.95-.25 2.93 2.93 0 0 1-.95-1.177c-.209-.468-.292-.983-.24-1.493a7.17 7.17 0 0 1 3.05-5.79 2.25 2.25 0 0 1 1.124-.391c.404-.026.806.057 1.166.241a2.94 2.94 0 0 1 .956 1.175 2.93 2.93 0 0 1 .244 1.495c-.012 1.138-.295 2.256-.826 3.263a7.17 7.17 0 0 1-2.224 2.527c-.408.247-.873.385-1.35.4h0zm2.25-8.23c-.319.017-.628.113-.9.28a6.31 6.31 0 0 0-1.895 2.192c-.453.868-.698 1.829-.715 2.808a2.08 2.08 0 0 0 .13 1.05c.133.333.35.626.63.85a1.42 1.42 0 0 0 .725.114 1.43 1.43 0 0 0 .685-.264 6.31 6.31 0 0 0 1.889-2.194c.451-.867.695-1.828.711-2.806a2.13 2.13 0 0 0-.13-1.051c-.131-.334-.344-.63-.62-.859-.157-.082-.333-.123-.51-.12h0zm16.81-44.05a2 2 0 0 1-.95-.25 2.94 2.94 0 0 1-.95-1.177c-.209-.468-.292-.983-.24-1.493a7.18 7.18 0 0 1 .826-3.263 7.17 7.17 0 0 1 2.224-2.527 2.23 2.23 0 0 1 1.124-.394c.404-.026.807.058 1.166.244a2.94 2.94 0 0 1 .956 1.175 2.93 2.93 0 0 1 .244 1.495 7.15 7.15 0 0 1-.826 3.263 7.17 7.17 0 0 1-2.224 2.527c-.408.247-.873.385-1.35.4zm2.25-8.23c-.319.017-.628.113-.9.28a6.38 6.38 0 0 0-1.886 2.197c-.453.866-.7 1.826-.724 2.803a2.08 2.08 0 0 0 .13 1.05c.133.333.35.626.63.85a1.42 1.42 0 0 0 .725.114 1.43 1.43 0 0 0 .685-.264c.787-.579 1.431-1.33 1.882-2.197a6.37 6.37 0 0 0 .718-2.803 2.13 2.13 0 0 0-.75-1.91c-.157-.082-.333-.123-.51-.12zm16.86 22.64c-.329-.002-.653-.088-.94-.25-.411-.306-.738-.711-.948-1.179a3 3 0 0 1-.252-1.491 7.18 7.18 0 0 1 .826-3.263 7.17 7.17 0 0 1 2.224-2.527 2.23 2.23 0 0 1 1.124-.394c.404-.026.807.058 1.166.244a2.94 2.94 0 0 1 .956 1.175 2.93 2.93 0 0 1 .244 1.495c-.012 1.138-.295 2.256-.826 3.263a7.17 7.17 0 0 1-2.224 2.527c-.408.247-.873.385-1.35.4h0zm2.25-8.23c-.319.017-.628.113-.9.28a6.31 6.31 0 0 0-1.895 2.192c-.453.868-.698 1.829-.715 2.808-.045.355.001.716.134 1.048a2.11 2.11 0 0 0 .626.852 1.41 1.41 0 0 0 1.41-.15c.794-.573 1.444-1.323 1.897-2.191s.697-1.83.713-2.809c.044-.357-.003-.718-.136-1.052a2.13 2.13 0 0 0-.624-.858 1 1 0 0 0-.56-.12h.05zm16.75-53.61a1.85 1.85 0 0 1-.95-.25 2.95 2.95 0 0 1-1.2-2.67 7.15 7.15 0 0 1 .825-3.26c.53-1.005 1.293-1.869 2.225-2.52a2.23 2.23 0 0 1 1.124-.394 2.22 2.22 0 0 1 1.166.244 2.94 2.94 0 0 1 .956 1.175 2.93 2.93 0 0 1 .244 1.495 7.14 7.14 0 0 1-.826 3.259 7.15 7.15 0 0 1-2.224 2.521 2.67 2.67 0 0 1-1.34.4zm2.24-8.22a1.91 1.91 0 0 0-.9.28 6.29 6.29 0 0 0-1.897 2.191c-.453.868-.697 1.83-.713 2.809a2.14 2.14 0 0 0 .134 1.053c.132.334.349.629.626.857a1.44 1.44 0 0 0 1.41-.15 6.29 6.29 0 0 0 1.897-2.191c.453-.868.697-1.83.713-2.809.045-.357-.001-.719-.134-1.053a2.13 2.13 0 0 0-.626-.857 1 1 0 0 0-.49-.13h-.02zm16.84-28.2a1.85 1.85 0 0 1-.95-.25 2.94 2.94 0 0 1-1.2-2.67 7.15 7.15 0 0 1 .834-3.263 7.13 7.13 0 0 1 2.236-2.517 2.22 2.22 0 0 1 2.29-.15 2.94 2.94 0 0 1 .956 1.175 2.93 2.93 0 0 1 .244 1.495 7.14 7.14 0 0 1-.826 3.259 7.15 7.15 0 0 1-2.224 2.521 2.67 2.67 0 0 1-1.36.4h0zm2.24-8.26a1.91 1.91 0 0 0-.9.28 6.29 6.29 0 0 0-1.897 2.191c-.453.868-.697 1.83-.713 2.809a2.14 2.14 0 0 0 .134 1.053c.132.334.349.629.626.857a1.44 1.44 0 0 0 1.41-.15 6.29 6.29 0 0 0 1.897-2.191c.453-.868.697-1.83.713-2.809.045-.357-.001-.719-.134-1.053a2.13 2.13 0 0 0-.626-.857 1 1 0 0 0-.51-.13h0z"/><path opacity=".4" d="M282.09 73.71l-19.06 36.42-18.87 61.21-14.96-11.31-4.29-2.48-19.06 52.28-19.06-4.85-18.71 53.83-15.12-13.48-4.3-2.48-19.06-4.86-19.06 44.84-19.06 2.59-19.06 36.42v25.41l4.29 2.48 209.68-121.05V76.19l-4.3-2.48z"/><path d="M76.71 324.31l19.06-36.42 19.06-2.58 19.06-44.84 19.07 4.86 19.06 16.99 19.06-54.86 19.06 4.85 19.06-52.28 19.06 14.41 19.06-61.83 19.07-36.42v152.49L76.71 349.73v-25.42z" class="E"/><path d="M72.42 321.84l4.29 2.47v25.42l-4.29-2.48v-25.41z"/></g><path opacity=".05" d="M72.42 321.84l4.29 2.47v25.42l-4.29-2.48v-25.41z" class="D"/><path d="M110.54 282.83l4.29 2.48 19.06-44.84-4.29-2.48-19.06 44.84z" class="C E"/><path d="M110.54 282.83l4.29 2.48 19.06-44.84-4.29-2.48-19.06 44.84z" class="D F"/><path d="M91.48 285.42l4.29 2.47-19.06 36.42-4.29-2.47 19.06-36.42z" class="C E"/><path d="M91.48 285.42l4.29 2.47-19.06 36.42-4.29-2.47 19.06-36.42z" class="D F"/><path d="M191.08 207.46l-4.29-2.48-18.71 53.83 3.94 3.51 19.06-54.86z" class="C E"/><path d="M191.08 207.46l-4.29-2.48-18.71 53.83 3.94 3.51 19.06-54.86z" class="D F"/><path d="M205.85 209.83l4.29 2.48 19.06-52.28-4.29-2.48-19.06 52.28z" class="C E"/><path d="M205.85 209.83l4.29 2.48 19.06-52.28-4.29-2.48-19.06 52.28z" class="D F"/><path d="M267.32 112.61l-4.29-2.48-18.87 61.21 4.1 3.1 19.06-61.83z" class="C E"/><path d="M267.32 112.61l-4.29-2.48-18.87 61.21 4.1 3.1 19.06-61.83z" class="D F"/><g fill="#3cb388"><path d="M303.65 42.55l-4.29-2.47-10.73 24.78 4.29 2.48 2.15-1.24v153.11l4.29 2.48 8.59-4.95V58.67l6.44-3.72-10.74-12.4z"/><path d="M314.39 54.95l-10.74-12.4-10.73 24.79 6.44-3.72v158.07l8.59-4.95V58.67l6.44-3.72z"/></g><path d="M288.63 64.86l4.29 2.48 10.73-24.79-4.29-2.47-10.73 24.78zm6.44 154.35l4.29 2.48V63.62l-4.29 2.48v153.11z" class="F D"/><g class="C"><path d="M52.778 66.934a1.61 1.61 0 0 1-.88-.25 2.45 2.45 0 0 1-1-2.17v-22.41a6.47 6.47 0 0 1 2.66-5l33-20.67a2 2 0 0 1 2.2-.19 2.43 2.43 0 0 1 1 2.17v22.37a6.45 6.45 0 0 1-2.66 5l-4.88 3.07-3.29 12.18a1.16 1.16 0 0 1-1 .9 1.15 1.15 0 0 1-1.13-.75l-2.83-7.12-19.83 12.44a2.6 2.6 0 0 1-1.36.43h0zm34.25-49.6l-32.89 20.69a5.4 5.4 0 0 0-2.17 4.08v22.41a1.42 1.42 0 0 0 .46 1.23 1.18 1.18 0 0 0 1.21-.18l20.72-13 3.27 8.24a.14.14 0 0 0 .16.1.14.14 0 0 0 .14-.12l3.41-12.6 5.22-3.29a5.4 5.4 0 0 0 2.16-4.08v-22.44a1.43 1.43 0 0 0-.45-1.23 1.18 1.18 0 0 0-1.21.19h-.03zm-28.011 27a.5.5 0 0 1-.43-.27.57.57 0 0 1 .18-.74l22.65-14.24a.47.47 0 0 1 .679.2.56.56 0 0 1-.18.74l-22.65 14.24a.55.55 0 0 1-.25.07z"/><path d="M59.017 49.104a.48.48 0 0 1-.43-.27.57.57 0 0 1 .18-.74l22.65-14.24a.48.48 0 0 1 .384-.05.48.48 0 0 1 .296.25.56.56 0 0 1-.18.74l-22.65 14.24a.45.45 0 0 1-.25.07z"/><path d="M59.017 53.884a.5.5 0 0 1-.43-.27.57.57 0 0 1 .18-.74l22.65-14.24a.47.47 0 0 1 .385-.055.47.47 0 0 1 .294.255.56.56 0 0 1-.18.74l-22.65 14.23a.46.46 0 0 1-.25.08z"/><use xlink:href="#C"/></g><use xlink:href="#C" opacity=".2" class="D"/><g class="C"><path d="M251.45 35.716l3.23 7.25a.74.74 0 0 0 .727.444.74.74 0 0 0 .663-.534l3.51-11.87-8.13 4.71z"/><path d="M268.22.196l-33.56 19.39a1.7 1.7 0 0 0-.77 1.33v20.78c.015.268.094.528.23.759s.324.427.55.571l2.76 1.55a1.76 1.76 0 0 0 1.55 0l33.58-19.44c.226-.146.413-.344.547-.577a1.68 1.68 0 0 0 .223-.763V3.056c-.013-.266-.09-.524-.224-.754s-.321-.424-.546-.566L269.8.186a1.73 1.73 0 0 0-.791-.186 1.73 1.73 0 0 0-.789.196z"/><path d="M238.22 44.136v-20.8c.013-.267.09-.527.224-.758a1.68 1.68 0 0 1 .546-.572l33.58-19.39c.43-.25.77 0 .77.44v20.78a1.68 1.68 0 0 1-.223.763 1.69 1.69 0 0 1-.547.577l-33.59 19.39c-.43.24-.76.05-.76-.43z"/></g><path opacity=".2" d="M238.98 44.566a1.76 1.76 0 0 1-1.55 0l-2.76-1.55c-.226-.144-.415-.34-.55-.571s-.215-.491-.23-.759v-20.77c.012-.281.098-.553.25-.79l4.29 2.46c-.138.226-.214.485-.22.75v20.8c.01.43.31.69.77.43z" class="D"/><g fill="#fff"><path opacity=".4" d="M273.32 2.916c-.06-.38-.37-.52-.76-.3l-33.58 19.39a1.47 1.47 0 0 0-.55.58l-4.3-2.45a1.47 1.47 0 0 1 .54-.54L268.22.186a1.76 1.76 0 0 1 1.55 0l2.76 1.55c.21.127.389.299.526.502a1.68 1.68 0 0 1 .264.678z"/><path d="M244.44 31.246c-.089-.001-.177-.027-.253-.075s-.137-.115-.177-.195a.58.58 0 0 1 .19-.74l22.65-14.23a.46.46 0 0 1 .183-.071c.065-.01.132-.006.196.012a.46.46 0 0 1 .172.092c.051.043.091.096.119.156.069.123.089.268.055.405s-.117.257-.235.335l-22.65 14.2a.43.43 0 0 1-.25.11z"/></g><path d="M42.07 123.12c-.035-.013-.064-.033-.088-.06s-.032-.06-.032-.1.011-.077.032-.104.059-.051.112-.072l.56-.244h.076c.053 0 .096.016.128.048s.048.075.048.128v2.288a.55.55 0 0 1-.064.016c-.027.008-.056.012-.088.012-.115 0-.172-.049-.172-.148v-2.004l-.512.24zm3.038.664c0-.179-.017-.331-.052-.456s-.076-.228-.132-.308a.49.49 0 0 0-.2-.172c-.075-.037-.155-.056-.24-.056a.5.5 0 0 0-.24.06.53.53 0 0 0-.196.176c-.056.08-.101.183-.136.308a1.83 1.83 0 0 0-.048.448c0 .323.053.569.16.74s.263.256.46.256a.51.51 0 0 0 .46-.256c.109-.171.164-.417.164-.74zm-.624 1.268c-.141 0-.271-.025-.388-.076s-.215-.132-.3-.236-.147-.239-.192-.396-.068-.347-.068-.56c0-.229.027-.424.08-.584a1.14 1.14 0 0 1 .212-.392c.088-.101.188-.175.3-.22s.233-.068.356-.068.241.024.356.072a.78.78 0 0 1 .304.22c.088.101.159.232.212.392s.08.353.08.58c0 .213-.023.4-.068.56a1.13 1.13 0 0 1-.196.396.8.8 0 0 1-.3.236c-.117.051-.247.076-.388.076zm2.508-1.948a.6.6 0 0 1-.044.236.57.57 0 0 1-.12.18c-.051.048-.111.085-.18.112a.6.6 0 0 1-.22.04.61.61 0 0 1-.224-.04c-.067-.027-.125-.064-.176-.112s-.091-.111-.12-.18a.6.6 0 0 1-.044-.236.6.6 0 0 1 .044-.236.52.52 0 0 1 .296-.292.61.61 0 0 1 .224-.04.6.6 0 0 1 .22.04.51.51 0 0 1 .18.116.52.52 0 0 1 .12.176.6.6 0 0 1 .044.236zm-.844 0c0 .104.025.185.076.244a.27.27 0 0 0 .204.084c.083 0 .149-.028.2-.084a.35.35 0 0 0 .08-.244c0-.104-.027-.184-.08-.24a.25.25 0 0 0-.2-.088c-.083 0-.151.029-.204.088s-.076.136-.076.24zm1.72-.568c.061.008.109.024.144.048s.056.051.056.088c0 .027-.005.053-.016.08s-.027.051-.048.08l-1.468 2.196c-.059-.005-.107-.02-.144-.044s-.056-.059-.056-.096.02-.087.06-.148l1.472-2.204zm.66 1.924a.63.63 0 0 1-.044.24.57.57 0 0 1-.12.18c-.051.048-.111.085-.18.112a.58.58 0 0 1-.22.04.6.6 0 0 1-.22-.04c-.069-.027-.129-.064-.18-.112s-.091-.111-.12-.18a.63.63 0 0 1-.044-.24.59.59 0 0 1 .044-.232.52.52 0 0 1 .12-.176.51.51 0 0 1 .18-.116.6.6 0 0 1 .22-.04.58.58 0 0 1 .22.04.51.51 0 0 1 .18.116.52.52 0 0 1 .12.176.59.59 0 0 1 .044.232zm-.844 0c0 .107.025.189.076.248a.27.27 0 0 0 .204.084c.083 0 .149-.028.2-.084s.08-.141.08-.248c0-.101-.027-.18-.08-.236a.25.25 0 0 0-.2-.088c-.083 0-.151.029-.204.088s-.076.135-.076.236z" fill="#e3e3e3"/><path d="M93.758 106.516c.125 0 .24.015.344.044a.76.76 0 0 1 .268.124.56.56 0 0 1 .172.208.62.62 0 0 1 .064.288c0 .08-.013.152-.04.216a.6.6 0 0 1-.1.16.48.48 0 0 1-.124.108.43.43 0 0 1-.12.052.61.61 0 0 1 .16.076c.053.032.101.073.144.124a.53.53 0 0 1 .108.176.56.56 0 0 1 .044.228c0 .12-.023.225-.068.316s-.104.167-.184.228-.176.104-.288.136-.235.044-.368.044c-.109 0-.211-.009-.304-.028a1.05 1.05 0 0 1-.236-.068c-.067-.032-.119-.067-.156-.104s-.056-.076-.056-.116.009-.069.028-.096.048-.049.08-.068c.069.053.153.101.252.144s.232.064.392.064c.176 0 .319-.037.428-.112s.164-.193.164-.348c0-.136-.051-.245-.152-.328s-.248-.124-.44-.124h-.332a.18.18 0 0 1-.028-.056c-.008-.027-.012-.053-.012-.08s.004-.056.012-.08a.18.18 0 0 1 .028-.056h.304c.197 0 .337-.036.42-.108a.37.37 0 0 0 .128-.292c0-.131-.048-.229-.144-.296s-.224-.104-.392-.104a.9.9 0 0 0-.34.06c-.096.037-.176.079-.24.124a.21.21 0 0 1-.072-.06c-.021-.029-.032-.063-.032-.1s.017-.069.052-.104.083-.069.144-.096a.99.99 0 0 1 .22-.068 1.25 1.25 0 0 1 .272-.028zm2.448.048c.024-.005.051-.009.08-.012a.56.56 0 0 1 .084-.008.29.29 0 0 1 .152.04c.045.027.068.079.068.156v1.4h.4c.008.013.016.032.024.056s.012.047.012.076c0 .091-.041.136-.124.136h-.312v.6a.37.37 0 0 1-.06.016.39.39 0 0 1-.08.008c-.115 0-.172-.047-.172-.14v-.484h-1.156c-.027-.013-.051-.036-.072-.068a.25.25 0 0 1-.028-.12.37.37 0 0 1 .004-.06l.016-.052 1.164-1.544zm.084.316h-.008l-.888 1.26h.888l.008-1.26zm2.034.224a.6.6 0 0 1-.044.236c-.029.069-.069.129-.12.18s-.111.085-.18.112a.6.6 0 0 1-.22.04.61.61 0 0 1-.224-.04c-.067-.027-.125-.064-.176-.112s-.091-.111-.12-.18a.6.6 0 0 1-.044-.236.6.6 0 0 1 .044-.236.52.52 0 0 1 .296-.292.61.61 0 0 1 .224-.04.6.6 0 0 1 .22.04.51.51 0 0 1 .18.116.52.52 0 0 1 .12.176.6.6 0 0 1 .044.236zm-.844 0c0 .104.025.185.076.244a.27.27 0 0 0 .204.084c.083 0 .149-.028.2-.084a.35.35 0 0 0 .08-.244c0-.104-.027-.184-.08-.24a.25.25 0 0 0-.2-.088c-.083 0-.151.029-.204.088s-.076.136-.076.24zm1.72-.568c.061.008.109.024.144.048s.056.051.056.088c0 .027-.005.053-.016.08s-.027.051-.048.08l-1.468 2.196c-.059-.005-.107-.02-.144-.044s-.056-.059-.056-.096.02-.087.06-.148l1.472-2.204zm.66 1.924a.63.63 0 0 1-.044.24c-.029.069-.069.129-.12.18s-.111.085-.18.112a.58.58 0 0 1-.22.04.6.6 0 0 1-.22-.04c-.069-.027-.129-.064-.18-.112s-.091-.111-.12-.18a.63.63 0 0 1-.044-.24.59.59 0 0 1 .044-.232.52.52 0 0 1 .12-.176.51.51 0 0 1 .18-.116.6.6 0 0 1 .22-.04.58.58 0 0 1 .22.04.51.51 0 0 1 .18.116.52.52 0 0 1 .12.176.59.59 0 0 1 .044.232zm-.844 0c0 .107.025.189.076.248a.27.27 0 0 0 .204.084c.083 0 .149-.028.2-.084s.08-.141.08-.248c0-.101-.027-.18-.08-.236a.25.25 0 0 0-.2-.088c-.083 0-.151.029-.204.088s-.076.135-.076.236z" fill="#a3a3a3"/></g><g fill="#d9d9d9" class="B"><use xlink:href="#D"/><use xlink:href="#D"/></g><g class="B"><use xlink:href="#E" fill="#d9d9d9"/><use xlink:href="#E" fill="#8d8d8d"/></g><defs ><path id="B" d="M19.862 294.285l-.53.918 95.306 55.025.53-.918-95.306-55.025z"/><path id="C" d="M256.78 29.386l-8.13 4.75 3.23 7.26c.062.145.171.265.31.34l2.79 1.62a.75.75 0 0 0 .652.043c.104-.042.198-.108.274-.191a.75.75 0 0 0 .164-.292l3.51-11.87-2.8-1.66z"/><path id="D" d="M141.706 85.568a.29.29 0 0 1 .024.056c.008.021.012.045.012.072a.17.17 0 0 1-.032.108c-.021.024-.052.036-.092.036h-1.024l-.064.72a.91.91 0 0 1 .188-.068c.08-.024.167-.036.26-.036.12 0 .231.017.332.052s.195.085.272.152.137.145.18.244.068.208.068.336c0 .117-.02.225-.06.324s-.099.184-.176.256-.173.129-.288.172a1.14 1.14 0 0 1-.384.06c-.115 0-.22-.011-.316-.032a1.03 1.03 0 0 1-.24-.076c-.067-.032-.119-.067-.156-.104s-.052-.079-.052-.116c0-.043.013-.079.04-.108a.28.28 0 0 1 .088-.068 1.11 1.11 0 0 0 .248.16.9.9 0 0 0 .388.076c.184 0 .327-.051.428-.152a.53.53 0 0 0 .152-.392c0-.163-.052-.289-.156-.38s-.24-.136-.408-.136c-.093 0-.179.015-.256.044a1.65 1.65 0 0 0-.216.1c-.072-.005-.131-.027-.176-.064s-.064-.091-.064-.152v-.06l.008-.076.068-.764a.22.22 0 0 1 .052-.132c.029-.035.072-.052.128-.052h1.224zm1.251-.052c.126 0 .24.015.344.044a.75.75 0 0 1 .268.124.56.56 0 0 1 .172.208c.043.083.064.179.064.288a.55.55 0 0 1-.04.216c-.026.061-.06.115-.1.16s-.078.081-.124.108a.43.43 0 0 1-.12.052c.054.016.107.041.16.076a.55.55 0 0 1 .144.124.51.51 0 0 1 .108.176.55.55 0 0 1 .044.228.69.69 0 0 1-.068.316c-.042.091-.104.167-.184.228a.9.9 0 0 1-.288.136 1.45 1.45 0 0 1-.368.044c-.109 0-.21-.009-.304-.028a1.05 1.05 0 0 1-.236-.068c-.066-.032-.118-.067-.156-.104s-.056-.076-.056-.116.01-.069.028-.096.048-.049.08-.068c.07.053.154.101.252.144s.232.064.392.064c.176 0 .319-.037.428-.112s.164-.193.164-.348a.4.4 0 0 0-.152-.328c-.101-.083-.248-.124-.44-.124h-.332c-.01-.013-.02-.032-.028-.056s-.012-.053-.012-.08.004-.056.012-.08.018-.043.028-.056h.304c.198 0 .338-.036.42-.108s.128-.172.128-.292c0-.131-.048-.229-.144-.296s-.224-.104-.392-.104a.9.9 0 0 0-.34.06c-.096.037-.176.079-.24.124a.23.23 0 0 1-.072-.06c-.021-.029-.032-.063-.032-.1s.018-.069.052-.104.083-.069.144-.096.138-.052.22-.068.176-.028.272-.028zm2.496.588c0 .088-.015.167-.044.236s-.07.129-.12.18a.55.55 0 0 1-.18.112.61.61 0 0 1-.22.04c-.08 0-.155-.013-.224-.04a.54.54 0 0 1-.176-.112.55.55 0 0 1-.12-.18.59.59 0 0 1-.044-.236.59.59 0 0 1 .044-.236c.029-.069.069-.128.12-.176a.51.51 0 0 1 .176-.116c.069-.027.144-.04.224-.04a.61.61 0 0 1 .22.04c.069.027.129.065.18.116s.09.107.12.176.044.148.044.236zm-.844 0c0 .104.025.185.076.244s.121.084.204.084.149-.028.2-.084.08-.14.08-.244-.027-.184-.08-.24-.118-.088-.2-.088-.151.029-.204.088-.076.136-.076.24zm1.72-.568a.33.33 0 0 1 .144.048c.037.021.056.051.056.088 0 .027-.006.053-.016.08s-.027.051-.048.08l-1.468 2.196c-.059-.005-.107-.02-.144-.044s-.056-.059-.056-.096.02-.087.06-.148l1.472-2.204zm.66 1.924c0 .088-.015.168-.044.24s-.07.129-.12.18a.55.55 0 0 1-.18.112.59.59 0 0 1-.22.04c-.078 0-.151-.013-.22-.04a.53.53 0 0 1-.18-.112.55.55 0 0 1-.12-.18.62.62 0 0 1-.044-.24.58.58 0 0 1 .044-.232c.029-.069.069-.128.12-.176a.5.5 0 0 1 .18-.116c.069-.027.142-.04.22-.04a.59.59 0 0 1 .22.04c.069.027.129.065.18.116s.09.107.12.176.044.147.044.232zm-.844 0c0 .107.025.189.076.248s.121.084.204.084.149-.028.2-.084.08-.141.08-.248a.33.33 0 0 0-.08-.236c-.051-.059-.118-.088-.2-.088s-.151.029-.204.088-.076.135-.076.236z"/><path id="E" d="M184.126 66.356a.66.66 0 0 1 .036-.224.64.64 0 0 1 .104-.176c.043-.053.092-.097.148-.132s.115-.068.176-.092c-.128-.048-.228-.117-.3-.208s-.104-.205-.104-.344a.6.6 0 0 1 .06-.272.56.56 0 0 1 .172-.208c.075-.059.164-.103.268-.132s.219-.048.344-.048c.261 0 .467.06.616.18a.58.58 0 0 1 .228.488c0 .141-.04.257-.12.348s-.183.153-.308.196c.067.024.129.055.188.092a.66.66 0 0 1 .152.132.53.53 0 0 1 .104.18.59.59 0 0 1 .04.224c0 .109-.023.207-.068.292a.6.6 0 0 1-.184.216.85.85 0 0 1-.284.136c-.109.032-.231.048-.364.048-.275 0-.495-.06-.66-.18s-.244-.295-.244-.516zm1.484-.008a.42.42 0 0 0-.168-.348c-.109-.088-.26-.144-.452-.168a.79.79 0 0 0-.396.176c-.099.088-.148.203-.148.344a.38.38 0 0 0 .152.32c.104.075.248.112.432.112.176 0 .316-.036.42-.108s.16-.184.16-.328zm-1.104-1.164c0 .075.015.139.044.192s.069.093.12.128.115.063.184.084.144.032.224.04c.16-.04.279-.095.356-.164s.12-.161.12-.276c0-.128-.047-.227-.14-.296a.63.63 0 0 0-.384-.104c-.16 0-.288.036-.384.108s-.14.168-.14.288zm1.841-.064a.23.23 0 0 1-.088-.06c-.021-.027-.032-.06-.032-.1s.011-.077.032-.104.059-.051.112-.072l.56-.244h.076c.054 0 .096.016.128.048s.048.075.048.128v2.288c-.016.005-.037.011-.064.016s-.056.012-.088.012c-.114 0-.172-.049-.172-.148V64.88l-.512.24zm2.59-.016a.59.59 0 0 1-.044.236.55.55 0 0 1-.12.18.53.53 0 0 1-.18.112c-.069.027-.142.04-.22.04a.62.62 0 0 1-.224-.04.56.56 0 0 1-.176-.112c-.05-.051-.09-.111-.12-.18s-.044-.148-.044-.236.015-.167.044-.236.07-.128.12-.176a.53.53 0 0 1 .176-.116.62.62 0 0 1 .224-.04c.078 0 .151.013.22.04a.5.5 0 0 1 .18.116c.051.048.091.107.12.176a.59.59 0 0 1 .044.236zm-.844 0c0 .104.026.185.076.244s.122.084.204.084.15-.028.2-.084.08-.14.08-.244-.026-.184-.08-.24a.25.25 0 0 0-.2-.088c-.082 0-.15.029-.204.088s-.076.136-.076.24zm1.72-.568a.32.32 0 0 1 .144.048c.038.021.056.051.056.088 0 .027-.005.053-.016.08s-.026.051-.048.08l-1.468 2.196c-.058-.005-.106-.02-.144-.044s-.056-.059-.056-.096.02-.087.06-.148l1.472-2.204zm.66 1.924a.62.62 0 0 1-.044.24.55.55 0 0 1-.12.18.53.53 0 0 1-.18.112c-.066.027-.14.04-.22.04a.61.61 0 0 1-.22-.04.55.55 0 0 1-.18-.112c-.05-.051-.09-.111-.12-.18s-.044-.152-.044-.24.015-.163.044-.232.07-.128.12-.176.111-.089.18-.116a.61.61 0 0 1 .22-.04c.08 0 .154.013.22.04a.5.5 0 0 1 .18.116c.051.048.091.107.12.176a.58.58 0 0 1 .044.232zm-.844 0c0 .107.026.189.076.248s.122.084.204.084.15-.028.2-.084.08-.141.08-.248c0-.101-.026-.18-.08-.236a.25.25 0 0 0-.2-.088c-.082 0-.15.029-.204.088s-.076.135-.076.236z"/></defs></svg>