<?xml version="1.0" encoding="utf-8"?>
<!-- Generator: Adobe Illustrator 22.0.1, SVG Export Plug-In . SVG Version: 6.00 Build 0)  -->
<svg version="1.1" id="Layer_1" xmlns="http://www.w3.org/2000/svg" xmlns:xlink="http://www.w3.org/1999/xlink" x="0px" y="0px"
	 viewBox="0 0 524 416" style="enable-background:new 0 0 524 416;" xml:space="preserve">
<style type="text/css">
	.st0{fill:#ECECEC;}
	.st1{fill:#E1E1E1;}
	.st2{fill:#153F9C;}
	.st3{fill:#9DD2F2;}
	.st4{clip-path:url(#SVGID_2_);}
	.st5{fill:#F5F5F5;}
	.st6{fill:#FFFFFF;}
	.st7{fill:#2A66C6;}
	.st8{fill:#AFC7D3;}
	.st9{fill:#969696;}
	.st10{fill:#2E3192;}
	.st11{fill:#1F57B5;}
	.st12{opacity:0.21;}
	.st13{fill:#EC008C;}
	.st14{fill:#54961E;}
	.st15{font-family:'MyriadPro-Regular';}
	.st16{font-size:5.1446px;}
	.st17{fill:#ACBFBF;}
	.st18{opacity:0.38;}
	.st19{fill:#B7E291;}
	.st20{fill:url(#SVGID_3_);}
	.st21{clip-path:url(#SVGID_5_);}
	.st22{font-size:10.7504px;}
	.st23{fill:url(#SVGID_6_);}
	.st24{opacity:0.24;fill:#ACBFBF;}
	.st25{fill:none;stroke:#A97C50;stroke-miterlimit:10;}
</style>
<g>
	<g>
		<g>
			<g>
				<path class="st0" d="M512.8,184.2c0,0-5.4-5-15.1,8.4c-9.7,13.3-13.8,21.2-13.8,21.2s-2.4,2.7-4.2,0.4c-1.8-2.3-3.7-8.4-7.4-7.9
					c-3.8,0.5-5.7,4.4-6,10.5c-0.3,6.1-1.3,19.6-1.4,20.8c-0.1,1.2-1,2.8-2.5,1.4c-1.5-1.4-9.2-13.4-14.7-9.3
					c-5.5,4-3.4,21.3-3.2,23.1c0.2,1.9-0.3,2.6-1.2,2.9c-0.9,0.3-3.2-4-5.5-7.3c-2.3-3.3-5.7-6.8-8.6-4.2c-3,2.6-5.7,14.8,2.9,36.8
					l4.6,9.9l10.9,1.1c23.6,1,34.2-5.6,35.7-9.3c1.5-3.6-2.8-5.6-6.7-6.8c-3.9-1.1-8.7-1.8-8.7-2.8c0-1,0.5-1.7,2.4-2.1
					c1.8-0.4,18.8-4.1,20.8-10.5c2-6.5-11.8-9.9-13.6-10.8c-1.8-0.9-0.6-2.4,0.5-2.8c1.1-0.5,13.5-5.9,19.2-8.1
					c5.7-2.2,8.8-5.3,8-9.1c-0.8-3.7-7.2-3.5-9.9-4.4c-2.8-0.9-1-4.1-1-4.1s6.1-6.5,15.6-20c9.4-13.5,2.8-17.1,2.8-17.1"/>
			</g>
		</g>
	</g>
	<g>
		<g>
			<g>
				<g>
					<path class="st1" d="M437.6,288.8c7-9.9,16.7-23.5,27.5-38.4c10.8-15,20.6-28.5,27.6-38.4c3.5-4.9,6.3-8.9,8.3-11.7
						c1-1.4,1.7-2.4,2.3-3.2c0.3-0.3,0.5-0.6,0.6-0.8c0.1-0.2,0.2-0.3,0.2-0.3s-0.1,0.1-0.2,0.3c-0.1,0.2-0.3,0.5-0.6,0.8
						c-0.5,0.7-1.3,1.8-2.2,3.2c-1.9,2.8-4.7,6.8-8.2,11.7c-7,9.9-16.7,23.5-27.5,38.4c-10.8,15-20.6,28.5-27.6,38.4"/>
				</g>
			</g>
		</g>
	</g>
	<g>
		<g>
			<g>
				<g>
					<path class="st1" d="M474.7,214.9c0,0,0.1,0.3,0.2,0.8c0.1,0.5,0.2,1.2,0.3,2.1c0.2,1.8,0.5,4.3,0.7,7.1
						c0.2,2.7,0.4,5.2,0.5,7.1c0.1,0.8,0.1,1.6,0.2,2.1c0,0.5,0,0.8,0,0.8c0,0-0.1-0.3-0.2-0.8c-0.1-0.5-0.2-1.2-0.3-2.1
						c-0.2-1.8-0.4-4.3-0.6-7.1c-0.2-2.7-0.4-5.2-0.6-7.1c-0.1-0.8-0.1-1.6-0.2-2.1C474.7,215.1,474.7,214.9,474.7,214.9z"/>
				</g>
			</g>
		</g>
	</g>
	<g>
		<g>
			<g>
				<g>
					<path class="st1" d="M477.5,235.2c0-0.1,5.1-0.8,11.5-1.6c6.3-0.8,11.5-1.3,11.5-1.2c0,0.1-5.1,0.8-11.5,1.6
						C482.6,234.8,477.5,235.3,477.5,235.2z"/>
				</g>
			</g>
		</g>
	</g>
	<g>
		<g>
			<g>
				<g>
					<path class="st1" d="M459.8,257.4c0,0,0.3,0,0.8,0.1c0.6,0.1,1.3,0.2,2.2,0.3c1.8,0.3,4.4,0.7,7.2,1c2.8,0.3,5.4,0.6,7.2,0.7
						c0.9,0.1,1.6,0.1,2.2,0.2c0.5,0,0.8,0.1,0.8,0.1c0,0-0.3,0-0.8,0c-0.5,0-1.3,0-2.2-0.1c-1.9-0.1-4.4-0.3-7.2-0.6
						c-2.8-0.3-5.3-0.8-7.2-1.1c-0.9-0.2-1.6-0.3-2.2-0.5C460.1,257.5,459.8,257.5,459.8,257.4z"/>
				</g>
			</g>
		</g>
	</g>
	<g>
		<g>
			<g>
				<g>
					<path class="st1" d="M453.3,239.6c0,0,0.1,0.2,0.3,0.7c0.2,0.4,0.5,1.1,0.8,1.9c0.6,1.6,1.5,3.8,2.4,6.2
						c0.9,2.4,1.8,4.7,2.3,6.3c0.3,0.8,0.5,1.5,0.7,1.9c0.2,0.5,0.2,0.7,0.2,0.7c0,0-0.1-0.2-0.3-0.7c-0.2-0.4-0.5-1.1-0.8-1.9
						c-0.6-1.6-1.5-3.8-2.4-6.2c-0.9-2.4-1.8-4.7-2.3-6.3c-0.3-0.8-0.5-1.5-0.7-1.9C453.3,239.8,453.2,239.6,453.3,239.6z"/>
				</g>
			</g>
		</g>
	</g>
	<g>
		<g>
			<g>
				<g>
					<path class="st1" d="M435.2,257.2c0,0,0.2,0.3,0.4,0.9c0.3,0.6,0.6,1.4,1,2.4c0.8,2,2,4.9,3.2,8c1.2,3.1,2.3,6,3.1,8
						c0.4,1,0.7,1.8,0.9,2.4c0.2,0.6,0.3,0.9,0.3,0.9c0,0-0.2-0.3-0.4-0.9c-0.3-0.6-0.6-1.4-1-2.4c-0.8-2-2-4.9-3.2-8
						c-1.2-3.1-2.3-6-3.1-8c-0.4-1-0.7-1.8-0.9-2.4C435.3,257.6,435.2,257.2,435.2,257.2z"/>
				</g>
			</g>
		</g>
	</g>
	<g>
		<g>
			<g>
				<g>
					<path class="st1" d="M444,279.2c0,0,0.4,0,1,0.1c0.7,0.1,1.7,0.2,2.8,0.3c2.3,0.3,5.6,0.7,9.1,1c3.6,0.3,6.8,0.6,9.2,0.7
						c1.1,0.1,2.1,0.1,2.8,0.2c0.7,0,1,0.1,1,0.1c0,0-0.4,0-1,0c-0.7,0-1.6,0-2.8-0.1c-2.4-0.1-5.6-0.3-9.2-0.6
						c-3.6-0.3-6.8-0.8-9.1-1.1c-1.2-0.2-2.1-0.3-2.8-0.5C444.4,279.3,444,279.2,444,279.2z"/>
				</g>
			</g>
		</g>
	</g>
</g>
<path class="st2" d="M423.6,295.1H156.2c-14.3,0-26-11.6-26-26V126.4c0-14.3,11.6-26,26-26h267.4c14.3,0,26,11.6,26,26v142.7
	C449.5,283.5,437.9,295.1,423.6,295.1z"/>
<path class="st3" d="M417.2,275.4H162.6c-12.9,0-23.4-10.5-23.4-23.4V131.8c0-12.9,10.5-23.4,23.4-23.4h254.6
	c12.9,0,23.4,10.5,23.4,23.4V252C440.6,265,430.1,275.4,417.2,275.4z"/>
<g>
	<defs>
		<path id="SVGID_1_" d="M417.2,275.4H162.6c-12.9,0-23.4-10.5-23.4-23.4V131.8c0-12.9,10.5-23.4,23.4-23.4h254.6
			c12.9,0,23.4,10.5,23.4,23.4V252C440.6,265,430.1,275.4,417.2,275.4z"/>
	</defs>
	<clipPath id="SVGID_2_">
		<use xlink:href="#SVGID_1_"  style="overflow:visible;"/>
	</clipPath>
	<g class="st4">
		<g>
			<path class="st5" d="M125,201.8c-4.6-0.2-9-0.3-12.6-0.5v22.6l13.9-2.8L125,201.8z"/>
		</g>
		<g>
			<path class="st5" d="M119.2,110.2l-6.8,0.2v88.7c3.8,0.2,8.1,0.3,12.5,0.5L119.2,110.2z"/>
		</g>
		<g>
			<polygon class="st5" points="126.3,222.3 112.4,225.1 112.4,266.6 129.1,266.1 			"/>
		</g>
		<g>
			<polygon class="st5" points="320.9,204.1 366.5,212 368,191.4 320.9,191.4 			"/>
		</g>
		<g>
			<polygon class="st5" points="144.5,108.3 135.8,86 119.9,85.9 121.4,109 			"/>
		</g>
		<g>
			<polygon class="st5" points="148.1,108.2 190.5,107 190.5,107 205.5,107 203.3,86.3 139.4,86 148.1,108.2 			"/>
		</g>
		<g>
			<polygon class="st5" points="238.9,107 241.6,86.4 206.7,86.3 208.9,107 			"/>
		</g>
		<g>
			<polygon class="st5" points="204.9,260.2 192.7,259.4 190.1,235.1 180.5,237 182.5,264.5 196.3,264.1 205.5,266.3 			"/>
		</g>
		<g>
			<polygon class="st5" points="178.9,216.5 180.4,235.8 202,231.6 200.3,214.7 			"/>
		</g>
		<g>
			<polygon class="st5" points="176.7,216.6 158.7,218.1 133.9,220.8 128.5,221.8 131.3,266.1 180.3,264.6 			"/>
		</g>
		<g>
			<path class="st5" d="M261.7,140.5l-2.9,1.7l-19.9-34.1h-47.2l2.5,36l7,69.4l30.9-2.5l8.7-66.3l3.3,0.4l-8.6,65.6l52.4-4.3
				l-6.2-64.9l2.2-0.2l6.2,64.9l27.3-2.2v-62.4l-10-54.8L245,86.5l-2.7,20.8L261.7,140.5z M196.2,111.6c0,0,38.9,0.3,40.4,0
				l14.8,27.8l-53.2,3.6L196.2,111.6z"/>
		</g>
		<g>
			<polygon class="st5" points="204.6,258 202.1,232.7 192.3,234.6 194.7,257.2 			"/>
		</g>
		<g>
			<path class="st5" d="M133.3,202.2c-2-0.1-4.1-0.2-6.1-0.2l1.2,18.8l4.8-1L133.3,202.2z"/>
		</g>
		<g>
			<polygon class="st5" points="320.9,161.7 335.9,165 335.9,190.2 368.1,190.2 374,111.5 343.7,111.5 338.2,86.8 311,86.7 
				320.9,141.2 			"/>
		</g>
		<g>
			<path class="st5" d="M410.5,214.3l2.8-0.7l11.9,30.1l39.3-19.6c-0.1-0.4-0.1-0.7-0.1-1.1l0.2-33.2l-55,0.9L410.5,214.3z"/>
		</g>
		<g>
			<path class="st5" d="M431.6,259.9l53.6,0l0.1-21.9c0-4.1-3.4-7.4-7.7-7.4l-5.5,0c-2.6,0-5-1.3-6.3-3.2l-39.3,19.6L431.6,259.9z"
				/>
		</g>
		<g>
			<path class="st5" d="M429.3,146.8l56.5-2.5l0-6.1l0.1-23.8l-50.5-10.1L429.3,146.8z M480.1,141.4l-46,0.8l4.6-31.6l41.4,6.9
				L480.1,141.4z"/>
		</g>
		<g>
			<path class="st5" d="M429.1,148l-0.5,0c-4.4,0.1-12.3,0.1-20.8,0.2l1.7,41.4l55-0.9l0.1-25.1c0-4.1,3.5-7.4,7.8-7.4l5.5,0
				c4.3,0,7.8-3.3,7.8-7.4l0-3.5L429.1,148L429.1,148z"/>
		</g>
		<g>
			<path class="st5" d="M435.9,100.9l50,10c-0.2-13-10.8-23.5-23.9-23.6l-24.9-0.1l0.7,0.1L435.9,100.9z"/>
		</g>
		<g>
			<polygon class="st5" points="374.2,108.1 375.8,87 341.6,86.9 346.4,108.1 			"/>
		</g>
		<g>
			<polygon class="st5" points="434.8,100.7 436.7,87.3 381.4,87 381.2,89.9 			"/>
		</g>
		<g>
			<polygon class="st5" points="148.7,143.2 193.1,143.6 190.6,108.1 147.1,109.4 			"/>
		</g>
		<g>
			<path class="st5" d="M159,149.8L134.9,200c15.7,0.6,30.4,1.1,31.4,1.1l0.1,1.1l1.1,0.5c-0.4,0.7-0.4,0.7-11.1,0.3
				c-6-0.2-13.9-0.5-21.9-0.8v17.4l24.1-2.6l41.6-3.4l-6.6-65.6L159,149.8z"/>
		</g>
		<g>
			<polygon class="st5" points="232.6,272.8 238.5,272.3 232.2,212.1 201.4,214.6 206.6,266.6 			"/>
		</g>
		<g>
			<polygon class="st5" points="332.6,190.2 332.6,167.8 320.9,165.2 320.9,190.2 			"/>
		</g>
		<g>
			<path class="st5" d="M328.6,263.5l3.9-56.3l-13.3-2.3l-28.9,2.4l5.7,59.4L328.6,263.5z M319.3,209.3l8.4,3l-3.1,48.9l-24,2.8
				l-6.3-53.1L319.3,209.3z"/>
		</g>
		<g>
			<polygon class="st5" points="268.3,269.4 293.8,266.9 288.1,207.5 260.9,209.7 			"/>
		</g>
		<g>
			<polygon class="st5" points="119.1,109.1 117.7,86 119.2,85.9 112.4,85.9 112.4,109.3 			"/>
		</g>
		<g>
			<path class="st5" d="M444.3,291.9l-0.9,0.3l17.7,0.1c13.3,0.1,24-10.6,24.1-23.9l0-7.5l-53.2,0L444.3,291.9z"/>
		</g>
		<g>
			<path class="st5" d="M133.7,199.9l24.6-51.3l35.2-1.8l-0.2-2.1l-45.6-0.4l-1.7-34.9l-1,0l0,0l0,0l-23.5,0.7l5.7,89.5
				C129.3,199.8,131.5,199.8,133.7,199.9z M143.1,111.6l3.4,48.9l-14.8,31.8l-4.4-80.7H143.1z"/>
		</g>
		<g>
			<path class="st5" d="M385.2,277.4l12.4,2.1c6.6-18.4,25.7-19.7,31.5-19.6l-4.7-12l-36.3,18.1L385.2,277.4z"/>
		</g>
		<g>
			<polygon class="st5" points="235.6,211.8 238.2,236.8 260.3,231.9 257.6,210 			"/>
		</g>
		<g>
			<polygon class="st5" points="366.1,263.6 366.2,217 366.4,213.1 335.9,207.8 332,263.2 345.3,261.9 365,267.4 			"/>
		</g>
		<g>
			<path class="st5" d="M371.8,262.5l14.6,0.6l36.8-18.3l-11.3-28.4l-40.2,9.8V262.5z M418.7,243.6l-32,16.8l-10-2.4l1.1-28.8
				l30.2-7.2L418.7,243.6z"/>
		</g>
		<g>
			<polygon class="st5" points="195.8,269.8 167.1,270.6 168.2,290.8 167.1,290.9 166,270.6 131.7,271.7 132.9,290.8 130.6,290.9 
				129.4,271.7 112.4,272.3 112.4,290.9 208,291.3 206.1,272.2 			"/>
		</g>
		<g>
			<path class="st5" d="M428.2,146.8l6.1-42.8L381,93.3l-4,53.7C385.2,147.2,410.4,147.1,428.2,146.8z"/>
		</g>
		<g>
			<polygon class="st5" points="371.8,217.3 371.8,223.8 409.4,214.6 408.4,190.8 373.7,191.3 			"/>
		</g>
		<g>
			<path class="st5" d="M85,85.8l-7.9,0c-0.2,0-0.5,0-0.7,0H85z"/>
		</g>
		<g>
			<path class="st5" d="M376.9,148.1l-3.1,42.1l34.6-0.6l-1.7-41.4C395,148.3,382.5,148.3,376.9,148.1z"/>
		</g>
		<g>
			<polygon class="st5" points="264.9,269.7 260.4,233 238.3,237.9 241.9,271.9 			"/>
		</g>
		<g>
			<path class="st5" d="M398.8,279.7l14,2.4l-0.8,10.1l30.1,0.1L429.6,261C408.5,260.4,401,273.7,398.8,279.7z"/>
		</g>
		<g>
			<polygon class="st5" points="344.8,267.6 331.7,268.9 330.1,291.8 357.2,291.9 363.3,272.8 			"/>
		</g>
		<g>
			<path class="st5" d="M232.2,278.5l-25-6l1.9,18.8l26.2,0.1c1.5-5.8,2.8-10.8,3.3-13.5L232.2,278.5z"/>
		</g>
		<g>
			<polygon class="st5" points="371.3,265.9 363.1,291.9 377.9,292 384.6,266.4 			"/>
		</g>
		<g>
			<path class="st5" d="M242.1,277.6c-0.3,2.1-1.2,6.1-3.2,13.8l57.3,0.2l-1.8-19.1L242.1,277.6z"/>
		</g>
		<g>
			<polygon class="st5" points="296.6,272.3 298.5,291.7 326.7,291.8 328.2,269.2 			"/>
		</g>
		<g>
			<path class="st5" d="M398.1,281.8c-1.1,3.7-2,7.1-2.6,10.3l14.2,0.1l0.6-8.2L398.1,281.8z"/>
		</g>
		<g>
			<path class="st5" d="M384.6,279.6l-3.2,12.5l12.9,0.1c0.6-3.2,1.5-6.7,2.7-10.4L384.6,279.6z"/>
		</g>
		<g>
			<path class="st6" d="M119.1,109.1l-6.8,0.2v1.1l6.8-0.2l5.7,89.4c-4.4-0.2-8.7-0.3-12.5-0.5v2.3c3.6,0.1,8,0.3,12.6,0.5l1.2,19.3
				l-13.9,2.8v1.1l13.9-2.8l2.8,43.8l-16.7,0.5v5.6l17.1-0.5l1.2,19.2l2.2-0.1l-1.2-19.1l34.3-1l1.1,20.3l1.1-0.1l-1.1-20.2
				l28.7-0.9l10.3,2.5l1.9,19.1l1.1,0l-1.9-18.8l25,6l6.4-0.6c-0.5,2.7-1.8,7.7-3.3,13.5l3.5,0c2-7.8,2.9-11.7,3.2-13.8l52.3-5.1
				l1.8,19.1l2.3,0l-1.9-19.4l31.6-3.1l-1.6,22.6l3.4,0l1.6-22.9l13.2-1.3l18.4,5.1l-6.1,19.2l5.9,0l8.2-26.1l13.2,0.5l-6.6,25.6
				l3.5,0l3.2-12.5l12.3,2.1c-1.1,3.7-2,7.2-2.7,10.4l1.2,0c0.6-3.2,1.5-6.6,2.6-10.3l12.3,2.1l-0.6,8.2l2.3,0l0.8-10.1l-14-2.4
				c2.3-6,9.7-19.3,30.9-18.6l12.4,31.3l1.4,0l0.9-0.3L432.1,261l53.2,0l0-1.1l-53.6,0l-5.2-13l39.3-19.6c-0.7-0.9-1.1-2-1.3-3.1
				l-39.3,19.6l-11.9-30.1l-2.8,0.7l-1-23.6l55-0.9l0-1.1l-55,0.9l-1.7-41.4c8.5-0.1,16.4-0.2,20.8-0.2l0.5,0l0,0l56.6-2.5l0-1.1
				l-56.5,2.5l6.1-42.6l50.5,10.1l0-2.9c0-0.2,0-0.4,0-0.5l-50-10l1.9-13.5l-0.7-0.1l-0.4,0l-1.9,13.4l-53.6-10.8l0.2-2.9l-5.6,0
				l-1.6,21.1h-27.8l-4.8-21.2l-3.5,0l5.6,24.6H374l-5.8,78.8h-32.2V165l-15-3.3v-20.5L311,86.7l-3.4,0l10,54.8V204l-27.3,2.2
				l-6.2-64.9l-2.2,0.2l6.2,64.9l-52.4,4.3l8.6-65.6l-3.3-0.4l-8.7,66.3l-30.9,2.5l-7-69.4l-2.5-36h47.2l19.9,34.1l2.9-1.7
				l-19.4-33.3l2.7-20.8l-3.4,0l-2.7,20.6h-30l-2.2-20.7l-3.4,0l2.2,20.7h-15l0,0l-42.5,1.2l0,0L139.4,86l-3.6,0l8.8,22.3l-23.1,0.7
				l-1.5-23.1l-0.7,0l-1.5,0.1L119.1,109.1z M127.3,201.9c2,0.1,4,0.2,6.1,0.2l0,17.6l-4.8,1L127.3,201.9z M128.5,221.8l5.4-1.1
				l24.7-2.6l18-1.5l3.6,47.9l-49,1.5L128.5,221.8z M202.1,232.7l2.5,25.2l-9.9-0.7l-2.4-22.6L202.1,232.7z M202,231.6l-21.6,4.2
				l-1.5-19.4l21.4-1.8L202,231.6z M182.5,264.5l-2.1-27.6l9.6-1.9l2.6,24.3l12.2,0.9l0.6,6.1l-9.1-2.2L182.5,264.5z M260.3,231.9
				l-22.1,4.9l-2.6-25l22-1.8L260.3,231.9z M238.3,237.9l22.1-4.9l4.5,36.7l-23.1,2.2L238.3,237.9z M332,263.2l3.8-55.4l30.6,5.3
				l-0.3,3.9l0,46.7l-1.2,3.7l-19.6-5.5L332,263.2z M429.2,259.9c-5.8-0.1-25,1.2-31.5,19.6l-12.4-2.1l3-11.4l36.3-18.1L429.2,259.9
				z M423.2,244.7l-36.8,18.3l-14.6-0.6v-36.4l40.2-9.8L423.2,244.7z M409.4,214.6l-37.7,9.2v-6.5l1.9-25.9l34.8-0.6L409.4,214.6z
				 M408.4,189.6l-34.6,0.6l3.1-42.1c5.6,0.2,18.1,0.1,29.8,0.1L408.4,189.6z M434.3,104l-6.1,42.8c-17.8,0.2-43,0.4-51.2,0.2
				l4-53.7L434.3,104z M366.5,212l-45.6-7.9v-12.7H368L366.5,212z M332.6,167.8v22.5h-11.6v-25L332.6,167.8z M319.2,204.9l13.3,2.3
				l-3.9,56.3l-32.6,3.2l-5.7-59.4L319.2,204.9z M293.8,266.9l-25.5,2.5l-7.4-59.7l27.2-2.2L293.8,266.9z M232.2,212.1l6.3,60.2
				l-5.9,0.6l-26-6.3l-5.2-52L232.2,212.1z M158.5,217l-24.1,2.6v-17.4c8,0.3,15.9,0.6,21.9,0.8c10.7,0.4,10.7,0.4,11.1-0.3
				l-1.1-0.5l-0.1-1.1c-0.9,0.1-15.6-0.5-31.4-1.1l24.1-50.2l34.6-1.8l6.6,65.6L158.5,217z M193.1,143.6l-44.4-0.4l-1.6-33.8
				l43.5-1.3L193.1,143.6z M145,109.5L145,109.5L145,109.5l1,0l1.7,34.9l45.6,0.4l0.2,2.1l-35.2,1.8l-24.6,51.3
				c-2.2-0.1-4.4-0.2-6.6-0.3l-5.7-89.5L145,109.5z"/>
		</g>
		<g>
			<polygon class="st0" points="146.5,160.5 143.1,111.6 127.4,111.6 131.8,192.3 			"/>
		</g>
		<g>
			<polygon class="st0" points="324.6,261.2 327.7,212.3 319.3,209.3 294.2,211 300.5,264.1 			"/>
		</g>
		<g>
			<polygon class="st0" points="434.1,142.2 480.1,141.4 480.1,117.5 438.7,110.6 			"/>
		</g>
		<g>
			<polygon class="st0" points="376.8,258 386.7,260.4 418.7,243.6 408.1,222.1 377.8,229.2 			"/>
		</g>
		<g>
			<path class="st0" d="M236.6,111.6c-1.5,0.3-40.4,0-40.4,0l2,31.4l53.2-3.6L236.6,111.6z"/>
		</g>
	</g>
</g>
<path class="st7" d="M300.8,288.8H279c-1.4,0-2.5-1.1-2.5-2.5v-0.2c0-1.4,1.1-2.5,2.5-2.5h21.8c1.4,0,2.5,1.1,2.5,2.5v0.2
	C303.3,287.7,302.2,288.8,300.8,288.8z"/>
<path class="st8" d="M475.9,348v6.7c0,3.1-2.5,5.6-5.6,5.6H109.2c-3.1,0-5.6-2.5-5.6-5.6v-6.3c0.3,3.5,3.2,6.5,7.1,6.5h358.1
	C472.8,354.9,475.8,351.6,475.9,348z"/>
<path class="st9" d="M468.8,354.9H110.7c-5.3,0-8.7-5.6-6.3-10.3l23.7-45.8c1.2-2.4,3.6-3.8,6.3-3.8h310.2c2.6,0,5,1.5,6.3,3.8
	l24.2,45.8C477.5,349.2,474.1,354.9,468.8,354.9z"/>
<path class="st10" d="M460.7,349.9H118.1c-5.1,0-7.1-4-4.8-8.1l21.4-40.8c1.2-2,3.5-3.3,6-3.3h296.8c2.5,0,4.8,1.3,6,3.3l21.6,40.2
	C467.5,345.2,465.8,349.9,460.7,349.9z"/>
<path class="st11" d="M103.7,347.2v1.2C103.6,348,103.6,347.6,103.7,347.2z"/>
<g class="st12">
	<polygon class="st3" points="442.7,305.9 137.8,305.9 139,303.7 441.5,303.7 	"/>
	<polygon class="st3" points="446,312.2 134.5,312.2 135.7,310 444.8,310 	"/>
	<polygon class="st3" points="449.4,318.5 131.2,318.5 132.4,316.3 448.2,316.3 	"/>
	<polygon class="st3" points="452.7,324.8 127.8,324.8 129,322.6 451.5,322.6 	"/>
	<polygon class="st3" points="456,331.1 124.5,331.1 125.7,328.8 454.8,328.8 	"/>
	<polygon class="st3" points="459.4,337.4 121.2,337.4 122.4,335.1 458.2,335.1 	"/>
	<polygon class="st3" points="462.7,343.7 117.8,343.7 119,341.4 461.5,341.4 	"/>
</g>
<g>
	<path class="st13" d="M416.6,275.5H162c-12.9,0-23.4-10.5-23.4-23.4V131.8c0-12.9,10.5-23.4,23.4-23.4h254.6
		c12.9,0,23.4,10.5,23.4,23.4v120.3C440,265,429.5,275.5,416.6,275.5z"/>
	<g>
		<path class="st6" d="M416.6,275.5H162c-12.9,0-23.4-10.5-23.4-23.4V131.8c0-12.9,10.5-23.4,23.4-23.4h254.6
			c12.9,0,23.4,10.5,23.4,23.4v120.3C440,265,429.5,275.5,416.6,275.5z"/>
		<rect x="148.4" y="122.6" class="st14" width="281" height="10"/>
		<g>
			<text transform="matrix(1 0 0 1 152.5873 128.8658)" class="st6 st15 st16">PICKUP TIME</text>
			<text transform="matrix(1 0 0 1 195.2953 128.8658)" class="st6 st15 st16">DELIVERY TYPE</text>
			<text transform="matrix(1 0 0 1 240.3764 128.8658)" class="st6 st15 st16">SENDER NAME</text>
			<text transform="matrix(1 0 0 1 282.1947 128.8658)" class="st6 st15 st16">SENDER MOBILE NO.</text>
			<text transform="matrix(1 0 0 1 337.3598 128.8658)" class="st6 st15 st16">SENDER ADDRESS</text>
			<text transform="matrix(1 0 0 1 383.9237 128.8658)" class="st6 st15 st16">SENDER LATTITUDE</text>
		</g>
		<g>
			<rect x="143.4" y="137.4" class="st17" width="4.7" height="4.7"/>
			<rect x="143.4" y="149.4" class="st17" width="4.7" height="4.7"/>
			<rect x="143.4" y="161.4" class="st17" width="4.7" height="4.7"/>
			<rect x="143.4" y="173.4" class="st17" width="4.7" height="4.7"/>
			<rect x="143.4" y="185.4" class="st17" width="4.7" height="4.7"/>
			<rect x="143.4" y="197.4" class="st17" width="4.7" height="4.7"/>
			<rect x="143.4" y="209.4" class="st17" width="4.7" height="4.7"/>
			<rect x="143.4" y="221.4" class="st17" width="4.7" height="4.7"/>
			<rect x="143.4" y="233.4" class="st17" width="4.7" height="4.7"/>
			<rect x="143.4" y="245.4" class="st17" width="4.7" height="4.7"/>
			<rect x="143.4" y="257.4" class="st17" width="4.7" height="4.7"/>
		</g>
		<g>
			<g class="st18">
				<rect x="151.4" y="137.4" class="st14" width="27.7" height="4.7"/>
				<rect x="151.4" y="149.4" class="st14" width="27.7" height="4.7"/>
				<rect x="151.4" y="161.4" class="st14" width="27.7" height="4.7"/>
				<rect x="151.4" y="173.4" class="st14" width="27.7" height="4.7"/>
				<rect x="151.4" y="185.4" class="st14" width="27.7" height="4.7"/>
				<rect x="151.4" y="197.4" class="st14" width="27.7" height="4.7"/>
				<rect x="151.4" y="209.4" class="st14" width="27.7" height="4.7"/>
				<rect x="151.4" y="221.4" class="st14" width="27.7" height="4.7"/>
				<rect x="151.4" y="233.4" class="st14" width="27.7" height="4.7"/>
				<rect x="151.4" y="245.4" class="st14" width="27.7" height="4.7"/>
				<rect x="151.4" y="257.4" class="st14" width="27.7" height="4.7"/>
			</g>
			<g class="st18">
				<rect x="193.9" y="137.4" class="st14" width="33.2" height="4.7"/>
				<rect x="193.9" y="149.4" class="st14" width="33.2" height="4.7"/>
				<rect x="193.9" y="161.4" class="st14" width="33.2" height="4.7"/>
				<rect x="193.9" y="173.4" class="st14" width="33.2" height="4.7"/>
				<rect x="193.9" y="185.4" class="st14" width="33.2" height="4.7"/>
				<rect x="193.9" y="197.4" class="st14" width="33.2" height="4.7"/>
				<rect x="193.9" y="209.4" class="st14" width="33.2" height="4.7"/>
				<rect x="193.9" y="221.4" class="st14" width="33.2" height="4.7"/>
				<rect x="193.9" y="233.4" class="st14" width="33.2" height="4.7"/>
				<rect x="193.9" y="245.4" class="st14" width="33.2" height="4.7"/>
				<rect x="193.9" y="257.4" class="st14" width="33.2" height="4.7"/>
			</g>
			<g class="st18">
				<rect x="239.6" y="137.4" class="st14" width="33.2" height="4.7"/>
				<rect x="239.6" y="149.4" class="st14" width="33.2" height="4.7"/>
				<rect x="239.6" y="161.4" class="st14" width="33.2" height="4.7"/>
				<rect x="239.6" y="173.4" class="st14" width="33.2" height="4.7"/>
				<rect x="239.6" y="185.4" class="st14" width="33.2" height="4.7"/>
				<rect x="239.6" y="197.4" class="st14" width="33.2" height="4.7"/>
				<rect x="239.6" y="209.4" class="st14" width="33.2" height="4.7"/>
				<rect x="239.6" y="221.4" class="st14" width="33.2" height="4.7"/>
				<rect x="239.6" y="233.4" class="st14" width="33.2" height="4.7"/>
				<rect x="239.6" y="245.4" class="st14" width="33.2" height="4.7"/>
				<rect x="239.6" y="257.4" class="st14" width="33.2" height="4.7"/>
			</g>
			<g class="st18">
				<rect x="285.2" y="137.4" class="st14" width="39.9" height="4.7"/>
				<rect x="285.2" y="149.4" class="st14" width="39.9" height="4.7"/>
				<rect x="285.2" y="161.4" class="st14" width="39.9" height="4.7"/>
				<rect x="285.2" y="173.4" class="st14" width="39.9" height="4.7"/>
				<rect x="285.2" y="185.4" class="st14" width="39.9" height="4.7"/>
				<rect x="285.2" y="197.4" class="st14" width="39.9" height="4.7"/>
				<rect x="285.2" y="209.4" class="st14" width="39.9" height="4.7"/>
				<rect x="285.2" y="221.4" class="st14" width="39.9" height="4.7"/>
				<rect x="285.2" y="233.4" class="st14" width="39.9" height="4.7"/>
				<rect x="285.2" y="245.4" class="st14" width="39.9" height="4.7"/>
				<rect x="285.2" y="257.4" class="st14" width="39.9" height="4.7"/>
			</g>
			<g class="st18">
				<rect x="336.6" y="137.4" class="st14" width="39.9" height="4.7"/>
				<rect x="336.6" y="149.4" class="st14" width="39.9" height="4.7"/>
				<rect x="336.6" y="161.4" class="st14" width="39.9" height="4.7"/>
				<rect x="336.6" y="173.4" class="st14" width="39.9" height="4.7"/>
				<rect x="336.6" y="185.4" class="st14" width="39.9" height="4.7"/>
				<rect x="336.6" y="197.4" class="st14" width="39.9" height="4.7"/>
				<rect x="336.6" y="209.4" class="st14" width="39.9" height="4.7"/>
				<rect x="336.6" y="221.4" class="st14" width="39.9" height="4.7"/>
				<rect x="336.6" y="233.4" class="st14" width="39.9" height="4.7"/>
				<rect x="336.6" y="245.4" class="st14" width="39.9" height="4.7"/>
				<rect x="336.6" y="257.4" class="st14" width="39.9" height="4.7"/>
			</g>
			<g class="st18">
				<rect x="383.9" y="137.4" class="st14" width="41.2" height="4.7"/>
				<rect x="383.9" y="149.4" class="st14" width="41.2" height="4.7"/>
				<rect x="383.9" y="161.4" class="st14" width="41.2" height="4.7"/>
				<rect x="383.9" y="173.4" class="st14" width="41.2" height="4.7"/>
				<rect x="383.9" y="185.4" class="st14" width="41.2" height="4.7"/>
				<rect x="383.9" y="197.4" class="st14" width="41.2" height="4.7"/>
				<rect x="383.9" y="209.4" class="st14" width="41.2" height="4.7"/>
				<rect x="383.9" y="221.4" class="st14" width="41.2" height="4.7"/>
				<rect x="383.9" y="233.4" class="st14" width="41.2" height="4.7"/>
				<rect x="383.9" y="245.4" class="st14" width="41.2" height="4.7"/>
				<rect x="383.9" y="257.4" class="st14" width="41.2" height="4.7"/>
			</g>
		</g>
		<rect x="151.9" y="115.1" class="st19" width="25.5" height="3.3"/>
		<rect x="182.4" y="115.1" class="st19" width="25.5" height="3.3"/>
		<rect x="212.9" y="115.1" class="st19" width="59.3" height="3.3"/>
		<rect x="274.7" y="115.1" class="st19" width="59.3" height="3.3"/>
		<rect x="338.3" y="115.1" class="st19" width="18.5" height="3.3"/>
		<rect x="361.1" y="115.1" class="st19" width="10" height="3.3"/>
		<rect x="374.6" y="115.1" class="st19" width="37" height="3.3"/>
	</g>
</g>
<circle class="st2" cx="185.3" cy="127.9" r="90.3"/>
<linearGradient id="SVGID_3_" gradientUnits="userSpaceOnUse" x1="81.8373" y1="127.9347" x2="290.5456" y2="127.9347">
	<stop  offset="0" style="stop-color:#ACBFBF"/>
	<stop  offset="1" style="stop-color:#000000"/>
</linearGradient>
<circle class="st20" cx="186.2" cy="127.9" r="104.4"/>
<g>
	<defs>
		<circle id="SVGID_4_" cx="186.7" cy="126.7" r="90.3"/>
	</defs>
	<clipPath id="SVGID_5_">
		<use xlink:href="#SVGID_4_"  style="overflow:visible;"/>
	</clipPath>
	<g class="st21">
		<rect x="18" y="-15.2" class="st6" width="332.1" height="246.2"/>
		<g>
			<path class="st6" d="M685.6,417.1h-583c-12.9,0-23.4-10.5-23.4-23.4V91.4c0-12.9,10.5-23.4,23.4-23.4h583
				c12.9,0,23.4,10.5,23.4,23.4v302.3C708.9,406.6,698.5,417.1,685.6,417.1z"/>
			<rect x="99.7" y="97.5" class="st14" width="587.2" height="20.9"/>
			<g>
				<text transform="matrix(1 0 0 1 108.3833 110.6621)" class="st6 st15 st22">PICKUP TIME</text>
				<text transform="matrix(1 0 0 1 197.6284 110.6621)" class="st6 st15 st22">DELIVERY TYPE</text>
				<text transform="matrix(1 0 0 1 291.833 110.6621)" class="st6 st15 st22">SENDER NAME</text>
				<text transform="matrix(1 0 0 1 379.2178 110.6621)" class="st6 st15 st22">SENDER MOBILE NO.</text>
				<text transform="matrix(1 0 0 1 494.4941 110.6621)" class="st6 st15 st22">SENDER ADDRESS</text>
			</g>
			<g>
				<rect x="89.2" y="128.5" class="st17" width="9.8" height="9.8"/>
				<rect x="89.2" y="153.6" class="st17" width="9.8" height="9.8"/>
				<rect x="89.2" y="178.7" class="st17" width="9.8" height="9.8"/>
				<rect x="89.2" y="203.8" class="st17" width="9.8" height="9.8"/>
				<rect x="89.2" y="228.8" class="st17" width="9.8" height="9.8"/>
				<rect x="89.2" y="253.9" class="st17" width="9.8" height="9.8"/>
				<rect x="89.2" y="279" class="st17" width="9.8" height="9.8"/>
				<rect x="89.2" y="304.1" class="st17" width="9.8" height="9.8"/>
				<rect x="89.2" y="329.2" class="st17" width="9.8" height="9.8"/>
				<rect x="89.2" y="354.2" class="st17" width="9.8" height="9.8"/>
				<rect x="89.2" y="379.3" class="st17" width="9.8" height="9.8"/>
			</g>
			<g>
				<g class="st18">
					<rect x="105.9" y="128.5" class="st14" width="57.9" height="9.8"/>
					<rect x="105.9" y="153.6" class="st14" width="57.9" height="9.8"/>
					<rect x="105.9" y="178.7" class="st14" width="57.9" height="9.8"/>
					<rect x="105.9" y="203.8" class="st14" width="57.9" height="9.8"/>
					<rect x="105.9" y="228.8" class="st14" width="57.9" height="9.8"/>
					<rect x="105.9" y="253.9" class="st14" width="57.9" height="9.8"/>
					<rect x="105.9" y="279" class="st14" width="57.9" height="9.8"/>
					<rect x="105.9" y="304.1" class="st14" width="57.9" height="9.8"/>
					<rect x="105.9" y="329.2" class="st14" width="57.9" height="9.8"/>
					<rect x="105.9" y="354.2" class="st14" width="57.9" height="9.8"/>
					<rect x="105.9" y="379.3" class="st14" width="57.9" height="9.8"/>
				</g>
				<g class="st18">
					<rect x="194.7" y="128.5" class="st14" width="69.4" height="9.8"/>
					<rect x="194.7" y="153.6" class="st14" width="69.4" height="9.8"/>
					<rect x="194.7" y="178.7" class="st14" width="69.4" height="9.8"/>
					<rect x="194.7" y="203.8" class="st14" width="69.4" height="9.8"/>
					<rect x="194.7" y="228.8" class="st14" width="69.4" height="9.8"/>
					<rect x="194.7" y="253.9" class="st14" width="69.4" height="9.8"/>
					<rect x="194.7" y="279" class="st14" width="69.4" height="9.8"/>
					<rect x="194.7" y="304.1" class="st14" width="69.4" height="9.8"/>
					<rect x="194.7" y="329.2" class="st14" width="69.4" height="9.8"/>
					<rect x="194.7" y="354.2" class="st14" width="69.4" height="9.8"/>
					<rect x="194.7" y="379.3" class="st14" width="69.4" height="9.8"/>
				</g>
				<g class="st18">
					<rect x="290.1" y="128.5" class="st14" width="69.4" height="9.8"/>
					<rect x="290.1" y="153.6" class="st14" width="69.4" height="9.8"/>
					<rect x="290.1" y="178.7" class="st14" width="69.4" height="9.8"/>
					<rect x="290.1" y="203.8" class="st14" width="69.4" height="9.8"/>
					<rect x="290.1" y="228.8" class="st14" width="69.4" height="9.8"/>
					<rect x="290.1" y="253.9" class="st14" width="69.4" height="9.8"/>
					<rect x="290.1" y="279" class="st14" width="69.4" height="9.8"/>
					<rect x="290.1" y="304.1" class="st14" width="69.4" height="9.8"/>
					<rect x="290.1" y="329.2" class="st14" width="69.4" height="9.8"/>
					<rect x="290.1" y="354.2" class="st14" width="69.4" height="9.8"/>
					<rect x="290.1" y="379.3" class="st14" width="69.4" height="9.8"/>
				</g>
				<g class="st18">
					<rect x="385.6" y="128.5" class="st14" width="83.3" height="9.8"/>
					<rect x="385.6" y="153.6" class="st14" width="83.3" height="9.8"/>
					<rect x="385.6" y="178.7" class="st14" width="83.3" height="9.8"/>
					<rect x="385.6" y="203.8" class="st14" width="83.3" height="9.8"/>
					<rect x="385.6" y="228.8" class="st14" width="83.3" height="9.8"/>
					<rect x="385.6" y="253.9" class="st14" width="83.3" height="9.8"/>
					<rect x="385.6" y="279" class="st14" width="83.3" height="9.8"/>
					<rect x="385.6" y="304.1" class="st14" width="83.3" height="9.8"/>
					<rect x="385.6" y="329.2" class="st14" width="83.3" height="9.8"/>
					<rect x="385.6" y="354.2" class="st14" width="83.3" height="9.8"/>
					<rect x="385.6" y="379.3" class="st14" width="83.3" height="9.8"/>
				</g>
				<g class="st18">
					<rect x="492.8" y="128.5" class="st14" width="83.3" height="9.8"/>
					<rect x="492.8" y="153.6" class="st14" width="83.3" height="9.8"/>
					<rect x="492.8" y="178.7" class="st14" width="83.3" height="9.8"/>
					<rect x="492.8" y="203.8" class="st14" width="83.3" height="9.8"/>
					<rect x="492.8" y="228.8" class="st14" width="83.3" height="9.8"/>
					<rect x="492.8" y="253.9" class="st14" width="83.3" height="9.8"/>
					<rect x="492.8" y="279" class="st14" width="83.3" height="9.8"/>
					<rect x="492.8" y="304.1" class="st14" width="83.3" height="9.8"/>
					<rect x="492.8" y="329.2" class="st14" width="83.3" height="9.8"/>
					<rect x="492.8" y="354.2" class="st14" width="83.3" height="9.8"/>
					<rect x="492.8" y="379.3" class="st14" width="83.3" height="9.8"/>
				</g>
			</g>
			<rect x="107" y="81.9" class="st19" width="53.3" height="6.8"/>
			<rect x="170.7" y="81.9" class="st19" width="53.3" height="6.8"/>
			<rect x="234.5" y="81.9" class="st19" width="123.8" height="6.8"/>
			<rect x="363.5" y="81.9" class="st19" width="123.8" height="6.8"/>
			<rect x="496.5" y="81.9" class="st19" width="38.7" height="6.8"/>
		</g>
	</g>
</g>
<g>
	
		<linearGradient id="SVGID_6_" gradientUnits="userSpaceOnUse" x1="15.7257" y1="68.9673" x2="41.7257" y2="68.9673" gradientTransform="matrix(0.6364 0.7713 -0.4662 0.3847 72.4556 178.7863)">
		<stop  offset="0" style="stop-color:#1B75BC"/>
		<stop  offset="1" style="stop-color:#ACBFBF"/>
	</linearGradient>
	<path class="st23" d="M17.8,272.8L6.4,258.9c-1.4-1.7-1.2-4.2,0.5-5.6l86.8-71.6c1.7-1.4,4.2-1.2,5.6,0.5l11.5,13.9
		c1.4,1.7,1.2,4.2-0.5,5.6l-86.8,71.6C21.8,274.7,19.2,274.4,17.8,272.8z"/>
	<path class="st24" d="M17.8,272.8l-5.1-6.2l92.9-76.7l5.1,6.2c1.4,1.7,1.2,4.2-0.5,5.6l-86.8,71.6
		C21.8,274.7,19.2,274.4,17.8,272.8z"/>
</g>
<circle class="st25" cx="186.2" cy="127.1" r="91.3"/>
</svg>
