<?xml version="1.0" encoding="UTF-8" standalone="no"?>
<svg
   xmlns:dc="http://purl.org/dc/elements/1.1/"
   xmlns:cc="http://creativecommons.org/ns#"
   xmlns:rdf="http://www.w3.org/1999/02/22-rdf-syntax-ns#"
   xmlns:svg="http://www.w3.org/2000/svg"
   xmlns="http://www.w3.org/2000/svg"
   viewBox="0 0 330.17334 59.186668"
   height="59.186668"
   width="330.17334"
   xml:space="preserve"
   id="svg2"
   version="1.1"><metadata
     id="metadata8"><rdf:RDF><cc:Work
         rdf:about=""><dc:format>image/svg+xml</dc:format><dc:type
           rdf:resource="http://purl.org/dc/dcmitype/StillImage" /></cc:Work></rdf:RDF></metadata><defs
     id="defs6"><clipPath
       id="clipPath20"
       clipPathUnits="userSpaceOnUse"><path
         id="path18"
         d="M 0,0 H 2476 V 443.871 H 0 Z" /></clipPath></defs><g
     transform="matrix(1.3333333,0,0,-1.3333333,0,59.186667)"
     id="g10"><g
       transform="scale(0.1)"
       id="g12"><g
         id="g14"><g
           clip-path="url(#clipPath20)"
           id="g16"><path
             id="path22"
             style="fill:#2c3d9b;fill-opacity:1;fill-rule:evenodd;stroke:none"
             d="m 956.301,370.859 c -60.774,0.457 -108.242,-49.218 -109.004,-114.082 -0.793,-66.386 47.637,-118.449 109.48,-117.683 60.073,0.73 108.233,52.554 107.993,116.187 -0.25,63.891 -48.33,115.129 -108.469,115.578 z M 1031.64,75.8008 c 14.21,-8.9453 27.23,-6.7695 38.94,-5.3242 26.24,3.2461 32.16,-6.6368 33.39,-32.4414 1.56,-32.44926 -9.31,-39.18754 -39.54,-37.890669 C 1005.93,2.65625 947.234,0.878906 883.313,0.878906 897.402,24.4414 909.707,45.0117 922.117,65.7617 806.223,113.32 758.789,182.449 772.043,282.629 c 10.816,81.773 78.16,148.824 160.445,159.742 81.352,10.793 163.172,-37.676 194.742,-115.351 37.13,-91.383 7.35,-171.356 -95.59,-251.2192" /><path
             id="path24"
             style="fill:#2c3d9b;fill-opacity:1;fill-rule:evenodd;stroke:none"
             d="m 1461.45,312.961 c 0,30.203 0,53.953 0,77.691 0,42.395 24.14,58.985 63.87,45.168 11.92,-4.14 10.45,-12.472 10.29,-20.722 -1.44,-69.914 4.64,-140.039 -3.42,-209.746 -10.02,-86.563 -65.05,-136.2192 -149.27,-136.8364 -86.28,-0.625 -142.88,48.7504 -154.16,136.3284 -8.97,69.668 -2.52,139.812 -4.04,209.715 -0.81,37.636 28.2,17.55 43.76,20.656 14.21,2.82 32.6,7.078 31.93,-20.899 -1.49,-62.441 -1.9,-125 0.29,-187.414 2.19,-62.117 31.9,-88.55 88.92,-85.086 37.46,2.266 59.81,21.27 67.63,58.008 8.43,39.656 1.79,79.766 4.2,113.137" /><path
             id="path26"
             style="fill:#2c3d9b;fill-opacity:1;fill-rule:evenodd;stroke:none"
             d="m 1782.11,431.699 c 53.04,12.449 93.26,7.071 115.48,-46.64 9.36,-22.649 26.39,-42.11 41.07,-64.778 21.77,17.285 34.38,40.86 44.37,63.41 22.02,49.727 57.17,63.457 110.45,47.782 -29.85,-47.266 -58.72,-94.813 -89.62,-141.024 -11.99,-17.929 -12.58,-31.301 -0.14,-49.48 35.75,-52.231 69.49,-105.832 104.52,-159.6604 -71.84,-14.6602 -75.77,-13.0469 -112.83,43.7694 -16.33,25.039 -32.78,49.988 -49.4,74.844 -1.22,1.816 -4.14,2.488 -8.01,4.68 -16.36,-26.164 -36.04,-50.911 -48.41,-78.887 -21.5,-48.6134 -56.47,-59.7072 -108.37,-45.4611 25.24,40.8401 46.23,83.5351 75.36,119.6801 35.79,44.402 33.8,80.261 -2.54,122.886 -27.71,32.512 -47.73,71.575 -71.93,108.879" /><path
             id="path28"
             style="fill:#2c3d9b;fill-opacity:1;fill-rule:evenodd;stroke:none"
             d="m 2476.26,79.9609 c -51.97,-12.1796 -91.74,-7.2773 -114.93,46.0471 -12.19,28.008 -33.02,52.246 -53.08,82.996 -18.57,-29.57 -38.24,-53.75 -50.1,-81.289 -20.96,-48.6994 -55.27,-62.6955 -109.89,-47.5392 26.04,41.7972 48.64,85.8592 78.62,124.1402 32.17,41.075 30.67,73.899 -2.01,113.504 -28.2,34.172 -49.5,74.024 -74.32,112.11 66.89,15.879 76.36,12.258 110.4,-40.215 14.83,-22.891 29.82,-45.684 45.84,-70.184 20.8,19.219 34.59,42.371 44.45,65.399 21.24,49.562 57.06,60.539 109.73,47.48 -28.71,-45.898 -56.12,-92.383 -86.39,-136.914 -14.45,-21.269 -16.1,-36.695 -0.49,-58.863 35.63,-50.559 67.82,-103.528 102.17,-156.6721" /><path
             id="path30"
             style="fill:#2c3d9b;fill-opacity:1;fill-rule:evenodd;stroke:none"
             d="m 119.727,404.746 c 184.812,0.41 369.648,0.488 554.461,1.688 20.609,0.129 26.171,-7.012 24.281,-25.801 -1.25,-12.363 -1.106,-25.028 -0.031,-37.43 1.417,-16.34 -4.852,-21.523 -21.204,-21.418 -167.332,1.035 -334.668,1.43 -502.019,2.004 -31.262,18.242 -63.527,35.789 -55.488,80.957" /><path
             id="path32"
             style="fill:#2c3d9b;fill-opacity:1;fill-rule:evenodd;stroke:none"
             d="m 254.949,299.758 c 139.426,0.41 278.86,0.515 418.293,1.597 18.887,0.149 28.36,-4.429 25.039,-24.585 -0.207,-1.211 -0.051,-2.485 -0.019,-3.735 1.191,-55.965 1.191,-56.14 -53.289,-55.933 -114.535,0.437 -229.055,1.089 -343.586,1.648 -30.996,18.105 -49.91,43.137 -46.438,81.008" /><path
             id="path34"
             style="fill:#2c3d9b;fill-opacity:1;fill-rule:evenodd;stroke:none"
             d="m 1634.22,259.805 c 0,51.047 1.36,102.148 -0.48,153.133 -1.22,34.16 22.59,22.296 37.97,22.414 15.63,0.117 38.51,11.101 38.08,-22.688 -1.35,-104.578 -1.13,-209.187 -0.16,-313.7695 0.34,-37.1953 -26.19,-20.4179 -42.02,-22.4101 -15.64,-1.9649 -35.14,-7.4805 -33.97,22.7148 2.06,53.4688 0.58,107.0628 0.58,160.6058" /><path
             id="path36"
             style="fill:#2c3d9b;fill-opacity:1;fill-rule:evenodd;stroke:none"
             d="m 388.379,196.223 c 95.906,0.347 191.816,0.261 287.715,1.433 18.879,0.235 23.777,-7.051 22.344,-24.023 -1.055,-12.371 -1.192,-25 0.031,-37.344 1.746,-17.812 -4.746,-23.555 -22.871,-23.281 -83.457,1.23 -166.946,1.152 -250.41,1.543 -28.086,20.09 -40.989,47.031 -36.809,81.672" /><path
             id="path38"
             style="fill:#eb7c2c;fill-opacity:1;fill-rule:evenodd;stroke:none"
             d="m 119.727,404.746 c -8.039,-45.168 24.226,-62.715 55.488,-80.957 -31.043,-0.312 -62.102,-0.574 -93.1642,-0.945 -23.8281,-0.285 -43.3477,10.332 -60.6055,25.203 -14.80467,12.754 -26.3203,30.156 -19.36327,49.101 6.36719,17.364 25.91407,7.735 39.38277,8.329 26.0235,1.164 52.168,-0.34 78.2622,-0.731" /><path
             id="path40"
             style="fill:#eb7c2c;fill-opacity:1;fill-rule:evenodd;stroke:none"
             d="m 254.949,299.758 c -3.472,-37.871 15.442,-62.903 46.438,-81.008 -30.879,-0.383 -61.77,-0.703 -92.657,-1.184 -19.628,-0.3 -36.484,6.829 -50.207,20.278 -14.812,14.519 -25.234,34.5 -19.863,53.308 5.578,19.539 27.629,8.496 42.18,9.309 24.609,1.387 49.394,-0.305 74.109,-0.703" /><path
             id="path42"
             style="fill:#eb7c2c;fill-opacity:1;fill-rule:evenodd;stroke:none"
             d="m 388.379,196.223 c -4.18,-34.641 8.723,-61.582 36.809,-81.672 -31.094,-0.371 -62.208,-0.274 -93.286,-1.281 -24.109,-0.77 -40.398,11.234 -51.609,30.597 -21.738,37.551 -12.742,53.211 29.719,53.164 26.121,-0.039 52.246,-0.515 78.367,-0.808" /><path
             id="path44"
             style="fill:#ffffff;fill-opacity:1;fill-rule:evenodd;stroke:none"
             d="m 956.301,370.859 c 60.139,-0.449 108.219,-51.687 108.469,-115.578 0.24,-63.633 -47.92,-115.457 -107.993,-116.187 -61.843,-0.766 -110.273,51.297 -109.48,117.683 0.762,64.864 48.23,114.539 109.004,114.082" /></g></g></g></g></svg>